%TF.GenerationSoftware,KiCad,Pcbnew,(6.99.0-3937-g3e53426b6c)*%
%TF.CreationDate,2025-03-10T01:13:02-04:00*%
%TF.ProjectId,AnalogFNN,416e616c-6f67-4464-9e4e-2e6b69636164,rev?*%
%TF.SameCoordinates,Original*%
%TF.FileFunction,Copper,L9,Inr*%
%TF.FilePolarity,Positive*%
%FSLAX46Y46*%
G04 Gerber Fmt 4.6, Leading zero omitted, Abs format (unit mm)*
G04 Created by KiCad (PCBNEW (6.99.0-3937-g3e53426b6c)) date 2025-03-10 01:13:02*
%MOMM*%
%LPD*%
G01*
G04 APERTURE LIST*
%TA.AperFunction,ComponentPad*%
%ADD10R,1.700000X1.700000*%
%TD*%
%TA.AperFunction,ComponentPad*%
%ADD11O,1.700000X1.700000*%
%TD*%
%TA.AperFunction,ViaPad*%
%ADD12C,0.800000*%
%TD*%
%TA.AperFunction,ViaPad*%
%ADD13C,0.400000*%
%TD*%
%TA.AperFunction,Conductor*%
%ADD14C,0.250000*%
%TD*%
%TA.AperFunction,Conductor*%
%ADD15C,0.350200*%
%TD*%
%TA.AperFunction,Conductor*%
%ADD16C,0.450400*%
%TD*%
G04 APERTURE END LIST*
D10*
%TO.N,-5V*%
%TO.C,J2*%
X125599999Y-26824999D03*
D11*
%TO.N,GND*%
X125599999Y-29364999D03*
%TO.N,+5V*%
X125599999Y-31904999D03*
%TO.N,GND*%
X125599999Y-34444999D03*
%TO.N,+3V3*%
X125599999Y-36984999D03*
%TD*%
D10*
%TO.N,GND*%
%TO.C,J1*%
X119099999Y-26799999D03*
D11*
%TO.N,/SWCLK*%
X119099999Y-29339999D03*
%TO.N,/SWDIO*%
X119099999Y-31879999D03*
%TO.N,+3V3*%
X119099999Y-34419999D03*
%TD*%
D10*
%TO.N,GND*%
%TO.C,SW1*%
X106074999Y-21499999D03*
D11*
%TO.N,Net-(SW1-B)*%
X108614999Y-21499999D03*
%TO.N,+3V3*%
X111154999Y-21499999D03*
%TD*%
D10*
%TO.N,/L5_OUT1*%
%TO.C,J4*%
X467306099Y-73225199D03*
D11*
%TO.N,/L5_OUT2*%
X467306099Y-75765199D03*
%TD*%
D10*
%TO.N,/L1_IN1*%
%TO.C,J3*%
X172724999Y-199784999D03*
D11*
%TO.N,/L1_IN2*%
X172724999Y-202324999D03*
%TO.N,/L1_IN3*%
X172724999Y-204864999D03*
%TO.N,/L1_IN4*%
X172724999Y-207404999D03*
%TO.N,/L1_IN5*%
X172724999Y-209944999D03*
%TO.N,/L1_IN6*%
X172724999Y-212484999D03*
%TO.N,/L1_IN7*%
X172724999Y-215024999D03*
%TO.N,/L1_IN8*%
X172724999Y-217564999D03*
%TO.N,/L1_IN9*%
X172724999Y-220104999D03*
%TO.N,/L1_IN10*%
X172724999Y-222644999D03*
%TO.N,/L1_IN11*%
X172724999Y-225184999D03*
%TO.N,/L1_IN12*%
X172724999Y-227724999D03*
%TD*%
D12*
%TO.N,GND*%
X116000000Y-304100000D03*
D13*
X388198000Y-127306000D03*
D12*
X177325000Y-136465000D03*
X46650000Y-143200000D03*
X249569000Y-202775000D03*
X178075000Y-95565000D03*
D13*
X387398000Y-315582000D03*
X284756000Y-182550000D03*
D12*
X219028000Y-68600000D03*
D13*
X383574000Y-126506000D03*
D12*
X68050000Y-94650000D03*
X402498000Y-51986700D03*
X46700000Y-224000000D03*
X299156000Y-153450000D03*
X68650000Y-107450000D03*
D13*
X283956000Y-62049700D03*
D12*
X350856000Y-150690000D03*
X218828000Y-157700000D03*
X146600000Y-316850000D03*
D13*
X380098700Y-155400000D03*
X279609000Y-147125000D03*
D12*
X68200000Y-195400000D03*
D13*
X279609000Y-250125000D03*
D12*
X219066000Y-318805000D03*
D13*
X434500000Y-53000000D03*
D12*
X68400000Y-208400000D03*
X68650000Y-167900000D03*
X90800000Y-154300000D03*
X236466000Y-246900000D03*
X89400000Y-323800000D03*
X89200000Y-258000000D03*
X146300000Y-216700000D03*
X118500000Y-120000000D03*
X90425000Y-94135000D03*
X68150000Y-142000000D03*
X147200000Y-188900000D03*
D13*
X329756000Y-89120200D03*
X284756000Y-337050000D03*
D12*
X46800000Y-318100000D03*
D13*
X335656000Y-60549700D03*
D12*
X91000000Y-167300000D03*
X116300000Y-323400000D03*
D13*
X383574000Y-280838000D03*
D12*
X248087000Y-97150000D03*
X47500000Y-127600000D03*
X402498000Y-309207000D03*
X146900000Y-182500000D03*
X116000000Y-257450000D03*
D13*
X283956000Y-268050000D03*
X383574000Y-75062200D03*
D12*
X89800000Y-277300000D03*
X117125000Y-241885000D03*
X90500000Y-229450000D03*
D13*
X381400000Y-121594400D03*
D12*
X250040000Y-256900000D03*
X129100000Y-29400000D03*
D13*
X279665000Y-163775000D03*
X387398000Y-161250000D03*
D12*
X219436000Y-193200000D03*
X326900000Y-157900000D03*
X350756000Y-206785000D03*
D13*
X331309000Y-144365000D03*
X387297000Y-247605000D03*
X284756000Y-131050000D03*
D12*
X178675000Y-121265000D03*
X299156000Y-50450200D03*
X233928000Y-140900000D03*
X218790000Y-87850000D03*
D13*
X381498000Y-36062200D03*
D12*
X47200000Y-210000000D03*
X234463000Y-175125000D03*
D13*
X383574000Y-229394000D03*
X383107000Y-108531000D03*
X436694000Y-39319900D03*
D12*
X236466000Y-282000000D03*
X147100000Y-249000000D03*
D13*
X209000000Y-140437100D03*
D12*
X148650000Y-100100000D03*
X68200000Y-188900000D03*
X118400000Y-160400000D03*
X46200000Y-298800000D03*
X243526000Y-44200000D03*
X350756000Y-308525000D03*
D13*
X208453116Y-141604858D03*
X278056000Y-194250000D03*
D12*
X89400000Y-317400000D03*
X299056000Y-313175000D03*
X219066000Y-228150000D03*
D13*
X383107000Y-211419000D03*
D12*
X67300000Y-276900000D03*
D13*
X440940000Y-58712200D03*
D12*
X234398000Y-157975000D03*
X235528000Y-51400000D03*
D13*
X278056000Y-91250200D03*
D12*
X402498000Y-154875000D03*
X67800000Y-242400000D03*
D13*
X329756000Y-241730000D03*
D12*
X114700000Y-30400000D03*
X117325000Y-248485000D03*
D13*
X335656000Y-314900000D03*
D12*
X116825000Y-222585000D03*
X47200000Y-249900000D03*
X116600000Y-270250000D03*
D13*
X383107000Y-159975000D03*
D12*
X47000000Y-203400000D03*
D13*
X280132000Y-233250000D03*
D12*
X68650000Y-113950000D03*
X147200000Y-201800000D03*
X90800000Y-147800000D03*
X146400000Y-264400000D03*
X101100000Y-33800000D03*
X402498000Y-206319000D03*
X178675000Y-114865000D03*
X447706000Y-99600200D03*
X299056000Y-261675000D03*
D13*
X210057000Y-266000000D03*
X279665000Y-112275000D03*
D12*
X118200000Y-100700000D03*
X350756000Y-155915000D03*
X46900000Y-264000000D03*
D13*
X329756000Y-139990000D03*
X331309000Y-195235000D03*
X335656000Y-213160000D03*
D12*
X68450000Y-154900000D03*
D13*
X387297000Y-299049000D03*
X387297000Y-196161000D03*
D12*
X147400000Y-208400000D03*
D13*
X331309000Y-246105000D03*
X336456000Y-281530000D03*
X224676500Y-123700000D03*
D12*
X46600000Y-257600000D03*
D13*
X383574000Y-332282000D03*
D12*
X233790000Y-122550000D03*
X117125000Y-228985000D03*
X89900000Y-176300000D03*
X46950000Y-162500000D03*
D13*
X329756000Y-190860000D03*
X278000000Y-262100000D03*
D12*
X219371000Y-210675000D03*
X177925000Y-149265000D03*
X219131000Y-337105000D03*
X67300000Y-270400000D03*
X177925000Y-155765000D03*
D13*
X277600000Y-331600000D03*
D12*
X148100000Y-147200000D03*
D13*
X279609000Y-44124900D03*
D12*
X66700000Y-257600000D03*
X146600000Y-176100000D03*
X178875000Y-127865000D03*
D13*
X331832000Y-331600000D03*
D12*
X328137248Y-174175044D03*
D13*
X388198000Y-230194000D03*
D12*
X177625000Y-142865000D03*
D13*
X331832000Y-280730000D03*
X380941078Y-70158922D03*
D12*
X249126000Y-43000000D03*
D13*
X383107000Y-57087000D03*
X279609000Y-301625000D03*
D12*
X235731000Y-301305000D03*
D13*
X436859000Y-91074900D03*
X381274500Y-103900000D03*
D12*
X67200000Y-216700000D03*
X47400000Y-289900000D03*
X47300000Y-108100000D03*
X47300000Y-121000000D03*
X90500000Y-202000000D03*
X116600000Y-283150000D03*
X67300000Y-283300000D03*
X210728000Y-70500000D03*
D13*
X336456000Y-128920000D03*
D12*
X67000000Y-264000000D03*
D13*
X441155000Y-109267000D03*
D12*
X47000000Y-243300000D03*
X218590000Y-122650000D03*
X116500000Y-330000000D03*
X402598000Y-201094000D03*
D13*
X284756000Y-285550000D03*
D12*
X116600000Y-276750000D03*
X46700000Y-95300000D03*
D13*
X434900000Y-35000000D03*
D12*
X117925000Y-194595000D03*
D13*
X335555000Y-196627000D03*
D12*
X146900000Y-236000000D03*
X47000000Y-101700000D03*
X90200000Y-223050000D03*
X218933000Y-140875000D03*
X146600000Y-323250000D03*
X299156000Y-204950000D03*
X47000000Y-190500000D03*
X148100000Y-160100000D03*
D13*
X210196900Y-264695500D03*
X278056000Y-142750000D03*
D12*
X68200000Y-201800000D03*
X146700000Y-270800000D03*
X116300000Y-263850000D03*
D13*
X387398000Y-264138000D03*
D12*
X90500000Y-242350000D03*
X247626000Y-150700000D03*
X118400000Y-147500000D03*
X218590000Y-105250000D03*
X350856000Y-201560000D03*
X218828000Y-34400000D03*
D13*
X336456000Y-78050200D03*
D12*
X46500000Y-305200000D03*
X67100000Y-310150000D03*
X350856000Y-48950200D03*
X67100000Y-323050000D03*
X46400000Y-217600000D03*
X457606000Y-48200200D03*
X402498000Y-103431000D03*
D13*
X280132000Y-78750200D03*
X436594000Y-74319900D03*
X279609000Y-95624900D03*
D12*
X299056000Y-210175000D03*
X47200000Y-270400000D03*
D13*
X432847840Y-103658746D03*
D12*
X116300000Y-317000000D03*
X299056000Y-107175000D03*
X248881000Y-311005000D03*
D13*
X383051000Y-40436900D03*
X335555000Y-298367000D03*
D12*
X90700000Y-248950000D03*
D13*
X283855000Y-148517000D03*
X436694000Y-57319900D03*
X387398000Y-212694000D03*
D12*
X235328000Y-34500000D03*
D13*
X331365000Y-110145000D03*
D12*
X91025000Y-119835000D03*
X68350000Y-101050000D03*
X147500000Y-134400000D03*
D13*
X331365000Y-161015000D03*
D12*
X148950000Y-106500000D03*
D13*
X280132000Y-284750000D03*
X436909000Y-107875000D03*
D12*
X177925000Y-162165000D03*
D13*
X279665000Y-266775000D03*
D12*
X47200000Y-276900000D03*
D13*
X383051000Y-143325000D03*
D12*
X235571000Y-193175000D03*
D13*
X383574000Y-177950000D03*
D12*
X90200000Y-182700000D03*
X149150000Y-126000000D03*
D13*
X383107000Y-314307000D03*
D12*
X299156000Y-256450000D03*
X235663000Y-68625000D03*
X146700000Y-277300000D03*
X46800000Y-324500000D03*
X219266000Y-247000000D03*
D13*
X278056000Y-297250000D03*
D12*
X46350000Y-136800000D03*
D13*
X387297000Y-41829200D03*
X331309000Y-42624900D03*
D12*
X68450000Y-161300000D03*
X146600000Y-310350000D03*
X118500000Y-107100000D03*
D13*
X335656000Y-111420000D03*
D12*
X118700000Y-126600000D03*
X109600000Y-39300000D03*
D13*
X283855000Y-251517000D03*
D12*
X117125000Y-235485000D03*
X146900000Y-242400000D03*
X148300000Y-166700000D03*
X350856000Y-303300000D03*
X236366000Y-264500000D03*
X47150000Y-169100000D03*
D13*
X279665000Y-60775000D03*
D12*
X146600000Y-223100000D03*
X68650000Y-120350000D03*
D13*
X284756000Y-79550200D03*
D12*
X66800000Y-303750000D03*
D13*
X331365000Y-59275000D03*
X244266000Y-258000000D03*
D12*
X402498000Y-257763000D03*
X116525000Y-216185000D03*
X235871000Y-227675000D03*
X67300000Y-329650000D03*
D13*
X437009000Y-125275000D03*
D12*
X350856000Y-252430000D03*
D13*
X227714500Y-122575500D03*
D12*
X146900000Y-229500000D03*
X178675000Y-108365000D03*
X178125000Y-168765000D03*
X148950000Y-113000000D03*
D13*
X280132000Y-181750000D03*
D12*
X402598000Y-149650000D03*
X118100000Y-141100000D03*
X148350000Y-93700000D03*
X67500000Y-289900000D03*
X47200000Y-283300000D03*
X147200000Y-195400000D03*
X146800000Y-329850000D03*
X90200000Y-135000000D03*
X89400000Y-310900000D03*
X117800000Y-134700000D03*
X68850000Y-126950000D03*
X90500000Y-195600000D03*
X67600000Y-176100000D03*
X67900000Y-182500000D03*
D13*
X335555000Y-44017200D03*
X383051000Y-246213000D03*
D12*
X66500000Y-297350000D03*
X402598000Y-46762200D03*
X106100000Y-19000000D03*
D13*
X387398000Y-58361700D03*
X329756000Y-292600000D03*
D12*
X116300000Y-310500000D03*
D13*
X243839000Y-203921000D03*
D12*
X218828000Y-175100000D03*
X146900000Y-290300000D03*
X219231000Y-301505000D03*
D13*
X283956000Y-165050000D03*
X277600000Y-313700000D03*
X211379500Y-122650500D03*
D12*
X47000000Y-197000000D03*
D13*
X381498000Y-293282000D03*
X280132000Y-130250000D03*
D12*
X117625000Y-181695000D03*
D13*
X331832000Y-128120000D03*
X335555000Y-247497000D03*
D12*
X146100000Y-258000000D03*
D13*
X209180803Y-106933075D03*
X336456000Y-332400000D03*
D12*
X146700000Y-283700000D03*
X90700000Y-208600000D03*
X90725000Y-100535000D03*
X327240400Y-207900000D03*
X350756000Y-257655000D03*
X118500000Y-113600000D03*
D13*
X278056000Y-245750000D03*
X381498000Y-87506200D03*
X283855000Y-97017200D03*
D12*
X89800000Y-270800000D03*
D13*
X331832000Y-178990000D03*
X383051000Y-297657000D03*
D12*
X67500000Y-223100000D03*
X235371000Y-210275000D03*
X146000000Y-297550000D03*
D13*
X329756000Y-38250200D03*
D12*
X46950000Y-149600000D03*
D13*
X241825000Y-151825000D03*
D12*
X67100000Y-316650000D03*
D13*
X284756000Y-234050000D03*
X335656000Y-264030000D03*
D12*
X402598000Y-252538000D03*
X90800000Y-160700000D03*
D13*
X335555000Y-94887200D03*
X331309000Y-93494900D03*
X383107000Y-262863000D03*
D12*
X178375000Y-101965000D03*
D13*
X331762178Y-226562178D03*
D12*
X455806000Y-98300200D03*
X47000000Y-331100000D03*
D13*
X336456000Y-230660000D03*
X387297000Y-93273200D03*
D12*
X350756000Y-54174700D03*
D13*
X383051000Y-91880900D03*
D12*
X89500000Y-264400000D03*
X118125000Y-207595000D03*
X68450000Y-148400000D03*
D13*
X388198000Y-281638000D03*
D12*
X148950000Y-119400000D03*
X129000000Y-34400000D03*
D13*
X433901300Y-70100000D03*
D12*
X91025000Y-106935000D03*
X402598000Y-98206200D03*
X236001000Y-318480000D03*
X68000000Y-249000000D03*
X117900000Y-94300000D03*
X46400000Y-177700000D03*
X117925000Y-200995000D03*
D13*
X383051000Y-194769000D03*
D12*
X90500000Y-189100000D03*
D13*
X388198000Y-333082000D03*
X388198000Y-75862200D03*
X387297000Y-144717000D03*
D12*
X326917692Y-105913388D03*
X47300000Y-114600000D03*
X117925000Y-188095000D03*
X89600000Y-330400000D03*
X146300000Y-303950000D03*
X90500000Y-141400000D03*
D13*
X278056000Y-39750200D03*
X331365000Y-262755000D03*
X381498000Y-241838000D03*
X331365000Y-211885000D03*
X283855000Y-45517200D03*
X331309000Y-296975000D03*
D12*
X147800000Y-140800000D03*
X219266000Y-282300000D03*
X275103010Y-109582555D03*
D13*
X335555000Y-145757000D03*
D12*
X47000000Y-230400000D03*
D13*
X336456000Y-179790000D03*
D12*
X47000000Y-236900000D03*
X67800000Y-229500000D03*
X210728000Y-68300000D03*
X91025000Y-113435000D03*
X326904592Y-124825820D03*
D13*
X280132000Y-336250000D03*
X381498000Y-138950000D03*
D12*
X350856000Y-99820200D03*
D13*
X381200000Y-52400000D03*
X441255000Y-126667000D03*
D12*
X299156000Y-307950000D03*
X89900000Y-216650000D03*
D13*
X440940000Y-40712200D03*
X279665000Y-215275000D03*
D12*
X116800000Y-289750000D03*
X90000000Y-290300000D03*
D13*
X283855000Y-303017000D03*
D12*
X236296000Y-336930000D03*
D13*
X283855000Y-200017000D03*
D12*
X219028000Y-51300000D03*
D13*
X283956000Y-319550000D03*
D12*
X91225000Y-126435000D03*
X118400000Y-154000000D03*
D13*
X283956000Y-216550000D03*
D12*
X115700000Y-297700000D03*
X46800000Y-311600000D03*
D13*
X388198000Y-178750000D03*
X278000000Y-280100000D03*
D12*
X46950000Y-156100000D03*
X299156000Y-101950000D03*
X88800000Y-298100000D03*
D13*
X331832000Y-77250200D03*
X243131000Y-312105000D03*
X331832000Y-229860000D03*
D12*
X233990000Y-105150000D03*
D13*
X441105000Y-92467200D03*
X279295200Y-229800000D03*
D12*
X219066000Y-264900000D03*
X89800000Y-283700000D03*
D13*
X279665000Y-318275000D03*
D12*
X148100000Y-153700000D03*
X67850000Y-135600000D03*
D13*
X440840000Y-75712200D03*
D12*
X90500000Y-235950000D03*
X299056000Y-55674700D03*
X118600000Y-167000000D03*
D13*
X331365000Y-313625000D03*
D12*
X117325000Y-175295000D03*
X299056000Y-158675000D03*
X449406000Y-49600200D03*
X46700000Y-184100000D03*
X402598000Y-303982000D03*
X350756000Y-105045000D03*
D13*
X208715000Y-123600000D03*
X335656000Y-162290000D03*
D12*
X89100000Y-304500000D03*
X453772000Y-100655000D03*
X455507000Y-50600200D03*
X234090000Y-87750000D03*
X242491000Y-98347500D03*
D13*
X277856000Y-74050200D03*
X283956000Y-113550000D03*
X279609000Y-198625000D03*
X381498000Y-190394000D03*
D12*
X67800000Y-236000000D03*
D13*
X387398000Y-109806000D03*
X279295200Y-211600000D03*
D12*
%TO.N,+3V3*%
X116500000Y-33600000D03*
X129000000Y-37000000D03*
X111100000Y-24200000D03*
%TO.N,Net-(U27B-+)*%
X291856000Y-50850200D03*
X293756000Y-55050200D03*
%TO.N,Net-(C20-Pad2)*%
X299956000Y-53350200D03*
X296245000Y-55150200D03*
%TO.N,Net-(U44B-+)*%
X291856000Y-256850000D03*
X293756000Y-261050000D03*
%TO.N,Net-(U31B-+)*%
X293756000Y-106550000D03*
X291856000Y-102350000D03*
%TO.N,Net-(C23-Pad2)*%
X296245000Y-106650000D03*
X299956000Y-104850000D03*
%TO.N,Net-(U36B-+)*%
X291856000Y-153850000D03*
X293756000Y-158050000D03*
%TO.N,Net-(C26-Pad2)*%
X299956000Y-156350000D03*
X296245000Y-158150000D03*
%TO.N,Net-(U63B-+)*%
X345456000Y-206160000D03*
X343556000Y-201960000D03*
%TO.N,Net-(U40B-+)*%
X293756000Y-209550000D03*
X291856000Y-205350000D03*
%TO.N,Net-(C29-Pad2)*%
X299956000Y-207850000D03*
X296245000Y-209650000D03*
%TO.N,Net-(C32-Pad2)*%
X296245000Y-261150000D03*
X299956000Y-259350000D03*
%TO.N,Net-(U48B-+)*%
X293756000Y-312550000D03*
X291856000Y-308350000D03*
%TO.N,Net-(C35-Pad2)*%
X296245000Y-312650000D03*
X299956000Y-310850000D03*
%TO.N,Net-(U51B-+)*%
X345456000Y-53550200D03*
X343556000Y-49350200D03*
%TO.N,Net-(C38-Pad2)*%
X347945000Y-53650200D03*
X351656000Y-51850200D03*
%TO.N,Net-(U55B-+)*%
X343556000Y-100220000D03*
X345456000Y-104420000D03*
%TO.N,Net-(C41-Pad2)*%
X347945000Y-104520000D03*
X351656000Y-102720000D03*
%TO.N,Net-(U59B-+)*%
X343556000Y-151090000D03*
X345456000Y-155290000D03*
%TO.N,Net-(C44-Pad2)*%
X351656000Y-153590000D03*
X347945000Y-155390000D03*
%TO.N,Net-(C47-Pad2)*%
X351656000Y-204460000D03*
X347945000Y-206260000D03*
%TO.N,Net-(U67B-+)*%
X343556000Y-252830000D03*
X345456000Y-257030000D03*
%TO.N,Net-(C50-Pad2)*%
X351656000Y-255330000D03*
X347945000Y-257130000D03*
%TO.N,Net-(U71B-+)*%
X343556000Y-303700000D03*
X345456000Y-307900000D03*
%TO.N,Net-(C53-Pad2)*%
X347945000Y-308000000D03*
X351656000Y-306200000D03*
%TO.N,Net-(U75B-+)*%
X395298000Y-47162200D03*
X397198000Y-51362200D03*
%TO.N,Net-(C56-Pad2)*%
X403398000Y-49662200D03*
X399687000Y-51462200D03*
%TO.N,Net-(U79B-+)*%
X395298000Y-98606200D03*
X397198000Y-102806000D03*
%TO.N,Net-(C59-Pad2)*%
X399687000Y-102906000D03*
X403398000Y-101106000D03*
%TO.N,Net-(U83B-+)*%
X395298000Y-150050000D03*
X397198000Y-154250000D03*
%TO.N,Net-(C62-Pad2)*%
X399687000Y-154350000D03*
X403398000Y-152550000D03*
%TO.N,Net-(U87B-+)*%
X397198000Y-205694000D03*
X395298000Y-201494000D03*
%TO.N,Net-(C65-Pad2)*%
X399687000Y-205794000D03*
X403398000Y-203994000D03*
%TO.N,Net-(U91B-+)*%
X397198000Y-257138000D03*
X395298000Y-252938000D03*
%TO.N,Net-(C68-Pad2)*%
X403398000Y-255438000D03*
X399687000Y-257238000D03*
%TO.N,Net-(U95B-+)*%
X395298000Y-304382000D03*
X397198000Y-308582000D03*
%TO.N,Net-(C71-Pad2)*%
X403398000Y-306882000D03*
X399687000Y-308682000D03*
%TO.N,Net-(C3002-Pad2)*%
X249087000Y-100350000D03*
X246987000Y-100750000D03*
%TO.N,Net-(U13001B-+)*%
X451906000Y-45900200D03*
X450906000Y-51000200D03*
%TO.N,Net-(U13001C--)*%
X452306000Y-53800200D03*
X454706000Y-52000200D03*
%TO.N,Net-(U17001B-+)*%
X449171000Y-101055000D03*
X450171000Y-95955200D03*
%TO.N,Net-(U17001C--)*%
X450571000Y-103855000D03*
X452971000Y-102055000D03*
%TO.N,Net-(C23002-Pad2)*%
X248026000Y-46600000D03*
X250126000Y-46200000D03*
%TO.N,Net-(C33002-Pad2)*%
X246526000Y-154300000D03*
X248626000Y-153900000D03*
%TO.N,Net-(C131002-Pad2)*%
X248469000Y-206375000D03*
X250569000Y-205975000D03*
%TO.N,Net-(C139002-Pad2)*%
X248940000Y-260500000D03*
X251040000Y-260100000D03*
%TO.N,Net-(C148002-Pad2)*%
X249881000Y-314205000D03*
X247781000Y-314605000D03*
%TO.N,Net-(Q2001A-S1)*%
X211990000Y-103150000D03*
X211990000Y-107350000D03*
%TO.N,/InNeuron_1/OUT*%
X278103700Y-248747400D03*
X277792400Y-196203100D03*
X278832500Y-299409900D03*
X276983900Y-40798000D03*
X277835500Y-145602200D03*
X277835500Y-94580500D03*
%TO.N,/InNeuron_3/OUT*%
X278203300Y-232069900D03*
X279058500Y-281744100D03*
X278181200Y-128454700D03*
X246956900Y-130447300D03*
X246956900Y-147775000D03*
X278936100Y-333620000D03*
X277870600Y-76647100D03*
X277885500Y-180262300D03*
%TO.N,/Neuron6_1/OUT*%
X331279500Y-90789700D03*
X329641800Y-243737500D03*
X330768200Y-194608700D03*
X329026200Y-295833100D03*
X329608800Y-40780300D03*
%TO.N,/Neuron6_10/IN3*%
X329900500Y-177100600D03*
X330636100Y-76064700D03*
X297635200Y-154478300D03*
X329888600Y-126462100D03*
X297635200Y-174284500D03*
X330405300Y-224457300D03*
X330636100Y-328986000D03*
X329898100Y-278988300D03*
%TO.N,/Neuron6_10/IN4*%
X336347500Y-233822500D03*
X334058300Y-184238700D03*
X298053400Y-188232700D03*
X336347500Y-335562500D03*
X334625600Y-82483600D03*
X298053400Y-205198400D03*
X335361500Y-133348200D03*
X334058300Y-285978700D03*
%TO.N,/Neuron6_10/IN5*%
X329825800Y-210622400D03*
X329673100Y-57288300D03*
X329591800Y-158772700D03*
X329558800Y-107907500D03*
X329558800Y-260765200D03*
X329689100Y-311643600D03*
%TO.N,/Neuron6_10/IN6*%
X334036100Y-217292600D03*
X334036100Y-319052000D03*
X334036100Y-166416000D03*
X297062800Y-309242400D03*
X334073000Y-64694600D03*
X334036100Y-268181400D03*
X334036100Y-115579200D03*
%TO.N,/Neuron6_13/IN1*%
X381805600Y-141241400D03*
X377993400Y-38962200D03*
X380843900Y-244025500D03*
X381061900Y-194210500D03*
X381403200Y-90595300D03*
X381281400Y-295833100D03*
%TO.N,/Neuron6_13/IN3*%
X381621500Y-279042300D03*
X351894000Y-174284500D03*
X381627800Y-176277100D03*
X348448600Y-151955400D03*
X381314000Y-124469500D03*
X381550300Y-72806300D03*
X381811000Y-329814900D03*
X381663700Y-227416500D03*
%TO.N,/Neuron6_10/OUT*%
X350074000Y-201023400D03*
X386219500Y-234613900D03*
X386155600Y-286113100D03*
X386283400Y-131762700D03*
X386192700Y-80323200D03*
X350074000Y-183822400D03*
X388141900Y-336231700D03*
X386431200Y-183184900D03*
%TO.N,/Neuron6_11/OUT*%
X381403600Y-260819200D03*
X382178300Y-105763200D03*
X381987700Y-158656000D03*
X348448600Y-253712700D03*
X381572900Y-311773900D03*
X381425100Y-55312300D03*
X381061900Y-209399800D03*
%TO.N,/Neuron6_12/OUT*%
X383788000Y-113295800D03*
X383789100Y-216140900D03*
X383580200Y-319981400D03*
X383763500Y-164778400D03*
X385778300Y-62525100D03*
X385550100Y-268373000D03*
%TO.N,/Neuron6_13/OUT*%
X436022900Y-123031900D03*
X435186100Y-37962600D03*
%TO.N,/Neuron6_14/OUT*%
X439368400Y-43934600D03*
X401448700Y-98462800D03*
X438419800Y-129667900D03*
X401448700Y-129667900D03*
%TO.N,/Neuron6_15/OUT*%
X401816000Y-149119900D03*
X403740700Y-108528700D03*
X435094900Y-73170500D03*
X434850800Y-106536100D03*
%TO.N,/Neuron6_17/OUT*%
X435144900Y-55910200D03*
X435227400Y-89635800D03*
X401816000Y-252018700D03*
%TO.N,/Neuron6_18/OUT*%
X438944400Y-62084000D03*
X407728900Y-301810900D03*
X438634100Y-95580100D03*
%TO.N,/InNeuron_4/OUT*%
X282250500Y-135939200D03*
X284574200Y-287595700D03*
X282656500Y-238475400D03*
X282733500Y-84018900D03*
X282889500Y-187003100D03*
X247943600Y-199889000D03*
X284574200Y-340247100D03*
%TO.N,/InNeuron_5/OUT*%
X277974600Y-58713700D03*
D13*
X278549500Y-209947500D03*
D12*
X277997800Y-110521300D03*
X278644600Y-158435100D03*
X274831300Y-259036200D03*
X278000400Y-315974000D03*
%TO.N,/InNeuron_6/OUT*%
X282336100Y-66193900D03*
X247817400Y-311266300D03*
X282053500Y-220667800D03*
X282249400Y-272177000D03*
X282100600Y-170176200D03*
X282336100Y-323679800D03*
X280352600Y-116971000D03*
D13*
%TO.N,-5V*%
X387306000Y-41229800D03*
X335564000Y-43417800D03*
X387306000Y-195562000D03*
D12*
X233353000Y-88475700D03*
D13*
X440949000Y-58112800D03*
D12*
X235134000Y-228401000D03*
D13*
X284762000Y-284905000D03*
X335564000Y-94287800D03*
X335564000Y-145158000D03*
X283864000Y-147918000D03*
X284762000Y-78904600D03*
D12*
X218091000Y-35125700D03*
X233253000Y-105876000D03*
X218329000Y-319531000D03*
D13*
X387398000Y-212094000D03*
D12*
X235559000Y-337656000D03*
X218634000Y-211401000D03*
X234591000Y-35225700D03*
X218494000Y-302231000D03*
D13*
X441114000Y-91867800D03*
X283956000Y-164450000D03*
D12*
X235729000Y-282726000D03*
D13*
X388204000Y-280993000D03*
X336462000Y-179145000D03*
X388204000Y-332437000D03*
X387306000Y-298450000D03*
X336462000Y-77404600D03*
X388204000Y-178105000D03*
X441264000Y-126068000D03*
D12*
X234834000Y-193901000D03*
X233726000Y-175851000D03*
D13*
X335656000Y-263430000D03*
X283956000Y-267450000D03*
D12*
X234994000Y-302031000D03*
D13*
X387398000Y-314982000D03*
X283956000Y-112950000D03*
D12*
X234791000Y-52125700D03*
D13*
X441164000Y-108668000D03*
X283864000Y-250918000D03*
X387306000Y-144118000D03*
X336462000Y-331755000D03*
D12*
X129100000Y-26800000D03*
X218394000Y-337831000D03*
D13*
X283956000Y-215950000D03*
X284762000Y-181905000D03*
D12*
X218091000Y-158426000D03*
X218053000Y-88575700D03*
D13*
X335656000Y-314300000D03*
X387398000Y-57762200D03*
X387398000Y-263538000D03*
D12*
X218699000Y-193926000D03*
D13*
X388204000Y-126661000D03*
D12*
X233191000Y-141626000D03*
D13*
X336462000Y-280885000D03*
D12*
X218291000Y-52025700D03*
X218329000Y-265626000D03*
D13*
X284762000Y-130405000D03*
X283864000Y-302418000D03*
X284762000Y-233405000D03*
X283956000Y-318950000D03*
D12*
X218291000Y-69325700D03*
X217853000Y-123376000D03*
X234926000Y-69350700D03*
X233661000Y-158701000D03*
D13*
X335656000Y-59950200D03*
X335656000Y-161690000D03*
D12*
X217853000Y-105976000D03*
D13*
X336462000Y-230015000D03*
D12*
X218529000Y-247726000D03*
D13*
X284762000Y-336405000D03*
X440849000Y-75112800D03*
X335564000Y-297768000D03*
X283864000Y-44917800D03*
X335564000Y-196028000D03*
X387398000Y-160650000D03*
X387306000Y-247006000D03*
X440949000Y-40112800D03*
X387398000Y-109206000D03*
D12*
X235264000Y-319206000D03*
X218196000Y-141601000D03*
X218091000Y-175826000D03*
D13*
X283864000Y-199418000D03*
D12*
X218329000Y-228876000D03*
X235629000Y-265226000D03*
X235729000Y-247626000D03*
D13*
X283864000Y-96417800D03*
X388204000Y-229549000D03*
X283956000Y-61450200D03*
X335656000Y-110820000D03*
X335656000Y-212560000D03*
X388204000Y-75216600D03*
X387306000Y-92673800D03*
D12*
X218529000Y-283026000D03*
D13*
X336462000Y-128275000D03*
D12*
X233053000Y-123276000D03*
X234634000Y-211001000D03*
D13*
X335564000Y-246898000D03*
D12*
%TO.N,+5V*%
X90700000Y-247550000D03*
X117900000Y-93000000D03*
D13*
X331296000Y-314221000D03*
D12*
X67300000Y-328250000D03*
X147100000Y-247600000D03*
X146600000Y-221900000D03*
X149100000Y-137000000D03*
X396490000Y-50553400D03*
X118125000Y-206195000D03*
X150000000Y-96400000D03*
X46950000Y-148400000D03*
D13*
X279596000Y-61370600D03*
X147800000Y-332756800D03*
X147700000Y-251500000D03*
D12*
X46500000Y-304000000D03*
D13*
X69221300Y-157016600D03*
D12*
X118200000Y-99500000D03*
D13*
X48000000Y-212668400D03*
D12*
X47300000Y-106900000D03*
X46350000Y-135500000D03*
D13*
X178882778Y-172882778D03*
D12*
X124800000Y-105500000D03*
X117325000Y-173995000D03*
X90500000Y-187900000D03*
D13*
X383039000Y-109127000D03*
D12*
X344747000Y-154481000D03*
X116300000Y-315700000D03*
X147500000Y-133100000D03*
X47000000Y-100500000D03*
X48500000Y-123600000D03*
D13*
X436708000Y-57931100D03*
D12*
X177625000Y-141665000D03*
X177925000Y-160965000D03*
D13*
X383039000Y-314903000D03*
D12*
X177925000Y-148065000D03*
X117125000Y-234185000D03*
D13*
X241827000Y-152495000D03*
D12*
X146300000Y-302750000D03*
X147800000Y-139600000D03*
X146900000Y-241200000D03*
X90800000Y-153000000D03*
D13*
X331703000Y-77879100D03*
D12*
X116300000Y-262650000D03*
D13*
X208100000Y-123300000D03*
D12*
X48600000Y-130000000D03*
X89400000Y-322600000D03*
X178125000Y-167365000D03*
D13*
X93316468Y-225744928D03*
D12*
X148100000Y-152400000D03*
X89600000Y-329000000D03*
D13*
X331296000Y-110741000D03*
D12*
X67200000Y-215400000D03*
D13*
X383445000Y-75691100D03*
D12*
X90500000Y-194300000D03*
D13*
X91600000Y-96923700D03*
D12*
X90500000Y-241150000D03*
D13*
X437023000Y-125886000D03*
D12*
X67850000Y-134300000D03*
X46650000Y-142000000D03*
D13*
X68500000Y-292722700D03*
D12*
X118700000Y-125200000D03*
D13*
X331296000Y-212481000D03*
D12*
X117325000Y-247085000D03*
D13*
X47800000Y-226700000D03*
D12*
X147400000Y-207000000D03*
X293047000Y-260241000D03*
X47300000Y-119800000D03*
X90500000Y-228250000D03*
D13*
X383065000Y-41048100D03*
D12*
X396490000Y-256329000D03*
D13*
X94047546Y-219417261D03*
D12*
X89800000Y-269600000D03*
X90200000Y-133700000D03*
X117800000Y-133400000D03*
X68450000Y-153600000D03*
X118500000Y-105900000D03*
X47000000Y-195700000D03*
D13*
X279623000Y-250736000D03*
X148100000Y-155510900D03*
D12*
X89500000Y-263200000D03*
X68000000Y-247600000D03*
D13*
X383065000Y-298268000D03*
D12*
X124400000Y-137000000D03*
X344747000Y-256221000D03*
D13*
X279596000Y-112871000D03*
D12*
X146400000Y-263200000D03*
X123700000Y-156700000D03*
X66800000Y-302550000D03*
X116800000Y-288350000D03*
X242600000Y-99341000D03*
D13*
X90900000Y-292700000D03*
D12*
X146900000Y-181300000D03*
X147200000Y-200600000D03*
D13*
X436873000Y-91686100D03*
X177462256Y-156456460D03*
X91531700Y-251352900D03*
X48508278Y-146208278D03*
D12*
X148950000Y-105300000D03*
X67600000Y-174800000D03*
D13*
X47800000Y-180300000D03*
D12*
X209928000Y-69100000D03*
X124700000Y-111900000D03*
D13*
X47800000Y-333500000D03*
D12*
X89900000Y-175000000D03*
D13*
X279623000Y-44736100D03*
D12*
X66700000Y-256300000D03*
D13*
X68300000Y-331707800D03*
X279623000Y-96236100D03*
X147641872Y-238641872D03*
D12*
X149800000Y-167300000D03*
D13*
X47800000Y-307900000D03*
X331703000Y-281359000D03*
D12*
X89100000Y-303300000D03*
X89400000Y-309700000D03*
X91025000Y-105735000D03*
D13*
X331296000Y-59870600D03*
X93433600Y-211000000D03*
D12*
X48700000Y-117200000D03*
D13*
X209374688Y-265839364D03*
D12*
X68650000Y-106250000D03*
X68150000Y-140800000D03*
X148650000Y-98900000D03*
X48500000Y-97900000D03*
X344747000Y-103611000D03*
D13*
X148857664Y-219377564D03*
D12*
X118400000Y-146300000D03*
X446976000Y-100510000D03*
X178875000Y-126465000D03*
X293047000Y-54241400D03*
X146300000Y-215400000D03*
X149600000Y-182606400D03*
D13*
X331703000Y-179619000D03*
D12*
X46400000Y-216300000D03*
X46800000Y-310400000D03*
X118400000Y-159200000D03*
D13*
X279596000Y-164371000D03*
D12*
X178675000Y-113565000D03*
X46900000Y-262800000D03*
X47150000Y-167700000D03*
X68200000Y-194100000D03*
X150200000Y-115300000D03*
X90425000Y-92835000D03*
D13*
X117300000Y-332756800D03*
X331323000Y-94106100D03*
D12*
X67800000Y-234700000D03*
D13*
X47700000Y-193100000D03*
D12*
X396490000Y-204885000D03*
D13*
X383065000Y-195380000D03*
D12*
X90500000Y-200800000D03*
X68650000Y-166500000D03*
D13*
X69612178Y-110992478D03*
D12*
X149400000Y-149200000D03*
X117125000Y-240685000D03*
X146600000Y-322050000D03*
X118600000Y-165600000D03*
X47200000Y-275600000D03*
X47000000Y-229200000D03*
X396490000Y-307773000D03*
D13*
X209021590Y-141237090D03*
X280003000Y-285379000D03*
D12*
X147200000Y-194100000D03*
X47000000Y-329700000D03*
X90000000Y-288900000D03*
D13*
X69221300Y-129200000D03*
X383039000Y-212015000D03*
D12*
X89400000Y-316100000D03*
X146600000Y-174800000D03*
D13*
X93248402Y-238435257D03*
D12*
X47000000Y-242100000D03*
D13*
X331323000Y-43236100D03*
D12*
X89900000Y-215350000D03*
X146700000Y-269600000D03*
D13*
X68800000Y-219359500D03*
X383065000Y-143936000D03*
D12*
X88800000Y-296800000D03*
X46950000Y-154800000D03*
X47200000Y-248500000D03*
X47200000Y-208600000D03*
D13*
X68200000Y-319300000D03*
D12*
X147200000Y-187700000D03*
X116000000Y-302900000D03*
X146900000Y-234700000D03*
D13*
X47649372Y-220149372D03*
D12*
X148950000Y-111700000D03*
D13*
X68900000Y-226600000D03*
D12*
X116600000Y-281950000D03*
X117925000Y-199795000D03*
X67800000Y-228300000D03*
X67100000Y-321850000D03*
X68850000Y-125550000D03*
X118500000Y-95900000D03*
X148200000Y-141900000D03*
X116500000Y-328600000D03*
X148100000Y-158900000D03*
D13*
X383065000Y-92492100D03*
D12*
X151700000Y-107000000D03*
X48700000Y-110700000D03*
X67100000Y-315350000D03*
D13*
X48100000Y-252300000D03*
D12*
X66500000Y-296050000D03*
X116300000Y-309300000D03*
D13*
X244243000Y-258647000D03*
D12*
X90500000Y-234650000D03*
D13*
X47600000Y-320600000D03*
X331296000Y-263351000D03*
D12*
X146900000Y-288900000D03*
D13*
X383039000Y-57682600D03*
D12*
X146700000Y-276000000D03*
D13*
X280003000Y-79379100D03*
D12*
X124000000Y-143100000D03*
X293047000Y-105741000D03*
X117925000Y-193295000D03*
X116600000Y-275450000D03*
D13*
X436608000Y-74931100D03*
D12*
X67800000Y-241200000D03*
D13*
X48400000Y-292722700D03*
D12*
X148950000Y-118200000D03*
X146800000Y-328450000D03*
X67500000Y-221900000D03*
X67100000Y-308950000D03*
X91000000Y-165900000D03*
X178075000Y-94265000D03*
D13*
X180382218Y-128532818D03*
X280003000Y-233879000D03*
D12*
X396490000Y-153441000D03*
X146000000Y-296250000D03*
X67500000Y-288500000D03*
X123500000Y-149400000D03*
X68650000Y-112650000D03*
X46800000Y-323300000D03*
X117925000Y-186895000D03*
X115700000Y-296400000D03*
X46400000Y-176400000D03*
X153000000Y-127300000D03*
D13*
X280003000Y-182379000D03*
X117100000Y-318700000D03*
D12*
X47300000Y-113300000D03*
D13*
X90700000Y-279900000D03*
D12*
X146100000Y-256700000D03*
X90700000Y-207200000D03*
D13*
X243862000Y-204557000D03*
D12*
X149300000Y-162700000D03*
X68050000Y-93350000D03*
X151800000Y-105600000D03*
X46700000Y-222800000D03*
X46950000Y-161300000D03*
D13*
X118801500Y-210000000D03*
X331703000Y-128749000D03*
X47800000Y-171563200D03*
D12*
X116825000Y-221385000D03*
D13*
X47800000Y-199600000D03*
X93447820Y-232493872D03*
D12*
X47000000Y-235600000D03*
D13*
X331323000Y-297586000D03*
D12*
X89200000Y-256700000D03*
D13*
X68200000Y-299510500D03*
D12*
X178675000Y-107165000D03*
D13*
X68900000Y-251400000D03*
X383065000Y-246824000D03*
X93286176Y-172527284D03*
D12*
X90200000Y-181500000D03*
D13*
X69100000Y-184321800D03*
X90900000Y-260700000D03*
D12*
X243526000Y-45199500D03*
D13*
X69800000Y-163372900D03*
X280003000Y-336879000D03*
D12*
X46700000Y-94000000D03*
X91025000Y-112135000D03*
X67300000Y-282100000D03*
X47200000Y-282100000D03*
D13*
X279623000Y-199236000D03*
X280003000Y-130879000D03*
D12*
X116525000Y-214885000D03*
D13*
X383039000Y-160571000D03*
D12*
X146900000Y-228300000D03*
X396490000Y-101997000D03*
D13*
X279596000Y-318871000D03*
D12*
X68450000Y-160100000D03*
X178375000Y-100765000D03*
X91225000Y-125035000D03*
D13*
X90653222Y-273353222D03*
D12*
X67000000Y-262800000D03*
X68200000Y-187700000D03*
X117625000Y-180495000D03*
D13*
X383445000Y-281467000D03*
D12*
X89800000Y-276000000D03*
X90800000Y-146600000D03*
D13*
X436923000Y-108486000D03*
X118600000Y-250303900D03*
D12*
X177925000Y-154465000D03*
D13*
X90700000Y-267600000D03*
X383445000Y-230023000D03*
D12*
X124600000Y-117700000D03*
X47400000Y-288500000D03*
D13*
X68900000Y-198000000D03*
D12*
X68650000Y-119150000D03*
X149150000Y-124600000D03*
X117125000Y-227785000D03*
X67900000Y-181300000D03*
X47000000Y-189300000D03*
D13*
X331323000Y-144976000D03*
D12*
X344747000Y-307091000D03*
D13*
X47700000Y-186400000D03*
D12*
X149900000Y-122800000D03*
X46200000Y-297500000D03*
D13*
X383445000Y-332911000D03*
X69500000Y-210800000D03*
D12*
X89800000Y-282500000D03*
X148100000Y-146000000D03*
X47200000Y-269200000D03*
X148350000Y-92400000D03*
X67300000Y-269200000D03*
X146600000Y-309150000D03*
X118400000Y-152700000D03*
D13*
X243093000Y-312776000D03*
X224676500Y-123100000D03*
D12*
X46800000Y-316800000D03*
X68200000Y-200600000D03*
X91025000Y-118635000D03*
D13*
X383039000Y-263459000D03*
D12*
X148300000Y-211300000D03*
X90800000Y-159500000D03*
X149700000Y-205100000D03*
X47000000Y-202200000D03*
X177325000Y-135165000D03*
X118100000Y-139900000D03*
D13*
X279596000Y-267371000D03*
D12*
X293047000Y-311741000D03*
D13*
X90900000Y-130082200D03*
X91531700Y-245100000D03*
D12*
X46700000Y-182900000D03*
D13*
X383445000Y-178579000D03*
X436708000Y-39931100D03*
D12*
X116600000Y-269050000D03*
X90500000Y-140200000D03*
X47500000Y-126200000D03*
X124433549Y-160266451D03*
D13*
X331296000Y-161611000D03*
X331703000Y-230489000D03*
X117600000Y-293121400D03*
D12*
X118500000Y-118800000D03*
X178675000Y-120065000D03*
X68400000Y-207000000D03*
D13*
X90200000Y-332800000D03*
D12*
X67300000Y-275600000D03*
X124700000Y-123000000D03*
X344747000Y-205351000D03*
X118500000Y-112300000D03*
X449406000Y-50800200D03*
X148300000Y-165300000D03*
X116300000Y-322200000D03*
X123300000Y-167400000D03*
D13*
X331323000Y-195846000D03*
X331703000Y-332229000D03*
D12*
X68450000Y-147200000D03*
X293047000Y-157241000D03*
X46600000Y-256300000D03*
X149500000Y-179500000D03*
X90200000Y-221850000D03*
X293047000Y-208741000D03*
X116000000Y-256150000D03*
X344747000Y-52741400D03*
D13*
X383445000Y-127135000D03*
X279596000Y-215871000D03*
D12*
X146600000Y-315550000D03*
X146700000Y-282500000D03*
X90725000Y-99335000D03*
D13*
X279623000Y-147736000D03*
X331323000Y-246716000D03*
X47700000Y-158955100D03*
D12*
X48600000Y-104300000D03*
D13*
X279623000Y-302236000D03*
D12*
X124900000Y-129200000D03*
X68350000Y-99850000D03*
X129000000Y-31900000D03*
X149500000Y-191700000D03*
%TO.N,/L1_IN1*%
X211453200Y-300180700D03*
X211626400Y-138168400D03*
X211763000Y-245564500D03*
X210869300Y-33366200D03*
X211030100Y-86610100D03*
X211458400Y-192217900D03*
%TO.N,/L1_IN2*%
X216662300Y-249115000D03*
X216602600Y-303613800D03*
X216832300Y-195315000D03*
X216215400Y-36513700D03*
%TO.N,/L1_IN3*%
X210855000Y-156262900D03*
X211390000Y-210089900D03*
X211734100Y-263491700D03*
X210103500Y-50600000D03*
X211453200Y-315759100D03*
X210642300Y-104373500D03*
%TO.N,/L1_IN4*%
X215901000Y-108117200D03*
X216433600Y-321134700D03*
X216764500Y-212903900D03*
X216337800Y-53281100D03*
%TO.N,/L1_IN5*%
X210313000Y-174169000D03*
X208113300Y-209945000D03*
X211841000Y-67184800D03*
X211307900Y-281569200D03*
X210020000Y-122240200D03*
X211020400Y-227479100D03*
X211771500Y-335698400D03*
%TO.N,/L1_IN6*%
X213379300Y-209374400D03*
X215965000Y-124864700D03*
X216171500Y-177054900D03*
%TO.N,/L1_IN7*%
X228102600Y-246459500D03*
X228657400Y-298338700D03*
X225391000Y-211269900D03*
X228294500Y-191769700D03*
X225516900Y-140581200D03*
X225929100Y-87180500D03*
X225679700Y-32809900D03*
%TO.N,/L1_IN8*%
X231290600Y-142914600D03*
X233003000Y-195622000D03*
X232703300Y-36563500D03*
X231665800Y-90358500D03*
%TO.N,/L1_IN9*%
X228048600Y-317977500D03*
X227100100Y-209889900D03*
X228064200Y-263702500D03*
X228000700Y-49904700D03*
X225879100Y-104627200D03*
X225800600Y-157186100D03*
%TO.N,/L1_IN10*%
X231505300Y-107698400D03*
X236236300Y-107698400D03*
X231342800Y-215158700D03*
X232891400Y-53619700D03*
X233337600Y-320414500D03*
X232758400Y-212855000D03*
%TO.N,/L1_IN11*%
X225832800Y-122027200D03*
X227624000Y-67659000D03*
X227849700Y-226757500D03*
X228254400Y-335140500D03*
X229078300Y-277899700D03*
X225840800Y-174709200D03*
%TO.N,/L1_IN12*%
X228959300Y-230923300D03*
X232839100Y-70664800D03*
X233841100Y-284267100D03*
X233605100Y-339536700D03*
%TO.N,Net-(Q4001A-S1)*%
X211990000Y-124750000D03*
X211990000Y-120550000D03*
%TO.N,/W124*%
X207343000Y-153050000D03*
X45765400Y-156898100D03*
X211462100Y-97077900D03*
%TO.N,/W123*%
X52906400Y-97521600D03*
X46094400Y-150709800D03*
X211480300Y-96075000D03*
%TO.N,Net-(Q5001A-S1)*%
X212190000Y-89950000D03*
X212190000Y-85750000D03*
%TO.N,/W126*%
X45839300Y-170399800D03*
X215460000Y-114754600D03*
X214937700Y-168784200D03*
%TO.N,/W125*%
X45825800Y-164087300D03*
X211676000Y-115523400D03*
X210313000Y-164087300D03*
%TO.N,Net-(Q6001A-S1)*%
X227190000Y-124650000D03*
X227190000Y-120450000D03*
%TO.N,/W1212*%
X230660000Y-114637700D03*
X69745800Y-116148800D03*
X67292800Y-168734300D03*
%TO.N,/W121*%
X206103000Y-79502000D03*
X46099600Y-138275600D03*
X204020100Y-131383300D03*
D13*
%TO.N,Net-(Q14001A-S1)*%
X437141000Y-72245200D03*
X437041000Y-75445200D03*
D12*
%TO.N,/W122*%
X45448400Y-80161100D03*
X215054200Y-80161100D03*
X45843200Y-144175600D03*
%TO.N,/W1211*%
X221847400Y-113375000D03*
X67292800Y-162520400D03*
X221847300Y-151966000D03*
D13*
%TO.N,Net-(Q14001B-G2)*%
X444141000Y-72545200D03*
X438641000Y-77745200D03*
%TO.N,Net-(Q15001A-S1)*%
X437141000Y-58445200D03*
X437241000Y-55245200D03*
D12*
%TO.N,/W114*%
X207053300Y-43733100D03*
X207053300Y-110955100D03*
X47200100Y-116226100D03*
%TO.N,/W513*%
X437064400Y-64691500D03*
X188964000Y-110329800D03*
X197718000Y-72669700D03*
D13*
%TO.N,Net-(Q15001B-G2)*%
X438741000Y-60745200D03*
X444241000Y-55545200D03*
%TO.N,Net-(Q16001A-S1)*%
X437141000Y-40445200D03*
X437241000Y-37245200D03*
D12*
%TO.N,/W514*%
X442455400Y-64691500D03*
X188338700Y-71736800D03*
X188377900Y-115523400D03*
%TO.N,/W515*%
X437114400Y-48750700D03*
X190995400Y-122843200D03*
X198362300Y-56807400D03*
D13*
%TO.N,Net-(Q16001B-G2)*%
X444241000Y-37545200D03*
X438741000Y-42745200D03*
%TO.N,Net-(Q18001A-S1)*%
X437356000Y-109000000D03*
X437456000Y-105800000D03*
D12*
%TO.N,/W516*%
X442595100Y-48750700D03*
X177917600Y-128486500D03*
X177399300Y-56006800D03*
%TO.N,/W113*%
X46098500Y-108995000D03*
X207732800Y-42549600D03*
X200303200Y-104585800D03*
D13*
%TO.N,Net-(Q18001B-G2)*%
X444456000Y-106100000D03*
X438956000Y-111300000D03*
%TO.N,Net-(Q19001A-S1)*%
X437406000Y-89000200D03*
X437306000Y-92200200D03*
D12*
%TO.N,/W512*%
X436463500Y-31442700D03*
X179540200Y-31403000D03*
X179540200Y-103401100D03*
%TO.N,/W511*%
X182020500Y-96800000D03*
X182020500Y-30467000D03*
X437114400Y-30817300D03*
D13*
%TO.N,Net-(Q19001B-G2)*%
X438906000Y-94500200D03*
X444406000Y-89300200D03*
%TO.N,Net-(Q20001A-S1)*%
X437456000Y-126400000D03*
X437556000Y-123200000D03*
D12*
%TO.N,/W524*%
X442812200Y-98565700D03*
X174047500Y-108706100D03*
X173848200Y-158518100D03*
%TO.N,/W523*%
X177139600Y-150692100D03*
X433552800Y-136740800D03*
X433552800Y-98525200D03*
D13*
%TO.N,Net-(Q20001B-G2)*%
X444556000Y-123500000D03*
X439056000Y-128700000D03*
D12*
%TO.N,Net-(Q22001A-S1)*%
X212428000Y-49200000D03*
X212428000Y-53400000D03*
%TO.N,/W526*%
X176868000Y-169912100D03*
X432268600Y-82962600D03*
X176693800Y-81953000D03*
%TO.N,/W525*%
X435397200Y-80732600D03*
X190446600Y-84495200D03*
X178407400Y-163618700D03*
%TO.N,Net-(Q24001A-S1)*%
X212428000Y-70700000D03*
X212428000Y-66500000D03*
%TO.N,/W522*%
X442923200Y-116718700D03*
X178551800Y-142833700D03*
%TO.N,/W521*%
X437428700Y-116518400D03*
X178238000Y-136443500D03*
%TO.N,Net-(Q25001A-S1)*%
X212228000Y-32300000D03*
X212228000Y-36500000D03*
%TO.N,/W1112*%
X67674700Y-128297800D03*
X71800000Y-60737600D03*
X232533000Y-60737600D03*
%TO.N,/W115*%
X52779100Y-68676700D03*
X46572200Y-122415000D03*
X211887300Y-59425000D03*
%TO.N,Net-(Q26001A-S1)*%
X229063000Y-70725000D03*
X229063000Y-66525000D03*
%TO.N,/W116*%
X53612200Y-71065200D03*
X214301200Y-61307600D03*
X53428800Y-128454700D03*
%TO.N,/W111*%
X210698500Y-25225000D03*
X208318900Y-90595300D03*
X46151000Y-96597000D03*
%TO.N,Net-(Q27001A-S1)*%
X228928000Y-53500000D03*
X228928000Y-49300000D03*
%TO.N,/W112*%
X202629000Y-102842900D03*
X217160300Y-24839500D03*
X48074500Y-102985000D03*
%TO.N,/W1111*%
X222277600Y-58713700D03*
X206110700Y-122038200D03*
X67537900Y-121763100D03*
%TO.N,Net-(Q28001A-S1)*%
X228728000Y-36600000D03*
X228728000Y-32400000D03*
%TO.N,/W128*%
X67275300Y-142882400D03*
X72075000Y-79220200D03*
X225679700Y-79193000D03*
%TO.N,/W119*%
X222277600Y-43721000D03*
X67736900Y-108712500D03*
X80015000Y-44135000D03*
%TO.N,Net-(Q29001A-S1)*%
X227390000Y-103050000D03*
X227390000Y-107250000D03*
%TO.N,/W1110*%
X232398000Y-43497800D03*
X67345300Y-115883000D03*
X67794400Y-43497800D03*
%TO.N,/W117*%
X228210400Y-25082200D03*
X67514300Y-96278300D03*
X226265800Y-82624900D03*
%TO.N,Net-(Q30001A-S1)*%
X227490000Y-89850000D03*
X227490000Y-85650000D03*
%TO.N,/W118*%
X67526900Y-102478400D03*
X231231700Y-26863000D03*
X231355000Y-94266700D03*
%TO.N,/W133*%
X212047400Y-150641900D03*
X51422600Y-151011000D03*
X46123600Y-192035500D03*
%TO.N,Net-(Q32001A-S1)*%
X212228000Y-159800000D03*
X212228000Y-155600000D03*
%TO.N,/W1210*%
X220891000Y-97180600D03*
X67292800Y-156302100D03*
X220234000Y-150959000D03*
%TO.N,/W129*%
X226863900Y-95975000D03*
X220516900Y-144662300D03*
X67334800Y-150063200D03*
D13*
%TO.N,Net-(Q19A-S1)*%
X280556000Y-79650200D03*
X280656000Y-75850200D03*
%TO.N,Net-(Q19B-G2)*%
X287856000Y-76850200D03*
X282556000Y-82150200D03*
D12*
%TO.N,/W134*%
X45855500Y-198321000D03*
X216696300Y-186240100D03*
X216943900Y-149830400D03*
%TO.N,/W127*%
X70410200Y-78575000D03*
X68717600Y-136835000D03*
X226966800Y-78575000D03*
D13*
%TO.N,Net-(Q20A-S1)*%
X279956000Y-61850200D03*
X280156000Y-57950200D03*
%TO.N,Net-(Q20B-G2)*%
X286556000Y-57650200D03*
X281756000Y-64450200D03*
D12*
%TO.N,/W136*%
X50411800Y-211185000D03*
X214322200Y-167615500D03*
X50411900Y-174654500D03*
%TO.N,/W135*%
X45880600Y-204735000D03*
X206324800Y-196928500D03*
X210503900Y-165894000D03*
D13*
%TO.N,Net-(Q21A-S1)*%
X280156000Y-42050200D03*
X280056000Y-45250200D03*
%TO.N,Net-(Q21B-G2)*%
X281656000Y-47550200D03*
X287156000Y-42350200D03*
D12*
%TO.N,/W1312*%
X71746700Y-169424500D03*
X67347600Y-209852200D03*
X227454300Y-167151200D03*
%TO.N,/W131*%
X45854400Y-178708000D03*
X212803400Y-133189400D03*
X208008100Y-178708000D03*
D13*
%TO.N,Net-(Q22A-S1)*%
X280656000Y-127350000D03*
X280556000Y-131150000D03*
%TO.N,Net-(Q22B-G2)*%
X282556000Y-133650000D03*
X287856000Y-128350000D03*
D12*
%TO.N,/W132*%
X216295300Y-133176800D03*
X207862700Y-184846300D03*
X46139800Y-184846300D03*
%TO.N,/W1311*%
X69133600Y-202581900D03*
X225499500Y-165891800D03*
X222277600Y-197971500D03*
D13*
%TO.N,Net-(Q23A-S1)*%
X279956000Y-113350000D03*
X280156000Y-109450000D03*
%TO.N,Net-(Q23B-G2)*%
X286556000Y-109150000D03*
X281756000Y-115950000D03*
D12*
%TO.N,/W1310*%
X220011600Y-196482500D03*
X67080900Y-196482500D03*
X230808400Y-150314500D03*
%TO.N,/W139*%
X72372000Y-150352300D03*
X67167800Y-190268600D03*
X225842000Y-148800000D03*
D13*
%TO.N,Net-(Q24A-S1)*%
X280056000Y-96750200D03*
X280156000Y-93550200D03*
%TO.N,Net-(Q24B-G2)*%
X287156000Y-93850200D03*
X281656000Y-99050200D03*
D12*
%TO.N,/W138*%
X67167800Y-184050300D03*
X74382900Y-130606700D03*
X226983700Y-130447300D03*
%TO.N,/W137*%
X228259900Y-132995100D03*
X66966000Y-177851600D03*
X226507600Y-169424500D03*
D13*
%TO.N,Net-(Q25A-S1)*%
X280556000Y-182650000D03*
X280656000Y-178850000D03*
%TO.N,Net-(Q25B-G2)*%
X287856000Y-179850000D03*
X282556000Y-185150000D03*
D12*
%TO.N,/W214*%
X284094700Y-70576000D03*
X90101700Y-114541400D03*
X274797800Y-112037500D03*
%TO.N,/W213*%
X274522600Y-104352400D03*
X90068300Y-108408400D03*
X274522700Y-69075200D03*
D13*
%TO.N,Net-(Q26A-S1)*%
X280156000Y-160950000D03*
X279956000Y-164850000D03*
%TO.N,Net-(Q26B-G2)*%
X281756000Y-167450000D03*
X286556000Y-160650000D03*
D12*
%TO.N,/W216*%
X90023700Y-128021400D03*
X91507200Y-57372800D03*
X284094700Y-52535800D03*
%TO.N,/W215*%
X273836300Y-112900000D03*
X90065700Y-120882800D03*
X276342900Y-51121200D03*
D13*
%TO.N,Net-(Q27A-S1)*%
X280156000Y-145050000D03*
X280056000Y-148250000D03*
%TO.N,Net-(Q27B-G2)*%
X287156000Y-145350000D03*
X281656000Y-150550000D03*
D12*
%TO.N,/W212*%
X285476100Y-34802500D03*
X93247200Y-101928900D03*
X101076800Y-40341000D03*
%TO.N,/W211*%
X280047600Y-34802500D03*
X93247200Y-96424900D03*
X101699300Y-37725900D03*
D13*
%TO.N,Net-(Q28A-S1)*%
X280556000Y-234150000D03*
X280656000Y-230350000D03*
%TO.N,Net-(Q28B-G2)*%
X282556000Y-236650000D03*
X287856000Y-231350000D03*
D12*
%TO.N,/W224*%
X93578000Y-129975000D03*
X93577900Y-155632900D03*
X285789700Y-120567900D03*
%TO.N,/W223*%
X102795900Y-149588300D03*
X104972300Y-129681200D03*
X280311500Y-120484300D03*
D13*
%TO.N,Net-(Q29A-S1)*%
X279956000Y-216350000D03*
X280156000Y-212450000D03*
%TO.N,Net-(Q29B-G2)*%
X286556000Y-212150000D03*
X281756000Y-218950000D03*
D12*
%TO.N,/W226*%
X92056200Y-111107000D03*
X280752000Y-104299000D03*
X90652300Y-168485000D03*
%TO.N,/W225*%
X89639500Y-161838900D03*
X268097400Y-103390400D03*
X265912700Y-150557000D03*
D13*
%TO.N,Net-(Q30A-S1)*%
X280056000Y-199750000D03*
X280156000Y-196550000D03*
%TO.N,Net-(Q30B-G2)*%
X287156000Y-196850000D03*
X281656000Y-202050000D03*
D12*
%TO.N,/W222*%
X89639500Y-142557100D03*
X277740800Y-85856900D03*
X275969400Y-131819100D03*
%TO.N,/W221*%
X269225000Y-131080700D03*
X90082800Y-136390000D03*
X274179500Y-86610100D03*
D13*
%TO.N,Net-(Q31A-S1)*%
X280556000Y-285650000D03*
X280656000Y-281850000D03*
%TO.N,Net-(Q31B-G2)*%
X287856000Y-282850000D03*
X282556000Y-288150000D03*
D12*
%TO.N,/W234*%
X284326100Y-173353200D03*
X89403000Y-196705500D03*
%TO.N,/W233*%
X280534800Y-173805200D03*
X93312100Y-190794600D03*
D13*
%TO.N,Net-(Q32A-S1)*%
X280156000Y-263950000D03*
X279956000Y-267850000D03*
%TO.N,Net-(Q32B-G2)*%
X286556000Y-263650000D03*
X281756000Y-270450000D03*
D12*
%TO.N,/W236*%
X96282900Y-209785000D03*
X98643400Y-163618700D03*
X285475300Y-154328600D03*
%TO.N,/W235*%
X99229500Y-204173500D03*
X100637500Y-161838900D03*
X280020600Y-154358500D03*
D13*
%TO.N,Net-(Q33A-S1)*%
X280056000Y-251250000D03*
X280156000Y-248050000D03*
%TO.N,Net-(Q33B-G2)*%
X287156000Y-248350000D03*
X281656000Y-253550000D03*
D12*
%TO.N,/W232*%
X272507100Y-177741100D03*
X89403000Y-183709700D03*
X277874400Y-138544200D03*
%TO.N,/W231*%
X280006800Y-138417700D03*
X93254100Y-177474900D03*
X96649300Y-144040000D03*
D13*
%TO.N,Net-(Q34A-S1)*%
X280556000Y-337150000D03*
X280656000Y-333350000D03*
%TO.N,Net-(Q34B-G2)*%
X282556000Y-339650000D03*
X287856000Y-334350000D03*
D12*
%TO.N,/W244*%
X280341200Y-222875900D03*
X89403000Y-237387000D03*
%TO.N,/W243*%
X89403000Y-230444300D03*
X280347500Y-224378800D03*
D13*
%TO.N,Net-(Q35A-S1)*%
X279956000Y-319350000D03*
X280156000Y-315450000D03*
%TO.N,Net-(Q35B-G2)*%
X286556000Y-315150000D03*
X281756000Y-321950000D03*
D12*
%TO.N,/W246*%
X272670100Y-250828400D03*
X272670100Y-206706100D03*
X89403000Y-250679800D03*
%TO.N,/W245*%
X266488300Y-236625400D03*
X274615100Y-205675200D03*
X89609000Y-243864300D03*
D13*
%TO.N,Net-(Q36A-S1)*%
X280056000Y-302750000D03*
X280156000Y-299550000D03*
%TO.N,Net-(Q36B-G2)*%
X287156000Y-299850000D03*
X281656000Y-305050000D03*
D12*
%TO.N,/W242*%
X90191500Y-224335000D03*
X91970400Y-190161700D03*
X277817700Y-190161700D03*
%TO.N,/W241*%
X280031900Y-189570800D03*
X89403000Y-218052600D03*
D13*
%TO.N,Net-(Q37A-S1)*%
X332256000Y-78150200D03*
X332356000Y-74350200D03*
%TO.N,Net-(Q37B-G2)*%
X334256000Y-80650200D03*
X339556000Y-75350200D03*
D12*
%TO.N,/W254*%
X88651700Y-278379100D03*
X285793000Y-275907100D03*
%TO.N,/W253*%
X89390200Y-272296400D03*
X280019600Y-269379400D03*
D13*
%TO.N,Net-(Q38A-S1)*%
X331856000Y-56450200D03*
X331656000Y-60350200D03*
%TO.N,Net-(Q38B-G2)*%
X338256000Y-56150200D03*
X333456000Y-62950200D03*
D12*
%TO.N,/W256*%
X88935300Y-265728100D03*
X88935300Y-291404300D03*
X285498900Y-257973700D03*
%TO.N,/W255*%
X90704600Y-283923000D03*
X280009600Y-258607900D03*
D13*
%TO.N,Net-(Q39A-S1)*%
X331756000Y-43750200D03*
X331856000Y-40550200D03*
%TO.N,Net-(Q39B-G2)*%
X338856000Y-40850200D03*
X333356000Y-46050200D03*
D12*
%TO.N,/W252*%
X90832300Y-266596900D03*
X93241600Y-242335700D03*
X283176100Y-242415000D03*
%TO.N,/W251*%
X279867000Y-244635800D03*
X91208100Y-258514100D03*
D13*
%TO.N,Net-(Q40A-S1)*%
X332356000Y-125220000D03*
X332256000Y-129020000D03*
%TO.N,Net-(Q40B-G2)*%
X339556000Y-126220000D03*
X334256000Y-131520000D03*
D12*
%TO.N,/W264*%
X88017000Y-319364100D03*
X283765700Y-325137600D03*
%TO.N,/W263*%
X89308300Y-312486800D03*
X279575900Y-323432100D03*
D13*
%TO.N,Net-(Q41A-S1)*%
X331656000Y-111220000D03*
X331856000Y-107320000D03*
%TO.N,Net-(Q41B-G2)*%
X338256000Y-107020000D03*
X333456000Y-113820000D03*
D12*
%TO.N,/W266*%
X285464500Y-307871800D03*
X88496500Y-312028300D03*
X88445100Y-331585000D03*
%TO.N,/W265*%
X89133000Y-325399800D03*
X279613600Y-308903400D03*
D13*
%TO.N,Net-(Q42A-S1)*%
X331856000Y-91420200D03*
X331756000Y-94620200D03*
%TO.N,Net-(Q42B-G2)*%
X333356000Y-96920200D03*
X338856000Y-91720200D03*
D12*
%TO.N,/W262*%
X88282000Y-305241300D03*
X284485700Y-294979400D03*
%TO.N,/W261*%
X280086800Y-292596900D03*
X88277500Y-299335000D03*
D13*
%TO.N,Net-(Q43A-S1)*%
X332256000Y-179890000D03*
X332356000Y-176090000D03*
%TO.N,Net-(Q43B-G2)*%
X334256000Y-182390000D03*
X339556000Y-177090000D03*
D12*
%TO.N,/W314*%
X119545200Y-115109600D03*
X338087600Y-72378300D03*
X121884200Y-74654500D03*
%TO.N,/W313*%
X117244000Y-107882800D03*
X331053500Y-70617300D03*
X325248300Y-108623900D03*
D13*
%TO.N,Net-(Q44A-S1)*%
X331856000Y-158190000D03*
X331656000Y-162090000D03*
%TO.N,Net-(Q44B-G2)*%
X338256000Y-157890000D03*
X333456000Y-164690000D03*
D12*
%TO.N,/W316*%
X337162200Y-50476300D03*
X123870100Y-127962700D03*
X129842700Y-56854300D03*
%TO.N,/W315*%
X327611400Y-48750700D03*
X117375400Y-120965300D03*
X323976700Y-114506500D03*
D13*
%TO.N,Net-(Q45A-S1)*%
X331756000Y-145490000D03*
X331856000Y-142290000D03*
%TO.N,Net-(Q45B-G2)*%
X338856000Y-142590000D03*
X333356000Y-147790000D03*
D12*
%TO.N,/W312*%
X325651300Y-90595300D03*
X118373100Y-101928900D03*
X325651400Y-34484600D03*
%TO.N,/W311*%
X328430100Y-89201100D03*
X328430200Y-33275200D03*
X117389600Y-95163400D03*
D13*
%TO.N,Net-(Q46A-S1)*%
X332356000Y-226960000D03*
X332256000Y-230760000D03*
%TO.N,Net-(Q46B-G2)*%
X334256000Y-233260000D03*
X339556000Y-227960000D03*
D12*
%TO.N,/W324*%
X328422700Y-146388100D03*
X117114000Y-155866000D03*
X329980200Y-118792000D03*
%TO.N,/W323*%
X123213900Y-147853500D03*
X332047800Y-118491700D03*
D13*
%TO.N,Net-(Q47A-S1)*%
X331656000Y-212960000D03*
X331856000Y-209060000D03*
%TO.N,Net-(Q47B-G2)*%
X333456000Y-215560000D03*
X338256000Y-208760000D03*
D12*
%TO.N,/W326*%
X327879400Y-165608200D03*
X117267300Y-168229900D03*
X329982100Y-99966000D03*
%TO.N,/W325*%
X121486000Y-161498200D03*
X331795000Y-100966800D03*
X122345000Y-108706100D03*
D13*
%TO.N,Net-(Q48A-S1)*%
X331756000Y-196360000D03*
X331856000Y-193160000D03*
%TO.N,Net-(Q48B-G2)*%
X333356000Y-198660000D03*
X338856000Y-193460000D03*
D12*
%TO.N,/W322*%
X337935400Y-84074500D03*
X119545200Y-142402900D03*
X119860600Y-83210600D03*
%TO.N,/W321*%
X119545200Y-136460900D03*
X331013400Y-85415700D03*
X119860600Y-88602700D03*
D13*
%TO.N,Net-(Q49A-S1)*%
X332256000Y-281630000D03*
X332356000Y-277830000D03*
%TO.N,Net-(Q49B-G2)*%
X339556000Y-278830000D03*
X334256000Y-284130000D03*
D12*
%TO.N,/W334*%
X328296900Y-170555700D03*
X121922900Y-173216700D03*
X116892600Y-195819100D03*
%TO.N,/W333*%
X119545200Y-184088600D03*
X331791300Y-169816700D03*
D13*
%TO.N,Net-(Q50A-S1)*%
X331856000Y-259930000D03*
X331656000Y-263830000D03*
%TO.N,Net-(Q50B-G2)*%
X333456000Y-266430000D03*
X338256000Y-259630000D03*
D12*
%TO.N,/W336*%
X335192900Y-149918700D03*
X116956500Y-208482500D03*
X119791100Y-151277800D03*
%TO.N,/W335*%
X331418100Y-185650900D03*
X332634000Y-152901500D03*
X116779400Y-202330000D03*
D13*
%TO.N,Net-(Q51A-S1)*%
X331756000Y-247230000D03*
X331856000Y-244030000D03*
%TO.N,Net-(Q51B-G2)*%
X333356000Y-249530000D03*
X338856000Y-244330000D03*
D12*
%TO.N,/W332*%
X329873700Y-171772800D03*
X333895900Y-136598400D03*
X116750300Y-182608200D03*
%TO.N,/W331*%
X332726500Y-136494300D03*
X116807200Y-176530000D03*
X331124100Y-168996200D03*
D13*
%TO.N,Net-(Q52A-S1)*%
X332356000Y-328700000D03*
X332256000Y-332500000D03*
%TO.N,Net-(Q52B-G2)*%
X334256000Y-335000000D03*
X339556000Y-329700000D03*
D12*
%TO.N,/W344*%
X337468300Y-220114300D03*
X119791100Y-236055100D03*
%TO.N,/W343*%
X113756800Y-232393600D03*
X332040500Y-220114300D03*
D13*
%TO.N,Net-(Q53A-S1)*%
X331656000Y-314700000D03*
X331856000Y-310800000D03*
%TO.N,Net-(Q53B-G2)*%
X333456000Y-317300000D03*
X338256000Y-310500000D03*
D12*
%TO.N,/W346*%
X327964900Y-244074700D03*
X327964900Y-202818700D03*
X116007800Y-249670000D03*
%TO.N,/W345*%
X116590300Y-243700200D03*
X326075100Y-202285200D03*
X320618400Y-237422300D03*
D13*
%TO.N,Net-(Q54A-S1)*%
X331756000Y-298100000D03*
X331856000Y-294900000D03*
%TO.N,Net-(Q54B-G2)*%
X333356000Y-300400000D03*
X338856000Y-295200000D03*
D12*
%TO.N,/W342*%
X116956500Y-189607800D03*
X115981200Y-223625500D03*
X337173300Y-186240100D03*
%TO.N,/W341*%
X330948100Y-187098200D03*
X119983500Y-186840500D03*
X116987400Y-217827500D03*
D13*
%TO.N,Net-(Q55A-S1)*%
X384098000Y-72162200D03*
X383998000Y-75962200D03*
%TO.N,Net-(Q55B-G2)*%
X385998000Y-78462200D03*
X391298000Y-73162200D03*
D12*
%TO.N,/W354*%
X331136300Y-272010300D03*
X115455500Y-278013600D03*
%TO.N,/W353*%
X115462400Y-271585000D03*
X332038600Y-271867700D03*
D13*
%TO.N,Net-(Q56A-S1)*%
X383398000Y-58162200D03*
X383598000Y-54262200D03*
%TO.N,Net-(Q56B-G2)*%
X385198000Y-60762200D03*
X389998000Y-53962200D03*
D12*
%TO.N,/W356*%
X115373300Y-290437700D03*
X325970800Y-254574200D03*
X325970800Y-286570800D03*
%TO.N,/W355*%
X327600200Y-277535800D03*
X331578200Y-253670600D03*
X118584400Y-283314500D03*
D13*
%TO.N,Net-(Q57A-S1)*%
X383598000Y-38362200D03*
X383498000Y-41562200D03*
%TO.N,Net-(Q57B-G2)*%
X385098000Y-43862200D03*
X390598000Y-38662200D03*
D12*
%TO.N,/W352*%
X116850100Y-265075200D03*
X335286300Y-238412400D03*
X119791100Y-244635700D03*
%TO.N,/W351*%
X115453900Y-258460200D03*
X331661900Y-240405900D03*
D13*
%TO.N,Net-(Q58A-S1)*%
X384098000Y-123606000D03*
X383998000Y-127406000D03*
%TO.N,Net-(Q58B-G2)*%
X391298000Y-124606000D03*
X385998000Y-129906000D03*
D12*
%TO.N,/W364*%
X115147000Y-318056800D03*
X332028000Y-322672700D03*
%TO.N,/W363*%
X331774200Y-320832800D03*
X115147000Y-311954900D03*
D13*
%TO.N,Net-(Q59A-S1)*%
X383398000Y-109606000D03*
X383598000Y-105706000D03*
%TO.N,Net-(Q59B-G2)*%
X389998000Y-105406000D03*
X385198000Y-112206000D03*
D12*
%TO.N,/W366*%
X334949400Y-305921600D03*
X115147000Y-331380400D03*
X333870000Y-325364800D03*
%TO.N,/W365*%
X331719100Y-303803500D03*
X127897500Y-319865500D03*
D13*
%TO.N,Net-(Q60A-S1)*%
X383598000Y-89806200D03*
X383498000Y-93006200D03*
%TO.N,Net-(Q60B-G2)*%
X390598000Y-90106200D03*
X385098000Y-95306200D03*
D12*
%TO.N,/W362*%
X115176300Y-305624600D03*
X329982100Y-287894000D03*
%TO.N,/W361*%
X115159400Y-298935000D03*
X331716100Y-287862700D03*
D13*
%TO.N,Net-(Q61A-S1)*%
X383998000Y-178850000D03*
X384098000Y-175050000D03*
%TO.N,Net-(Q61B-G2)*%
X391298000Y-176050000D03*
X385998000Y-181350000D03*
D12*
%TO.N,/W414*%
X384261400Y-97036900D03*
X148495900Y-113938200D03*
X387244300Y-66881000D03*
%TO.N,/W413*%
X377817400Y-99356000D03*
X381885400Y-64995900D03*
X148495900Y-107882800D03*
D13*
%TO.N,Net-(Q62A-S1)*%
X383598000Y-157150000D03*
X383398000Y-161050000D03*
%TO.N,Net-(Q62B-G2)*%
X389998000Y-156850000D03*
X385198000Y-163650000D03*
D12*
%TO.N,/W416*%
X151312000Y-127450300D03*
X152899100Y-49956600D03*
X388951100Y-46758100D03*
%TO.N,/W415*%
X155064300Y-120484300D03*
X157859700Y-57960700D03*
X383468300Y-46758100D03*
D13*
%TO.N,Net-(Q63A-S1)*%
X383598000Y-141250000D03*
X383498000Y-144450000D03*
%TO.N,Net-(Q63B-G2)*%
X385098000Y-146750000D03*
X390598000Y-141550000D03*
D12*
%TO.N,/W412*%
X388913700Y-31442700D03*
X158447500Y-41982400D03*
X158485300Y-101654200D03*
%TO.N,/W411*%
X153277700Y-94167200D03*
X383372600Y-31442700D03*
X156810800Y-37912400D03*
D13*
%TO.N,Net-(Q64A-S1)*%
X383998000Y-230294000D03*
X384098000Y-226494000D03*
%TO.N,Net-(Q64B-G2)*%
X385998000Y-232794000D03*
X391298000Y-227494000D03*
D12*
%TO.N,/W424*%
X147336900Y-155258100D03*
X146360900Y-129396400D03*
X389258700Y-116499100D03*
%TO.N,/W423*%
X383119500Y-116499100D03*
X149014600Y-143435400D03*
D13*
%TO.N,Net-(Q65A-S1)*%
X383398000Y-212494000D03*
X383598000Y-208594000D03*
%TO.N,Net-(Q65B-G2)*%
X389998000Y-208294000D03*
X385198000Y-215094000D03*
D12*
%TO.N,/W426*%
X146987000Y-168079900D03*
X386720300Y-100755700D03*
X386862000Y-158765300D03*
%TO.N,/W425*%
X154478200Y-103080000D03*
X381511500Y-98974900D03*
X146999800Y-160898800D03*
D13*
%TO.N,Net-(Q66A-S1)*%
X383498000Y-195894000D03*
X383598000Y-192694000D03*
%TO.N,Net-(Q66B-G2)*%
X385098000Y-198194000D03*
X390598000Y-192994000D03*
D12*
%TO.N,/W422*%
X146999800Y-142278000D03*
X387827300Y-84029700D03*
X150961800Y-83760800D03*
%TO.N,/W421*%
X159192700Y-92197800D03*
X383372600Y-83456900D03*
X155064300Y-136425100D03*
D13*
%TO.N,Net-(Q67A-S1)*%
X384098000Y-277938000D03*
X383998000Y-281738000D03*
%TO.N,Net-(Q67B-G2)*%
X391298000Y-278938000D03*
X385998000Y-284238000D03*
D12*
%TO.N,/W434*%
X158466400Y-181645300D03*
X389234700Y-168306700D03*
X155396200Y-197151500D03*
%TO.N,/W433*%
X383782400Y-168306700D03*
X155396200Y-182207200D03*
D13*
%TO.N,Net-(Q68A-S1)*%
X383598000Y-260038000D03*
X383398000Y-263938000D03*
%TO.N,Net-(Q68B-G2)*%
X385198000Y-266538000D03*
X389998000Y-259738000D03*
D12*
%TO.N,/W436*%
X148896700Y-168752200D03*
X148482000Y-210137400D03*
X388943600Y-150373300D03*
%TO.N,/W435*%
X151445600Y-203135000D03*
X155142000Y-164907500D03*
X383487500Y-150373300D03*
D13*
%TO.N,Net-(Q69A-S1)*%
X383498000Y-247338000D03*
X383598000Y-244138000D03*
%TO.N,Net-(Q69B-G2)*%
X390598000Y-244438000D03*
X385098000Y-249638000D03*
D12*
%TO.N,/W432*%
X380032500Y-134816300D03*
X146079800Y-184184200D03*
X371017600Y-183075400D03*
%TO.N,/W431*%
X155396200Y-177474900D03*
X383471100Y-133251600D03*
X158466400Y-148380700D03*
D13*
%TO.N,Net-(Q70A-S1)*%
X384098000Y-329382000D03*
X383998000Y-333182000D03*
%TO.N,Net-(Q70B-G2)*%
X391298000Y-330382000D03*
X385998000Y-335682000D03*
D12*
%TO.N,/W444*%
X389228700Y-220114300D03*
X145770500Y-237285000D03*
%TO.N,/W443*%
X145777300Y-230480000D03*
X383522600Y-219528600D03*
D13*
%TO.N,Net-(Q71A-S1)*%
X383398000Y-315382000D03*
X383598000Y-311482000D03*
%TO.N,Net-(Q71B-G2)*%
X385198000Y-317982000D03*
X389998000Y-311182000D03*
D12*
%TO.N,/W446*%
X388917700Y-202180900D03*
X387095800Y-248431000D03*
X145785200Y-249830100D03*
%TO.N,/W445*%
X383442500Y-202180900D03*
X146344400Y-239767500D03*
D13*
%TO.N,Net-(Q72A-S1)*%
X383498000Y-298782000D03*
X383598000Y-295582000D03*
%TO.N,Net-(Q72B-G2)*%
X385098000Y-301082000D03*
X390598000Y-295882000D03*
D12*
%TO.N,/W442*%
X388924200Y-186240100D03*
X147206600Y-220223900D03*
%TO.N,/W441*%
X146292600Y-214484500D03*
X383472400Y-186240100D03*
%TO.N,Net-(Q34001A-S1)*%
X212228000Y-173000000D03*
X212228000Y-177200000D03*
%TO.N,/W454*%
X383095100Y-272575400D03*
X145554700Y-278323000D03*
%TO.N,/W453*%
X383756600Y-271921900D03*
X148899200Y-271228300D03*
%TO.N,Net-(Q35001A-S1)*%
X212333000Y-142975000D03*
X212333000Y-138775000D03*
%TO.N,/W456*%
X144507700Y-293971200D03*
X156461700Y-252350600D03*
X388947800Y-253988500D03*
%TO.N,/W455*%
X383794200Y-273968100D03*
X383799700Y-254669100D03*
X145579100Y-285461600D03*
%TO.N,Net-(Q36001A-S1)*%
X227863000Y-177225000D03*
X227863000Y-173025000D03*
%TO.N,/W452*%
X154206800Y-265314500D03*
X388911400Y-236055100D03*
%TO.N,/W451*%
X383473600Y-236156100D03*
X145576000Y-259649900D03*
%TO.N,Net-(Q37001A-S1)*%
X227798000Y-160075000D03*
X227798000Y-155875000D03*
%TO.N,/W464*%
X389219200Y-321791300D03*
X145484900Y-318135000D03*
%TO.N,/W463*%
X384413500Y-320448500D03*
X146501800Y-311574100D03*
%TO.N,Net-(Q38001A-S1)*%
X227328000Y-138800000D03*
X227328000Y-143000000D03*
%TO.N,/W466*%
X145461100Y-331351500D03*
X386560800Y-306262600D03*
X386803000Y-324513700D03*
%TO.N,/W465*%
X383466500Y-305113700D03*
D13*
X146501800Y-325149700D03*
D12*
%TO.N,Net-(Q130001A-S1)*%
X212771000Y-212775000D03*
X212771000Y-208575000D03*
%TO.N,/W462*%
X147332800Y-304966600D03*
X388933500Y-287862700D03*
%TO.N,/W461*%
X383491700Y-287862700D03*
X145458600Y-298785000D03*
%TO.N,Net-(Q132001A-S1)*%
X212466000Y-230250000D03*
X212466000Y-226050000D03*
%TO.N,/W144*%
X210542100Y-232306000D03*
X212262200Y-202480200D03*
X45825500Y-238129500D03*
%TO.N,/W143*%
X206977600Y-230294200D03*
X210950500Y-202347700D03*
X45825500Y-231343500D03*
%TO.N,Net-(Q133001A-S1)*%
X212836000Y-191100000D03*
X212836000Y-195300000D03*
%TO.N,/W146*%
X49705500Y-218835000D03*
X217556500Y-219158800D03*
X46076100Y-251524500D03*
%TO.N,/W145*%
X211411400Y-219523900D03*
X46796800Y-244611200D03*
X46026300Y-221224500D03*
%TO.N,Net-(Q134001A-S1)*%
X229271000Y-225575000D03*
X229271000Y-229775000D03*
%TO.N,/W1412*%
X229129700Y-243574700D03*
X66682700Y-250145800D03*
X231457000Y-219849200D03*
%TO.N,/W141*%
X49096000Y-186544400D03*
X213305200Y-185654400D03*
X46873300Y-218835000D03*
%TO.N,Net-(Q135001A-S1)*%
X228771000Y-208175000D03*
X228771000Y-212375000D03*
%TO.N,/W142*%
X53962100Y-185132600D03*
X212330000Y-182933700D03*
X46762200Y-225285000D03*
%TO.N,/W1411*%
X78702400Y-222251400D03*
X78702400Y-243439800D03*
X228725200Y-218248200D03*
%TO.N,Net-(Q136001A-S1)*%
X228971000Y-195275000D03*
X228971000Y-191075000D03*
%TO.N,/W1410*%
X67441000Y-237073600D03*
X226808800Y-202380400D03*
X226770100Y-232679800D03*
%TO.N,/W149*%
X227995300Y-200188300D03*
X66655600Y-230835000D03*
X225351500Y-231105200D03*
%TO.N,Net-(Q138001A-S1)*%
X212466000Y-267000000D03*
X212466000Y-262800000D03*
%TO.N,/W148*%
X68469700Y-225085400D03*
X72372000Y-186825800D03*
X231065400Y-185359800D03*
%TO.N,/W147*%
X227067400Y-189246100D03*
X66660800Y-218090000D03*
%TO.N,Net-(Q140001A-S1)*%
X212666000Y-280200000D03*
X212666000Y-284400000D03*
%TO.N,/W154*%
X215862900Y-257060800D03*
X46054400Y-278123000D03*
%TO.N,/W153*%
X211860200Y-255688200D03*
X50785000Y-271336200D03*
%TO.N,Net-(Q141001A-S1)*%
X212666000Y-244900000D03*
X212666000Y-249100000D03*
%TO.N,/W156*%
X46060600Y-291085000D03*
X214753500Y-290964700D03*
X217913700Y-273760700D03*
%TO.N,/W155*%
X211434500Y-273914500D03*
X46088100Y-284635000D03*
%TO.N,Net-(Q142001A-S1)*%
X229866000Y-279900000D03*
X229866000Y-284100000D03*
%TO.N,/W1512*%
X232560400Y-274333800D03*
X66174700Y-291085000D03*
%TO.N,/W151*%
X209751800Y-238047700D03*
X46075400Y-258510000D03*
%TO.N,Net-(Q143001A-S1)*%
X229766000Y-262400000D03*
X229766000Y-266600000D03*
%TO.N,/W152*%
X46100000Y-265648600D03*
X207531600Y-266351000D03*
X211411400Y-237350600D03*
%TO.N,/W1511*%
X228901500Y-272191800D03*
X72447800Y-279013700D03*
%TO.N,Net-(Q145001A-S1)*%
X229866000Y-249000000D03*
X229866000Y-244800000D03*
%TO.N,/W1510*%
X66151300Y-278185000D03*
X234418300Y-271406600D03*
X234488300Y-256620000D03*
%TO.N,/W159*%
X228099000Y-255981100D03*
X68731900Y-265628400D03*
%TO.N,Net-(Q147001A-S1)*%
X212466000Y-320905000D03*
X212466000Y-316705000D03*
%TO.N,/W158*%
X66164400Y-265285000D03*
X234780500Y-238047700D03*
%TO.N,/W157*%
X229255200Y-237735000D03*
X66737800Y-258827500D03*
X230254000Y-253645700D03*
%TO.N,Net-(Q149001A-S1)*%
X212531000Y-335005000D03*
X212531000Y-339205000D03*
%TO.N,/W164*%
X45668000Y-319598700D03*
X215199600Y-311832800D03*
%TO.N,/W163*%
X211453200Y-310367000D03*
X45662900Y-312935000D03*
%TO.N,Net-(Q179001A-S1)*%
X212631000Y-303605000D03*
X212631000Y-299405000D03*
%TO.N,/W166*%
X45682200Y-332123100D03*
X208864700Y-327168900D03*
%TO.N,/W165*%
X211102900Y-327930100D03*
X45456100Y-326408000D03*
%TO.N,Net-(Q180001A-S1)*%
X229696000Y-339030000D03*
X229696000Y-334830000D03*
%TO.N,/W1612*%
X65953500Y-331108300D03*
X234642100Y-327714700D03*
%TO.N,/W161*%
X45689200Y-300035000D03*
X214209800Y-294533200D03*
%TO.N,Net-(Q181001A-S1)*%
X229401000Y-316380000D03*
X229401000Y-320580000D03*
%TO.N,/W162*%
X215952200Y-295456400D03*
X45456100Y-307164100D03*
%TO.N,/W1611*%
X65968000Y-324385000D03*
X229177900Y-327714700D03*
%TO.N,Net-(Q182001A-S1)*%
X229131000Y-299205000D03*
X229131000Y-303405000D03*
%TO.N,/W1610*%
X228889800Y-308546900D03*
X66370100Y-317935000D03*
X66737800Y-313691800D03*
%TO.N,/W169*%
X219536700Y-309035300D03*
X65982800Y-311418700D03*
%TO.N,/W168*%
X232645200Y-293396100D03*
X65987700Y-305035000D03*
%TO.N,/W167*%
X65957400Y-298585000D03*
X228394400Y-292385700D03*
D13*
%TO.N,Net-(U26D--)*%
X284756000Y-77950200D03*
X286856000Y-77350200D03*
D12*
%TO.N,/InNeuron_2/Adder3/SUM_IN*%
X213872000Y-126579400D03*
X244767000Y-97438600D03*
X234090000Y-85650000D03*
X218590000Y-120550000D03*
X228742300Y-109367700D03*
X233990000Y-103050000D03*
X214301200Y-92250000D03*
X228259900Y-126804400D03*
X233790000Y-120450000D03*
X218790000Y-85750000D03*
X218590000Y-103150000D03*
D13*
%TO.N,Net-(U28D--)*%
X285656000Y-59550200D03*
X284156000Y-60150200D03*
%TO.N,Net-(U29D--)*%
X283856000Y-43650200D03*
X285256000Y-43350200D03*
%TO.N,Net-(U30D--)*%
X284756000Y-129450000D03*
X286856000Y-128850000D03*
%TO.N,Net-(U32D--)*%
X285656000Y-111050000D03*
X284156000Y-111650000D03*
%TO.N,Net-(U33D--)*%
X283856000Y-95150200D03*
X285256000Y-94850200D03*
%TO.N,Net-(U34D--)*%
X284756000Y-180950000D03*
X286856000Y-180350000D03*
%TO.N,Net-(U35D--)*%
X285656000Y-162550000D03*
X284156000Y-163150000D03*
%TO.N,Net-(U37D--)*%
X283856000Y-146650000D03*
X285256000Y-146350000D03*
%TO.N,Net-(U38D--)*%
X286856000Y-231850000D03*
X284756000Y-232450000D03*
%TO.N,Net-(U39D--)*%
X285656000Y-214050000D03*
X284156000Y-214650000D03*
%TO.N,Net-(U41D--)*%
X285256000Y-197850000D03*
X283856000Y-198150000D03*
%TO.N,Net-(U42D--)*%
X286856000Y-283350000D03*
X284756000Y-283950000D03*
%TO.N,Net-(U47D--)*%
X285656000Y-317050000D03*
X284156000Y-317650000D03*
%TO.N,Net-(U43D--)*%
X285656000Y-265550000D03*
X284156000Y-266150000D03*
%TO.N,Net-(U45D--)*%
X283856000Y-249650000D03*
X285256000Y-249350000D03*
%TO.N,Net-(U49D--)*%
X283856000Y-301150000D03*
X285256000Y-300850000D03*
%TO.N,Net-(U52D--)*%
X337356000Y-58050200D03*
X335856000Y-58650200D03*
D12*
%TO.N,/InNeuron_1/Adder3/SUM_IN*%
X235663000Y-66525000D03*
X218357800Y-36863700D03*
X235328000Y-32400000D03*
X245806000Y-43219100D03*
X219028000Y-66500000D03*
X230254000Y-72941800D03*
X235528000Y-49300000D03*
X218828000Y-32300000D03*
X230714800Y-55055300D03*
X219028000Y-49200000D03*
X213428000Y-73100000D03*
X213584400Y-55312600D03*
D13*
%TO.N,Net-(U46D--)*%
X286856000Y-334850000D03*
X284756000Y-335450000D03*
%TO.N,Net-(U53D--)*%
X336956000Y-41850200D03*
X335556000Y-42150200D03*
%TO.N,Net-(U56D--)*%
X335856000Y-109520000D03*
X337356000Y-108920000D03*
%TO.N,Net-(U57D--)*%
X336956000Y-92720200D03*
X335556000Y-93020200D03*
%TO.N,Net-(U58D--)*%
X338556000Y-177590000D03*
X336456000Y-178190000D03*
%TO.N,Net-(U69D--)*%
X336956000Y-245330000D03*
X335556000Y-245630000D03*
%TO.N,Net-(U60D--)*%
X337356000Y-159790000D03*
X335856000Y-160390000D03*
%TO.N,Net-(U61D--)*%
X336956000Y-143590000D03*
X335556000Y-143890000D03*
D12*
%TO.N,/InNeuron_3/Adder3/SUM_IN*%
X234398000Y-155875000D03*
X233928000Y-138800000D03*
X234463000Y-173025000D03*
X214301200Y-162200000D03*
X218933000Y-138775000D03*
X218828000Y-173000000D03*
X228711300Y-144946100D03*
X218359900Y-178340300D03*
X244306000Y-150910000D03*
X218828000Y-155600000D03*
D13*
%TO.N,Net-(U62D--)*%
X338556000Y-228460000D03*
X336456000Y-229060000D03*
%TO.N,Net-(U50D--)*%
X338556000Y-75850200D03*
X336456000Y-76450200D03*
%TO.N,Net-(U54D--)*%
X338556000Y-126720000D03*
X336456000Y-127320000D03*
%TO.N,Net-(U65D--)*%
X336956000Y-194460000D03*
X335556000Y-194760000D03*
%TO.N,Net-(U66D--)*%
X336456000Y-279930000D03*
X338556000Y-279330000D03*
%TO.N,Net-(U73D--)*%
X335556000Y-296500000D03*
X336956000Y-296200000D03*
%TO.N,/Neuron6_1/Adder2/SUM_IN*%
X281056000Y-65550200D03*
X281956000Y-83350200D03*
X286356000Y-61450200D03*
X287756000Y-81350200D03*
%TO.N,Net-(U68D--)*%
X335856000Y-262130000D03*
X337356000Y-261530000D03*
%TO.N,Net-(U70D--)*%
X336456000Y-330800000D03*
X338556000Y-330200000D03*
%TO.N,Net-(U77D--)*%
X388698000Y-39662200D03*
X387298000Y-39962200D03*
%TO.N,/Neuron6_2/Adder2/SUM_IN*%
X281956000Y-134850000D03*
X281056000Y-117050000D03*
X287756000Y-132850000D03*
X286356000Y-112950000D03*
%TO.N,Net-(U72D--)*%
X337356000Y-312400000D03*
X335856000Y-313000000D03*
%TO.N,Net-(U74D--)*%
X390298000Y-73662200D03*
X388198000Y-74262200D03*
%TO.N,Net-(U81D--)*%
X387298000Y-91406200D03*
X388698000Y-91106200D03*
%TO.N,/Neuron6_3/Adder2/SUM_IN*%
X281956000Y-186350000D03*
X281056000Y-168550000D03*
X286356000Y-164450000D03*
X287756000Y-184350000D03*
%TO.N,Net-(U76D--)*%
X387598000Y-56462200D03*
X389098000Y-55862200D03*
%TO.N,Net-(U78D--)*%
X390298000Y-125106000D03*
X388198000Y-125706000D03*
%TO.N,Net-(U85D--)*%
X388698000Y-142550000D03*
X387298000Y-142850000D03*
%TO.N,/Neuron6_4/Adder2/SUM_IN*%
X281956000Y-237850000D03*
X286356000Y-215950000D03*
X287756000Y-235850000D03*
X281056000Y-220050000D03*
%TO.N,Net-(U80D--)*%
X387598000Y-107906000D03*
X389098000Y-107306000D03*
%TO.N,Net-(U82D--)*%
X390298000Y-176550000D03*
X388198000Y-177150000D03*
%TO.N,Net-(U89D--)*%
X388698000Y-193994000D03*
X387298000Y-194294000D03*
%TO.N,/Neuron6_5/Adder2/SUM_IN*%
X281056000Y-271550000D03*
X281956000Y-289350000D03*
X287756000Y-287350000D03*
X286356000Y-267450000D03*
%TO.N,Net-(U84D--)*%
X387598000Y-159350000D03*
X389098000Y-158750000D03*
%TO.N,Net-(U86D--)*%
X388198000Y-228594000D03*
X390298000Y-227994000D03*
%TO.N,Net-(U93D--)*%
X388698000Y-245438000D03*
X387298000Y-245738000D03*
%TO.N,/Neuron6_6/Adder2/SUM_IN*%
X281056000Y-323050000D03*
X286356000Y-318950000D03*
X287756000Y-338850000D03*
X281956000Y-340850000D03*
%TO.N,Net-(U88D--)*%
X387598000Y-210794000D03*
X389098000Y-210194000D03*
%TO.N,Net-(U90D--)*%
X390298000Y-279438000D03*
X388198000Y-280038000D03*
%TO.N,Net-(U97D--)*%
X388698000Y-296882000D03*
X387298000Y-297182000D03*
%TO.N,/Neuron6_7/Adder2/SUM_IN*%
X333656000Y-81850200D03*
X338056000Y-59950200D03*
X332756000Y-64050200D03*
X339456000Y-79850200D03*
%TO.N,Net-(U92D--)*%
X389098000Y-261638000D03*
X387598000Y-262238000D03*
%TO.N,Net-(U94D--)*%
X388198000Y-331482000D03*
X390298000Y-330882000D03*
%TO.N,/Neuron6_8/Adder2/SUM_IN*%
X338056000Y-110820000D03*
X339456000Y-130720000D03*
X333656000Y-132720000D03*
X332756000Y-114920000D03*
%TO.N,Net-(U96D--)*%
X389098000Y-313082000D03*
X387598000Y-313682000D03*
%TO.N,/Neuron6_9/Adder2/SUM_IN*%
X338056000Y-161690000D03*
X332756000Y-165790000D03*
X339456000Y-181590000D03*
X333656000Y-183590000D03*
%TO.N,/Neuron6_10/Adder2/SUM_IN*%
X338056000Y-212560000D03*
X339456000Y-232460000D03*
X333656000Y-234460000D03*
X332756000Y-216660000D03*
%TO.N,/Neuron6_11/Adder2/SUM_IN*%
X338056000Y-263430000D03*
X333656000Y-285330000D03*
X339456000Y-283330000D03*
X332756000Y-267530000D03*
%TO.N,/Neuron6_12/Adder2/SUM_IN*%
X338056000Y-314300000D03*
X339456000Y-334200000D03*
X332756000Y-318400000D03*
X333656000Y-336200000D03*
D12*
%TO.N,Net-(U2001D--)*%
X217490000Y-103050000D03*
X215190000Y-103450000D03*
%TO.N,Net-(U4001D--)*%
X217490000Y-120450000D03*
X215190000Y-120850000D03*
%TO.N,Net-(U5001D--)*%
X215390000Y-86050000D03*
X217690000Y-85650000D03*
D13*
%TO.N,/Neuron6_13/Adder2/SUM_IN*%
X385398000Y-79662200D03*
X384498000Y-61862200D03*
X389798000Y-57762200D03*
X391198000Y-77662200D03*
D12*
%TO.N,Net-(U6001D--)*%
X232690000Y-120350000D03*
X230390000Y-120750000D03*
D13*
%TO.N,Net-(U14001D--)*%
X442241000Y-73545200D03*
X440841000Y-73845200D03*
%TO.N,Net-(U15001D--)*%
X440941000Y-56845200D03*
X442341000Y-56545200D03*
%TO.N,/Neuron6_14/Adder2/SUM_IN*%
X385398000Y-131106000D03*
X389798000Y-109206000D03*
X384498000Y-113306000D03*
X391198000Y-129106000D03*
%TO.N,Net-(U16001D--)*%
X442341000Y-38545200D03*
X440941000Y-38845200D03*
%TO.N,Net-(U18001D--)*%
X442556000Y-107100000D03*
X441156000Y-107400000D03*
%TO.N,Net-(U19001D--)*%
X441106000Y-90600200D03*
X442506000Y-90300200D03*
%TO.N,/Neuron6_15/Adder2/SUM_IN*%
X384498000Y-164750000D03*
X391198000Y-180550000D03*
X385398000Y-182550000D03*
X389798000Y-160650000D03*
%TO.N,Net-(U20001D--)*%
X441256000Y-124800000D03*
X442656000Y-124500000D03*
D12*
%TO.N,Net-(U22001D--)*%
X215628000Y-49500000D03*
X217928000Y-49100000D03*
%TO.N,Net-(U24001D--)*%
X215628000Y-66800000D03*
X217928000Y-66400000D03*
D13*
%TO.N,/Neuron6_16/Adder2/SUM_IN*%
X389798000Y-212094000D03*
X391198000Y-231994000D03*
X384498000Y-216194000D03*
X385398000Y-233994000D03*
D12*
%TO.N,Net-(U25001D--)*%
X217728000Y-32200000D03*
X215428000Y-32600000D03*
%TO.N,Net-(U26001D--)*%
X232263000Y-66825000D03*
X234563000Y-66425000D03*
%TO.N,Net-(U27001D--)*%
X232128000Y-49600000D03*
X234428000Y-49200000D03*
D13*
%TO.N,/Neuron6_17/Adder2/SUM_IN*%
X385398000Y-285438000D03*
X391198000Y-283438000D03*
X384498000Y-267638000D03*
X389798000Y-263538000D03*
D12*
%TO.N,Net-(U28001D--)*%
X231928000Y-32700000D03*
X234228000Y-32300000D03*
%TO.N,Net-(U29001D--)*%
X230590000Y-103350000D03*
X232890000Y-102950000D03*
%TO.N,Net-(U30001D--)*%
X232990000Y-85550000D03*
X230690000Y-85950000D03*
%TO.N,Net-(U32001D--)*%
X215428000Y-155900000D03*
X217728000Y-155500000D03*
D13*
%TO.N,/Neuron6_18/Adder2/SUM_IN*%
X391198000Y-334882000D03*
X384498000Y-319082000D03*
X389798000Y-314982000D03*
X385398000Y-336882000D03*
D12*
%TO.N,Net-(U34001D--)*%
X215428000Y-173300000D03*
X217728000Y-172900000D03*
%TO.N,Net-(U35001D--)*%
X215533000Y-139075000D03*
X217833000Y-138675000D03*
%TO.N,Net-(U36001D--)*%
X233363000Y-172925000D03*
X231063000Y-173325000D03*
%TO.N,/InNeuron_4/Adder3/SUM_IN*%
X235571000Y-191075000D03*
X218292800Y-231417900D03*
X220380300Y-197483400D03*
X219066000Y-226050000D03*
X235371000Y-208175000D03*
X219371000Y-208575000D03*
X218391300Y-214238500D03*
X219436000Y-191100000D03*
X235871000Y-225575000D03*
%TO.N,Net-(U37001D--)*%
X230998000Y-156175000D03*
X233298000Y-155775000D03*
D13*
%TO.N,Net-(U64D--)*%
X335856000Y-211260000D03*
X337356000Y-210660000D03*
D12*
%TO.N,Net-(U38001D--)*%
X232828000Y-138700000D03*
X230528000Y-139100000D03*
%TO.N,Net-(U130001D--)*%
X218271000Y-208475000D03*
X215971000Y-208875000D03*
%TO.N,Net-(U132001D--)*%
X217966000Y-225950000D03*
X215666000Y-226350000D03*
%TO.N,Net-(U133001D--)*%
X216036000Y-191400000D03*
X218336000Y-191000000D03*
%TO.N,/InNeuron_5/Adder3/SUM_IN*%
X214066000Y-269400000D03*
X246487700Y-257079800D03*
X218364600Y-285945400D03*
X236366000Y-262400000D03*
X236466000Y-279900000D03*
X219066000Y-262800000D03*
X219266000Y-244900000D03*
X219266000Y-280200000D03*
X218505400Y-250163100D03*
X236466000Y-244800000D03*
%TO.N,Net-(U134001D--)*%
X232471000Y-225875000D03*
X234771000Y-225475000D03*
%TO.N,Net-(U135001D--)*%
X231971000Y-208475000D03*
X234271000Y-208075000D03*
%TO.N,Net-(U136001D--)*%
X234471000Y-190975000D03*
X232171000Y-191375000D03*
%TO.N,Net-(U138001D--)*%
X217966000Y-262700000D03*
X215666000Y-263100000D03*
%TO.N,Net-(U140001D--)*%
X215866000Y-280500000D03*
X218166000Y-280100000D03*
%TO.N,Net-(U141001D--)*%
X215866000Y-245200000D03*
X218166000Y-244800000D03*
%TO.N,/InNeuron_6/Adder3/SUM_IN*%
X235731000Y-299205000D03*
X219131000Y-335005000D03*
X219066000Y-316705000D03*
X236296000Y-334830000D03*
X218473400Y-339854300D03*
X218519200Y-304033300D03*
X214430700Y-322456400D03*
X219231000Y-299405000D03*
X236001000Y-316380000D03*
X245617800Y-311182100D03*
%TO.N,Net-(U142001D--)*%
X233066000Y-280200000D03*
X235366000Y-279800000D03*
%TO.N,Net-(U143001D--)*%
X235266000Y-262300000D03*
X232966000Y-262700000D03*
%TO.N,Net-(U145001D--)*%
X235366000Y-244700000D03*
X233066000Y-245100000D03*
%TO.N,Net-(U147001D--)*%
X215666000Y-317005000D03*
X217966000Y-316605000D03*
%TO.N,Net-(U149001D--)*%
X218031000Y-334905000D03*
X215731000Y-335305000D03*
%TO.N,Net-(U179001D--)*%
X215831000Y-299705000D03*
X218131000Y-299305000D03*
%TO.N,Net-(U180001D--)*%
X232896000Y-335130000D03*
X235196000Y-334730000D03*
%TO.N,Net-(U181001D--)*%
X234901000Y-316280000D03*
X232601000Y-316680000D03*
%TO.N,Net-(U182001D--)*%
X232331000Y-299505000D03*
X234631000Y-299105000D03*
%TO.N,/CS*%
X42808600Y-34342900D03*
X102442100Y-35044500D03*
%TO.N,/SCK*%
X84941100Y-108223200D03*
D13*
X105300000Y-282600000D03*
D12*
X80229800Y-331601900D03*
X138257800Y-246435300D03*
X84934100Y-113363500D03*
D13*
X137300000Y-176000000D03*
D12*
X41105500Y-282150600D03*
X79234300Y-323198300D03*
X137517200Y-312706800D03*
X81990500Y-142005900D03*
X109268400Y-94274900D03*
X137558400Y-303960000D03*
D13*
X142900000Y-166600000D03*
D12*
X81739100Y-123427600D03*
D13*
X105457000Y-278463000D03*
D12*
X112896000Y-105431000D03*
X41231100Y-263944700D03*
X137849300Y-257348400D03*
X106450000Y-38434900D03*
X109446300Y-113938200D03*
X41231100Y-276689300D03*
X111304000Y-246018100D03*
%TO.N,/MOSI*%
X172773900Y-128736000D03*
X61559500Y-270578200D03*
X37480800Y-258224700D03*
X111839400Y-189607800D03*
X140833300Y-237576700D03*
X169799400Y-103921100D03*
X108114600Y-218383400D03*
X109787200Y-185132600D03*
X80988500Y-270185900D03*
X84001300Y-124122800D03*
X61426700Y-262524800D03*
X109449100Y-95415700D03*
X107450000Y-38425600D03*
X109474100Y-123018400D03*
X84443100Y-217885000D03*
X84419000Y-203318500D03*
X172083900Y-156358300D03*
X109507600Y-204437800D03*
X37412400Y-293840500D03*
X83571900Y-278002100D03*
X169804400Y-98982900D03*
X140833600Y-269924400D03*
X109122700Y-143647600D03*
X141044300Y-205951400D03*
X149672100Y-109351900D03*
X41031100Y-312590100D03*
X140933600Y-230837700D03*
X84126000Y-206513300D03*
X40889900Y-319385000D03*
X83718600Y-259235000D03*
X140743200Y-266039500D03*
X149800700Y-98428700D03*
%TO.N,/S0*%
X21991900Y-42137900D03*
X54204900Y-64343200D03*
X60602700Y-33049700D03*
X22548400Y-65789800D03*
X61010700Y-54481000D03*
X60560700Y-36857900D03*
X113120400Y-37310100D03*
X60394700Y-43837600D03*
X21843200Y-75110500D03*
X56916400Y-22666200D03*
X22910200Y-54663200D03*
%TO.N,/S1*%
X26082800Y-23113900D03*
X22299200Y-88622600D03*
X22771000Y-45085600D03*
X55479200Y-54212200D03*
X113489700Y-36148800D03*
X25689900Y-33999100D03*
X21867700Y-78264900D03*
X58139300Y-24808000D03*
%TO.N,/S2*%
X70357500Y-32619900D03*
X28353500Y-78387800D03*
X66410100Y-66965300D03*
X31493000Y-35785700D03*
X65929700Y-47204700D03*
X32870000Y-66586400D03*
X114521100Y-34023900D03*
X30916900Y-89939800D03*
X32889500Y-44849900D03*
X30762400Y-58099500D03*
%TO.N,/S3*%
X32916000Y-23926400D03*
X32919100Y-34649100D03*
X31649000Y-46560200D03*
X31663400Y-57445400D03*
X64256400Y-24100700D03*
X66410100Y-56294200D03*
X113603200Y-34045500D03*
X64747200Y-34542100D03*
X66093400Y-45907500D03*
%TO.N,/S4*%
X111839400Y-38711400D03*
X40116100Y-40056700D03*
%TO.N,/S5*%
X114157100Y-32750000D03*
X110192900Y-33455600D03*
X39722800Y-40896400D03*
%TO.N,/S7*%
X115097400Y-32421200D03*
X46787300Y-41955800D03*
%TO.N,/VariableWeights/CS117*%
X62179600Y-92337000D03*
X63611200Y-35104400D03*
%TO.N,/VariableWeights/CS118*%
X62941400Y-100097600D03*
X68731900Y-30024800D03*
%TO.N,/VariableWeights/CS119*%
X62934300Y-105432600D03*
X68731900Y-31992800D03*
%TO.N,/VariableWeights/CS1110*%
X63654300Y-33094300D03*
X60743900Y-111081100D03*
%TO.N,/VariableWeights/CS1111*%
X59009700Y-118491700D03*
X58232800Y-45589200D03*
%TO.N,/VariableWeights/CS1112*%
X60947600Y-42411600D03*
X60493900Y-124794100D03*
%TO.N,/VariableWeights/CS127*%
X59387900Y-133685700D03*
X56735100Y-45348600D03*
%TO.N,/VariableWeights/CS128*%
X62318300Y-43330700D03*
X59178800Y-140509500D03*
%TO.N,/VariableWeights/CS129*%
X59581700Y-146388100D03*
X60770300Y-40619500D03*
%TO.N,/VariableWeights/CS1210*%
X62602000Y-152811100D03*
X62411200Y-39914300D03*
%TO.N,/VariableWeights/CS1211*%
X56918400Y-39368800D03*
X58028400Y-160336300D03*
%TO.N,/VariableWeights/CS1212*%
X59895200Y-165756000D03*
X55977700Y-39057100D03*
%TO.N,/VariableWeights/CS137*%
X64720400Y-37402800D03*
X65930600Y-173398500D03*
%TO.N,/VariableWeights/CS138*%
X62952300Y-180262300D03*
X64396700Y-39368800D03*
%TO.N,/VariableWeights/CS139*%
X60535000Y-186875600D03*
X61128400Y-39368800D03*
%TO.N,/VariableWeights/CS1310*%
X69578500Y-43140500D03*
X63380600Y-193894500D03*
%TO.N,/VariableWeights/CS1311*%
X64118300Y-40879900D03*
X60863000Y-199718100D03*
%TO.N,/VariableWeights/CS1312*%
X63380600Y-206801900D03*
X69578500Y-41203100D03*
%TO.N,/VariableWeights/CS147*%
X68523700Y-45348600D03*
X59552700Y-214444300D03*
X59551700Y-45907500D03*
%TO.N,/VariableWeights/CS148*%
X61452600Y-220714800D03*
X64755200Y-43363700D03*
%TO.N,/VariableWeights/CS149*%
X56184300Y-57615200D03*
X59895200Y-227516300D03*
X57808800Y-142402900D03*
%TO.N,/VariableWeights/CS1411*%
X58751200Y-241667600D03*
X54941900Y-52705200D03*
%TO.N,/VariableWeights/CS1412*%
X59168100Y-246685100D03*
X55062100Y-56887900D03*
%TO.N,/VariableWeights/CS158*%
X55441500Y-50075000D03*
X57885200Y-262544600D03*
%TO.N,/VariableWeights/CS159*%
X54784000Y-50948200D03*
X58231800Y-269523600D03*
%TO.N,/VariableWeights/CS1510*%
X58231800Y-275737500D03*
X57169500Y-48775000D03*
%TO.N,/VariableWeights/CS1511*%
X61440100Y-281871400D03*
X68398900Y-49823400D03*
X64456800Y-50132100D03*
%TO.N,/VariableWeights/CS1512*%
X61426700Y-288116400D03*
X64774300Y-48611700D03*
%TO.N,/VariableWeights/CS167*%
X61551100Y-295833100D03*
X69751300Y-50671900D03*
%TO.N,/VariableWeights/CS168*%
X59052600Y-301674600D03*
X63852900Y-51644200D03*
%TO.N,/VariableWeights/CS169*%
X61426700Y-307788700D03*
X67755200Y-51419400D03*
%TO.N,/VariableWeights/CS1610*%
X61006300Y-315538500D03*
X61911100Y-52025000D03*
%TO.N,/VariableWeights/CS1611*%
X61911100Y-53385100D03*
X61009200Y-321736900D03*
%TO.N,/VariableWeights/CS1612*%
X61911100Y-54517500D03*
X61007700Y-328386400D03*
%TO.N,/VariableWeights/CS111*%
X42630200Y-59071700D03*
X39717200Y-93181600D03*
%TO.N,/VariableWeights/CS112*%
X53089500Y-59825000D03*
X41546400Y-100558300D03*
%TO.N,/VariableWeights/CS113*%
X42215500Y-106954700D03*
X56169100Y-60475000D03*
%TO.N,/VariableWeights/CS114*%
X47215500Y-61125000D03*
X38299000Y-112513900D03*
%TO.N,/VariableWeights/CS115*%
X44539400Y-118475000D03*
X53215100Y-61886800D03*
%TO.N,/VariableWeights/CS116*%
X56124100Y-62425000D03*
X51679400Y-125546100D03*
%TO.N,/VariableWeights/CS121*%
X38720100Y-134383800D03*
X53252700Y-63137500D03*
%TO.N,/VariableWeights/CS122*%
X39375000Y-141092700D03*
X45746600Y-63642800D03*
%TO.N,/VariableWeights/CS123*%
X61546000Y-58846300D03*
X42193200Y-148298700D03*
%TO.N,/VariableWeights/CS124*%
X61546100Y-59785900D03*
X41106100Y-154358500D03*
%TO.N,/VariableWeights/CS125*%
X61546100Y-60777800D03*
X40882800Y-161197200D03*
%TO.N,/VariableWeights/CS126*%
X64201600Y-61125000D03*
X39540000Y-62803700D03*
X38430800Y-166383000D03*
%TO.N,/VariableWeights/CS131*%
X40908600Y-176277100D03*
X61188000Y-62736200D03*
%TO.N,/VariableWeights/CS132*%
X64198000Y-62425000D03*
X54605400Y-182254900D03*
%TO.N,/VariableWeights/CS133*%
X41131100Y-189145400D03*
X61449200Y-64711800D03*
%TO.N,/VariableWeights/CS134*%
X48817900Y-66711100D03*
X40206600Y-194939100D03*
%TO.N,/VariableWeights/CS135*%
X31625000Y-200188300D03*
X39169700Y-201117300D03*
X27654200Y-85527300D03*
%TO.N,/VariableWeights/CS136*%
X38285700Y-207728300D03*
X34815500Y-146675200D03*
X26422800Y-82624900D03*
%TO.N,/VariableWeights/CS141*%
X22299200Y-82624900D03*
X38282600Y-215538500D03*
X24640900Y-214136500D03*
%TO.N,/VariableWeights/CS142*%
X26872600Y-220114300D03*
X26341000Y-84618700D03*
X38274100Y-221997200D03*
%TO.N,/VariableWeights/CS143*%
X27841100Y-86666400D03*
X31996300Y-228084700D03*
X40353200Y-227966300D03*
%TO.N,/VariableWeights/CS144*%
X27100900Y-235645000D03*
X22406300Y-86239800D03*
%TO.N,/VariableWeights/CS145*%
X34208900Y-90595300D03*
X37689000Y-242232900D03*
%TO.N,/VariableWeights/CS146*%
X34415700Y-248010700D03*
X25755500Y-89076500D03*
%TO.N,/VariableWeights/CS151*%
X34671500Y-82737600D03*
X37889000Y-255981100D03*
%TO.N,/VariableWeights/CS152*%
X36272500Y-82822500D03*
X37889000Y-262544600D03*
%TO.N,/VariableWeights/CS153*%
X36168400Y-84533100D03*
X37889000Y-268671600D03*
%TO.N,/VariableWeights/CS154*%
X39021600Y-274817100D03*
X37144100Y-85326200D03*
%TO.N,/VariableWeights/CS155*%
X38255400Y-281360500D03*
X35727300Y-86610100D03*
%TO.N,/VariableWeights/CS156*%
X32970000Y-85481900D03*
X37412400Y-287862700D03*
%TO.N,/VariableWeights/CS161*%
X36791600Y-88410200D03*
X38820400Y-296658200D03*
%TO.N,/VariableWeights/CS162*%
X37412400Y-303803500D03*
X33571000Y-88602700D03*
%TO.N,/VariableWeights/CS163*%
X27501900Y-71697900D03*
X37412400Y-309781300D03*
%TO.N,/VariableWeights/CS164*%
X36240200Y-315759100D03*
X21195600Y-72339800D03*
%TO.N,/VariableWeights/CS165*%
X37412400Y-323729500D03*
X27501900Y-72989800D03*
%TO.N,/VariableWeights/CS166*%
X36826300Y-329707300D03*
X27265300Y-76392000D03*
%TO.N,/VariableWeights/CS211*%
X81754500Y-92587900D03*
X78175400Y-77302600D03*
X25941200Y-74289800D03*
%TO.N,/VariableWeights/CS212*%
X82187100Y-98629300D03*
X26570900Y-74939800D03*
X31254300Y-98669700D03*
%TO.N,/VariableWeights/CS213*%
X76399700Y-77949600D03*
X80269600Y-106489400D03*
X25918900Y-75689900D03*
%TO.N,/VariableWeights/CS214*%
X22961600Y-111706400D03*
X80262800Y-112855400D03*
X22299200Y-76370100D03*
%TO.N,/VariableWeights/CS215*%
X82503200Y-117723100D03*
X79769700Y-72266700D03*
X34504600Y-72266700D03*
%TO.N,/VariableWeights/CS216*%
X80921500Y-73043000D03*
X32912800Y-72339800D03*
X82833000Y-124243600D03*
%TO.N,/VariableWeights/CS221*%
X83158200Y-132861500D03*
X33043000Y-73264700D03*
X76399700Y-76647100D03*
%TO.N,/VariableWeights/CS222*%
X77528600Y-74080600D03*
X34573900Y-74080600D03*
X80058500Y-140464200D03*
%TO.N,/VariableWeights/CS223*%
X82176600Y-145359100D03*
X34535000Y-75416700D03*
X34878000Y-145359100D03*
%TO.N,/VariableWeights/CS224*%
X32914300Y-74939800D03*
X73397500Y-74939800D03*
X82690600Y-152230500D03*
%TO.N,/VariableWeights/CS225*%
X28353500Y-77032200D03*
X82912800Y-157985800D03*
X78718600Y-81127500D03*
%TO.N,/VariableWeights/CS226*%
X77852800Y-78878800D03*
X32938400Y-76505800D03*
X82943400Y-164822900D03*
%TO.N,/VariableWeights/CS231*%
X26085700Y-61427500D03*
X81690300Y-174284500D03*
X26899800Y-174023800D03*
%TO.N,/VariableWeights/CS232*%
X22894400Y-61174000D03*
X22336300Y-179347500D03*
X81535700Y-182001800D03*
%TO.N,/VariableWeights/CS233*%
X82491800Y-187118600D03*
X27452300Y-65333200D03*
X76088800Y-67184800D03*
%TO.N,/VariableWeights/CS234*%
X80712000Y-194195100D03*
X27220300Y-64391200D03*
X73397500Y-65613900D03*
%TO.N,/VariableWeights/CS235*%
X26085700Y-63824200D03*
X72831400Y-63708900D03*
X80696500Y-200188300D03*
%TO.N,/VariableWeights/CS236*%
X26234000Y-67630700D03*
X82925000Y-206442200D03*
X27550800Y-206266400D03*
%TO.N,/VariableWeights/CS261*%
X28278800Y-51219400D03*
X80331700Y-296488400D03*
X28674700Y-292198200D03*
%TO.N,/VariableWeights/CS262*%
X26218400Y-56346900D03*
X74723500Y-56555500D03*
X80249400Y-303485700D03*
%TO.N,/VariableWeights/CS263*%
X22906700Y-52251100D03*
X80347600Y-309699600D03*
X28083900Y-306193000D03*
%TO.N,/VariableWeights/CS264*%
X27250600Y-312235000D03*
X22895100Y-53169400D03*
X81102800Y-315322600D03*
%TO.N,/VariableWeights/CS266*%
X25951000Y-53285000D03*
X75343600Y-57262600D03*
X81545600Y-328219500D03*
%TO.N,/VariableWeights/CS251*%
X38709900Y-253988500D03*
X80980300Y-255981100D03*
X35430600Y-63622300D03*
%TO.N,/VariableWeights/CS252*%
X32563000Y-259966300D03*
X33074900Y-64486200D03*
X82690600Y-261353400D03*
%TO.N,/VariableWeights/CS253*%
X72495100Y-70281500D03*
X81440000Y-268671600D03*
X27501900Y-66965300D03*
%TO.N,/VariableWeights/CS254*%
X38129800Y-271921900D03*
X80748500Y-275907100D03*
X35593500Y-65449900D03*
%TO.N,/VariableWeights/CS255*%
X28176200Y-279892300D03*
X27071800Y-49919400D03*
X80932000Y-281884900D03*
%TO.N,/VariableWeights/CS256*%
X29194400Y-51223800D03*
X80744500Y-288785400D03*
X29436000Y-285870100D03*
%TO.N,/VariableWeights/CS241*%
X24600800Y-212143900D03*
X26251200Y-66714000D03*
X82094200Y-214514200D03*
%TO.N,/VariableWeights/CS242*%
X75774400Y-66239200D03*
X80696500Y-220114300D03*
X25900900Y-65580500D03*
%TO.N,/VariableWeights/CS243*%
X81407400Y-228084700D03*
X33869300Y-226040200D03*
X32899900Y-60804600D03*
%TO.N,/VariableWeights/CS244*%
X33559000Y-61454600D03*
X75378000Y-64988600D03*
X82866400Y-233881000D03*
%TO.N,/VariableWeights/CS245*%
X34496500Y-240339400D03*
X32941300Y-62542800D03*
X82925000Y-240339400D03*
%TO.N,/VariableWeights/CS246*%
X35163700Y-62368100D03*
X82925000Y-246769600D03*
X37451700Y-244025500D03*
%TO.N,/VariableWeights/CS311*%
X95911000Y-48180300D03*
X33130100Y-49358200D03*
X100271100Y-92587900D03*
%TO.N,/VariableWeights/CS312*%
X32917900Y-50395600D03*
X110076100Y-54728500D03*
X110158100Y-98533900D03*
%TO.N,/VariableWeights/CS313*%
X39050700Y-105072700D03*
X109633900Y-106536100D03*
X38820400Y-51457700D03*
%TO.N,/VariableWeights/CS314*%
X32909000Y-51869400D03*
X106702500Y-55332400D03*
X109446300Y-112513900D03*
%TO.N,/VariableWeights/CS315*%
X39872100Y-52302600D03*
X108836200Y-55048600D03*
X110932500Y-117969800D03*
%TO.N,/VariableWeights/CS316*%
X109766600Y-124469500D03*
X41281100Y-121156200D03*
X39248200Y-52978300D03*
%TO.N,/VariableWeights/CS321*%
X109128300Y-132439900D03*
X104967600Y-56721100D03*
X32877600Y-54424900D03*
%TO.N,/VariableWeights/CS322*%
X30111300Y-54733100D03*
X110021900Y-138932300D03*
X31534600Y-139282600D03*
%TO.N,/VariableWeights/CS323*%
X109128300Y-146388100D03*
X104787700Y-42821900D03*
X27077700Y-39510400D03*
%TO.N,/VariableWeights/CS324*%
X30000700Y-145151300D03*
X26155300Y-39488200D03*
X109317800Y-152564400D03*
%TO.N,/VariableWeights/CS325*%
X25690100Y-40334300D03*
X109652700Y-158430600D03*
X26105800Y-158430600D03*
%TO.N,/VariableWeights/CS326*%
X110021900Y-164778300D03*
X25736500Y-42900000D03*
X26761000Y-164778300D03*
%TO.N,/VariableWeights/CS331*%
X109968200Y-173131800D03*
X22911200Y-41898100D03*
X26369400Y-171038700D03*
%TO.N,/VariableWeights/CS332*%
X107109300Y-43561700D03*
X25676800Y-41999600D03*
X110608000Y-179677600D03*
%TO.N,/VariableWeights/CS333*%
X111700500Y-185361500D03*
X22820900Y-43373000D03*
X110754500Y-46228300D03*
%TO.N,/VariableWeights/CS334*%
X110959300Y-192535300D03*
X108869500Y-52735900D03*
X26077300Y-44765500D03*
%TO.N,/VariableWeights/CS335*%
X109275700Y-198969100D03*
X35118400Y-39034300D03*
X106630800Y-39334500D03*
%TO.N,/VariableWeights/CS336*%
X90483600Y-38042800D03*
X108470600Y-206164500D03*
X33542400Y-39684300D03*
%TO.N,/VariableWeights/CS341*%
X32879700Y-40334300D03*
X104040100Y-42138600D03*
X108114600Y-214573400D03*
%TO.N,/VariableWeights/CS342*%
X108070600Y-221103700D03*
X91813800Y-41626800D03*
X34426800Y-40984300D03*
%TO.N,/VariableWeights/CS343*%
X90355200Y-40779400D03*
X108070600Y-227893800D03*
X35985400Y-41599400D03*
%TO.N,/VariableWeights/CS344*%
X41055600Y-231788500D03*
X108823700Y-233401700D03*
X33130100Y-41959300D03*
%TO.N,/VariableWeights/CS345*%
X108470600Y-46872600D03*
X34432600Y-42958900D03*
X110138500Y-239838400D03*
%TO.N,/VariableWeights/CS346*%
X109023400Y-246310000D03*
X32914300Y-43584300D03*
X105507100Y-44760400D03*
%TO.N,/VariableWeights/CS351*%
X110827900Y-255981100D03*
X25710200Y-28149100D03*
X104314900Y-28509200D03*
%TO.N,/VariableWeights/CS352*%
X22915300Y-28799100D03*
X107784400Y-261958900D03*
X29694900Y-261919300D03*
%TO.N,/VariableWeights/CS353*%
X23682100Y-268235200D03*
X22292400Y-31032500D03*
X109025000Y-268235200D03*
%TO.N,/VariableWeights/CS354*%
X25306400Y-274146100D03*
X22917800Y-30334700D03*
X107087700Y-275907100D03*
%TO.N,/VariableWeights/CS355*%
X108899600Y-281142600D03*
X26855800Y-30817300D03*
X31312300Y-279306600D03*
%TO.N,/VariableWeights/CS356*%
X30572700Y-287198800D03*
X107784400Y-287198800D03*
X26547600Y-31842600D03*
%TO.N,/VariableWeights/CS361*%
X27937400Y-33014000D03*
X79137600Y-32957700D03*
X92056200Y-295833100D03*
%TO.N,/VariableWeights/CS362*%
X92661100Y-32369900D03*
X108725000Y-301992700D03*
X25687200Y-32699100D03*
%TO.N,/VariableWeights/CS363*%
X42392200Y-305347900D03*
X107951100Y-307975000D03*
X34832200Y-28455900D03*
%TO.N,/VariableWeights/CS364*%
X32889500Y-28773700D03*
X106619800Y-315759100D03*
X77754700Y-28822900D03*
%TO.N,/VariableWeights/CS365*%
X106619800Y-321736900D03*
X33488500Y-29423500D03*
X83052100Y-29830200D03*
%TO.N,/VariableWeights/CS366*%
X89083600Y-30375100D03*
X107555600Y-327714700D03*
X34120300Y-30099100D03*
%TO.N,/VariableWeights/CS411*%
X140236300Y-90009600D03*
X37508900Y-84015700D03*
X33464800Y-30736700D03*
%TO.N,/VariableWeights/CS412*%
X139294400Y-32809900D03*
X142870400Y-98629300D03*
X32883300Y-31399100D03*
%TO.N,/VariableWeights/CS413*%
X138340500Y-33514300D03*
X36826300Y-31858000D03*
X140876000Y-104145500D03*
%TO.N,/VariableWeights/CS414*%
X34706000Y-32699100D03*
X37729000Y-109779400D03*
X139294400Y-111107000D03*
%TO.N,/VariableWeights/CS415*%
X136436800Y-15512900D03*
X25690300Y-17146600D03*
X137859900Y-117777800D03*
%TO.N,/VariableWeights/CS416*%
X140721100Y-123883700D03*
X140519500Y-16869100D03*
X22921300Y-17766700D03*
%TO.N,/VariableWeights/CS421*%
X138966000Y-132439900D03*
X26604100Y-20484200D03*
X138966000Y-20359100D03*
%TO.N,/VariableWeights/CS422*%
X26072600Y-19622900D03*
X31388000Y-137861400D03*
X139650200Y-138089800D03*
%TO.N,/VariableWeights/CS423*%
X139650200Y-145114600D03*
X134413700Y-16241100D03*
X22917800Y-19332400D03*
%TO.N,/VariableWeights/CS424*%
X138096800Y-152458500D03*
X22897600Y-21108200D03*
X123620800Y-28751700D03*
%TO.N,/VariableWeights/CS425*%
X25301400Y-156890600D03*
X25690900Y-21014900D03*
X140597600Y-158082100D03*
%TO.N,/VariableWeights/CS426*%
X25956900Y-21942700D03*
X141232400Y-25058200D03*
X139728300Y-163853000D03*
%TO.N,/VariableWeights/CS431*%
X138063800Y-174921300D03*
X122939800Y-16869100D03*
X32883400Y-17115800D03*
%TO.N,/VariableWeights/CS432*%
X32943500Y-18025900D03*
X139380400Y-179695700D03*
X135385900Y-24259800D03*
%TO.N,/VariableWeights/CS433*%
X138302000Y-187126000D03*
X39532800Y-18406800D03*
X132543100Y-15969400D03*
%TO.N,/VariableWeights/CS434*%
X139063300Y-192946900D03*
X132000800Y-23474400D03*
X37039200Y-20813100D03*
%TO.N,/VariableWeights/CS435*%
X34999600Y-21006800D03*
X135062400Y-22930500D03*
X138555800Y-199718100D03*
%TO.N,/VariableWeights/CS436*%
X133262800Y-28106900D03*
X138439800Y-206325400D03*
X32940700Y-21003000D03*
%TO.N,/VariableWeights/CS441*%
X138665400Y-214567800D03*
X30088400Y-21163900D03*
X136373600Y-24623700D03*
%TO.N,/VariableWeights/CS442*%
X122742000Y-25053400D03*
X35388300Y-22909000D03*
X138393400Y-220871400D03*
%TO.N,/VariableWeights/CS443*%
X133042100Y-19402500D03*
X63957300Y-17494900D03*
X138701200Y-227538900D03*
%TO.N,/VariableWeights/CS444*%
X134215800Y-17618500D03*
X60552100Y-17793300D03*
X140450600Y-233969600D03*
%TO.N,/VariableWeights/CS445*%
X66778300Y-237700400D03*
X138602200Y-240370300D03*
X64316300Y-18875000D03*
%TO.N,/VariableWeights/CS446*%
X60838800Y-19454000D03*
X139325000Y-246799300D03*
X132416800Y-18629100D03*
%TO.N,/VariableWeights/CS451*%
X136531300Y-255981100D03*
X62666400Y-20762500D03*
X122169500Y-19357900D03*
%TO.N,/VariableWeights/CS452*%
X123342300Y-20586900D03*
X60419300Y-20825000D03*
X138975100Y-262328100D03*
%TO.N,/VariableWeights/CS453*%
X137724500Y-22301800D03*
X139953000Y-268767000D03*
X61187000Y-21608500D03*
%TO.N,/VariableWeights/CS454*%
X121136400Y-28851100D03*
X60125000Y-24790400D03*
X136531300Y-275907100D03*
%TO.N,/VariableWeights/CS455*%
X136531300Y-281884900D03*
X67594300Y-17575000D03*
X116590300Y-17494500D03*
%TO.N,/VariableWeights/CS456*%
X107404600Y-18249600D03*
X68227200Y-18264000D03*
X138099600Y-287437100D03*
%TO.N,/VariableWeights/CS461*%
X68885900Y-18875000D03*
X138759400Y-295414600D03*
X105981500Y-295414600D03*
%TO.N,/VariableWeights/CS462*%
X137516000Y-302695000D03*
X65280400Y-301479400D03*
X64488000Y-20161100D03*
%TO.N,/VariableWeights/CS463*%
X68731900Y-20111500D03*
X140519500Y-307820300D03*
X118171700Y-19356600D03*
%TO.N,/VariableWeights/CS464*%
X140652500Y-315775300D03*
X123345400Y-21446900D03*
X73324000Y-21416000D03*
%TO.N,/VariableWeights/CS465*%
X72437500Y-21475000D03*
X75358600Y-320346100D03*
X137525900Y-321736900D03*
%TO.N,/VariableWeights/CS466*%
X138775200Y-327681100D03*
X120175900Y-23569100D03*
X68491100Y-23735000D03*
%TO.N,/VariableWeights/CS511*%
X169088400Y-94260000D03*
X169088400Y-31333500D03*
X62759400Y-28364500D03*
%TO.N,/VariableWeights/CS512*%
X63894200Y-27511400D03*
X169610900Y-100558300D03*
X67383000Y-97798500D03*
%TO.N,/VariableWeights/CS513*%
X63545900Y-98044400D03*
X61047800Y-29755500D03*
X169814100Y-106536100D03*
%TO.N,/VariableWeights/CS514*%
X165593100Y-35651400D03*
X62406300Y-32967800D03*
X169896700Y-112317600D03*
%TO.N,/VariableWeights/CS515*%
X57427900Y-27895700D03*
X160460500Y-30172900D03*
X171100000Y-119242900D03*
%TO.N,/VariableWeights/CS516*%
X160007100Y-39659300D03*
X169335200Y-126143100D03*
X66672300Y-36729300D03*
%TO.N,/VariableWeights/CS522*%
X159092700Y-38787700D03*
X168995600Y-140340600D03*
X57966000Y-35219400D03*
%TO.N,/VariableWeights/CS523*%
X168382100Y-146388100D03*
X66440800Y-25880600D03*
X168382100Y-25690600D03*
%TO.N,/VariableWeights/CS524*%
X68731900Y-28423800D03*
X168836200Y-154358500D03*
X71161100Y-154986400D03*
%TO.N,/VariableWeights/CS525*%
X170350000Y-160112100D03*
X70726500Y-29225300D03*
X171050400Y-30700000D03*
%TO.N,/VariableWeights/CS526*%
X169528100Y-166588100D03*
X66900900Y-165135600D03*
X64057200Y-29930000D03*
%TO.N,/VariableWeights/WeightCtrlChipSel/MUX7*%
X36826300Y-16438400D03*
X39549700Y-35475000D03*
%TO.N,/VariableWeights/WeightCtrlChipSel/MUX3*%
X26085700Y-60176800D03*
X30844000Y-37337700D03*
%TO.N,/VariableWeights/WeightCtrlChipSel/MUX2*%
X27501900Y-70797500D03*
X43115400Y-38429500D03*
%TO.N,/VariableWeights/WeightCtrlChipSel/MUX1*%
X26258100Y-37900500D03*
X22299200Y-80632300D03*
%TO.N,/VariableWeights/WeightCtrlChipSel/MUX0*%
X46796800Y-58404500D03*
X43430500Y-40378500D03*
%TO.N,/VariableWeights/WeightCtrlChipSel/MUX8*%
X56767300Y-16659500D03*
X54070400Y-35475000D03*
%TD*%
D14*
%TO.N,/InNeuron_1/OUT*%
X276983900Y-93728900D02*
X276983900Y-40798000D01*
X277835500Y-94580500D02*
X276983900Y-93728900D01*
%TO.N,/InNeuron_3/OUT*%
X279058500Y-281744100D02*
X279498100Y-282183700D01*
X278936100Y-300297900D02*
X278936100Y-333620000D01*
X279498100Y-282183700D02*
X279498100Y-299735900D01*
X279498100Y-299735900D02*
X278936100Y-300297900D01*
%TO.N,/Neuron6_1/OUT*%
X330473000Y-151589800D02*
X330473000Y-170635900D01*
X330372900Y-187336400D02*
X330709900Y-187673400D01*
X330709900Y-187673400D02*
X330710000Y-187673400D01*
X330710000Y-186523000D02*
X330709900Y-186523000D01*
X330768200Y-186464800D02*
X330710000Y-186523000D01*
X330709900Y-186523000D02*
X330372900Y-186860000D01*
X330372900Y-186860000D02*
X330372900Y-187336400D01*
X330768200Y-91301000D02*
X330768200Y-151294600D01*
X330473000Y-170635900D02*
X330768200Y-170931100D01*
X330710000Y-187673400D02*
X330768200Y-187731600D01*
X330768200Y-170931100D02*
X330768200Y-186464800D01*
X330768200Y-187731600D02*
X330768200Y-194608700D01*
X330768200Y-151294600D02*
X330473000Y-151589800D01*
X331279500Y-90789700D02*
X330768200Y-91301000D01*
%TO.N,/Neuron6_10/IN4*%
X334705800Y-150482900D02*
X334705800Y-184238700D01*
D15*
X336347500Y-233822500D02*
X334905500Y-233822500D01*
D14*
X334524900Y-134184800D02*
X334524900Y-150302000D01*
X336347500Y-335562500D02*
X335129600Y-334344600D01*
X335129600Y-334344600D02*
X335129600Y-306554800D01*
X334058300Y-304217100D02*
X334058300Y-285978700D01*
X335187700Y-305346400D02*
X335187600Y-305346400D01*
X334905500Y-232380500D02*
X334905500Y-184438400D01*
X334524900Y-150302000D02*
X334705800Y-150482900D01*
D15*
X334905500Y-232380500D02*
X334905500Y-233822500D01*
X334661000Y-238153500D02*
X334661000Y-238671300D01*
D14*
X335187600Y-306496800D02*
X335187700Y-306496800D01*
D15*
X334705800Y-184238700D02*
X334058300Y-184238700D01*
X334661000Y-238671300D02*
X334905500Y-238915800D01*
D14*
X335361500Y-133348200D02*
X334524900Y-134184800D01*
X335524600Y-305683300D02*
X335187700Y-305346400D01*
X335187600Y-305346400D02*
X334058300Y-304217100D01*
D15*
X334905500Y-238915800D02*
X334905500Y-285131500D01*
D14*
X334905500Y-184438400D02*
X334705800Y-184238700D01*
D15*
X334905500Y-285131500D02*
X334058300Y-285978700D01*
X334905500Y-237909000D02*
X334661000Y-238153500D01*
D14*
X335129600Y-306554800D02*
X335187600Y-306496800D01*
X335187700Y-306496800D02*
X335524600Y-306159900D01*
X335524600Y-306159900D02*
X335524600Y-305683300D01*
D15*
X334905500Y-233822500D02*
X334905500Y-237909000D01*
D14*
%TO.N,/Neuron6_10/IN5*%
X329244800Y-159119700D02*
X329244800Y-210041400D01*
X329244800Y-210041400D02*
X329825800Y-210622400D01*
X329591800Y-158772700D02*
X329244800Y-159119700D01*
%TO.N,/Neuron6_10/IN6*%
X334036100Y-319052000D02*
X332868800Y-317884700D01*
X332868800Y-317884700D02*
X332868800Y-269348700D01*
X334036000Y-194959400D02*
X334036000Y-217292600D01*
X332868800Y-269348700D02*
X334036100Y-268181400D01*
X333230600Y-167221500D02*
X333230600Y-194154000D01*
X334036100Y-166416000D02*
X333230600Y-167221500D01*
X333230600Y-194154000D02*
X334036000Y-194959400D01*
X334036000Y-217292600D02*
X334036100Y-217292600D01*
%TO.N,/Neuron6_13/IN1*%
X382178300Y-89820200D02*
X382178300Y-72137900D01*
D15*
X380983700Y-194210500D02*
X380983700Y-142063300D01*
D14*
X380843900Y-244025500D02*
X380436600Y-243618200D01*
D15*
X380983700Y-194210500D02*
X380749300Y-194210500D01*
D14*
X380436600Y-194523200D02*
X380749300Y-194210500D01*
X382178300Y-72137900D02*
X377993400Y-67953000D01*
X380436600Y-243618200D02*
X380436600Y-194523200D01*
X377993400Y-67953000D02*
X377993400Y-38962200D01*
D15*
X381061900Y-194210500D02*
X380983700Y-194210500D01*
D14*
X381403200Y-90595300D02*
X382178300Y-89820200D01*
D15*
X380983700Y-142063300D02*
X381805600Y-141241400D01*
D14*
%TO.N,/Neuron6_13/IN3*%
X382050300Y-227803100D02*
X382050300Y-278613500D01*
X381944000Y-176593300D02*
X381944000Y-227136200D01*
X380750000Y-123905500D02*
X380750000Y-73606600D01*
X382050300Y-278613500D02*
X381621500Y-279042300D01*
X381944000Y-227136200D02*
X381663700Y-227416500D01*
X380750000Y-73606600D02*
X381550300Y-72806300D01*
X381663700Y-227416500D02*
X382050300Y-227803100D01*
X381627800Y-176277100D02*
X381944000Y-176593300D01*
X381314000Y-124469500D02*
X380750000Y-123905500D01*
%TO.N,/Neuron6_10/OUT*%
X385985600Y-306500800D02*
X386155600Y-306670800D01*
X386155600Y-305854400D02*
X385985600Y-306024400D01*
X386478500Y-234872900D02*
X386219500Y-234613900D01*
X386155600Y-334245400D02*
X388141900Y-336231700D01*
X386155600Y-286113100D02*
X386155600Y-305854400D01*
X386478500Y-285790200D02*
X386478500Y-234872900D01*
X386286800Y-159003500D02*
X386431200Y-159147900D01*
X386286800Y-158527100D02*
X386286800Y-159003500D01*
X386431200Y-215071500D02*
X386431200Y-183184900D01*
X386283400Y-131762700D02*
X386431200Y-131910500D01*
X386431200Y-131910500D02*
X386431200Y-158382700D01*
X386155600Y-306670800D02*
X386155600Y-334245400D01*
X385569900Y-233369500D02*
X385569900Y-215932800D01*
X386431200Y-158382700D02*
X386286800Y-158527100D01*
X386219500Y-234019100D02*
X385569900Y-233369500D01*
X385985600Y-306024400D02*
X385985600Y-306500800D01*
X386155600Y-286113100D02*
X386478500Y-285790200D01*
X386219500Y-234613900D02*
X386219500Y-234019100D01*
X385569900Y-215932800D02*
X386431200Y-215071500D01*
X386431200Y-159147900D02*
X386431200Y-183184900D01*
%TO.N,/Neuron6_11/OUT*%
X381061900Y-209399800D02*
X381054400Y-209407300D01*
X381082200Y-243450300D02*
X381419100Y-243787200D01*
X381082100Y-244600700D02*
X381054400Y-244628400D01*
X381082100Y-243450300D02*
X381082200Y-243450300D01*
X381054400Y-243422600D02*
X381082100Y-243450300D01*
X381419100Y-244263800D02*
X381082200Y-244600700D01*
X382178300Y-105763200D02*
X382528600Y-105412900D01*
X381082200Y-244600700D02*
X381082100Y-244600700D01*
X381054400Y-209407300D02*
X381054400Y-243422600D01*
X381054400Y-244628400D02*
X381054400Y-260470000D01*
X381054400Y-260470000D02*
X381403600Y-260819200D01*
X381419100Y-243787200D02*
X381419100Y-244263800D01*
X382528600Y-56415800D02*
X381425100Y-55312300D01*
X382528600Y-105412900D02*
X382528600Y-56415800D01*
%TO.N,/Neuron6_12/OUT*%
X384960800Y-268962300D02*
X384960800Y-300165900D01*
X382582100Y-165959800D02*
X382582100Y-214933900D01*
X385550100Y-268373000D02*
X385683000Y-268240100D01*
X384648000Y-96610000D02*
X384648000Y-63655400D01*
X385683000Y-268240100D02*
X385683000Y-235626600D01*
X382582100Y-214933900D02*
X383789100Y-216140900D01*
X384836600Y-97275200D02*
X384836600Y-96798600D01*
X384648000Y-97463800D02*
X384836600Y-97275200D01*
X384933500Y-234877100D02*
X384933500Y-217285300D01*
X384933500Y-217285300D02*
X383789100Y-216140900D01*
X384648000Y-112435800D02*
X384648000Y-97463800D01*
X385683000Y-235626600D02*
X384933500Y-234877100D01*
X384960800Y-300165900D02*
X385529700Y-300734800D01*
X385550100Y-268373000D02*
X384960800Y-268962300D01*
X385529700Y-300734800D02*
X385529700Y-316974800D01*
X383763500Y-164778400D02*
X382582100Y-165959800D01*
X383580200Y-318924300D02*
X383580200Y-319981400D01*
X383788000Y-113295800D02*
X384648000Y-112435800D01*
X384836600Y-96798600D02*
X384648000Y-96610000D01*
X384648000Y-63655400D02*
X385778300Y-62525100D01*
X385529700Y-316974800D02*
X383580200Y-318924300D01*
%TO.N,/Neuron6_13/OUT*%
X435186100Y-37962600D02*
X436022900Y-38799400D01*
X436022900Y-38799400D02*
X436022900Y-123031900D01*
%TO.N,/Neuron6_14/OUT*%
X438419800Y-128647300D02*
X439825400Y-127241700D01*
X439519600Y-62322300D02*
X439519600Y-61845700D01*
X439425000Y-62416900D02*
X439519600Y-62322300D01*
X439825400Y-69551600D02*
X439425000Y-69151200D01*
X439425000Y-43991200D02*
X439368400Y-43934600D01*
X439425000Y-61751100D02*
X439425000Y-43991200D01*
X439825400Y-127241700D02*
X439825400Y-69551600D01*
X439519600Y-61845700D02*
X439425000Y-61751100D01*
X438419800Y-129667900D02*
X438419800Y-128647300D01*
X439425000Y-69151200D02*
X439425000Y-62416900D01*
%TO.N,/Neuron6_17/OUT*%
X435227400Y-89635800D02*
X434425800Y-88834200D01*
X434425800Y-88834200D02*
X434425800Y-56629300D01*
X434425800Y-56629300D02*
X435144900Y-55910200D01*
%TO.N,/Neuron6_18/OUT*%
X439337400Y-69559000D02*
X438944400Y-69166000D01*
X438425200Y-95789000D02*
X438634100Y-95580100D01*
X407728900Y-301810900D02*
X407728900Y-158255000D01*
X439337400Y-94876800D02*
X439337400Y-80543700D01*
X439337400Y-80543700D02*
X439475100Y-80406000D01*
X439337400Y-79791700D02*
X439337400Y-69559000D01*
X438425200Y-127558700D02*
X438425200Y-95789000D01*
X407728900Y-158255000D02*
X438425200Y-127558700D01*
X439475100Y-80406000D02*
X439475100Y-79929400D01*
X438634100Y-95580100D02*
X439337400Y-94876800D01*
X439475100Y-79929400D02*
X439337400Y-79791700D01*
X438944400Y-69166000D02*
X438944400Y-62084000D01*
%TO.N,/InNeuron_5/OUT*%
X278510900Y-59250000D02*
X277974600Y-58713700D01*
X277997800Y-110521300D02*
X278510900Y-110008200D01*
X278510900Y-110008200D02*
X278510900Y-59250000D01*
%TO.N,/InNeuron_6/OUT*%
X281327200Y-104060700D02*
X281206000Y-103939500D01*
X281206000Y-67324000D02*
X282336100Y-66193900D01*
X281206000Y-103939500D02*
X281206000Y-67324000D01*
X281327200Y-104537300D02*
X281327200Y-104060700D01*
X281206000Y-104658500D02*
X281327200Y-104537300D01*
X280352600Y-116971000D02*
X281206000Y-116117600D01*
X281206000Y-116117600D02*
X281206000Y-104658500D01*
%TO.N,/L1_IN1*%
X211408100Y-86232100D02*
X211408100Y-67715400D01*
X210303900Y-232881200D02*
X210304000Y-232881200D01*
X210303900Y-231730800D02*
X209966900Y-232067800D01*
X211030100Y-86610100D02*
X211408100Y-86232100D01*
X210362700Y-209499300D02*
X210362700Y-231672100D01*
X211525700Y-202586000D02*
X211458400Y-202653300D01*
X210304000Y-231730800D02*
X210303900Y-231730800D01*
X211458400Y-202042100D02*
X211525700Y-202109400D01*
X210362700Y-232939900D02*
X210362700Y-244164200D01*
X211458400Y-192217900D02*
X211458400Y-202042100D01*
X210362700Y-231672100D02*
X210304000Y-231730800D01*
X211408100Y-67715400D02*
X210869300Y-67176600D01*
X211458400Y-202653300D02*
X211458400Y-208403600D01*
X209966900Y-232067800D02*
X209966900Y-232544200D01*
X210869300Y-67176600D02*
X210869300Y-33366200D01*
X210362700Y-244164200D02*
X211763000Y-245564500D01*
X211458400Y-208403600D02*
X210362700Y-209499300D01*
X209966900Y-232544200D02*
X210303900Y-232881200D01*
X211525700Y-202109400D02*
X211525700Y-202586000D01*
X210304000Y-232881200D02*
X210362700Y-232939900D01*
%TO.N,/L1_IN2*%
X216602600Y-303613800D02*
X216602600Y-249174700D01*
X216602600Y-249174700D02*
X216662300Y-249115000D01*
X215911000Y-303613800D02*
X216602600Y-303613800D01*
X172862600Y-203425000D02*
X173825000Y-204387400D01*
X173825000Y-204387400D02*
X173825000Y-261527800D01*
X172725000Y-203425000D02*
X172862600Y-203425000D01*
X173825000Y-261527800D02*
X215911000Y-303613800D01*
X172725000Y-202325000D02*
X172725000Y-203425000D01*
%TO.N,/L1_IN3*%
X213543500Y-185079200D02*
X213543400Y-185079200D01*
X213543500Y-186229600D02*
X213880400Y-185892700D01*
X213543400Y-186229600D02*
X213543500Y-186229600D01*
X213481400Y-206876100D02*
X213481400Y-186291600D01*
X213131100Y-184666900D02*
X213131100Y-158539000D01*
X213131100Y-158539000D02*
X210855000Y-156262900D01*
X209260200Y-102991400D02*
X209260200Y-51443300D01*
X211390000Y-208967500D02*
X213481400Y-206876100D01*
X210642300Y-104373500D02*
X209260200Y-102991400D01*
X211390000Y-210089900D02*
X211390000Y-208967500D01*
X213880400Y-185892700D02*
X213880400Y-185416100D01*
X209260200Y-51443300D02*
X210103500Y-50600000D01*
X213543400Y-185079200D02*
X213131100Y-184666900D01*
X213481400Y-186291600D02*
X213543400Y-186229600D01*
X213880400Y-185416100D02*
X213543500Y-185079200D01*
%TO.N,/L1_IN4*%
X217318300Y-219734000D02*
X217318400Y-219734000D01*
X217340600Y-219756200D02*
X217340600Y-273520400D01*
X217318400Y-218583600D02*
X217318300Y-218583600D01*
X217340600Y-274001000D02*
X217340600Y-320227700D01*
X217318300Y-218583600D02*
X216981300Y-218920600D01*
X217338500Y-273522500D02*
X217338500Y-273998900D01*
X217340600Y-320227700D02*
X216433600Y-321134700D01*
X217338500Y-273998900D02*
X217340600Y-274001000D01*
X217318400Y-219734000D02*
X217340600Y-219756200D01*
X216764500Y-212903900D02*
X217340600Y-213480000D01*
X217340600Y-213480000D02*
X217340600Y-218561400D01*
X216981300Y-219397000D02*
X217318300Y-219734000D01*
X217340600Y-218561400D02*
X217318400Y-218583600D01*
X217340600Y-273520400D02*
X217338500Y-273522500D01*
X216981300Y-218920600D02*
X216981300Y-219397000D01*
%TO.N,/L1_IN5*%
X210313000Y-174169000D02*
X210313000Y-207745300D01*
X210313000Y-207745300D02*
X208113300Y-209945000D01*
%TO.N,/L1_IN6*%
X213379300Y-209374400D02*
X214730500Y-208023200D01*
D15*
X213656500Y-174539800D02*
X214730500Y-175613800D01*
X214858100Y-153708600D02*
X213656500Y-154910200D01*
X214730500Y-177054900D02*
X216171500Y-177054900D01*
D14*
X214730500Y-175613800D02*
X214730500Y-177054900D01*
D15*
X214858100Y-125971600D02*
X214858100Y-153708600D01*
X215965000Y-124864700D02*
X214858100Y-125971600D01*
D14*
X214730500Y-208023200D02*
X214730500Y-177054900D01*
D15*
X213656500Y-154910200D02*
X213656500Y-174539800D01*
D14*
%TO.N,/L1_IN7*%
X228724600Y-252019300D02*
X228724600Y-271555400D01*
X228663400Y-271616600D02*
X228663300Y-271616600D01*
X228724600Y-272828200D02*
X228724600Y-277440000D01*
X228724600Y-292869000D02*
X228724600Y-298271500D01*
X228969600Y-292624000D02*
X228724600Y-292869000D01*
X228724600Y-298271500D02*
X228657400Y-298338700D01*
X228724600Y-277440000D02*
X228503100Y-277661500D01*
X228503100Y-278137900D02*
X228724600Y-278359400D01*
X228724600Y-278359400D02*
X228724600Y-291902400D01*
X228724600Y-271555400D02*
X228663400Y-271616600D01*
X225018900Y-86270300D02*
X225929100Y-87180500D01*
X228663300Y-272767000D02*
X228663400Y-272767000D01*
X228102600Y-251397300D02*
X228724600Y-252019300D01*
X228326300Y-272430000D02*
X228663300Y-272767000D01*
X228969600Y-292147400D02*
X228969600Y-292624000D01*
X228326300Y-271953600D02*
X228326300Y-272430000D01*
X228663400Y-272767000D02*
X228724600Y-272828200D01*
X228102600Y-246459500D02*
X228102600Y-251397300D01*
X228663300Y-271616600D02*
X228326300Y-271953600D01*
X225018900Y-33470700D02*
X225018900Y-86270300D01*
X228724600Y-291902400D02*
X228969600Y-292147400D01*
X225679700Y-32809900D02*
X225018900Y-33470700D01*
X228503100Y-277661500D02*
X228503100Y-278137900D01*
%TO.N,/L1_IN9*%
X225879100Y-103389300D02*
X228160300Y-101108100D01*
X227345300Y-232441500D02*
X227100100Y-232196300D01*
X225201000Y-140083700D02*
X224941700Y-140343000D01*
X227100100Y-262738400D02*
X227100100Y-233163300D01*
X225879100Y-104627200D02*
X225879100Y-103389300D01*
X227345300Y-232918100D02*
X227345300Y-232441500D01*
X227819200Y-292623900D02*
X228064200Y-292868900D01*
X228064200Y-291902500D02*
X227819200Y-292147500D01*
X228160300Y-67936200D02*
X228199200Y-67897300D01*
X228160300Y-67381800D02*
X228160300Y-50064300D01*
X228199200Y-67897300D02*
X228199200Y-67420700D01*
X228064200Y-263702500D02*
X227976000Y-263790700D01*
X225201000Y-141078700D02*
X225201000Y-156586500D01*
X228064200Y-272663300D02*
X228064200Y-291902500D01*
X228064200Y-292868900D02*
X228064200Y-317961900D01*
X227100100Y-232196300D02*
X227100100Y-209889900D01*
X227819200Y-292147500D02*
X227819200Y-292623900D01*
X227100100Y-233163300D02*
X227345300Y-232918100D01*
X228160300Y-50064300D02*
X228000700Y-49904700D01*
X228160300Y-101108100D02*
X228160300Y-67936200D01*
X227976000Y-272575100D02*
X228064200Y-272663300D01*
X228199200Y-67420700D02*
X228160300Y-67381800D01*
X225879100Y-104627200D02*
X225201000Y-105305300D01*
X227976000Y-263790700D02*
X227976000Y-272575100D01*
X224941700Y-140819400D02*
X225201000Y-141078700D01*
X228064200Y-317961900D02*
X228048600Y-317977500D01*
X228064200Y-263702500D02*
X227100100Y-262738400D01*
X225201000Y-105305300D02*
X225201000Y-140083700D01*
X224941700Y-140343000D02*
X224941700Y-140819400D01*
X225201000Y-156586500D02*
X225800600Y-157186100D01*
D15*
%TO.N,/L1_IN10*%
X231342800Y-212855000D02*
X232758400Y-212855000D01*
X232758400Y-206749400D02*
X236294100Y-203213700D01*
X236294100Y-107698400D02*
X236236300Y-107698400D01*
X232758400Y-212855000D02*
X232758400Y-206749400D01*
X236294100Y-107698400D02*
X236294100Y-57022400D01*
X236294100Y-203213700D02*
X236294100Y-107698400D01*
D14*
X231342800Y-215158700D02*
X231342800Y-212855000D01*
D15*
X236294100Y-57022400D02*
X232891400Y-53619700D01*
D14*
%TO.N,/L1_IN11*%
X229139800Y-272767000D02*
X229476700Y-272430100D01*
X229017200Y-237037500D02*
X227849700Y-235870000D01*
X228830600Y-244089000D02*
X228554500Y-243812900D01*
X229017200Y-237159700D02*
X229017200Y-237037500D01*
X229017100Y-238310200D02*
X229017000Y-238310200D01*
X229017200Y-238432500D02*
X229017200Y-238310300D01*
X228680000Y-237973200D02*
X228680000Y-237496800D01*
X228830600Y-251138800D02*
X228830600Y-244089000D01*
X228554500Y-243812900D02*
X228554500Y-243336500D01*
X229017000Y-238310200D02*
X228680000Y-237973200D01*
X229476700Y-272430100D02*
X229476700Y-271953500D01*
X229078300Y-251386500D02*
X228830600Y-251138800D01*
X229078300Y-277899700D02*
X229078300Y-272828400D01*
X229139700Y-272767000D02*
X229139800Y-272767000D01*
X229017100Y-237159800D02*
X229017200Y-237159700D01*
X229017200Y-238310300D02*
X229017100Y-238310200D01*
X229078300Y-272828400D02*
X229139700Y-272767000D01*
X229476700Y-271953500D02*
X229139800Y-271616600D01*
X228680000Y-237496800D02*
X229017000Y-237159800D01*
X228830600Y-243060400D02*
X228830600Y-238619100D01*
X229139800Y-271616600D02*
X229139700Y-271616600D01*
X228554500Y-243336500D02*
X228830600Y-243060400D01*
X228830600Y-238619100D02*
X229017200Y-238432500D01*
X227849700Y-235870000D02*
X227849700Y-226757500D01*
X229139700Y-271616600D02*
X229078300Y-271555200D01*
X229017000Y-237159800D02*
X229017100Y-237159800D01*
X229078300Y-271555200D02*
X229078300Y-251386500D01*
D16*
%TO.N,/L1_IN12*%
X230390000Y-185639500D02*
X230390000Y-185080100D01*
X230604400Y-185853900D02*
X230390000Y-185639500D01*
X232180700Y-107418600D02*
X232034900Y-107272800D01*
X232341200Y-90638300D02*
X232341200Y-90078700D01*
X232034900Y-89772400D02*
X232034900Y-71469000D01*
X232034900Y-108124000D02*
X232180700Y-107978200D01*
D14*
X233605100Y-319868500D02*
X233605100Y-284503100D01*
D16*
X232034900Y-90944600D02*
X232341200Y-90638300D01*
D14*
X233841100Y-284267100D02*
X233841100Y-235805100D01*
X233912800Y-320652800D02*
X233912800Y-320176200D01*
D16*
X232034900Y-154226500D02*
X232034900Y-108124000D01*
X232034900Y-71469000D02*
X232839100Y-70664800D01*
X232034900Y-107272800D02*
X232034900Y-90944600D01*
X230341500Y-155919900D02*
X232034900Y-154226500D01*
X230390000Y-185080100D02*
X230604400Y-184865700D01*
X229021800Y-230923300D02*
X230604400Y-229340700D01*
D14*
X233912800Y-320176200D02*
X233605100Y-319868500D01*
X233841100Y-235805100D02*
X228959300Y-230923300D01*
D16*
X232180700Y-107978200D02*
X232180700Y-107418600D01*
X230604400Y-178695900D02*
X230341500Y-178433000D01*
X230604400Y-229340700D02*
X230604400Y-185853900D01*
D14*
X233605100Y-284503100D02*
X233841100Y-284267100D01*
X233605100Y-339536700D02*
X233605100Y-320960500D01*
D16*
X228959300Y-230923300D02*
X229021800Y-230923300D01*
X232341200Y-90078700D02*
X232034900Y-89772400D01*
D14*
X233605100Y-320960500D02*
X233912800Y-320652800D01*
D16*
X230341500Y-178433000D02*
X230341500Y-155919900D01*
X230604400Y-184865700D02*
X230604400Y-178695900D01*
D14*
%TO.N,/W121*%
X206103000Y-79502000D02*
X204020100Y-81584900D01*
X204020100Y-81584900D02*
X204020100Y-131383300D01*
%TO.N,/W114*%
X207053300Y-43733100D02*
X207053300Y-110955100D01*
%TO.N,/W513*%
X197718000Y-72669700D02*
X197718000Y-101575800D01*
X197718000Y-101575800D02*
X188964000Y-110329800D01*
%TO.N,/W514*%
X188338700Y-115484200D02*
X188338700Y-71736800D01*
X188377900Y-115523400D02*
X188338700Y-115484200D01*
%TO.N,/W113*%
X200303200Y-49979200D02*
X200303200Y-104585800D01*
X206478100Y-43494900D02*
X206478100Y-43804300D01*
X207124500Y-43157900D02*
X206815100Y-43157900D01*
X206478100Y-43804300D02*
X200303200Y-49979200D01*
X206815100Y-43157900D02*
X206478100Y-43494900D01*
X207732800Y-42549600D02*
X207124500Y-43157900D01*
%TO.N,/W1112*%
X71449700Y-61087900D02*
X71800000Y-60737600D01*
X67674700Y-123266700D02*
X71449700Y-119491700D01*
X71449700Y-119491700D02*
X71449700Y-61087900D01*
X67674700Y-128297800D02*
X67674700Y-123266700D01*
%TO.N,/W111*%
X208318900Y-27604600D02*
X208318900Y-90595300D01*
X210698500Y-25225000D02*
X208318900Y-27604600D01*
%TO.N,/W1111*%
X222277600Y-92948900D02*
X222277600Y-58713700D01*
X219494000Y-108654900D02*
X219494000Y-95732500D01*
X219494000Y-95732500D02*
X222277600Y-92948900D01*
X206110700Y-122038200D02*
X219494000Y-108654900D01*
%TO.N,/W128*%
X72075000Y-79220200D02*
X72075000Y-135208100D01*
X67275300Y-140007800D02*
X67275300Y-142882400D01*
X72075000Y-135208100D02*
X67275300Y-140007800D01*
%TO.N,/W1110*%
X67345300Y-115883000D02*
X66856000Y-115393700D01*
X66807800Y-97560300D02*
X66856000Y-97512100D01*
X67035400Y-67224400D02*
X67035400Y-51095900D01*
X66856000Y-115393700D02*
X66856000Y-98084900D01*
X66807800Y-98036700D02*
X66807800Y-97560300D01*
X66856000Y-98084900D02*
X66807800Y-98036700D01*
X66856000Y-97512100D02*
X66856000Y-67403800D01*
X67794400Y-50336900D02*
X67794400Y-43497800D01*
X67035400Y-51095900D02*
X67794400Y-50336900D01*
X66856000Y-67403800D02*
X67035400Y-67224400D01*
%TO.N,/W117*%
X226265800Y-27026800D02*
X228210400Y-25082200D01*
X226265800Y-82624900D02*
X226265800Y-27026800D01*
%TO.N,/W118*%
X231231700Y-26863000D02*
X231231700Y-53448500D01*
X231231700Y-53448500D02*
X231355000Y-53571800D01*
X231355000Y-89855900D02*
X231090600Y-90120300D01*
X231355000Y-90861100D02*
X231355000Y-94266700D01*
X231090600Y-90120300D02*
X231090600Y-90596700D01*
X231355000Y-53571800D02*
X231355000Y-89855900D01*
X231090600Y-90596700D02*
X231355000Y-90861100D01*
%TO.N,/W1210*%
X220891000Y-97180600D02*
X219876700Y-98194900D01*
X219876700Y-150601700D02*
X220234000Y-150959000D01*
X219876700Y-98194900D02*
X219876700Y-150601700D01*
%TO.N,/W129*%
X226863900Y-95975000D02*
X220516900Y-102322000D01*
X220516900Y-102322000D02*
X220516900Y-144662300D01*
%TO.N,/W1312*%
X68895400Y-202006700D02*
X69064400Y-202006700D01*
X71746700Y-199324400D02*
X71746700Y-169424500D01*
X67347600Y-209852200D02*
X67347600Y-203723500D01*
X68558400Y-202512700D02*
X68558400Y-202343700D01*
X69064400Y-202006700D02*
X71746700Y-199324400D01*
X67347600Y-203723500D02*
X68558400Y-202512700D01*
X68558400Y-202343700D02*
X68895400Y-202006700D01*
%TO.N,/W1310*%
X230254000Y-184579000D02*
X230254000Y-178973200D01*
X220011600Y-196482500D02*
X220011600Y-194821400D01*
X220011600Y-194821400D02*
X230254000Y-184579000D01*
X229903700Y-151219200D02*
X230808400Y-150314500D01*
X229903700Y-178665600D02*
X229903700Y-151219200D01*
X230254000Y-178973200D02*
X230151600Y-178870800D01*
X230151600Y-178870800D02*
X230108900Y-178870800D01*
X230108900Y-178870800D02*
X229903700Y-178665600D01*
%TO.N,/W137*%
X226507600Y-134747400D02*
X226507600Y-169424500D01*
X228259900Y-132995100D02*
X226507600Y-134747400D01*
%TO.N,/W213*%
X274754700Y-86848400D02*
X274754700Y-86371800D01*
X274522600Y-104352400D02*
X274522600Y-87080500D01*
X274522600Y-87080500D02*
X274754700Y-86848400D01*
X274522600Y-86139700D02*
X274522600Y-69075200D01*
X274754700Y-86371800D02*
X274522600Y-86139700D01*
X274522600Y-69075200D02*
X274522700Y-69075200D01*
%TO.N,/W215*%
X273836300Y-87080300D02*
X273836300Y-112900000D01*
X276342900Y-51121200D02*
X273836300Y-53627800D01*
X273604300Y-86848300D02*
X273836300Y-87080300D01*
X273836300Y-86139900D02*
X273604300Y-86371900D01*
X273604300Y-86371900D02*
X273604300Y-86848300D01*
X273836300Y-53627800D02*
X273836300Y-86139900D01*
%TO.N,/W236*%
X98643400Y-207424500D02*
X98643400Y-163618700D01*
X96282900Y-209785000D02*
X98643400Y-207424500D01*
%TO.N,/W235*%
X100637500Y-202765500D02*
X100637500Y-161838900D01*
X99229500Y-204173500D02*
X100637500Y-202765500D01*
%TO.N,/W242*%
X91970400Y-190161700D02*
X91970400Y-222556100D01*
X91970400Y-222556100D02*
X90191500Y-224335000D01*
%TO.N,/W252*%
X90832300Y-266596900D02*
X93241600Y-264187600D01*
X93241600Y-264187600D02*
X93241600Y-242335700D01*
%TO.N,/W325*%
X122345000Y-160639200D02*
X122345000Y-108706100D01*
X121486000Y-161498200D02*
X122345000Y-160639200D01*
%TO.N,/W322*%
X120258000Y-88186600D02*
X120258000Y-83608000D01*
X120435800Y-88841000D02*
X120435800Y-88364400D01*
X120435800Y-88364400D02*
X120258000Y-88186600D01*
X120258000Y-118554000D02*
X120608300Y-118203700D01*
X120258000Y-113510600D02*
X120258000Y-89018800D01*
X120608300Y-113860900D02*
X120258000Y-113510600D01*
X120258000Y-141690100D02*
X120258000Y-118554000D01*
X120258000Y-89018800D02*
X120435800Y-88841000D01*
X120258000Y-83608000D02*
X119860600Y-83210600D01*
X120608300Y-118203700D02*
X120608300Y-113860900D01*
X119545200Y-142402900D02*
X120258000Y-141690100D01*
%TO.N,/W321*%
X119684300Y-136321800D02*
X119684300Y-118457300D01*
X119684300Y-118457300D02*
X120258000Y-117883600D01*
X119545200Y-136460900D02*
X119684300Y-136321800D01*
X119860600Y-113783900D02*
X119860600Y-88602700D01*
X120258000Y-117883600D02*
X120258000Y-114181300D01*
X120258000Y-114181300D02*
X119860600Y-113783900D01*
%TO.N,/W335*%
X332303800Y-169515700D02*
X332303800Y-153231700D01*
X332366500Y-169578400D02*
X332303800Y-169515700D01*
X332303800Y-170529800D02*
X332303800Y-170117700D01*
X332303800Y-153231700D02*
X332634000Y-152901500D01*
X331418100Y-185650900D02*
X332808100Y-184260900D01*
X332808100Y-171034100D02*
X332303800Y-170529800D01*
X332366500Y-170055000D02*
X332366500Y-169578400D01*
X332808100Y-184260900D02*
X332808100Y-171034100D01*
X332303800Y-170117700D02*
X332366500Y-170055000D01*
%TO.N,/W331*%
X332726500Y-136494300D02*
X332726500Y-150006700D01*
X330855700Y-151877500D02*
X330855700Y-168727800D01*
X330855700Y-168727800D02*
X331124100Y-168996200D01*
X332726500Y-150006700D02*
X330855700Y-151877500D01*
%TO.N,/W355*%
X327600200Y-277535800D02*
X327600200Y-257648600D01*
X327600200Y-257648600D02*
X331578200Y-253670600D01*
%TO.N,/W366*%
X334779200Y-306091800D02*
X334779200Y-324455600D01*
X334949400Y-305921600D02*
X334779200Y-306091800D01*
X334779200Y-324455600D02*
X333870000Y-325364800D01*
%TO.N,/W424*%
X147336900Y-155258100D02*
X146360900Y-154282100D01*
X146360900Y-154282100D02*
X146360900Y-129396400D01*
%TO.N,/W426*%
X386862000Y-142457300D02*
X386862000Y-158765300D01*
X386916500Y-100951900D02*
X386916500Y-142402800D01*
X386916500Y-142402800D02*
X386862000Y-142457300D01*
X386720300Y-100755700D02*
X386916500Y-100951900D01*
%TO.N,/W434*%
X155396200Y-197151500D02*
X155396200Y-184715500D01*
X155396200Y-184715500D02*
X158466400Y-181645300D01*
%TO.N,/W436*%
X148482000Y-169166900D02*
X148896700Y-168752200D01*
X148482000Y-210137400D02*
X148482000Y-169166900D01*
%TO.N,/W446*%
X386845100Y-248180300D02*
X386845100Y-204253500D01*
X387095800Y-248431000D02*
X386845100Y-248180300D01*
X386845100Y-204253500D02*
X388917700Y-202180900D01*
%TO.N,/W456*%
X144507700Y-293971200D02*
X156461700Y-282017200D01*
X156461700Y-282017200D02*
X156461700Y-252350600D01*
%TO.N,/W455*%
X384393300Y-273369000D02*
X384393300Y-268162200D01*
X383794200Y-273968100D02*
X384393300Y-273369000D01*
X384393300Y-268162200D02*
X384031400Y-267800300D01*
X384031400Y-267800300D02*
X384031400Y-254900800D01*
X384031400Y-254900800D02*
X383799700Y-254669100D01*
%TO.N,/W466*%
X386560800Y-324271500D02*
X386803000Y-324513700D01*
X386560800Y-306262600D02*
X386560800Y-324271500D01*
%TO.N,/W143*%
X209751800Y-208802000D02*
X209751800Y-227520000D01*
X210950500Y-207603300D02*
X209751800Y-208802000D01*
X210950500Y-202347700D02*
X210950500Y-207603300D01*
X209751800Y-227520000D02*
X206977600Y-230294200D01*
%TO.N,/W145*%
X46063700Y-231918700D02*
X46063800Y-231918700D01*
X46400700Y-231105200D02*
X46063800Y-230768300D01*
X46400700Y-237891200D02*
X46063800Y-237554300D01*
X46026300Y-237516900D02*
X46026300Y-231956100D01*
X46026300Y-243840700D02*
X46026300Y-238742100D01*
X46063700Y-238704700D02*
X46063800Y-238704700D01*
X46026300Y-231956100D02*
X46063700Y-231918700D01*
X46063800Y-238704700D02*
X46400700Y-238367800D01*
X46400700Y-231581800D02*
X46400700Y-231105200D01*
X46063800Y-230768300D02*
X46063700Y-230768300D01*
X46796800Y-244611200D02*
X46026300Y-243840700D01*
X46063800Y-231918700D02*
X46400700Y-231581800D01*
X46026300Y-230730900D02*
X46026300Y-221224500D01*
X46063800Y-237554300D02*
X46063700Y-237554300D01*
X46400700Y-238367800D02*
X46400700Y-237891200D01*
X46063700Y-230768300D02*
X46026300Y-230730900D01*
X46063700Y-237554300D02*
X46026300Y-237516900D01*
X46026300Y-238742100D02*
X46063700Y-238704700D01*
%TO.N,/W142*%
X53962100Y-185132600D02*
X53962100Y-218085100D01*
X53962100Y-218085100D02*
X46762200Y-225285000D01*
%TO.N,/W1411*%
X78702400Y-243439800D02*
X78702400Y-222251400D01*
%TO.N,/W1410*%
X226808800Y-202380400D02*
X226420200Y-202769000D01*
X226420200Y-232329900D02*
X226770100Y-232679800D01*
X226420200Y-202769000D02*
X226420200Y-232329900D01*
%TO.N,/W149*%
X227995300Y-200188300D02*
X226069800Y-202113800D01*
X226069800Y-202113800D02*
X226069800Y-230386900D01*
X226069800Y-230386900D02*
X225351500Y-231105200D01*
%TO.N,/W1510*%
X234418300Y-256690000D02*
X234488300Y-256620000D01*
X234418300Y-271406600D02*
X234418300Y-256690000D01*
%TO.N,/W157*%
X229428700Y-244089200D02*
X229704900Y-243813000D01*
X229428700Y-244174600D02*
X229428700Y-244089200D01*
X229428700Y-243060200D02*
X229428700Y-237908500D01*
X229704900Y-243336400D02*
X229428700Y-243060200D01*
X230254000Y-253645700D02*
X230254000Y-251891900D01*
X229231500Y-250869400D02*
X229231500Y-244371800D01*
X229231500Y-244371800D02*
X229428700Y-244174600D01*
X229704900Y-243813000D02*
X229704900Y-243336400D01*
X230254000Y-251891900D02*
X229231500Y-250869400D01*
X229428700Y-237908500D02*
X229255200Y-237735000D01*
%TO.N,/InNeuron_3/Adder3/SUM_IN*%
X234463000Y-173025000D02*
X235079700Y-172408300D01*
X235079700Y-156556700D02*
X234398000Y-155875000D01*
X235079700Y-172408300D02*
X235079700Y-156556700D01*
%TO.N,/InNeuron_4/Adder3/SUM_IN*%
X219066000Y-226050000D02*
X219066000Y-214913200D01*
X236034100Y-225411900D02*
X235871000Y-225575000D01*
X219066000Y-214913200D02*
X218391300Y-214238500D01*
X235371000Y-208175000D02*
X236034100Y-208838100D01*
X236034100Y-208838100D02*
X236034100Y-225411900D01*
D15*
%TO.N,/InNeuron_5/Adder3/SUM_IN*%
X235113600Y-256361000D02*
X235068200Y-256315600D01*
X235068200Y-256315600D02*
X235068200Y-246197800D01*
D14*
X234995500Y-263770500D02*
X236366000Y-262400000D01*
D15*
X235068200Y-256924400D02*
X235113600Y-256879000D01*
X235068200Y-261102200D02*
X235068200Y-256924400D01*
X235113600Y-256879000D02*
X235113600Y-256361000D01*
D14*
X219939100Y-261926900D02*
X219066000Y-262800000D01*
X219266000Y-244900000D02*
X219939100Y-245573100D01*
D15*
X235068200Y-246197800D02*
X236466000Y-244800000D01*
D14*
X234995500Y-278429500D02*
X234995500Y-263770500D01*
X219939100Y-245573100D02*
X219939100Y-261926900D01*
D15*
X236366000Y-262400000D02*
X235068200Y-261102200D01*
D14*
X236466000Y-279900000D02*
X234995500Y-278429500D01*
%TO.N,/InNeuron_6/Adder3/SUM_IN*%
X236377400Y-299851400D02*
X235731000Y-299205000D01*
X236001000Y-316380000D02*
X236377400Y-316003600D01*
X236377400Y-316003600D02*
X236377400Y-299851400D01*
%TO.N,/SCK*%
X109268400Y-94274900D02*
X109268400Y-55429900D01*
X109444700Y-52974200D02*
X109444700Y-52497600D01*
X109268400Y-55429900D02*
X109411400Y-55286900D01*
X106392700Y-39909700D02*
X106392600Y-39909700D01*
X106392700Y-38759300D02*
X106450000Y-38702000D01*
X109268400Y-46605200D02*
X106450000Y-43786800D01*
X106055600Y-39572700D02*
X106055600Y-39096300D01*
X109411400Y-55286900D02*
X109411400Y-54810300D01*
X106392600Y-39909700D02*
X106055600Y-39572700D01*
X41231100Y-276689300D02*
X41231100Y-263944700D01*
X109268400Y-52321300D02*
X109268400Y-46605200D01*
X109268400Y-53150500D02*
X109444700Y-52974200D01*
X106450000Y-39967000D02*
X106392700Y-39909700D01*
X109411400Y-54810300D02*
X109268400Y-54667300D01*
X106392600Y-38759300D02*
X106392700Y-38759300D01*
X106055600Y-39096300D02*
X106392600Y-38759300D01*
X106450000Y-43786800D02*
X106450000Y-39967000D01*
X109444700Y-52497600D02*
X109268400Y-52321300D01*
X109268400Y-54667300D02*
X109268400Y-53150500D01*
X106450000Y-38702000D02*
X106450000Y-38434900D01*
%TO.N,/MOSI*%
X109721000Y-185066400D02*
X109787200Y-185132600D01*
X109721000Y-187489400D02*
X111839400Y-189607800D01*
X172773900Y-106895600D02*
X172773900Y-128736000D01*
X169799400Y-103921100D02*
X172773900Y-106895600D01*
D15*
X108493300Y-183838600D02*
X109140300Y-184485600D01*
D14*
X109721000Y-185066400D02*
X109721000Y-187489400D01*
D15*
X109122700Y-143647600D02*
X108493300Y-144277000D01*
X108493300Y-144277000D02*
X108493300Y-183838600D01*
D14*
X109140300Y-184485600D02*
X109721000Y-185066400D01*
%TO.N,/S0*%
X60560700Y-33762400D02*
X60987800Y-33335300D01*
X56916400Y-27593800D02*
X56852700Y-27657500D01*
D15*
X60245700Y-43837600D02*
X60394700Y-43837600D01*
D14*
X56916400Y-28197600D02*
X56916400Y-29363400D01*
X60560700Y-36857900D02*
X60560700Y-33762400D01*
X56916400Y-22666200D02*
X56916400Y-27593800D01*
X60245700Y-43837600D02*
X60132800Y-43724700D01*
X56916400Y-29363400D02*
X60602700Y-33049700D01*
X60132800Y-43724700D02*
X60132800Y-37507900D01*
X60702200Y-33049700D02*
X60602700Y-33049700D01*
D15*
X60560700Y-37080000D02*
X60560700Y-36857900D01*
D14*
X60132800Y-37507900D02*
X60560700Y-37080000D01*
X56852700Y-27657500D02*
X56852700Y-28133900D01*
X60394700Y-53865000D02*
X61010700Y-54481000D01*
D16*
X60702200Y-33049700D02*
X60987800Y-33335300D01*
D14*
X56852700Y-28133900D02*
X56916400Y-28197600D01*
X60394700Y-43837600D02*
X60394700Y-53865000D01*
%TO.N,/S1*%
X26353500Y-29887300D02*
X26158700Y-30082100D01*
X26158700Y-30082100D02*
X26158700Y-31418100D01*
X25972400Y-31604400D02*
X25972400Y-32080800D01*
X25972400Y-32080800D02*
X26158700Y-32267100D01*
X26353500Y-23384600D02*
X26353500Y-29887300D01*
X26158700Y-32267100D02*
X26158700Y-32270400D01*
X26312600Y-32424300D02*
X26312600Y-33376400D01*
X26312600Y-33376400D02*
X25689900Y-33999100D01*
X26082800Y-23113900D02*
X26353500Y-23384600D01*
X26158700Y-32270400D02*
X26312600Y-32424300D01*
X26158700Y-31418100D02*
X25972400Y-31604400D01*
%TO.N,/S2*%
X66915300Y-36158800D02*
X66915300Y-36062100D01*
X65929700Y-47204700D02*
X66915300Y-46219100D01*
X67247500Y-36491000D02*
X66915300Y-36158800D01*
X30916900Y-89939800D02*
X31030500Y-89826200D01*
X66915300Y-36062100D02*
X70357500Y-32619900D01*
X31030500Y-89826200D02*
X31030500Y-58367600D01*
X66915300Y-46219100D02*
X66915300Y-37299800D01*
X66915300Y-37299800D02*
X67247500Y-36967600D01*
X67247500Y-36967600D02*
X67247500Y-36491000D01*
X31030500Y-58367600D02*
X30762400Y-58099500D01*
%TO.N,/S3*%
X31663400Y-46560200D02*
X31663400Y-36428700D01*
X64747200Y-34542100D02*
X64747200Y-24591500D01*
X32068200Y-35547400D02*
X32068100Y-35547300D01*
X32068100Y-35500100D02*
X32919100Y-34649100D01*
X31663400Y-36428700D02*
X31731200Y-36360900D01*
X64747200Y-24591500D02*
X64256400Y-24100700D01*
X31663400Y-46560200D02*
X31663400Y-57445400D01*
X32068100Y-35547300D02*
X32068100Y-35500100D01*
X31649000Y-46560200D02*
X31663400Y-46560200D01*
X31731300Y-36360900D02*
X32068200Y-36024000D01*
X32068200Y-36024000D02*
X32068200Y-35547400D01*
X31731200Y-36360900D02*
X31731300Y-36360900D01*
%TO.N,/VariableWeights/CS127*%
X58382400Y-132680200D02*
X58382400Y-69126100D01*
X59040800Y-54102300D02*
X59040800Y-47654300D01*
X59040800Y-47654300D02*
X56735100Y-45348600D01*
X62525300Y-57586800D02*
X59040800Y-54102300D01*
X59387900Y-133685700D02*
X58382400Y-132680200D01*
X58382400Y-69126100D02*
X62175000Y-65333500D01*
X62175000Y-65333500D02*
X62175000Y-61723500D01*
X62525300Y-61373200D02*
X62525300Y-57586800D01*
X62175000Y-61723500D02*
X62525300Y-61373200D01*
%TO.N,/VariableWeights/CS129*%
X59581700Y-140098900D02*
X59581700Y-134305300D01*
X62875600Y-61518300D02*
X62875600Y-57441600D01*
X62577100Y-65602100D02*
X62577100Y-61816800D01*
X62577100Y-57143100D02*
X62577100Y-43885400D01*
X59581700Y-130220900D02*
X59581700Y-118733200D01*
X59581700Y-118250200D02*
X59581700Y-68597500D01*
X62893500Y-43092400D02*
X62577100Y-42776000D01*
X62577100Y-61816800D02*
X62875600Y-61518300D01*
X59932000Y-133416300D02*
X59932000Y-130571200D01*
X62577100Y-43885400D02*
X62893500Y-43569000D01*
X62577100Y-42776000D02*
X62577100Y-42426300D01*
X59932000Y-130571200D02*
X59581700Y-130220900D01*
X59626100Y-134260900D02*
X59626200Y-134260900D01*
X59754000Y-140747800D02*
X59754000Y-140271200D01*
X59581700Y-146388100D02*
X59581700Y-140920100D01*
X62875600Y-57441600D02*
X62577100Y-57143100D01*
X59581700Y-118733200D02*
X59584900Y-118730000D01*
X59584900Y-118730000D02*
X59584900Y-118253400D01*
X59584900Y-118253400D02*
X59581700Y-118250200D01*
X59963100Y-133447400D02*
X59932000Y-133416300D01*
X62577100Y-42426300D02*
X60770300Y-40619500D01*
X62893500Y-43569000D02*
X62893500Y-43092400D01*
X59963100Y-133924000D02*
X59963100Y-133447400D01*
X59581700Y-140920100D02*
X59754000Y-140747800D01*
X59581700Y-134305300D02*
X59626100Y-134260900D01*
X59754000Y-140271200D02*
X59581700Y-140098900D01*
X59626200Y-134260900D02*
X59963100Y-133924000D01*
X59581700Y-68597500D02*
X62577100Y-65602100D01*
%TO.N,/VariableWeights/CS1210*%
X62927400Y-65747200D02*
X62927400Y-61961900D01*
X63590500Y-151822600D02*
X63590500Y-99217600D01*
X63225900Y-61663400D02*
X63225900Y-57296500D01*
X63243800Y-43714100D02*
X63243800Y-42947300D01*
X63225900Y-57296500D02*
X62927400Y-56998000D01*
X62927400Y-40430500D02*
X62411200Y-39914300D01*
X62927400Y-56998000D02*
X62927400Y-44030500D01*
X63243800Y-42947300D02*
X62927400Y-42630900D01*
X62910800Y-65763800D02*
X62927400Y-65747200D01*
X62927400Y-61961900D02*
X63225900Y-61663400D01*
X62602000Y-152811100D02*
X63590500Y-151822600D01*
X63590500Y-99217600D02*
X62910800Y-98537900D01*
X62927400Y-42630900D02*
X62927400Y-40430500D01*
X62910800Y-98537900D02*
X62910800Y-65763800D01*
X62927400Y-44030500D02*
X63243800Y-43714100D01*
%TO.N,/VariableWeights/CS1212*%
X61342600Y-61625200D02*
X61602600Y-61625200D01*
X58515600Y-52018400D02*
X57379800Y-50882600D01*
X58515600Y-54247400D02*
X58515600Y-52018400D01*
X58047000Y-141827700D02*
X58032100Y-141812800D01*
X58384000Y-142164600D02*
X58047100Y-141827700D01*
X62175000Y-57906800D02*
X58515600Y-54247400D01*
X58047100Y-141827700D02*
X58047000Y-141827700D01*
X57379800Y-50800300D02*
X57042900Y-50463400D01*
X56960600Y-50463400D02*
X55977700Y-49480500D01*
X58032100Y-64935700D02*
X61342600Y-61625200D01*
X59895200Y-161109000D02*
X58032100Y-159245900D01*
X58032100Y-159245900D02*
X58032100Y-142993000D01*
X57379800Y-50882600D02*
X57379800Y-50800300D01*
X58047000Y-142978100D02*
X58047100Y-142978100D01*
X58032100Y-141812800D02*
X58032100Y-64935700D01*
X57042900Y-50463400D02*
X56960600Y-50463400D01*
X58047100Y-142978100D02*
X58384000Y-142641200D01*
X55977700Y-49480500D02*
X55977700Y-39057100D01*
X58032100Y-142993000D02*
X58047000Y-142978100D01*
X61602600Y-61625200D02*
X62175000Y-61052800D01*
X62175000Y-61052800D02*
X62175000Y-57906800D01*
X58384000Y-142641200D02*
X58384000Y-142164600D01*
X59895200Y-165756000D02*
X59895200Y-161109000D01*
%TO.N,/VariableWeights/CS148*%
X64428100Y-51882500D02*
X64428100Y-51405900D01*
X64826900Y-60866000D02*
X64102200Y-60141300D01*
X64102200Y-51080000D02*
X64102200Y-50590900D01*
X64102200Y-49673300D02*
X64102200Y-44016700D01*
X64102200Y-52208400D02*
X64428100Y-51882500D01*
X64521500Y-217645900D02*
X64521500Y-62985900D01*
X64521500Y-62985900D02*
X64826900Y-62680500D01*
X64102200Y-50590900D02*
X63881600Y-50370300D01*
X61452600Y-220714800D02*
X64521500Y-217645900D01*
X64826900Y-62680500D02*
X64826900Y-60866000D01*
X64428100Y-51405900D02*
X64102200Y-51080000D01*
X63881600Y-50370300D02*
X63881600Y-49893900D01*
X64102200Y-44016700D02*
X64755200Y-43363700D01*
X64102200Y-60141300D02*
X64102200Y-52208400D01*
X63881600Y-49893900D02*
X64102200Y-49673300D01*
%TO.N,/VariableWeights/CS1511*%
X61440100Y-281871400D02*
X64909000Y-278402500D01*
X64909000Y-51391400D02*
X64456800Y-50939200D01*
X64909000Y-60452600D02*
X64909000Y-51391400D01*
X65177200Y-62825600D02*
X65177200Y-60720800D01*
X65177200Y-60720800D02*
X64909000Y-60452600D01*
X64456800Y-50939200D02*
X64456800Y-50132100D01*
X64909000Y-63093800D02*
X65177200Y-62825600D01*
X64909000Y-278402500D02*
X64909000Y-63093800D01*
%TO.N,/VariableWeights/CS113*%
X42215600Y-103250900D02*
X54888800Y-90577700D01*
X54888800Y-90577700D02*
X54888800Y-61755300D01*
X54888800Y-61755300D02*
X56169100Y-60475000D01*
X42215500Y-106954700D02*
X42215600Y-106954700D01*
X42215600Y-106954700D02*
X42215600Y-103250900D01*
%TO.N,/VariableWeights/CS114*%
X38125200Y-84708300D02*
X47215500Y-75618000D01*
X47215500Y-75618000D02*
X47215500Y-61125000D01*
X38299000Y-112513900D02*
X38354300Y-112458600D01*
X38125200Y-109218500D02*
X38125200Y-84708300D01*
X38354300Y-112458600D02*
X38354300Y-109447600D01*
X38354300Y-109447600D02*
X38125200Y-109218500D01*
%TO.N,/VariableWeights/CS116*%
X55886600Y-64224400D02*
X55886600Y-121338900D01*
X55886600Y-121338900D02*
X51679400Y-125546100D01*
X55886600Y-62662500D02*
X55886600Y-63749000D01*
X55794000Y-63841600D02*
X55794000Y-64131800D01*
X56124100Y-62425000D02*
X55886600Y-62662500D01*
X55794000Y-64131800D02*
X55886600Y-64224400D01*
X55886600Y-63749000D02*
X55794000Y-63841600D01*
%TO.N,/VariableWeights/CS121*%
X38475500Y-105310900D02*
X38475500Y-104834500D01*
X38726300Y-104583700D02*
X38726300Y-93555600D01*
X39479000Y-92606400D02*
X39675500Y-92606400D01*
X39142000Y-93139900D02*
X39142000Y-92943400D01*
X38874200Y-112275600D02*
X38720100Y-112121500D01*
X38475500Y-104834500D02*
X38726300Y-104583700D01*
X38720100Y-112121500D02*
X38720100Y-110097200D01*
X50837700Y-65552500D02*
X53252700Y-63137500D01*
X38874200Y-112752200D02*
X38874200Y-112275600D01*
X39675500Y-92606400D02*
X50837700Y-81444200D01*
X50837700Y-81444200D02*
X50837700Y-65552500D01*
X38726300Y-110091000D02*
X38726300Y-105561700D01*
X38726300Y-93555600D02*
X39142000Y-93139900D01*
X38720100Y-110097200D02*
X38726300Y-110091000D01*
X38720100Y-112906300D02*
X38874200Y-112752200D01*
X38726300Y-105561700D02*
X38475500Y-105310900D01*
X38720100Y-134383800D02*
X38720100Y-112906300D01*
X39142000Y-92943400D02*
X39479000Y-92606400D01*
%TO.N,/VariableWeights/CS123*%
X42193200Y-138401500D02*
X56369000Y-124225700D01*
X58240900Y-62385500D02*
X58240900Y-62151400D01*
X56369000Y-64257400D02*
X58240900Y-62385500D01*
X42193200Y-148298700D02*
X42193200Y-138401500D01*
X56369000Y-124225700D02*
X56369000Y-64257400D01*
X58240900Y-62151400D02*
X61546000Y-58846300D01*
%TO.N,/VariableWeights/CS124*%
X61546100Y-59785900D02*
X57594300Y-63737700D01*
X57594300Y-63737700D02*
X57594300Y-134113200D01*
X41106100Y-150601400D02*
X41106100Y-154358500D01*
X57594300Y-134113200D02*
X41106100Y-150601400D01*
%TO.N,/VariableWeights/CS132*%
X64171200Y-62451800D02*
X64198000Y-62425000D01*
X64171200Y-172689100D02*
X64171200Y-62451800D01*
X54605400Y-182254900D02*
X64171200Y-172689100D01*
%TO.N,/VariableWeights/CS136*%
X34815500Y-204258100D02*
X38285700Y-207728300D01*
X34815500Y-146675200D02*
X34815500Y-204258100D01*
%TO.N,/VariableWeights/CS142*%
X26832400Y-85110100D02*
X26832400Y-129757700D01*
X27529800Y-130455100D02*
X27529800Y-196169700D01*
X27529800Y-196169700D02*
X26872600Y-196826900D01*
X26341000Y-84618700D02*
X26832400Y-85110100D01*
X26832400Y-129757700D02*
X27529800Y-130455100D01*
X26872600Y-196826900D02*
X26872600Y-220114300D01*
%TO.N,/VariableWeights/CS145*%
X34208900Y-90595300D02*
X34208900Y-223712400D01*
X37689000Y-227192500D02*
X37689000Y-242232900D01*
X34208900Y-223712400D02*
X37689000Y-227192500D01*
%TO.N,/VariableWeights/CS156*%
X37412400Y-287862700D02*
X32970000Y-283420300D01*
X32970000Y-260372800D02*
X33138200Y-260204600D01*
X33138200Y-259728000D02*
X32970000Y-259559800D01*
X33138200Y-260204600D02*
X33138200Y-259728000D01*
X32970000Y-283420300D02*
X32970000Y-260372800D01*
X32970000Y-259559800D02*
X32970000Y-85481900D01*
%TO.N,/VariableWeights/CS161*%
X36636700Y-197322000D02*
X36636700Y-88565100D01*
X39650700Y-200784800D02*
X39650700Y-200336000D01*
X36636700Y-88565100D02*
X36791600Y-88410200D01*
X39650700Y-201449800D02*
X39744900Y-201355600D01*
X39650700Y-200336000D02*
X36636700Y-197322000D01*
X39650700Y-295827900D02*
X39650700Y-201449800D01*
X39744900Y-201355600D02*
X39744900Y-200879000D01*
X38820400Y-296658200D02*
X39650700Y-295827900D01*
X39744900Y-200879000D02*
X39650700Y-200784800D01*
%TO.N,/VariableWeights/CS213*%
X76399700Y-77949600D02*
X77277600Y-78827500D01*
X80269500Y-106489400D02*
X80269600Y-106489400D01*
X80269500Y-81819400D02*
X80269500Y-106489400D01*
X77277600Y-79117000D02*
X77614600Y-79454000D01*
X77277600Y-78827500D02*
X77277600Y-79117000D01*
X77904100Y-79454000D02*
X80269500Y-81819400D01*
X77614600Y-79454000D02*
X77904100Y-79454000D01*
%TO.N,/VariableWeights/CS215*%
X81086300Y-76799600D02*
X81086300Y-102462600D01*
X81086300Y-102462600D02*
X82503200Y-103879500D01*
X82503200Y-103879500D02*
X82503200Y-117723100D01*
X79769700Y-75483000D02*
X81086300Y-76799600D01*
X79769700Y-72266700D02*
X79769700Y-75483000D01*
%TO.N,/VariableWeights/CS221*%
X78428000Y-78640500D02*
X78428000Y-78675400D01*
X80735700Y-102854900D02*
X80983500Y-103102700D01*
X80983500Y-130686800D02*
X83158200Y-132861500D01*
X76399700Y-76647100D02*
X78056200Y-78303600D01*
X78056200Y-78303600D02*
X78091100Y-78303600D01*
X80735700Y-80983100D02*
X80735700Y-102854900D01*
X78428000Y-78675400D02*
X80735700Y-80983100D01*
X78091100Y-78303600D02*
X78428000Y-78640500D01*
X80983500Y-103102700D02*
X80983500Y-130686800D01*
%TO.N,/VariableWeights/CS223*%
X34018000Y-75933700D02*
X34535000Y-75416700D01*
X34018000Y-84472000D02*
X34018000Y-75933700D01*
X34878000Y-85332000D02*
X34018000Y-84472000D01*
X34878000Y-145359100D02*
X34878000Y-85332000D01*
%TO.N,/VariableWeights/CS224*%
X82690600Y-145658600D02*
X82690600Y-152230500D01*
X82751800Y-145120800D02*
X82751800Y-145597400D01*
X73747800Y-74939800D02*
X74101600Y-75293600D01*
X82751800Y-145597400D02*
X82690600Y-145658600D01*
X74101600Y-130003700D02*
X73757600Y-130347700D01*
X82690600Y-145059600D02*
X82751800Y-145120800D01*
X82690600Y-139645600D02*
X82690600Y-145059600D01*
X73397500Y-74939800D02*
X73747800Y-74939800D01*
X73757600Y-130865700D02*
X74123900Y-131232000D01*
X74101600Y-75293600D02*
X74101600Y-130003700D01*
X74277000Y-131232000D02*
X82690600Y-139645600D01*
X73757600Y-130347700D02*
X73757600Y-130865700D01*
X74123900Y-131232000D02*
X74277000Y-131232000D01*
%TO.N,/VariableWeights/CS231*%
X25130200Y-62383000D02*
X25130200Y-89335500D01*
X25480500Y-169265500D02*
X26998400Y-170783400D01*
X25926700Y-90132000D02*
X25926700Y-157725400D01*
X25926700Y-157725400D02*
X25480500Y-158171600D01*
X26998400Y-170783400D02*
X26998400Y-173925200D01*
X25130200Y-89335500D02*
X25926700Y-90132000D01*
X26085700Y-61427500D02*
X25130200Y-62383000D01*
X26998400Y-173925200D02*
X26899800Y-174023800D01*
X25480500Y-158171600D02*
X25480500Y-169265500D01*
%TO.N,/VariableWeights/CS232*%
X22336300Y-110262300D02*
X22336300Y-179347500D01*
X22902900Y-86556700D02*
X22902900Y-109695700D01*
X22894400Y-61174000D02*
X23173800Y-61453400D01*
X22981500Y-86478100D02*
X22902900Y-86556700D01*
X23173800Y-61453400D02*
X23173800Y-66055300D01*
X22902900Y-66326200D02*
X22902900Y-85922900D01*
X23173800Y-66055300D02*
X22902900Y-66326200D01*
X22902900Y-109695700D02*
X22336300Y-110262300D01*
X22981500Y-86001500D02*
X22981500Y-86478100D01*
X22902900Y-85922900D02*
X22981500Y-86001500D01*
%TO.N,/VariableWeights/CS234*%
X73458500Y-65613900D02*
X73458500Y-74314500D01*
X72772200Y-75198800D02*
X73138500Y-75565100D01*
X72772200Y-74680800D02*
X72772200Y-75198800D01*
X73407300Y-130202600D02*
X73407300Y-131010800D01*
X73458500Y-74314500D02*
X73138500Y-74314500D01*
X73397500Y-65613900D02*
X73458500Y-65613900D01*
X73751300Y-129858600D02*
X73407300Y-130202600D01*
X73751300Y-75962000D02*
X73751300Y-129858600D01*
X74131900Y-131582300D02*
X80712000Y-138162400D01*
X73138500Y-74314500D02*
X72772200Y-74680800D01*
X80712000Y-138162400D02*
X80712000Y-194195100D01*
X73407300Y-131010800D02*
X73978800Y-131582300D01*
X73138500Y-75565100D02*
X73354400Y-75565100D01*
X73354400Y-75565100D02*
X73751300Y-75962000D01*
X73978800Y-131582300D02*
X74131900Y-131582300D01*
%TO.N,/VariableWeights/CS235*%
X72831400Y-63708900D02*
X72831400Y-65295700D01*
X72772200Y-65354900D02*
X72772200Y-65872900D01*
X72421900Y-74535700D02*
X72421900Y-75343900D01*
X72772200Y-65872900D02*
X72831400Y-65932100D01*
X73751300Y-193243100D02*
X80696500Y-200188300D01*
X72831400Y-65932100D02*
X72831400Y-69804300D01*
X72831400Y-70758700D02*
X72831400Y-74126200D01*
X72831400Y-65295700D02*
X72772200Y-65354900D01*
X72772200Y-75973700D02*
X73401000Y-76602500D01*
X72831400Y-69804300D02*
X73070300Y-70043200D01*
X73070300Y-70519800D02*
X72831400Y-70758700D01*
X72831400Y-74126200D02*
X72421900Y-74535700D01*
X73057000Y-130057500D02*
X73057000Y-131155900D01*
X72421900Y-75343900D02*
X72772200Y-75694200D01*
X72772200Y-75694200D02*
X72772200Y-75973700D01*
X73401000Y-129713500D02*
X73057000Y-130057500D01*
X73751300Y-131850200D02*
X73751300Y-193243100D01*
X73401000Y-76602500D02*
X73401000Y-129713500D01*
X73057000Y-131155900D02*
X73751300Y-131850200D01*
X73070300Y-70043200D02*
X73070300Y-70519800D01*
%TO.N,/VariableWeights/CS261*%
X28928700Y-77270500D02*
X28928700Y-76793900D01*
X28579700Y-77800600D02*
X28579700Y-77619400D01*
X28928700Y-78626100D02*
X28928700Y-78149500D01*
X28591700Y-76457000D02*
X28579700Y-76445000D01*
X28766600Y-87049800D02*
X28766600Y-86283000D01*
X28766600Y-86283000D02*
X28579700Y-86096100D01*
X28751400Y-279654000D02*
X28674700Y-279577300D01*
X28591800Y-77812600D02*
X28591700Y-77812600D01*
X28579700Y-76445000D02*
X28579700Y-60764400D01*
X28674700Y-280207300D02*
X28751400Y-280130600D01*
X28579700Y-77619400D02*
X28591700Y-77607400D01*
X28674700Y-193595500D02*
X28324400Y-193245200D01*
X28579700Y-86096100D02*
X28579700Y-78975000D01*
X28579700Y-60764400D02*
X28278800Y-60463500D01*
X28591800Y-77607400D02*
X28928700Y-77270500D01*
X28591700Y-78963000D02*
X28591800Y-78963000D01*
X28278800Y-60463500D02*
X28278800Y-51219400D01*
X28591700Y-77607400D02*
X28591800Y-77607400D01*
X28591800Y-78963000D02*
X28928700Y-78626100D01*
X28928700Y-78149500D02*
X28591800Y-77812600D01*
X28591700Y-77812600D02*
X28579700Y-77800600D01*
X28579700Y-87236700D02*
X28766600Y-87049800D01*
X28324400Y-144265700D02*
X28579700Y-144010400D01*
X28324400Y-193245200D02*
X28324400Y-144265700D01*
X28591800Y-76457000D02*
X28591700Y-76457000D01*
X28579700Y-78975000D02*
X28591700Y-78963000D01*
X28674700Y-292198200D02*
X28674700Y-280207300D01*
X28928700Y-76793900D02*
X28591800Y-76457000D01*
X28674700Y-279577300D02*
X28674700Y-193595500D01*
X28751400Y-280130600D02*
X28751400Y-279654000D01*
X28579700Y-144010400D02*
X28579700Y-87236700D01*
%TO.N,/VariableWeights/CS263*%
X27671700Y-305780800D02*
X28083900Y-306193000D01*
X27671700Y-280201200D02*
X27671700Y-305780800D01*
X23975400Y-259301600D02*
X27671700Y-262997900D01*
X23975400Y-53319800D02*
X23975400Y-259301600D01*
X27601000Y-280130500D02*
X27671700Y-280201200D01*
X27601000Y-279654100D02*
X27601000Y-280130500D01*
X27671700Y-279583400D02*
X27601000Y-279654100D01*
X22906700Y-52251100D02*
X23975400Y-53319800D01*
X27671700Y-262997900D02*
X27671700Y-279583400D01*
%TO.N,/VariableWeights/CS264*%
X22895100Y-53169400D02*
X23625100Y-53899400D01*
X27250600Y-270904300D02*
X27250600Y-312235000D01*
X23625100Y-267278800D02*
X27250600Y-270904300D01*
X23625100Y-53899400D02*
X23625100Y-267278800D01*
%TO.N,/VariableWeights/CS252*%
X32230000Y-65331100D02*
X33074900Y-64486200D01*
X32563000Y-227837900D02*
X32563000Y-129749900D01*
X32230000Y-129416900D02*
X32230000Y-65331100D01*
X32563000Y-259966300D02*
X32563000Y-228331500D01*
X32563000Y-129749900D02*
X32230000Y-129416900D01*
X32571500Y-227846400D02*
X32563000Y-227837900D01*
X32563000Y-228331500D02*
X32571500Y-228323000D01*
X32571500Y-228323000D02*
X32571500Y-227846400D01*
%TO.N,/VariableWeights/CS253*%
X72706700Y-129912400D02*
X72706700Y-131301000D01*
X79452000Y-200030000D02*
X79452000Y-266683600D01*
X73050700Y-129568400D02*
X72706700Y-129912400D01*
X72411000Y-70365600D02*
X72411000Y-74051200D01*
X72071600Y-74390600D02*
X72071600Y-75489000D01*
X72411000Y-74051200D02*
X72071600Y-74390600D01*
X73347700Y-131942000D02*
X73347700Y-193925700D01*
X72495100Y-70281500D02*
X72411000Y-70365600D01*
X72706700Y-131301000D02*
X73347700Y-131942000D01*
X73347700Y-193925700D02*
X79452000Y-200030000D01*
X79452000Y-266683600D02*
X81440000Y-268671600D01*
X73050700Y-76747600D02*
X73050700Y-129568400D01*
X72071600Y-75489000D02*
X72411000Y-75828400D01*
X72411000Y-75828400D02*
X72411000Y-76107900D01*
X72411000Y-76107900D02*
X73050700Y-76747600D01*
%TO.N,/VariableWeights/CS255*%
X28115300Y-77812600D02*
X28115400Y-77812600D01*
X28127300Y-77800700D02*
X28127300Y-77619300D01*
X27778300Y-78149600D02*
X28115300Y-77812600D01*
X28115400Y-77607400D02*
X28115300Y-77607400D01*
X27974100Y-144120600D02*
X28127300Y-143967400D01*
X28127300Y-76445100D02*
X28127300Y-60807400D01*
X28229400Y-85765600D02*
X28229400Y-85289000D01*
X28127300Y-87193700D02*
X28416300Y-86904700D01*
X28115400Y-76457000D02*
X28127300Y-76445100D01*
X28416300Y-86428100D02*
X28127300Y-86139100D01*
X28127300Y-85186900D02*
X28127300Y-78974900D01*
X28127300Y-143967400D02*
X28127300Y-87193700D01*
X27778300Y-78626000D02*
X27778300Y-78149600D01*
X28115400Y-78963000D02*
X28115300Y-78963000D01*
X27974100Y-194795900D02*
X27974100Y-144120600D01*
X27778300Y-77270400D02*
X27778300Y-76794000D01*
X28176200Y-279892300D02*
X28176200Y-194998000D01*
X28127300Y-85867700D02*
X28229400Y-85765600D01*
X28127300Y-60807400D02*
X27071800Y-59751900D01*
X28416300Y-86904700D02*
X28416300Y-86428100D01*
X27778300Y-76794000D02*
X28115300Y-76457000D01*
X28115300Y-77607400D02*
X27778300Y-77270400D01*
X28127300Y-78974900D02*
X28115400Y-78963000D01*
X27071800Y-59751900D02*
X27071800Y-49919400D01*
X28115300Y-78963000D02*
X27778300Y-78626000D01*
X28115400Y-77812600D02*
X28127300Y-77800700D01*
X28176200Y-194998000D02*
X27974100Y-194795900D01*
X28229400Y-85289000D02*
X28127300Y-85186900D01*
X28127300Y-86139100D02*
X28127300Y-85867700D01*
X28115300Y-76457000D02*
X28115400Y-76457000D01*
X28127300Y-77619300D02*
X28115400Y-77607400D01*
%TO.N,/VariableWeights/CS256*%
X28668900Y-60358200D02*
X28668900Y-51749300D01*
X29436000Y-285870100D02*
X29436000Y-263276000D01*
X28674700Y-144410800D02*
X28930000Y-144155500D01*
X28930000Y-144155500D02*
X28930000Y-87381800D01*
X29116900Y-78933300D02*
X29279000Y-78771200D01*
X28674700Y-176063700D02*
X28674700Y-144410800D01*
X29052000Y-176441000D02*
X28674700Y-176063700D01*
X28930000Y-87381800D02*
X29116900Y-87194900D01*
X29052000Y-262892000D02*
X29052000Y-176441000D01*
X29279000Y-78771200D02*
X29279000Y-60968300D01*
X29116900Y-87194900D02*
X29116900Y-78933300D01*
X28668900Y-51749300D02*
X29194400Y-51223800D01*
X29436000Y-263276000D02*
X29052000Y-262892000D01*
X29279000Y-60968300D02*
X28668900Y-60358200D01*
%TO.N,/VariableWeights/CS312*%
X110158100Y-54810500D02*
X110076100Y-54728500D01*
X110158100Y-98533900D02*
X110158100Y-54810500D01*
%TO.N,/VariableWeights/CS314*%
X106702500Y-55332400D02*
X106702500Y-109770100D01*
X106702500Y-109770100D02*
X109446300Y-112513900D01*
%TO.N,/VariableWeights/CS322*%
X29761000Y-55083400D02*
X30111300Y-54733100D01*
X31534600Y-138786900D02*
X31184300Y-138436600D01*
X31534600Y-139282600D02*
X31534600Y-138786900D01*
X29991400Y-137243700D02*
X29991400Y-87806600D01*
X31184300Y-138436600D02*
X31149800Y-138436600D01*
X31149800Y-138436600D02*
X30812800Y-138099600D01*
X30812800Y-138099600D02*
X30812800Y-138065100D01*
X30167800Y-79368600D02*
X30329900Y-79206500D01*
X30167800Y-87630200D02*
X30167800Y-79368600D01*
X29761000Y-58745700D02*
X29761000Y-55083400D01*
X29991400Y-87806600D02*
X30167800Y-87630200D01*
X30329900Y-59314600D02*
X29761000Y-58745700D01*
X30812800Y-138065100D02*
X29991400Y-137243700D01*
X30329900Y-79206500D02*
X30329900Y-59314600D01*
%TO.N,/VariableWeights/CS331*%
X22911200Y-41898100D02*
X24429400Y-43416300D01*
X24429400Y-169098700D02*
X26369400Y-171038700D01*
X24429400Y-43416300D02*
X24429400Y-169098700D01*
%TO.N,/VariableWeights/CS332*%
X110357300Y-117731600D02*
X110357300Y-118208000D01*
X110733300Y-98772200D02*
X110608000Y-98897500D01*
X110608000Y-118458700D02*
X110608000Y-179677600D01*
X110608000Y-55010100D02*
X110608000Y-98170300D01*
X110651300Y-54966800D02*
X110608000Y-55010100D01*
X107109300Y-43561700D02*
X110608000Y-47060400D01*
X110608000Y-98897500D02*
X110608000Y-117480900D01*
X110357300Y-118208000D02*
X110608000Y-118458700D01*
X110651300Y-54490200D02*
X110651300Y-54966800D01*
X110608000Y-117480900D02*
X110357300Y-117731600D01*
X110608000Y-98170300D02*
X110733300Y-98295600D01*
X110733300Y-98295600D02*
X110733300Y-98772200D01*
X110608000Y-47060400D02*
X110608000Y-54446900D01*
X110608000Y-54446900D02*
X110651300Y-54490200D01*
%TO.N,/VariableWeights/CS343*%
X108070600Y-227893800D02*
X101905900Y-221729100D01*
X90355200Y-84810700D02*
X90355200Y-40779400D01*
X101905900Y-221729100D02*
X101905900Y-96361400D01*
X101905900Y-96361400D02*
X90355200Y-84810700D01*
%TO.N,/VariableWeights/CS344*%
X33874400Y-42703600D02*
X33130100Y-41959300D01*
X38084100Y-84254000D02*
X38084100Y-83777400D01*
X34671000Y-43534000D02*
X34670900Y-43534100D01*
X37774800Y-83468100D02*
X37774800Y-46604000D01*
X37774800Y-46604000D02*
X34704800Y-43534000D01*
X41055600Y-200307600D02*
X37052100Y-196304100D01*
X34194400Y-43534100D02*
X33857400Y-43197100D01*
X34704800Y-43534000D02*
X34671000Y-43534000D01*
X37052100Y-91433800D02*
X37774800Y-90711100D01*
X37774800Y-84563300D02*
X38084100Y-84254000D01*
X38084100Y-83777400D02*
X37774800Y-83468100D01*
X34670900Y-43534100D02*
X34194400Y-43534100D01*
X33874400Y-42703700D02*
X33874400Y-42703600D01*
X33857400Y-43197100D02*
X33857400Y-42720700D01*
X33857400Y-42720700D02*
X33874400Y-42703700D01*
X37774800Y-90711100D02*
X37774800Y-84563300D01*
X37052100Y-196304100D02*
X37052100Y-91433800D01*
X41055600Y-231788500D02*
X41055600Y-200307600D01*
%TO.N,/VariableWeights/CS346*%
X105547500Y-129442900D02*
X105507100Y-129402500D01*
X105547500Y-129919500D02*
X105547500Y-129442900D01*
X105507100Y-129402500D02*
X105507100Y-56995100D01*
X105507100Y-56995100D02*
X105542800Y-56959400D01*
X109449000Y-245884400D02*
X109449000Y-226359600D01*
X105507100Y-56447100D02*
X105507100Y-44760400D01*
X105542800Y-56482800D02*
X105507100Y-56447100D01*
X105542800Y-56959400D02*
X105542800Y-56482800D01*
X105507100Y-129959900D02*
X105547500Y-129919500D01*
X109449000Y-226359600D02*
X105507100Y-222417700D01*
X109023400Y-246310000D02*
X109449000Y-245884400D01*
X105507100Y-222417700D02*
X105507100Y-129959900D01*
%TO.N,/VariableWeights/CS351*%
X105413100Y-29607400D02*
X105413100Y-43498500D01*
X110827900Y-246355400D02*
X110827900Y-255981100D01*
X110728800Y-246256300D02*
X110827900Y-246355400D01*
X110827900Y-226013600D02*
X110827900Y-245680800D01*
X106127300Y-55094200D02*
X106127300Y-55570600D01*
X106135000Y-55086500D02*
X106127300Y-55094200D01*
X104314900Y-28509200D02*
X105413100Y-29607400D01*
X106135000Y-221320700D02*
X110827900Y-226013600D01*
X110827900Y-245680800D02*
X110728800Y-245779900D01*
X105413100Y-43498500D02*
X106135000Y-44220400D01*
X106127300Y-55570600D02*
X106135000Y-55578300D01*
X106135000Y-55578300D02*
X106135000Y-221320700D01*
X110728800Y-245779900D02*
X110728800Y-246256300D01*
X106135000Y-44220400D02*
X106135000Y-55086500D01*
%TO.N,/VariableWeights/CS355*%
X31312300Y-200689000D02*
X31049800Y-200426500D01*
X31312300Y-199687600D02*
X31312300Y-177010100D01*
X29817500Y-87485100D02*
X29817500Y-79223500D01*
X31312300Y-279306600D02*
X31312300Y-200689000D01*
X31312300Y-177010100D02*
X29375300Y-175073100D01*
X26855800Y-31337300D02*
X26855800Y-30817300D01*
X30176500Y-39109500D02*
X27206100Y-36139100D01*
X27000900Y-31436600D02*
X26955100Y-31436600D01*
X29369500Y-54137800D02*
X30176500Y-53330800D01*
X29630600Y-87672000D02*
X29817500Y-87485100D01*
X29817500Y-79223500D02*
X29979600Y-79061400D01*
X27206100Y-36139100D02*
X27206100Y-31641800D01*
X29369500Y-58849700D02*
X29369500Y-54137800D01*
X29630600Y-144621000D02*
X29630600Y-87672000D01*
X31049800Y-200426500D02*
X31049800Y-199950100D01*
X26955100Y-31436600D02*
X26855800Y-31337300D01*
X29979600Y-59459800D02*
X29369500Y-58849700D01*
X29979600Y-79061400D02*
X29979600Y-59459800D01*
X30176500Y-53330800D02*
X30176500Y-39109500D01*
X31049800Y-199950100D02*
X31312300Y-199687600D01*
X29375300Y-175073100D02*
X29375300Y-144876300D01*
X27206100Y-31641800D02*
X27000900Y-31436600D01*
X29375300Y-144876300D02*
X29630600Y-144621000D01*
%TO.N,/VariableWeights/CS356*%
X29280300Y-144300600D02*
X29280300Y-87526900D01*
X29629300Y-60327800D02*
X29019200Y-59717700D01*
X29019200Y-53567900D02*
X29826200Y-52760900D01*
X29629300Y-78916300D02*
X29629300Y-60327800D01*
X29025000Y-144555900D02*
X29280300Y-144300600D01*
X29467200Y-87340000D02*
X29467200Y-79078400D01*
X26855800Y-36974200D02*
X26855800Y-32150800D01*
X29826200Y-39944600D02*
X26855800Y-36974200D01*
X30572700Y-287198800D02*
X30572700Y-176765900D01*
X29025000Y-175218200D02*
X29025000Y-144555900D01*
X29467200Y-79078400D02*
X29629300Y-78916300D01*
X30572700Y-176765900D02*
X29025000Y-175218200D01*
X29826200Y-52760900D02*
X29826200Y-39944600D01*
X29280300Y-87526900D02*
X29467200Y-87340000D01*
X26855800Y-32150800D02*
X26547600Y-31842600D01*
X29019200Y-59717700D02*
X29019200Y-53567900D01*
%TO.N,/VariableWeights/CS421*%
X138719200Y-110868800D02*
X138966000Y-110622000D01*
X138719200Y-32571700D02*
X138966000Y-32324900D01*
X138719200Y-33048100D02*
X138719200Y-32571700D01*
X138966000Y-110622000D02*
X138966000Y-33294900D01*
X138966000Y-32324900D02*
X138966000Y-20359100D01*
X138966000Y-111592000D02*
X138719200Y-111345200D01*
X138966000Y-33294900D02*
X138719200Y-33048100D01*
X138966000Y-132439900D02*
X138966000Y-111592000D01*
X138719200Y-111345200D02*
X138719200Y-110868800D01*
%TO.N,/VariableWeights/CS422*%
X28197100Y-32460200D02*
X28197100Y-21169200D01*
X28197100Y-33567800D02*
X28512600Y-33252300D01*
X28197100Y-36490100D02*
X28197100Y-33567800D01*
X26650800Y-19622900D02*
X26072600Y-19622900D01*
X30579400Y-79452400D02*
X30680200Y-79351600D01*
X30750900Y-39043900D02*
X28197100Y-36490100D01*
X30579400Y-137052800D02*
X30579400Y-90415700D01*
X30341700Y-89701600D02*
X30579400Y-89463900D01*
X30680200Y-59169500D02*
X30111300Y-58600600D01*
X30579400Y-90415700D02*
X30341700Y-90178000D01*
X28512600Y-33252300D02*
X28512600Y-32775700D01*
X30579400Y-89463900D02*
X30579400Y-79452400D01*
X30111300Y-57824500D02*
X30750900Y-57184900D01*
X30341700Y-90178000D02*
X30341700Y-89701600D01*
X30680200Y-79351600D02*
X30680200Y-59169500D01*
X30111300Y-58600600D02*
X30111300Y-57824500D01*
X31388000Y-137861400D02*
X30579400Y-137052800D01*
X28512600Y-32775700D02*
X28197100Y-32460200D01*
X30750900Y-57184900D02*
X30750900Y-39043900D01*
X28197100Y-21169200D02*
X26650800Y-19622900D01*
%TO.N,/VariableWeights/CS423*%
X134454000Y-17043300D02*
X134413700Y-17003000D01*
X134413700Y-18234000D02*
X134454000Y-18193700D01*
X134764000Y-24600600D02*
X134413700Y-24250300D01*
X134413700Y-24250300D02*
X134413700Y-18234000D01*
X134454000Y-18193700D02*
X134454100Y-18193700D01*
X134413700Y-17003000D02*
X134413700Y-16241100D01*
X134454100Y-17043300D02*
X134454000Y-17043300D01*
X134791000Y-17380200D02*
X134454100Y-17043300D01*
X134764000Y-140228400D02*
X134764000Y-24600600D01*
X139650200Y-145114600D02*
X134764000Y-140228400D01*
X134454100Y-18193700D02*
X134791000Y-17856800D01*
X134791000Y-17856800D02*
X134791000Y-17380200D01*
%TO.N,/VariableWeights/CS425*%
X24779700Y-156368900D02*
X25301400Y-156890600D01*
X24779700Y-21926100D02*
X24779700Y-156368900D01*
X25690900Y-21014900D02*
X24779700Y-21926100D01*
%TO.N,/VariableWeights/CS426*%
X141232400Y-124185900D02*
X141296300Y-124122000D01*
X141232400Y-162348900D02*
X141232400Y-124185900D01*
X141451200Y-104383800D02*
X141451200Y-103907200D01*
X141232400Y-103688400D02*
X141232400Y-25058200D01*
X141296300Y-123645400D02*
X141232400Y-123581500D01*
X141296300Y-124122000D02*
X141296300Y-123645400D01*
X139728300Y-163853000D02*
X141232400Y-162348900D01*
X141232400Y-123581500D02*
X141232400Y-104602600D01*
X141451200Y-103907200D02*
X141232400Y-103688400D01*
X141232400Y-104602600D02*
X141451200Y-104383800D01*
%TO.N,/VariableWeights/CS433*%
X133888200Y-24890500D02*
X133888200Y-182712200D01*
X133667500Y-24669800D02*
X133888200Y-24890500D01*
X133640600Y-17856700D02*
X133667500Y-17883600D01*
X132543100Y-15969400D02*
X133724900Y-17151200D01*
X133888200Y-182712200D02*
X138302000Y-187126000D01*
X133724900Y-17296000D02*
X133640600Y-17380300D01*
X133724900Y-17151200D02*
X133724900Y-17296000D01*
X133667500Y-17883600D02*
X133667500Y-24669800D01*
X133640600Y-17380300D02*
X133640600Y-17856700D01*
%TO.N,/VariableWeights/CS436*%
X133262800Y-201148400D02*
X138439800Y-206325400D01*
X133262800Y-28106900D02*
X133262800Y-201148400D01*
%TO.N,/VariableWeights/CS443*%
X132637500Y-221475200D02*
X138701200Y-227538900D01*
X133042100Y-27443300D02*
X132637500Y-27847900D01*
X132637500Y-27847900D02*
X132637500Y-221475200D01*
X133042100Y-19402500D02*
X133042100Y-27443300D01*
%TO.N,/VariableWeights/CS444*%
X139891200Y-233410200D02*
X140450600Y-233969600D01*
X134413600Y-24920500D02*
X134413600Y-179534500D01*
X139891200Y-185012100D02*
X139891200Y-233410200D01*
X134017800Y-17816500D02*
X134017800Y-24524700D01*
X134215800Y-17618500D02*
X134017800Y-17816500D01*
X134017800Y-24524700D02*
X134413600Y-24920500D01*
X134413600Y-179534500D02*
X139891200Y-185012100D01*
%TO.N,/VariableWeights/CS445*%
X65304400Y-46938300D02*
X65757500Y-46485200D01*
X66778300Y-237700400D02*
X65973100Y-236895200D01*
X65518200Y-46145700D02*
X65518200Y-45669300D01*
X65757500Y-20316200D02*
X64316300Y-18875000D01*
X65784700Y-60337500D02*
X65784700Y-47943900D01*
X65304400Y-47463600D02*
X65304400Y-46938300D01*
X65877800Y-63115800D02*
X65877800Y-60430600D01*
X65973100Y-236895200D02*
X65973100Y-174369600D01*
X65757500Y-45430000D02*
X65757500Y-20316200D01*
X65877800Y-60430600D02*
X65784700Y-60337500D01*
X65784700Y-63208900D02*
X65877800Y-63115800D01*
X65784700Y-172239100D02*
X65784700Y-63208900D01*
X66596100Y-173746600D02*
X66596100Y-173050500D01*
X65518200Y-45669300D02*
X65757500Y-45430000D01*
X65784700Y-47943900D02*
X65304400Y-47463600D01*
X65973100Y-174369600D02*
X66596100Y-173746600D01*
X65757500Y-46485200D02*
X65757500Y-46385000D01*
X65757500Y-46385000D02*
X65518200Y-46145700D01*
X66596100Y-173050500D02*
X65784700Y-172239100D01*
%TO.N,/VariableWeights/CS446*%
X132287200Y-239761500D02*
X132287200Y-24092900D01*
X132416800Y-19661500D02*
X132416800Y-18629100D01*
X132287200Y-24092900D02*
X132630700Y-23749400D01*
X138833000Y-246197000D02*
X138496100Y-245860100D01*
X138833000Y-246307300D02*
X138833000Y-246197000D01*
X138385800Y-245860100D02*
X132287200Y-239761500D01*
X139325000Y-246799300D02*
X138833000Y-246307300D01*
X132630700Y-19875400D02*
X132416800Y-19661500D01*
X132630700Y-23749400D02*
X132630700Y-19875400D01*
X138496100Y-245860100D02*
X138385800Y-245860100D01*
%TO.N,/VariableWeights/CS454*%
X121221300Y-118581500D02*
X121221300Y-160949500D01*
X121308900Y-118493900D02*
X121221300Y-118581500D01*
X120910800Y-161260000D02*
X120910800Y-161736400D01*
X121136400Y-28851100D02*
X121136400Y-89131400D01*
X121221300Y-162046900D02*
X121221300Y-260597100D01*
X121221300Y-160949500D02*
X120910800Y-161260000D01*
X121308900Y-89303900D02*
X121308900Y-118493900D01*
X120910800Y-161736400D02*
X121221300Y-162046900D01*
X121136400Y-89131400D02*
X121308900Y-89303900D01*
X121221300Y-260597100D02*
X136531300Y-275907100D01*
%TO.N,/VariableWeights/CS455*%
X119333900Y-150921600D02*
X119333900Y-143004900D01*
X119285400Y-88840900D02*
X119285400Y-88364500D01*
X119307100Y-115684800D02*
X119307000Y-115684800D01*
X118970000Y-136222700D02*
X119307000Y-135885700D01*
X119307000Y-135885700D02*
X119307100Y-135885700D01*
X136531300Y-281884900D02*
X119333900Y-264687500D01*
X118970000Y-183850400D02*
X119307000Y-183513400D01*
X119333900Y-244279500D02*
X119333900Y-236411300D01*
X119333900Y-151634000D02*
X119215900Y-151516000D01*
X119215900Y-236293300D02*
X119215900Y-235816900D01*
X119333900Y-88316000D02*
X119333900Y-83497300D01*
X119333900Y-83497300D02*
X119285400Y-83448800D01*
X119307000Y-137036100D02*
X118970000Y-136699100D01*
X119333900Y-141800900D02*
X119333900Y-137062900D01*
X119333900Y-82923900D02*
X119333900Y-47462400D01*
X119307100Y-184663800D02*
X119307000Y-184663800D01*
X119307000Y-142978100D02*
X118970000Y-142641100D01*
X119285400Y-82972400D02*
X119333900Y-82923900D01*
X119333900Y-235698900D02*
X119333900Y-184690600D01*
X118970000Y-142164700D02*
X119307000Y-141827700D01*
X119215900Y-235816900D02*
X119333900Y-235698900D01*
X119307100Y-114534400D02*
X119333900Y-114507600D01*
X119333900Y-114507600D02*
X119333900Y-88889400D01*
X119333900Y-47462400D02*
X117451100Y-45579600D01*
X117451100Y-45579600D02*
X117451100Y-18355300D01*
X119333900Y-184690600D02*
X119307100Y-184663800D01*
X119307100Y-142978100D02*
X119307000Y-142978100D01*
X119333900Y-137062900D02*
X119307100Y-137036100D01*
X119333900Y-143004900D02*
X119307100Y-142978100D01*
X118970000Y-115347800D02*
X118970000Y-114871400D01*
X119333900Y-244991900D02*
X119215900Y-244873900D01*
X118970000Y-184326800D02*
X118970000Y-183850400D01*
X119215900Y-151039600D02*
X119333900Y-150921600D01*
X118970000Y-136699100D02*
X118970000Y-136222700D01*
X119307000Y-114534400D02*
X119307100Y-114534400D01*
X119333900Y-264687500D02*
X119333900Y-244991900D01*
X119285400Y-83448800D02*
X119285400Y-82972400D01*
X119307000Y-183513400D02*
X119307100Y-183513400D01*
X118970000Y-142641100D02*
X118970000Y-142164700D01*
X119333900Y-135858900D02*
X119333900Y-115711600D01*
X117451100Y-18355300D02*
X116590300Y-17494500D01*
X118970000Y-114871400D02*
X119307000Y-114534400D01*
X119307000Y-141827700D02*
X119307100Y-141827700D01*
X119333900Y-88889400D02*
X119285400Y-88840900D01*
X119333900Y-183486600D02*
X119333900Y-151634000D01*
X119307100Y-135885700D02*
X119333900Y-135858900D01*
X119307000Y-115684800D02*
X118970000Y-115347800D01*
X119307100Y-137036100D02*
X119307000Y-137036100D01*
X119215900Y-151516000D02*
X119215900Y-151039600D01*
X119307100Y-141827700D02*
X119333900Y-141800900D01*
X119333900Y-236411300D02*
X119215900Y-236293300D01*
X119215900Y-244397500D02*
X119333900Y-244279500D01*
X119307000Y-184663800D02*
X118970000Y-184326800D01*
X119307100Y-183513400D02*
X119333900Y-183486600D01*
X119285400Y-88364500D02*
X119333900Y-88316000D01*
X119215900Y-244873900D02*
X119215900Y-244397500D01*
X119333900Y-115711600D02*
X119307100Y-115684800D01*
%TO.N,/VariableWeights/CS461*%
X92674900Y-240884700D02*
X92674900Y-124758900D01*
X105981500Y-295414600D02*
X105981500Y-254191300D01*
X83181200Y-33170300D02*
X68885900Y-18875000D01*
X92674900Y-124758900D02*
X83181200Y-115265200D01*
X105981500Y-254191300D02*
X92674900Y-240884700D01*
X83181200Y-115265200D02*
X83181200Y-33170300D01*
%TO.N,/VariableWeights/CS462*%
X65084100Y-49137900D02*
X65072900Y-49126700D01*
X65072900Y-49126600D02*
X65349500Y-48850000D01*
X65072900Y-49126700D02*
X65072900Y-49126600D01*
X65349500Y-48850000D02*
X65349500Y-48373400D01*
X64954100Y-45738000D02*
X65402400Y-45289700D01*
X65402400Y-45289700D02*
X65402400Y-21075500D01*
X65082500Y-48106400D02*
X65082500Y-47737200D01*
X65349500Y-48373400D02*
X65082500Y-48106400D01*
X65280400Y-60328600D02*
X65280400Y-51267400D01*
X65280400Y-51267400D02*
X65084100Y-51071100D01*
X65280400Y-301479400D02*
X65280400Y-63217800D01*
X64954100Y-47608800D02*
X64954100Y-45738000D01*
X65084100Y-51071100D02*
X65084100Y-49137900D01*
X65527500Y-62970700D02*
X65527500Y-60575700D01*
X65280400Y-63217800D02*
X65527500Y-62970700D01*
X65527500Y-60575700D02*
X65280400Y-60328600D01*
X65082500Y-47737200D02*
X64954100Y-47608800D01*
X65402400Y-21075500D02*
X64488000Y-20161100D01*
%TO.N,/VariableWeights/CS463*%
X120871000Y-118436400D02*
X120871000Y-160804400D01*
X118171700Y-19356600D02*
X118024600Y-19503700D01*
X120871000Y-162192000D02*
X120871000Y-265196300D01*
X118024600Y-42196200D02*
X120786100Y-44957700D01*
X120560500Y-161881500D02*
X120871000Y-162192000D01*
X140519500Y-284844800D02*
X140519500Y-307820300D01*
X120871000Y-160804400D02*
X120560500Y-161114900D01*
X120786100Y-89341500D02*
X120958600Y-89514000D01*
X120560500Y-161114900D02*
X120560500Y-161881500D01*
X120958600Y-89514000D02*
X120958600Y-118348800D01*
X120786100Y-44957700D02*
X120786100Y-89341500D01*
X120958600Y-118348800D02*
X120871000Y-118436400D01*
X118024600Y-19503700D02*
X118024600Y-42196200D01*
X120871000Y-265196300D02*
X140519500Y-284844800D01*
%TO.N,/VariableWeights/CS464*%
X131922400Y-153680300D02*
X131922400Y-269762600D01*
X123396600Y-25365100D02*
X122970500Y-25791200D01*
X123345400Y-21446900D02*
X123396600Y-21498100D01*
X141151500Y-278991700D02*
X141151500Y-315276300D01*
X131922400Y-269762600D02*
X141151500Y-278991700D01*
X122970500Y-25791200D02*
X122970500Y-144728400D01*
X123396600Y-21498100D02*
X123396600Y-25365100D01*
X122970500Y-144728400D02*
X131922400Y-153680300D01*
X141151500Y-315276300D02*
X140652500Y-315775300D01*
%TO.N,/VariableWeights/CS513*%
X63300700Y-32008400D02*
X63300700Y-32634500D01*
X63300700Y-34601500D02*
X63036000Y-34866200D01*
X63277700Y-51882400D02*
X63569200Y-52173900D01*
X63569200Y-52173900D02*
X63569200Y-57144400D01*
X63079100Y-33332500D02*
X63300700Y-33554100D01*
X63300700Y-42508800D02*
X63594100Y-42802200D01*
X63569200Y-51114500D02*
X63277700Y-51406000D01*
X63036000Y-34866200D02*
X63036000Y-35342600D01*
X63576200Y-61808500D02*
X63545900Y-61838800D01*
X63594100Y-43859200D02*
X63492900Y-43960400D01*
X63300700Y-35607300D02*
X63300700Y-42508800D01*
X63545900Y-61838800D02*
X63545900Y-98044400D01*
X61047800Y-29755500D02*
X63300700Y-32008400D01*
X63576200Y-57151400D02*
X63576200Y-61808500D01*
X63300700Y-33554100D02*
X63300700Y-34601500D01*
X63569200Y-57144400D02*
X63576200Y-57151400D01*
X63569200Y-50553300D02*
X63569200Y-51114500D01*
X63079100Y-32856100D02*
X63079100Y-33332500D01*
X63492900Y-50477000D02*
X63569200Y-50553300D01*
X63277700Y-51406000D02*
X63277700Y-51882400D01*
X63594100Y-42802200D02*
X63594100Y-43859200D01*
X63300700Y-32634500D02*
X63079100Y-32856100D01*
X63492900Y-43960400D02*
X63492900Y-50477000D01*
X63036000Y-35342600D02*
X63300700Y-35607300D01*
%TO.N,/VariableWeights/CS515*%
X167936600Y-37649000D02*
X166168300Y-35880700D01*
X166168300Y-35880700D02*
X166168300Y-35413100D01*
X165363800Y-35076200D02*
X160460500Y-30172900D01*
X171100000Y-119242900D02*
X167936600Y-116079500D01*
X165831400Y-35076200D02*
X165363800Y-35076200D01*
X166168300Y-35413100D02*
X165831400Y-35076200D01*
X167936600Y-116079500D02*
X167936600Y-37649000D01*
%TO.N,/VariableWeights/CS516*%
X160007100Y-116815000D02*
X169335200Y-126143100D01*
X160007100Y-39659300D02*
X160007100Y-116815000D01*
%TD*%
M02*
