M48
; DRILL file {KiCad (6.99.0-3937-g3e53426b6c)} date Tue Mar 11 03:34:13 2025
; FORMAT={-:-/ absolute / inch / decimal}
; #@! TF.CreationDate,2025-03-11T03:34:13-04:00
; #@! TF.GenerationSoftware,Kicad,Pcbnew,(6.99.0-3937-g3e53426b6c)
; #@! TF.FileFunction,Plated,1,10,PTH
FMAT,2
INCH
; #@! TA.AperFunction,Plated,PTH,ViaDrill
T1C0.0079
; #@! TA.AperFunction,Plated,PTH,ViaDrill
T2C0.0157
; #@! TA.AperFunction,Plated,PTH,ComponentDrill
T3C0.0394
; #@! TA.AperFunction,Plated,PTH,ViaDrill
T4C0.1260
%
G90
G05
T1
X0.8425Y-2.1378
X0.8622Y-2.6496
X0.874Y-3.5512
X0.878Y-3.122
X0.8976Y-2.2362
X0.9331Y-0.9961
X1.0114Y-3.4059
X1.0276Y-1.3819
X1.0669Y-1.8504
X1.1163Y-3.0328
X1.1535Y-1.7441
X1.1536Y-1.9449
X1.1732Y-0.6614
X1.2467Y-2.7205
X1.2992Y-2.3425
X1.3031Y-2.7876
X1.315Y-1.5157
X1.3189Y-0.9055
X1.3189Y-1.0787
X1.3217Y-3.4883
X1.3583Y-2.1535
X1.3611Y-3.2165
X1.3937Y-1.3898
X1.5276Y-1.6142
X1.6854Y-1.3521
X1.8268Y-2.6654
X1.8386Y-1.5984
X1.874Y-12.622
X1.876Y-8.6673
X1.878Y-6.2581
X1.878Y-7.3386
X1.878Y-7.6024
X1.8819Y-6.7545
X1.8819Y-7.0984
X1.8819Y-7.8583
X1.8819Y-8.9252
X1.8819Y-12.122
X1.8819Y-13.1299
X1.8898Y-8.3728
X1.8937Y-9.9331
X1.9055Y-11.5245
X1.9098Y-5.7562
X1.9961Y-1.3133
X2.0678Y-1.7839
X2.2283Y-1.3071
X2.2441Y-1.3976
X2.2795Y-9.2283
X2.2821Y-1.3866
X2.2992Y-2.2402
X2.3307Y-10.0433
X2.3622Y-1.4006
X2.3777Y-1.7259
X2.4016Y-1.7165
X2.4094Y-2.1024
X2.4291Y-1.9094
X2.4374Y-2.1018
X2.5276Y-1.0079
X2.5494Y-1.7072
X2.6142Y-2.2756
X2.6811Y-1.5236
X2.685Y-11.7918
X2.685Y-12.5709
X2.689Y-13.0594
X2.6929Y-1.9213
X2.6969Y-11.5245
X2.7008Y-1.3186
X2.7087Y-8.6362
X2.7126Y-7.7953
X2.7126Y-8.9213
X2.7126Y-9.8976
X2.7205Y-7.2568
X2.7252Y-5.0866
X2.7252Y-6.1818
X2.7362Y-8.2992
X2.7406Y-4.3698
X2.7441Y-2.126
X2.7441Y-2.5472
X2.748Y-6.432
X3.1732Y-12.6575
X3.5157Y-11.8716
X3.5512Y-13.1024
X3.569Y-10.7619
X3.5709Y-10.5354
X3.5709Y-11.0197
X3.5787Y-5.1213
X3.5787Y-10.2638
X3.5787Y-11.5236
X3.6036Y-9.6496
X3.6036Y-9.8958
X3.6063Y-3.8159
X3.6712Y-9.3872
X3.6727Y-6.7924
X3.6739Y-8.8876
X3.6785Y-8.3071
X3.679Y-9.1533
X3.7027Y-8.6385
X4.1457Y-11.126
X4.1519Y-10.9631
X4.3559Y-1.2714
X4.6102Y-12.5472
X4.6181Y-13.1007
X4.6299Y-11.5402
X4.6693Y-9.8545
X4.6772Y-8.2677
X5.4055Y-6.9291
X5.626Y-6.5591
X5.7678Y-12.8012
X5.8127Y-9.3953
X5.815Y-9.9016
X5.8189Y-13.1007
X5.8307Y-6.1225
X5.8605Y-8.6369
X6.6811Y-5.2205
X6.9867Y-6.1597
X7.0426Y-6.8064
X7.1017Y-5.0603
X8.1772Y-3.5039
X8.1772Y-3.5315
X8.1929Y-4.8543
X8.2068Y-5.575
X8.2087Y-4.1991
X8.2171Y-4.8661
X8.2202Y-6.2238
X8.2244Y-4.1439
X8.2283Y-5.529
X8.2283Y-6.2459
X8.2292Y-5.5605
X8.2355Y-4.21
X8.2362Y-8.3268
X8.2431Y-10.4661
X8.2559Y-6.9134
X8.2559Y-9.0315
X8.2559Y-9.0551
X8.2574Y-6.9385
X8.2584Y-9.0025
X8.2592Y-7.6927
X8.2594Y-7.6378
X8.2594Y-7.6654
X8.27Y-10.4724
X8.2707Y-2.0349
X8.2755Y-10.4211
X8.2774Y-2.0609
X8.2795Y-1.3858
X8.2795Y-2.0866
X8.2813Y-1.4134
X8.2992Y-11.9213
X8.2995Y-11.8422
X8.3006Y-11.1387
X8.3018Y-12.5695
X8.3021Y-6.2874
X8.3021Y-6.9685
X8.3031Y-11.1126
X8.3031Y-8.3465
X8.3043Y-11.1654
X8.3071Y-8.3819
X8.3071Y-11.8937
X8.3071Y-13.2913
X8.311Y-13.315
X8.315Y-12.6299
X8.3156Y-12.5503
X8.322Y-4.8288
X8.3289Y-3.4587
X8.3307Y-1.3583
X8.3307Y-13.2729
X8.333Y-9.7441
X8.3346Y-9.8071
X8.3433Y-9.7228
X8.4488Y-8.437
X8.5315Y-13.374
X8.563Y-3.5709
X8.563Y-3.9567
X8.5715Y-6.3196
X8.5787Y-5.6299
X8.5817Y-11.1762
X8.5827Y-10.5512
X8.5945Y-3.5591
X8.6102Y-2.7953
X8.6369Y-9.0373
X8.8228Y-6.2913
X8.8372Y-6.9317
X8.8386Y-6.9567
X8.8415Y-6.3071
X8.8425Y-4.1732
X8.8425Y-5.5811
X8.8455Y-4.8465
X8.8455Y-4.8701
X8.8455Y-5.626
X8.8583Y-6.2244
X8.8742Y-3.4882
X8.8774Y-8.9995
X8.8786Y-5.5347
X8.8797Y-9.0236
X8.8929Y-4.1192
X8.8937Y-4.1772
X8.8976Y-4.2047
X8.9133Y-11.1101
X8.9173Y-3.5354
X8.9173Y-9.7598
X8.9173Y-9.7874
X8.9173Y-9.811
X8.9192Y-11.1329
X8.9252Y-3.4547
X8.9252Y-11.1575
X8.9291Y-11.8858
X8.9291Y-11.9094
X8.9312Y-11.8622
X8.9312Y-12.5577
X8.9448Y-2.0392
X8.9488Y-1.378
X8.9488Y-1.4016
X8.9488Y-2.063
X8.9488Y-6.8957
X8.9534Y-1.3548
X8.9546Y-2.7184
X8.9567Y-2.0906
X8.9567Y-2.7441
X8.9603Y-2.7717
X8.9616Y-7.6339
X8.9616Y-8.3031
X8.9646Y-7.6063
X8.9651Y-4.8258
X8.9685Y-8.3622
X8.9706Y-5.5473
X8.9764Y-7.6811
X8.9804Y-9.7031
X8.9861Y-8.2786
X8.9882Y-12.622
X8.9921Y-13.2874
X8.9921Y-13.3386
X8.9957Y-9.0393
X8.9968Y-13.2625
X9.0109Y-12.5396
X9.1299Y-6.9816
X9.185Y-9.0748
X9.2126Y-4.9009
X9.2717Y-11.9409
X9.2724Y-10.4921
X9.3031Y-6.2992
X9.5207Y-5.9774
X9.5207Y-6.0037
X9.5706Y-12.314
X9.5721Y-12.2876
X9.6Y-8.0284
X9.6009Y-8.0534
X9.6159Y-10.183
X9.6168Y-10.1575
X9.6732Y-7.991
X9.7677Y-3.7874
X10.9291Y-12.3504
X10.9291Y-13.0551
X10.9392Y-2.9154
X10.9397Y-4.9808
X10.9449Y-10.3189
X10.9449Y-11.0276
X10.9471Y-1.565
X10.9471Y-3.5925
X10.9471Y-5.6201
X10.9471Y-7.6476
X10.9471Y-9.6752
X10.9471Y-11.7028
X10.9665Y-8.2656
X10.9685Y-2.1772
X10.9909Y-6.315
X10.9959Y-8.3307
X10.9959Y-9.0472
X11.0077Y-2.4162
X11.0077Y-4.4437
X11.0077Y-6.4713
X11.0077Y-8.4989
X11.0077Y-10.5264
X11.0077Y-12.554
X11.0082Y-1.7372
X11.0082Y-3.7648
X11.0082Y-5.7923
X11.0082Y-7.8199
X11.0082Y-9.8474
X11.0082Y-11.875
X11.0088Y-1.7613
X11.0088Y-3.7888
X11.0088Y-5.8164
X11.0088Y-7.8439
X11.0088Y-9.8715
X11.0088Y-11.8991
X11.0104Y-2.3927
X11.0104Y-4.4203
X11.0104Y-6.4478
X11.0104Y-8.4754
X11.0104Y-10.503
X11.0104Y-12.5305
X11.0118Y-7.0394
X11.0219Y-2.435
X11.0219Y-4.4626
X11.0219Y-6.4902
X11.0219Y-8.5177
X11.0219Y-10.5453
X11.0219Y-12.5728
X11.0236Y-10.0079
X11.0237Y-3.1252
X11.0237Y-5.1527
X11.0237Y-7.1803
X11.0237Y-9.2078
X11.0237Y-11.2354
X11.0237Y-13.263
X11.0258Y-1.7815
X11.0258Y-3.8091
X11.0258Y-5.8366
X11.0258Y-7.8642
X11.0258Y-9.8917
X11.0258Y-11.9193
X11.0288Y-3.1004
X11.0288Y-5.128
X11.0288Y-7.1555
X11.0288Y-9.1831
X11.0288Y-11.2106
X11.0288Y-13.2382
X11.0298Y-1.6555
X11.0298Y-2.2815
X11.0298Y-3.6831
X11.0298Y-4.3091
X11.0298Y-5.7106
X11.0298Y-6.3366
X11.0298Y-7.7382
X11.0298Y-8.3642
X11.0298Y-9.7657
X11.0298Y-10.3917
X11.0298Y-11.7933
X11.0298Y-12.4193
X11.0455Y-3.1358
X11.0455Y-5.1634
X11.0455Y-7.1909
X11.0455Y-9.2185
X11.0455Y-11.2461
X11.0455Y-13.2736
X11.0494Y-2.9862
X11.0494Y-5.0138
X11.0494Y-7.0413
X11.0494Y-9.0689
X11.0494Y-11.0965
X11.0494Y-13.124
X11.0652Y-2.5807
X11.0652Y-4.6083
X11.0652Y-6.6358
X11.0652Y-8.6634
X11.0652Y-10.6909
X11.0652Y-12.7185
X11.0866Y-5.9843
X11.0888Y-1.8721
X11.0888Y-3.8996
X11.0888Y-5.9272
X11.0888Y-7.9547
X11.0888Y-9.9823
X11.0888Y-12.0098
X11.0928Y-2.5374
X11.0928Y-4.565
X11.0928Y-6.5925
X11.0928Y-8.6201
X11.0928Y-10.6476
X11.0928Y-12.6752
X11.0945Y-1.9252
X11.0945Y-12.0551
X11.0984Y-3.9449
X11.1006Y-3.2815
X11.1006Y-5.3091
X11.1006Y-7.3366
X11.1006Y-9.3642
X11.1006Y-11.3917
X11.1006Y-13.4193
X11.1243Y-3.2343
X11.1243Y-5.2618
X11.1243Y-7.2894
X11.1243Y-9.3169
X11.1243Y-11.3445
X11.1243Y-13.372
X11.1754Y-1.792
X11.1754Y-3.8196
X11.1754Y-5.8471
X11.1754Y-7.8747
X11.1754Y-9.9022
X11.1754Y-11.9298
X11.1754Y-1.7185
X11.1754Y-3.7461
X11.1754Y-5.7736
X11.1754Y-7.8012
X11.1754Y-9.8287
X11.1754Y-11.8563
X11.1757Y-1.7684
X11.1757Y-3.796
X11.1757Y-5.8235
X11.1757Y-7.8511
X11.1757Y-9.8787
X11.1757Y-11.9062
X11.1794Y-2.4193
X11.1794Y-2.4429
X11.1794Y-4.4469
X11.1794Y-4.4705
X11.1794Y-6.4744
X11.1794Y-6.498
X11.1794Y-8.502
X11.1794Y-8.5256
X11.1794Y-10.5295
X11.1794Y-10.5531
X11.1794Y-12.5571
X11.1794Y-12.5807
X11.185Y-10.0088
X11.1872Y-2.3681
X11.1872Y-4.3957
X11.1872Y-6.4232
X11.1872Y-8.4508
X11.1872Y-10.4783
X11.1872Y-12.5059
X11.2047Y-7.9843
X11.2109Y-3.0689
X11.2109Y-3.1319
X11.2109Y-5.0965
X11.2109Y-5.1594
X11.2109Y-7.124
X11.2109Y-7.187
X11.2109Y-9.1516
X11.2109Y-9.2146
X11.2109Y-11.1791
X11.2109Y-11.2421
X11.2109Y-13.2067
X11.2109Y-13.2697
X11.2111Y-3.1065
X11.2111Y-5.1341
X11.2111Y-7.1616
X11.2111Y-9.1892
X11.2111Y-11.2167
X11.2111Y-13.2443
X11.2306Y-1.7067
X11.2306Y-3.7343
X11.2306Y-5.7618
X11.2306Y-7.7894
X11.2306Y-9.8169
X11.2306Y-11.8445
X11.2463Y-2.3445
X11.2463Y-4.372
X11.2463Y-6.3996
X11.2463Y-8.4272
X11.2463Y-10.4547
X11.2463Y-12.4823
X11.2739Y-2.4193
X11.2739Y-4.4469
X11.2739Y-6.4744
X11.2739Y-8.502
X11.2739Y-10.5295
X11.2739Y-12.5571
X11.2817Y-2.2697
X11.2817Y-4.2972
X11.2817Y-6.3248
X11.2817Y-8.3524
X11.2817Y-10.3799
X11.2817Y-12.4075
X11.2935Y-3.0453
X11.2935Y-5.0728
X11.2935Y-7.1004
X11.2935Y-9.128
X11.2935Y-11.1555
X11.2935Y-13.1831
X11.3054Y-1.6673
X11.3054Y-3.6949
X11.3054Y-5.7224
X11.3054Y-7.75
X11.3054Y-9.7776
X11.3054Y-11.8051
X11.329Y-3.2028
X11.329Y-5.2303
X11.329Y-7.2579
X11.329Y-9.2854
X11.329Y-11.313
X11.329Y-13.3406
X11.3329Y-3.0256
X11.3329Y-5.0531
X11.3329Y-7.0807
X11.3329Y-9.1083
X11.3329Y-11.1358
X11.3329Y-13.1634
X11.7464Y-4.0159
X12.937Y-12.1732
X12.9724Y-10.1654
X12.9764Y-12.8858
X12.9825Y-1.5059
X12.9825Y-3.5087
X12.9825Y-5.5114
X12.9825Y-7.5142
X12.9825Y-9.5169
X12.9825Y-11.5197
X13.0039Y-2.1142
X13.0197Y-2.9016
X13.0315Y-10.9134
X13.0431Y-2.3571
X13.0431Y-4.3599
X13.0431Y-6.3626
X13.0431Y-8.3654
X13.0431Y-10.3681
X13.0431Y-12.3709
X13.0437Y-1.6781
X13.0437Y-3.6809
X13.0437Y-5.6837
X13.0437Y-9.6892
X13.0437Y-11.6919
X13.0442Y-1.7022
X13.0442Y-3.705
X13.0442Y-5.7077
X13.0442Y-7.7105
X13.0442Y-9.7132
X13.0442Y-11.716
X13.0459Y-2.3337
X13.0459Y-4.3364
X13.0459Y-6.3392
X13.0459Y-8.3419
X13.0459Y-10.3447
X13.0459Y-12.3474
X13.0573Y-2.376
X13.0573Y-4.3787
X13.0573Y-6.3815
X13.0573Y-8.3843
X13.0573Y-10.387
X13.0573Y-12.3898
X13.0592Y-3.0661
X13.0592Y-5.0689
X13.0592Y-7.0716
X13.0592Y-9.0744
X13.0592Y-11.0771
X13.0592Y-13.0799
X13.0613Y-1.7224
X13.0613Y-3.7252
X13.0613Y-5.728
X13.0613Y-7.7307
X13.0613Y-9.7335
X13.0613Y-11.7362
X13.0615Y-8.9198
X13.0643Y-3.0413
X13.0643Y-5.0441
X13.0643Y-7.0469
X13.0643Y-9.0496
X13.0643Y-11.0524
X13.0643Y-13.0551
X13.0652Y-1.5965
X13.0652Y-2.2224
X13.0652Y-3.5992
X13.0652Y-4.2252
X13.0652Y-5.602
X13.0652Y-6.228
X13.0652Y-7.6047
X13.0652Y-8.2307
X13.0652Y-9.6075
X13.0652Y-10.2335
X13.0652Y-11.6102
X13.0652Y-12.2362
X13.0809Y-3.0768
X13.0809Y-5.0795
X13.0809Y-7.0823
X13.0809Y-9.085
X13.0809Y-11.0878
X13.0809Y-13.0906
X13.0849Y-2.9272
X13.0849Y-4.9299
X13.0849Y-6.9327
X13.0849Y-8.9354
X13.0849Y-10.9382
X13.0849Y-12.9409
X13.1006Y-2.5217
X13.1006Y-4.5244
X13.1006Y-6.5272
X13.1006Y-8.5299
X13.1006Y-10.5327
X13.1006Y-12.5354
X13.1243Y-1.813
X13.1243Y-3.8158
X13.1243Y-5.8185
X13.1243Y-7.8213
X13.1243Y-9.824
X13.1243Y-11.8268
X13.1282Y-2.4784
X13.1282Y-4.4811
X13.1282Y-6.4839
X13.1282Y-8.4866
X13.1282Y-10.4894
X13.1282Y-12.4921
X13.1299Y-5.874
X13.1299Y-7.8701
X13.1299Y-11.874
X13.1319Y-3.8563
X13.1361Y-3.2224
X13.1361Y-5.2252
X13.1361Y-7.228
X13.1361Y-9.2307
X13.1361Y-11.2335
X13.1361Y-13.2362
X13.1378Y-9.874
X13.1597Y-3.1752
X13.1597Y-5.178
X13.1597Y-7.1807
X13.1597Y-9.1835
X13.1597Y-11.1862
X13.1597Y-13.189
X13.2108Y-1.733
X13.2108Y-3.7357
X13.2108Y-5.7385
X13.2108Y-7.7412
X13.2108Y-9.744
X13.2108Y-11.7467
X13.2109Y-1.6595
X13.2109Y-3.6622
X13.2109Y-5.665
X13.2109Y-7.6677
X13.2109Y-9.6705
X13.2109Y-11.6732
X13.2112Y-1.7094
X13.2112Y-3.7121
X13.2112Y-5.7149
X13.2112Y-7.7176
X13.2112Y-9.7204
X13.2112Y-11.7231
X13.2148Y-2.3602
X13.2148Y-2.3838
X13.2148Y-4.363
X13.2148Y-4.3866
X13.2148Y-6.3657
X13.2148Y-6.3894
X13.2148Y-8.3685
X13.2148Y-8.3921
X13.2148Y-10.3713
X13.2148Y-10.3949
X13.2148Y-12.374
X13.2148Y-12.3976
X13.2227Y-2.3091
X13.2227Y-4.3118
X13.2227Y-6.3146
X13.2227Y-8.3173
X13.2227Y-10.3201
X13.2227Y-12.3228
X13.2362Y-1.8346
X13.2463Y-3.0099
X13.2463Y-3.0728
X13.2463Y-5.0126
X13.2463Y-5.0756
X13.2463Y-7.0154
X13.2463Y-7.0783
X13.2463Y-9.0181
X13.2463Y-9.0811
X13.2463Y-11.0209
X13.2463Y-11.0839
X13.2463Y-13.0236
X13.2463Y-13.0866
X13.2465Y-3.0474
X13.2465Y-5.0502
X13.2465Y-7.053
X13.2465Y-9.0557
X13.2465Y-11.0585
X13.2465Y-13.0612
X13.266Y-1.6476
X13.266Y-3.6504
X13.266Y-5.6531
X13.266Y-7.6559
X13.266Y-9.6587
X13.266Y-11.6614
X13.2817Y-2.2854
X13.2817Y-4.2882
X13.2817Y-6.2909
X13.2817Y-8.2937
X13.2817Y-10.2965
X13.2817Y-12.2992
X13.3093Y-2.3602
X13.3093Y-4.363
X13.3093Y-6.3657
X13.3093Y-8.3685
X13.3093Y-10.3713
X13.3093Y-12.374
X13.3172Y-2.2106
X13.3172Y-4.2134
X13.3172Y-6.2161
X13.3172Y-8.2189
X13.3172Y-10.2217
X13.3172Y-12.2244
X13.329Y-2.9862
X13.329Y-4.989
X13.329Y-6.9917
X13.329Y-8.9945
X13.329Y-10.9972
X13.329Y-13.0
X13.3408Y-1.6083
X13.3408Y-3.611
X13.3408Y-5.6138
X13.3408Y-7.6165
X13.3408Y-9.6193
X13.3408Y-11.622
X13.3644Y-3.1437
X13.3644Y-5.1465
X13.3644Y-7.1492
X13.3644Y-9.152
X13.3644Y-11.1547
X13.3644Y-13.1575
X13.3683Y-2.9665
X13.3683Y-4.9693
X13.3683Y-6.972
X13.3683Y-8.9748
X13.3683Y-10.9776
X13.3683Y-12.9803
X13.7819Y-3.9332
X14.9645Y-6.1181
X14.9961Y-12.8976
X14.9977Y-2.7622
X15.0039Y-12.1929
X15.0079Y-2.063
X15.0108Y-4.0906
X15.0157Y-4.7872
X15.0196Y-1.4198
X15.0196Y-3.4451
X15.0196Y-5.4705
X15.0196Y-7.4958
X15.0196Y-9.5212
X15.0196Y-11.5465
X15.0669Y-10.2165
X15.0787Y-10.9291
X15.0803Y-2.271
X15.0803Y-4.2963
X15.0803Y-6.3217
X15.0803Y-8.347
X15.0803Y-10.3724
X15.0803Y-12.3978
X15.0807Y-1.592
X15.0807Y-3.6174
X15.0807Y-5.6427
X15.0807Y-7.6681
X15.0807Y-9.6934
X15.0807Y-11.7188
X15.0813Y-1.6161
X15.0813Y-3.6414
X15.0813Y-5.6668
X15.0813Y-7.6921
X15.0813Y-9.7175
X15.0813Y-11.7428
X15.083Y-2.2475
X15.083Y-4.2729
X15.083Y-6.2982
X15.083Y-8.3236
X15.083Y-10.3489
X15.083Y-12.3743
X15.0944Y-2.2899
X15.0944Y-4.3152
X15.0944Y-6.3406
X15.0944Y-8.3659
X15.0944Y-10.3913
X15.0944Y-12.4166
X15.0963Y-2.98
X15.0963Y-5.0053
X15.0963Y-7.0307
X15.0963Y-9.056
X15.0963Y-11.0814
X15.0963Y-13.1067
X15.0983Y-1.6363
X15.0983Y-3.6617
X15.0983Y-5.687
X15.0983Y-7.7124
X15.0983Y-9.7377
X15.0983Y-11.7631
X15.1013Y-2.9552
X15.1013Y-4.9806
X15.1013Y-7.0059
X15.1013Y-9.0313
X15.1013Y-11.0566
X15.1013Y-13.082
X15.1023Y-1.5103
X15.1023Y-2.1363
X15.1023Y-3.5357
X15.1023Y-4.1617
X15.1023Y-5.561
X15.1023Y-6.187
X15.1023Y-7.5864
X15.1023Y-8.2124
X15.1023Y-9.6117
X15.1023Y-10.2377
X15.1023Y-11.6371
X15.1023Y-12.2631
X15.1098Y-4.4605
X15.118Y-2.9906
X15.118Y-5.016
X15.118Y-7.0413
X15.118Y-9.0667
X15.118Y-11.092
X15.118Y-13.1174
X15.122Y-2.841
X15.122Y-4.8664
X15.122Y-6.8917
X15.122Y-8.9171
X15.122Y-10.9424
X15.122Y-12.9678
X15.1284Y-3.8204
X15.1377Y-2.4355
X15.1377Y-4.4609
X15.1377Y-6.4862
X15.1377Y-8.5116
X15.1377Y-10.5369
X15.1377Y-12.5623
X15.1577Y-11.9016
X15.1613Y-1.7269
X15.1613Y-3.7522
X15.1613Y-5.7776
X15.1613Y-7.8029
X15.1613Y-9.8283
X15.1613Y-11.8536
X15.1614Y-9.878
X15.1653Y-2.3922
X15.1653Y-4.4176
X15.1653Y-6.4429
X15.1653Y-8.4683
X15.1653Y-10.4936
X15.1653Y-12.519
X15.1693Y-7.8543
X15.1731Y-3.1363
X15.1731Y-5.1617
X15.1731Y-7.187
X15.1731Y-9.2124
X15.1731Y-11.2377
X15.1731Y-13.2631
X15.1772Y-3.7982
X15.1811Y-1.7756
X15.1811Y-5.8307
X15.1968Y-3.0891
X15.1968Y-5.1144
X15.1968Y-7.1398
X15.1968Y-9.1651
X15.1968Y-11.1905
X15.1968Y-13.2158
X15.2479Y-1.6468
X15.2479Y-3.6722
X15.2479Y-5.6975
X15.2479Y-7.7229
X15.2479Y-11.7736
X15.248Y-1.5733
X15.248Y-3.5987
X15.248Y-5.624
X15.248Y-7.6494
X15.248Y-9.6747
X15.248Y-11.7001
X15.2483Y-1.6232
X15.2483Y-3.6486
X15.2483Y-5.6739
X15.2483Y-7.6993
X15.2483Y-9.7246
X15.2483Y-11.75
X15.2519Y-2.2741
X15.2519Y-2.2977
X15.2519Y-4.2994
X15.2519Y-4.3231
X15.2519Y-6.3248
X15.2519Y-6.3484
X15.2519Y-8.3502
X15.2519Y-8.3738
X15.2519Y-10.3755
X15.2519Y-10.3991
X15.2519Y-12.4009
X15.2519Y-12.4245
X15.2598Y-2.2229
X15.2598Y-4.2483
X15.2598Y-6.2736
X15.2598Y-8.299
X15.2598Y-10.3243
X15.2598Y-12.3497
X15.2834Y-2.9237
X15.2834Y-2.9867
X15.2834Y-4.9491
X15.2834Y-5.012
X15.2834Y-6.9744
X15.2834Y-7.0374
X15.2834Y-8.9998
X15.2834Y-9.0628
X15.2834Y-11.0251
X15.2834Y-11.0881
X15.2834Y-13.0505
X15.2834Y-13.1135
X15.2836Y-2.9613
X15.2836Y-4.9867
X15.2836Y-7.012
X15.2836Y-9.0374
X15.2836Y-11.0627
X15.2836Y-13.0881
X15.3031Y-1.5615
X15.3031Y-3.5869
X15.3031Y-5.6122
X15.3031Y-7.6376
X15.3031Y-9.6629
X15.3031Y-11.6883
X15.3188Y-2.1993
X15.3188Y-4.2246
X15.3188Y-6.25
X15.3188Y-8.2754
X15.3188Y-10.3007
X15.3188Y-12.3261
X15.3464Y-2.2741
X15.3464Y-4.2994
X15.3464Y-6.3248
X15.3464Y-8.3502
X15.3464Y-10.3755
X15.3464Y-12.4009
X15.3543Y-2.1245
X15.3543Y-4.1498
X15.3543Y-6.1752
X15.3543Y-8.2006
X15.3543Y-10.2259
X15.3543Y-12.2513
X15.3661Y-2.9001
X15.3661Y-4.9254
X15.3661Y-6.9508
X15.3661Y-8.9761
X15.3661Y-11.0015
X15.3661Y-13.0269
X15.3779Y-1.5221
X15.3779Y-3.5475
X15.3779Y-5.5728
X15.3779Y-7.5982
X15.3779Y-9.6235
X15.3779Y-11.6489
X15.4015Y-3.0576
X15.4015Y-5.0829
X15.4015Y-7.1083
X15.4015Y-9.1336
X15.4015Y-11.159
X15.4015Y-13.1843
X15.4054Y-2.8804
X15.4054Y-4.9057
X15.4054Y-6.9311
X15.4054Y-8.9565
X15.4054Y-10.9818
X15.4054Y-13.0072
X17.0413Y-4.0811
X17.0827Y-2.7598
X17.1063Y-2.0866
X17.122Y-1.378
X17.1887Y-2.926
X17.1893Y-2.95
X17.1927Y-1.548
X17.1927Y-2.2567
X17.1932Y-1.5721
X17.1932Y-2.2808
X17.1992Y-3.5856
X17.1997Y-3.6097
X17.2011Y-4.247
X17.2017Y-4.2711
X17.2051Y-4.9321
X17.2056Y-4.9561
X17.2063Y-2.9703
X17.2103Y-1.5923
X17.2103Y-2.301
X17.2103Y-2.8443
X17.2142Y-1.4663
X17.2142Y-2.175
X17.2168Y-3.6299
X17.2187Y-4.2913
X17.2207Y-3.5039
X17.2227Y-4.1654
X17.2227Y-4.9764
X17.2266Y-4.8504
X17.2693Y-3.0608
X17.2717Y-3.1142
X17.2733Y-1.6829
X17.2733Y-2.3915
X17.2798Y-3.7205
X17.2817Y-4.3819
X17.2857Y-5.0669
X17.3559Y-2.9808
X17.3559Y-2.9073
X17.3563Y-2.9572
X17.3598Y-1.6028
X17.3598Y-2.3115
X17.3599Y-1.5293
X17.3599Y-2.238
X17.3602Y-1.5792
X17.3602Y-2.2879
X17.3663Y-3.6404
X17.3664Y-3.5669
X17.3667Y-3.6168
X17.3683Y-4.3019
X17.3683Y-4.2283
X17.3687Y-4.2783
X17.3722Y-4.9869
X17.3723Y-4.9134
X17.3726Y-4.9633
X17.4111Y-2.8955
X17.415Y-1.5175
X17.415Y-2.2262
X17.4215Y-3.5551
X17.4235Y-4.2165
X17.4274Y-4.9016
X17.4859Y-2.8561
X17.4898Y-1.4782
X17.4898Y-2.1868
X17.4963Y-3.5158
X17.4983Y-4.1772
X17.5022Y-4.8622
T2
X0.8345Y-2.848
X0.86Y-2.9571
X0.8609Y-3.0813
X0.8658Y-1.659
X0.8777Y-1.2218
X0.8779Y-3.0067
X0.8779Y-3.1745
X0.8779Y-3.2529
X0.8779Y-3.4891
X0.8794Y-7.0609
X0.8821Y-3.3953
X0.8877Y-2.5901
X0.8965Y-1.775
X0.8985Y-1.7076
X0.9014Y-2.4084
X0.9014Y-2.0933
X0.9015Y-0.831
X0.9018Y-2.0571
X0.902Y-2.1521
X0.902Y-1.6495
X0.9022Y-1.1338
X0.9023Y-0.7611
X0.9023Y-1.1943
X0.9024Y-0.6995
X0.904Y-4.3979
X0.9324Y-10.5604
X0.9685Y-8.3521
X0.9701Y-8.4306
X0.9961Y-6.1768
X0.9963Y-10.7932
X1.0109Y-1.6535
X1.0113Y-1.2874
X1.0114Y-1.3385
X1.0114Y-1.588
X1.0114Y-0.6751
X1.0115Y-0.8274
X1.0122Y-1.1082
X1.0132Y-1.689
X1.014Y-3.5069
X1.0197Y-2.5819
X1.0204Y-2.9799
X1.0213Y-2.9248
X1.0217Y-2.0978
X1.0219Y-0.8639
X1.0265Y-0.7726
X1.0267Y-1.7624
X1.0269Y-0.91
X1.027Y-2.3692
X1.027Y-2.4184
X1.027Y-2.5128
X1.0278Y-6.2374
X1.0297Y-1.5547
X1.0322Y-2.2184
X1.0328Y-2.6626
X1.0335Y-2.6265
X1.0338Y-1.4921
X1.037Y-3.3314
X1.0382Y-6.7338
X1.0403Y-3.2529
X1.0452Y-1.2536
X1.0461Y-2.9504
X1.0474Y-0.8065
X1.0536Y-6.4873
X1.0573Y-1.2133
X1.058Y-8.6659
X1.059Y-6.8513
X1.0658Y-1.9653
X1.0661Y-1.5555
X1.067Y-9.2774
X1.0717Y-2.5351
X1.0729Y-12.2927
X1.0734Y-3.0076
X1.0808Y-2.5722
X1.0828Y-2.6364
X1.0828Y-2.7873
X1.0828Y-2.8228
X1.0828Y-2.8736
X1.0847Y-8.1207
X1.0887Y-3.3672
X1.0961Y-3.4121
X1.0999Y-1.2998
X1.1057Y-12.0548
X1.1093Y-11.0194
X1.1133Y-2.0165
X1.1163Y-3.0861
X1.1289Y-11.5039
X1.1494Y-2.0167
X1.1589Y-11.2547
X1.1691Y-10.3118
X1.1811Y-5.7146
X1.1846Y-0.8332
X1.1855Y-2.1548
X1.2036Y-11.307
X1.2111Y-2.2874
X1.2143Y-1.47
X1.2172Y-3.5409
X1.2305Y-3.8846
X1.2328Y-10.9963
X1.2357Y-5.4276
X1.2399Y-1.4089
X1.2415Y-5.4836
X1.2451Y-7.8814
X1.246Y-1.8331
X1.2466Y-2.2616
X1.2597Y-8.9797
X1.282Y-10.2349
X1.2941Y-2.6215
X1.2944Y-2.1427
X1.2945Y-1.588
X1.2946Y-1.2362
X1.2946Y-0.6739
X1.2949Y-1.1328
X1.2949Y-1.7657
X1.2953Y-2.3939
X1.2956Y-2.0421
X1.2958Y-2.848
X1.2958Y-1.7159
X1.2958Y-2.9504
X1.2959Y-0.942
X1.296Y-1.9841
X1.296Y-1.3641
X1.2968Y-3.012
X1.2969Y-0.8269
X1.2969Y-2.4623
X1.297Y-0.7097
X1.298Y-3.3654
X1.3009Y-2.8844
X1.3022Y-2.5388
X1.3043Y-1.6519
X1.3043Y-1.9432
X1.3175Y-1.2101
X1.3184Y-1.1584
X1.3206Y-1.5624
X1.3212Y-2.4195
X1.3334Y-8.8992
X1.3433Y-1.185
X1.3468Y-3.5667
X1.3549Y-9.7642
X1.3554Y-1.6136
X1.3556Y-1.6913
X1.3581Y-9.4622
X1.3584Y-2.8451
X1.3596Y-2.9692
X1.3612Y-2.9166
X1.365Y-3.2574
X1.3664Y-1.2874
X1.3707Y-5.7746
X1.3713Y-1.1203
X1.3731Y-5.7228
X1.3779Y-0.827
X1.3826Y-1.5368
X1.3844Y-2.4554
X1.3932Y-0.9019
X1.3949Y-2.5048
X1.4013Y-2.5768
X1.4066Y-3.4098
X1.4167Y-1.6378
X1.424Y-3.3281
X1.4268Y-12.4315
X1.4281Y-3.2607
X1.4485Y-3.4807
X1.4499Y-0.6472
X1.4499Y-1.2543
X1.4499Y-12.9806
X1.4582Y-0.8194
X1.4624Y-3.3593
X1.4729Y-11.3332
X1.4729Y-11.5685
X1.4729Y-11.9608
X1.4729Y-12.1961
X1.4729Y-12.7453
X1.4745Y-9.6073
X1.4756Y-10.1663
X1.4767Y-3.3077
X1.4838Y-9.5367
X1.4854Y-4.322
X1.4917Y-10.078
X1.4917Y-10.3364
X1.4917Y-10.5776
X1.5012Y-10.7056
X1.5061Y-11.0772
X1.5069Y-8.74
X1.5072Y-8.4858
X1.5073Y-8.1783
X1.5078Y-4.4297
X1.513Y-6.5505
X1.524Y-9.9995
X1.5244Y-5.2907
X1.5284Y-2.0259
X1.5284Y-11.6795
X1.5363Y-10.8196
X1.5374Y-4.1367
X1.5421Y-7.918
X1.5452Y-2.0858
X1.5502Y-5.5548
X1.5564Y-0.7247
X1.5567Y-2.4726
X1.5571Y-1.3967
X1.5637Y-3.6686
X1.5639Y-1.6101
X1.5698Y-2.0592
X1.5794Y-1.577
X1.5829Y-7.6748
X1.5887Y-8.9751
X1.6096Y-6.3463
X1.6098Y-12.5742
X1.6106Y-6.94
X1.6154Y-12.3067
X1.6164Y-9.1255
X1.6183Y-11.1083
X1.6184Y-6.0771
X1.6193Y-7.4467
X1.6233Y-10.3915
X1.6233Y-10.8933
X1.6252Y-4.7699
X1.6357Y-3.959
X1.6611Y-5.8385
X1.662Y-4.2108
X1.669Y-12.0216
X1.6784Y-2.3257
X1.6975Y-1.513
X1.7099Y-1.5897
X1.7535Y-4.6644
X1.7893Y-3.1559
X1.7896Y-12.0931
X1.7896Y-12.8507
X1.7978Y-12.3203
X1.798Y-12.5826
X1.7985Y-13.0757
X1.7988Y-11.8124
X1.801Y-2.5056
X1.8018Y-6.1771
X1.8042Y-9.108
X1.8042Y-9.3752
X1.8042Y-6.4601
X1.8047Y-6.7087
X1.8049Y-5.6762
X1.8053Y-7.0357
X1.8053Y-7.8079
X1.8063Y-8.0604
X1.8121Y-8.7096
X1.8132Y-10.9497
X1.8134Y-11.46
X1.814Y-10.1776
X1.814Y-9.9025
X1.8145Y-11.2061
X1.8147Y-5.9335
X1.8149Y-4.2911
X1.8149Y-5.4439
X1.815Y-10.4586
X1.8159Y-7.5605
X1.8165Y-7.2774
X1.817Y-3.803
X1.8189Y-11.7126
X1.8189Y-11.7638
X1.8248Y-5.3346
X1.8248Y-5.3858
X1.8268Y-6.9449
X1.8268Y-6.9961
X1.8268Y-8.5157
X1.8268Y-8.5669
X1.8307Y-11.9685
X1.8307Y-12.0157
X1.8336Y-4.8195
X1.8346Y-10.0906
X1.8346Y-10.1417
X1.8366Y-5.5906
X1.8366Y-5.6378
X1.8386Y-3.7008
X1.8386Y-3.752
X1.8386Y-7.2008
X1.8386Y-7.248
X1.8386Y-8.7717
X1.8386Y-8.8189
X1.841Y-8.8695
X1.842Y-1.6518
X1.8424Y-2.2994
X1.8424Y-9.6304
X1.8425Y-12.2205
X1.8425Y-12.2677
X1.8425Y-12.4724
X1.8425Y-12.5236
X1.8425Y-12.7283
X1.8425Y-12.7756
X1.8454Y-8.6156
X1.8465Y-10.3465
X1.8465Y-10.3937
X1.8484Y-5.8425
X1.8484Y-5.8898
X1.8484Y-6.0945
X1.8484Y-6.1457
X1.8484Y-6.3504
X1.8484Y-6.3976
X1.8504Y-3.9567
X1.8504Y-4.0039
X1.8504Y-7.4528
X1.8504Y-7.5
X1.8504Y-7.7047
X1.8504Y-7.7559
X1.8504Y-7.9606
X1.8504Y-8.0079
X1.8504Y-9.0236
X1.8504Y-9.0709
X1.8504Y-9.2756
X1.8504Y-9.3268
X1.8504Y-9.5315
X1.8504Y-9.5787
X1.8504Y-12.9803
X1.8504Y-13.0354
X1.8563Y-6.6024
X1.8563Y-6.6575
X1.8583Y-8.2126
X1.8583Y-8.2677
X1.8583Y-9.7835
X1.8583Y-9.8386
X1.8583Y-10.5984
X1.8583Y-10.6457
X1.8583Y-10.8504
X1.8583Y-10.9016
X1.8583Y-11.1063
X1.8583Y-11.1535
X1.8583Y-4.5758
X1.8589Y-2.4065
X1.8622Y-4.2087
X1.8622Y-4.2559
X1.8622Y-4.4606
X1.8622Y-4.5118
X1.8622Y-4.7165
X1.8622Y-4.7638
X1.8661Y-11.3583
X1.8661Y-11.4134
X1.8701Y-4.9685
X1.8701Y-5.0236
X1.8927Y-4.0545
X1.9094Y-3.8543
X1.9094Y-4.8661
X1.9134Y-4.1063
X1.9134Y-5.1181
X1.9173Y-4.3583
X1.9173Y-4.6142
X1.922Y-2.6264
X1.9329Y-7.3443
X1.9569Y-8.6156
X1.9847Y-8.3144
X1.9847Y-6.8762
X1.9994Y-10.6825
X2.0245Y-5.9453
X2.0346Y-4.9428
X2.0779Y-2.7038
X2.0829Y-3.8394
X2.0901Y-2.3553
X2.0951Y-2.4365
X2.0966Y-2.4857
X2.1035Y-5.0573
X2.1107Y-2.7978
X2.1245Y-7.2887
X2.1288Y-1.3967
X2.1341Y-2.5332
X2.1498Y-7.1754
X2.1569Y-2.0058
X2.1631Y-2.075
X2.1678Y-2.2397
X2.1827Y-1.9715
X2.1842Y-2.1343
X2.2038Y-1.5377
X2.2096Y-2.4577
X2.2114Y-2.3809
X2.212Y-2.2683
X2.2337Y-1.7854
X2.2349Y-0.6559
X2.2408Y-0.8924
X2.2409Y-1.55
X2.2508Y-1.9203
X2.2609Y-1.0983
X2.2759Y-5.6064
X2.2789Y-10.3364
X2.2846Y-6.3125
X2.2889Y-0.9767
X2.2926Y-10.6112
X2.2926Y-10.8558
X2.2926Y-1.7949
X2.313Y-9.5145
X2.3232Y-4.665
X2.3249Y-11.877
X2.3268Y-1.0
X2.3295Y-9.712
X2.3299Y-5.5319
X2.3381Y-5.2632
X2.3446Y-1.8074
X2.3446Y-8.4427
X2.3457Y-5.7633
X2.3581Y-6.5258
X2.3581Y-8.9573
X2.3671Y-0.976
X2.3787Y-0.8199
X2.3816Y-4.9132
X2.3833Y-7.3573
X2.3839Y-0.7005
X2.3843Y-1.4511
X2.3859Y-1.3012
X2.3915Y-4.3733
X2.3925Y-1.5992
X2.3952Y-0.7659
X2.3962Y-7.8629
X2.3995Y-1.6697
X2.4018Y-12.4228
X2.4019Y-12.9286
X2.4019Y-12.6668
X2.402Y-2.1449
X2.4035Y-1.1715
X2.4066Y-1.55
X2.4089Y-0.8507
X2.409Y-2.4699
X2.416Y-1.9921
X2.4184Y-10.3356
X2.4184Y-11.3432
X2.4184Y-12.1177
X2.4189Y-11.0973
X2.4193Y-2.5477
X2.4194Y-8.6896
X2.4231Y-2.3168
X2.4231Y-2.3538
X2.4231Y-2.3928
X2.4233Y-11.647
X2.4236Y-10.6527
X2.4374Y-2.0482
X2.4374Y-2.1464
X2.448Y-3.6353
X2.4535Y-1.7059
X2.4569Y-1.2979
X2.4571Y-1.5714
X2.4646Y-6.0162
X2.4672Y-0.8174
X2.4708Y-1.1167
X2.4777Y-4.1509
X2.478Y-3.9409
X2.4784Y-7.0969
X2.4953Y-7.6336
X2.4953Y-8.1418
X2.5018Y-3.86
X2.5044Y-1.3821
X2.5061Y-1.3029
X2.5139Y-2.0332
X2.5155Y-1.0831
X2.518Y-0.6888
X2.5219Y-1.1783
X2.5243Y-1.6094
X2.5275Y-2.4577
X2.5276Y-2.4065
X2.5298Y-0.9488
X2.5321Y-0.7431
X2.5353Y-1.55
X2.5377Y-1.9737
X2.5389Y-0.7937
X2.548Y-1.4726
X2.5491Y-1.3599
X2.5502Y-1.9138
X2.5701Y-11.8693
X2.5957Y-1.8585
X2.5957Y-6.8267
X2.5966Y-13.0358
X2.5967Y-11.7553
X2.5972Y-12.7711
X2.5977Y-12.2606
X2.5979Y-12.0093
X2.6021Y-1.8074
X2.6044Y-10.9522
X2.6049Y-10.4443
X2.6053Y-11.46
X2.613Y-12.5171
X2.6146Y-2.2163
X2.6146Y-2.6364
X2.6158Y-1.0189
X2.6181Y-11.6555
X2.6181Y-11.7067
X2.6242Y-9.088
X2.6244Y-8.5862
X2.6249Y-1.446
X2.6253Y-9.8483
X2.626Y-10.0906
X2.626Y-10.1417
X2.6275Y-10.1901
X2.6275Y-12.3501
X2.6291Y-9.3583
X2.6299Y-11.9114
X2.6299Y-11.9587
X2.6339Y-6.5014
X2.6365Y-7.002
X2.6378Y-10.3465
X2.6378Y-10.3937
X2.641Y-7.7355
X2.6417Y-12.1634
X2.6417Y-12.2106
X2.6417Y-12.4154
X2.6417Y-12.4665
X2.6417Y-12.6713
X2.6417Y-12.7185
X2.6444Y-7.2461
X2.6444Y-7.4909
X2.6457Y-8.4803
X2.6457Y-8.5315
X2.6486Y-5.6253
X2.6493Y-6.1536
X2.6493Y-6.3984
X2.6493Y-6.6431
X2.6496Y-10.5984
X2.6496Y-10.6457
X2.6496Y-10.8504
X2.6496Y-10.9016
X2.6496Y-11.1063
X2.6496Y-11.1535
X2.6496Y-12.9232
X2.6496Y-12.9783
X2.651Y-5.908
X2.6514Y-4.5623
X2.6515Y-8.2619
X2.6529Y-3.8503
X2.6552Y-9.3336
X2.6575Y-8.7362
X2.6575Y-8.7835
X2.6575Y-11.3583
X2.6575Y-11.4134
X2.658Y-3.7905
X2.6585Y-4.0346
X2.659Y-4.7938
X2.6612Y-0.6919
X2.6614Y-6.8819
X2.6614Y-6.9331
X2.6644Y-5.0511
X2.6668Y-4.28
X2.6675Y-2.0244
X2.6691Y-1.7125
X2.6693Y-8.9882
X2.6693Y-9.0354
X2.6693Y-9.2402
X2.6693Y-9.2913
X2.6693Y-9.4961
X2.6693Y-9.5433
X2.6713Y-5.2874
X2.6713Y-5.3386
X2.6732Y-7.1378
X2.6732Y-7.185
X2.6772Y-9.748
X2.6772Y-9.8031
X2.6791Y-3.6752
X2.6791Y-3.7264
X2.6831Y-5.5433
X2.6831Y-5.5906
X2.685Y-7.3898
X2.685Y-7.437
X2.685Y-7.6417
X2.685Y-7.6929
X2.685Y-7.8976
X2.685Y-7.9449
X2.6861Y-0.7191
X2.6909Y-3.9311
X2.6909Y-3.9783
X2.6929Y-1.9616
X2.6929Y-8.1496
X2.6929Y-8.2047
X2.6949Y-5.7953
X2.6949Y-5.8425
X2.6949Y-6.0472
X2.6949Y-6.0984
X2.6949Y-6.3031
X2.6949Y-6.3504
X2.6957Y-8.8616
X2.6965Y-0.9344
X2.6978Y-1.7854
X2.7008Y-0.5804
X2.7028Y-4.1831
X2.7028Y-4.2303
X2.7028Y-4.435
X2.7028Y-4.4862
X2.7028Y-4.6909
X2.7028Y-4.7382
X2.7028Y-6.5551
X2.7028Y-6.6102
X2.7054Y-5.3872
X2.706Y-0.7918
X2.706Y-1.119
X2.706Y-1.1821
X2.706Y-1.2596
X2.706Y-10.4578
X2.7106Y-4.9429
X2.7106Y-4.998
X2.712Y-0.7431
X2.7218Y-7.9757
X2.7393Y-1.6222
X2.7393Y-1.6984
X2.7459Y-4.5728
X2.7461Y-1.995
X2.77Y-1.2842
X2.7721Y-3.0935
X2.7845Y-1.1506
X2.8016Y-6.1018
X2.8247Y-6.6703
X2.8268Y-2.3912
X2.8376Y-3.1189
X2.8493Y-5.9194
X2.8493Y-7.3553
X2.8519Y-0.8455
X2.8523Y-10.9848
X2.8541Y-2.767
X2.8674Y-2.5082
X2.8868Y-0.8431
X2.8897Y-2.5832
X2.8897Y-2.9504
X2.9285Y-5.142
X2.9419Y-2.2266
X2.9663Y-2.2544
X2.9669Y-12.6121
X2.9676Y-2.5586
X2.9832Y-2.6078
X2.9956Y-2.6451
X3.0079Y-3.0176
X3.0079Y-3.0689
X3.0523Y-2.9166
X3.0612Y-1.1348
X3.0651Y-3.1055
X3.0778Y-3.0434
X3.0985Y-8.7501
X3.0985Y-9.5842
X3.0992Y-3.194
X3.1157Y-1.2975
X3.1195Y-12.7243
X3.1405Y-2.8451
X3.1502Y-1.7376
X3.1519Y-5.5301
X3.1587Y-13.0552
X3.1594Y-11.9483
X3.16Y-4.4431
X3.1602Y-4.1925
X3.1627Y-11.6728
X3.1633Y-12.1929
X3.177Y-7.8814
X3.177Y-8.6659
X3.1776Y-7.6455
X3.1789Y-11.3695
X3.1791Y-10.8625
X3.1859Y-2.8757
X3.1863Y-11.0978
X3.1882Y-10.078
X3.1885Y-10.6372
X3.193Y-12.4143
X3.205Y-8.9797
X3.2063Y-10.5776
X3.2101Y-7.1654
X3.2105Y-12.922
X3.2162Y-6.8616
X3.2181Y-4.8594
X3.2187Y-3.6452
X3.228Y-5.5908
X3.2321Y-8.4454
X3.2353Y-5.7228
X3.2357Y-3.883
X3.2477Y-7.3669
X3.2482Y-4.6348
X3.2555Y-5.9933
X3.2555Y-10.2895
X3.2611Y-4.8915
X3.2625Y-9.2079
X3.2643Y-6.2199
X3.2648Y-8.1276
X3.2648Y-9.4622
X3.2648Y-9.7153
X3.2655Y-6.4891
X3.2698Y-1.1744
X3.2739Y-5.2308
X3.2902Y-10.945
X3.296Y-10.2061
X3.3071Y-4.8867
X3.312Y-8.1304
X3.3236Y-8.0047
X3.3245Y-8.5781
X3.3439Y-4.4631
X3.3441Y-4.2608
X3.4652Y-12.5734
X3.4755Y-11.7848
X3.4757Y-12.0174
X3.4821Y-13.0545
X3.4841Y-12.2846
X3.4902Y-10.9598
X3.4961Y-11.685
X3.4961Y-11.7362
X3.5014Y-10.4617
X3.5014Y-11.4726
X3.5072Y-1.1959
X3.5079Y-11.9409
X3.5079Y-11.9882
X3.5092Y-12.811
X3.5118Y-10.1063
X3.5118Y-10.1575
X3.5161Y-12.3026
X3.5193Y-10.7203
X3.5197Y-12.1929
X3.5197Y-12.2402
X3.5197Y-12.4449
X3.5197Y-12.4961
X3.5197Y-12.7008
X3.5197Y-12.748
X3.5198Y-7.2327
X3.5198Y-7.7443
X3.5198Y-8.5847
X3.5198Y-9.0726
X3.5198Y-9.3459
X3.5198Y-9.8693
X3.5236Y-10.3622
X3.5236Y-10.4094
X3.5276Y-12.9528
X3.5276Y-13.0079
X3.5279Y-9.601
X3.5291Y-5.6125
X3.5291Y-6.3716
X3.5354Y-10.6142
X3.5354Y-10.6614
X3.5354Y-10.8661
X3.5354Y-10.9173
X3.5354Y-11.122
X3.5354Y-11.1693
X3.5394Y-6.8898
X3.5394Y-6.9409
X3.5394Y-8.4783
X3.5394Y-8.5295
X3.5433Y-11.374
X3.5433Y-11.4291
X3.5442Y-5.0402
X3.5459Y-4.7592
X3.546Y-4.268
X3.5466Y-5.3697
X3.5473Y-4.5095
X3.5508Y-8.8321
X3.5512Y-5.2638
X3.5512Y-5.315
X3.5512Y-7.1457
X3.5512Y-7.1929
X3.5512Y-8.7343
X3.5512Y-8.7815
X3.5573Y-1.6055
X3.56Y-3.6549
X3.56Y-3.7061
X3.5623Y-1.4977
X3.563Y-5.5197
X3.563Y-5.5669
X3.563Y-7.3976
X3.563Y-7.4449
X3.563Y-7.6496
X3.563Y-7.7008
X3.563Y-7.9055
X3.563Y-7.9528
X3.563Y-8.9862
X3.563Y-9.0335
X3.563Y-9.2382
X3.563Y-9.2894
X3.563Y-9.4941
X3.563Y-9.5413
X3.569Y-6.6333
X3.5709Y-8.1575
X3.5709Y-8.2126
X3.5709Y-9.7461
X3.5709Y-9.8012
X3.571Y-11.1781
X3.5719Y-3.9108
X3.5719Y-3.9581
X3.5748Y-5.7717
X3.5748Y-5.8189
X3.5748Y-6.0236
X3.5748Y-6.0748
X3.5748Y-6.2795
X3.5748Y-6.3268
X3.5761Y-10.4959
X3.5827Y-6.5315
X3.5827Y-6.5866
X3.5837Y-4.1628
X3.5837Y-4.21
X3.5837Y-4.4148
X3.5837Y-4.4659
X3.5837Y-4.6707
X3.5837Y-4.7179
X3.5909Y-10.1777
X3.5915Y-4.9226
X3.5915Y-4.9778
X3.6026Y-2.2588
X3.6147Y-1.6389
X3.6209Y-7.4867
X3.6243Y-4.3743
X3.6243Y-11.647
X3.6481Y-1.2744
X3.6709Y-9.5408
X3.6711Y-3.7963
X3.6711Y-4.0129
X3.6714Y-6.9872
X3.6737Y-7.5116
X3.6842Y-6.1273
X3.6842Y-5.1171
X3.776Y-1.8969
X3.7907Y-8.2593
X3.8051Y-5.6709
X3.8836Y-6.4417
X3.9067Y-8.0383
X3.9477Y-3.6452
X3.9621Y-6.3716
X3.9794Y-1.5882
X3.9803Y-1.3307
X4.0039Y-1.4853
X4.0332Y-1.3797
X4.0471Y-5.8893
X4.0961Y-1.659
X4.1069Y-1.1224
X4.1255Y-1.6859
X4.1326Y-2.2331
X4.1328Y-5.1056
X4.1538Y-1.7622
X4.1725Y-11.6305
X4.1772Y-0.748
X4.1909Y-1.5132
X4.1976Y-12.4315
X4.1976Y-12.6668
X4.1981Y-1.5486
X4.2009Y-2.1784
X4.2161Y-10.8625
X4.2169Y-1.715
X4.2285Y-0.7185
X4.2303Y-1.5128
X4.2345Y-12.9022
X4.2435Y-10.3133
X4.2435Y-11.307
X4.25Y-12.125
X4.2547Y-8.7049
X4.2547Y-8.9722
X4.2565Y-8.4478
X4.2565Y-8.5978
X4.2705Y-1.8454
X4.2705Y-8.1167
X4.2805Y-11.8895
X4.2844Y-9.189
X4.2849Y-2.1673
X4.2862Y-2.0762
X4.2874Y-11.0686
X4.2923Y-9.6972
X4.2923Y-10.5604
X4.2962Y-5.6554
X4.2964Y-5.2142
X4.2964Y-5.7633
X4.3019Y-3.7116
X4.3022Y-7.8334
X4.3039Y-6.0065
X4.3089Y-4.4297
X4.3089Y-4.4858
X4.309Y-3.7565
X4.31Y-4.8432
X4.3113Y-8.0487
X4.315Y-1.5472
X4.3163Y-4.1943
X4.317Y-6.2374
X4.3215Y-4.9004
X4.3223Y-7.2887
X4.3295Y-6.8162
X4.3316Y-5.4698
X4.3316Y-6.4873
X4.3337Y-2.1547
X4.3362Y-9.4425
X4.3369Y-3.8793
X4.3383Y-1.3171
X4.3546Y-7.0739
X4.3604Y-1.82
X4.3633Y-10.078
X4.3674Y-4.6445
X4.3685Y-7.5801
X4.374Y-0.9528
X4.382Y-9.6858
X4.3977Y-7.2977
X4.4031Y-1.5241
X4.4031Y-7.4649
X4.4447Y-4.1508
X4.4536Y-1.4689
X4.4681Y-1.4232
X4.4726Y-1.3404
X4.4786Y-9.1494
X4.4944Y-1.2894
X4.5087Y-1.3395
X4.5157Y-1.1969
X4.5314Y-1.2764
X4.5333Y-12.2817
X4.5333Y-12.5219
X4.5333Y-13.0465
X4.5338Y-11.7691
X4.5345Y-12.0325
X4.5423Y-11.4346
X4.5454Y-10.1756
X4.5455Y-10.9454
X4.5458Y-10.6923
X4.5551Y-11.6693
X4.5551Y-11.7205
X4.5662Y-8.8042
X4.5669Y-10.0846
X4.5669Y-10.1358
X4.5669Y-11.9252
X4.5669Y-11.9724
X4.5672Y-9.8295
X4.5787Y-10.3406
X4.5787Y-10.3878
X4.5787Y-12.1772
X4.5787Y-12.2244
X4.5787Y-12.4291
X4.5787Y-12.4803
X4.5787Y-12.685
X4.5787Y-12.7323
X4.5866Y-1.3228
X4.5866Y-12.937
X4.5866Y-12.9921
X4.5876Y-8.46
X4.5876Y-8.5112
X4.5902Y-0.6888
X4.5902Y-9.5945
X4.5906Y-10.5925
X4.5906Y-10.6398
X4.5906Y-10.8445
X4.5906Y-10.8957
X4.5906Y-11.1004
X4.5906Y-11.1476
X4.5965Y-7.1893
X4.5976Y-7.9657
X4.5984Y-11.3524
X4.5984Y-11.4075
X4.5987Y-6.95
X4.5994Y-8.7159
X4.5994Y-8.7632
X4.6004Y-10.436
X4.6021Y-7.7094
X4.6046Y-7.4649
X4.6046Y-8.208
X4.6058Y-8.5759
X4.6108Y-6.1365
X4.6112Y-8.9679
X4.6112Y-9.0152
X4.6112Y-9.2199
X4.6112Y-9.2711
X4.6112Y-9.4758
X4.6112Y-9.523
X4.6159Y-4.2474
X4.6168Y-6.6232
X4.6191Y-6.8502
X4.6191Y-6.9014
X4.6191Y-9.7278
X4.6191Y-9.7829
X4.6211Y-4.7624
X4.6216Y-3.7466
X4.6309Y-7.1061
X4.6309Y-7.1533
X4.6378Y-5.252
X4.6378Y-5.3031
X4.6417Y-3.6614
X4.6417Y-3.7126
X4.6427Y-7.3581
X4.6427Y-7.4053
X4.6427Y-7.61
X4.6427Y-7.6612
X4.6427Y-7.8659
X4.6427Y-7.9132
X4.6496Y-5.5079
X4.6496Y-5.5551
X4.6506Y-8.1179
X4.6506Y-8.173
X4.6524Y-0.7621
X4.6535Y-3.9173
X4.6535Y-3.9646
X4.6604Y-4.0129
X4.6614Y-5.7598
X4.6614Y-5.8071
X4.6614Y-6.0118
X4.6614Y-6.063
X4.6614Y-6.2677
X4.6614Y-6.315
X4.6654Y-3.7756
X4.6654Y-4.1693
X4.6654Y-4.2165
X4.6654Y-4.4213
X4.6654Y-4.4724
X4.6654Y-4.6772
X4.6654Y-4.7244
X4.6687Y-11.1541
X4.6693Y-6.5197
X4.6693Y-6.5748
X4.6732Y-4.9291
X4.6732Y-4.9843
X4.7065Y-4.5319
X4.7065Y-5.3725
X4.7065Y-5.6064
X4.7065Y-7.2476
X4.7162Y-5.9558
X4.7162Y-9.2935
X4.7162Y-9.6313
X4.7189Y-3.276
X4.7189Y-3.4883
X4.7238Y-7.3559
X4.7313Y-0.9279
X4.7691Y-1.1359
X4.7829Y-6.3582
X4.7986Y-2.9392
X4.8001Y-6.8196
X4.8098Y-0.7621
X4.8167Y-4.2798
X4.8324Y-0.9864
X4.8401Y-0.6641
X4.8509Y-5.821
X4.8543Y-6.5906
X4.856Y-0.8105
X4.8561Y-0.8444
X4.8622Y-5.8819
X4.867Y-1.132
X4.8701Y-6.1693
X4.8768Y-5.0379
X4.8819Y-5.6339
X4.8976Y-5.3937
X4.899Y-6.3097
X4.9055Y-4.6339
X4.9094Y-4.4055
X4.9094Y-4.8425
X4.9134Y-4.1535
X4.9173Y-5.0866
X5.0353Y-12.5931
X5.0787Y-1.2559
X5.0787Y-1.3543
X5.0827Y-1.0551
X5.0827Y-1.1575
X5.1119Y-2.2384
X5.1969Y-0.9242
X5.2133Y-0.7334
X5.2182Y-0.6287
X5.2379Y-0.7639
X5.2466Y-1.1066
X5.2841Y-0.6936
X5.2919Y-0.6394
X5.3174Y-0.9028
X5.3302Y-0.9551
X5.369Y-0.9694
X5.3715Y-0.6107
X5.3752Y-10.078
X5.3752Y-10.8625
X5.3752Y-11.0978
X5.414Y-11.9171
X5.4141Y-12.3113
X5.4144Y-12.6668
X5.4157Y-11.9669
X5.4222Y-0.878
X5.4271Y-10.1318
X5.4276Y-4.6369
X5.4356Y-6.8867
X5.4369Y-6.0023
X5.437Y-11.3164
X5.4432Y-9.7022
X5.445Y-7.3672
X5.4465Y-1.3195
X5.4486Y-8.6957
X5.4504Y-8.123
X5.455Y-7.8629
X5.4568Y-9.4634
X5.4593Y-8.4476
X5.4607Y-8.9582
X5.463Y-11.6305
X5.4636Y-12.9008
X5.4711Y-0.8015
X5.4711Y-5.2142
X5.4715Y-10.3279
X5.4749Y-7.5963
X5.484Y-1.2917
X5.484Y-4.3743
X5.4852Y-9.7165
X5.4874Y-7.0746
X5.498Y-5.4366
X5.498Y-5.7132
X5.5011Y-6.4509
X5.51Y-10.5814
X5.5211Y-3.5437
X5.5296Y-9.2114
X5.5323Y-0.6641
X5.5323Y-12.1189
X5.5353Y-6.2237
X5.5375Y-12.4321
X5.5402Y-4.8773
X5.5411Y-10.474
X5.5446Y-9.3534
X5.5446Y-10.6269
X5.5463Y-4.1002
X5.5486Y-9.0881
X5.5529Y-8.1083
X5.5603Y-0.9865
X5.6248Y-3.883
X5.6893Y-11.5737
X5.7267Y-11.7632
X5.7268Y-13.0453
X5.7278Y-12.525
X5.7305Y-10.9576
X5.7313Y-10.2224
X5.7315Y-11.2386
X5.739Y-9.3419
X5.7393Y-9.074
X5.7396Y-9.8358
X5.748Y-11.6634
X5.748Y-11.7146
X5.7512Y-7.2513
X5.752Y-10.1063
X5.752Y-10.1575
X5.7596Y-8.4443
X5.7598Y-8.4803
X5.7598Y-8.5315
X5.7598Y-11.9193
X5.7598Y-11.9665
X5.7616Y-9.4397
X5.7622Y-5.0943
X5.7638Y-10.3622
X5.7638Y-10.4094
X5.7678Y-12.2667
X5.7717Y-6.8819
X5.7717Y-6.9331
X5.7717Y-8.7362
X5.7717Y-8.7835
X5.7717Y-12.1713
X5.7717Y-12.2185
X5.7717Y-12.4232
X5.7717Y-12.4744
X5.7717Y-12.6791
X5.7717Y-12.7264
X5.7756Y-10.6142
X5.7756Y-10.6614
X5.7756Y-10.8661
X5.7756Y-10.9173
X5.7756Y-11.122
X5.7756Y-11.1693
X5.7795Y-12.9311
X5.7795Y-12.9862
X5.7835Y-7.1378
X5.7835Y-7.185
X5.7835Y-8.9882
X5.7835Y-9.0354
X5.7835Y-9.2402
X5.7835Y-9.2913
X5.7835Y-9.4961
X5.7835Y-9.5433
X5.7835Y-11.374
X5.7835Y-11.4291
X5.7869Y-6.6173
X5.7874Y-5.6015
X5.7874Y-6.3346
X5.7913Y-9.748
X5.7913Y-9.8031
X5.7953Y-7.3898
X5.7953Y-7.437
X5.7953Y-7.6417
X5.7953Y-7.6929
X5.7953Y-7.8976
X5.7953Y-7.9449
X5.7955Y-8.6702
X5.8005Y-12.0066
X5.8007Y-6.1125
X5.8031Y-8.1496
X5.8031Y-8.2047
X5.8071Y-5.2402
X5.8071Y-5.2913
X5.8189Y-5.4961
X5.8189Y-5.5433
X5.8307Y-5.748
X5.8307Y-5.7953
X5.8307Y-6.0
X5.8307Y-6.0512
X5.8307Y-6.2559
X5.8307Y-6.3031
X5.8346Y-5.5866
X5.8386Y-6.5079
X5.8386Y-6.563
X5.8386Y-8.3189
X5.8406Y-3.6378
X5.8406Y-3.689
X5.8457Y-8.2731
X5.8463Y-4.2474
X5.8463Y-4.4858
X5.8524Y-3.8937
X5.8524Y-3.9409
X5.8621Y-6.6438
X5.8622Y-10.6783
X5.8642Y-4.1457
X5.8642Y-4.1929
X5.8642Y-4.3976
X5.8642Y-4.4488
X5.8642Y-4.6535
X5.8642Y-4.7008
X5.8667Y-5.6471
X5.8701Y-5.3937
X5.872Y-4.9055
X5.872Y-4.9606
X5.878Y-6.4055
X5.8819Y-5.874
X5.8858Y-7.0669
X5.8858Y-7.5472
X5.8898Y-7.1892
X5.8926Y-4.3052
X5.8937Y-8.0748
X5.8976Y-6.5866
X5.8977Y-3.8751
X5.9016Y-4.8346
X5.9055Y-3.7953
X5.9134Y-4.5394
X5.9434Y-3.2977
X5.9572Y-5.0177
X5.9624Y-7.9974
X5.9724Y-4.2126
X5.9764Y-4.1575
X6.0196Y-1.9668
X6.0236Y-5.0118
X6.0346Y-3.7074
X6.0711Y-10.4455
X6.0818Y-4.0583
X6.1049Y-4.7435
X6.1049Y-5.3711
X6.108Y-6.4924
X6.118Y-6.9872
X6.118Y-7.1735
X6.118Y-7.7619
X6.1599Y-9.9351
X6.1737Y-1.4926
X6.2149Y-2.2819
X6.2381Y-1.6529
X6.2388Y-5.8418
X6.2388Y-7.1514
X6.2396Y-4.0021
X6.2635Y-1.5271
X6.2674Y-3.6298
X6.2995Y-1.5614
X6.3173Y-1.1879
X6.5194Y-1.4036
X6.6292Y-1.0114
X6.6292Y-5.7633
X6.6471Y-6.0771
X6.6534Y-5.5252
X6.657Y-1.2336
X6.657Y-3.711
X6.6667Y-4.9663
X6.6743Y-6.5586
X6.6776Y-3.959
X6.685Y-4.0914
X6.6852Y-3.897
X6.6856Y-4.1943
X6.6888Y-4.422
X6.7067Y-6.3036
X6.7343Y-1.2087
X6.7362Y-4.6946
X6.775Y-6.1558
X6.8021Y-5.0683
X6.8444Y-6.2409
X6.8523Y-4.2798
X6.9564Y-3.2265
X6.9633Y-6.6895
X6.974Y-5.9328
X6.9813Y-5.3215
X6.9813Y-5.3726
X6.9842Y-2.205
X6.9931Y-5.5774
X6.9931Y-5.6246
X7.0046Y-5.0585
X7.0049Y-5.8293
X7.0049Y-5.8766
X7.0049Y-6.0813
X7.0049Y-6.1325
X7.0049Y-6.3372
X7.0049Y-6.3844
X7.0108Y-3.7112
X7.0108Y-3.7624
X7.0128Y-6.5892
X7.0128Y-6.6443
X7.0172Y-5.3718
X7.0226Y-3.9671
X7.0226Y-4.0144
X7.0239Y-6.4417
X7.0296Y-5.6234
X7.0344Y-4.2191
X7.0344Y-4.2663
X7.0344Y-4.4711
X7.0344Y-4.5222
X7.0344Y-4.727
X7.0344Y-4.7742
X7.0423Y-4.9789
X7.0423Y-5.0341
X7.0685Y-1.2363
X7.0685Y-4.0709
X7.1662Y-1.1995
X7.1662Y-3.811
X7.4149Y-2.8243
X7.4165Y-4.5482
X7.4395Y-4.3437
X7.4979Y-3.3266
X7.5195Y-4.8363
X7.7842Y-2.861
X7.8095Y-2.2365
X7.886Y-4.1176
X7.9775Y-4.0489
X8.0323Y-5.1726
X8.1143Y-3.13
X8.1146Y-4.8047
X8.123Y-7.7531
X8.1487Y-9.0667
X8.1517Y-1.7218
X8.1517Y-4.3683
X8.1631Y-6.0256
X8.1705Y-10.4863
X8.1785Y-1.6752
X8.1836Y-7.2774
X8.1893Y-7.0357
X8.1934Y-8.2656
X8.2015Y-3.5667
X8.223Y-12.8807
X8.2579Y-9.372
X8.2649Y-2.7205
X8.2685Y-4.8126
X8.2718Y-1.9921
X8.28Y-6.4601
X8.28Y-6.857
X8.2876Y-6.5313
X8.2891Y-9.1459
X8.293Y-4.1092
X8.2952Y-0.9931
X8.2964Y-2.689
X8.2964Y-2.7756
X8.3014Y-6.1521
X8.3019Y-1.3136
X8.3051Y-7.9664
X8.3079Y-8.9559
X8.3083Y-3.4098
X8.3111Y-12.9106
X8.3192Y-11.0854
X8.3224Y-8.2713
X8.3233Y-8.6427
X8.3233Y-9.3445
X8.3242Y-10.784
X8.3249Y-11.8181
X8.3249Y-12.2192
X8.3249Y-12.4315
X8.3251Y-7.5676
X8.3253Y-3.822
X8.326Y-3.7825
X8.3317Y-5.4397
X8.3337Y-4.5482
X8.336Y-10.3737
X8.3371Y-9.6679
X8.3375Y-13.2165
X8.3402Y-2.6451
X8.341Y-10.0665
X8.342Y-2.3396
X8.3461Y-4.061
X8.3461Y-4.2264
X8.3461Y-4.7461
X8.3461Y-4.9114
X8.3483Y-5.9308
X8.3539Y-3.376
X8.3539Y-3.5413
X8.3554Y-1.2717
X8.3554Y-1.437
X8.3554Y-6.126
X8.3554Y-6.2913
X8.3554Y-6.811
X8.3554Y-6.9764
X8.3568Y-7.9717
X8.3594Y-7.2021
X8.3596Y-5.4636
X8.3596Y-5.6289
X8.3633Y-1.937
X8.3633Y-2.1024
X8.3633Y-2.6181
X8.3633Y-2.7835
X8.3648Y-8.8996
X8.3648Y-9.065
X8.3648Y-10.3465
X8.3648Y-10.5118
X8.3648Y-12.4687
X8.3648Y-12.6341
X8.3674Y-13.1892
X8.3674Y-13.3545
X8.3713Y-11.7876
X8.3713Y-11.953
X8.3727Y-9.6417
X8.3727Y-9.8071
X8.3727Y-11.0315
X8.3727Y-11.1969
X8.3768Y-8.2116
X8.3768Y-8.377
X8.3781Y-5.2437
X8.3794Y-7.5236
X8.3794Y-7.689
X8.3978Y-7.3092
X8.4008Y-8.2431
X8.4027Y-2.878
X8.4088Y-2.1777
X8.4202Y-4.9834
X8.4278Y-10.6063
X8.4335Y-11.5958
X8.4371Y-2.4137
X8.4371Y-3.6319
X8.4371Y-6.3858
X8.4379Y-6.599
X8.4422Y-12.6951
X8.4549Y-11.4553
X8.4621Y-6.645
X8.4667Y-3.1559
X8.472Y-4.0728
X8.472Y-4.7579
X8.4724Y-12.2769
X8.4799Y-3.3878
X8.4814Y-1.2835
X8.4814Y-6.1378
X8.4814Y-6.8228
X8.4827Y-4.5179
X8.4856Y-5.4754
X8.4893Y-1.9488
X8.4893Y-2.6299
X8.4908Y-8.9114
X8.4908Y-10.3583
X8.4908Y-12.4805
X8.4933Y-13.201
X8.4973Y-11.7994
X8.4985Y-10.1205
X8.4987Y-9.6535
X8.4987Y-11.0433
X8.5Y-4.2566
X8.5021Y-11.6321
X8.5026Y-4.9159
X8.5028Y-8.2234
X8.5054Y-7.5354
X8.5107Y-6.9707
X8.5124Y-1.4375
X8.5156Y-5.2432
X8.5172Y-2.0977
X8.521Y-12.6431
X8.5277Y-11.9533
X8.53Y-9.8077
X8.5314Y-7.3323
X8.534Y-8.382
X8.5367Y-7.6896
X8.5411Y-5.8988
X8.5496Y-0.9779
X8.5626Y-4.0571
X8.5626Y-4.7421
X8.5652Y-8.6283
X8.5705Y-3.372
X8.572Y-1.2677
X8.572Y-6.122
X8.572Y-6.8071
X8.5761Y-5.4596
X8.5769Y-4.1723
X8.5769Y-4.8573
X8.5793Y-10.778
X8.5798Y-1.9331
X8.5798Y-2.6142
X8.5813Y-8.8957
X8.5813Y-10.3425
X8.5813Y-12.4648
X8.5839Y-13.1852
X8.5848Y-3.4872
X8.5863Y-1.3829
X8.5863Y-6.2372
X8.5863Y-6.9223
X8.5878Y-11.7837
X8.5892Y-9.6378
X8.5892Y-11.0276
X8.5904Y-5.5748
X8.5933Y-8.2077
X8.5941Y-2.0483
X8.5941Y-2.7294
X8.5942Y-9.1109
X8.5956Y-9.0109
X8.5956Y-10.4577
X8.5956Y-12.58
X8.5959Y-7.5197
X8.5968Y-1.4513
X8.5968Y-7.0213
X8.597Y-11.2577
X8.5981Y-8.4346
X8.5982Y-13.3004
X8.6013Y-13.3801
X8.6021Y-11.8989
X8.6026Y-9.8489
X8.6031Y-11.9698
X8.6035Y-9.753
X8.6035Y-11.1428
X8.6059Y-4.061
X8.6059Y-4.1437
X8.6059Y-4.7461
X8.6059Y-4.8287
X8.6076Y-8.3229
X8.6102Y-7.6349
X8.6138Y-3.376
X8.6138Y-3.4587
X8.6153Y-1.2717
X8.6153Y-1.3543
X8.6153Y-6.126
X8.6153Y-6.2087
X8.6153Y-6.811
X8.6153Y-6.8937
X8.6194Y-5.4636
X8.6194Y-5.5463
X8.6231Y-1.937
X8.6231Y-2.0197
X8.6231Y-2.6181
X8.6231Y-2.7008
X8.6246Y-8.8996
X8.6246Y-8.9823
X8.6246Y-10.3465
X8.6246Y-10.4291
X8.6246Y-12.4687
X8.6246Y-12.5514
X8.6272Y-13.1892
X8.6272Y-13.2719
X8.6311Y-11.7876
X8.6311Y-11.8703
X8.6325Y-9.6417
X8.6325Y-9.7244
X8.6325Y-11.0315
X8.6325Y-11.1142
X8.6367Y-8.2116
X8.6367Y-8.2943
X8.6392Y-7.5236
X8.6392Y-7.6063
X8.6432Y-12.1667
X8.6619Y-7.7355
X8.6706Y-5.9433
X8.6764Y-7.7749
X8.6818Y-5.6954
X8.6965Y-3.826
X8.7341Y-5.9829
X8.7341Y-4.4636
X8.7511Y-1.7213
X8.7511Y-2.3116
X8.7511Y-7.7942
X8.8721Y-9.0986
X8.8737Y-8.3177
X8.8779Y-6.5312
X8.885Y-1.2917
X8.885Y-3.1178
X8.8898Y-6.1884
X8.8911Y-4.8042
X8.8914Y-6.8783
X8.8914Y-5.8583
X8.8948Y-3.4323
X8.9081Y-3.2529
X8.9094Y-10.4488
X8.9176Y-6.6703
X8.928Y-9.1606
X8.9295Y-7.9677
X8.9316Y-3.7785
X8.9331Y-10.4047
X8.9357Y-3.0935
X8.9364Y-5.1357
X8.9397Y-7.4506
X8.9409Y-8.2634
X8.9445Y-4.7421
X8.9445Y-4.9075
X8.9469Y-10.4724
X8.9499Y-5.4646
X8.9499Y-5.6299
X8.9524Y-4.0571
X8.9524Y-4.2224
X8.9549Y-6.5808
X8.9563Y-3.372
X8.9563Y-3.5374
X8.9616Y-2.6637
X8.9684Y-6.1368
X8.9684Y-6.3022
X8.9705Y-8.9275
X8.971Y-6.812
X8.971Y-6.9774
X8.9762Y-7.8814
X8.9764Y-1.9648
X8.9783Y-12.5188
X8.9789Y-10.382
X8.9803Y-10.078
X8.9847Y-0.9875
X8.9864Y-13.1945
X8.9866Y-4.9923
X8.9866Y-5.236
X8.988Y-7.55
X8.9919Y-11.5112
X9.0023Y-11.7456
X9.0044Y-5.7065
X9.0049Y-8.5924
X9.005Y-1.2756
X9.005Y-1.4409
X9.0056Y-4.3058
X9.0067Y-8.1959
X9.0067Y-8.3612
X9.0114Y-12.1475
X9.0119Y-10.7162
X9.0129Y-1.9409
X9.0129Y-2.1063
X9.0141Y-9.0915
X9.0146Y-7.5226
X9.0146Y-7.688
X9.0182Y-2.6191
X9.0182Y-2.7844
X9.0188Y-10.9409
X9.0209Y-9.5896
X9.0209Y-11.7797
X9.0209Y-11.9451
X9.0228Y-12.9022
X9.0258Y-9.3596
X9.0264Y-8.8809
X9.0264Y-9.0463
X9.0315Y-12.4559
X9.0315Y-12.6213
X9.0431Y-13.1823
X9.0431Y-13.3476
X9.0459Y-10.3307
X9.0459Y-10.4961
X9.0498Y-9.6378
X9.0498Y-9.8031
X9.0498Y-11.0197
X9.0498Y-11.185
X9.0651Y-2.8717
X9.0651Y-9.9861
X9.0705Y-4.7539
X9.0759Y-5.4764
X9.0783Y-4.0689
X9.0811Y-4.5133
X9.0823Y-3.3839
X9.0833Y-2.1675
X9.0869Y-5.9179
X9.0944Y-6.1486
X9.097Y-6.8238
X9.0971Y-7.2976
X9.1036Y-1.0576
X9.1059Y-5.6266
X9.108Y-8.4708
X9.1085Y-3.7113
X9.1125Y-8.6555
X9.1144Y-4.2401
X9.1207Y-3.5574
X9.131Y-1.2874
X9.1327Y-8.2077
X9.1389Y-1.9528
X9.1406Y-7.5344
X9.1442Y-2.6309
X9.1469Y-11.7915
X9.1495Y-1.7125
X9.1524Y-8.8927
X9.1548Y-2.3912
X9.1559Y-10.8005
X9.1575Y-12.4677
X9.1593Y-11.551
X9.161Y-4.7382
X9.1615Y-1.4395
X9.1637Y-8.3801
X9.1665Y-5.4606
X9.1669Y-2.7821
X9.1689Y-4.0531
X9.169Y-2.111
X9.1691Y-13.1941
X9.1719Y-10.3425
X9.1728Y-3.3681
X9.1733Y-7.7017
X9.1753Y-4.8534
X9.1758Y-9.6496
X9.1758Y-11.0315
X9.1807Y-5.5758
X9.1832Y-4.1683
X9.185Y-6.1329
X9.1865Y-12.6147
X9.1871Y-3.4833
X9.1875Y-6.8081
X9.1971Y-13.3676
X9.1993Y-6.2481
X9.2018Y-6.9233
X9.2043Y-4.7421
X9.2043Y-4.8248
X9.2063Y-11.1916
X9.2098Y-5.4646
X9.2098Y-5.5472
X9.2122Y-4.0571
X9.2122Y-4.1398
X9.2161Y-3.372
X9.2161Y-3.4547
X9.2216Y-1.2717
X9.2233Y-8.1919
X9.2283Y-6.1368
X9.2283Y-6.2195
X9.2291Y-10.6853
X9.2294Y-1.937
X9.2308Y-6.812
X9.2308Y-6.8947
X9.2311Y-7.5187
X9.2318Y-10.1031
X9.2348Y-2.6152
X9.2359Y-1.3868
X9.2374Y-11.7758
X9.2376Y-8.3071
X9.2379Y-12.9022
X9.243Y-8.877
X9.2433Y-9.372
X9.2437Y-2.0522
X9.2454Y-7.6339
X9.2481Y-12.452
X9.2491Y-2.7303
X9.2517Y-11.891
X9.2572Y-8.9922
X9.2597Y-13.1783
X9.2624Y-12.5672
X9.2624Y-10.3268
X9.2649Y-1.2756
X9.2649Y-1.3583
X9.2664Y-9.6339
X9.2664Y-11.0157
X9.2666Y-8.1959
X9.2666Y-8.2785
X9.2728Y-1.9409
X9.2728Y-2.0236
X9.274Y-13.2935
X9.2744Y-7.5226
X9.2744Y-7.6053
X9.2767Y-10.442
X9.2781Y-2.6191
X9.2781Y-2.7018
X9.2807Y-9.7491
X9.2807Y-11.1309
X9.2807Y-11.7797
X9.2807Y-11.8624
X9.2851Y-9.7992
X9.2863Y-8.8809
X9.2863Y-8.9636
X9.2914Y-12.4559
X9.2914Y-12.5386
X9.3006Y-4.2401
X9.303Y-13.1823
X9.303Y-13.265
X9.3057Y-10.3307
X9.3057Y-10.4134
X9.3097Y-9.6378
X9.3097Y-9.7205
X9.3097Y-11.0197
X9.3097Y-11.1024
X9.5469Y-3.8719
X9.5512Y-3.9111
X9.5876Y-1.7402
X9.5876Y-1.7795
X9.6183Y-5.9413
X9.6365Y-3.8362
X9.67Y-12.2513
X9.6774Y-1.7015
X9.7042Y-10.1213
X9.7057Y-6.0748
X9.7227Y-5.1357
X9.7227Y-5.8179
X9.7239Y-3.9665
X9.7491Y-5.9331
X9.7552Y-12.386
X9.7566Y-12.2546
X9.7616Y-7.8696
X9.7648Y-1.8346
X9.7672Y-3.8248
X9.7822Y-8.125
X9.7884Y-6.0591
X9.7985Y-12.2443
X9.8008Y-10.2559
X9.8066Y-3.9508
X9.8081Y-1.6929
X9.8256Y-7.9833
X9.8378Y-12.3703
X9.8441Y-10.1142
X9.8475Y-1.8189
X9.8649Y-8.1093
X9.8835Y-10.2402
X10.469Y-5.9274
X10.4917Y-9.316
X10.555Y-4.0705
X10.5994Y-5.1607
X10.7286Y-6.9977
X10.735Y-8.138
X10.735Y-9.8751
X10.781Y-4.4449
X10.7945Y-3.4098
X10.808Y-4.1084
X10.808Y-2.7195
X10.8116Y-8.0974
X10.8188Y-4.4109
X10.8201Y-10.1983
X10.8308Y-4.3143
X10.8649Y-5.1897
X10.8796Y-2.0126
X10.9049Y-1.6062
X10.9347Y-3.3802
X10.9367Y-7.7245
X10.9377Y-7.4867
X10.9384Y-3.7236
X10.9384Y-5.7324
X10.9398Y-3.0176
X10.9399Y-5.4545
X10.9404Y-7.0969
X10.9439Y-2.3116
X10.9448Y-4.3512
X10.9449Y-12.4399
X10.949Y-9.7932
X10.952Y-5.0573
X10.9529Y-9.1366
X10.9703Y-6.2376
X10.9777Y-11.7878
X10.9817Y-13.1346
X10.9866Y-11.0923
X11.0069Y-12.7335
X11.0084Y-12.1616
X11.0184Y-9.6313
X11.0239Y-5.4495
X11.024Y-10.1814
X11.0244Y-10.6055
X11.0244Y-6.0771
X11.0249Y-7.4634
X11.0255Y-1.3702
X11.027Y-11.5196
X11.0359Y-4.7435
X11.0371Y-8.7746
X11.0373Y-8.8338
X11.0375Y-4.6052
X11.0447Y-6.8427
X11.0532Y-4.1063
X11.1045Y-8.6877
X11.1063Y-6.6999
X11.1122Y-10.7156
X11.1122Y-5.3519
X11.1156Y-2.6061
X11.1156Y-12.7433
X11.1282Y-9.3888
X11.1312Y-3.3078
X11.1374Y-7.3623
X11.1487Y-9.5439
X11.1719Y-12.8007
X11.1848Y-2.0683
X11.1848Y-2.7786
X11.1939Y-6.8249
X11.2002Y-11.6134
X11.2037Y-11.3227
X11.2037Y-13.3956
X11.2388Y-12.1209
X11.2392Y-6.0759
X11.2392Y-1.3702
X11.2401Y-10.1564
X11.2516Y-4.7468
X11.2517Y-10.8625
X11.4904Y-2.002
X11.4904Y-4.0295
X11.4904Y-6.0571
X11.4904Y-8.0846
X11.4904Y-10.1122
X11.4904Y-12.1398
X11.5373Y-2.1355
X11.5373Y-4.163
X11.5373Y-6.1906
X11.5373Y-8.2181
X11.5373Y-10.2457
X11.5373Y-12.2733
X11.5652Y-2.1673
X11.5652Y-4.1949
X11.5652Y-6.2224
X11.5652Y-8.25
X11.5652Y-10.2776
X11.5652Y-12.3051
X11.6632Y-2.1713
X11.6632Y-4.1988
X11.6632Y-6.2264
X11.6632Y-8.2539
X11.6632Y-10.2815
X11.6632Y-12.3091
X11.6954Y-12.1749
X11.7179Y-6.0818
X11.7179Y-6.8616
X11.7344Y-7.4107
X11.7344Y-8.0787
X11.7739Y-2.1919
X11.7739Y-4.2195
X11.7739Y-6.247
X11.7739Y-8.2746
X11.7739Y-10.3022
X11.7739Y-12.3297
X11.7778Y-1.9862
X11.7778Y-4.0138
X11.7778Y-6.0413
X11.7778Y-8.0689
X11.7778Y-10.0965
X11.7778Y-12.124
X11.8093Y-2.1004
X11.8093Y-4.128
X11.8093Y-6.1555
X11.8093Y-8.1831
X11.8093Y-10.2106
X11.8093Y-12.2382
X12.6228Y-9.3473
X12.755Y-4.5081
X12.8051Y-4.2765
X12.8209Y-3.5667
X12.8209Y-1.3577
X12.8335Y-10.0226
X12.8335Y-11.2823
X12.8376Y-7.964
X12.8701Y-6.2165
X12.8703Y-4.9144
X12.8708Y-4.1698
X12.8835Y-8.185
X12.8976Y-10.9266
X12.8981Y-1.9193
X12.9086Y-6.52
X12.912Y-7.985
X12.912Y-9.6092
X12.9188Y-6.8573
X12.9251Y-6.7148
X12.93Y-5.7633
X12.9303Y-3.5119
X12.9303Y-1.31
X12.9538Y-11.647
X12.9748Y-4.2483
X12.9748Y-10.2663
X12.9761Y-6.2509
X12.9767Y-1.6055
X12.978Y-9.596
X12.9793Y-2.2554
X12.9799Y-12.2694
X12.9853Y-8.2922
X12.9872Y-6.7627
X12.9877Y-4.9788
X12.9881Y-10.9838
X12.9882Y-6.9725
X12.9913Y-4.6769
X12.9914Y-3.9357
X12.9914Y-11.3344
X13.0081Y-8.8369
X13.0172Y-2.9947
X13.0172Y-12.9522
X13.0224Y-7.6618
X13.0295Y-7.3661
X13.032Y-3.3628
X13.0336Y-2.7802
X13.0364Y-6.6534
X13.0369Y-10.7091
X13.0425Y-3.5744
X13.048Y-7.3091
X13.0543Y-9.987
X13.0576Y-9.4648
X13.0597Y-11.3332
X13.0598Y-11.9608
X13.062Y-12.6312
X13.0626Y-6.6857
X13.0628Y-3.9751
X13.072Y-12.7036
X13.0724Y-10.7035
X13.0725Y-8.6659
X13.0727Y-4.665
X13.0958Y-6.0197
X13.0995Y-5.3738
X13.1445Y-12.8096
X13.1455Y-5.3779
X13.151Y-4.5504
X13.151Y-6.5518
X13.151Y-8.5548
X13.151Y-10.5583
X13.151Y-12.5611
X13.1519Y-7.2535
X13.1519Y-11.259
X13.1525Y-2.547
X13.1742Y-3.2474
X13.187Y-12.0442
X13.1966Y-5.9023
X13.2002Y-9.3863
X13.2032Y-5.2499
X13.242Y-9.2056
X13.242Y-13.2111
X13.2741Y-1.9873
X13.2745Y-7.3323
X13.2862Y-8.6659
X13.3045Y-3.31
X13.3105Y-2.8495
X13.5258Y-1.9429
X13.5258Y-3.9457
X13.5258Y-5.9484
X13.5258Y-7.9512
X13.5258Y-9.9539
X13.5258Y-11.9567
X13.5727Y-2.0764
X13.5727Y-4.0792
X13.5727Y-6.0819
X13.5727Y-8.0847
X13.5727Y-10.0874
X13.5727Y-12.0902
X13.6006Y-2.1083
X13.6006Y-4.111
X13.6006Y-6.1138
X13.6006Y-8.1165
X13.6006Y-10.1193
X13.6006Y-12.122
X13.6986Y-2.1122
X13.6986Y-4.115
X13.6986Y-6.1177
X13.6986Y-8.1205
X13.6986Y-10.1232
X13.6986Y-12.126
X13.7184Y-5.9825
X13.7184Y-9.9887
X13.7824Y-7.2371
X13.7824Y-7.9143
X13.8093Y-2.1329
X13.8093Y-4.1356
X13.8093Y-6.1384
X13.8093Y-8.1411
X13.8093Y-10.1439
X13.8093Y-12.1467
X13.8132Y-1.9272
X13.8132Y-3.9299
X13.8132Y-5.9327
X13.8132Y-7.9354
X13.8132Y-9.9382
X13.8132Y-11.9409
X13.8447Y-2.0413
X13.8447Y-4.0441
X13.8447Y-6.0469
X13.8447Y-8.0496
X13.8447Y-10.0524
X13.8447Y-12.0551
X13.8541Y-6.8616
X14.607Y-7.2077
X14.8747Y-3.9117
X14.8816Y-1.5339
X14.9619Y-5.3077
X14.9939Y-9.6073
X15.0024Y-7.6461
X15.0024Y-8.2441
X15.0063Y-8.1457
X15.0111Y-11.647
X15.0124Y-4.9004
X15.0159Y-3.5667
X15.0159Y-10.2685
X15.0167Y-2.1776
X15.0201Y-3.8966
X15.0217Y-2.8664
X15.0226Y-12.2746
X15.0245Y-10.9859
X15.0247Y-6.94
X15.0261Y-8.9534
X15.0317Y-5.5607
X15.0319Y-12.9848
X15.0349Y-2.5589
X15.0389Y-6.2463
X15.0464Y-4.1639
X15.0657Y-8.8937
X15.0825Y-10.7313
X15.0834Y-4.5866
X15.0914Y-6.874
X15.0934Y-1.2379
X15.0934Y-3.2857
X15.0962Y-7.9599
X15.0971Y-12.0124
X15.0972Y-1.8409
X15.0973Y-5.2461
X15.0973Y-7.3323
X15.0974Y-9.2975
X15.0979Y-5.9202
X15.0981Y-11.3332
X15.0993Y-8.6429
X15.1016Y-12.5977
X15.1085Y-10.7056
X15.1088Y-6.4873
X15.1095Y-6.6262
X15.1098Y-8.5095
X15.11Y-10.7861
X15.1102Y-10.0263
X15.1344Y-12.6161
X15.1791Y-10.5659
X15.1881Y-2.4616
X15.203Y-11.2643
X15.2044Y-3.1623
X15.2055Y-9.2368
X15.208Y-5.1875
X15.2138Y-7.212
X15.2189Y-12.0576
X15.2252Y-3.9668
X15.2285Y-12.7761
X15.2308Y-6.2506
X15.24Y-9.7807
X15.2458Y-2.6331
X15.2688Y-3.3083
X15.2812Y-13.2375
X15.3115Y-9.2935
X15.3116Y-1.2379
X15.3117Y-7.9599
X15.312Y-7.3323
X15.3123Y-11.3332
X15.3127Y-5.9202
X15.3129Y-9.9995
X15.313Y-1.8409
X15.3236Y-12.6689
X15.324Y-8.6659
X15.3242Y-6.6262
X15.3251Y-4.5866
X15.5629Y-1.8568
X15.5629Y-3.8821
X15.5629Y-5.9075
X15.5629Y-7.9328
X15.5629Y-9.9582
X15.5629Y-11.9835
X15.6098Y-1.9903
X15.6098Y-4.0156
X15.6098Y-6.041
X15.6098Y-8.0663
X15.6098Y-10.0917
X15.6098Y-12.117
X15.6377Y-2.0221
X15.6377Y-4.0475
X15.6377Y-6.0728
X15.6377Y-8.0982
X15.6377Y-10.1235
X15.6377Y-12.1489
X15.7357Y-2.0261
X15.7357Y-4.0514
X15.7357Y-6.0768
X15.7357Y-8.1021
X15.7357Y-10.1275
X15.7357Y-12.1528
X15.8051Y-3.8765
X15.8051Y-5.105
X15.8195Y-5.8709
X15.8195Y-9.922
X15.8464Y-2.0467
X15.8464Y-4.0721
X15.8464Y-6.0974
X15.8464Y-8.1228
X15.8464Y-10.1481
X15.8464Y-12.1735
X15.8503Y-1.841
X15.8503Y-3.8664
X15.8503Y-5.8917
X15.8503Y-7.9171
X15.8503Y-9.9424
X15.8503Y-11.9678
X15.8818Y-1.9552
X15.8818Y-3.9806
X15.8818Y-6.0059
X15.8818Y-8.0313
X15.8818Y-10.0566
X15.8818Y-12.082
X15.8953Y-4.2728
X16.0523Y-11.8823
X17.0184Y-3.2662
X17.069Y-3.8789
X17.069Y-5.3835
X17.1024Y-4.4134
X17.1201Y-4.1943
X17.1297Y-2.8807
X17.1317Y-2.2012
X17.1333Y-1.4946
X17.1349Y-3.529
X17.1376Y-3.4528
X17.1416Y-3.1784
X17.1663Y-4.8438
X17.1836Y-1.2379
X17.2073Y-2.5469
X17.2092Y-1.2133
X17.2092Y-1.9193
X17.2143Y-4.8183
X17.2216Y-4.5873
X17.2323Y-4.4305
X17.2606Y-5.105
X17.2691Y-3.763
X17.2813Y-2.4443
X17.298Y-1.7297
X17.4195Y-2.5469
X17.425Y-1.9193
X17.4336Y-3.8805
X17.4379Y-4.5952
X17.5975Y-3.9571
X17.6262Y-3.9213
X17.6839Y-3.9785
X17.6931Y-1.9528
X17.6931Y-2.0
X17.7233Y-3.7778
X17.739Y-4.0888
X17.7522Y-2.0079
X17.7916Y-1.8071
X17.8073Y-2.1181
X17.8335Y-4.0179
X17.865Y-3.9628
X17.9018Y-2.0473
X17.9333Y-1.9921
X17.9451Y-3.8701
X18.016Y-1.8976
T3
X4.1762Y-0.8465
X4.2762Y-0.8465
X4.3762Y-0.8465
X4.689Y-1.0551
X4.689Y-1.1551
X4.689Y-1.2551
X4.689Y-1.3551
X4.9449Y-1.0561
X4.9449Y-1.1561
X4.9449Y-1.2561
X4.9449Y-1.3561
X4.9449Y-1.4561
X6.8002Y-7.8656
X6.8002Y-7.9656
X6.8002Y-8.0656
X6.8002Y-8.1656
X6.8002Y-8.2656
X6.8002Y-8.3656
X6.8002Y-8.4656
X6.8002Y-8.5656
X6.8002Y-8.6656
X6.8002Y-8.7656
X6.8002Y-8.8656
X6.8002Y-8.9656
X18.3979Y-2.8829
X18.3979Y-2.9829
T4
X0.6339Y-0.5906
X0.6339Y-13.9764
X18.748Y-0.5906
X18.748Y-13.9764
T0
M30
