%TF.GenerationSoftware,KiCad,Pcbnew,(6.99.0-3937-g3e53426b6c)*%
%TF.CreationDate,2025-03-11T03:35:31-04:00*%
%TF.ProjectId,AnalogFNN,416e616c-6f67-4464-9e4e-2e6b69636164,rev?*%
%TF.SameCoordinates,Original*%
%TF.FileFunction,Copper,L8,Inr*%
%TF.FilePolarity,Positive*%
%FSLAX46Y46*%
G04 Gerber Fmt 4.6, Leading zero omitted, Abs format (unit mm)*
G04 Created by KiCad (PCBNEW (6.99.0-3937-g3e53426b6c)) date 2025-03-11 03:35:31*
%MOMM*%
%LPD*%
G01*
G04 APERTURE LIST*
%TA.AperFunction,ComponentPad*%
%ADD10O,1.700000X1.700000*%
%TD*%
%TA.AperFunction,ComponentPad*%
%ADD11R,1.700000X1.700000*%
%TD*%
%TA.AperFunction,ViaPad*%
%ADD12C,4.000000*%
%TD*%
%TA.AperFunction,ViaPad*%
%ADD13C,0.800000*%
%TD*%
%TA.AperFunction,ViaPad*%
%ADD14C,0.400000*%
%TD*%
%TA.AperFunction,Conductor*%
%ADD15C,0.250000*%
%TD*%
%TA.AperFunction,Conductor*%
%ADD16C,0.350200*%
%TD*%
%TA.AperFunction,Conductor*%
%ADD17C,0.400000*%
%TD*%
%TA.AperFunction,Conductor*%
%ADD18C,0.450400*%
%TD*%
G04 APERTURE END LIST*
D10*
%TO.N,+3V3*%
%TO.C,J2*%
X125599999Y-36984999D03*
%TO.N,GND*%
X125599999Y-34444999D03*
%TO.N,+5V*%
X125599999Y-31904999D03*
%TO.N,GND*%
X125599999Y-29364999D03*
D11*
%TO.N,-5V*%
X125599999Y-26824999D03*
%TD*%
%TO.N,GND*%
%TO.C,J1*%
X119099999Y-26799999D03*
D10*
%TO.N,/SWCLK*%
X119099999Y-29339999D03*
%TO.N,/SWDIO*%
X119099999Y-31879999D03*
%TO.N,+3V3*%
X119099999Y-34419999D03*
%TD*%
D11*
%TO.N,GND*%
%TO.C,SW1*%
X106074999Y-21499999D03*
D10*
%TO.N,Net-(SW1-B)*%
X108614999Y-21499999D03*
%TO.N,+3V3*%
X111154999Y-21499999D03*
%TD*%
D11*
%TO.N,/L5_OUT1*%
%TO.C,J4*%
X467306099Y-73225199D03*
D10*
%TO.N,/L5_OUT2*%
X467306099Y-75765199D03*
%TD*%
%TO.N,/L1_IN12*%
%TO.C,J3*%
X172724999Y-227724999D03*
%TO.N,/L1_IN11*%
X172724999Y-225184999D03*
%TO.N,/L1_IN10*%
X172724999Y-222644999D03*
%TO.N,/L1_IN9*%
X172724999Y-220104999D03*
%TO.N,/L1_IN8*%
X172724999Y-217564999D03*
%TO.N,/L1_IN7*%
X172724999Y-215024999D03*
%TO.N,/L1_IN6*%
X172724999Y-212484999D03*
%TO.N,/L1_IN5*%
X172724999Y-209944999D03*
%TO.N,/L1_IN4*%
X172724999Y-207404999D03*
%TO.N,/L1_IN3*%
X172724999Y-204864999D03*
%TO.N,/L1_IN2*%
X172724999Y-202324999D03*
D11*
%TO.N,/L1_IN1*%
X172724999Y-199784999D03*
%TD*%
D12*
%TO.N,GND*%
X476200000Y-15000000D03*
X476200000Y-355000000D03*
X16100000Y-355000000D03*
X16100000Y-15000000D03*
D13*
X116000000Y-304100000D03*
D14*
X388198000Y-127306000D03*
X211919276Y-246960041D03*
X58400000Y-56900000D03*
D13*
X177325000Y-136465000D03*
X46650000Y-143200000D03*
X249569000Y-202775000D03*
X178075000Y-95565000D03*
D14*
X387398000Y-315582000D03*
X284756000Y-182550000D03*
D13*
X219028000Y-68600000D03*
D14*
X383574000Y-126506000D03*
D13*
X68050000Y-94650000D03*
X402498000Y-51986700D03*
X46700000Y-224000000D03*
X299156000Y-153450000D03*
X68650000Y-107450000D03*
D14*
X283956000Y-62049700D03*
X226800000Y-302500000D03*
D13*
X350856000Y-150690000D03*
D14*
X210872400Y-159700000D03*
X209700000Y-230000000D03*
D13*
X218828000Y-157700000D03*
X146600000Y-316850000D03*
D14*
X380098700Y-155400000D03*
X279609000Y-147125000D03*
D13*
X68200000Y-195400000D03*
D14*
X279609000Y-250125000D03*
D13*
X219066000Y-318805000D03*
D14*
X434500000Y-53000000D03*
D13*
X68400000Y-208400000D03*
D14*
X210344800Y-35900000D03*
D13*
X68650000Y-167900000D03*
D14*
X210928700Y-283600000D03*
D13*
X90800000Y-154300000D03*
X236466000Y-246900000D03*
X89400000Y-323800000D03*
X89200000Y-258000000D03*
D14*
X225000000Y-158100000D03*
D13*
X146300000Y-216700000D03*
X118500000Y-120000000D03*
X90425000Y-94135000D03*
X68150000Y-142000000D03*
X147200000Y-188900000D03*
D14*
X329756000Y-89120200D03*
X284756000Y-337050000D03*
D13*
X46800000Y-318100000D03*
D14*
X335656000Y-60549700D03*
D13*
X91000000Y-167300000D03*
D14*
X228517572Y-336867939D03*
D13*
X116300000Y-323400000D03*
D14*
X383574000Y-280838000D03*
D13*
X248087000Y-97150000D03*
D14*
X329600000Y-327300000D03*
D13*
X47500000Y-127600000D03*
X402498000Y-309207000D03*
X146900000Y-182500000D03*
X116000000Y-257450000D03*
D14*
X283956000Y-268050000D03*
X383574000Y-75062200D03*
D13*
X89800000Y-277300000D03*
X117125000Y-241885000D03*
D14*
X69700000Y-64700000D03*
D13*
X90500000Y-229450000D03*
D14*
X381400000Y-121594400D03*
D13*
X250040000Y-256900000D03*
X129100000Y-29400000D03*
D14*
X279665000Y-163775000D03*
X387398000Y-161250000D03*
D13*
X219436000Y-193200000D03*
X326900000Y-157900000D03*
X350756000Y-206785000D03*
D14*
X331309000Y-144365000D03*
X284756000Y-131050000D03*
D13*
X178675000Y-121265000D03*
X299156000Y-50450200D03*
X233928000Y-140900000D03*
X218790000Y-87850000D03*
D14*
X211100000Y-338200000D03*
X381498000Y-36062200D03*
D13*
X47200000Y-210000000D03*
X234463000Y-175125000D03*
D14*
X383574000Y-229394000D03*
X383107000Y-108531000D03*
X436694000Y-39319900D03*
X225487127Y-228587127D03*
D13*
X236466000Y-282000000D03*
X147100000Y-249000000D03*
D14*
X209000000Y-140437100D03*
D13*
X148650000Y-100100000D03*
X68200000Y-188900000D03*
X118400000Y-160400000D03*
X46200000Y-298800000D03*
X243526000Y-44200000D03*
X350756000Y-308525000D03*
D14*
X208453116Y-141604858D03*
X278056000Y-194250000D03*
X211215277Y-318778704D03*
D13*
X89400000Y-317400000D03*
X299056000Y-313175000D03*
X219066000Y-228150000D03*
D14*
X383107000Y-211419000D03*
D13*
X67300000Y-276900000D03*
D14*
X440940000Y-58712200D03*
D13*
X234398000Y-157975000D03*
X235528000Y-51400000D03*
D14*
X278056000Y-91250200D03*
D13*
X402498000Y-154875000D03*
X67800000Y-242400000D03*
D14*
X329756000Y-241730000D03*
D13*
X114700000Y-30400000D03*
X117325000Y-248485000D03*
D14*
X335656000Y-314900000D03*
D13*
X116825000Y-222585000D03*
X47200000Y-249900000D03*
D14*
X207700000Y-89700000D03*
D13*
X116600000Y-270250000D03*
D14*
X228300000Y-320600000D03*
X383107000Y-159975000D03*
X277867500Y-126511700D03*
D13*
X47000000Y-203400000D03*
D14*
X280132000Y-233250000D03*
D13*
X68650000Y-113950000D03*
X147200000Y-201800000D03*
D14*
X227446800Y-69046800D03*
D13*
X90800000Y-147800000D03*
X146400000Y-264400000D03*
D14*
X210872400Y-177000000D03*
D13*
X101100000Y-33800000D03*
X402498000Y-206319000D03*
X178675000Y-114865000D03*
X447706000Y-99600200D03*
X299056000Y-261675000D03*
D14*
X210057000Y-266000000D03*
X279665000Y-112275000D03*
X33500000Y-23000000D03*
D13*
X118200000Y-100700000D03*
X350756000Y-155915000D03*
X46900000Y-264000000D03*
D14*
X329756000Y-139990000D03*
X228000000Y-195100000D03*
X335656000Y-213160000D03*
D13*
X68450000Y-154900000D03*
D14*
X387297000Y-299049000D03*
X387297000Y-196161000D03*
X226700000Y-283400000D03*
D13*
X147400000Y-208400000D03*
D14*
X227852500Y-140900500D03*
X331309000Y-246105000D03*
X336456000Y-281530000D03*
X210898424Y-282259796D03*
X224676500Y-123700000D03*
D13*
X46600000Y-257600000D03*
D14*
X383574000Y-332282000D03*
D13*
X233790000Y-122550000D03*
D14*
X208793934Y-158083426D03*
D13*
X117125000Y-228985000D03*
X89900000Y-176300000D03*
X46950000Y-162500000D03*
D14*
X22300000Y-79300000D03*
X329756000Y-190860000D03*
X278000000Y-262100000D03*
D13*
X219371000Y-210675000D03*
X177925000Y-149265000D03*
X219131000Y-337105000D03*
D14*
X21900000Y-67300000D03*
D13*
X67300000Y-270400000D03*
X177925000Y-155765000D03*
D14*
X277600000Y-331600000D03*
D13*
X148100000Y-147200000D03*
D14*
X279609000Y-44124900D03*
D13*
X435295400Y-87700000D03*
X66700000Y-257600000D03*
D14*
X31666900Y-69100000D03*
D13*
X146600000Y-176100000D03*
X178875000Y-127865000D03*
D14*
X331832000Y-331600000D03*
D13*
X328137248Y-174175044D03*
D14*
X388198000Y-230194000D03*
D13*
X177625000Y-142865000D03*
X226900548Y-264279565D03*
D14*
X331832000Y-280730000D03*
X380941078Y-70158922D03*
X68599678Y-33493545D03*
D13*
X249126000Y-43000000D03*
D14*
X383107000Y-57087000D03*
X26100000Y-35100000D03*
X279609000Y-301625000D03*
D13*
X235731000Y-301305000D03*
D14*
X436859000Y-91074900D03*
X381274500Y-103900000D03*
D13*
X227251500Y-266000000D03*
X67200000Y-216700000D03*
X47400000Y-289900000D03*
X47300000Y-108100000D03*
X47300000Y-121000000D03*
X90500000Y-202000000D03*
D14*
X27100000Y-47000000D03*
X227417572Y-34412636D03*
X227800000Y-212400000D03*
X226500000Y-89800000D03*
D13*
X116600000Y-283150000D03*
X67300000Y-283300000D03*
X210728000Y-70500000D03*
D14*
X336456000Y-128920000D03*
D13*
X67000000Y-264000000D03*
D14*
X441155000Y-109267000D03*
D13*
X47000000Y-243300000D03*
X218590000Y-122650000D03*
D14*
X209764477Y-228664477D03*
D13*
X116500000Y-330000000D03*
X402598000Y-201094000D03*
D14*
X284756000Y-285550000D03*
D13*
X116600000Y-276750000D03*
X46700000Y-95300000D03*
D14*
X61700000Y-48500000D03*
X434900000Y-35000000D03*
D13*
X117925000Y-194595000D03*
D14*
X335555000Y-196627000D03*
D13*
X146900000Y-236000000D03*
X47000000Y-101700000D03*
X90200000Y-223050000D03*
D14*
X330700000Y-73700000D03*
D13*
X218933000Y-140875000D03*
X146600000Y-323250000D03*
X299156000Y-204950000D03*
X47000000Y-190500000D03*
X148100000Y-160100000D03*
D14*
X210196900Y-264695500D03*
X278056000Y-142750000D03*
D13*
X68200000Y-201800000D03*
X146700000Y-270800000D03*
D14*
X211200000Y-320800000D03*
D13*
X437242074Y-122385286D03*
X116300000Y-263850000D03*
D14*
X387398000Y-264138000D03*
D13*
X90500000Y-242350000D03*
X247626000Y-150700000D03*
X118400000Y-147500000D03*
D14*
X228876500Y-318505800D03*
X210300000Y-53000000D03*
D13*
X218590000Y-105250000D03*
X350856000Y-201560000D03*
X218828000Y-34400000D03*
D14*
X336456000Y-78050200D03*
D13*
X46500000Y-305200000D03*
X67100000Y-310150000D03*
D14*
X227300000Y-35600000D03*
D13*
X350856000Y-48950200D03*
X67100000Y-323050000D03*
X46400000Y-217600000D03*
D14*
X209200000Y-211500000D03*
D13*
X457606000Y-48200200D03*
X402498000Y-103431000D03*
D14*
X280132000Y-78750200D03*
X436594000Y-74319900D03*
X279609000Y-95624900D03*
D13*
X299056000Y-210175000D03*
X47200000Y-270400000D03*
D14*
X432847840Y-103658746D03*
D13*
X116300000Y-317000000D03*
X299056000Y-107175000D03*
X248881000Y-311005000D03*
D14*
X383051000Y-40436900D03*
X335555000Y-298367000D03*
D13*
X90700000Y-248950000D03*
D14*
X283855000Y-148517000D03*
X211000000Y-212900000D03*
X436694000Y-57319900D03*
X387398000Y-212694000D03*
D13*
X235328000Y-34500000D03*
D14*
X331365000Y-110145000D03*
D13*
X91025000Y-119835000D03*
X68350000Y-101050000D03*
X147500000Y-134400000D03*
D14*
X331365000Y-161015000D03*
D13*
X148950000Y-106500000D03*
D14*
X280132000Y-284750000D03*
X436909000Y-107875000D03*
D13*
X177925000Y-162165000D03*
D14*
X279665000Y-266775000D03*
D13*
X47200000Y-276900000D03*
D14*
X383051000Y-143325000D03*
D13*
X235571000Y-193175000D03*
D14*
X383574000Y-177950000D03*
D13*
X90200000Y-182700000D03*
X149150000Y-126000000D03*
D14*
X383107000Y-314307000D03*
X227300000Y-175150500D03*
D13*
X299156000Y-256450000D03*
D14*
X211700000Y-249100000D03*
X35400000Y-35300000D03*
X279169100Y-160400000D03*
D13*
X235663000Y-68625000D03*
D14*
X226853500Y-301300000D03*
X226398897Y-282195671D03*
D13*
X146700000Y-277300000D03*
X46800000Y-324500000D03*
X219266000Y-247000000D03*
D14*
X278056000Y-297250000D03*
D13*
X46350000Y-136800000D03*
D14*
X387297000Y-41829200D03*
X380900000Y-327600000D03*
X331309000Y-42624900D03*
D13*
X68450000Y-161300000D03*
X146600000Y-310350000D03*
X118500000Y-107100000D03*
D14*
X335656000Y-111420000D03*
D13*
X118700000Y-126600000D03*
X109600000Y-39300000D03*
D14*
X283855000Y-251517000D03*
D13*
X117125000Y-235485000D03*
X146900000Y-242400000D03*
X148300000Y-166700000D03*
X350856000Y-303300000D03*
X236366000Y-264500000D03*
X47150000Y-169100000D03*
D14*
X279665000Y-60775000D03*
X228491330Y-229598032D03*
D13*
X146600000Y-223100000D03*
D14*
X226000000Y-106800000D03*
D13*
X68650000Y-120350000D03*
D14*
X284756000Y-79550200D03*
X29300000Y-44300000D03*
D13*
X66800000Y-303750000D03*
D14*
X331365000Y-59275000D03*
X226700000Y-87750500D03*
X244266000Y-258000000D03*
D13*
X402498000Y-257763000D03*
X116525000Y-216185000D03*
X235871000Y-227675000D03*
D14*
X330300000Y-53700000D03*
D13*
X67300000Y-329650000D03*
D14*
X437009000Y-125275000D03*
D13*
X350856000Y-252430000D03*
D14*
X227714500Y-122575500D03*
D13*
X146900000Y-229500000D03*
X178675000Y-108365000D03*
X178125000Y-168765000D03*
X148950000Y-113000000D03*
D14*
X209782422Y-195393922D03*
X209700000Y-175600000D03*
X280132000Y-181750000D03*
D13*
X402598000Y-149650000D03*
X118100000Y-141100000D03*
X148350000Y-93700000D03*
X67500000Y-289900000D03*
X47200000Y-283300000D03*
X147200000Y-195400000D03*
X146800000Y-329850000D03*
D14*
X22200000Y-90200000D03*
D13*
X90200000Y-135000000D03*
X89400000Y-310900000D03*
X117800000Y-134700000D03*
X68850000Y-126950000D03*
X90500000Y-195600000D03*
X67600000Y-176100000D03*
D14*
X46700000Y-40600000D03*
X69700000Y-54000000D03*
D13*
X67900000Y-182500000D03*
D14*
X335555000Y-44017200D03*
X383051000Y-246213000D03*
X328600000Y-309200000D03*
D13*
X66500000Y-297350000D03*
X402598000Y-46762200D03*
X106100000Y-19000000D03*
D14*
X382700000Y-259500000D03*
X387398000Y-58361700D03*
X210075066Y-51685574D03*
X329756000Y-292600000D03*
D13*
X116300000Y-310500000D03*
D14*
X243839000Y-203921000D03*
D13*
X218828000Y-175100000D03*
X146900000Y-290300000D03*
X219231000Y-301505000D03*
D14*
X283956000Y-165050000D03*
X277600000Y-313700000D03*
X34500000Y-54700000D03*
X211379500Y-122650500D03*
D13*
X47000000Y-197000000D03*
D14*
X381498000Y-293282000D03*
X280132000Y-130250000D03*
D13*
X117625000Y-181695000D03*
D14*
X331832000Y-128120000D03*
X335555000Y-247497000D03*
X227592400Y-70400000D03*
D13*
X146100000Y-258000000D03*
D14*
X209180803Y-106933075D03*
X336456000Y-332400000D03*
D13*
X146700000Y-283700000D03*
D14*
X211600000Y-337130800D03*
D13*
X90700000Y-208600000D03*
X90725000Y-100535000D03*
D14*
X57000000Y-35500000D03*
D13*
X327240400Y-207900000D03*
X350756000Y-257655000D03*
X118500000Y-113600000D03*
D14*
X278056000Y-245750000D03*
X381498000Y-87506200D03*
X283855000Y-97017200D03*
D13*
X89800000Y-270800000D03*
D14*
X224676500Y-142900000D03*
X331832000Y-178990000D03*
X383051000Y-297657000D03*
X224500000Y-176700000D03*
D13*
X67500000Y-223100000D03*
X235371000Y-210275000D03*
D14*
X211554600Y-87850500D03*
D13*
X146000000Y-297550000D03*
D14*
X329756000Y-38250200D03*
D13*
X46950000Y-149600000D03*
D14*
X241825000Y-151825000D03*
D13*
X67100000Y-316650000D03*
D14*
X284756000Y-234050000D03*
X227196800Y-51796800D03*
X335656000Y-264030000D03*
X331000000Y-277200000D03*
D13*
X402598000Y-252538000D03*
X90800000Y-160700000D03*
X382668500Y-225900000D03*
D14*
X335555000Y-94887200D03*
X331309000Y-93494900D03*
X383107000Y-262863000D03*
D13*
X178375000Y-101965000D03*
D14*
X331762178Y-226562178D03*
D13*
X455806000Y-98300200D03*
X47000000Y-331100000D03*
D14*
X336456000Y-230660000D03*
X387297000Y-93273200D03*
D13*
X350756000Y-54174700D03*
D14*
X383051000Y-91880900D03*
D13*
X89500000Y-264400000D03*
D14*
X228246500Y-210275500D03*
D13*
X118125000Y-207595000D03*
D14*
X228400000Y-338800000D03*
D13*
X68450000Y-148400000D03*
D14*
X388198000Y-281638000D03*
D13*
X148950000Y-119400000D03*
X129000000Y-34400000D03*
D14*
X433901300Y-70100000D03*
D13*
X91025000Y-106935000D03*
D14*
X208900000Y-105254900D03*
D13*
X402598000Y-98206200D03*
X236001000Y-318480000D03*
X68000000Y-249000000D03*
X117900000Y-94300000D03*
D14*
X210800000Y-302800000D03*
D13*
X46400000Y-177700000D03*
X117925000Y-200995000D03*
X383320800Y-174600000D03*
D14*
X383051000Y-194769000D03*
D13*
X90500000Y-189100000D03*
D14*
X388198000Y-333082000D03*
X388198000Y-75862200D03*
X387297000Y-144717000D03*
D13*
X326917692Y-105913388D03*
X47300000Y-114600000D03*
X117925000Y-188095000D03*
X89600000Y-330400000D03*
X146300000Y-303950000D03*
D14*
X46400000Y-67700000D03*
D13*
X90500000Y-141400000D03*
D14*
X227500000Y-53100000D03*
X209788500Y-194000000D03*
X278056000Y-39750200D03*
X331365000Y-262755000D03*
X381498000Y-241838000D03*
X331365000Y-211885000D03*
X279700000Y-178800000D03*
X283855000Y-45517200D03*
X331309000Y-296975000D03*
D13*
X147800000Y-140800000D03*
X219266000Y-282300000D03*
X275103010Y-109582555D03*
D14*
X335555000Y-145757000D03*
D13*
X381161100Y-206900000D03*
X47000000Y-230400000D03*
D14*
X336456000Y-179790000D03*
D13*
X47000000Y-236900000D03*
D14*
X329500000Y-258200000D03*
D13*
X67800000Y-229500000D03*
X210728000Y-68300000D03*
X91025000Y-113435000D03*
X326904592Y-124825820D03*
D14*
X280132000Y-336250000D03*
X381498000Y-138950000D03*
D13*
X350856000Y-99820200D03*
D14*
X381200000Y-52400000D03*
X210806444Y-300790794D03*
X441255000Y-126667000D03*
D13*
X299156000Y-307950000D03*
X89900000Y-216650000D03*
D14*
X440940000Y-40712200D03*
X279665000Y-215275000D03*
D13*
X116800000Y-289750000D03*
X90000000Y-290300000D03*
D14*
X283855000Y-303017000D03*
D13*
X236296000Y-336930000D03*
D14*
X283855000Y-200017000D03*
D13*
X219028000Y-51300000D03*
D14*
X283956000Y-319550000D03*
X22800000Y-56800000D03*
D13*
X91225000Y-126435000D03*
X118400000Y-154000000D03*
D14*
X283956000Y-216550000D03*
X278600000Y-55300000D03*
D13*
X115700000Y-297700000D03*
X46800000Y-311600000D03*
D14*
X388198000Y-178750000D03*
X224600000Y-106000000D03*
X278000000Y-280100000D03*
D13*
X46950000Y-156100000D03*
X299156000Y-101950000D03*
X88800000Y-298100000D03*
D14*
X331832000Y-77250200D03*
X226500000Y-249200000D03*
X227700000Y-193200000D03*
X243131000Y-312105000D03*
X211600000Y-34500000D03*
X331832000Y-229860000D03*
D13*
X233990000Y-105150000D03*
D14*
X441105000Y-92467200D03*
X279295200Y-229800000D03*
X23700000Y-25300000D03*
D13*
X219066000Y-264900000D03*
X89800000Y-283700000D03*
D14*
X383000000Y-277600000D03*
X279665000Y-318275000D03*
D13*
X148100000Y-153700000D03*
X67850000Y-135600000D03*
D14*
X440840000Y-75712200D03*
D13*
X90500000Y-235950000D03*
X299056000Y-55674700D03*
X118600000Y-167000000D03*
D14*
X331365000Y-313625000D03*
D13*
X117325000Y-175295000D03*
X299056000Y-158675000D03*
X449406000Y-49600200D03*
X46700000Y-184100000D03*
X402598000Y-303982000D03*
D14*
X381100000Y-309700000D03*
D13*
X350756000Y-105045000D03*
D14*
X208715000Y-123600000D03*
X224573700Y-160200000D03*
X335656000Y-162290000D03*
D13*
X59100000Y-25400000D03*
X89100000Y-304500000D03*
X453772000Y-100655000D03*
X455507000Y-50600200D03*
X234090000Y-87750000D03*
D14*
X38800000Y-41000000D03*
D13*
X242491000Y-98347500D03*
D14*
X277856000Y-74050200D03*
X283956000Y-113550000D03*
X279609000Y-198625000D03*
X381498000Y-190394000D03*
D13*
X67800000Y-236000000D03*
D14*
X226500000Y-247900000D03*
X387398000Y-109806000D03*
X279295200Y-211600000D03*
D13*
%TO.N,+3V3*%
X116500000Y-33600000D03*
X111100000Y-24200000D03*
%TO.N,Net-(U27B-+)*%
X291856000Y-50850200D03*
X293756000Y-55050200D03*
%TO.N,Net-(C20-Pad2)*%
X299956000Y-53350200D03*
X296245000Y-55150200D03*
%TO.N,Net-(U44B-+)*%
X291856000Y-256850000D03*
X293756000Y-261050000D03*
%TO.N,Net-(U31B-+)*%
X293756000Y-106550000D03*
X291856000Y-102350000D03*
%TO.N,Net-(C23-Pad2)*%
X296245000Y-106650000D03*
X299956000Y-104850000D03*
%TO.N,Net-(U36B-+)*%
X291856000Y-153850000D03*
X293756000Y-158050000D03*
%TO.N,Net-(C26-Pad2)*%
X299956000Y-156350000D03*
X296245000Y-158150000D03*
%TO.N,Net-(U63B-+)*%
X345456000Y-206160000D03*
X343556000Y-201960000D03*
%TO.N,Net-(U40B-+)*%
X293756000Y-209550000D03*
X291856000Y-205350000D03*
%TO.N,Net-(C29-Pad2)*%
X299956000Y-207850000D03*
X296245000Y-209650000D03*
%TO.N,Net-(C32-Pad2)*%
X296245000Y-261150000D03*
X299956000Y-259350000D03*
%TO.N,Net-(U48B-+)*%
X293756000Y-312550000D03*
X291856000Y-308350000D03*
%TO.N,Net-(C35-Pad2)*%
X296245000Y-312650000D03*
X299956000Y-310850000D03*
%TO.N,Net-(U51B-+)*%
X345456000Y-53550200D03*
X343556000Y-49350200D03*
%TO.N,Net-(C38-Pad2)*%
X347945000Y-53650200D03*
X351656000Y-51850200D03*
%TO.N,Net-(U55B-+)*%
X343556000Y-100220000D03*
X345456000Y-104420000D03*
%TO.N,Net-(C41-Pad2)*%
X347945000Y-104520000D03*
X351656000Y-102720000D03*
%TO.N,Net-(U59B-+)*%
X343556000Y-151090000D03*
X345456000Y-155290000D03*
%TO.N,Net-(C44-Pad2)*%
X351656000Y-153590000D03*
X347945000Y-155390000D03*
%TO.N,Net-(C47-Pad2)*%
X351656000Y-204460000D03*
X347945000Y-206260000D03*
%TO.N,Net-(U67B-+)*%
X343556000Y-252830000D03*
X345456000Y-257030000D03*
%TO.N,Net-(C50-Pad2)*%
X351656000Y-255330000D03*
X347945000Y-257130000D03*
%TO.N,Net-(U71B-+)*%
X343556000Y-303700000D03*
X345456000Y-307900000D03*
%TO.N,Net-(C53-Pad2)*%
X347945000Y-308000000D03*
X351656000Y-306200000D03*
%TO.N,Net-(U75B-+)*%
X395298000Y-47162200D03*
X397198000Y-51362200D03*
%TO.N,Net-(C56-Pad2)*%
X403398000Y-49662200D03*
X399687000Y-51462200D03*
%TO.N,Net-(U79B-+)*%
X395298000Y-98606200D03*
X397198000Y-102806000D03*
%TO.N,Net-(C59-Pad2)*%
X399687000Y-102906000D03*
X403398000Y-101106000D03*
%TO.N,Net-(U83B-+)*%
X395298000Y-150050000D03*
X397198000Y-154250000D03*
%TO.N,Net-(C62-Pad2)*%
X399687000Y-154350000D03*
X403398000Y-152550000D03*
%TO.N,Net-(U87B-+)*%
X397198000Y-205694000D03*
X395298000Y-201494000D03*
%TO.N,Net-(C65-Pad2)*%
X399687000Y-205794000D03*
X403398000Y-203994000D03*
%TO.N,Net-(U91B-+)*%
X397198000Y-257138000D03*
X395298000Y-252938000D03*
%TO.N,Net-(C68-Pad2)*%
X403398000Y-255438000D03*
X399687000Y-257238000D03*
%TO.N,Net-(U95B-+)*%
X395298000Y-304382000D03*
X397198000Y-308582000D03*
%TO.N,Net-(C71-Pad2)*%
X403398000Y-306882000D03*
X399687000Y-308682000D03*
%TO.N,Net-(C3002-Pad2)*%
X249087000Y-100350000D03*
X246987000Y-100750000D03*
%TO.N,Net-(U13001B-+)*%
X451906000Y-45900200D03*
X450906000Y-51000200D03*
%TO.N,Net-(U13001C--)*%
X452306000Y-53800200D03*
X454706000Y-52000200D03*
%TO.N,Net-(U17001B-+)*%
X449171000Y-101055000D03*
X450171000Y-95955200D03*
%TO.N,Net-(U17001C--)*%
X450571000Y-103855000D03*
X452971000Y-102055000D03*
%TO.N,Net-(C23002-Pad2)*%
X248026000Y-46600000D03*
X250126000Y-46200000D03*
%TO.N,Net-(C33002-Pad2)*%
X246526000Y-154300000D03*
X248626000Y-153900000D03*
%TO.N,Net-(C131002-Pad2)*%
X248469000Y-206375000D03*
X250569000Y-205975000D03*
%TO.N,Net-(C139002-Pad2)*%
X248940000Y-260500000D03*
X251040000Y-260100000D03*
%TO.N,Net-(C148002-Pad2)*%
X249881000Y-314205000D03*
X247781000Y-314605000D03*
%TO.N,Net-(Q2001A-S1)*%
X211990000Y-103150000D03*
X211990000Y-107350000D03*
D14*
%TO.N,/InNeuron_2/OUT*%
X248100000Y-96200000D03*
X284600000Y-202800000D03*
X281800000Y-306200000D03*
X280000000Y-254200000D03*
X281800000Y-48900000D03*
X281900000Y-100200000D03*
X284100000Y-254222300D03*
X281600000Y-152000000D03*
D13*
%TO.N,/InNeuron_1/OUT*%
X278103700Y-248747400D03*
X277792400Y-196203100D03*
X278832500Y-299409900D03*
X276983900Y-40798000D03*
X277835500Y-145602200D03*
X277835500Y-94580500D03*
%TO.N,/InNeuron_3/OUT*%
X278203300Y-232069900D03*
X279058500Y-281744100D03*
X278181200Y-128454700D03*
X246956900Y-130447300D03*
X246956900Y-147775000D03*
X278936100Y-333620000D03*
X277870600Y-76647100D03*
X277885500Y-180262300D03*
%TO.N,/Neuron6_1/OUT*%
X331279500Y-90789700D03*
X329641800Y-243737500D03*
X330768200Y-194608700D03*
X329026200Y-295833100D03*
X329608800Y-40780300D03*
D14*
%TO.N,/Neuron6_10/IN2*%
X333700000Y-250800000D03*
X333500000Y-301600000D03*
X333551072Y-97951072D03*
X336200000Y-46600000D03*
X298358240Y-102002762D03*
X333500000Y-199900000D03*
X333500000Y-149200000D03*
D13*
%TO.N,/Neuron6_10/IN3*%
X329900500Y-177100600D03*
X330636100Y-76064700D03*
X297635200Y-154478300D03*
X329888600Y-126462100D03*
X297635200Y-174284500D03*
X330405300Y-224457300D03*
X330636100Y-328986000D03*
X329898100Y-278988300D03*
%TO.N,/Neuron6_10/IN4*%
X336347500Y-233822500D03*
X334058300Y-184238700D03*
X298053400Y-188232700D03*
X336347500Y-335562500D03*
X334625600Y-82483600D03*
X298053400Y-205198400D03*
X335361500Y-133348200D03*
X334058300Y-285978700D03*
%TO.N,/Neuron6_10/IN5*%
X329825800Y-210622400D03*
X329673100Y-57288300D03*
X329591800Y-158772700D03*
X329558800Y-107907500D03*
X329558800Y-260765200D03*
X329689100Y-311643600D03*
%TO.N,/Neuron6_10/IN6*%
X334036100Y-217292600D03*
X334036100Y-319052000D03*
X334036100Y-166416000D03*
X297062800Y-309242400D03*
X334073000Y-64694600D03*
X334036100Y-268181400D03*
X334036100Y-115579200D03*
%TO.N,/Neuron6_13/IN1*%
X381805600Y-141241400D03*
X377993400Y-38962200D03*
X380843900Y-244025500D03*
X381061900Y-194210500D03*
X381403200Y-90595300D03*
X381281400Y-295833100D03*
D14*
%TO.N,/Neuron6_13/IN2*%
X350060914Y-99904126D03*
X385600000Y-148100000D03*
X385005200Y-302300000D03*
X385100000Y-250900000D03*
X385600000Y-45100000D03*
X385300000Y-199500000D03*
X385500000Y-96475500D03*
D13*
%TO.N,/Neuron6_13/IN3*%
X381621500Y-279042300D03*
X351894000Y-174284500D03*
X381627800Y-176277100D03*
X348448600Y-151955400D03*
X381314000Y-124469500D03*
X381550300Y-72806300D03*
X381811000Y-329814900D03*
X381663700Y-227416500D03*
%TO.N,/Neuron6_10/OUT*%
X350074000Y-201023400D03*
X386219500Y-234613900D03*
X386155600Y-286113100D03*
X386283400Y-131762700D03*
X386192700Y-80323200D03*
X350074000Y-183822400D03*
X388141900Y-336231700D03*
X386431200Y-183184900D03*
%TO.N,/Neuron6_11/OUT*%
X381403600Y-260819200D03*
X382178300Y-105763200D03*
X381987700Y-158656000D03*
X348448600Y-253712700D03*
X381572900Y-311773900D03*
X381425100Y-55312300D03*
X381061900Y-209399800D03*
D14*
%TO.N,/Neuron6_12/OUT*%
X383788000Y-113295800D03*
D13*
X383789100Y-216140900D03*
X383580200Y-319981400D03*
X383763500Y-164778400D03*
X385778300Y-62525100D03*
X385550100Y-268373000D03*
%TO.N,/Neuron6_13/OUT*%
X436022900Y-123031900D03*
X435186100Y-37962600D03*
%TO.N,/Neuron6_14/OUT*%
X439368400Y-43934600D03*
X401448700Y-98462800D03*
X438419800Y-129667900D03*
X401448700Y-129667900D03*
%TO.N,/Neuron6_15/OUT*%
X401816000Y-149119900D03*
X403740700Y-108528700D03*
X435094900Y-73170500D03*
X434850800Y-106536100D03*
%TO.N,/Neuron6_16/OUT*%
X437700700Y-112535000D03*
D14*
X438700000Y-79100000D03*
D13*
X434400000Y-112100000D03*
%TO.N,/Neuron6_17/OUT*%
X435144900Y-55910200D03*
X435227400Y-89635800D03*
X401816000Y-252018700D03*
%TO.N,/Neuron6_18/OUT*%
X438944400Y-62084000D03*
X407728900Y-301810900D03*
X438634100Y-95580100D03*
%TO.N,/InNeuron_4/OUT*%
X282250500Y-135939200D03*
X284574200Y-287595700D03*
X282656500Y-238475400D03*
X282733500Y-84018900D03*
X282889500Y-187003100D03*
X247943600Y-199889000D03*
X284574200Y-340247100D03*
%TO.N,/InNeuron_5/OUT*%
X277974600Y-58713700D03*
D14*
X278549500Y-209947500D03*
D13*
X277997800Y-110521300D03*
X278644600Y-158435100D03*
X274831300Y-259036200D03*
X278000400Y-315974000D03*
%TO.N,/InNeuron_6/OUT*%
X282336100Y-66193900D03*
X247817400Y-311266300D03*
X282053500Y-220667800D03*
X282249400Y-272177000D03*
X282100600Y-170176200D03*
X282336100Y-323679800D03*
X280352600Y-116971000D03*
D14*
%TO.N,-5V*%
X387306000Y-41229800D03*
X335564000Y-43417800D03*
X387306000Y-195562000D03*
D13*
X233353000Y-88475700D03*
D14*
X440949000Y-58112800D03*
D13*
X235134000Y-228401000D03*
D14*
X284762000Y-284905000D03*
X335564000Y-94287800D03*
X335564000Y-145158000D03*
X283864000Y-147918000D03*
X284762000Y-78904600D03*
D13*
X218091000Y-35125700D03*
X233253000Y-105876000D03*
X218329000Y-319531000D03*
D14*
X387398000Y-212094000D03*
D13*
X235559000Y-337656000D03*
X218634000Y-211401000D03*
X234591000Y-35225700D03*
X218494000Y-302231000D03*
D14*
X441114000Y-91867800D03*
X283956000Y-164450000D03*
D13*
X235729000Y-282726000D03*
D14*
X388204000Y-280993000D03*
X336462000Y-179145000D03*
X388204000Y-332437000D03*
X387306000Y-298450000D03*
X336462000Y-77404600D03*
X388204000Y-178105000D03*
X441264000Y-126068000D03*
D13*
X234834000Y-193901000D03*
X233726000Y-175851000D03*
D14*
X335656000Y-263430000D03*
X283956000Y-267450000D03*
D13*
X234994000Y-302031000D03*
D14*
X387398000Y-314982000D03*
X283956000Y-112950000D03*
D13*
X234791000Y-52125700D03*
D14*
X441164000Y-108668000D03*
X283864000Y-250918000D03*
X387306000Y-144118000D03*
X336462000Y-331755000D03*
D13*
X129100000Y-26800000D03*
X218394000Y-337831000D03*
D14*
X283956000Y-215950000D03*
X284762000Y-181905000D03*
D13*
X218091000Y-158426000D03*
X218053000Y-88575700D03*
D14*
X335656000Y-314300000D03*
X387398000Y-57762200D03*
X387398000Y-263538000D03*
D13*
X218699000Y-193926000D03*
D14*
X388204000Y-126661000D03*
D13*
X233191000Y-141626000D03*
D14*
X336462000Y-280885000D03*
D13*
X218291000Y-52025700D03*
X218329000Y-265626000D03*
D14*
X284762000Y-130405000D03*
X283864000Y-302418000D03*
X284762000Y-233405000D03*
X283956000Y-318950000D03*
D13*
X218291000Y-69325700D03*
X217853000Y-123376000D03*
X234926000Y-69350700D03*
X233661000Y-158701000D03*
D14*
X335656000Y-59950200D03*
X335656000Y-161690000D03*
D13*
X217853000Y-105976000D03*
D14*
X336462000Y-230015000D03*
D13*
X218529000Y-247726000D03*
D14*
X284762000Y-336405000D03*
X440849000Y-75112800D03*
X335564000Y-297768000D03*
X283864000Y-44917800D03*
X335564000Y-196028000D03*
X387398000Y-160650000D03*
X387306000Y-247006000D03*
X440949000Y-40112800D03*
X387398000Y-109206000D03*
D13*
X235264000Y-319206000D03*
X218196000Y-141601000D03*
X218091000Y-175826000D03*
D14*
X283864000Y-199418000D03*
D13*
X218329000Y-228876000D03*
X235629000Y-265226000D03*
X235729000Y-247626000D03*
D14*
X283864000Y-96417800D03*
X388204000Y-229549000D03*
X283956000Y-61450200D03*
X335656000Y-110820000D03*
X335656000Y-212560000D03*
X388204000Y-75216600D03*
X387306000Y-92673800D03*
D13*
X218529000Y-283026000D03*
D14*
X336462000Y-128275000D03*
D13*
X233053000Y-123276000D03*
X234634000Y-211001000D03*
D14*
X335564000Y-246898000D03*
D13*
%TO.N,+5V*%
X90700000Y-247550000D03*
X117900000Y-93000000D03*
D14*
X211000000Y-302100000D03*
X331296000Y-314221000D03*
D13*
X67300000Y-328250000D03*
X147100000Y-247600000D03*
X146600000Y-221900000D03*
X149100000Y-137000000D03*
X396490000Y-50553400D03*
X118125000Y-206195000D03*
X150000000Y-96400000D03*
X46950000Y-148400000D03*
D14*
X279596000Y-61370600D03*
X147800000Y-332756800D03*
X147700000Y-251500000D03*
D13*
X46500000Y-304000000D03*
D14*
X33100000Y-70806000D03*
X224100000Y-159800000D03*
X208500000Y-106656700D03*
X69221300Y-157016600D03*
D13*
X118200000Y-99500000D03*
D14*
X48000000Y-212668400D03*
D13*
X47300000Y-106900000D03*
X46350000Y-135500000D03*
D14*
X178882778Y-172882778D03*
D13*
X124800000Y-105500000D03*
X117325000Y-173995000D03*
X90500000Y-187900000D03*
D14*
X383039000Y-109127000D03*
D13*
X344747000Y-154481000D03*
X116300000Y-315700000D03*
X147500000Y-133100000D03*
X47000000Y-100500000D03*
X48500000Y-123600000D03*
D14*
X436708000Y-57931100D03*
D13*
X177625000Y-141665000D03*
X177925000Y-160965000D03*
D14*
X383039000Y-314903000D03*
D13*
X226300000Y-265400000D03*
X177925000Y-148065000D03*
X117125000Y-234185000D03*
D14*
X241827000Y-152495000D03*
D13*
X146300000Y-302750000D03*
X147800000Y-139600000D03*
X146900000Y-241200000D03*
X90800000Y-153000000D03*
D14*
X331703000Y-77879100D03*
D13*
X116300000Y-262650000D03*
D14*
X209788500Y-194700000D03*
X208100000Y-123300000D03*
D13*
X48600000Y-130000000D03*
X89400000Y-322600000D03*
D14*
X209000000Y-158646400D03*
D13*
X178125000Y-167365000D03*
D14*
X211658800Y-247500000D03*
X93316468Y-225744928D03*
D13*
X148100000Y-152400000D03*
X89600000Y-329000000D03*
D14*
X331296000Y-110741000D03*
D13*
X67200000Y-215400000D03*
D14*
X383445000Y-75691100D03*
X209700000Y-229400000D03*
D13*
X90500000Y-194300000D03*
D14*
X91600000Y-96923700D03*
D13*
X90500000Y-241150000D03*
D14*
X437023000Y-125886000D03*
D13*
X67850000Y-134300000D03*
X46650000Y-142000000D03*
D14*
X68500000Y-292722700D03*
D13*
X118700000Y-125200000D03*
D14*
X228400000Y-337500000D03*
X331296000Y-212481000D03*
D13*
X117325000Y-247085000D03*
D14*
X47800000Y-226700000D03*
D13*
X147400000Y-207000000D03*
X293047000Y-260241000D03*
X47300000Y-119800000D03*
X90500000Y-228250000D03*
D14*
X383065000Y-41048100D03*
D13*
X396490000Y-256329000D03*
D14*
X94047546Y-219417261D03*
D13*
X68600000Y-14743400D03*
X89800000Y-269600000D03*
X90200000Y-133700000D03*
X117800000Y-133400000D03*
X68450000Y-153600000D03*
X118500000Y-105900000D03*
X47000000Y-195700000D03*
D14*
X279623000Y-250736000D03*
X148100000Y-155510900D03*
D13*
X89500000Y-263200000D03*
X68000000Y-247600000D03*
D14*
X383065000Y-298268000D03*
D13*
X124400000Y-137000000D03*
X344747000Y-256221000D03*
D14*
X279596000Y-112871000D03*
D13*
X146400000Y-263200000D03*
X123700000Y-156700000D03*
X66800000Y-302550000D03*
D14*
X89300000Y-301539300D03*
D13*
X116800000Y-288350000D03*
X242600000Y-99341000D03*
D14*
X90900000Y-292700000D03*
D13*
X146900000Y-181300000D03*
X147200000Y-200600000D03*
D14*
X436873000Y-91686100D03*
X177462256Y-156456460D03*
X91531700Y-251352900D03*
X48508278Y-146208278D03*
D13*
X148950000Y-105300000D03*
X67600000Y-174800000D03*
D14*
X64200000Y-25600000D03*
X47800000Y-180300000D03*
D13*
X209928000Y-69100000D03*
D14*
X33500000Y-27400000D03*
X227300000Y-52400000D03*
D13*
X124700000Y-111900000D03*
D14*
X47800000Y-333500000D03*
D13*
X89900000Y-175000000D03*
D14*
X279623000Y-44736100D03*
D13*
X66700000Y-256300000D03*
D14*
X68300000Y-331707800D03*
X279623000Y-96236100D03*
X147641872Y-238641872D03*
D13*
X149800000Y-167300000D03*
D14*
X47800000Y-307900000D03*
X331703000Y-281359000D03*
X226500000Y-248600000D03*
D13*
X89100000Y-303300000D03*
X89400000Y-309700000D03*
X91025000Y-105735000D03*
D14*
X226800000Y-301900000D03*
X331296000Y-59870600D03*
X93433600Y-211000000D03*
D13*
X48700000Y-117200000D03*
D14*
X209374688Y-265839364D03*
D13*
X68650000Y-106250000D03*
X68150000Y-140800000D03*
D14*
X210865822Y-319265822D03*
D13*
X148650000Y-98900000D03*
X48500000Y-97900000D03*
X344747000Y-103611000D03*
D14*
X148857664Y-219377564D03*
D13*
X118400000Y-146300000D03*
X446976000Y-100510000D03*
D14*
X210246800Y-52346800D03*
D13*
X178875000Y-126465000D03*
X293047000Y-54241400D03*
X146300000Y-215400000D03*
X149600000Y-182606400D03*
D14*
X331703000Y-179619000D03*
D13*
X46400000Y-216300000D03*
X46800000Y-310400000D03*
X118400000Y-159200000D03*
D14*
X279596000Y-164371000D03*
D13*
X178675000Y-113565000D03*
X46900000Y-262800000D03*
X47150000Y-167700000D03*
X68200000Y-194100000D03*
X150200000Y-115300000D03*
X90425000Y-92835000D03*
D14*
X68100000Y-38700000D03*
X117300000Y-332756800D03*
X331323000Y-94106100D03*
D13*
X67800000Y-234700000D03*
D14*
X227624600Y-210900000D03*
X47700000Y-193100000D03*
D13*
X396490000Y-204885000D03*
D14*
X33000000Y-59500000D03*
X383065000Y-195380000D03*
D13*
X90500000Y-200800000D03*
X68650000Y-166500000D03*
D14*
X69612178Y-110992478D03*
D13*
X149400000Y-149200000D03*
X117125000Y-240685000D03*
X146600000Y-322050000D03*
X118600000Y-165600000D03*
X47200000Y-275600000D03*
X47000000Y-229200000D03*
X396490000Y-307773000D03*
D14*
X209021590Y-141237090D03*
X280003000Y-285379000D03*
D13*
X147200000Y-194100000D03*
X47000000Y-329700000D03*
X90000000Y-288900000D03*
D14*
X69221300Y-129200000D03*
X383039000Y-212015000D03*
D13*
X89400000Y-316100000D03*
X146600000Y-174800000D03*
D14*
X93248402Y-238435257D03*
D13*
X47000000Y-242100000D03*
D14*
X331323000Y-43236100D03*
D13*
X89900000Y-215350000D03*
X146700000Y-269600000D03*
D14*
X66400000Y-57800000D03*
X68800000Y-219359500D03*
X383065000Y-143936000D03*
X211000000Y-337600000D03*
D13*
X88800000Y-296800000D03*
X46950000Y-154800000D03*
X47200000Y-248500000D03*
X47200000Y-208600000D03*
D14*
X68200000Y-319300000D03*
D13*
X147200000Y-187700000D03*
X116000000Y-302900000D03*
X146900000Y-234700000D03*
D14*
X47649372Y-220149372D03*
X210900000Y-212000000D03*
D13*
X148950000Y-111700000D03*
D14*
X68900000Y-226600000D03*
D13*
X116600000Y-281950000D03*
X117925000Y-199795000D03*
X67800000Y-228300000D03*
X67100000Y-321850000D03*
X68850000Y-125550000D03*
X118500000Y-95900000D03*
X148200000Y-141900000D03*
X116500000Y-328600000D03*
X148100000Y-158900000D03*
D14*
X383065000Y-92492100D03*
D13*
X151700000Y-107000000D03*
X48700000Y-110700000D03*
X67100000Y-315350000D03*
D14*
X48100000Y-252300000D03*
D13*
X66500000Y-296050000D03*
X116300000Y-309300000D03*
D14*
X244243000Y-258647000D03*
D13*
X90500000Y-234650000D03*
D14*
X47600000Y-320600000D03*
X34570700Y-81700000D03*
X331296000Y-263351000D03*
X226853500Y-318964500D03*
D13*
X146900000Y-288900000D03*
D14*
X383039000Y-57682600D03*
D13*
X146700000Y-276000000D03*
D14*
X280003000Y-79379100D03*
D13*
X124000000Y-143100000D03*
X293047000Y-105741000D03*
X117925000Y-193295000D03*
X116600000Y-275450000D03*
D14*
X436608000Y-74931100D03*
D13*
X67800000Y-241200000D03*
D14*
X48400000Y-292722700D03*
D13*
X148950000Y-118200000D03*
X146800000Y-328450000D03*
X67500000Y-221900000D03*
X67100000Y-308950000D03*
X91000000Y-165900000D03*
D14*
X227500000Y-69700000D03*
D13*
X178075000Y-94265000D03*
D14*
X180382218Y-128532818D03*
X280003000Y-233879000D03*
X225545300Y-229200000D03*
D13*
X396490000Y-153441000D03*
X146000000Y-296250000D03*
X67500000Y-288500000D03*
X123500000Y-149400000D03*
X68650000Y-112650000D03*
X46800000Y-323300000D03*
D14*
X227300000Y-35000497D03*
D13*
X117925000Y-186895000D03*
X115700000Y-296400000D03*
X46400000Y-176400000D03*
X153000000Y-127300000D03*
D14*
X280003000Y-182379000D03*
X117100000Y-318700000D03*
D13*
X47300000Y-113300000D03*
D14*
X90700000Y-279900000D03*
D13*
X146100000Y-256700000D03*
X90700000Y-207200000D03*
D14*
X243862000Y-204557000D03*
D13*
X149300000Y-162700000D03*
D14*
X224600000Y-141759400D03*
D13*
X68050000Y-93350000D03*
X151800000Y-105600000D03*
X46700000Y-222800000D03*
X46950000Y-161300000D03*
D14*
X118801500Y-210000000D03*
X331703000Y-128749000D03*
X47800000Y-171563200D03*
D13*
X116825000Y-221385000D03*
D14*
X47800000Y-199600000D03*
X93447820Y-232493872D03*
D13*
X47000000Y-235600000D03*
D14*
X331323000Y-297586000D03*
D13*
X89200000Y-256700000D03*
D14*
X50700000Y-33356600D03*
X68200000Y-299510500D03*
D13*
X178675000Y-107165000D03*
D14*
X68900000Y-251400000D03*
X383065000Y-246824000D03*
X93286176Y-172527284D03*
D13*
X90200000Y-181500000D03*
D14*
X69100000Y-184321800D03*
X225404600Y-88600000D03*
X90900000Y-260700000D03*
D13*
X243526000Y-45199500D03*
D14*
X69800000Y-163372900D03*
X280003000Y-336879000D03*
D13*
X46700000Y-94000000D03*
X91025000Y-112135000D03*
X67300000Y-282100000D03*
X47200000Y-282100000D03*
D14*
X279623000Y-199236000D03*
X280003000Y-130879000D03*
D13*
X116525000Y-214885000D03*
D14*
X383039000Y-160571000D03*
D13*
X146900000Y-228300000D03*
X396490000Y-101997000D03*
D14*
X279596000Y-318871000D03*
D13*
X68450000Y-160100000D03*
X178375000Y-100765000D03*
X91225000Y-125035000D03*
D14*
X90653222Y-273353222D03*
D13*
X67000000Y-262800000D03*
X68200000Y-187700000D03*
X117625000Y-180495000D03*
D14*
X383445000Y-281467000D03*
D13*
X89800000Y-276000000D03*
X90800000Y-146600000D03*
D14*
X436923000Y-108486000D03*
X118600000Y-250303900D03*
D13*
X177925000Y-154465000D03*
D14*
X90700000Y-267600000D03*
X383445000Y-230023000D03*
D13*
X124600000Y-117700000D03*
X47400000Y-288500000D03*
D14*
X68900000Y-198000000D03*
D13*
X68650000Y-119150000D03*
X149150000Y-124600000D03*
D14*
X207700000Y-89000000D03*
D13*
X117125000Y-227785000D03*
X67900000Y-181300000D03*
X47000000Y-189300000D03*
D14*
X331323000Y-144976000D03*
X209737172Y-176237172D03*
D13*
X344747000Y-307091000D03*
D14*
X47700000Y-186400000D03*
D13*
X149900000Y-122800000D03*
X46200000Y-297500000D03*
D14*
X383445000Y-332911000D03*
X69500000Y-210800000D03*
D13*
X89800000Y-282500000D03*
X148100000Y-146000000D03*
D14*
X226546905Y-282776616D03*
D13*
X47200000Y-269200000D03*
X148350000Y-92400000D03*
X67300000Y-269200000D03*
X146600000Y-309150000D03*
X118400000Y-152700000D03*
D14*
X243093000Y-312776000D03*
X29800000Y-16800000D03*
X224676500Y-123100000D03*
X224464477Y-176064477D03*
X29301700Y-49400000D03*
D13*
X46800000Y-316800000D03*
X68200000Y-200600000D03*
X91025000Y-118635000D03*
D14*
X383039000Y-263459000D03*
D13*
X148300000Y-211300000D03*
X90800000Y-159500000D03*
D14*
X33400000Y-38500000D03*
D13*
X149700000Y-205100000D03*
D14*
X227624600Y-193900000D03*
D13*
X47000000Y-202200000D03*
X177325000Y-135165000D03*
X118100000Y-139900000D03*
D14*
X279596000Y-267371000D03*
D13*
X293047000Y-311741000D03*
D14*
X90900000Y-130082200D03*
X91531700Y-245100000D03*
D13*
X46700000Y-182900000D03*
D14*
X383445000Y-178579000D03*
X436708000Y-39931100D03*
D13*
X116600000Y-269050000D03*
X90500000Y-140200000D03*
X47500000Y-126200000D03*
X124433549Y-160266451D03*
D14*
X331296000Y-161611000D03*
X331703000Y-230489000D03*
X225900000Y-106100000D03*
X117600000Y-293121400D03*
D13*
X118500000Y-118800000D03*
X178675000Y-120065000D03*
X68400000Y-207000000D03*
D14*
X90200000Y-332800000D03*
D13*
X67300000Y-275600000D03*
D14*
X68400000Y-48800000D03*
D13*
X124700000Y-123000000D03*
X344747000Y-205351000D03*
D14*
X210300000Y-35200000D03*
D13*
X118500000Y-112300000D03*
X449406000Y-50800200D03*
X148300000Y-165300000D03*
X116300000Y-322200000D03*
X123300000Y-167400000D03*
D14*
X331323000Y-195846000D03*
X331703000Y-332229000D03*
X210835375Y-282924128D03*
D13*
X68450000Y-147200000D03*
X293047000Y-157241000D03*
X46600000Y-256300000D03*
X149500000Y-179500000D03*
X90200000Y-221850000D03*
X293047000Y-208741000D03*
X116000000Y-256150000D03*
X344747000Y-52741400D03*
D14*
X383445000Y-127135000D03*
X279596000Y-215871000D03*
D13*
X146600000Y-315550000D03*
X146700000Y-282500000D03*
X90725000Y-99335000D03*
D14*
X279623000Y-147736000D03*
X331323000Y-246716000D03*
X47700000Y-158955100D03*
D13*
X48600000Y-104300000D03*
D14*
X279623000Y-302236000D03*
D13*
X124900000Y-129200000D03*
X68350000Y-99850000D03*
X129000000Y-31900000D03*
X149500000Y-191700000D03*
%TO.N,/L1_IN1*%
X211453200Y-300180700D03*
X211626400Y-138168400D03*
X211763000Y-245564500D03*
X210869300Y-33366200D03*
X211030100Y-86610100D03*
X211458400Y-192217900D03*
%TO.N,/L1_IN2*%
X216662300Y-249115000D03*
D14*
X217900000Y-143000000D03*
D13*
X216602600Y-303613800D03*
D14*
X218300000Y-90400000D03*
D13*
X216832300Y-195315000D03*
X216215400Y-36513700D03*
%TO.N,/L1_IN3*%
X210855000Y-156262900D03*
X211390000Y-210089900D03*
X211734100Y-263491700D03*
X210103500Y-50600000D03*
X211453200Y-315759100D03*
X210642300Y-104373500D03*
%TO.N,/L1_IN4*%
X215901000Y-108117200D03*
D14*
X218000000Y-268000000D03*
D13*
X216433600Y-321134700D03*
X216764500Y-212903900D03*
D14*
X217717200Y-160517200D03*
D13*
X216337800Y-53281100D03*
%TO.N,/L1_IN5*%
X210313000Y-174169000D03*
X208113300Y-209945000D03*
X211841000Y-67184800D03*
X211307900Y-281569200D03*
X210020000Y-122240200D03*
X211020400Y-227479100D03*
X211771500Y-335698400D03*
D14*
%TO.N,/L1_IN6*%
X216700000Y-339700000D03*
X218700000Y-71000000D03*
D13*
X213379300Y-209374400D03*
D14*
X214600000Y-214300000D03*
X217974800Y-283874800D03*
D13*
X215965000Y-124864700D03*
D14*
X219378400Y-229548400D03*
D13*
X216171500Y-177054900D03*
D14*
%TO.N,/L1_IN7*%
X228102600Y-246459500D03*
D13*
X228657400Y-298338700D03*
X225391000Y-211269900D03*
X228294500Y-191769700D03*
D14*
X225516900Y-140581200D03*
D13*
X225929100Y-87180500D03*
X225679700Y-32809900D03*
D14*
%TO.N,/L1_IN8*%
X235500000Y-303300000D03*
D13*
X231290600Y-142914600D03*
X233003000Y-195622000D03*
X232703300Y-36563500D03*
X231665800Y-90358500D03*
X235842800Y-248900000D03*
%TO.N,/L1_IN9*%
X228048600Y-317977500D03*
X227100100Y-209889900D03*
X228064200Y-263702500D03*
X228000700Y-49904700D03*
D14*
X225879100Y-104627200D03*
D13*
X225800600Y-157186100D03*
%TO.N,/L1_IN10*%
X231505300Y-107698400D03*
D14*
X235520000Y-266500000D03*
D13*
X236236300Y-107698400D03*
D14*
X236300000Y-160000000D03*
D13*
X231342800Y-215158700D03*
X232891400Y-53619700D03*
X233337600Y-320414500D03*
X232758400Y-212855000D03*
%TO.N,/L1_IN11*%
X225832800Y-122027200D03*
X227624000Y-67659000D03*
X227849700Y-226757500D03*
X228254400Y-335140500D03*
X229078300Y-277899700D03*
X225840800Y-174709200D03*
%TO.N,/L1_IN12*%
X228959300Y-230923300D03*
D14*
X231900000Y-177332300D03*
X233300000Y-230500000D03*
D13*
X232839100Y-70664800D03*
X233841100Y-284267100D03*
D14*
X234000000Y-124483100D03*
D13*
X233605100Y-339536700D03*
%TO.N,Net-(Q4001A-S1)*%
X211990000Y-124750000D03*
X211990000Y-120550000D03*
%TO.N,/W124*%
X207343000Y-153050000D03*
X45765400Y-156898100D03*
X211462100Y-97077900D03*
%TO.N,/W123*%
X52906400Y-97521600D03*
X46094400Y-150709800D03*
X211480300Y-96075000D03*
%TO.N,Net-(Q5001A-S1)*%
X212190000Y-89950000D03*
X212190000Y-85750000D03*
%TO.N,/W126*%
X45839300Y-170399800D03*
X215460000Y-114754600D03*
X214937700Y-168784200D03*
%TO.N,/W125*%
X45825800Y-164087300D03*
X211676000Y-115523400D03*
X210313000Y-164087300D03*
%TO.N,Net-(Q6001A-S1)*%
X227190000Y-124650000D03*
X227190000Y-120450000D03*
%TO.N,/W1212*%
X230660000Y-114637700D03*
X69745800Y-116148800D03*
X67292800Y-168734300D03*
%TO.N,/W121*%
X206103000Y-79502000D03*
X46099600Y-138275600D03*
X204020100Y-131383300D03*
D14*
%TO.N,Net-(Q14001A-S1)*%
X437141000Y-72245200D03*
X437041000Y-75445200D03*
D13*
%TO.N,/W122*%
X45448400Y-80161100D03*
X215054200Y-80161100D03*
X45843200Y-144175600D03*
%TO.N,/W1211*%
X221847400Y-113375000D03*
X67292800Y-162520400D03*
X221847300Y-151966000D03*
D14*
%TO.N,Net-(Q14001B-G2)*%
X444141000Y-72545200D03*
X438641000Y-77745200D03*
%TO.N,Net-(Q15001A-S1)*%
X437141000Y-58445200D03*
X437241000Y-55245200D03*
D13*
%TO.N,/W114*%
X207053300Y-43733100D03*
X207053300Y-110955100D03*
X47200100Y-116226100D03*
%TO.N,/W513*%
X437064400Y-64691500D03*
X188964000Y-110329800D03*
X197718000Y-72669700D03*
D14*
%TO.N,Net-(Q15001B-G2)*%
X438741000Y-60745200D03*
X444241000Y-55545200D03*
%TO.N,Net-(Q16001A-S1)*%
X437141000Y-40445200D03*
X437241000Y-37245200D03*
D13*
%TO.N,/W514*%
X442455400Y-64691500D03*
X188338700Y-71736800D03*
X188377900Y-115523400D03*
%TO.N,/W515*%
X437114400Y-48750700D03*
X190995400Y-122843200D03*
X198362300Y-56807400D03*
D14*
%TO.N,Net-(Q16001B-G2)*%
X444241000Y-37545200D03*
X438741000Y-42745200D03*
%TO.N,Net-(Q18001A-S1)*%
X437356000Y-109000000D03*
X437456000Y-105800000D03*
D13*
%TO.N,/W516*%
X442595100Y-48750700D03*
X177917600Y-128486500D03*
X177399300Y-56006800D03*
%TO.N,/W113*%
X46098500Y-108995000D03*
X207732800Y-42549600D03*
X200303200Y-104585800D03*
D14*
%TO.N,Net-(Q18001B-G2)*%
X444456000Y-106100000D03*
X438956000Y-111300000D03*
%TO.N,Net-(Q19001A-S1)*%
X437406000Y-89000200D03*
X437306000Y-92200200D03*
D13*
%TO.N,/W512*%
X436463500Y-31442700D03*
X179540200Y-31403000D03*
X179540200Y-103401100D03*
%TO.N,/W511*%
X182020500Y-96800000D03*
X182020500Y-30467000D03*
X437114400Y-30817300D03*
D14*
%TO.N,Net-(Q19001B-G2)*%
X438906000Y-94500200D03*
X444406000Y-89300200D03*
%TO.N,Net-(Q20001A-S1)*%
X437456000Y-126400000D03*
X437556000Y-123200000D03*
D13*
%TO.N,/W524*%
X442812200Y-98565700D03*
X174047500Y-108706100D03*
X173848200Y-158518100D03*
%TO.N,/W523*%
X177139600Y-150692100D03*
X433552800Y-136740800D03*
X433552800Y-98525200D03*
D14*
%TO.N,Net-(Q20001B-G2)*%
X444556000Y-123500000D03*
X439056000Y-128700000D03*
D13*
%TO.N,Net-(Q22001A-S1)*%
X212428000Y-49200000D03*
X212428000Y-53400000D03*
%TO.N,/W526*%
X176868000Y-169912100D03*
X432268600Y-82962600D03*
X176693800Y-81953000D03*
%TO.N,/W525*%
X435397200Y-80732600D03*
X190446600Y-84495200D03*
X178407400Y-163618700D03*
%TO.N,Net-(Q24001A-S1)*%
X212428000Y-70700000D03*
X212428000Y-66500000D03*
%TO.N,/W522*%
X442923200Y-116718700D03*
X178551800Y-142833700D03*
%TO.N,/W521*%
X437428700Y-116518400D03*
X178238000Y-136443500D03*
%TO.N,Net-(Q25001A-S1)*%
X212228000Y-32300000D03*
X212228000Y-36500000D03*
%TO.N,/W1112*%
X67674700Y-128297800D03*
X71800000Y-60737600D03*
X232533000Y-60737600D03*
%TO.N,/W115*%
X52779100Y-68676700D03*
X46572200Y-122415000D03*
X211887300Y-59425000D03*
%TO.N,Net-(Q26001A-S1)*%
X229063000Y-70725000D03*
X229063000Y-66525000D03*
%TO.N,/W116*%
X53612200Y-71065200D03*
X214301200Y-61307600D03*
X53428800Y-128454700D03*
%TO.N,/W111*%
X210698500Y-25225000D03*
X208318900Y-90595300D03*
X46151000Y-96597000D03*
%TO.N,Net-(Q27001A-S1)*%
X228928000Y-53500000D03*
X228928000Y-49300000D03*
%TO.N,/W112*%
X202629000Y-102842900D03*
X217160300Y-24839500D03*
X48074500Y-102985000D03*
%TO.N,/W1111*%
X222277600Y-58713700D03*
X206110700Y-122038200D03*
X67537900Y-121763100D03*
%TO.N,Net-(Q28001A-S1)*%
X228728000Y-36600000D03*
X228728000Y-32400000D03*
%TO.N,/W128*%
X67275300Y-142882400D03*
X72075000Y-79220200D03*
X225679700Y-79193000D03*
%TO.N,/W119*%
X222277600Y-43721000D03*
X67736900Y-108712500D03*
X80015000Y-44135000D03*
%TO.N,Net-(Q29001A-S1)*%
X227390000Y-103050000D03*
X227390000Y-107250000D03*
%TO.N,/W1110*%
X232398000Y-43497800D03*
X67345300Y-115883000D03*
X67794400Y-43497800D03*
%TO.N,/W117*%
X228210400Y-25082200D03*
X67514300Y-96278300D03*
X226265800Y-82624900D03*
%TO.N,Net-(Q30001A-S1)*%
X227490000Y-89850000D03*
X227490000Y-85650000D03*
%TO.N,/W118*%
X67526900Y-102478400D03*
X231231700Y-26863000D03*
X231355000Y-94266700D03*
%TO.N,/W133*%
X212047400Y-150641900D03*
X51422600Y-151011000D03*
X46123600Y-192035500D03*
%TO.N,Net-(Q32001A-S1)*%
X212228000Y-159800000D03*
X212228000Y-155600000D03*
%TO.N,/W1210*%
X220891000Y-97180600D03*
X67292800Y-156302100D03*
X220234000Y-150959000D03*
%TO.N,/W129*%
X226863900Y-95975000D03*
X220516900Y-144662300D03*
X67334800Y-150063200D03*
D14*
%TO.N,Net-(Q19A-S1)*%
X280556000Y-79650200D03*
X280656000Y-75850200D03*
%TO.N,Net-(Q19B-G2)*%
X287856000Y-76850200D03*
X282556000Y-82150200D03*
D13*
%TO.N,/W134*%
X45855500Y-198321000D03*
X216696300Y-186240100D03*
X216943900Y-149830400D03*
%TO.N,/W127*%
X70410200Y-78575000D03*
X68717600Y-136835000D03*
X226966800Y-78575000D03*
D14*
%TO.N,Net-(Q20A-S1)*%
X279956000Y-61850200D03*
X280156000Y-57950200D03*
%TO.N,Net-(Q20B-G2)*%
X286556000Y-57650200D03*
X281756000Y-64450200D03*
D13*
%TO.N,/W136*%
X50411800Y-211185000D03*
X214322200Y-167615500D03*
X50411900Y-174654500D03*
%TO.N,/W135*%
X45880600Y-204735000D03*
X206324800Y-196928500D03*
X210503900Y-165894000D03*
D14*
%TO.N,Net-(Q21A-S1)*%
X280156000Y-42050200D03*
X280056000Y-45250200D03*
%TO.N,Net-(Q21B-G2)*%
X281656000Y-47550200D03*
X287156000Y-42350200D03*
D13*
%TO.N,/W1312*%
X71746700Y-169424500D03*
X67347600Y-209852200D03*
X227454300Y-167151200D03*
%TO.N,/W131*%
X45854400Y-178708000D03*
X212803400Y-133189400D03*
X208008100Y-178708000D03*
D14*
%TO.N,Net-(Q22A-S1)*%
X280656000Y-127350000D03*
X280556000Y-131150000D03*
%TO.N,Net-(Q22B-G2)*%
X282556000Y-133650000D03*
X287856000Y-128350000D03*
D13*
%TO.N,/W132*%
X216295300Y-133176800D03*
X207862700Y-184846300D03*
X46139800Y-184846300D03*
%TO.N,/W1311*%
X69133600Y-202581900D03*
X225499500Y-165891800D03*
X222277600Y-197971500D03*
D14*
%TO.N,Net-(Q23A-S1)*%
X279956000Y-113350000D03*
X280156000Y-109450000D03*
%TO.N,Net-(Q23B-G2)*%
X286556000Y-109150000D03*
X281756000Y-115950000D03*
D13*
%TO.N,/W1310*%
X220011600Y-196482500D03*
X67080900Y-196482500D03*
X230808400Y-150314500D03*
%TO.N,/W139*%
X72372000Y-150352300D03*
X67167800Y-190268600D03*
X225842000Y-148800000D03*
D14*
%TO.N,Net-(Q24A-S1)*%
X280056000Y-96750200D03*
X280156000Y-93550200D03*
%TO.N,Net-(Q24B-G2)*%
X287156000Y-93850200D03*
X281656000Y-99050200D03*
D13*
%TO.N,/W138*%
X67167800Y-184050300D03*
X74382900Y-130606700D03*
X226983700Y-130447300D03*
%TO.N,/W137*%
X228259900Y-132995100D03*
X66966000Y-177851600D03*
X226507600Y-169424500D03*
D14*
%TO.N,Net-(Q25A-S1)*%
X280556000Y-182650000D03*
X280656000Y-178850000D03*
%TO.N,Net-(Q25B-G2)*%
X287856000Y-179850000D03*
X282556000Y-185150000D03*
D13*
%TO.N,/W214*%
X284094700Y-70576000D03*
X90101700Y-114541400D03*
X274797800Y-112037500D03*
%TO.N,/W213*%
X274522600Y-104352400D03*
X90068300Y-108408400D03*
X274522700Y-69075200D03*
D14*
%TO.N,Net-(Q26A-S1)*%
X280156000Y-160950000D03*
X279956000Y-164850000D03*
%TO.N,Net-(Q26B-G2)*%
X281756000Y-167450000D03*
X286556000Y-160650000D03*
D13*
%TO.N,/W216*%
X90023700Y-128021400D03*
X91507200Y-57372800D03*
X284094700Y-52535800D03*
%TO.N,/W215*%
X273836300Y-112900000D03*
X90065700Y-120882800D03*
X276342900Y-51121200D03*
D14*
%TO.N,Net-(Q27A-S1)*%
X280156000Y-145050000D03*
X280056000Y-148250000D03*
%TO.N,Net-(Q27B-G2)*%
X287156000Y-145350000D03*
X281656000Y-150550000D03*
D13*
%TO.N,/W212*%
X285476100Y-34802500D03*
X93247200Y-101928900D03*
X101076800Y-40341000D03*
%TO.N,/W211*%
X280047600Y-34802500D03*
X93247200Y-96424900D03*
X101699300Y-37725900D03*
D14*
%TO.N,Net-(Q28A-S1)*%
X280556000Y-234150000D03*
X280656000Y-230350000D03*
%TO.N,Net-(Q28B-G2)*%
X282556000Y-236650000D03*
X287856000Y-231350000D03*
D13*
%TO.N,/W224*%
X93578000Y-129975000D03*
X93577900Y-155632900D03*
X285789700Y-120567900D03*
%TO.N,/W223*%
X102795900Y-149588300D03*
X104972300Y-129681200D03*
X280311500Y-120484300D03*
D14*
%TO.N,Net-(Q29A-S1)*%
X279956000Y-216350000D03*
X280156000Y-212450000D03*
%TO.N,Net-(Q29B-G2)*%
X286556000Y-212150000D03*
X281756000Y-218950000D03*
D13*
%TO.N,/W226*%
X92056200Y-111107000D03*
X280752000Y-104299000D03*
X90652300Y-168485000D03*
%TO.N,/W225*%
X89639500Y-161838900D03*
X268097400Y-103390400D03*
X265912700Y-150557000D03*
D14*
%TO.N,Net-(Q30A-S1)*%
X280056000Y-199750000D03*
X280156000Y-196550000D03*
%TO.N,Net-(Q30B-G2)*%
X287156000Y-196850000D03*
X281656000Y-202050000D03*
D13*
%TO.N,/W222*%
X89639500Y-142557100D03*
X277740800Y-85856900D03*
X275969400Y-131819100D03*
%TO.N,/W221*%
X269225000Y-131080700D03*
X90082800Y-136390000D03*
X274179500Y-86610100D03*
D14*
%TO.N,Net-(Q31A-S1)*%
X280556000Y-285650000D03*
X280656000Y-281850000D03*
%TO.N,Net-(Q31B-G2)*%
X287856000Y-282850000D03*
X282556000Y-288150000D03*
D13*
%TO.N,/W234*%
X284326100Y-173353200D03*
X89403000Y-196705500D03*
%TO.N,/W233*%
X280534800Y-173805200D03*
X93312100Y-190794600D03*
D14*
%TO.N,Net-(Q32A-S1)*%
X280156000Y-263950000D03*
X279956000Y-267850000D03*
%TO.N,Net-(Q32B-G2)*%
X286556000Y-263650000D03*
X281756000Y-270450000D03*
D13*
%TO.N,/W236*%
X96282900Y-209785000D03*
X98643400Y-163618700D03*
X285475300Y-154328600D03*
%TO.N,/W235*%
X99229500Y-204173500D03*
X100637500Y-161838900D03*
X280020600Y-154358500D03*
D14*
%TO.N,Net-(Q33A-S1)*%
X280056000Y-251250000D03*
X280156000Y-248050000D03*
%TO.N,Net-(Q33B-G2)*%
X287156000Y-248350000D03*
X281656000Y-253550000D03*
D13*
%TO.N,/W232*%
X272507100Y-177741100D03*
X89403000Y-183709700D03*
X277874400Y-138544200D03*
%TO.N,/W231*%
X280006800Y-138417700D03*
X93254100Y-177474900D03*
X96649300Y-144040000D03*
D14*
%TO.N,Net-(Q34A-S1)*%
X280556000Y-337150000D03*
X280656000Y-333350000D03*
%TO.N,Net-(Q34B-G2)*%
X282556000Y-339650000D03*
X287856000Y-334350000D03*
D13*
%TO.N,/W244*%
X280341200Y-222875900D03*
X89403000Y-237387000D03*
%TO.N,/W243*%
X89403000Y-230444300D03*
X280347500Y-224378800D03*
D14*
%TO.N,Net-(Q35A-S1)*%
X279956000Y-319350000D03*
X280156000Y-315450000D03*
%TO.N,Net-(Q35B-G2)*%
X286556000Y-315150000D03*
X281756000Y-321950000D03*
D13*
%TO.N,/W246*%
X272670100Y-250828400D03*
X272670100Y-206706100D03*
X89403000Y-250679800D03*
%TO.N,/W245*%
X266488300Y-236625400D03*
X274615100Y-205675200D03*
X89609000Y-243864300D03*
D14*
%TO.N,Net-(Q36A-S1)*%
X280056000Y-302750000D03*
X280156000Y-299550000D03*
%TO.N,Net-(Q36B-G2)*%
X287156000Y-299850000D03*
X281656000Y-305050000D03*
D13*
%TO.N,/W242*%
X90191500Y-224335000D03*
X91970400Y-190161700D03*
X277817700Y-190161700D03*
%TO.N,/W241*%
X280031900Y-189570800D03*
X89403000Y-218052600D03*
D14*
%TO.N,Net-(Q37A-S1)*%
X332256000Y-78150200D03*
X332356000Y-74350200D03*
%TO.N,Net-(Q37B-G2)*%
X334256000Y-80650200D03*
X339556000Y-75350200D03*
D13*
%TO.N,/W254*%
X88651700Y-278379100D03*
X285793000Y-275907100D03*
%TO.N,/W253*%
X89390200Y-272296400D03*
X280019600Y-269379400D03*
D14*
%TO.N,Net-(Q38A-S1)*%
X331856000Y-56450200D03*
X331656000Y-60350200D03*
%TO.N,Net-(Q38B-G2)*%
X338256000Y-56150200D03*
X333456000Y-62950200D03*
D13*
%TO.N,/W256*%
X88935300Y-265728100D03*
X88935300Y-291404300D03*
X285498900Y-257973700D03*
%TO.N,/W255*%
X90704600Y-283923000D03*
X280009600Y-258607900D03*
D14*
%TO.N,Net-(Q39A-S1)*%
X331756000Y-43750200D03*
X331856000Y-40550200D03*
%TO.N,Net-(Q39B-G2)*%
X338856000Y-40850200D03*
X333356000Y-46050200D03*
D13*
%TO.N,/W252*%
X90832300Y-266596900D03*
X93241600Y-242335700D03*
X283176100Y-242415000D03*
%TO.N,/W251*%
X279867000Y-244635800D03*
X91208100Y-258514100D03*
D14*
%TO.N,Net-(Q40A-S1)*%
X332356000Y-125220000D03*
X332256000Y-129020000D03*
%TO.N,Net-(Q40B-G2)*%
X339556000Y-126220000D03*
X334256000Y-131520000D03*
D13*
%TO.N,/W264*%
X88017000Y-319364100D03*
X283765700Y-325137600D03*
%TO.N,/W263*%
X89308300Y-312486800D03*
X279575900Y-323432100D03*
D14*
%TO.N,Net-(Q41A-S1)*%
X331656000Y-111220000D03*
X331856000Y-107320000D03*
%TO.N,Net-(Q41B-G2)*%
X338256000Y-107020000D03*
X333456000Y-113820000D03*
D13*
%TO.N,/W266*%
X285464500Y-307871800D03*
X88496500Y-312028300D03*
X88445100Y-331585000D03*
%TO.N,/W265*%
X89133000Y-325399800D03*
X279613600Y-308903400D03*
D14*
%TO.N,Net-(Q42A-S1)*%
X331856000Y-91420200D03*
X331756000Y-94620200D03*
%TO.N,Net-(Q42B-G2)*%
X333356000Y-96920200D03*
X338856000Y-91720200D03*
D13*
%TO.N,/W262*%
X88282000Y-305241300D03*
X284485700Y-294979400D03*
%TO.N,/W261*%
X280086800Y-292596900D03*
X88277500Y-299335000D03*
D14*
%TO.N,Net-(Q43A-S1)*%
X332256000Y-179890000D03*
X332356000Y-176090000D03*
%TO.N,Net-(Q43B-G2)*%
X334256000Y-182390000D03*
X339556000Y-177090000D03*
D13*
%TO.N,/W314*%
X119545200Y-115109600D03*
X338087600Y-72378300D03*
X121884200Y-74654500D03*
%TO.N,/W313*%
X117244000Y-107882800D03*
X331053500Y-70617300D03*
X325248300Y-108623900D03*
D14*
%TO.N,Net-(Q44A-S1)*%
X331856000Y-158190000D03*
X331656000Y-162090000D03*
%TO.N,Net-(Q44B-G2)*%
X338256000Y-157890000D03*
X333456000Y-164690000D03*
D13*
%TO.N,/W316*%
X337162200Y-50476300D03*
X123870100Y-127962700D03*
X129842700Y-56854300D03*
%TO.N,/W315*%
X327611400Y-48750700D03*
X117375400Y-120965300D03*
X323976700Y-114506500D03*
D14*
%TO.N,Net-(Q45A-S1)*%
X331756000Y-145490000D03*
X331856000Y-142290000D03*
%TO.N,Net-(Q45B-G2)*%
X338856000Y-142590000D03*
X333356000Y-147790000D03*
D13*
%TO.N,/W312*%
X325651300Y-90595300D03*
X118373100Y-101928900D03*
X325651400Y-34484600D03*
%TO.N,/W311*%
X328430100Y-89201100D03*
X328430200Y-33275200D03*
X117389600Y-95163400D03*
D14*
%TO.N,Net-(Q46A-S1)*%
X332356000Y-226960000D03*
X332256000Y-230760000D03*
%TO.N,Net-(Q46B-G2)*%
X334256000Y-233260000D03*
X339556000Y-227960000D03*
D13*
%TO.N,/W324*%
X328422700Y-146388100D03*
X117114000Y-155866000D03*
X329980200Y-118792000D03*
%TO.N,/W323*%
X123213900Y-147853500D03*
X332047800Y-118491700D03*
D14*
%TO.N,Net-(Q47A-S1)*%
X331656000Y-212960000D03*
X331856000Y-209060000D03*
%TO.N,Net-(Q47B-G2)*%
X333456000Y-215560000D03*
X338256000Y-208760000D03*
D13*
%TO.N,/W326*%
X327879400Y-165608200D03*
X117267300Y-168229900D03*
X329982100Y-99966000D03*
%TO.N,/W325*%
X121486000Y-161498200D03*
X331795000Y-100966800D03*
X122345000Y-108706100D03*
D14*
%TO.N,Net-(Q48A-S1)*%
X331756000Y-196360000D03*
X331856000Y-193160000D03*
%TO.N,Net-(Q48B-G2)*%
X333356000Y-198660000D03*
X338856000Y-193460000D03*
D13*
%TO.N,/W322*%
X337935400Y-84074500D03*
X119545200Y-142402900D03*
X119860600Y-83210600D03*
%TO.N,/W321*%
X119545200Y-136460900D03*
X331013400Y-85415700D03*
X119860600Y-88602700D03*
D14*
%TO.N,Net-(Q49A-S1)*%
X332256000Y-281630000D03*
X332356000Y-277830000D03*
%TO.N,Net-(Q49B-G2)*%
X339556000Y-278830000D03*
X334256000Y-284130000D03*
D13*
%TO.N,/W334*%
X328296900Y-170555700D03*
X121922900Y-173216700D03*
X116892600Y-195819100D03*
%TO.N,/W333*%
X119545200Y-184088600D03*
X331791300Y-169816700D03*
D14*
%TO.N,Net-(Q50A-S1)*%
X331856000Y-259930000D03*
X331656000Y-263830000D03*
%TO.N,Net-(Q50B-G2)*%
X333456000Y-266430000D03*
X338256000Y-259630000D03*
D13*
%TO.N,/W336*%
X335192900Y-149918700D03*
X116956500Y-208482500D03*
X119791100Y-151277800D03*
%TO.N,/W335*%
X331418100Y-185650900D03*
X332634000Y-152901500D03*
X116779400Y-202330000D03*
D14*
%TO.N,Net-(Q51A-S1)*%
X331756000Y-247230000D03*
X331856000Y-244030000D03*
%TO.N,Net-(Q51B-G2)*%
X333356000Y-249530000D03*
X338856000Y-244330000D03*
D13*
%TO.N,/W332*%
X329873700Y-171772800D03*
X333895900Y-136598400D03*
X116750300Y-182608200D03*
%TO.N,/W331*%
X332726500Y-136494300D03*
X116807200Y-176530000D03*
X331124100Y-168996200D03*
D14*
%TO.N,Net-(Q52A-S1)*%
X332356000Y-328700000D03*
X332256000Y-332500000D03*
%TO.N,Net-(Q52B-G2)*%
X334256000Y-335000000D03*
X339556000Y-329700000D03*
D13*
%TO.N,/W344*%
X337468300Y-220114300D03*
X119791100Y-236055100D03*
%TO.N,/W343*%
X113756800Y-232393600D03*
X332040500Y-220114300D03*
D14*
%TO.N,Net-(Q53A-S1)*%
X331656000Y-314700000D03*
X331856000Y-310800000D03*
%TO.N,Net-(Q53B-G2)*%
X333456000Y-317300000D03*
X338256000Y-310500000D03*
D13*
%TO.N,/W346*%
X327964900Y-244074700D03*
X327964900Y-202818700D03*
X116007800Y-249670000D03*
%TO.N,/W345*%
X116590300Y-243700200D03*
X326075100Y-202285200D03*
X320618400Y-237422300D03*
D14*
%TO.N,Net-(Q54A-S1)*%
X331756000Y-298100000D03*
X331856000Y-294900000D03*
%TO.N,Net-(Q54B-G2)*%
X333356000Y-300400000D03*
X338856000Y-295200000D03*
D13*
%TO.N,/W342*%
X116956500Y-189607800D03*
X115981200Y-223625500D03*
X337173300Y-186240100D03*
%TO.N,/W341*%
X330948100Y-187098200D03*
X119983500Y-186840500D03*
X116987400Y-217827500D03*
D14*
%TO.N,Net-(Q55A-S1)*%
X384098000Y-72162200D03*
X383998000Y-75962200D03*
%TO.N,Net-(Q55B-G2)*%
X385998000Y-78462200D03*
X391298000Y-73162200D03*
D13*
%TO.N,/W354*%
X331136300Y-272010300D03*
X115455500Y-278013600D03*
%TO.N,/W353*%
X115462400Y-271585000D03*
X332038600Y-271867700D03*
D14*
%TO.N,Net-(Q56A-S1)*%
X383398000Y-58162200D03*
X383598000Y-54262200D03*
%TO.N,Net-(Q56B-G2)*%
X385198000Y-60762200D03*
X389998000Y-53962200D03*
D13*
%TO.N,/W356*%
X115373300Y-290437700D03*
X325970800Y-254574200D03*
X325970800Y-286570800D03*
%TO.N,/W355*%
X327600200Y-277535800D03*
X331578200Y-253670600D03*
X118584400Y-283314500D03*
D14*
%TO.N,Net-(Q57A-S1)*%
X383598000Y-38362200D03*
X383498000Y-41562200D03*
%TO.N,Net-(Q57B-G2)*%
X385098000Y-43862200D03*
X390598000Y-38662200D03*
D13*
%TO.N,/W352*%
X116850100Y-265075200D03*
X335286300Y-238412400D03*
X119791100Y-244635700D03*
%TO.N,/W351*%
X115453900Y-258460200D03*
X331661900Y-240405900D03*
D14*
%TO.N,Net-(Q58A-S1)*%
X384098000Y-123606000D03*
X383998000Y-127406000D03*
%TO.N,Net-(Q58B-G2)*%
X391298000Y-124606000D03*
X385998000Y-129906000D03*
D13*
%TO.N,/W364*%
X115147000Y-318056800D03*
X332028000Y-322672700D03*
%TO.N,/W363*%
X331774200Y-320832800D03*
X115147000Y-311954900D03*
D14*
%TO.N,Net-(Q59A-S1)*%
X383398000Y-109606000D03*
X383598000Y-105706000D03*
%TO.N,Net-(Q59B-G2)*%
X389998000Y-105406000D03*
X385198000Y-112206000D03*
D13*
%TO.N,/W366*%
X334949400Y-305921600D03*
X115147000Y-331380400D03*
X333870000Y-325364800D03*
%TO.N,/W365*%
X331719100Y-303803500D03*
X127897500Y-319865500D03*
D14*
%TO.N,Net-(Q60A-S1)*%
X383598000Y-89806200D03*
X383498000Y-93006200D03*
%TO.N,Net-(Q60B-G2)*%
X390598000Y-90106200D03*
X385098000Y-95306200D03*
D13*
%TO.N,/W362*%
X115176300Y-305624600D03*
X329982100Y-287894000D03*
%TO.N,/W361*%
X115159400Y-298935000D03*
X331716100Y-287862700D03*
D14*
%TO.N,Net-(Q61A-S1)*%
X383998000Y-178850000D03*
X384098000Y-175050000D03*
%TO.N,Net-(Q61B-G2)*%
X391298000Y-176050000D03*
X385998000Y-181350000D03*
%TO.N,/W414*%
X384261400Y-97036900D03*
D13*
X148495900Y-113938200D03*
X387244300Y-66881000D03*
%TO.N,/W413*%
X377817400Y-99356000D03*
X381885400Y-64995900D03*
X148495900Y-107882800D03*
D14*
%TO.N,Net-(Q62A-S1)*%
X383598000Y-157150000D03*
X383398000Y-161050000D03*
%TO.N,Net-(Q62B-G2)*%
X389998000Y-156850000D03*
X385198000Y-163650000D03*
D13*
%TO.N,/W416*%
X151312000Y-127450300D03*
X152899100Y-49956600D03*
X388951100Y-46758100D03*
%TO.N,/W415*%
X155064300Y-120484300D03*
X157859700Y-57960700D03*
X383468300Y-46758100D03*
D14*
%TO.N,Net-(Q63A-S1)*%
X383598000Y-141250000D03*
X383498000Y-144450000D03*
%TO.N,Net-(Q63B-G2)*%
X385098000Y-146750000D03*
X390598000Y-141550000D03*
D13*
%TO.N,/W412*%
X388913700Y-31442700D03*
X158447500Y-41982400D03*
X158485300Y-101654200D03*
%TO.N,/W411*%
X153277700Y-94167200D03*
X383372600Y-31442700D03*
X156810800Y-37912400D03*
D14*
%TO.N,Net-(Q64A-S1)*%
X383998000Y-230294000D03*
X384098000Y-226494000D03*
%TO.N,Net-(Q64B-G2)*%
X385998000Y-232794000D03*
X391298000Y-227494000D03*
D13*
%TO.N,/W424*%
X147336900Y-155258100D03*
X146360900Y-129396400D03*
X389258700Y-116499100D03*
%TO.N,/W423*%
X383119500Y-116499100D03*
X149014600Y-143435400D03*
D14*
%TO.N,Net-(Q65A-S1)*%
X383398000Y-212494000D03*
X383598000Y-208594000D03*
%TO.N,Net-(Q65B-G2)*%
X389998000Y-208294000D03*
X385198000Y-215094000D03*
D13*
%TO.N,/W426*%
X146987000Y-168079900D03*
X386720300Y-100755700D03*
X386862000Y-158765300D03*
%TO.N,/W425*%
X154478200Y-103080000D03*
X381511500Y-98974900D03*
X146999800Y-160898800D03*
D14*
%TO.N,Net-(Q66A-S1)*%
X383498000Y-195894000D03*
X383598000Y-192694000D03*
%TO.N,Net-(Q66B-G2)*%
X385098000Y-198194000D03*
X390598000Y-192994000D03*
D13*
%TO.N,/W422*%
X146999800Y-142278000D03*
X387827300Y-84029700D03*
X150961800Y-83760800D03*
%TO.N,/W421*%
X159192700Y-92197800D03*
X383372600Y-83456900D03*
X155064300Y-136425100D03*
D14*
%TO.N,Net-(Q67A-S1)*%
X384098000Y-277938000D03*
X383998000Y-281738000D03*
%TO.N,Net-(Q67B-G2)*%
X391298000Y-278938000D03*
X385998000Y-284238000D03*
D13*
%TO.N,/W434*%
X158466400Y-181645300D03*
X389234700Y-168306700D03*
X155396200Y-197151500D03*
%TO.N,/W433*%
X383782400Y-168306700D03*
X155396200Y-182207200D03*
D14*
%TO.N,Net-(Q68A-S1)*%
X383598000Y-260038000D03*
X383398000Y-263938000D03*
%TO.N,Net-(Q68B-G2)*%
X385198000Y-266538000D03*
X389998000Y-259738000D03*
D13*
%TO.N,/W436*%
X148896700Y-168752200D03*
X148482000Y-210137400D03*
X388943600Y-150373300D03*
%TO.N,/W435*%
X151445600Y-203135000D03*
X155142000Y-164907500D03*
X383487500Y-150373300D03*
D14*
%TO.N,Net-(Q69A-S1)*%
X383498000Y-247338000D03*
X383598000Y-244138000D03*
%TO.N,Net-(Q69B-G2)*%
X390598000Y-244438000D03*
X385098000Y-249638000D03*
D13*
%TO.N,/W432*%
X380032500Y-134816300D03*
X146079800Y-184184200D03*
X371017600Y-183075400D03*
%TO.N,/W431*%
X155396200Y-177474900D03*
X383471100Y-133251600D03*
X158466400Y-148380700D03*
D14*
%TO.N,Net-(Q70A-S1)*%
X384098000Y-329382000D03*
X383998000Y-333182000D03*
%TO.N,Net-(Q70B-G2)*%
X391298000Y-330382000D03*
X385998000Y-335682000D03*
D13*
%TO.N,/W444*%
X389228700Y-220114300D03*
X145770500Y-237285000D03*
%TO.N,/W443*%
X145777300Y-230480000D03*
X383522600Y-219528600D03*
D14*
%TO.N,Net-(Q71A-S1)*%
X383398000Y-315382000D03*
X383598000Y-311482000D03*
%TO.N,Net-(Q71B-G2)*%
X385198000Y-317982000D03*
X389998000Y-311182000D03*
D13*
%TO.N,/W446*%
X388917700Y-202180900D03*
X387095800Y-248431000D03*
X145785200Y-249830100D03*
%TO.N,/W445*%
X383442500Y-202180900D03*
X146344400Y-239767500D03*
D14*
%TO.N,Net-(Q72A-S1)*%
X383498000Y-298782000D03*
X383598000Y-295582000D03*
%TO.N,Net-(Q72B-G2)*%
X385098000Y-301082000D03*
X390598000Y-295882000D03*
D13*
%TO.N,/W442*%
X388924200Y-186240100D03*
X147206600Y-220223900D03*
%TO.N,/W441*%
X146292600Y-214484500D03*
X383472400Y-186240100D03*
%TO.N,Net-(Q34001A-S1)*%
X212228000Y-173000000D03*
X212228000Y-177200000D03*
%TO.N,/W454*%
X383095100Y-272575400D03*
X145554700Y-278323000D03*
%TO.N,/W453*%
X383756600Y-271921900D03*
X148899200Y-271228300D03*
%TO.N,Net-(Q35001A-S1)*%
X212333000Y-142975000D03*
X212333000Y-138775000D03*
%TO.N,/W456*%
X144507700Y-293971200D03*
X156461700Y-252350600D03*
X388947800Y-253988500D03*
%TO.N,/W455*%
X383794200Y-273968100D03*
X383799700Y-254669100D03*
X145579100Y-285461600D03*
%TO.N,Net-(Q36001A-S1)*%
X227863000Y-177225000D03*
X227863000Y-173025000D03*
%TO.N,/W452*%
X154206800Y-265314500D03*
X388911400Y-236055100D03*
%TO.N,/W451*%
X383473600Y-236156100D03*
X145576000Y-259649900D03*
%TO.N,Net-(Q37001A-S1)*%
X227798000Y-160075000D03*
X227798000Y-155875000D03*
%TO.N,/W464*%
X389219200Y-321791300D03*
X145484900Y-318135000D03*
%TO.N,/W463*%
X384413500Y-320448500D03*
X146501800Y-311574100D03*
%TO.N,Net-(Q38001A-S1)*%
X227328000Y-138800000D03*
X227328000Y-143000000D03*
%TO.N,/W466*%
X145461100Y-331351500D03*
X386560800Y-306262600D03*
X386803000Y-324513700D03*
%TO.N,/W465*%
X383466500Y-305113700D03*
D14*
X146501800Y-325149700D03*
D13*
%TO.N,Net-(Q130001A-S1)*%
X212771000Y-212775000D03*
X212771000Y-208575000D03*
%TO.N,/W462*%
X147332800Y-304966600D03*
X388933500Y-287862700D03*
%TO.N,/W461*%
X383491700Y-287862700D03*
X145458600Y-298785000D03*
%TO.N,Net-(Q132001A-S1)*%
X212466000Y-230250000D03*
X212466000Y-226050000D03*
%TO.N,/W144*%
X210542100Y-232306000D03*
X212262200Y-202480200D03*
X45825500Y-238129500D03*
%TO.N,/W143*%
X206977600Y-230294200D03*
X210950500Y-202347700D03*
X45825500Y-231343500D03*
%TO.N,Net-(Q133001A-S1)*%
X212836000Y-191100000D03*
X212836000Y-195300000D03*
%TO.N,/W146*%
X49705500Y-218835000D03*
X217556500Y-219158800D03*
X46076100Y-251524500D03*
%TO.N,/W145*%
X211411400Y-219523900D03*
X46796800Y-244611200D03*
X46026300Y-221224500D03*
%TO.N,Net-(Q134001A-S1)*%
X229271000Y-225575000D03*
X229271000Y-229775000D03*
%TO.N,/W1412*%
X229129700Y-243574700D03*
X66682700Y-250145800D03*
X231457000Y-219849200D03*
%TO.N,/W141*%
X49096000Y-186544400D03*
X213305200Y-185654400D03*
X46873300Y-218835000D03*
%TO.N,Net-(Q135001A-S1)*%
X228771000Y-208175000D03*
X228771000Y-212375000D03*
%TO.N,/W142*%
X53962100Y-185132600D03*
X212330000Y-182933700D03*
X46762200Y-225285000D03*
%TO.N,/W1411*%
X78702400Y-222251400D03*
X78702400Y-243439800D03*
X228725200Y-218248200D03*
%TO.N,Net-(Q136001A-S1)*%
X228971000Y-195275000D03*
X228971000Y-191075000D03*
%TO.N,/W1410*%
X67441000Y-237073600D03*
X226808800Y-202380400D03*
X226770100Y-232679800D03*
%TO.N,/W149*%
X227995300Y-200188300D03*
X66655600Y-230835000D03*
X225351500Y-231105200D03*
%TO.N,Net-(Q138001A-S1)*%
X212466000Y-267000000D03*
X212466000Y-262800000D03*
%TO.N,/W148*%
X68469700Y-225085400D03*
X72372000Y-186825800D03*
X231065400Y-185359800D03*
%TO.N,/W147*%
X227067400Y-189246100D03*
X66660800Y-218090000D03*
%TO.N,Net-(Q140001A-S1)*%
X212666000Y-280200000D03*
X212666000Y-284400000D03*
%TO.N,/W154*%
X215862900Y-257060800D03*
X46054400Y-278123000D03*
%TO.N,/W153*%
X211860200Y-255688200D03*
X50785000Y-271336200D03*
%TO.N,Net-(Q141001A-S1)*%
X212666000Y-244900000D03*
X212666000Y-249100000D03*
%TO.N,/W156*%
X46060600Y-291085000D03*
X214753500Y-290964700D03*
X217913700Y-273760700D03*
%TO.N,/W155*%
X211434500Y-273914500D03*
X46088100Y-284635000D03*
%TO.N,Net-(Q142001A-S1)*%
X229866000Y-279900000D03*
X229866000Y-284100000D03*
%TO.N,/W1512*%
X232560400Y-274333800D03*
X66174700Y-291085000D03*
%TO.N,/W151*%
X209751800Y-238047700D03*
X46075400Y-258510000D03*
%TO.N,Net-(Q143001A-S1)*%
X229766000Y-262400000D03*
X229766000Y-266600000D03*
%TO.N,/W152*%
X46100000Y-265648600D03*
X207531600Y-266351000D03*
X211411400Y-237350600D03*
%TO.N,/W1511*%
X228901500Y-272191800D03*
X72447800Y-279013700D03*
%TO.N,Net-(Q145001A-S1)*%
X229866000Y-249000000D03*
X229866000Y-244800000D03*
%TO.N,/W1510*%
X66151300Y-278185000D03*
X234418300Y-271406600D03*
X234488300Y-256620000D03*
%TO.N,/W159*%
X228099000Y-255981100D03*
X68731900Y-265628400D03*
%TO.N,Net-(Q147001A-S1)*%
X212466000Y-320905000D03*
X212466000Y-316705000D03*
%TO.N,/W158*%
X66164400Y-265285000D03*
X234780500Y-238047700D03*
%TO.N,/W157*%
X229255200Y-237735000D03*
X66737800Y-258827500D03*
X230254000Y-253645700D03*
%TO.N,Net-(Q149001A-S1)*%
X212531000Y-335005000D03*
X212531000Y-339205000D03*
%TO.N,/W164*%
X45668000Y-319598700D03*
X215199600Y-311832800D03*
%TO.N,/W163*%
X211453200Y-310367000D03*
X45662900Y-312935000D03*
%TO.N,Net-(Q179001A-S1)*%
X212631000Y-303605000D03*
X212631000Y-299405000D03*
%TO.N,/W166*%
X45682200Y-332123100D03*
X208864700Y-327168900D03*
%TO.N,/W165*%
X211102900Y-327930100D03*
X45456100Y-326408000D03*
%TO.N,Net-(Q180001A-S1)*%
X229696000Y-339030000D03*
X229696000Y-334830000D03*
%TO.N,/W1612*%
X65953500Y-331108300D03*
X234642100Y-327714700D03*
%TO.N,/W161*%
X45689200Y-300035000D03*
X214209800Y-294533200D03*
%TO.N,Net-(Q181001A-S1)*%
X229401000Y-316380000D03*
X229401000Y-320580000D03*
%TO.N,/W162*%
X215952200Y-295456400D03*
X45456100Y-307164100D03*
%TO.N,/W1611*%
X65968000Y-324385000D03*
X229177900Y-327714700D03*
%TO.N,Net-(Q182001A-S1)*%
X229131000Y-299205000D03*
X229131000Y-303405000D03*
%TO.N,/W1610*%
X228889800Y-308546900D03*
X66370100Y-317935000D03*
X66737800Y-313691800D03*
%TO.N,/W169*%
X219536700Y-309035300D03*
X65982800Y-311418700D03*
%TO.N,/W168*%
X232645200Y-293396100D03*
X65987700Y-305035000D03*
%TO.N,/W167*%
X65957400Y-298585000D03*
X228394400Y-292385700D03*
D14*
%TO.N,Net-(U26D--)*%
X284756000Y-77950200D03*
X286856000Y-77350200D03*
D13*
%TO.N,/InNeuron_2/Adder3/SUM_IN*%
X213872000Y-126579400D03*
X244767000Y-97438600D03*
X234090000Y-85650000D03*
D14*
X217500000Y-100500000D03*
X217500000Y-90700000D03*
D13*
X218590000Y-120550000D03*
X228742300Y-109367700D03*
X233990000Y-103050000D03*
X214301200Y-92250000D03*
X228259900Y-126804400D03*
X233790000Y-120450000D03*
X218790000Y-85750000D03*
X218590000Y-103150000D03*
D14*
%TO.N,Net-(U28D--)*%
X285656000Y-59550200D03*
X284156000Y-60150200D03*
%TO.N,Net-(U29D--)*%
X283856000Y-43650200D03*
X285256000Y-43350200D03*
%TO.N,Net-(U30D--)*%
X284756000Y-129450000D03*
X286856000Y-128850000D03*
%TO.N,Net-(U32D--)*%
X285656000Y-111050000D03*
X284156000Y-111650000D03*
%TO.N,Net-(U33D--)*%
X283856000Y-95150200D03*
X285256000Y-94850200D03*
%TO.N,Net-(U34D--)*%
X284756000Y-180950000D03*
X286856000Y-180350000D03*
%TO.N,Net-(U35D--)*%
X285656000Y-162550000D03*
X284156000Y-163150000D03*
%TO.N,Net-(U37D--)*%
X283856000Y-146650000D03*
X285256000Y-146350000D03*
%TO.N,Net-(U38D--)*%
X286856000Y-231850000D03*
X284756000Y-232450000D03*
%TO.N,Net-(U39D--)*%
X285656000Y-214050000D03*
X284156000Y-214650000D03*
%TO.N,Net-(U41D--)*%
X285256000Y-197850000D03*
X283856000Y-198150000D03*
%TO.N,Net-(U42D--)*%
X286856000Y-283350000D03*
X284756000Y-283950000D03*
%TO.N,Net-(U47D--)*%
X285656000Y-317050000D03*
X284156000Y-317650000D03*
%TO.N,Net-(U43D--)*%
X285656000Y-265550000D03*
X284156000Y-266150000D03*
%TO.N,Net-(U45D--)*%
X283856000Y-249650000D03*
X285256000Y-249350000D03*
%TO.N,Net-(U49D--)*%
X283856000Y-301150000D03*
X285256000Y-300850000D03*
%TO.N,Net-(U52D--)*%
X337356000Y-58050200D03*
X335856000Y-58650200D03*
D13*
%TO.N,/InNeuron_1/Adder3/SUM_IN*%
X235663000Y-66525000D03*
X218357800Y-36863700D03*
X235328000Y-32400000D03*
X245806000Y-43219100D03*
X219028000Y-66500000D03*
X230254000Y-72941800D03*
X235528000Y-49300000D03*
X218828000Y-32300000D03*
X230714800Y-55055300D03*
X219028000Y-49200000D03*
X213428000Y-73100000D03*
X213584400Y-55312600D03*
D14*
%TO.N,Net-(U46D--)*%
X286856000Y-334850000D03*
X284756000Y-335450000D03*
%TO.N,Net-(U53D--)*%
X336956000Y-41850200D03*
X335556000Y-42150200D03*
%TO.N,Net-(U56D--)*%
X335856000Y-109520000D03*
X337356000Y-108920000D03*
%TO.N,Net-(U57D--)*%
X336956000Y-92720200D03*
X335556000Y-93020200D03*
%TO.N,Net-(U58D--)*%
X338556000Y-177590000D03*
X336456000Y-178190000D03*
%TO.N,Net-(U69D--)*%
X336956000Y-245330000D03*
X335556000Y-245630000D03*
%TO.N,Net-(U60D--)*%
X337356000Y-159790000D03*
X335856000Y-160390000D03*
%TO.N,Net-(U61D--)*%
X336956000Y-143590000D03*
X335556000Y-143890000D03*
D13*
%TO.N,/InNeuron_3/Adder3/SUM_IN*%
X234398000Y-155875000D03*
X233928000Y-138800000D03*
X234463000Y-173025000D03*
X214301200Y-162200000D03*
X218933000Y-138775000D03*
X218828000Y-173000000D03*
X228711300Y-144946100D03*
X218359900Y-178340300D03*
X244306000Y-150910000D03*
X218828000Y-155600000D03*
D14*
%TO.N,Net-(U62D--)*%
X338556000Y-228460000D03*
X336456000Y-229060000D03*
%TO.N,Net-(U50D--)*%
X338556000Y-75850200D03*
X336456000Y-76450200D03*
%TO.N,Net-(U54D--)*%
X338556000Y-126720000D03*
X336456000Y-127320000D03*
%TO.N,Net-(U65D--)*%
X336956000Y-194460000D03*
X335556000Y-194760000D03*
%TO.N,Net-(U66D--)*%
X336456000Y-279930000D03*
X338556000Y-279330000D03*
%TO.N,Net-(U73D--)*%
X335556000Y-296500000D03*
X336956000Y-296200000D03*
%TO.N,/Neuron6_1/Adder2/SUM_IN*%
X281056000Y-65550200D03*
X281956000Y-83350200D03*
X286356000Y-61450200D03*
X287756000Y-81350200D03*
%TO.N,Net-(U68D--)*%
X335856000Y-262130000D03*
X337356000Y-261530000D03*
%TO.N,Net-(U70D--)*%
X336456000Y-330800000D03*
X338556000Y-330200000D03*
%TO.N,Net-(U77D--)*%
X388698000Y-39662200D03*
X387298000Y-39962200D03*
%TO.N,/Neuron6_2/Adder2/SUM_IN*%
X281956000Y-134850000D03*
X281056000Y-117050000D03*
X287756000Y-132850000D03*
X286356000Y-112950000D03*
%TO.N,Net-(U72D--)*%
X337356000Y-312400000D03*
X335856000Y-313000000D03*
%TO.N,Net-(U74D--)*%
X390298000Y-73662200D03*
X388198000Y-74262200D03*
%TO.N,Net-(U81D--)*%
X387298000Y-91406200D03*
X388698000Y-91106200D03*
%TO.N,/Neuron6_3/Adder2/SUM_IN*%
X281956000Y-186350000D03*
X281056000Y-168550000D03*
X286356000Y-164450000D03*
X287756000Y-184350000D03*
%TO.N,Net-(U76D--)*%
X387598000Y-56462200D03*
X389098000Y-55862200D03*
%TO.N,Net-(U78D--)*%
X390298000Y-125106000D03*
X388198000Y-125706000D03*
%TO.N,Net-(U85D--)*%
X388698000Y-142550000D03*
X387298000Y-142850000D03*
%TO.N,/Neuron6_4/Adder2/SUM_IN*%
X281956000Y-237850000D03*
X286356000Y-215950000D03*
X287756000Y-235850000D03*
X281056000Y-220050000D03*
%TO.N,Net-(U80D--)*%
X387598000Y-107906000D03*
X389098000Y-107306000D03*
%TO.N,Net-(U82D--)*%
X390298000Y-176550000D03*
X388198000Y-177150000D03*
%TO.N,Net-(U89D--)*%
X388698000Y-193994000D03*
X387298000Y-194294000D03*
%TO.N,/Neuron6_5/Adder2/SUM_IN*%
X281056000Y-271550000D03*
X281956000Y-289350000D03*
X287756000Y-287350000D03*
X286356000Y-267450000D03*
%TO.N,Net-(U84D--)*%
X387598000Y-159350000D03*
X389098000Y-158750000D03*
%TO.N,Net-(U86D--)*%
X388198000Y-228594000D03*
X390298000Y-227994000D03*
%TO.N,Net-(U93D--)*%
X388698000Y-245438000D03*
X387298000Y-245738000D03*
%TO.N,/Neuron6_6/Adder2/SUM_IN*%
X281056000Y-323050000D03*
X286356000Y-318950000D03*
X287756000Y-338850000D03*
X281956000Y-340850000D03*
%TO.N,Net-(U88D--)*%
X387598000Y-210794000D03*
X389098000Y-210194000D03*
%TO.N,Net-(U90D--)*%
X390298000Y-279438000D03*
X388198000Y-280038000D03*
%TO.N,Net-(U97D--)*%
X388698000Y-296882000D03*
X387298000Y-297182000D03*
%TO.N,/Neuron6_7/Adder2/SUM_IN*%
X333656000Y-81850200D03*
X338056000Y-59950200D03*
X332756000Y-64050200D03*
X339456000Y-79850200D03*
%TO.N,Net-(U92D--)*%
X389098000Y-261638000D03*
X387598000Y-262238000D03*
%TO.N,Net-(U94D--)*%
X388198000Y-331482000D03*
X390298000Y-330882000D03*
%TO.N,/Neuron6_8/Adder2/SUM_IN*%
X338056000Y-110820000D03*
X339456000Y-130720000D03*
X333656000Y-132720000D03*
X332756000Y-114920000D03*
%TO.N,Net-(U96D--)*%
X389098000Y-313082000D03*
X387598000Y-313682000D03*
%TO.N,/Neuron6_9/Adder2/SUM_IN*%
X338056000Y-161690000D03*
X332756000Y-165790000D03*
X339456000Y-181590000D03*
X333656000Y-183590000D03*
%TO.N,/Neuron6_10/Adder2/SUM_IN*%
X338056000Y-212560000D03*
X339456000Y-232460000D03*
X333656000Y-234460000D03*
X332756000Y-216660000D03*
%TO.N,/Neuron6_11/Adder2/SUM_IN*%
X338056000Y-263430000D03*
X333656000Y-285330000D03*
X339456000Y-283330000D03*
X332756000Y-267530000D03*
%TO.N,/Neuron6_12/Adder2/SUM_IN*%
X338056000Y-314300000D03*
X339456000Y-334200000D03*
X332756000Y-318400000D03*
X333656000Y-336200000D03*
D13*
%TO.N,Net-(U2001D--)*%
X217490000Y-103050000D03*
X215190000Y-103450000D03*
%TO.N,Net-(U4001D--)*%
X217490000Y-120450000D03*
X215190000Y-120850000D03*
%TO.N,Net-(U5001D--)*%
X215390000Y-86050000D03*
X217690000Y-85650000D03*
D14*
%TO.N,/Neuron6_13/Adder2/SUM_IN*%
X385398000Y-79662200D03*
X384498000Y-61862200D03*
X389798000Y-57762200D03*
X391198000Y-77662200D03*
D13*
%TO.N,Net-(U6001D--)*%
X232690000Y-120350000D03*
X230390000Y-120750000D03*
D14*
%TO.N,Net-(U14001D--)*%
X442241000Y-73545200D03*
X440841000Y-73845200D03*
%TO.N,Net-(U15001D--)*%
X440941000Y-56845200D03*
X442341000Y-56545200D03*
%TO.N,/Neuron6_14/Adder2/SUM_IN*%
X385398000Y-131106000D03*
X389798000Y-109206000D03*
X384498000Y-113306000D03*
X391198000Y-129106000D03*
%TO.N,Net-(U16001D--)*%
X442341000Y-38545200D03*
X440941000Y-38845200D03*
%TO.N,Net-(U18001D--)*%
X442556000Y-107100000D03*
X441156000Y-107400000D03*
%TO.N,Net-(U19001D--)*%
X441106000Y-90600200D03*
X442506000Y-90300200D03*
%TO.N,/Neuron6_15/Adder2/SUM_IN*%
X384498000Y-164750000D03*
X391198000Y-180550000D03*
X385398000Y-182550000D03*
X389798000Y-160650000D03*
%TO.N,Net-(U20001D--)*%
X441256000Y-124800000D03*
X442656000Y-124500000D03*
D13*
%TO.N,Net-(U22001D--)*%
X215628000Y-49500000D03*
X217928000Y-49100000D03*
%TO.N,Net-(U24001D--)*%
X215628000Y-66800000D03*
X217928000Y-66400000D03*
D14*
%TO.N,/Neuron6_16/Adder2/SUM_IN*%
X389798000Y-212094000D03*
X391198000Y-231994000D03*
X384498000Y-216194000D03*
X385398000Y-233994000D03*
D13*
%TO.N,Net-(U25001D--)*%
X217728000Y-32200000D03*
X215428000Y-32600000D03*
%TO.N,Net-(U26001D--)*%
X232263000Y-66825000D03*
X234563000Y-66425000D03*
%TO.N,Net-(U27001D--)*%
X232128000Y-49600000D03*
X234428000Y-49200000D03*
D14*
%TO.N,/Neuron6_17/Adder2/SUM_IN*%
X385398000Y-285438000D03*
X391198000Y-283438000D03*
X384498000Y-267638000D03*
X389798000Y-263538000D03*
D13*
%TO.N,Net-(U28001D--)*%
X231928000Y-32700000D03*
X234228000Y-32300000D03*
%TO.N,Net-(U29001D--)*%
X230590000Y-103350000D03*
X232890000Y-102950000D03*
%TO.N,Net-(U30001D--)*%
X232990000Y-85550000D03*
X230690000Y-85950000D03*
%TO.N,Net-(U32001D--)*%
X215428000Y-155900000D03*
X217728000Y-155500000D03*
D14*
%TO.N,/Neuron6_18/Adder2/SUM_IN*%
X391198000Y-334882000D03*
X384498000Y-319082000D03*
X389798000Y-314982000D03*
X385398000Y-336882000D03*
D13*
%TO.N,Net-(U34001D--)*%
X215428000Y-173300000D03*
X217728000Y-172900000D03*
%TO.N,Net-(U35001D--)*%
X215533000Y-139075000D03*
X217833000Y-138675000D03*
%TO.N,Net-(U36001D--)*%
X233363000Y-172925000D03*
X231063000Y-173325000D03*
%TO.N,/InNeuron_4/Adder3/SUM_IN*%
X235571000Y-191075000D03*
X218292800Y-231417900D03*
X220380300Y-197483400D03*
X219066000Y-226050000D03*
X235371000Y-208175000D03*
D14*
X245700000Y-202971100D03*
D13*
X219371000Y-208575000D03*
X218391300Y-214238500D03*
X219436000Y-191100000D03*
X235871000Y-225575000D03*
%TO.N,Net-(U37001D--)*%
X230998000Y-156175000D03*
X233298000Y-155775000D03*
D14*
%TO.N,Net-(U64D--)*%
X335856000Y-211260000D03*
X337356000Y-210660000D03*
D13*
%TO.N,Net-(U38001D--)*%
X232828000Y-138700000D03*
X230528000Y-139100000D03*
%TO.N,Net-(U130001D--)*%
X218271000Y-208475000D03*
X215971000Y-208875000D03*
%TO.N,Net-(U132001D--)*%
X217966000Y-225950000D03*
X215666000Y-226350000D03*
%TO.N,Net-(U133001D--)*%
X216036000Y-191400000D03*
X218336000Y-191000000D03*
%TO.N,/InNeuron_5/Adder3/SUM_IN*%
X214066000Y-269400000D03*
X246487700Y-257079800D03*
X218364600Y-285945400D03*
X236366000Y-262400000D03*
X236466000Y-279900000D03*
X219066000Y-262800000D03*
X219266000Y-244900000D03*
X219266000Y-280200000D03*
X218505400Y-250163100D03*
X236466000Y-244800000D03*
%TO.N,Net-(U134001D--)*%
X232471000Y-225875000D03*
X234771000Y-225475000D03*
%TO.N,Net-(U135001D--)*%
X231971000Y-208475000D03*
X234271000Y-208075000D03*
%TO.N,Net-(U136001D--)*%
X234471000Y-190975000D03*
X232171000Y-191375000D03*
%TO.N,Net-(U138001D--)*%
X217966000Y-262700000D03*
X215666000Y-263100000D03*
%TO.N,Net-(U140001D--)*%
X215866000Y-280500000D03*
X218166000Y-280100000D03*
%TO.N,Net-(U141001D--)*%
X215866000Y-245200000D03*
X218166000Y-244800000D03*
%TO.N,/InNeuron_6/Adder3/SUM_IN*%
X235731000Y-299205000D03*
X219131000Y-335005000D03*
X219066000Y-316705000D03*
X236296000Y-334830000D03*
X218473400Y-339854300D03*
X218519200Y-304033300D03*
X214430700Y-322456400D03*
X219231000Y-299405000D03*
X236001000Y-316380000D03*
X245617800Y-311182100D03*
%TO.N,Net-(U142001D--)*%
X233066000Y-280200000D03*
X235366000Y-279800000D03*
%TO.N,Net-(U143001D--)*%
X235266000Y-262300000D03*
X232966000Y-262700000D03*
%TO.N,Net-(U145001D--)*%
X235366000Y-244700000D03*
X233066000Y-245100000D03*
%TO.N,Net-(U147001D--)*%
X215666000Y-317005000D03*
X217966000Y-316605000D03*
%TO.N,Net-(U149001D--)*%
X218031000Y-334905000D03*
X215731000Y-335305000D03*
%TO.N,Net-(U179001D--)*%
X215831000Y-299705000D03*
X218131000Y-299305000D03*
%TO.N,Net-(U180001D--)*%
X232896000Y-335130000D03*
X235196000Y-334730000D03*
%TO.N,Net-(U181001D--)*%
X234901000Y-316280000D03*
X232601000Y-316680000D03*
%TO.N,Net-(U182001D--)*%
X232331000Y-299505000D03*
X234631000Y-299105000D03*
D14*
%TO.N,/CS*%
X42808600Y-34342900D03*
D13*
X102442100Y-35044500D03*
%TO.N,/SCK*%
X84941100Y-108223200D03*
D14*
X105300000Y-282600000D03*
D13*
X80229800Y-331601900D03*
X138257800Y-246435300D03*
X84934100Y-113363500D03*
D14*
X137300000Y-176000000D03*
D13*
X41105500Y-282150600D03*
X79234300Y-323198300D03*
X137517200Y-312706800D03*
X81990500Y-142005900D03*
X109268400Y-94274900D03*
X137558400Y-303960000D03*
D14*
X142900000Y-166600000D03*
D13*
X81739100Y-123427600D03*
D14*
X105457000Y-278463000D03*
D13*
X112896000Y-105431000D03*
X41231100Y-263944700D03*
X137849300Y-257348400D03*
X106450000Y-38434900D03*
X109446300Y-113938200D03*
X41231100Y-276689300D03*
X111304000Y-246018100D03*
%TO.N,/MOSI*%
X172773900Y-128736000D03*
X61559500Y-270578200D03*
X37480800Y-258224700D03*
X111839400Y-189607800D03*
X140833300Y-237576700D03*
X169799400Y-103921100D03*
X108114600Y-218383400D03*
X109787200Y-185132600D03*
X80988500Y-270185900D03*
X84001300Y-124122800D03*
X61426700Y-262524800D03*
X109449100Y-95415700D03*
X107450000Y-38425600D03*
X109474100Y-123018400D03*
X84443100Y-217885000D03*
X84419000Y-203318500D03*
X172083900Y-156358300D03*
X109507600Y-204437800D03*
X37412400Y-293840500D03*
X83571900Y-278002100D03*
X169804400Y-98982900D03*
X140833600Y-269924400D03*
X109122700Y-143647600D03*
X141044300Y-205951400D03*
X149672100Y-109351900D03*
X41031100Y-312590100D03*
X140933600Y-230837700D03*
X84126000Y-206513300D03*
X40889900Y-319385000D03*
X83718600Y-259235000D03*
X140743200Y-266039500D03*
X149800700Y-98428700D03*
%TO.N,/S0*%
X21991900Y-42137900D03*
X54204900Y-64343200D03*
X60602700Y-33049700D03*
X22548400Y-65789800D03*
X61010700Y-54481000D03*
X60560700Y-36857900D03*
X113120400Y-37310100D03*
D14*
X60394700Y-43837600D03*
D13*
X21843200Y-75110500D03*
X56916400Y-22666200D03*
X22910200Y-54663200D03*
D14*
%TO.N,/S1*%
X61000000Y-43600000D03*
D13*
X26082800Y-23113900D03*
X22299200Y-88622600D03*
X22771000Y-45085600D03*
X55479200Y-54212200D03*
X113489700Y-36148800D03*
X25689900Y-33999100D03*
D14*
X60000000Y-35575900D03*
D13*
X21867700Y-78264900D03*
X58139300Y-24808000D03*
%TO.N,/S2*%
X70357500Y-32619900D03*
X28353500Y-78387800D03*
X66410100Y-66965300D03*
X31493000Y-35785700D03*
X65929700Y-47204700D03*
X32870000Y-66586400D03*
X114521100Y-34023900D03*
X30916900Y-89939800D03*
X32889500Y-44849900D03*
X30762400Y-58099500D03*
%TO.N,/S3*%
X32916000Y-23926400D03*
X32919100Y-34649100D03*
X31649000Y-46560200D03*
X31663400Y-57445400D03*
X64256400Y-24100700D03*
X66410100Y-56294200D03*
X113603200Y-34045500D03*
X64747200Y-34542100D03*
X66093400Y-45907500D03*
%TO.N,/S4*%
X111839400Y-38711400D03*
X40116100Y-40056700D03*
%TO.N,/S5*%
X114157100Y-32750000D03*
X110192900Y-33455600D03*
X39722800Y-40896400D03*
D14*
%TO.N,/S6*%
X52522266Y-45310977D03*
X110639750Y-32293766D03*
D13*
%TO.N,/S7*%
X115097400Y-32421200D03*
X46787300Y-41955800D03*
%TO.N,/VariableWeights/CS117*%
X62179600Y-92337000D03*
X63611200Y-35104400D03*
%TO.N,/VariableWeights/CS118*%
X62941400Y-100097600D03*
X68731900Y-30024800D03*
%TO.N,/VariableWeights/CS119*%
X62934300Y-105432600D03*
X68731900Y-31992800D03*
%TO.N,/VariableWeights/CS1110*%
X63654300Y-33094300D03*
X60743900Y-111081100D03*
%TO.N,/VariableWeights/CS1111*%
X59009700Y-118491700D03*
X58232800Y-45589200D03*
%TO.N,/VariableWeights/CS1112*%
X60947600Y-42411600D03*
X60493900Y-124794100D03*
%TO.N,/VariableWeights/CS127*%
X59387900Y-133685700D03*
X56735100Y-45348600D03*
%TO.N,/VariableWeights/CS128*%
X62318300Y-43330700D03*
X59178800Y-140509500D03*
%TO.N,/VariableWeights/CS129*%
X59581700Y-146388100D03*
X60770300Y-40619500D03*
%TO.N,/VariableWeights/CS1210*%
X62602000Y-152811100D03*
X62411200Y-39914300D03*
%TO.N,/VariableWeights/CS1211*%
X56918400Y-39368800D03*
X58028400Y-160336300D03*
%TO.N,/VariableWeights/CS1212*%
X59895200Y-165756000D03*
X55977700Y-39057100D03*
%TO.N,/VariableWeights/CS137*%
X64720400Y-37402800D03*
X65930600Y-173398500D03*
%TO.N,/VariableWeights/CS138*%
X62952300Y-180262300D03*
X64396700Y-39368800D03*
%TO.N,/VariableWeights/CS139*%
X60535000Y-186875600D03*
X61128400Y-39368800D03*
%TO.N,/VariableWeights/CS1310*%
X69578500Y-43140500D03*
X63380600Y-193894500D03*
%TO.N,/VariableWeights/CS1311*%
X64118300Y-40879900D03*
X60863000Y-199718100D03*
%TO.N,/VariableWeights/CS1312*%
X63380600Y-206801900D03*
X69578500Y-41203100D03*
%TO.N,/VariableWeights/CS147*%
X68523700Y-45348600D03*
X59552700Y-214444300D03*
X59551700Y-45907500D03*
%TO.N,/VariableWeights/CS148*%
X61452600Y-220714800D03*
D14*
X64755200Y-43363700D03*
D13*
%TO.N,/VariableWeights/CS149*%
X56184300Y-57615200D03*
X59895200Y-227516300D03*
X57808800Y-142402900D03*
D14*
%TO.N,/VariableWeights/CS1410*%
X61200000Y-53400000D03*
X57900000Y-234400000D03*
D13*
%TO.N,/VariableWeights/CS1411*%
X58751200Y-241667600D03*
X54941900Y-52705200D03*
%TO.N,/VariableWeights/CS1412*%
X59168100Y-246685100D03*
X55062100Y-56887900D03*
%TO.N,/VariableWeights/CS157*%
X61365500Y-50600000D03*
D14*
X59200000Y-255100000D03*
D13*
%TO.N,/VariableWeights/CS158*%
X55441500Y-50075000D03*
X57885200Y-262544600D03*
%TO.N,/VariableWeights/CS159*%
X54784000Y-50948200D03*
X58231800Y-269523600D03*
%TO.N,/VariableWeights/CS1510*%
X58231800Y-275737500D03*
X57169500Y-48775000D03*
%TO.N,/VariableWeights/CS1511*%
X61440100Y-281871400D03*
X68398900Y-49823400D03*
X64456800Y-50132100D03*
%TO.N,/VariableWeights/CS1512*%
X61426700Y-288116400D03*
X64774300Y-48611700D03*
%TO.N,/VariableWeights/CS167*%
X61551100Y-295833100D03*
X69751300Y-50671900D03*
%TO.N,/VariableWeights/CS168*%
X59052600Y-301674600D03*
X63852900Y-51644200D03*
%TO.N,/VariableWeights/CS169*%
X61426700Y-307788700D03*
X67755200Y-51419400D03*
%TO.N,/VariableWeights/CS1610*%
X61006300Y-315538500D03*
X61911100Y-52025000D03*
D14*
%TO.N,/VariableWeights/CS1611*%
X61911100Y-53385100D03*
D13*
X61009200Y-321736900D03*
%TO.N,/VariableWeights/CS1612*%
X61911100Y-54517500D03*
X61007700Y-328386400D03*
%TO.N,/VariableWeights/CS111*%
X42630200Y-59071700D03*
X39717200Y-93181600D03*
%TO.N,/VariableWeights/CS112*%
X53089500Y-59825000D03*
X41546400Y-100558300D03*
%TO.N,/VariableWeights/CS113*%
X42215500Y-106954700D03*
X56169100Y-60475000D03*
%TO.N,/VariableWeights/CS114*%
X47215500Y-61125000D03*
X38299000Y-112513900D03*
%TO.N,/VariableWeights/CS115*%
X44539400Y-118475000D03*
X53215100Y-61886800D03*
%TO.N,/VariableWeights/CS116*%
X56124100Y-62425000D03*
X51679400Y-125546100D03*
%TO.N,/VariableWeights/CS121*%
X38720100Y-134383800D03*
X53252700Y-63137500D03*
%TO.N,/VariableWeights/CS122*%
X39375000Y-141092700D03*
X45746600Y-63642800D03*
%TO.N,/VariableWeights/CS123*%
X61546000Y-58846300D03*
X42193200Y-148298700D03*
%TO.N,/VariableWeights/CS124*%
X61546100Y-59785900D03*
X41106100Y-154358500D03*
%TO.N,/VariableWeights/CS125*%
X61546100Y-60777800D03*
X40882800Y-161197200D03*
%TO.N,/VariableWeights/CS126*%
X64201600Y-61125000D03*
X39540000Y-62803700D03*
X38430800Y-166383000D03*
%TO.N,/VariableWeights/CS131*%
X40908600Y-176277100D03*
X61188000Y-62736200D03*
%TO.N,/VariableWeights/CS132*%
X64198000Y-62425000D03*
X54605400Y-182254900D03*
%TO.N,/VariableWeights/CS133*%
X41131100Y-189145400D03*
X61449200Y-64711800D03*
%TO.N,/VariableWeights/CS134*%
X48817900Y-66711100D03*
X40206600Y-194939100D03*
%TO.N,/VariableWeights/CS135*%
X31625000Y-200188300D03*
X39169700Y-201117300D03*
X27654200Y-85527300D03*
%TO.N,/VariableWeights/CS136*%
X38285700Y-207728300D03*
X34815500Y-146675200D03*
X26422800Y-82624900D03*
%TO.N,/VariableWeights/CS141*%
X22299200Y-82624900D03*
X38282600Y-215538500D03*
X24640900Y-214136500D03*
%TO.N,/VariableWeights/CS142*%
X26872600Y-220114300D03*
X26341000Y-84618700D03*
X38274100Y-221997200D03*
%TO.N,/VariableWeights/CS143*%
X27841100Y-86666400D03*
X31996300Y-228084700D03*
X40353200Y-227966300D03*
%TO.N,/VariableWeights/CS144*%
X27100900Y-235645000D03*
X22406300Y-86239800D03*
%TO.N,/VariableWeights/CS145*%
X34208900Y-90595300D03*
D14*
X25689199Y-86509414D03*
D13*
X37689000Y-242232900D03*
%TO.N,/VariableWeights/CS146*%
X34415700Y-248010700D03*
X25755500Y-89076500D03*
%TO.N,/VariableWeights/CS151*%
X34671500Y-82737600D03*
X37889000Y-255981100D03*
%TO.N,/VariableWeights/CS152*%
X36272500Y-82822500D03*
X37889000Y-262544600D03*
%TO.N,/VariableWeights/CS153*%
X36168400Y-84533100D03*
X37889000Y-268671600D03*
%TO.N,/VariableWeights/CS154*%
X39021600Y-274817100D03*
X37144100Y-85326200D03*
%TO.N,/VariableWeights/CS155*%
X38255400Y-281360500D03*
X35727300Y-86610100D03*
%TO.N,/VariableWeights/CS156*%
X32970000Y-85481900D03*
X37412400Y-287862700D03*
%TO.N,/VariableWeights/CS161*%
X36791600Y-88410200D03*
X38820400Y-296658200D03*
%TO.N,/VariableWeights/CS162*%
X37412400Y-303803500D03*
D14*
X33571000Y-88602700D03*
D13*
%TO.N,/VariableWeights/CS163*%
X27501900Y-71697900D03*
X37412400Y-309781300D03*
%TO.N,/VariableWeights/CS164*%
X36240200Y-315759100D03*
X21195600Y-72339800D03*
%TO.N,/VariableWeights/CS165*%
X37412400Y-323729500D03*
X27501900Y-72989800D03*
%TO.N,/VariableWeights/CS166*%
X36826300Y-329707300D03*
X27265300Y-76392000D03*
%TO.N,/VariableWeights/CS211*%
X81754500Y-92587900D03*
X78175400Y-77302600D03*
X25941200Y-74289800D03*
%TO.N,/VariableWeights/CS212*%
X82187100Y-98629300D03*
X26570900Y-74939800D03*
X31254300Y-98669700D03*
%TO.N,/VariableWeights/CS213*%
X76399700Y-77949600D03*
X80269600Y-106489400D03*
X25918900Y-75689900D03*
%TO.N,/VariableWeights/CS214*%
X22961600Y-111706400D03*
X80262800Y-112855400D03*
X22299200Y-76370100D03*
%TO.N,/VariableWeights/CS215*%
X82503200Y-117723100D03*
X79769700Y-72266700D03*
X34504600Y-72266700D03*
%TO.N,/VariableWeights/CS216*%
X80921500Y-73043000D03*
X32912800Y-72339800D03*
X82833000Y-124243600D03*
%TO.N,/VariableWeights/CS221*%
X83158200Y-132861500D03*
X33043000Y-73264700D03*
X76399700Y-76647100D03*
%TO.N,/VariableWeights/CS222*%
X77528600Y-74080600D03*
X34573900Y-74080600D03*
X80058500Y-140464200D03*
%TO.N,/VariableWeights/CS223*%
X82176600Y-145359100D03*
X34535000Y-75416700D03*
X34878000Y-145359100D03*
%TO.N,/VariableWeights/CS224*%
X32914300Y-74939800D03*
X73397500Y-74939800D03*
X82690600Y-152230500D03*
D14*
%TO.N,/VariableWeights/CS225*%
X28353500Y-77032200D03*
D13*
X82912800Y-157985800D03*
X78718600Y-81127500D03*
%TO.N,/VariableWeights/CS226*%
X77852800Y-78878800D03*
X32938400Y-76505800D03*
X82943400Y-164822900D03*
%TO.N,/VariableWeights/CS231*%
X26085700Y-61427500D03*
X81690300Y-174284500D03*
X26899800Y-174023800D03*
%TO.N,/VariableWeights/CS232*%
X22894400Y-61174000D03*
X22336300Y-179347500D03*
X81535700Y-182001800D03*
%TO.N,/VariableWeights/CS233*%
X82491800Y-187118600D03*
X27452300Y-65333200D03*
X76088800Y-67184800D03*
%TO.N,/VariableWeights/CS234*%
X80712000Y-194195100D03*
X27220300Y-64391200D03*
X73397500Y-65613900D03*
%TO.N,/VariableWeights/CS235*%
X26085700Y-63824200D03*
X72831400Y-63708900D03*
X80696500Y-200188300D03*
%TO.N,/VariableWeights/CS236*%
X26234000Y-67630700D03*
X82925000Y-206442200D03*
X27550800Y-206266400D03*
%TO.N,/VariableWeights/CS261*%
X28278800Y-51219400D03*
X80331700Y-296488400D03*
X28674700Y-292198200D03*
%TO.N,/VariableWeights/CS262*%
X26218400Y-56346900D03*
X74723500Y-56555500D03*
X80249400Y-303485700D03*
%TO.N,/VariableWeights/CS263*%
X22906700Y-52251100D03*
X80347600Y-309699600D03*
X28083900Y-306193000D03*
%TO.N,/VariableWeights/CS264*%
X27250600Y-312235000D03*
X22895100Y-53169400D03*
X81102800Y-315322600D03*
D14*
%TO.N,/VariableWeights/CS265*%
X80600000Y-321500000D03*
X21400000Y-54300000D03*
D13*
%TO.N,/VariableWeights/CS266*%
X25951000Y-53285000D03*
X75343600Y-57262600D03*
X81545600Y-328219500D03*
%TO.N,/VariableWeights/CS251*%
X38709900Y-253988500D03*
X80980300Y-255981100D03*
X35430600Y-63622300D03*
%TO.N,/VariableWeights/CS252*%
X32563000Y-259966300D03*
X33074900Y-64486200D03*
X82690600Y-261353400D03*
%TO.N,/VariableWeights/CS253*%
X72495100Y-70281500D03*
X81440000Y-268671600D03*
X27501900Y-66965300D03*
%TO.N,/VariableWeights/CS254*%
X38129800Y-271921900D03*
X80748500Y-275907100D03*
X35593500Y-65449900D03*
%TO.N,/VariableWeights/CS255*%
X28176200Y-279892300D03*
X27071800Y-49919400D03*
X80932000Y-281884900D03*
%TO.N,/VariableWeights/CS256*%
X29194400Y-51223800D03*
X80744500Y-288785400D03*
X29436000Y-285870100D03*
%TO.N,/VariableWeights/CS241*%
X24600800Y-212143900D03*
X26251200Y-66714000D03*
X82094200Y-214514200D03*
%TO.N,/VariableWeights/CS242*%
X75774400Y-66239200D03*
X80696500Y-220114300D03*
X25900900Y-65580500D03*
%TO.N,/VariableWeights/CS243*%
X81407400Y-228084700D03*
X33869300Y-226040200D03*
X32899900Y-60804600D03*
%TO.N,/VariableWeights/CS244*%
X33559000Y-61454600D03*
X75378000Y-64988600D03*
X82866400Y-233881000D03*
%TO.N,/VariableWeights/CS245*%
X34496500Y-240339400D03*
X32941300Y-62542800D03*
X82925000Y-240339400D03*
%TO.N,/VariableWeights/CS246*%
X35163700Y-62368100D03*
X82925000Y-246769600D03*
X37451700Y-244025500D03*
%TO.N,/VariableWeights/CS311*%
X95911000Y-48180300D03*
X33130100Y-49358200D03*
X100271100Y-92587900D03*
%TO.N,/VariableWeights/CS312*%
X32917900Y-50395600D03*
X110076100Y-54728500D03*
X110158100Y-98533900D03*
%TO.N,/VariableWeights/CS313*%
X39050700Y-105072700D03*
X109633900Y-106536100D03*
X38820400Y-51457700D03*
%TO.N,/VariableWeights/CS314*%
X32909000Y-51869400D03*
X106702500Y-55332400D03*
X109446300Y-112513900D03*
%TO.N,/VariableWeights/CS315*%
X39872100Y-52302600D03*
X108836200Y-55048600D03*
X110932500Y-117969800D03*
%TO.N,/VariableWeights/CS316*%
X109766600Y-124469500D03*
X41281100Y-121156200D03*
X39248200Y-52978300D03*
%TO.N,/VariableWeights/CS321*%
X109128300Y-132439900D03*
X104967600Y-56721100D03*
X32877600Y-54424900D03*
%TO.N,/VariableWeights/CS322*%
X30111300Y-54733100D03*
X110021900Y-138932300D03*
X31534600Y-139282600D03*
%TO.N,/VariableWeights/CS323*%
X109128300Y-146388100D03*
X104787700Y-42821900D03*
X27077700Y-39510400D03*
%TO.N,/VariableWeights/CS324*%
X30000700Y-145151300D03*
X26155300Y-39488200D03*
X109317800Y-152564400D03*
%TO.N,/VariableWeights/CS325*%
X25690100Y-40334300D03*
X109652700Y-158430600D03*
X26105800Y-158430600D03*
%TO.N,/VariableWeights/CS326*%
X110021900Y-164778300D03*
X25736500Y-42900000D03*
X26761000Y-164778300D03*
%TO.N,/VariableWeights/CS331*%
X109968200Y-173131800D03*
X22911200Y-41898100D03*
X26369400Y-171038700D03*
%TO.N,/VariableWeights/CS332*%
X107109300Y-43561700D03*
X25676800Y-41999600D03*
X110608000Y-179677600D03*
%TO.N,/VariableWeights/CS333*%
X111700500Y-185361500D03*
X22820900Y-43373000D03*
X110754500Y-46228300D03*
%TO.N,/VariableWeights/CS334*%
X110959300Y-192535300D03*
X108869500Y-52735900D03*
X26077300Y-44765500D03*
%TO.N,/VariableWeights/CS335*%
X109275700Y-198969100D03*
X35118400Y-39034300D03*
X106630800Y-39334500D03*
%TO.N,/VariableWeights/CS336*%
X90483600Y-38042800D03*
X108470600Y-206164500D03*
X33542400Y-39684300D03*
%TO.N,/VariableWeights/CS341*%
X32879700Y-40334300D03*
X104040100Y-42138600D03*
X108114600Y-214573400D03*
%TO.N,/VariableWeights/CS342*%
X108070600Y-221103700D03*
X91813800Y-41626800D03*
X34426800Y-40984300D03*
%TO.N,/VariableWeights/CS343*%
X90355200Y-40779400D03*
X108070600Y-227893800D03*
X35985400Y-41599400D03*
%TO.N,/VariableWeights/CS344*%
X41055600Y-231788500D03*
X108823700Y-233401700D03*
X33130100Y-41959300D03*
%TO.N,/VariableWeights/CS345*%
X108470600Y-46872600D03*
X34432600Y-42958900D03*
X110138500Y-239838400D03*
%TO.N,/VariableWeights/CS346*%
X109023400Y-246310000D03*
X32914300Y-43584300D03*
X105507100Y-44760400D03*
%TO.N,/VariableWeights/CS351*%
X110827900Y-255981100D03*
X25710200Y-28149100D03*
X104314900Y-28509200D03*
%TO.N,/VariableWeights/CS352*%
X22915300Y-28799100D03*
X107784400Y-261958900D03*
X29694900Y-261919300D03*
%TO.N,/VariableWeights/CS353*%
X23682100Y-268235200D03*
X22292400Y-31032500D03*
X109025000Y-268235200D03*
%TO.N,/VariableWeights/CS354*%
X25306400Y-274146100D03*
X22917800Y-30334700D03*
X107087700Y-275907100D03*
%TO.N,/VariableWeights/CS355*%
X108899600Y-281142600D03*
X26855800Y-30817300D03*
X31312300Y-279306600D03*
%TO.N,/VariableWeights/CS356*%
X30572700Y-287198800D03*
X107784400Y-287198800D03*
X26547600Y-31842600D03*
%TO.N,/VariableWeights/CS361*%
X27937400Y-33014000D03*
X79137600Y-32957700D03*
X92056200Y-295833100D03*
%TO.N,/VariableWeights/CS362*%
X92661100Y-32369900D03*
X108725000Y-301992700D03*
X25687200Y-32699100D03*
%TO.N,/VariableWeights/CS363*%
X42392200Y-305347900D03*
X107951100Y-307975000D03*
X34832200Y-28455900D03*
%TO.N,/VariableWeights/CS364*%
X32889500Y-28773700D03*
X106619800Y-315759100D03*
X77754700Y-28822900D03*
%TO.N,/VariableWeights/CS365*%
X106619800Y-321736900D03*
X33488500Y-29423500D03*
X83052100Y-29830200D03*
%TO.N,/VariableWeights/CS366*%
X89083600Y-30375100D03*
X107555600Y-327714700D03*
X34120300Y-30099100D03*
%TO.N,/VariableWeights/CS411*%
X140236300Y-90009600D03*
X37508900Y-84015700D03*
X33464800Y-30736700D03*
%TO.N,/VariableWeights/CS412*%
X139294400Y-32809900D03*
X142870400Y-98629300D03*
X32883300Y-31399100D03*
%TO.N,/VariableWeights/CS413*%
X138340500Y-33514300D03*
X36826300Y-31858000D03*
X140876000Y-104145500D03*
%TO.N,/VariableWeights/CS414*%
X34706000Y-32699100D03*
X37729000Y-109779400D03*
X139294400Y-111107000D03*
%TO.N,/VariableWeights/CS415*%
X136436800Y-15512900D03*
X25690300Y-17146600D03*
X137859900Y-117777800D03*
%TO.N,/VariableWeights/CS416*%
X140721100Y-123883700D03*
X140519500Y-16869100D03*
X22921300Y-17766700D03*
%TO.N,/VariableWeights/CS421*%
X138966000Y-132439900D03*
X26604100Y-20484200D03*
X138966000Y-20359100D03*
%TO.N,/VariableWeights/CS422*%
X26072600Y-19622900D03*
X31388000Y-137861400D03*
X139650200Y-138089800D03*
%TO.N,/VariableWeights/CS423*%
X139650200Y-145114600D03*
X134413700Y-16241100D03*
X22917800Y-19332400D03*
%TO.N,/VariableWeights/CS424*%
X138096800Y-152458500D03*
X22897600Y-21108200D03*
X123620800Y-28751700D03*
%TO.N,/VariableWeights/CS425*%
X25301400Y-156890600D03*
X25690900Y-21014900D03*
X140597600Y-158082100D03*
%TO.N,/VariableWeights/CS426*%
X25956900Y-21942700D03*
X141232400Y-25058200D03*
X139728300Y-163853000D03*
%TO.N,/VariableWeights/CS431*%
X138063800Y-174921300D03*
X122939800Y-16869100D03*
X32883400Y-17115800D03*
%TO.N,/VariableWeights/CS432*%
X32943500Y-18025900D03*
X139380400Y-179695700D03*
X135385900Y-24259800D03*
%TO.N,/VariableWeights/CS433*%
X138302000Y-187126000D03*
X39532800Y-18406800D03*
X132543100Y-15969400D03*
%TO.N,/VariableWeights/CS434*%
X139063300Y-192946900D03*
X132000800Y-23474400D03*
X37039200Y-20813100D03*
%TO.N,/VariableWeights/CS435*%
X34999600Y-21006800D03*
X135062400Y-22930500D03*
X138555800Y-199718100D03*
%TO.N,/VariableWeights/CS436*%
X133262800Y-28106900D03*
X138439800Y-206325400D03*
X32940700Y-21003000D03*
%TO.N,/VariableWeights/CS441*%
X138665400Y-214567800D03*
X30088400Y-21163900D03*
X136373600Y-24623700D03*
%TO.N,/VariableWeights/CS442*%
X122742000Y-25053400D03*
X35388300Y-22909000D03*
X138393400Y-220871400D03*
%TO.N,/VariableWeights/CS443*%
X133042100Y-19402500D03*
X63957300Y-17494900D03*
X138701200Y-227538900D03*
%TO.N,/VariableWeights/CS444*%
X134215800Y-17618500D03*
X60552100Y-17793300D03*
X140450600Y-233969600D03*
%TO.N,/VariableWeights/CS445*%
X66778300Y-237700400D03*
X138602200Y-240370300D03*
X64316300Y-18875000D03*
%TO.N,/VariableWeights/CS446*%
X60838800Y-19454000D03*
X139325000Y-246799300D03*
X132416800Y-18629100D03*
%TO.N,/VariableWeights/CS451*%
X136531300Y-255981100D03*
X62666400Y-20762500D03*
X122169500Y-19357900D03*
%TO.N,/VariableWeights/CS452*%
X123342300Y-20586900D03*
X60419300Y-20825000D03*
X138975100Y-262328100D03*
%TO.N,/VariableWeights/CS453*%
X137724500Y-22301800D03*
X139953000Y-268767000D03*
X61187000Y-21608500D03*
%TO.N,/VariableWeights/CS454*%
X121136400Y-28851100D03*
X60125000Y-24790400D03*
X136531300Y-275907100D03*
%TO.N,/VariableWeights/CS455*%
X136531300Y-281884900D03*
X67594300Y-17575000D03*
X116590300Y-17494500D03*
%TO.N,/VariableWeights/CS456*%
X107404600Y-18249600D03*
X68227200Y-18264000D03*
X138099600Y-287437100D03*
%TO.N,/VariableWeights/CS461*%
X68885900Y-18875000D03*
X138759400Y-295414600D03*
X105981500Y-295414600D03*
%TO.N,/VariableWeights/CS462*%
X137516000Y-302695000D03*
X65280400Y-301479400D03*
X64488000Y-20161100D03*
%TO.N,/VariableWeights/CS463*%
X68731900Y-20111500D03*
X140519500Y-307820300D03*
X118171700Y-19356600D03*
%TO.N,/VariableWeights/CS464*%
X140652500Y-315775300D03*
X123345400Y-21446900D03*
X73324000Y-21416000D03*
%TO.N,/VariableWeights/CS465*%
X72437500Y-21475000D03*
X75358600Y-320346100D03*
X137525900Y-321736900D03*
%TO.N,/VariableWeights/CS466*%
X138775200Y-327681100D03*
X120175900Y-23569100D03*
X68491100Y-23735000D03*
%TO.N,/VariableWeights/CS511*%
X169088400Y-94260000D03*
X169088400Y-31333500D03*
X62759400Y-28364500D03*
%TO.N,/VariableWeights/CS512*%
X63894200Y-27511400D03*
X169610900Y-100558300D03*
X67383000Y-97798500D03*
%TO.N,/VariableWeights/CS513*%
X63545900Y-98044400D03*
X61047800Y-29755500D03*
X169814100Y-106536100D03*
%TO.N,/VariableWeights/CS514*%
X165593100Y-35651400D03*
X62406300Y-32967800D03*
X169896700Y-112317600D03*
%TO.N,/VariableWeights/CS515*%
X57427900Y-27895700D03*
X160460500Y-30172900D03*
X171100000Y-119242900D03*
%TO.N,/VariableWeights/CS516*%
X160007100Y-39659300D03*
X169335200Y-126143100D03*
X66672300Y-36729300D03*
D14*
%TO.N,/VariableWeights/CS521*%
X169700000Y-132600000D03*
X56600000Y-33200000D03*
D13*
%TO.N,/VariableWeights/CS522*%
X159092700Y-38787700D03*
X168995600Y-140340600D03*
D14*
X57966000Y-35219400D03*
D13*
%TO.N,/VariableWeights/CS523*%
X168382100Y-146388100D03*
X66440800Y-25880600D03*
X168382100Y-25690600D03*
%TO.N,/VariableWeights/CS524*%
X68731900Y-28423800D03*
X168836200Y-154358500D03*
X71161100Y-154986400D03*
%TO.N,/VariableWeights/CS525*%
X170350000Y-160112100D03*
X70726500Y-29225300D03*
X171050400Y-30700000D03*
%TO.N,/VariableWeights/CS526*%
X169528100Y-166588100D03*
X66900900Y-165135600D03*
X64057200Y-29930000D03*
%TO.N,/VariableWeights/WeightCtrlChipSel/MUX7*%
X36826300Y-16438400D03*
X39549700Y-35475000D03*
%TO.N,/VariableWeights/WeightCtrlChipSel/MUX3*%
X26085700Y-60176800D03*
X30844000Y-37337700D03*
%TO.N,/VariableWeights/WeightCtrlChipSel/MUX2*%
X27501900Y-70797500D03*
X43115400Y-38429500D03*
%TO.N,/VariableWeights/WeightCtrlChipSel/MUX1*%
X26258100Y-37900500D03*
X22299200Y-80632300D03*
%TO.N,/VariableWeights/WeightCtrlChipSel/MUX0*%
X46796800Y-58404500D03*
X43430500Y-40378500D03*
%TO.N,/VariableWeights/WeightCtrlChipSel/MUX8*%
X56767300Y-16659500D03*
X54070400Y-35475000D03*
%TD*%
D15*
%TO.N,/Neuron6_10/IN4*%
X331186400Y-187673400D02*
X331523300Y-187336500D01*
X330709900Y-187673400D02*
X331186400Y-187673400D01*
X298053400Y-188232700D02*
X330064300Y-188232700D01*
X331523200Y-186773800D02*
X334058300Y-184238700D01*
X330666700Y-187630300D02*
X330666800Y-187630300D01*
X330064300Y-188232700D02*
X330666700Y-187630300D01*
X330666800Y-187630300D02*
X330709900Y-187673400D01*
X331523300Y-186859900D02*
X331523200Y-186859800D01*
X331523200Y-186859800D02*
X331523200Y-186773800D01*
X331523300Y-187336500D02*
X331523300Y-186859900D01*
%TO.N,/Neuron6_10/IN6*%
X297062800Y-309242400D02*
X306872400Y-319052000D01*
X306872400Y-319052000D02*
X334036100Y-319052000D01*
%TO.N,/Neuron6_10/OUT*%
X386431200Y-183184900D02*
X385793800Y-183822300D01*
X385793800Y-183822400D02*
X350074000Y-183822400D01*
X385793800Y-183822300D02*
X385793800Y-183822400D01*
%TO.N,/L1_IN8*%
X229711700Y-198913300D02*
X233003000Y-195622000D01*
X172725000Y-217565000D02*
X173825000Y-217565000D01*
X173825000Y-217565000D02*
X192476700Y-198913300D01*
X192476700Y-198913300D02*
X229711700Y-198913300D01*
%TO.N,/L1_IN11*%
X172725000Y-225185000D02*
X173825000Y-225185000D01*
X211369200Y-227014400D02*
X211258700Y-226903900D01*
X210671700Y-227014400D02*
X175654400Y-227014400D01*
X211258700Y-226903900D02*
X210782200Y-226903900D01*
X175654400Y-227014400D02*
X173825000Y-225185000D01*
X227849700Y-226757500D02*
X227592800Y-227014400D01*
X227592800Y-227014400D02*
X211369200Y-227014400D01*
X210782200Y-226903900D02*
X210671700Y-227014400D01*
%TO.N,/W124*%
X146599200Y-153325400D02*
X118074600Y-153325400D01*
X117750000Y-153650000D02*
X70333600Y-153650000D01*
X52175700Y-156898100D02*
X45765400Y-156898100D01*
X54823800Y-154250000D02*
X52175700Y-156898100D01*
X118074600Y-153325400D02*
X117750000Y-153650000D01*
X207343000Y-153050000D02*
X146874600Y-153050000D01*
X70333600Y-153650000D02*
X69733600Y-154250000D01*
X146874600Y-153050000D02*
X146599200Y-153325400D01*
X69733600Y-154250000D02*
X54823800Y-154250000D01*
%TO.N,/W123*%
X67144800Y-97223300D02*
X66846500Y-97521600D01*
X53013600Y-97414400D02*
X52906400Y-97521600D01*
X210107100Y-97448200D02*
X67846200Y-97448200D01*
X211480300Y-96075000D02*
X210107100Y-97448200D01*
X67846200Y-97448200D02*
X67621300Y-97223300D01*
X67621300Y-97223300D02*
X67144800Y-97223300D01*
X63907500Y-97521600D02*
X63800300Y-97414400D01*
X63800300Y-97414400D02*
X53013600Y-97414400D01*
X66846500Y-97521600D02*
X63907500Y-97521600D01*
%TO.N,/W126*%
X213322100Y-170399800D02*
X177193800Y-170399800D01*
X176542300Y-170399800D02*
X45839300Y-170399800D01*
X177193800Y-170399800D02*
X177106300Y-170487300D01*
X176629800Y-170487300D02*
X176542300Y-170399800D01*
X177106300Y-170487300D02*
X176629800Y-170487300D01*
X214937700Y-168784200D02*
X213322100Y-170399800D01*
%TO.N,/W1212*%
X230660000Y-114637700D02*
X229148900Y-116148800D01*
X229148900Y-116148800D02*
X69745800Y-116148800D01*
%TO.N,/W121*%
X118838700Y-134050000D02*
X121505400Y-131383300D01*
X112949000Y-138275600D02*
X117174600Y-134050000D01*
X46099600Y-138275600D02*
X112949000Y-138275600D01*
X117174600Y-134050000D02*
X118838700Y-134050000D01*
X121505400Y-131383300D02*
X204020100Y-131383300D01*
%TO.N,/W122*%
X215054200Y-80161100D02*
X45448400Y-80161100D01*
%TO.N,/W1211*%
X212545400Y-156995800D02*
X152150600Y-156995800D01*
X146626000Y-162520400D02*
X67292800Y-162520400D01*
X217575200Y-151966000D02*
X212545400Y-156995800D01*
X152150600Y-156995800D02*
X146626000Y-162520400D01*
X221847300Y-151966000D02*
X217575200Y-151966000D01*
%TO.N,/W114*%
X188205700Y-110455800D02*
X52970400Y-110455800D01*
X52970400Y-110455800D02*
X47200100Y-116226100D01*
X188705000Y-110955100D02*
X188205700Y-110455800D01*
X207053300Y-110955100D02*
X188705000Y-110955100D01*
%TO.N,/W514*%
X435410100Y-71736800D02*
X188338700Y-71736800D01*
X442455400Y-64691500D02*
X435410100Y-71736800D01*
%TO.N,/W524*%
X231122000Y-108623900D02*
X234353400Y-108623900D01*
X441776400Y-99601500D02*
X442812200Y-98565700D01*
X216062500Y-109354100D02*
X217024700Y-108391900D01*
X235766100Y-108041600D02*
X235998100Y-108273600D01*
X396166200Y-99601500D02*
X441776400Y-99601500D01*
X235998100Y-108273600D02*
X236474600Y-108273600D01*
X321174200Y-108041600D02*
X327668500Y-101547300D01*
X230890000Y-108391900D02*
X231122000Y-108623900D01*
X174047500Y-108706100D02*
X174113800Y-108639800D01*
X327668500Y-101547300D02*
X394220400Y-101547300D01*
X174113800Y-108639800D02*
X176863600Y-108639800D01*
X394220400Y-101547300D02*
X396166200Y-99601500D01*
X236706600Y-108041600D02*
X321174200Y-108041600D01*
X234353400Y-108623900D02*
X234935700Y-108041600D01*
X217024700Y-108391900D02*
X230890000Y-108391900D01*
X234935700Y-108041600D02*
X235766100Y-108041600D01*
X236474600Y-108273600D02*
X236706600Y-108041600D01*
X176863600Y-108639800D02*
X177577900Y-109354100D01*
X177577900Y-109354100D02*
X216062500Y-109354100D01*
%TO.N,/W523*%
X210620300Y-150692100D02*
X213467500Y-147844900D01*
X213467500Y-147844900D02*
X224426700Y-147844900D01*
X224426700Y-147844900D02*
X228731600Y-143540000D01*
X228731600Y-143540000D02*
X328920800Y-143540000D01*
X335720000Y-136740800D02*
X433552800Y-136740800D01*
X328920800Y-143540000D02*
X335720000Y-136740800D01*
X177139600Y-150692100D02*
X210620300Y-150692100D01*
%TO.N,/W526*%
X432113600Y-83117600D02*
X383846800Y-83117600D01*
X382898500Y-83117600D02*
X283679200Y-83117600D01*
X383610900Y-82881700D02*
X383134400Y-82881700D01*
X283679200Y-83117600D02*
X283328900Y-82767300D01*
X383134400Y-82881700D02*
X382898500Y-83117600D01*
X281737400Y-81953000D02*
X176693800Y-81953000D01*
X282551700Y-82767300D02*
X281737400Y-81953000D01*
X383846800Y-83117600D02*
X383610900Y-82881700D01*
X432268600Y-82962600D02*
X432113600Y-83117600D01*
X283328900Y-82767300D02*
X282551700Y-82767300D01*
%TO.N,/W525*%
X331453700Y-85042500D02*
X331251700Y-84840500D01*
X278602800Y-84495200D02*
X190446600Y-84495200D01*
X431087300Y-85042500D02*
X331453700Y-85042500D01*
X435397200Y-80732600D02*
X431087300Y-85042500D01*
X330775200Y-84840500D02*
X330573200Y-85042500D01*
X279150100Y-85042500D02*
X278602800Y-84495200D01*
X330573200Y-85042500D02*
X279150100Y-85042500D01*
X331251700Y-84840500D02*
X330775200Y-84840500D01*
%TO.N,/W522*%
X225967000Y-139912600D02*
X181472900Y-139912600D01*
X353062500Y-118316300D02*
X337180700Y-134198100D01*
X337180700Y-134198100D02*
X334129800Y-134198100D01*
X441325600Y-118316300D02*
X353062500Y-118316300D01*
X181472900Y-139912600D02*
X178551800Y-142833700D01*
X226167800Y-140113400D02*
X225967000Y-139912600D01*
X328214500Y-140113400D02*
X226167800Y-140113400D01*
X442923200Y-116718700D02*
X441325600Y-118316300D01*
X334129800Y-134198100D02*
X328214500Y-140113400D01*
%TO.N,/W115*%
X202635600Y-68676700D02*
X211887300Y-59425000D01*
X52779100Y-68676700D02*
X202635600Y-68676700D01*
%TO.N,/W111*%
X208318900Y-90595300D02*
X68932700Y-90595300D01*
X62931000Y-96597000D02*
X46151000Y-96597000D01*
X68932700Y-90595300D02*
X62931000Y-96597000D01*
%TO.N,/W1111*%
X67537900Y-121763100D02*
X67813000Y-122038200D01*
X67813000Y-122038200D02*
X206110700Y-122038200D01*
%TO.N,/W119*%
X107339800Y-44215600D02*
X107420400Y-44135000D01*
X207464900Y-44135000D02*
X221863600Y-44135000D01*
X106631200Y-44215600D02*
X107339800Y-44215600D01*
X206815100Y-44308300D02*
X207291600Y-44308300D01*
X207291600Y-44308300D02*
X207464900Y-44135000D01*
X221863600Y-44135000D02*
X222277600Y-43721000D01*
X80015000Y-44135000D02*
X106550600Y-44135000D01*
X206641800Y-44135000D02*
X206815100Y-44308300D01*
X107420400Y-44135000D02*
X206641800Y-44135000D01*
X106550600Y-44135000D02*
X106631200Y-44215600D01*
%TO.N,/W1110*%
X206815100Y-43157900D02*
X207291600Y-43157900D01*
X107368400Y-42936400D02*
X107929800Y-43497800D01*
X222515900Y-43145800D02*
X222852800Y-43482700D01*
X106289000Y-43497800D02*
X106850400Y-42936400D01*
X221687500Y-43497800D02*
X221702400Y-43482900D01*
X206478100Y-43495000D02*
X206478100Y-43494900D01*
X222852800Y-43482800D02*
X222867800Y-43497800D01*
X221702400Y-43482900D02*
X221702400Y-43482800D01*
X70034700Y-43497800D02*
X106289000Y-43497800D01*
X207628500Y-43494800D02*
X207628500Y-43494900D01*
X206475300Y-43497800D02*
X206478100Y-43495000D01*
X222867800Y-43497800D02*
X232398000Y-43497800D01*
X69340300Y-43715700D02*
X69816800Y-43715700D01*
X222852800Y-43482700D02*
X222852800Y-43482800D01*
X207291600Y-43157900D02*
X207628500Y-43494800D01*
X106850400Y-42936400D02*
X107368400Y-42936400D01*
X69816800Y-43715700D02*
X70034700Y-43497800D01*
X222039400Y-43145800D02*
X222515900Y-43145800D01*
X69122400Y-43497800D02*
X69340300Y-43715700D01*
X67794400Y-43497800D02*
X69122400Y-43497800D01*
X221702400Y-43482800D02*
X222039400Y-43145800D01*
X207631400Y-43497800D02*
X221687500Y-43497800D01*
X206478100Y-43494900D02*
X206815100Y-43157900D01*
X207628500Y-43494900D02*
X207631400Y-43497800D01*
X107929800Y-43497800D02*
X206475300Y-43497800D01*
%TO.N,/W135*%
X155971400Y-196913300D02*
X155971400Y-196913200D01*
X88827800Y-196943700D02*
X88827800Y-196943600D01*
X74083700Y-196928500D02*
X69005500Y-202006700D01*
X154821000Y-196913400D02*
X154805900Y-196928500D01*
X155634500Y-196576300D02*
X155158000Y-196576300D01*
X154821000Y-196913300D02*
X154821000Y-196913400D01*
X68558400Y-202453800D02*
X66277200Y-204735000D01*
X89978200Y-196943800D02*
X89641300Y-197280700D01*
X89641300Y-197280700D02*
X89164800Y-197280700D01*
X89993400Y-196928500D02*
X89978200Y-196943700D01*
X155158000Y-196576300D02*
X154821000Y-196913300D01*
X89978200Y-196943700D02*
X89978200Y-196943800D01*
X88827800Y-196943600D02*
X88812700Y-196928500D01*
X155986600Y-196928500D02*
X155971400Y-196913300D01*
X66277200Y-204735000D02*
X45880600Y-204735000D01*
X69005500Y-202006700D02*
X68895400Y-202006700D01*
X206324800Y-196928500D02*
X155986600Y-196928500D01*
X68558400Y-202343700D02*
X68558400Y-202453800D01*
X68895400Y-202006700D02*
X68558400Y-202343700D01*
X155971400Y-196913200D02*
X155634500Y-196576300D01*
X89164800Y-197280700D02*
X88827800Y-196943700D01*
X154805900Y-196928500D02*
X89993400Y-196928500D01*
X88812700Y-196928500D02*
X74083700Y-196928500D01*
%TO.N,/W1311*%
X109659100Y-198043600D02*
X73671900Y-198043600D01*
X222277600Y-197971500D02*
X222121000Y-198128100D01*
X222121000Y-198128100D02*
X109743600Y-198128100D01*
X73671900Y-198043600D02*
X69133600Y-202581900D01*
X109743600Y-198128100D02*
X109659100Y-198043600D01*
%TO.N,/W1310*%
X154756400Y-196482500D02*
X89993400Y-196482500D01*
X89164800Y-196130300D02*
X88827800Y-196467300D01*
X88812700Y-196482500D02*
X67080900Y-196482500D01*
X155779600Y-196226000D02*
X155012900Y-196226000D01*
X205957400Y-196482500D02*
X156036100Y-196482500D01*
X89641300Y-196130300D02*
X89164800Y-196130300D01*
X206692300Y-196482500D02*
X206563100Y-196353300D01*
X89978200Y-196467200D02*
X89641300Y-196130300D01*
X206563100Y-196353300D02*
X206086600Y-196353300D01*
X206086600Y-196353300D02*
X205957400Y-196482500D01*
X88827800Y-196467300D02*
X88827800Y-196467400D01*
X88827800Y-196467400D02*
X88812700Y-196482500D01*
X156036100Y-196482500D02*
X155779600Y-196226000D01*
X89993400Y-196482500D02*
X89978200Y-196467300D01*
X89978200Y-196467300D02*
X89978200Y-196467200D01*
X155012900Y-196226000D02*
X154756400Y-196482500D01*
X220011600Y-196482500D02*
X206692300Y-196482500D01*
%TO.N,/W138*%
X203225600Y-130606700D02*
X74382900Y-130606700D01*
X226896100Y-130359700D02*
X203472600Y-130359700D01*
X226983700Y-130447300D02*
X226896100Y-130359700D01*
X203472600Y-130359700D02*
X203225600Y-130606700D01*
%TO.N,/W214*%
X109705400Y-114563500D02*
X90123800Y-114563500D01*
X274797800Y-112037500D02*
X170430100Y-112037500D01*
X170135000Y-111742400D02*
X169658500Y-111742400D01*
X119300000Y-114541400D02*
X109727500Y-114541400D01*
X119307000Y-114534400D02*
X119300000Y-114541400D01*
X119790500Y-114541400D02*
X119783500Y-114534400D01*
X109727500Y-114541400D02*
X109705400Y-114563500D01*
X165868600Y-112037500D02*
X163364700Y-114541400D01*
X163364700Y-114541400D02*
X119790500Y-114541400D01*
X169363400Y-112037500D02*
X165868600Y-112037500D01*
X170430100Y-112037500D02*
X170135000Y-111742400D01*
X119783500Y-114534400D02*
X119307000Y-114534400D01*
X90123800Y-114563500D02*
X90101700Y-114541400D01*
X169658500Y-111742400D02*
X169363400Y-112037500D01*
%TO.N,/W215*%
X252855600Y-116499100D02*
X95261100Y-116499100D01*
X90877400Y-120882800D02*
X90065700Y-120882800D01*
X256454700Y-112900000D02*
X252855600Y-116499100D01*
X273836300Y-112900000D02*
X256454700Y-112900000D01*
X95261100Y-116499100D02*
X90877400Y-120882800D01*
%TO.N,/W212*%
X160582300Y-39897600D02*
X160582300Y-39847600D01*
X160245400Y-40234500D02*
X160582300Y-39897600D01*
X161819000Y-38610900D02*
X281667700Y-38610900D01*
X281667700Y-38610900D02*
X285476100Y-34802500D01*
X160088900Y-40341000D02*
X160195400Y-40234500D01*
X160582300Y-39847600D02*
X161819000Y-38610900D01*
X160195400Y-40234500D02*
X160245400Y-40234500D01*
X101076800Y-40341000D02*
X160088900Y-40341000D01*
%TO.N,/W224*%
X104564200Y-130086500D02*
X93689500Y-130086500D01*
X93689500Y-130086500D02*
X93578000Y-129975000D01*
X285789700Y-120567900D02*
X280370400Y-125987200D01*
X230842400Y-129746700D02*
X147079800Y-129746700D01*
X104734100Y-130256400D02*
X104564200Y-130086500D01*
X146740000Y-130086500D02*
X105380500Y-130086500D01*
X280370400Y-125987200D02*
X234601900Y-125987200D01*
X234601900Y-125987200D02*
X230842400Y-129746700D01*
X105210600Y-130256400D02*
X104734100Y-130256400D01*
X105380500Y-130086500D02*
X105210600Y-130256400D01*
X147079800Y-129746700D02*
X146740000Y-130086500D01*
%TO.N,/W223*%
X104972300Y-129681200D02*
X123035900Y-129681200D01*
X225519600Y-127204800D02*
X227716800Y-125007600D01*
X123035900Y-129681200D02*
X124641400Y-128075700D01*
X275788200Y-125007600D02*
X280311500Y-120484300D01*
X124641400Y-128075700D02*
X176791600Y-128075700D01*
X177662500Y-127204800D02*
X225519600Y-127204800D01*
X176791600Y-128075700D02*
X177662500Y-127204800D01*
X227716800Y-125007600D02*
X275788200Y-125007600D01*
%TO.N,/W222*%
X148916300Y-135325400D02*
X117018800Y-135325400D01*
X275969400Y-131819100D02*
X204534700Y-131819100D01*
X109787100Y-142557100D02*
X89639500Y-142557100D01*
X204534700Y-131819100D02*
X202711100Y-133642700D01*
X117018800Y-135325400D02*
X109787100Y-142557100D01*
X202711100Y-133642700D02*
X150599000Y-133642700D01*
X150599000Y-133642700D02*
X148916300Y-135325400D01*
%TO.N,/W221*%
X95515800Y-130957000D02*
X203561700Y-130957000D01*
X204704800Y-131080700D02*
X269225000Y-131080700D01*
X203763500Y-130755200D02*
X204379300Y-130755200D01*
X203561700Y-130957000D02*
X203763500Y-130755200D01*
X204379300Y-130755200D02*
X204704800Y-131080700D01*
X90082800Y-136390000D02*
X95515800Y-130957000D01*
%TO.N,/W236*%
X218950000Y-156553500D02*
X217982400Y-157521100D01*
X229375300Y-156553500D02*
X218950000Y-156553500D01*
X139966600Y-163277800D02*
X139490100Y-163277800D01*
X140307400Y-163618700D02*
X140303500Y-163614800D01*
X140303500Y-163614700D02*
X139966600Y-163277800D01*
X139149300Y-163618700D02*
X98643400Y-163618700D01*
X285475300Y-154328600D02*
X282969600Y-156834300D01*
X146053000Y-163618700D02*
X140307400Y-163618700D01*
X229656100Y-156834300D02*
X229375300Y-156553500D01*
X282969600Y-156834300D02*
X229656100Y-156834300D01*
X217982400Y-157521100D02*
X152150600Y-157521100D01*
X139153100Y-163614800D02*
X139153100Y-163614900D01*
X152150600Y-157521100D02*
X146053000Y-163618700D01*
X140303500Y-163614800D02*
X140303500Y-163614700D01*
X139153100Y-163614900D02*
X139149300Y-163618700D01*
X139490100Y-163277800D02*
X139153100Y-163614800D01*
%TO.N,/W244*%
X140212400Y-233394400D02*
X139875400Y-233731400D01*
X136635600Y-237387000D02*
X89403000Y-237387000D01*
X139875400Y-234147200D02*
X136635600Y-237387000D01*
X140801600Y-233507100D02*
X140688900Y-233394400D01*
X280341200Y-222875900D02*
X269710000Y-233507100D01*
X139875400Y-233731400D02*
X139875400Y-234147200D01*
X269710000Y-233507100D02*
X140801600Y-233507100D01*
X140688900Y-233394400D02*
X140212400Y-233394400D01*
%TO.N,/W246*%
X89403000Y-250679800D02*
X89551600Y-250828400D01*
X89551600Y-250828400D02*
X272670100Y-250828400D01*
%TO.N,/W242*%
X112077700Y-190183000D02*
X112099000Y-190161700D01*
X116697000Y-190161700D02*
X116718300Y-190183000D01*
X116718300Y-190183000D02*
X117194800Y-190183000D01*
X117216100Y-190161700D02*
X277817700Y-190161700D01*
X111601200Y-190183000D02*
X112077700Y-190183000D01*
X117194800Y-190183000D02*
X117216100Y-190161700D01*
X112099000Y-190161700D02*
X116697000Y-190161700D01*
X91970400Y-190161700D02*
X111579900Y-190161700D01*
X111579900Y-190161700D02*
X111601200Y-190183000D01*
%TO.N,/W241*%
X108700500Y-198730900D02*
X108700500Y-198755100D01*
X232356000Y-194724100D02*
X228517100Y-198563000D01*
X109514000Y-198393900D02*
X109037500Y-198393900D01*
X274878600Y-194724100D02*
X232356000Y-194724100D01*
X109683100Y-198563000D02*
X109514000Y-198393900D01*
X280031900Y-189570800D02*
X274878600Y-194724100D01*
X108700500Y-198755100D02*
X89403000Y-218052600D01*
X228517100Y-198563000D02*
X109683100Y-198563000D01*
X109037500Y-198393900D02*
X108700500Y-198730900D01*
%TO.N,/W255*%
X234180100Y-271981800D02*
X233868300Y-271670000D01*
X280009600Y-258607900D02*
X266947500Y-271670000D01*
X156198500Y-271670000D02*
X143945500Y-283923000D01*
X234656600Y-271981800D02*
X234180100Y-271981800D01*
X229193200Y-271670000D02*
X229139800Y-271616600D01*
X143945500Y-283923000D02*
X90704600Y-283923000D01*
X234968400Y-271670000D02*
X234656600Y-271981800D01*
X228609900Y-271670000D02*
X156198500Y-271670000D01*
X266947500Y-271670000D02*
X234968400Y-271670000D01*
X233868300Y-271670000D02*
X229193200Y-271670000D01*
X228663300Y-271616600D02*
X228609900Y-271670000D01*
X229139800Y-271616600D02*
X228663300Y-271616600D01*
%TO.N,/W252*%
X228891500Y-242999500D02*
X228816200Y-243074800D01*
X282516300Y-243074800D02*
X229443300Y-243074800D01*
X228816200Y-243074800D02*
X93980700Y-243074800D01*
X229368000Y-242999500D02*
X228891500Y-242999500D01*
X229443300Y-243074800D02*
X229368000Y-242999500D01*
X283176100Y-242415000D02*
X282516300Y-243074800D01*
X93980700Y-243074800D02*
X93241600Y-242335700D01*
%TO.N,/W264*%
X278630200Y-324075700D02*
X279692100Y-325137600D01*
X279692100Y-325137600D02*
X283765700Y-325137600D01*
X92728600Y-324075700D02*
X278630200Y-324075700D01*
X88017000Y-319364100D02*
X92728600Y-324075700D01*
%TO.N,/W263*%
X91682700Y-314861200D02*
X89308300Y-312486800D01*
X279575900Y-323432100D02*
X279225600Y-323081800D01*
X149547300Y-323081800D02*
X141326700Y-314861200D01*
X279225600Y-323081800D02*
X149547300Y-323081800D01*
X141326700Y-314861200D02*
X91682700Y-314861200D01*
%TO.N,/W266*%
X146263600Y-310998900D02*
X146069200Y-311193300D01*
X285464500Y-307871800D02*
X221114600Y-307871800D01*
X113055300Y-312028300D02*
X89663300Y-312028300D01*
X88953400Y-312028300D02*
X88496500Y-312028300D01*
X219775000Y-309610500D02*
X219375900Y-309610500D01*
X217793100Y-311193300D02*
X146934500Y-311193300D01*
X221114600Y-307871800D02*
X220111900Y-308874500D01*
X146934500Y-311193300D02*
X146740100Y-310998900D01*
X219375900Y-309610500D02*
X217793100Y-311193300D01*
X220111900Y-308874500D02*
X220111900Y-309273600D01*
X146740100Y-310998900D02*
X146263600Y-310998900D01*
X220111900Y-309273600D02*
X219775000Y-309610500D01*
X89070100Y-311911600D02*
X88953400Y-312028300D01*
X89663300Y-312028300D02*
X89546600Y-311911600D01*
X89546600Y-311911600D02*
X89070100Y-311911600D01*
X113890300Y-311193300D02*
X113055300Y-312028300D01*
X146069200Y-311193300D02*
X113890300Y-311193300D01*
%TO.N,/W261*%
X227792300Y-292596900D02*
X227819200Y-292623800D01*
X228996600Y-292596900D02*
X280086800Y-292596900D01*
X88277500Y-299335000D02*
X94377100Y-299335000D01*
X228156200Y-292960900D02*
X228632700Y-292960900D01*
X227819200Y-292623900D02*
X228156200Y-292960900D01*
X227819200Y-292623800D02*
X227819200Y-292623900D01*
X228969600Y-292623900D02*
X228996600Y-292596900D01*
X228632700Y-292960900D02*
X228969600Y-292624000D01*
X228969600Y-292624000D02*
X228969600Y-292623900D01*
X94377100Y-299335000D02*
X101115200Y-292596900D01*
X101115200Y-292596900D02*
X227792300Y-292596900D01*
%TO.N,/W313*%
X149910400Y-108776700D02*
X149433900Y-108776700D01*
X118365000Y-109003800D02*
X117244000Y-107882800D01*
X325248300Y-108623900D02*
X235389200Y-108623900D01*
X121829300Y-109003800D02*
X118365000Y-109003800D01*
X174563300Y-109003800D02*
X174285800Y-109281300D01*
X230744900Y-108742200D02*
X217248800Y-108742200D01*
X230976900Y-108974200D02*
X230744900Y-108742200D01*
X217248800Y-108742200D02*
X216286600Y-109704400D01*
X122860800Y-109003800D02*
X122583300Y-109281300D01*
X235038900Y-108974200D02*
X230976900Y-108974200D01*
X122583300Y-109281300D02*
X122106800Y-109281300D01*
X149206800Y-109003800D02*
X122860800Y-109003800D01*
X235389200Y-108623900D02*
X235038900Y-108974200D01*
X122106800Y-109281300D02*
X121829300Y-109003800D01*
X216286600Y-109704400D02*
X177287800Y-109704400D01*
X149433900Y-108776700D02*
X149206800Y-109003800D01*
X173809300Y-109281300D02*
X173531800Y-109003800D01*
X176587200Y-109003800D02*
X174563300Y-109003800D01*
X174285800Y-109281300D02*
X173809300Y-109281300D01*
X150137500Y-109003800D02*
X149910400Y-108776700D01*
X177287800Y-109704400D02*
X176587200Y-109003800D01*
X173531800Y-109003800D02*
X150137500Y-109003800D01*
%TO.N,/W316*%
X330975600Y-56662900D02*
X337162200Y-50476300D01*
X184668100Y-56854300D02*
X185313200Y-57499400D01*
X129842700Y-56854300D02*
X184668100Y-56854300D01*
X212860300Y-57499400D02*
X213696800Y-56662900D01*
X213696800Y-56662900D02*
X330975600Y-56662900D01*
X185313200Y-57499400D02*
X212860300Y-57499400D01*
%TO.N,/W315*%
X118434900Y-120965300D02*
X122550700Y-116849500D01*
X258148900Y-116849500D02*
X260491900Y-114506500D01*
X260491900Y-114506500D02*
X323976700Y-114506500D01*
X122550700Y-116849500D02*
X258148900Y-116849500D01*
X117375400Y-120965300D02*
X118434900Y-120965300D01*
%TO.N,/W312*%
X233449200Y-90595300D02*
X325651300Y-90595300D01*
X159024100Y-101928900D02*
X169889600Y-101928900D01*
X158723600Y-102229400D02*
X159024100Y-101928900D01*
X169889600Y-101928900D02*
X172566100Y-99252400D01*
X224792100Y-99252400D02*
X233449200Y-90595300D01*
X172566100Y-99252400D02*
X224792100Y-99252400D01*
X158247100Y-102229400D02*
X158723600Y-102229400D01*
X157946600Y-101928900D02*
X158247100Y-102229400D01*
X118373100Y-101928900D02*
X157946600Y-101928900D01*
%TO.N,/W311*%
X204944700Y-94925300D02*
X210668900Y-89201100D01*
X117389600Y-95163400D02*
X117627700Y-94925300D01*
X210668900Y-89201100D02*
X328430100Y-89201100D01*
X117627700Y-94925300D02*
X204944700Y-94925300D01*
%TO.N,/W323*%
X204565200Y-138933300D02*
X211128800Y-132369700D01*
X132134100Y-138933300D02*
X204565200Y-138933300D01*
X275731200Y-132394300D02*
X276207700Y-132394300D01*
X276232300Y-132369700D02*
X318169800Y-132369700D01*
X276207700Y-132394300D02*
X276232300Y-132369700D01*
X275706600Y-132369700D02*
X275731200Y-132394300D01*
X211128800Y-132369700D02*
X275706600Y-132369700D01*
X123213900Y-147853500D02*
X132134100Y-138933300D01*
X318169800Y-132369700D02*
X332047800Y-118491700D01*
%TO.N,/W326*%
X148061600Y-165925400D02*
X209523600Y-165925400D01*
X247618300Y-165257800D02*
X247968700Y-165608200D01*
X145757100Y-168229900D02*
X148061600Y-165925400D01*
X210191200Y-165257800D02*
X247618300Y-165257800D01*
X117267300Y-168229900D02*
X145757100Y-168229900D01*
X209523600Y-165925400D02*
X210191200Y-165257800D01*
X247968700Y-165608200D02*
X327879400Y-165608200D01*
%TO.N,/W325*%
X122397700Y-108653400D02*
X122345000Y-108706100D01*
X172975400Y-108426400D02*
X149288800Y-108426400D01*
X177753000Y-109003800D02*
X176807800Y-108058600D01*
X173343200Y-108058600D02*
X172975400Y-108426400D01*
X231035100Y-108041600D02*
X216879600Y-108041600D01*
X234265000Y-108041600D02*
X231975600Y-108041600D01*
X315545300Y-103058500D02*
X268579000Y-103058500D01*
X239248100Y-103058500D02*
X234265000Y-108041600D01*
X215917400Y-109003800D02*
X177753000Y-109003800D01*
X317637000Y-100966800D02*
X315545300Y-103058500D01*
X231267100Y-108273600D02*
X231035100Y-108041600D01*
X267615900Y-103058500D02*
X239248100Y-103058500D01*
X268579000Y-103058500D02*
X268335700Y-102815200D01*
X231743600Y-108273600D02*
X231267100Y-108273600D01*
X149061800Y-108653400D02*
X122397700Y-108653400D01*
X216879600Y-108041600D02*
X215917400Y-109003800D01*
X267859200Y-102815200D02*
X267615900Y-103058500D01*
X231975600Y-108041600D02*
X231743600Y-108273600D01*
X176807800Y-108058600D02*
X173343200Y-108058600D01*
X331795000Y-100966800D02*
X317637000Y-100966800D01*
X268335700Y-102815200D02*
X267859200Y-102815200D01*
X149288800Y-108426400D02*
X149061800Y-108653400D01*
%TO.N,/W322*%
X119860600Y-83210600D02*
X119939600Y-83131600D01*
X283965400Y-84074500D02*
X337935400Y-84074500D01*
X280916800Y-83271000D02*
X281270400Y-82917400D01*
X281270400Y-82917400D02*
X282206300Y-82917400D01*
X223587000Y-83131600D02*
X223726400Y-83271000D01*
X223726400Y-83271000D02*
X280916800Y-83271000D01*
X119939600Y-83131600D02*
X223587000Y-83131600D01*
X283183600Y-83292700D02*
X283965400Y-84074500D01*
X282581600Y-83292700D02*
X283183600Y-83292700D01*
X282206300Y-82917400D02*
X282581600Y-83292700D01*
%TO.N,/W321*%
X277954400Y-84867300D02*
X278502800Y-85415700D01*
X278502800Y-85415700D02*
X331013400Y-85415700D01*
X119860600Y-88602700D02*
X195398400Y-88602700D01*
X199133800Y-84867300D02*
X277954400Y-84867300D01*
X195398400Y-88602700D02*
X199133800Y-84867300D01*
%TO.N,/W334*%
X327430100Y-171422500D02*
X328296900Y-170555700D01*
X121922900Y-173216700D02*
X135965000Y-173216700D01*
X135965000Y-173216700D02*
X137759200Y-171422500D01*
X137759200Y-171422500D02*
X327430100Y-171422500D01*
%TO.N,/W336*%
X120128700Y-151615400D02*
X221063100Y-151615400D01*
X221337900Y-151340600D02*
X230797300Y-151340600D01*
X232219200Y-149918700D02*
X335192900Y-149918700D01*
X230797300Y-151340600D02*
X232219200Y-149918700D01*
X119791100Y-151277800D02*
X120128700Y-151615400D01*
X221063100Y-151615400D02*
X221337900Y-151340600D01*
%TO.N,/W332*%
X143194800Y-171772800D02*
X329873700Y-171772800D01*
X116750300Y-182608200D02*
X132359400Y-182608200D01*
X132359400Y-182608200D02*
X143194800Y-171772800D01*
%TO.N,/W331*%
X216224100Y-168743500D02*
X214129900Y-170837700D01*
X121347700Y-172978500D02*
X121347700Y-173454900D01*
X121347800Y-173455000D02*
X121347800Y-173496600D01*
X122182100Y-172662300D02*
X122182000Y-172662300D01*
X121684700Y-172641500D02*
X121347700Y-172978500D01*
X118314400Y-176530000D02*
X116807200Y-176530000D01*
X214129900Y-170837700D02*
X124006700Y-170837700D01*
X227062500Y-168996200D02*
X226809800Y-168743500D01*
X121347700Y-173454900D02*
X121347800Y-173455000D01*
X122182000Y-172662300D02*
X122161200Y-172641500D01*
X226809800Y-168743500D02*
X216224100Y-168743500D01*
X124006700Y-170837700D02*
X122182100Y-172662300D01*
X331124100Y-168996200D02*
X227062500Y-168996200D01*
X121347800Y-173496600D02*
X118314400Y-176530000D01*
X122161200Y-172641500D02*
X121684700Y-172641500D01*
%TO.N,/W342*%
X291872100Y-188595200D02*
X292159400Y-188882500D01*
X149918000Y-188595200D02*
X291872100Y-188595200D01*
X116956500Y-189607800D02*
X148905400Y-189607800D01*
X292159400Y-188882500D02*
X334530900Y-188882500D01*
X334530900Y-188882500D02*
X337173300Y-186240100D01*
X148905400Y-189607800D02*
X149918000Y-188595200D01*
%TO.N,/W341*%
X138540300Y-186550800D02*
X138063800Y-186550800D01*
X284024900Y-187098200D02*
X283444100Y-187679000D01*
X137774100Y-186840500D02*
X119983500Y-186840500D01*
X138063800Y-186550800D02*
X137774100Y-186840500D01*
X283444100Y-187679000D02*
X213593700Y-187679000D01*
X138830000Y-186840500D02*
X138540300Y-186550800D01*
X330948100Y-187098200D02*
X284024900Y-187098200D01*
X213593700Y-187679000D02*
X212755200Y-186840500D01*
X212755200Y-186840500D02*
X138830000Y-186840500D01*
%TO.N,/W351*%
X288577400Y-240405900D02*
X274659400Y-254323900D01*
X139657400Y-254323900D02*
X135521100Y-258460200D01*
X274659400Y-254323900D02*
X139657400Y-254323900D01*
X135521100Y-258460200D02*
X115453900Y-258460200D01*
X331661900Y-240405900D02*
X288577400Y-240405900D01*
%TO.N,/W364*%
X115147000Y-318056800D02*
X143934400Y-318056800D01*
X143934400Y-318056800D02*
X149484700Y-323607100D01*
X149484700Y-323607100D02*
X278803800Y-323607100D01*
X280758100Y-324075700D02*
X282161100Y-322672700D01*
X282161100Y-322672700D02*
X332028000Y-322672700D01*
X278803800Y-323607100D02*
X279272400Y-324075700D01*
X279272400Y-324075700D02*
X280758100Y-324075700D01*
%TO.N,/W363*%
X219332400Y-319489000D02*
X234564700Y-319489000D01*
X235820000Y-320744300D02*
X331685700Y-320744300D01*
X234564700Y-319489000D02*
X235820000Y-320744300D01*
X214602000Y-320159000D02*
X218662400Y-320159000D01*
X146934500Y-311954900D02*
X206397900Y-311954900D01*
X331685700Y-320744300D02*
X331774200Y-320832800D01*
X146069200Y-311954900D02*
X146263600Y-312149300D01*
X206397900Y-311954900D02*
X214602000Y-320159000D01*
X115147000Y-311954900D02*
X146069200Y-311954900D01*
X218662400Y-320159000D02*
X219332400Y-319489000D01*
X146740100Y-312149300D02*
X146934500Y-311954900D01*
X146263600Y-312149300D02*
X146740100Y-312149300D01*
%TO.N,/W362*%
X312251500Y-305624600D02*
X329982100Y-287894000D01*
X115176300Y-305624600D02*
X312251500Y-305624600D01*
%TO.N,/W413*%
X375974300Y-99356000D02*
X375768300Y-99150000D01*
X291071300Y-102250300D02*
X214739900Y-102250300D01*
X211210800Y-105779400D02*
X173062500Y-105779400D01*
X170959100Y-107882800D02*
X148495900Y-107882800D01*
X375768300Y-99150000D02*
X294171600Y-99150000D01*
X214739900Y-102250300D02*
X211210800Y-105779400D01*
X173062500Y-105779400D02*
X170959100Y-107882800D01*
X377817400Y-99356000D02*
X375974300Y-99356000D01*
X294171600Y-99150000D02*
X291071300Y-102250300D01*
%TO.N,/W415*%
X284314100Y-57499400D02*
X213531000Y-57499400D01*
X284912600Y-58097900D02*
X284314100Y-57499400D01*
X213069700Y-57960700D02*
X157859700Y-57960700D01*
X347032600Y-46758100D02*
X335692800Y-58097900D01*
X335692800Y-58097900D02*
X284912600Y-58097900D01*
X383468300Y-46758100D02*
X347032600Y-46758100D01*
X213531000Y-57499400D02*
X213069700Y-57960700D01*
%TO.N,/W412*%
X376383000Y-39316700D02*
X384257000Y-31442700D01*
X158447500Y-41982400D02*
X159614900Y-40815000D01*
X159614900Y-40815000D02*
X217805200Y-40815000D01*
X384257000Y-31442700D02*
X388913700Y-31442700D01*
X217805200Y-40815000D02*
X219303500Y-39316700D01*
X219303500Y-39316700D02*
X376383000Y-39316700D01*
%TO.N,/W424*%
X387913600Y-117844200D02*
X389258700Y-116499100D01*
X224261000Y-129396400D02*
X228299400Y-125358000D01*
X228299400Y-125358000D02*
X280009500Y-125358000D01*
X280009500Y-125358000D02*
X287523300Y-117844200D01*
X287523300Y-117844200D02*
X387913600Y-117844200D01*
X146360900Y-129396400D02*
X224261000Y-129396400D01*
%TO.N,/W426*%
X214560500Y-168190700D02*
X214671300Y-168079900D01*
X146987000Y-168079900D02*
X213973200Y-168079900D01*
X214084000Y-168190700D02*
X214560500Y-168190700D01*
X213973200Y-168079900D02*
X214084000Y-168190700D01*
X214671300Y-168079900D02*
X377547400Y-168079900D01*
X377547400Y-168079900D02*
X386862000Y-158765300D01*
%TO.N,/W425*%
X288101100Y-101724900D02*
X180721500Y-101724900D01*
X378249800Y-98974900D02*
X378055700Y-98780800D01*
X378055700Y-98780800D02*
X377579200Y-98780800D01*
X381511500Y-98974900D02*
X378249800Y-98974900D01*
X377385100Y-98974900D02*
X376263600Y-98974900D01*
X377579200Y-98780800D02*
X377385100Y-98974900D01*
X376088400Y-98799700D02*
X291026300Y-98799700D01*
X376263600Y-98974900D02*
X376088400Y-98799700D01*
X179047900Y-103080000D02*
X154478200Y-103080000D01*
X179620500Y-102825900D02*
X179302000Y-102825900D01*
X180721500Y-101724900D02*
X179620500Y-102825900D01*
X291026300Y-98799700D02*
X288101100Y-101724900D01*
X179302000Y-102825900D02*
X179047900Y-103080000D01*
%TO.N,/W422*%
X387164800Y-84692200D02*
X331598800Y-84692200D01*
X331396800Y-84490200D02*
X330630100Y-84490200D01*
X330630100Y-84490200D02*
X330428100Y-84692200D01*
X387827300Y-84029700D02*
X387164800Y-84692200D01*
X281269700Y-83760800D02*
X150961800Y-83760800D01*
X282201100Y-84692200D02*
X281269700Y-83760800D01*
X330428100Y-84692200D02*
X282201100Y-84692200D01*
X331598800Y-84692200D02*
X331396800Y-84490200D01*
%TO.N,/W434*%
X252430600Y-175195900D02*
X329914400Y-175195900D01*
X335616700Y-169493600D02*
X381454200Y-169493600D01*
X245981200Y-181645300D02*
X252430600Y-175195900D01*
X381454200Y-169493600D02*
X383303600Y-167644200D01*
X158466400Y-181645300D02*
X245981200Y-181645300D01*
X388572200Y-167644200D02*
X389234700Y-168306700D01*
X383303600Y-167644200D02*
X388572200Y-167644200D01*
X329914400Y-175195900D02*
X335616700Y-169493600D01*
%TO.N,/W433*%
X158718000Y-182207200D02*
X274534900Y-182207200D01*
X158214900Y-182207200D02*
X158228200Y-182220500D01*
X274534900Y-182207200D02*
X280628500Y-176113600D01*
X155396200Y-182207200D02*
X158214900Y-182207200D01*
X332554700Y-173631700D02*
X378457400Y-173631700D01*
X280628500Y-176113600D02*
X330072800Y-176113600D01*
X158704700Y-182220500D02*
X158718000Y-182207200D01*
X330072800Y-176113600D02*
X332554700Y-173631700D01*
X378457400Y-173631700D02*
X383782400Y-168306700D01*
X158228200Y-182220500D02*
X158704700Y-182220500D01*
%TO.N,/W435*%
X380896200Y-152964600D02*
X345263400Y-152964600D01*
X345263400Y-152964600D02*
X342937100Y-155290900D01*
X383487500Y-150373300D02*
X380896200Y-152964600D01*
X277402600Y-164907500D02*
X155142000Y-164907500D01*
X287019200Y-155290900D02*
X277402600Y-164907500D01*
X342937100Y-155290900D02*
X287019200Y-155290900D01*
%TO.N,/W432*%
X371017600Y-183075400D02*
X286194900Y-183075400D01*
X286194900Y-183075400D02*
X285086100Y-184184200D01*
X285086100Y-184184200D02*
X146079800Y-184184200D01*
%TO.N,/W431*%
X336706700Y-134672100D02*
X338881200Y-134672100D01*
X176551300Y-148380700D02*
X182648100Y-142283900D01*
X340301700Y-133251600D02*
X383471100Y-133251600D01*
X338881200Y-134672100D02*
X340301700Y-133251600D01*
X182648100Y-142283900D02*
X329094900Y-142283900D01*
X329094900Y-142283900D02*
X336706700Y-134672100D01*
X158466400Y-148380700D02*
X176551300Y-148380700D01*
%TO.N,/W445*%
X146344400Y-239767500D02*
X345855900Y-239767500D01*
X345855900Y-239767500D02*
X383442500Y-202180900D01*
%TO.N,/W442*%
X148595500Y-218835000D02*
X187152500Y-218835000D01*
X388241000Y-185556900D02*
X388924200Y-186240100D01*
X147206600Y-220223900D02*
X148595500Y-218835000D01*
X204774000Y-201213500D02*
X339079500Y-201213500D01*
X339079500Y-201213500D02*
X354736100Y-185556900D01*
X187152500Y-218835000D02*
X204774000Y-201213500D01*
X354736100Y-185556900D02*
X388241000Y-185556900D01*
%TO.N,/W452*%
X222541600Y-255149100D02*
X321338600Y-255149100D01*
X154206800Y-265314500D02*
X212376200Y-265314500D01*
X212376200Y-265314500D02*
X222541600Y-255149100D01*
X335075100Y-241412600D02*
X383553900Y-241412600D01*
X383553900Y-241412600D02*
X388911400Y-236055100D01*
X321338600Y-255149100D02*
X335075100Y-241412600D01*
%TO.N,/W451*%
X310002700Y-241031300D02*
X378598400Y-241031300D01*
X145576000Y-259649900D02*
X150479100Y-254746800D01*
X296287200Y-254746800D02*
X310002700Y-241031300D01*
X378598400Y-241031300D02*
X383473600Y-236156100D01*
X150479100Y-254746800D02*
X296287200Y-254746800D01*
%TO.N,/W464*%
X233575900Y-319839300D02*
X233099400Y-319839300D01*
X331228100Y-321100100D02*
X235505100Y-321100100D01*
X389219200Y-321791300D02*
X388528000Y-321100100D01*
X211907300Y-318135000D02*
X145484900Y-318135000D01*
X331536000Y-321408000D02*
X331228100Y-321100100D01*
X233025400Y-319913300D02*
X219491000Y-319913300D01*
X233649900Y-319913300D02*
X233575900Y-319839300D01*
X332012500Y-321408000D02*
X331536000Y-321408000D01*
X219491000Y-319913300D02*
X218895000Y-320509300D01*
X218895000Y-320509300D02*
X214281600Y-320509300D01*
X332320400Y-321100100D02*
X332012500Y-321408000D01*
X234318300Y-319913300D02*
X233649900Y-319913300D01*
X214281600Y-320509300D02*
X211907300Y-318135000D01*
X235505100Y-321100100D02*
X234318300Y-319913300D01*
X233099400Y-319839300D02*
X233025400Y-319913300D01*
X388528000Y-321100100D02*
X332320400Y-321100100D01*
%TO.N,/W463*%
X214938500Y-313554500D02*
X212958100Y-311574100D01*
X212958100Y-311574100D02*
X146501800Y-311574100D01*
X227781200Y-313554500D02*
X214938500Y-313554500D01*
X238758700Y-320022100D02*
X236206700Y-317470100D01*
X231696800Y-317470100D02*
X227781200Y-313554500D01*
X332978700Y-320617900D02*
X332382900Y-320022100D01*
X332382900Y-320022100D02*
X238758700Y-320022100D01*
X384413500Y-320448500D02*
X384244100Y-320617900D01*
X384244100Y-320617900D02*
X332978700Y-320617900D01*
X236206700Y-317470100D02*
X231696800Y-317470100D01*
%TO.N,/W462*%
X220301400Y-294341400D02*
X319084700Y-294341400D01*
X319084700Y-294341400D02*
X326250600Y-287175500D01*
X326250600Y-287175500D02*
X388246300Y-287175500D01*
X209676200Y-304966600D02*
X220301400Y-294341400D01*
X388246300Y-287175500D02*
X388933500Y-287862700D01*
X147332800Y-304966600D02*
X209676200Y-304966600D01*
%TO.N,/W143*%
X205806200Y-231465600D02*
X66057700Y-231465600D01*
X206977600Y-230294200D02*
X205806200Y-231465600D01*
X65935600Y-231343500D02*
X45825500Y-231343500D01*
X66057700Y-231465600D02*
X65935600Y-231343500D01*
%TO.N,/W145*%
X61756400Y-221224500D02*
X84019800Y-221224500D01*
X147743300Y-221202900D02*
X209732400Y-221202900D01*
X61690900Y-221290000D02*
X61756400Y-221224500D01*
X147339500Y-220799100D02*
X147743300Y-221202900D01*
X146968400Y-220799100D02*
X147339500Y-220799100D01*
X146631400Y-220209200D02*
X146631400Y-220462100D01*
X146631400Y-220462100D02*
X146968400Y-220799100D01*
X46026300Y-221224500D02*
X61148900Y-221224500D01*
X84019800Y-221224500D02*
X85298400Y-219945900D01*
X61214400Y-221290000D02*
X61690900Y-221290000D01*
X85298400Y-219945900D02*
X146368100Y-219945900D01*
X61148900Y-221224500D02*
X61214400Y-221290000D01*
X209732400Y-221202900D02*
X211411400Y-219523900D01*
X146368100Y-219945900D02*
X146631400Y-220209200D01*
%TO.N,/W1412*%
X119651700Y-243574700D02*
X113601000Y-249625400D01*
X229129700Y-243574700D02*
X119651700Y-243574700D01*
X113601000Y-249625400D02*
X67203100Y-249625400D01*
X67203100Y-249625400D02*
X66682700Y-250145800D01*
%TO.N,/W141*%
X54253800Y-185654400D02*
X109495600Y-185654400D01*
X49096000Y-186544400D02*
X49986000Y-185654400D01*
X111938800Y-185936700D02*
X112221100Y-185654400D01*
X111180000Y-185654400D02*
X111462300Y-185936700D01*
X49986000Y-185654400D02*
X53670500Y-185654400D01*
X54200400Y-185707800D02*
X54253800Y-185654400D01*
X110025500Y-185707800D02*
X110078900Y-185654400D01*
X53723900Y-185707800D02*
X54200400Y-185707800D01*
X109495600Y-185654400D02*
X109549000Y-185707800D01*
X111462300Y-185936700D02*
X111938800Y-185936700D01*
X53670500Y-185654400D02*
X53723900Y-185707800D01*
X110078900Y-185654400D02*
X111180000Y-185654400D01*
X112221100Y-185654400D02*
X213305200Y-185654400D01*
X109549000Y-185707800D02*
X110025500Y-185707800D01*
%TO.N,/W142*%
X55763800Y-183330900D02*
X53962100Y-185132600D01*
X88968400Y-183330900D02*
X55763800Y-183330900D01*
X211932800Y-183330900D02*
X89837700Y-183330900D01*
X89837700Y-183330900D02*
X89641300Y-183134500D01*
X89641300Y-183134500D02*
X89164800Y-183134500D01*
X89164800Y-183134500D02*
X88968400Y-183330900D01*
X212330000Y-182933700D02*
X211932800Y-183330900D01*
%TO.N,/W1411*%
X138792600Y-220457100D02*
X138631700Y-220296200D01*
X138155200Y-220296200D02*
X137994300Y-220457100D01*
X138631700Y-220296200D02*
X138155200Y-220296200D01*
X228725200Y-218248200D02*
X225420100Y-221553300D01*
X146131000Y-220457100D02*
X138792600Y-220457100D01*
X225420100Y-221553300D02*
X147227200Y-221553300D01*
X137994300Y-220457100D02*
X85457500Y-220457100D01*
X147227200Y-221553300D02*
X146131000Y-220457100D01*
X83663200Y-222251400D02*
X78702400Y-222251400D01*
X85457500Y-220457100D02*
X83663200Y-222251400D01*
%TO.N,/W148*%
X137849600Y-186269600D02*
X120226100Y-186269600D01*
X119745300Y-186265300D02*
X119741000Y-186269600D01*
X83012500Y-186825800D02*
X82730100Y-186543400D01*
X137918700Y-186200500D02*
X137849600Y-186269600D01*
X81971200Y-186825800D02*
X72372000Y-186825800D01*
X138685400Y-186200500D02*
X137918700Y-186200500D01*
X120221800Y-186265300D02*
X119745300Y-186265300D01*
X112101300Y-186269600D02*
X111545100Y-186825800D01*
X119741000Y-186269600D02*
X112101300Y-186269600D01*
X111545100Y-186825800D02*
X83012500Y-186825800D01*
X82253600Y-186543400D02*
X81971200Y-186825800D01*
X231065400Y-185359800D02*
X214500000Y-185359800D01*
X214500000Y-185359800D02*
X213520900Y-186338900D01*
X213520900Y-186338900D02*
X138823800Y-186338900D01*
X120226100Y-186269600D02*
X120221800Y-186265300D01*
X82730100Y-186543400D02*
X82253600Y-186543400D01*
X138823800Y-186338900D02*
X138685400Y-186200500D01*
%TO.N,/W154*%
X61170500Y-278123000D02*
X63043500Y-276250000D01*
X104681600Y-275273300D02*
X105970800Y-276562500D01*
X74844600Y-275273300D02*
X104681600Y-275273300D01*
X73867900Y-276250000D02*
X74844600Y-275273300D01*
X157376000Y-257060800D02*
X215862900Y-257060800D01*
X108002900Y-276562500D02*
X110735400Y-273830000D01*
X110735400Y-273830000D02*
X140606800Y-273830000D01*
X140606800Y-273830000D02*
X157376000Y-257060800D01*
X63043500Y-276250000D02*
X73867900Y-276250000D01*
X105970800Y-276562500D02*
X108002900Y-276562500D01*
X46054400Y-278123000D02*
X61170500Y-278123000D01*
%TO.N,/W153*%
X211860200Y-255688200D02*
X157129700Y-255688200D01*
X113649500Y-271499500D02*
X50948300Y-271499500D01*
X114208100Y-270940900D02*
X113649500Y-271499500D01*
X157129700Y-255688200D02*
X141877000Y-270940900D01*
X141877000Y-270940900D02*
X114208100Y-270940900D01*
X50948300Y-271499500D02*
X50785000Y-271336200D01*
%TO.N,/W156*%
X213994500Y-291723700D02*
X214753500Y-290964700D01*
X89429400Y-291723700D02*
X213994500Y-291723700D01*
X88441300Y-291723700D02*
X88697100Y-291979500D01*
X46699300Y-291723700D02*
X88441300Y-291723700D01*
X88697100Y-291979500D02*
X89173600Y-291979500D01*
X89173600Y-291979500D02*
X89429400Y-291723700D01*
X46060600Y-291085000D02*
X46699300Y-291723700D01*
%TO.N,/W155*%
X200714000Y-284635000D02*
X46088100Y-284635000D01*
X211434500Y-273914500D02*
X200714000Y-284635000D01*
%TO.N,/W1512*%
X88441200Y-291085000D02*
X66174700Y-291085000D01*
X200880700Y-291085000D02*
X89429500Y-291085000D01*
X89173600Y-290829100D02*
X88697100Y-290829100D01*
X88697100Y-290829100D02*
X88441200Y-291085000D01*
X232560400Y-274333800D02*
X218154100Y-274333800D01*
X217675500Y-274335900D02*
X217673400Y-274333800D01*
X218152000Y-274335900D02*
X217675500Y-274335900D01*
X218154100Y-274333800D02*
X218152000Y-274335900D01*
X89429500Y-291085000D02*
X89173600Y-290829100D01*
X217631900Y-274333800D02*
X200880700Y-291085000D01*
X217673400Y-274333800D02*
X217631900Y-274333800D01*
%TO.N,/W1510*%
X113778700Y-274355400D02*
X111185000Y-276949100D01*
X150064200Y-271266300D02*
X146975100Y-274355400D01*
X69989100Y-276650100D02*
X68454200Y-278185000D01*
X111185000Y-276949100D02*
X105686700Y-276949100D01*
X68454200Y-278185000D02*
X66151300Y-278185000D01*
X105686700Y-276949100D02*
X105387700Y-276650100D01*
X234418300Y-271406600D02*
X234278000Y-271266300D01*
X234278000Y-271266300D02*
X150064200Y-271266300D01*
X105387700Y-276650100D02*
X69989100Y-276650100D01*
X146975100Y-274355400D02*
X113778700Y-274355400D01*
%TO.N,/W157*%
X71919600Y-253645700D02*
X230254000Y-253645700D01*
X66737800Y-258827500D02*
X71919600Y-253645700D01*
%TO.N,/W166*%
X46877100Y-332123100D02*
X51989300Y-327010900D01*
X45682200Y-332123100D02*
X46877100Y-332123100D01*
X208706700Y-327010900D02*
X208864700Y-327168900D01*
X51989300Y-327010900D02*
X208706700Y-327010900D01*
%TO.N,/W165*%
X211102900Y-327930100D02*
X209580800Y-326408000D01*
X209580800Y-326408000D02*
X45456100Y-326408000D01*
%TO.N,/W1612*%
X230124500Y-332232300D02*
X67077500Y-332232300D01*
X234642100Y-327714700D02*
X230124500Y-332232300D01*
X67077500Y-332232300D02*
X65953500Y-331108300D01*
%TO.N,/W162*%
X214496100Y-296912500D02*
X120449700Y-296912500D01*
X52348700Y-300271500D02*
X45456100Y-307164100D01*
X215952200Y-295456400D02*
X214496100Y-296912500D01*
X120449700Y-296912500D02*
X117090800Y-300271400D01*
X117090800Y-300271400D02*
X52348700Y-300271400D01*
X52348700Y-300271400D02*
X52348700Y-300271500D01*
%TO.N,/W1611*%
X225896700Y-324433500D02*
X229177900Y-327714700D01*
X65968000Y-324385000D02*
X66016500Y-324433500D01*
X66016500Y-324433500D02*
X225896700Y-324433500D01*
%TO.N,/W169*%
X219536700Y-309035300D02*
X219020800Y-308519400D01*
X116068700Y-308519400D02*
X113046800Y-311541300D01*
X88950300Y-311541300D02*
X88738300Y-311329300D01*
X88738300Y-311329300D02*
X66072200Y-311329300D01*
X113046800Y-311541300D02*
X88950300Y-311541300D01*
X66072200Y-311329300D02*
X65982800Y-311418700D01*
X219020800Y-308519400D02*
X116068700Y-308519400D01*
%TO.N,/W168*%
X147321500Y-298083500D02*
X144390200Y-301014800D01*
X144390200Y-301014800D02*
X71520600Y-301014800D01*
X67500400Y-305035000D02*
X65987700Y-305035000D01*
X219276500Y-293396100D02*
X214589100Y-298083500D01*
X214589100Y-298083500D02*
X147321500Y-298083500D01*
X71520600Y-301014800D02*
X67500400Y-305035000D01*
X232645200Y-293396100D02*
X219276500Y-293396100D01*
%TO.N,/W167*%
X92360800Y-292246500D02*
X86022300Y-298585000D01*
X86022300Y-298585000D02*
X65957400Y-298585000D01*
X228394400Y-292385700D02*
X228255200Y-292246500D01*
X228255200Y-292246500D02*
X92360800Y-292246500D01*
%TO.N,/InNeuron_2/Adder3/SUM_IN*%
X233160500Y-86579500D02*
X219619500Y-86579500D01*
X219619500Y-86579500D02*
X218790000Y-85750000D01*
X219419500Y-121379500D02*
X218590000Y-120550000D01*
X233790000Y-120450000D02*
X232860500Y-121379500D01*
X234090000Y-85650000D02*
X233160500Y-86579500D01*
X232860500Y-121379500D02*
X219419500Y-121379500D01*
%TO.N,/InNeuron_1/Adder3/SUM_IN*%
X227385800Y-67083800D02*
X227048800Y-67420800D01*
X227048800Y-67420800D02*
X227048800Y-67420900D01*
X234725500Y-67462500D02*
X228240900Y-67462500D01*
X227048800Y-67420900D02*
X227007200Y-67462500D01*
X228199200Y-67420800D02*
X228199200Y-67420700D01*
X219990500Y-67462500D02*
X219028000Y-66500000D01*
X227862300Y-67083800D02*
X227385800Y-67083800D01*
X228240900Y-67462500D02*
X228199200Y-67420800D01*
X235663000Y-66525000D02*
X234725500Y-67462500D01*
X228199200Y-67420700D02*
X227862300Y-67083800D01*
X227007200Y-67462500D02*
X219990500Y-67462500D01*
%TO.N,/InNeuron_3/Adder3/SUM_IN*%
X233928000Y-138800000D02*
X232990500Y-139737500D01*
X225500100Y-138775000D02*
X218933000Y-138775000D01*
X226462600Y-139737500D02*
X225500100Y-138775000D01*
X232990500Y-139737500D02*
X226462600Y-139737500D01*
%TO.N,/InNeuron_5/Adder3/SUM_IN*%
X241167500Y-262400000D02*
X236366000Y-262400000D01*
X246487700Y-257079800D02*
X241167500Y-262400000D01*
%TO.N,/InNeuron_6/Adder3/SUM_IN*%
X245617800Y-311182100D02*
X240419900Y-316380000D01*
X240419900Y-316380000D02*
X236001000Y-316380000D01*
%TO.N,/SCK*%
X85488000Y-112809600D02*
X84934100Y-113363500D01*
X108317700Y-112809600D02*
X85488000Y-112809600D01*
X109446300Y-113938200D02*
X108317700Y-112809600D01*
%TO.N,/MOSI*%
X80096700Y-271077700D02*
X62059000Y-271077700D01*
X80988500Y-270185900D02*
X80096700Y-271077700D01*
X62059000Y-271077700D02*
X61559500Y-270578200D01*
X141044300Y-205951400D02*
X139530700Y-204437800D01*
X139530700Y-204437800D02*
X109507600Y-204437800D01*
%TO.N,/S0*%
X34123100Y-43837600D02*
X33207400Y-42921900D01*
X23483700Y-43540400D02*
X23396100Y-43452800D01*
X67135500Y-36379000D02*
X66910600Y-36154100D01*
X33207400Y-42921900D02*
X28554500Y-42921900D01*
X27936000Y-43540400D02*
X23483700Y-43540400D01*
X23396100Y-43134700D02*
X23059200Y-42797800D01*
X67540000Y-36433600D02*
X67485400Y-36379000D01*
X66910600Y-36154100D02*
X66434100Y-36154100D01*
X23396100Y-43452800D02*
X23396100Y-43134700D01*
X111869000Y-36433600D02*
X67540000Y-36433600D01*
X28554500Y-42921900D02*
X27936000Y-43540400D01*
X63803700Y-36857900D02*
X60560700Y-36857900D01*
X66154600Y-36433600D02*
X64228000Y-36433600D01*
X22651800Y-42797800D02*
X21991900Y-42137900D01*
X60394700Y-43837600D02*
X34123100Y-43837600D01*
X23059200Y-42797800D02*
X22651800Y-42797800D01*
X112745500Y-37310100D02*
X111869000Y-36433600D01*
X64228000Y-36433600D02*
X63803700Y-36857900D01*
X67485400Y-36379000D02*
X67135500Y-36379000D01*
X66434100Y-36154100D02*
X66154600Y-36433600D01*
X113120400Y-37310100D02*
X112745500Y-37310100D01*
D16*
%TO.N,/S1*%
X65854200Y-35672400D02*
X63927500Y-35672400D01*
D17*
X43088400Y-33667500D02*
X49267500Y-33667500D01*
D18*
X43088400Y-33667500D02*
X42528900Y-33667500D01*
D16*
X63927500Y-35672400D02*
X63870200Y-35729700D01*
X67571400Y-35403400D02*
X66123200Y-35403400D01*
D17*
X58824100Y-34400000D02*
X60000000Y-35575900D01*
X50000000Y-34400000D02*
X58824100Y-34400000D01*
X60000000Y-35575900D02*
X60029200Y-35605100D01*
D16*
X63870200Y-35729700D02*
X63352300Y-35729700D01*
D17*
X49267500Y-33667500D02*
X50000000Y-34400000D01*
D16*
X63352300Y-35729700D02*
X63295000Y-35672400D01*
X67840400Y-35672400D02*
X67571400Y-35403400D01*
X113013300Y-35672400D02*
X67840400Y-35672400D01*
D17*
X60029200Y-35605100D02*
X62368100Y-35605100D01*
D18*
X42528900Y-33667500D02*
X42197300Y-33999100D01*
D16*
X113489700Y-36148800D02*
X113013300Y-35672400D01*
X66123200Y-35403400D02*
X65854200Y-35672400D01*
D18*
X42197300Y-33999100D02*
X25689900Y-33999100D01*
D16*
X63295000Y-35672400D02*
X62368100Y-35672400D01*
D15*
%TO.N,/S3*%
X113181900Y-34466800D02*
X64822400Y-34466800D01*
X113603200Y-34045500D02*
X113181900Y-34466800D01*
X64822400Y-34466800D02*
X64822400Y-34466900D01*
X64822400Y-34466900D02*
X64747200Y-34542100D01*
%TO.N,/S4*%
X56628600Y-38393100D02*
X56978900Y-38743400D01*
X65963500Y-39684900D02*
X101427200Y-39684900D01*
X40422300Y-39750500D02*
X51033300Y-39750500D01*
X101427200Y-39684900D02*
X101732900Y-39990600D01*
X101732900Y-39990600D02*
X110560200Y-39990600D01*
X40116100Y-40056700D02*
X40422300Y-39750500D01*
X65022000Y-38743400D02*
X65963500Y-39684900D01*
X110560200Y-39990600D02*
X111839400Y-38711400D01*
X51033300Y-39750500D02*
X52390700Y-38393100D01*
X56978900Y-38743400D02*
X65022000Y-38743400D01*
X52390700Y-38393100D02*
X56628600Y-38393100D01*
%TO.N,/S5*%
X114157100Y-32750000D02*
X110898500Y-32750000D01*
X110898500Y-32750000D02*
X110192900Y-33455600D01*
%TO.N,/VariableWeights/CS147*%
X60229500Y-45229700D02*
X59551700Y-45907500D01*
X68523700Y-45348600D02*
X68404800Y-45229700D01*
X68404800Y-45229700D02*
X60229500Y-45229700D01*
%TO.N,/VariableWeights/CS1511*%
X64765500Y-49823400D02*
X64456800Y-50132100D01*
X68398900Y-49823400D02*
X64765500Y-49823400D01*
%TO.N,/VariableWeights/CS215*%
X34504600Y-72266700D02*
X79769700Y-72266700D01*
%TO.N,/VariableWeights/CS222*%
X34573900Y-74080600D02*
X77528600Y-74080600D01*
%TO.N,/VariableWeights/CS223*%
X82176600Y-145359100D02*
X82034000Y-145501700D01*
X82034000Y-145501700D02*
X35020600Y-145501700D01*
X35020600Y-145501700D02*
X34878000Y-145359100D01*
%TO.N,/VariableWeights/CS224*%
X34773300Y-74841500D02*
X34296800Y-74841500D01*
X34296800Y-74841500D02*
X34198500Y-74939800D01*
X34871600Y-74939800D02*
X34773300Y-74841500D01*
X73397500Y-74939800D02*
X34871600Y-74939800D01*
X34198500Y-74939800D02*
X32914300Y-74939800D01*
%TO.N,/VariableWeights/CS226*%
X76417600Y-78878800D02*
X77852800Y-78878800D01*
X32938400Y-76505800D02*
X74044600Y-76505800D01*
X74044600Y-76505800D02*
X76417600Y-78878800D01*
%TO.N,/VariableWeights/CS231*%
X81429600Y-174023800D02*
X26899800Y-174023800D01*
X81690300Y-174284500D02*
X81429600Y-174023800D01*
%TO.N,/VariableWeights/CS236*%
X63102700Y-206266400D02*
X27550800Y-206266400D01*
X63142400Y-206226700D02*
X63102700Y-206266400D01*
X82925000Y-206442200D02*
X82749200Y-206266400D01*
X63618900Y-206226700D02*
X63142400Y-206226700D01*
X82749200Y-206266400D02*
X63658600Y-206266400D01*
X63658600Y-206266400D02*
X63618900Y-206226700D01*
%TO.N,/VariableWeights/CS261*%
X76041500Y-292198200D02*
X28674700Y-292198200D01*
X80331700Y-296488400D02*
X76041500Y-292198200D01*
%TO.N,/VariableWeights/CS264*%
X40792900Y-312014900D02*
X40572800Y-312235000D01*
X40572800Y-312235000D02*
X27250600Y-312235000D01*
X81102800Y-315322600D02*
X78015200Y-312235000D01*
X41489500Y-312235000D02*
X41269400Y-312014900D01*
X41269400Y-312014900D02*
X40792900Y-312014900D01*
X78015200Y-312235000D02*
X41489500Y-312235000D01*
%TO.N,/VariableWeights/CS266*%
X72247500Y-55538300D02*
X73971700Y-57262500D01*
X75343600Y-57262500D02*
X75343600Y-57262600D01*
X25951000Y-53285000D02*
X28204300Y-55538300D01*
X28204300Y-55538300D02*
X72247500Y-55538300D01*
X73971700Y-57262500D02*
X75343600Y-57262500D01*
%TO.N,/VariableWeights/CS252*%
X81303500Y-259966300D02*
X32563000Y-259966300D01*
X82690600Y-261353400D02*
X81303500Y-259966300D01*
%TO.N,/VariableWeights/CS253*%
X30818100Y-70281500D02*
X27501900Y-66965300D01*
X72495100Y-70281500D02*
X30818100Y-70281500D01*
%TO.N,/VariableWeights/CS256*%
X77829200Y-285870100D02*
X80744500Y-288785400D01*
X29436000Y-285870100D02*
X77829200Y-285870100D01*
%TO.N,/VariableWeights/CS242*%
X75774400Y-66239200D02*
X73001800Y-66239200D01*
X33172300Y-66075200D02*
X33108300Y-66011200D01*
X33108300Y-66011200D02*
X32631800Y-66011200D01*
X32567800Y-66075200D02*
X26395600Y-66075200D01*
X73001800Y-66239200D02*
X72837800Y-66075200D01*
X72837800Y-66075200D02*
X33172300Y-66075200D01*
X26395600Y-66075200D02*
X25900900Y-65580500D01*
X32631800Y-66011200D02*
X32567800Y-66075200D01*
%TO.N,/VariableWeights/CS243*%
X79362900Y-226040200D02*
X81407400Y-228084700D01*
X33869300Y-226040200D02*
X79362900Y-226040200D01*
%TO.N,/VariableWeights/CS244*%
X36005700Y-63860700D02*
X36005700Y-63901300D01*
X35192400Y-63047100D02*
X35668900Y-63047100D01*
X33559000Y-61454600D02*
X34588500Y-62484100D01*
X34588500Y-62606300D02*
X34925500Y-62943300D01*
X35172000Y-63067500D02*
X35192400Y-63047100D01*
X73001800Y-64988600D02*
X75378000Y-64988600D01*
X72605500Y-65384900D02*
X73001800Y-64988600D01*
X35668900Y-63047100D02*
X36005800Y-63384000D01*
X34925500Y-62943300D02*
X35047700Y-62943300D01*
X36005800Y-63860600D02*
X36005700Y-63860700D01*
X37489300Y-65384900D02*
X72605500Y-65384900D01*
X36005800Y-63384000D02*
X36005800Y-63860600D01*
X34588500Y-62484100D02*
X34588500Y-62606300D01*
X36005700Y-63901300D02*
X37489300Y-65384900D01*
X35171900Y-63067500D02*
X35172000Y-63067500D01*
X35047700Y-62943300D02*
X35171900Y-63067500D01*
%TO.N,/VariableWeights/CS313*%
X39050700Y-105072700D02*
X62362400Y-105072700D01*
X62642700Y-104792400D02*
X107890200Y-104792400D01*
X62362400Y-105072700D02*
X62642700Y-104792400D01*
X107890200Y-104792400D02*
X109633900Y-106536100D01*
%TO.N,/VariableWeights/CS315*%
X104993600Y-54707000D02*
X104512700Y-55187900D01*
X57130000Y-55187900D02*
X56779700Y-54837600D01*
X56779700Y-54837600D02*
X42902500Y-54837600D01*
X108836200Y-55048600D02*
X108494600Y-54707000D01*
X41749500Y-53974800D02*
X41646900Y-54077400D01*
X42039700Y-53974800D02*
X41749500Y-53974800D01*
X104512700Y-55187900D02*
X57130000Y-55187900D01*
X41646900Y-54077400D02*
X39872100Y-52302600D01*
X42902500Y-54837600D02*
X42039700Y-53974800D01*
X108494600Y-54707000D02*
X104993600Y-54707000D01*
%TO.N,/VariableWeights/CS316*%
X81500900Y-122852400D02*
X81439400Y-122913900D01*
X48283700Y-122913900D02*
X46526000Y-121156200D01*
X108211000Y-122913900D02*
X82038900Y-122913900D01*
X109766600Y-124469500D02*
X108211000Y-122913900D01*
X81439400Y-122913900D02*
X48283700Y-122913900D01*
X82038900Y-122913900D02*
X81977400Y-122852400D01*
X46526000Y-121156200D02*
X41281100Y-121156200D01*
X81977400Y-122852400D02*
X81500900Y-122852400D01*
%TO.N,/VariableWeights/CS324*%
X41597800Y-144801000D02*
X41247500Y-145151300D01*
X82751800Y-145120900D02*
X82751800Y-145120800D01*
X82782200Y-145151300D02*
X82751800Y-145120900D01*
X34302800Y-145120900D02*
X34302800Y-145121000D01*
X101904700Y-145151300D02*
X82782200Y-145151300D01*
X34302800Y-145121000D02*
X34272500Y-145151300D01*
X35453200Y-145120900D02*
X35453200Y-145120800D01*
X34272500Y-145151300D02*
X30000700Y-145151300D01*
X35483600Y-145151300D02*
X35453200Y-145120900D01*
X82751800Y-145120800D02*
X82414900Y-144783900D01*
X81921300Y-144801000D02*
X41597800Y-144801000D01*
X109317800Y-152564400D02*
X101904700Y-145151300D01*
X35116300Y-144783900D02*
X34639800Y-144783900D01*
X34639800Y-144783900D02*
X34302800Y-145120900D01*
X82414900Y-144783900D02*
X81938400Y-144783900D01*
X41247500Y-145151300D02*
X35483600Y-145151300D01*
X35453200Y-145120800D02*
X35116300Y-144783900D01*
X81938400Y-144783900D02*
X81921300Y-144801000D01*
%TO.N,/VariableWeights/CS331*%
X107875100Y-171038700D02*
X26369400Y-171038700D01*
X109968200Y-173131800D02*
X107875100Y-171038700D01*
%TO.N,/VariableWeights/CS333*%
X31410800Y-45985000D02*
X31887300Y-45985000D01*
X65855200Y-46482700D02*
X66331700Y-46482700D01*
X31887300Y-45985000D02*
X32130600Y-46228300D01*
X25676200Y-46228300D02*
X31167500Y-46228300D01*
X66586100Y-46228300D02*
X110754500Y-46228300D01*
X22820900Y-43373000D02*
X25676200Y-46228300D01*
X66331700Y-46482700D02*
X66586100Y-46228300D01*
X59790000Y-46482700D02*
X60044400Y-46228300D01*
X59059100Y-46228300D02*
X59313500Y-46482700D01*
X59313500Y-46482700D02*
X59790000Y-46482700D01*
X60044400Y-46228300D02*
X65600800Y-46228300D01*
X32130600Y-46228300D02*
X59059100Y-46228300D01*
X31167500Y-46228300D02*
X31410800Y-45985000D01*
X65600800Y-46228300D02*
X65855200Y-46482700D01*
%TO.N,/VariableWeights/CS335*%
X35118400Y-39034300D02*
X35139000Y-39054900D01*
X57124000Y-38393100D02*
X65342400Y-38393100D01*
X65342400Y-38393100D02*
X66283800Y-39334500D01*
X66283800Y-39334500D02*
X106630800Y-39334500D01*
X56773700Y-38042800D02*
X57124000Y-38393100D01*
X35139000Y-39054900D02*
X50843400Y-39054900D01*
X50843400Y-39054900D02*
X51855500Y-38042800D01*
X51855500Y-38042800D02*
X56773700Y-38042800D01*
%TO.N,/VariableWeights/CS336*%
X57269100Y-38042800D02*
X90483600Y-38042800D01*
X33542400Y-39684300D02*
X35534200Y-37692500D01*
X56918800Y-37692500D02*
X57269100Y-38042800D01*
X35534200Y-37692500D02*
X56918800Y-37692500D01*
%TO.N,/VariableWeights/CS341*%
X60263100Y-42649600D02*
X60372300Y-42649600D01*
X60372400Y-42649800D02*
X60709400Y-42986800D01*
X32879700Y-40334300D02*
X35426700Y-42881300D01*
X61577600Y-42595000D02*
X65326300Y-42595000D01*
X92115500Y-42138600D02*
X104040100Y-42138600D01*
X61185900Y-42986800D02*
X61522800Y-42649900D01*
X60372400Y-42649700D02*
X60372400Y-42649800D01*
X60031400Y-42881300D02*
X60263100Y-42649600D01*
X61522800Y-42649800D02*
X61577600Y-42595000D01*
X65326300Y-42595000D02*
X65782700Y-42138600D01*
X92052100Y-42202000D02*
X92115500Y-42138600D01*
X35426700Y-42881300D02*
X60031400Y-42881300D01*
X91575600Y-42202000D02*
X92052100Y-42202000D01*
X91512200Y-42138600D02*
X91575600Y-42202000D01*
X65782700Y-42138600D02*
X91512200Y-42138600D01*
X60709400Y-42986800D02*
X61185900Y-42986800D01*
X61522800Y-42649900D02*
X61522800Y-42649800D01*
X60372300Y-42649600D02*
X60372400Y-42649700D01*
%TO.N,/VariableWeights/CS342*%
X91813800Y-41626800D02*
X69968300Y-41626800D01*
X60317700Y-42228200D02*
X47328400Y-42228200D01*
X47025600Y-42531000D02*
X46549100Y-42531000D01*
X46246300Y-42228200D02*
X35670700Y-42228200D01*
X69968300Y-41626800D02*
X69816800Y-41778300D01*
X35670700Y-42228200D02*
X34426800Y-40984300D01*
X61522800Y-42173400D02*
X61522800Y-42173300D01*
X47328400Y-42228200D02*
X47025600Y-42531000D01*
X60372400Y-42173500D02*
X60317700Y-42228200D01*
X69188800Y-41626800D02*
X65799100Y-41626800D01*
X61577600Y-42228200D02*
X61522800Y-42173400D01*
X61185900Y-41836400D02*
X60709400Y-41836400D01*
X65197700Y-42228200D02*
X61577600Y-42228200D01*
X61522800Y-42173300D02*
X61185900Y-41836400D01*
X69816800Y-41778300D02*
X69340300Y-41778300D01*
X60372400Y-42173400D02*
X60372400Y-42173500D01*
X60709400Y-41836400D02*
X60372400Y-42173400D01*
X65799100Y-41626800D02*
X65197700Y-42228200D01*
X69340300Y-41778300D02*
X69188800Y-41626800D01*
X46549100Y-42531000D02*
X46246300Y-42228200D01*
%TO.N,/VariableWeights/CS343*%
X61406300Y-41561400D02*
X61331000Y-41486100D01*
X60564300Y-41486100D02*
X60363500Y-41686900D01*
X36072900Y-41686900D02*
X35985400Y-41599400D01*
X69188800Y-40779400D02*
X65103100Y-40779400D01*
X65103100Y-40779400D02*
X64321100Y-41561400D01*
X69968300Y-40779400D02*
X69816800Y-40627900D01*
X61331000Y-41486100D02*
X60564300Y-41486100D01*
X47331900Y-41686900D02*
X47025600Y-41380600D01*
X90355200Y-40779400D02*
X69968300Y-40779400D01*
X47025600Y-41380600D02*
X46549100Y-41380600D01*
X60363500Y-41686900D02*
X47331900Y-41686900D01*
X64321100Y-41561400D02*
X61406300Y-41561400D01*
X46549100Y-41380600D02*
X46242800Y-41686900D01*
X46242800Y-41686900D02*
X36072900Y-41686900D01*
X69816800Y-40627900D02*
X69340300Y-40627900D01*
X69340300Y-40627900D02*
X69188800Y-40779400D01*
%TO.N,/VariableWeights/CS344*%
X46063800Y-231918700D02*
X46194000Y-231788500D01*
X65709900Y-231788500D02*
X65854800Y-231933400D01*
X45587300Y-231918700D02*
X46063800Y-231918700D01*
X46194000Y-231788500D02*
X65709900Y-231788500D01*
X41055600Y-231788500D02*
X45457100Y-231788500D01*
X107355400Y-231933400D02*
X108823700Y-233401700D01*
X65854800Y-231933400D02*
X107355400Y-231933400D01*
X45457100Y-231788500D02*
X45587300Y-231918700D01*
%TO.N,/VariableWeights/CS346*%
X105507100Y-44760400D02*
X34090400Y-44760400D01*
X34090400Y-44760400D02*
X32914300Y-43584300D01*
%TO.N,/VariableWeights/CS352*%
X82938200Y-261919300D02*
X107744800Y-261919300D01*
X29694900Y-261919300D02*
X82443100Y-261919300D01*
X82452400Y-261928600D02*
X82928900Y-261928600D01*
X82928900Y-261928600D02*
X82938200Y-261919300D01*
X107744800Y-261919300D02*
X107784400Y-261958900D01*
X82443100Y-261919300D02*
X82452400Y-261928600D01*
%TO.N,/VariableWeights/CS353*%
X109025000Y-268235200D02*
X81817100Y-268235200D01*
X81817100Y-268235200D02*
X81678300Y-268096400D01*
X38127300Y-268096400D02*
X37650800Y-268096400D01*
X81201800Y-268096400D02*
X81063000Y-268235200D01*
X38266100Y-268235200D02*
X38127300Y-268096400D01*
X37512000Y-268235200D02*
X23682100Y-268235200D01*
X81063000Y-268235200D02*
X38266100Y-268235200D01*
X37650800Y-268096400D02*
X37512000Y-268235200D01*
X81678300Y-268096400D02*
X81201800Y-268096400D01*
%TO.N,/VariableWeights/CS354*%
X25306400Y-274146100D02*
X105326700Y-274146100D01*
X105326700Y-274146100D02*
X107087700Y-275907100D01*
%TO.N,/VariableWeights/CS361*%
X64229500Y-32856100D02*
X64229500Y-32856000D01*
X64229500Y-32856000D02*
X63892600Y-32519100D01*
X43139600Y-32419700D02*
X42172500Y-33386800D01*
X63252900Y-32419700D02*
X62671700Y-32419700D01*
X63416000Y-32519200D02*
X63352400Y-32519200D01*
X62168100Y-32392600D02*
X62141000Y-32419700D01*
X70833200Y-32957700D02*
X70595800Y-33195100D01*
X62671700Y-32419700D02*
X62644600Y-32392600D01*
X70119300Y-33195100D02*
X69881900Y-32957700D01*
X69881900Y-32957700D02*
X64331100Y-32957700D01*
X79137600Y-32957700D02*
X70833200Y-32957700D01*
X62141000Y-32419700D02*
X43139600Y-32419700D01*
X63892600Y-32519100D02*
X63416100Y-32519100D01*
X42172500Y-33386800D02*
X28310200Y-33386800D01*
X70595800Y-33195100D02*
X70119300Y-33195100D01*
X63352400Y-32519200D02*
X63252900Y-32419700D01*
X63416100Y-32519100D02*
X63416000Y-32519200D01*
X28310200Y-33386800D02*
X27937400Y-33014000D01*
X62644600Y-32392600D02*
X62168100Y-32392600D01*
X64331100Y-32957700D02*
X64229500Y-32856100D01*
%TO.N,/VariableWeights/CS362*%
X27156900Y-32046700D02*
X27122800Y-32080800D01*
X26138900Y-32247400D02*
X25687200Y-32699100D01*
X69881900Y-32282100D02*
X69256100Y-32282100D01*
X70833200Y-32282100D02*
X70595800Y-32044700D01*
X37401500Y-32096300D02*
X37064600Y-32433200D01*
X92573300Y-32282100D02*
X70833200Y-32282100D01*
X68970200Y-32568000D02*
X68493700Y-32568000D01*
X36251100Y-32096100D02*
X36201700Y-32046700D01*
X37451000Y-32046700D02*
X37401500Y-32096200D01*
X37401500Y-32096200D02*
X37401500Y-32096300D01*
X36588100Y-32433200D02*
X36251100Y-32096200D01*
X26139000Y-32247400D02*
X26138900Y-32247400D01*
X37064600Y-32433200D02*
X36588100Y-32433200D01*
X62018600Y-32046700D02*
X37451000Y-32046700D01*
X63911200Y-32042300D02*
X62023000Y-32042300D01*
X62023000Y-32042300D02*
X62018600Y-32046700D01*
X26785900Y-32417800D02*
X26309400Y-32417800D01*
X27122800Y-32080800D02*
X27122800Y-32080900D01*
X36251100Y-32096200D02*
X36251100Y-32096100D01*
X70595800Y-32044700D02*
X70119300Y-32044700D01*
X92661100Y-32369900D02*
X92573300Y-32282100D01*
X68207800Y-32282100D02*
X64151000Y-32282100D01*
X27122800Y-32080900D02*
X26785900Y-32417800D01*
X70119300Y-32044700D02*
X69881900Y-32282100D01*
X36201700Y-32046700D02*
X27156900Y-32046700D01*
X64151000Y-32282100D02*
X63911200Y-32042300D01*
X69256100Y-32282100D02*
X68970200Y-32568000D01*
X26309400Y-32417800D02*
X26139000Y-32247400D01*
X68493700Y-32568000D02*
X68207800Y-32282100D01*
%TO.N,/VariableWeights/CS411*%
X140236300Y-90009600D02*
X43502800Y-90009600D01*
X43502800Y-90009600D02*
X37508900Y-84015700D01*
%TO.N,/VariableWeights/CS412*%
X37401500Y-31619800D02*
X37451000Y-31669300D01*
X36251100Y-31619900D02*
X36251100Y-31619800D01*
X32883300Y-31399100D02*
X33153500Y-31669300D01*
X77388900Y-31669300D02*
X77464100Y-31744500D01*
X36251100Y-31619800D02*
X36588100Y-31282800D01*
X117176000Y-33006000D02*
X138035400Y-33006000D01*
X68242000Y-31669300D02*
X68493700Y-31417600D01*
X69221900Y-31669300D02*
X77388900Y-31669300D01*
X115914500Y-31744500D02*
X117176000Y-33006000D01*
X138645700Y-33006000D02*
X139098300Y-33006000D01*
X138035400Y-33006000D02*
X138102300Y-32939100D01*
X36201700Y-31669300D02*
X36251100Y-31619900D01*
X37401500Y-31619700D02*
X37401500Y-31619800D01*
X36588100Y-31282800D02*
X37064600Y-31282800D01*
X68970200Y-31417600D02*
X69221900Y-31669300D01*
X37451000Y-31669300D02*
X68242000Y-31669300D01*
X68493700Y-31417600D02*
X68970200Y-31417600D01*
X77464100Y-31744500D02*
X115914500Y-31744500D01*
X37064600Y-31282800D02*
X37401500Y-31619700D01*
X138102300Y-32939100D02*
X138578800Y-32939100D01*
X33153500Y-31669300D02*
X36201700Y-31669300D01*
X138578800Y-32939100D02*
X138645700Y-33006000D01*
X139098300Y-33006000D02*
X139294400Y-32809900D01*
%TO.N,/VariableWeights/CS421*%
X36801000Y-20237900D02*
X37277500Y-20237900D01*
X122833300Y-20282500D02*
X123104100Y-20011700D01*
X122559500Y-20008800D02*
X122833200Y-20282500D01*
X63912800Y-20399200D02*
X63912800Y-20399300D01*
X26604100Y-20484200D02*
X26729200Y-20359100D01*
X26729200Y-20359100D02*
X36679800Y-20359100D01*
X123580600Y-20011700D02*
X123917500Y-20348600D01*
X38945000Y-20130200D02*
X62918500Y-20130200D01*
X63147400Y-20359100D02*
X63872700Y-20359100D01*
X63912800Y-20399300D02*
X64249800Y-20736300D01*
X64726300Y-20736300D02*
X65063200Y-20399400D01*
X65103400Y-20359100D02*
X68166100Y-20359100D01*
X37398700Y-20359100D02*
X38716100Y-20359100D01*
X36679800Y-20359100D02*
X36801000Y-20237900D01*
X123104100Y-20011700D02*
X123580600Y-20011700D01*
X112345500Y-19658500D02*
X112695800Y-20008800D01*
X62918500Y-20130200D02*
X63147400Y-20359100D01*
X68166100Y-20359100D02*
X68493700Y-20686700D01*
X122833200Y-20282500D02*
X122833300Y-20282500D01*
X37277500Y-20237900D02*
X37398700Y-20359100D01*
X63872700Y-20359100D02*
X63912800Y-20399200D01*
X65063200Y-20399300D02*
X65103400Y-20359100D01*
X123917500Y-20348600D02*
X123917500Y-20348700D01*
X69297800Y-20359100D02*
X87116000Y-20359100D01*
X112695800Y-20008800D02*
X122559500Y-20008800D01*
X65063200Y-20399400D02*
X65063200Y-20399300D01*
X123927900Y-20359100D02*
X138966000Y-20359100D01*
X123917500Y-20348700D02*
X123927900Y-20359100D01*
X68493700Y-20686700D02*
X68970200Y-20686700D01*
X87816600Y-19658500D02*
X112345500Y-19658500D01*
X68970200Y-20686700D02*
X69297800Y-20359100D01*
X87116000Y-20359100D02*
X87816600Y-19658500D01*
X38716100Y-20359100D02*
X38945000Y-20130200D01*
X64249800Y-20736300D02*
X64726300Y-20736300D01*
%TO.N,/VariableWeights/CS423*%
X39100300Y-18787700D02*
X39294600Y-18982000D01*
X39294600Y-18982000D02*
X39771100Y-18982000D01*
X22917800Y-19332400D02*
X23462500Y-18787700D01*
X132001400Y-16241100D02*
X132304900Y-16544600D01*
X39771100Y-18982000D02*
X39965400Y-18787700D01*
X23462500Y-18787700D02*
X39100300Y-18787700D01*
X60418000Y-18787700D02*
X62964600Y-16241100D01*
X133084900Y-16241100D02*
X134413700Y-16241100D01*
X62964600Y-16241100D02*
X132001400Y-16241100D01*
X39965400Y-18787700D02*
X60418000Y-18787700D01*
X132781400Y-16544600D02*
X133084900Y-16241100D01*
X132304900Y-16544600D02*
X132781400Y-16544600D01*
%TO.N,/VariableWeights/CS426*%
X122166800Y-25291600D02*
X122166800Y-25291500D01*
X141232400Y-25058200D02*
X141035400Y-25255200D01*
X64018200Y-23525500D02*
X63820300Y-23723400D01*
X64838700Y-23723400D02*
X64692600Y-23723400D01*
X66370500Y-25255200D02*
X64838700Y-23723400D01*
X123317200Y-25291700D02*
X122980300Y-25628600D01*
X123353600Y-25255200D02*
X123317200Y-25291600D01*
X122503800Y-25628600D02*
X122166800Y-25291600D01*
X122130500Y-25255200D02*
X66370500Y-25255200D01*
X64494700Y-23525500D02*
X64018200Y-23525500D01*
X41528000Y-23723400D02*
X40097600Y-22293000D01*
X122980300Y-25628600D02*
X122503800Y-25628600D01*
X26307200Y-22293000D02*
X25956900Y-21942700D01*
X40097600Y-22293000D02*
X26307200Y-22293000D01*
X63820300Y-23723400D02*
X41528000Y-23723400D01*
X123317200Y-25291600D02*
X123317200Y-25291700D01*
X64692600Y-23723400D02*
X64494700Y-23525500D01*
X122166800Y-25291500D02*
X122130500Y-25255200D01*
X141035400Y-25255200D02*
X123353600Y-25255200D01*
%TO.N,/VariableWeights/CS433*%
X132464400Y-15890700D02*
X132543100Y-15969400D01*
X39532800Y-18406800D02*
X42048900Y-15890700D01*
X42048900Y-15890700D02*
X132464400Y-15890700D01*
%TO.N,/VariableWeights/CS435*%
X132270400Y-22930500D02*
X132239100Y-22899200D01*
X64890500Y-22930500D02*
X64784900Y-22824900D01*
X36679900Y-21267200D02*
X35260000Y-21267200D01*
X132239100Y-22899200D02*
X131762600Y-22899200D01*
X131731300Y-22930500D02*
X64890500Y-22930500D01*
X37277500Y-21388300D02*
X36801000Y-21388300D01*
X131762600Y-22899200D02*
X131731300Y-22930500D01*
X61487700Y-22824900D02*
X59930000Y-21267200D01*
X37398600Y-21267200D02*
X37277500Y-21388300D01*
X36801000Y-21388300D02*
X36679900Y-21267200D01*
X64784900Y-22824900D02*
X61487700Y-22824900D01*
X59930000Y-21267200D02*
X37398600Y-21267200D01*
X135062400Y-22930500D02*
X132270400Y-22930500D01*
X35260000Y-21267200D02*
X34999600Y-21006800D01*
%TO.N,/VariableWeights/CS441*%
X122980300Y-24478200D02*
X122503800Y-24478200D01*
X122503800Y-24478200D02*
X122166800Y-24815200D01*
X30867200Y-21942700D02*
X30088400Y-21163900D01*
X64758900Y-23294300D02*
X64639800Y-23175200D01*
X123317200Y-24815200D02*
X123317200Y-24815100D01*
X122130500Y-24851600D02*
X66637300Y-24851600D01*
X40330000Y-21942700D02*
X30867200Y-21942700D01*
X63754000Y-23294300D02*
X41681600Y-23294300D01*
X41681600Y-23294300D02*
X40330000Y-21942700D01*
X136145700Y-24851600D02*
X123353600Y-24851600D01*
X64639800Y-23175200D02*
X63873100Y-23175200D01*
X122166800Y-24815300D02*
X122130500Y-24851600D01*
X123317200Y-24815100D02*
X122980300Y-24478200D01*
X66637300Y-24851600D02*
X65080000Y-23294300D01*
X65080000Y-23294300D02*
X64758900Y-23294300D01*
X63873100Y-23175200D02*
X63754000Y-23294300D01*
X123353600Y-24851600D02*
X123317200Y-24815200D01*
X122166800Y-24815200D02*
X122166800Y-24815300D01*
X136373600Y-24623700D02*
X136145700Y-24851600D01*
%TO.N,/VariableWeights/CS446*%
X63465900Y-17816900D02*
X63719100Y-18070100D01*
X64195600Y-18070100D02*
X64448800Y-17816900D01*
X64448800Y-17816900D02*
X66229600Y-17816900D01*
X63719100Y-18070100D02*
X64195600Y-18070100D01*
X67104800Y-16941700D02*
X112928100Y-16941700D01*
X60838800Y-19454000D02*
X62475900Y-17816900D01*
X62475900Y-17816900D02*
X63465900Y-17816900D01*
X114615500Y-18629100D02*
X132416800Y-18629100D01*
X66229600Y-17816900D02*
X67104800Y-16941700D01*
X112928100Y-16941700D02*
X114615500Y-18629100D01*
%TO.N,/VariableWeights/CS452*%
X71624500Y-21387800D02*
X61973300Y-21387800D01*
X123281000Y-20648200D02*
X112839800Y-20648200D01*
X112251700Y-20060100D02*
X104546200Y-20060100D01*
X61973300Y-21387800D02*
X61410500Y-20825000D01*
X103756700Y-20849600D02*
X73571100Y-20849600D01*
X112839800Y-20648200D02*
X112251700Y-20060100D01*
X61410500Y-20825000D02*
X60419300Y-20825000D01*
X104546200Y-20060100D02*
X103756700Y-20849600D01*
X73571100Y-20849600D02*
X73562300Y-20840800D01*
X73077000Y-20849600D02*
X72162700Y-20849600D01*
X123342300Y-20586900D02*
X123281000Y-20648200D01*
X73085800Y-20840800D02*
X73077000Y-20849600D01*
X72162700Y-20849600D02*
X71624500Y-21387800D01*
X73562300Y-20840800D02*
X73085800Y-20840800D01*
%TO.N,/VariableWeights/CS453*%
X137724500Y-22301800D02*
X131864600Y-22301800D01*
X131586300Y-22580100D02*
X65035500Y-22580100D01*
X131864600Y-22301800D02*
X131586300Y-22580100D01*
X64930000Y-22474600D02*
X62053100Y-22474600D01*
X62053100Y-22474600D02*
X61187000Y-21608500D01*
X65035500Y-22580100D02*
X64930000Y-22474600D01*
%TO.N,/VariableWeights/CS454*%
X65646100Y-27798500D02*
X62638000Y-24790400D01*
X120160700Y-27875400D02*
X69067900Y-27875400D01*
X69067900Y-27875400D02*
X68991000Y-27798500D01*
X62638000Y-24790400D02*
X60125000Y-24790400D01*
X121136400Y-28851100D02*
X120160700Y-27875400D01*
X68991000Y-27798500D02*
X65646100Y-27798500D01*
%TO.N,/VariableWeights/CS461*%
X138759400Y-295414600D02*
X105981500Y-295414600D01*
%TO.N,/VariableWeights/CS464*%
X111939000Y-20418100D02*
X112967800Y-21446900D01*
X103772900Y-21416000D02*
X104770800Y-20418100D01*
X104770800Y-20418100D02*
X111939000Y-20418100D01*
X73324000Y-21416000D02*
X103772900Y-21416000D01*
X112967800Y-21446900D02*
X123345400Y-21446900D01*
%TO.N,/VariableWeights/CS511*%
X66542300Y-31043900D02*
X77258900Y-31043900D01*
X77258900Y-31043900D02*
X77609200Y-31394200D01*
X62759400Y-28364500D02*
X63109700Y-28714800D01*
X63109700Y-28714800D02*
X64213200Y-28714800D01*
X64213200Y-28714800D02*
X66542300Y-31043900D01*
X115822000Y-30803300D02*
X168558200Y-30803300D01*
X77609200Y-31394200D02*
X115231100Y-31394200D01*
X168558200Y-30803300D02*
X169088400Y-31333500D01*
X115231100Y-31394200D02*
X115822000Y-30803300D01*
%TO.N,/VariableWeights/CS512*%
X166851100Y-97798500D02*
X169610900Y-100558300D01*
X67383000Y-97798500D02*
X166851100Y-97798500D01*
%TO.N,/VariableWeights/CS513*%
X66846500Y-98075400D02*
X63576900Y-98075400D01*
X73426000Y-103705300D02*
X67869500Y-98148800D01*
X63576900Y-98075400D02*
X63545900Y-98044400D01*
X169814100Y-106536100D02*
X166983300Y-103705300D01*
X141249300Y-103705300D02*
X141114300Y-103570300D01*
X140637800Y-103570300D02*
X140502800Y-103705300D01*
X67621300Y-98373700D02*
X67144800Y-98373700D01*
X67846200Y-98148800D02*
X67621300Y-98373700D01*
X67144800Y-98373700D02*
X66846500Y-98075400D01*
X67869500Y-98148800D02*
X67846200Y-98148800D01*
X141114300Y-103570300D02*
X140637800Y-103570300D01*
X166983300Y-103705300D02*
X141249300Y-103705300D01*
X140502800Y-103705300D02*
X73426000Y-103705300D01*
%TO.N,/VariableWeights/CS515*%
X115013700Y-31043900D02*
X115604700Y-30452900D01*
X77929300Y-31043900D02*
X115013700Y-31043900D01*
X63194700Y-27696300D02*
X63724200Y-28225800D01*
X69184000Y-29203500D02*
X70556700Y-30576200D01*
X70556700Y-30576200D02*
X77461600Y-30576200D01*
X67493700Y-28225800D02*
X68471400Y-29203500D01*
X57427900Y-27895700D02*
X57627300Y-27696300D01*
X63724200Y-28225800D02*
X67493700Y-28225800D01*
X77461600Y-30576200D02*
X77929300Y-31043900D01*
X160180500Y-30452900D02*
X160460500Y-30172900D01*
X68471400Y-29203500D02*
X69184000Y-29203500D01*
X57627300Y-27696300D02*
X63194700Y-27696300D01*
X115604700Y-30452900D02*
X160180500Y-30452900D01*
%TO.N,/VariableWeights/CS516*%
X66968000Y-37025000D02*
X111924000Y-37025000D01*
X111924000Y-37025000D02*
X114558300Y-39659300D01*
X66672300Y-36729300D02*
X66968000Y-37025000D01*
X114558300Y-39659300D02*
X160007100Y-39659300D01*
%TO.N,/VariableWeights/CS522*%
X58876700Y-36130100D02*
X57966000Y-35219400D01*
X67678200Y-36076400D02*
X67405600Y-35803800D01*
X113821800Y-36630200D02*
X113728000Y-36724000D01*
X114779400Y-36630200D02*
X113821800Y-36630200D01*
X113251500Y-36724000D02*
X113157700Y-36630200D01*
X113728000Y-36724000D02*
X113251500Y-36724000D01*
X64089800Y-36076400D02*
X64036100Y-36130100D01*
X159092700Y-38787700D02*
X116936900Y-38787700D01*
X116936900Y-38787700D02*
X114779400Y-36630200D01*
X64036100Y-36130100D02*
X58876700Y-36130100D01*
X112561000Y-36630200D02*
X112007200Y-36076400D01*
X112007200Y-36076400D02*
X67678200Y-36076400D01*
X66289000Y-35803800D02*
X66016400Y-36076400D01*
X66016400Y-36076400D02*
X64089800Y-36076400D01*
X67405600Y-35803800D02*
X66289000Y-35803800D01*
X113157700Y-36630200D02*
X112561000Y-36630200D01*
%TO.N,/VariableWeights/CS523*%
X123125400Y-25978900D02*
X122358700Y-25978900D01*
X168382100Y-25690600D02*
X123413700Y-25690600D01*
X66630800Y-25690600D02*
X66440800Y-25880600D01*
X122358700Y-25978900D02*
X122070400Y-25690600D01*
X123413700Y-25690600D02*
X123125400Y-25978900D01*
X122070400Y-25690600D02*
X66630800Y-25690600D01*
%TO.N,/VariableWeights/CS524*%
X168208300Y-154986400D02*
X147878700Y-154986400D01*
X147098700Y-154682900D02*
X146795200Y-154986400D01*
X147575200Y-154682900D02*
X147098700Y-154682900D01*
X147878700Y-154986400D02*
X147575200Y-154682900D01*
X168836200Y-154358500D02*
X168208300Y-154986400D01*
X146795200Y-154986400D02*
X71161100Y-154986400D01*
%TD*%
M02*
