%TF.GenerationSoftware,KiCad,Pcbnew,(6.99.0-3937-g3e53426b6c)*%
%TF.CreationDate,2025-03-11T03:35:31-04:00*%
%TF.ProjectId,AnalogFNN,416e616c-6f67-4464-9e4e-2e6b69636164,rev?*%
%TF.SameCoordinates,Original*%
%TF.FileFunction,Copper,L7,Inr*%
%TF.FilePolarity,Positive*%
%FSLAX46Y46*%
G04 Gerber Fmt 4.6, Leading zero omitted, Abs format (unit mm)*
G04 Created by KiCad (PCBNEW (6.99.0-3937-g3e53426b6c)) date 2025-03-11 03:35:31*
%MOMM*%
%LPD*%
G01*
G04 APERTURE LIST*
%TA.AperFunction,ComponentPad*%
%ADD10O,1.700000X1.700000*%
%TD*%
%TA.AperFunction,ComponentPad*%
%ADD11R,1.700000X1.700000*%
%TD*%
%TA.AperFunction,ViaPad*%
%ADD12C,4.000000*%
%TD*%
%TA.AperFunction,ViaPad*%
%ADD13C,0.800000*%
%TD*%
%TA.AperFunction,ViaPad*%
%ADD14C,0.400000*%
%TD*%
%TA.AperFunction,Conductor*%
%ADD15C,0.250000*%
%TD*%
%TA.AperFunction,Conductor*%
%ADD16C,0.350200*%
%TD*%
%TA.AperFunction,Conductor*%
%ADD17C,0.200000*%
%TD*%
G04 APERTURE END LIST*
D10*
%TO.N,+3V3*%
%TO.C,J2*%
X125599999Y-36984999D03*
%TO.N,GND*%
X125599999Y-34444999D03*
%TO.N,+5V*%
X125599999Y-31904999D03*
%TO.N,GND*%
X125599999Y-29364999D03*
D11*
%TO.N,-5V*%
X125599999Y-26824999D03*
%TD*%
%TO.N,GND*%
%TO.C,J1*%
X119099999Y-26799999D03*
D10*
%TO.N,/SWCLK*%
X119099999Y-29339999D03*
%TO.N,/SWDIO*%
X119099999Y-31879999D03*
%TO.N,+3V3*%
X119099999Y-34419999D03*
%TD*%
D11*
%TO.N,GND*%
%TO.C,SW1*%
X106074999Y-21499999D03*
D10*
%TO.N,Net-(SW1-B)*%
X108614999Y-21499999D03*
%TO.N,+3V3*%
X111154999Y-21499999D03*
%TD*%
D11*
%TO.N,/L5_OUT1*%
%TO.C,J4*%
X467306099Y-73225199D03*
D10*
%TO.N,/L5_OUT2*%
X467306099Y-75765199D03*
%TD*%
%TO.N,/L1_IN12*%
%TO.C,J3*%
X172724999Y-227724999D03*
%TO.N,/L1_IN11*%
X172724999Y-225184999D03*
%TO.N,/L1_IN10*%
X172724999Y-222644999D03*
%TO.N,/L1_IN9*%
X172724999Y-220104999D03*
%TO.N,/L1_IN8*%
X172724999Y-217564999D03*
%TO.N,/L1_IN7*%
X172724999Y-215024999D03*
%TO.N,/L1_IN6*%
X172724999Y-212484999D03*
%TO.N,/L1_IN5*%
X172724999Y-209944999D03*
%TO.N,/L1_IN4*%
X172724999Y-207404999D03*
%TO.N,/L1_IN3*%
X172724999Y-204864999D03*
%TO.N,/L1_IN2*%
X172724999Y-202324999D03*
D11*
%TO.N,/L1_IN1*%
X172724999Y-199784999D03*
%TD*%
D12*
%TO.N,GND*%
X476200000Y-15000000D03*
X476200000Y-355000000D03*
X16100000Y-355000000D03*
X16100000Y-15000000D03*
D13*
X116000000Y-304100000D03*
D14*
X388198000Y-127306000D03*
X211919276Y-246960041D03*
X58400000Y-56900000D03*
D13*
X177325000Y-136465000D03*
X46650000Y-143200000D03*
X249569000Y-202775000D03*
X178075000Y-95565000D03*
D14*
X387398000Y-315582000D03*
X284756000Y-182550000D03*
D13*
X219028000Y-68600000D03*
D14*
X383574000Y-126506000D03*
D13*
X68050000Y-94650000D03*
X402498000Y-51986700D03*
X46700000Y-224000000D03*
X299156000Y-153450000D03*
X68650000Y-107450000D03*
D14*
X283956000Y-62049700D03*
X226800000Y-302500000D03*
D13*
X350856000Y-150690000D03*
D14*
X210872400Y-159700000D03*
X209700000Y-230000000D03*
D13*
X218828000Y-157700000D03*
X146600000Y-316850000D03*
D14*
X380098700Y-155400000D03*
X279609000Y-147125000D03*
D13*
X68200000Y-195400000D03*
D14*
X279609000Y-250125000D03*
D13*
X219066000Y-318805000D03*
D14*
X434500000Y-53000000D03*
D13*
X68400000Y-208400000D03*
D14*
X210344800Y-35900000D03*
D13*
X68650000Y-167900000D03*
D14*
X210928700Y-283600000D03*
D13*
X90800000Y-154300000D03*
X236466000Y-246900000D03*
X89400000Y-323800000D03*
X89200000Y-258000000D03*
D14*
X225000000Y-158100000D03*
D13*
X146300000Y-216700000D03*
X118500000Y-120000000D03*
X90425000Y-94135000D03*
X68150000Y-142000000D03*
X147200000Y-188900000D03*
D14*
X329756000Y-89120200D03*
X284756000Y-337050000D03*
D13*
X46800000Y-318100000D03*
D14*
X335656000Y-60549700D03*
D13*
X91000000Y-167300000D03*
D14*
X228517572Y-336867939D03*
D13*
X116300000Y-323400000D03*
D14*
X383574000Y-280838000D03*
D13*
X248087000Y-97150000D03*
D14*
X329600000Y-327300000D03*
D13*
X47500000Y-127600000D03*
X402498000Y-309207000D03*
X146900000Y-182500000D03*
X116000000Y-257450000D03*
D14*
X283956000Y-268050000D03*
X383574000Y-75062200D03*
D13*
X89800000Y-277300000D03*
X117125000Y-241885000D03*
D14*
X69700000Y-64700000D03*
D13*
X90500000Y-229450000D03*
D14*
X381400000Y-121594400D03*
D13*
X250040000Y-256900000D03*
X129100000Y-29400000D03*
D14*
X279665000Y-163775000D03*
X387398000Y-161250000D03*
D13*
X219436000Y-193200000D03*
X326900000Y-157900000D03*
X350756000Y-206785000D03*
D14*
X331309000Y-144365000D03*
X284756000Y-131050000D03*
D13*
X178675000Y-121265000D03*
X299156000Y-50450200D03*
X233928000Y-140900000D03*
X218790000Y-87850000D03*
D14*
X211100000Y-338200000D03*
X381498000Y-36062200D03*
D13*
X47200000Y-210000000D03*
X234463000Y-175125000D03*
D14*
X383574000Y-229394000D03*
X383107000Y-108531000D03*
X436694000Y-39319900D03*
X225487127Y-228587127D03*
D13*
X236466000Y-282000000D03*
X147100000Y-249000000D03*
D14*
X209000000Y-140437100D03*
D13*
X148650000Y-100100000D03*
X68200000Y-188900000D03*
X118400000Y-160400000D03*
X46200000Y-298800000D03*
X243526000Y-44200000D03*
X350756000Y-308525000D03*
D14*
X208453116Y-141604858D03*
X278056000Y-194250000D03*
X211215277Y-318778704D03*
D13*
X89400000Y-317400000D03*
X299056000Y-313175000D03*
X219066000Y-228150000D03*
D14*
X383107000Y-211419000D03*
D13*
X67300000Y-276900000D03*
D14*
X440940000Y-58712200D03*
D13*
X234398000Y-157975000D03*
X235528000Y-51400000D03*
D14*
X278056000Y-91250200D03*
D13*
X402498000Y-154875000D03*
X67800000Y-242400000D03*
D14*
X329756000Y-241730000D03*
D13*
X114700000Y-30400000D03*
X117325000Y-248485000D03*
D14*
X335656000Y-314900000D03*
D13*
X116825000Y-222585000D03*
X47200000Y-249900000D03*
D14*
X207700000Y-89700000D03*
D13*
X116600000Y-270250000D03*
D14*
X228300000Y-320600000D03*
X383107000Y-159975000D03*
X277867500Y-126511700D03*
D13*
X47000000Y-203400000D03*
D14*
X280132000Y-233250000D03*
D13*
X68650000Y-113950000D03*
X147200000Y-201800000D03*
D14*
X227446800Y-69046800D03*
D13*
X90800000Y-147800000D03*
X146400000Y-264400000D03*
D14*
X210872400Y-177000000D03*
D13*
X101100000Y-33800000D03*
X402498000Y-206319000D03*
X178675000Y-114865000D03*
X447706000Y-99600200D03*
X299056000Y-261675000D03*
D14*
X210057000Y-266000000D03*
X279665000Y-112275000D03*
X33500000Y-23000000D03*
D13*
X118200000Y-100700000D03*
X350756000Y-155915000D03*
X46900000Y-264000000D03*
D14*
X329756000Y-139990000D03*
X228000000Y-195100000D03*
X335656000Y-213160000D03*
D13*
X68450000Y-154900000D03*
D14*
X387297000Y-299049000D03*
X387297000Y-196161000D03*
X226700000Y-283400000D03*
D13*
X147400000Y-208400000D03*
D14*
X227852500Y-140900500D03*
X331309000Y-246105000D03*
X336456000Y-281530000D03*
X210898424Y-282259796D03*
X224676500Y-123700000D03*
D13*
X46600000Y-257600000D03*
D14*
X383574000Y-332282000D03*
D13*
X233790000Y-122550000D03*
D14*
X208793934Y-158083426D03*
D13*
X117125000Y-228985000D03*
X89900000Y-176300000D03*
X46950000Y-162500000D03*
D14*
X22300000Y-79300000D03*
X329756000Y-190860000D03*
X278000000Y-262100000D03*
D13*
X219371000Y-210675000D03*
X177925000Y-149265000D03*
X219131000Y-337105000D03*
D14*
X21900000Y-67300000D03*
D13*
X67300000Y-270400000D03*
X177925000Y-155765000D03*
D14*
X277600000Y-331600000D03*
D13*
X148100000Y-147200000D03*
D14*
X279609000Y-44124900D03*
D13*
X435295400Y-87700000D03*
X66700000Y-257600000D03*
D14*
X31666900Y-69100000D03*
D13*
X146600000Y-176100000D03*
X178875000Y-127865000D03*
D14*
X331832000Y-331600000D03*
D13*
X328137248Y-174175044D03*
D14*
X388198000Y-230194000D03*
D13*
X177625000Y-142865000D03*
X226900548Y-264279565D03*
D14*
X331832000Y-280730000D03*
X380941078Y-70158922D03*
X68599678Y-33493545D03*
D13*
X249126000Y-43000000D03*
D14*
X383107000Y-57087000D03*
X26100000Y-35100000D03*
X279609000Y-301625000D03*
D13*
X235731000Y-301305000D03*
D14*
X436859000Y-91074900D03*
X381274500Y-103900000D03*
D13*
X227251500Y-266000000D03*
X67200000Y-216700000D03*
X47400000Y-289900000D03*
X47300000Y-108100000D03*
X47300000Y-121000000D03*
X90500000Y-202000000D03*
D14*
X27100000Y-47000000D03*
X227417572Y-34412636D03*
X227800000Y-212400000D03*
X226500000Y-89800000D03*
D13*
X116600000Y-283150000D03*
X67300000Y-283300000D03*
X210728000Y-70500000D03*
D14*
X336456000Y-128920000D03*
D13*
X67000000Y-264000000D03*
D14*
X441155000Y-109267000D03*
D13*
X47000000Y-243300000D03*
X218590000Y-122650000D03*
D14*
X209764477Y-228664477D03*
D13*
X116500000Y-330000000D03*
X402598000Y-201094000D03*
D14*
X284756000Y-285550000D03*
D13*
X116600000Y-276750000D03*
X46700000Y-95300000D03*
D14*
X61700000Y-48500000D03*
X434900000Y-35000000D03*
D13*
X117925000Y-194595000D03*
D14*
X335555000Y-196627000D03*
D13*
X146900000Y-236000000D03*
X47000000Y-101700000D03*
X90200000Y-223050000D03*
D14*
X330700000Y-73700000D03*
D13*
X218933000Y-140875000D03*
X146600000Y-323250000D03*
X299156000Y-204950000D03*
X47000000Y-190500000D03*
X148100000Y-160100000D03*
D14*
X210196900Y-264695500D03*
X278056000Y-142750000D03*
D13*
X68200000Y-201800000D03*
X146700000Y-270800000D03*
D14*
X211200000Y-320800000D03*
D13*
X437242074Y-122385286D03*
X116300000Y-263850000D03*
D14*
X387398000Y-264138000D03*
D13*
X90500000Y-242350000D03*
X247626000Y-150700000D03*
X118400000Y-147500000D03*
D14*
X228876500Y-318505800D03*
X210300000Y-53000000D03*
D13*
X218590000Y-105250000D03*
X350856000Y-201560000D03*
X218828000Y-34400000D03*
D14*
X336456000Y-78050200D03*
D13*
X46500000Y-305200000D03*
X67100000Y-310150000D03*
D14*
X227300000Y-35600000D03*
D13*
X350856000Y-48950200D03*
X67100000Y-323050000D03*
X46400000Y-217600000D03*
D14*
X209200000Y-211500000D03*
D13*
X457606000Y-48200200D03*
X402498000Y-103431000D03*
D14*
X280132000Y-78750200D03*
X436594000Y-74319900D03*
X279609000Y-95624900D03*
D13*
X299056000Y-210175000D03*
X47200000Y-270400000D03*
D14*
X432847840Y-103658746D03*
D13*
X116300000Y-317000000D03*
X299056000Y-107175000D03*
X248881000Y-311005000D03*
D14*
X383051000Y-40436900D03*
X335555000Y-298367000D03*
D13*
X90700000Y-248950000D03*
D14*
X283855000Y-148517000D03*
X211000000Y-212900000D03*
X436694000Y-57319900D03*
X387398000Y-212694000D03*
D13*
X235328000Y-34500000D03*
D14*
X331365000Y-110145000D03*
D13*
X91025000Y-119835000D03*
X68350000Y-101050000D03*
X147500000Y-134400000D03*
D14*
X331365000Y-161015000D03*
D13*
X148950000Y-106500000D03*
D14*
X280132000Y-284750000D03*
X436909000Y-107875000D03*
D13*
X177925000Y-162165000D03*
D14*
X279665000Y-266775000D03*
D13*
X47200000Y-276900000D03*
D14*
X383051000Y-143325000D03*
D13*
X235571000Y-193175000D03*
D14*
X383574000Y-177950000D03*
D13*
X90200000Y-182700000D03*
X149150000Y-126000000D03*
D14*
X383107000Y-314307000D03*
X227300000Y-175150500D03*
D13*
X299156000Y-256450000D03*
D14*
X211700000Y-249100000D03*
X35400000Y-35300000D03*
X279169100Y-160400000D03*
D13*
X235663000Y-68625000D03*
D14*
X226853500Y-301300000D03*
X226398897Y-282195671D03*
D13*
X146700000Y-277300000D03*
X46800000Y-324500000D03*
X219266000Y-247000000D03*
D14*
X278056000Y-297250000D03*
D13*
X46350000Y-136800000D03*
D14*
X387297000Y-41829200D03*
X380900000Y-327600000D03*
X331309000Y-42624900D03*
D13*
X68450000Y-161300000D03*
X146600000Y-310350000D03*
X118500000Y-107100000D03*
D14*
X335656000Y-111420000D03*
D13*
X118700000Y-126600000D03*
X109600000Y-39300000D03*
D14*
X283855000Y-251517000D03*
D13*
X117125000Y-235485000D03*
X146900000Y-242400000D03*
X148300000Y-166700000D03*
X350856000Y-303300000D03*
X236366000Y-264500000D03*
X47150000Y-169100000D03*
D14*
X279665000Y-60775000D03*
X228491330Y-229598032D03*
D13*
X146600000Y-223100000D03*
D14*
X226000000Y-106800000D03*
D13*
X68650000Y-120350000D03*
D14*
X284756000Y-79550200D03*
X29300000Y-44300000D03*
D13*
X66800000Y-303750000D03*
D14*
X331365000Y-59275000D03*
X226700000Y-87750500D03*
X244266000Y-258000000D03*
D13*
X402498000Y-257763000D03*
X116525000Y-216185000D03*
X235871000Y-227675000D03*
D14*
X330300000Y-53700000D03*
D13*
X67300000Y-329650000D03*
D14*
X437009000Y-125275000D03*
D13*
X350856000Y-252430000D03*
D14*
X227714500Y-122575500D03*
D13*
X146900000Y-229500000D03*
X178675000Y-108365000D03*
X178125000Y-168765000D03*
X148950000Y-113000000D03*
D14*
X209782422Y-195393922D03*
X209700000Y-175600000D03*
X280132000Y-181750000D03*
D13*
X402598000Y-149650000D03*
X118100000Y-141100000D03*
X148350000Y-93700000D03*
X67500000Y-289900000D03*
X47200000Y-283300000D03*
X147200000Y-195400000D03*
X146800000Y-329850000D03*
D14*
X22200000Y-90200000D03*
D13*
X90200000Y-135000000D03*
X89400000Y-310900000D03*
X117800000Y-134700000D03*
X68850000Y-126950000D03*
X90500000Y-195600000D03*
X67600000Y-176100000D03*
D14*
X46700000Y-40600000D03*
X69700000Y-54000000D03*
D13*
X67900000Y-182500000D03*
D14*
X335555000Y-44017200D03*
X383051000Y-246213000D03*
X328600000Y-309200000D03*
D13*
X66500000Y-297350000D03*
X402598000Y-46762200D03*
X106100000Y-19000000D03*
D14*
X382700000Y-259500000D03*
X387398000Y-58361700D03*
X210075066Y-51685574D03*
X329756000Y-292600000D03*
D13*
X116300000Y-310500000D03*
D14*
X243839000Y-203921000D03*
D13*
X218828000Y-175100000D03*
X146900000Y-290300000D03*
X219231000Y-301505000D03*
D14*
X283956000Y-165050000D03*
X277600000Y-313700000D03*
X34500000Y-54700000D03*
X211379500Y-122650500D03*
D13*
X47000000Y-197000000D03*
D14*
X381498000Y-293282000D03*
X280132000Y-130250000D03*
D13*
X117625000Y-181695000D03*
D14*
X331832000Y-128120000D03*
X335555000Y-247497000D03*
X227592400Y-70400000D03*
D13*
X146100000Y-258000000D03*
D14*
X209180803Y-106933075D03*
X336456000Y-332400000D03*
D13*
X146700000Y-283700000D03*
D14*
X211600000Y-337130800D03*
D13*
X90700000Y-208600000D03*
X90725000Y-100535000D03*
D14*
X57000000Y-35500000D03*
D13*
X327240400Y-207900000D03*
X350756000Y-257655000D03*
X118500000Y-113600000D03*
D14*
X278056000Y-245750000D03*
X381498000Y-87506200D03*
X283855000Y-97017200D03*
D13*
X89800000Y-270800000D03*
D14*
X224676500Y-142900000D03*
X331832000Y-178990000D03*
X383051000Y-297657000D03*
X224500000Y-176700000D03*
D13*
X67500000Y-223100000D03*
X235371000Y-210275000D03*
D14*
X211554600Y-87850500D03*
D13*
X146000000Y-297550000D03*
D14*
X329756000Y-38250200D03*
D13*
X46950000Y-149600000D03*
D14*
X241825000Y-151825000D03*
D13*
X67100000Y-316650000D03*
D14*
X284756000Y-234050000D03*
X227196800Y-51796800D03*
X335656000Y-264030000D03*
X331000000Y-277200000D03*
D13*
X402598000Y-252538000D03*
X90800000Y-160700000D03*
X382668500Y-225900000D03*
D14*
X335555000Y-94887200D03*
X331309000Y-93494900D03*
X383107000Y-262863000D03*
D13*
X178375000Y-101965000D03*
D14*
X331762178Y-226562178D03*
D13*
X455806000Y-98300200D03*
X47000000Y-331100000D03*
D14*
X336456000Y-230660000D03*
X387297000Y-93273200D03*
D13*
X350756000Y-54174700D03*
D14*
X383051000Y-91880900D03*
D13*
X89500000Y-264400000D03*
D14*
X228246500Y-210275500D03*
D13*
X118125000Y-207595000D03*
D14*
X228400000Y-338800000D03*
D13*
X68450000Y-148400000D03*
D14*
X388198000Y-281638000D03*
D13*
X148950000Y-119400000D03*
X129000000Y-34400000D03*
D14*
X433901300Y-70100000D03*
D13*
X91025000Y-106935000D03*
D14*
X208900000Y-105254900D03*
D13*
X402598000Y-98206200D03*
X236001000Y-318480000D03*
X68000000Y-249000000D03*
X117900000Y-94300000D03*
D14*
X210800000Y-302800000D03*
D13*
X46400000Y-177700000D03*
X117925000Y-200995000D03*
X383320800Y-174600000D03*
D14*
X383051000Y-194769000D03*
D13*
X90500000Y-189100000D03*
D14*
X388198000Y-333082000D03*
X388198000Y-75862200D03*
X387297000Y-144717000D03*
D13*
X326917692Y-105913388D03*
X47300000Y-114600000D03*
X117925000Y-188095000D03*
X89600000Y-330400000D03*
X146300000Y-303950000D03*
D14*
X46400000Y-67700000D03*
D13*
X90500000Y-141400000D03*
D14*
X227500000Y-53100000D03*
X209788500Y-194000000D03*
X278056000Y-39750200D03*
X331365000Y-262755000D03*
X381498000Y-241838000D03*
X331365000Y-211885000D03*
X279700000Y-178800000D03*
X283855000Y-45517200D03*
X331309000Y-296975000D03*
D13*
X147800000Y-140800000D03*
X219266000Y-282300000D03*
X275103010Y-109582555D03*
D14*
X335555000Y-145757000D03*
D13*
X381161100Y-206900000D03*
X47000000Y-230400000D03*
D14*
X336456000Y-179790000D03*
D13*
X47000000Y-236900000D03*
D14*
X329500000Y-258200000D03*
D13*
X67800000Y-229500000D03*
X210728000Y-68300000D03*
X91025000Y-113435000D03*
X326904592Y-124825820D03*
D14*
X280132000Y-336250000D03*
X381498000Y-138950000D03*
D13*
X350856000Y-99820200D03*
D14*
X381200000Y-52400000D03*
X210806444Y-300790794D03*
X441255000Y-126667000D03*
D13*
X299156000Y-307950000D03*
X89900000Y-216650000D03*
D14*
X440940000Y-40712200D03*
X279665000Y-215275000D03*
D13*
X116800000Y-289750000D03*
X90000000Y-290300000D03*
D14*
X283855000Y-303017000D03*
D13*
X236296000Y-336930000D03*
D14*
X283855000Y-200017000D03*
D13*
X219028000Y-51300000D03*
D14*
X283956000Y-319550000D03*
X22800000Y-56800000D03*
D13*
X91225000Y-126435000D03*
X118400000Y-154000000D03*
D14*
X283956000Y-216550000D03*
X278600000Y-55300000D03*
D13*
X115700000Y-297700000D03*
X46800000Y-311600000D03*
D14*
X388198000Y-178750000D03*
X224600000Y-106000000D03*
X278000000Y-280100000D03*
D13*
X46950000Y-156100000D03*
X299156000Y-101950000D03*
X88800000Y-298100000D03*
D14*
X331832000Y-77250200D03*
X226500000Y-249200000D03*
X227700000Y-193200000D03*
X243131000Y-312105000D03*
X211600000Y-34500000D03*
X331832000Y-229860000D03*
D13*
X233990000Y-105150000D03*
D14*
X441105000Y-92467200D03*
X279295200Y-229800000D03*
X23700000Y-25300000D03*
D13*
X219066000Y-264900000D03*
X89800000Y-283700000D03*
D14*
X383000000Y-277600000D03*
X279665000Y-318275000D03*
D13*
X148100000Y-153700000D03*
X67850000Y-135600000D03*
D14*
X440840000Y-75712200D03*
D13*
X90500000Y-235950000D03*
X299056000Y-55674700D03*
X118600000Y-167000000D03*
D14*
X331365000Y-313625000D03*
D13*
X117325000Y-175295000D03*
X299056000Y-158675000D03*
X449406000Y-49600200D03*
X46700000Y-184100000D03*
X402598000Y-303982000D03*
D14*
X381100000Y-309700000D03*
D13*
X350756000Y-105045000D03*
D14*
X208715000Y-123600000D03*
X224573700Y-160200000D03*
X335656000Y-162290000D03*
D13*
X59100000Y-25400000D03*
X89100000Y-304500000D03*
X453772000Y-100655000D03*
X455507000Y-50600200D03*
X234090000Y-87750000D03*
D14*
X38800000Y-41000000D03*
D13*
X242491000Y-98347500D03*
D14*
X277856000Y-74050200D03*
X283956000Y-113550000D03*
X279609000Y-198625000D03*
X381498000Y-190394000D03*
D13*
X67800000Y-236000000D03*
D14*
X226500000Y-247900000D03*
X387398000Y-109806000D03*
X279295200Y-211600000D03*
D13*
%TO.N,+3V3*%
X116500000Y-33600000D03*
X111100000Y-24200000D03*
%TO.N,Net-(U27B-+)*%
X291856000Y-50850200D03*
X293756000Y-55050200D03*
%TO.N,Net-(C20-Pad2)*%
X299956000Y-53350200D03*
X296245000Y-55150200D03*
%TO.N,Net-(U44B-+)*%
X291856000Y-256850000D03*
X293756000Y-261050000D03*
%TO.N,Net-(U31B-+)*%
X293756000Y-106550000D03*
X291856000Y-102350000D03*
%TO.N,Net-(C23-Pad2)*%
X296245000Y-106650000D03*
X299956000Y-104850000D03*
%TO.N,Net-(U36B-+)*%
X291856000Y-153850000D03*
X293756000Y-158050000D03*
%TO.N,Net-(C26-Pad2)*%
X299956000Y-156350000D03*
X296245000Y-158150000D03*
%TO.N,Net-(U63B-+)*%
X345456000Y-206160000D03*
X343556000Y-201960000D03*
%TO.N,Net-(U40B-+)*%
X293756000Y-209550000D03*
X291856000Y-205350000D03*
%TO.N,Net-(C29-Pad2)*%
X299956000Y-207850000D03*
X296245000Y-209650000D03*
%TO.N,Net-(C32-Pad2)*%
X296245000Y-261150000D03*
X299956000Y-259350000D03*
%TO.N,Net-(U48B-+)*%
X293756000Y-312550000D03*
X291856000Y-308350000D03*
%TO.N,Net-(C35-Pad2)*%
X296245000Y-312650000D03*
X299956000Y-310850000D03*
%TO.N,Net-(U51B-+)*%
X345456000Y-53550200D03*
X343556000Y-49350200D03*
%TO.N,Net-(C38-Pad2)*%
X347945000Y-53650200D03*
X351656000Y-51850200D03*
%TO.N,Net-(U55B-+)*%
X343556000Y-100220000D03*
X345456000Y-104420000D03*
%TO.N,Net-(C41-Pad2)*%
X347945000Y-104520000D03*
X351656000Y-102720000D03*
%TO.N,Net-(U59B-+)*%
X343556000Y-151090000D03*
X345456000Y-155290000D03*
%TO.N,Net-(C44-Pad2)*%
X351656000Y-153590000D03*
X347945000Y-155390000D03*
%TO.N,Net-(C47-Pad2)*%
X351656000Y-204460000D03*
X347945000Y-206260000D03*
%TO.N,Net-(U67B-+)*%
X343556000Y-252830000D03*
X345456000Y-257030000D03*
%TO.N,Net-(C50-Pad2)*%
X351656000Y-255330000D03*
X347945000Y-257130000D03*
%TO.N,Net-(U71B-+)*%
X343556000Y-303700000D03*
X345456000Y-307900000D03*
%TO.N,Net-(C53-Pad2)*%
X347945000Y-308000000D03*
X351656000Y-306200000D03*
%TO.N,Net-(U75B-+)*%
X395298000Y-47162200D03*
X397198000Y-51362200D03*
%TO.N,Net-(C56-Pad2)*%
X403398000Y-49662200D03*
X399687000Y-51462200D03*
%TO.N,Net-(U79B-+)*%
X395298000Y-98606200D03*
X397198000Y-102806000D03*
%TO.N,Net-(C59-Pad2)*%
X399687000Y-102906000D03*
X403398000Y-101106000D03*
%TO.N,Net-(U83B-+)*%
X395298000Y-150050000D03*
X397198000Y-154250000D03*
%TO.N,Net-(C62-Pad2)*%
X399687000Y-154350000D03*
X403398000Y-152550000D03*
%TO.N,Net-(U87B-+)*%
X397198000Y-205694000D03*
X395298000Y-201494000D03*
%TO.N,Net-(C65-Pad2)*%
X399687000Y-205794000D03*
X403398000Y-203994000D03*
%TO.N,Net-(U91B-+)*%
X397198000Y-257138000D03*
X395298000Y-252938000D03*
%TO.N,Net-(C68-Pad2)*%
X403398000Y-255438000D03*
X399687000Y-257238000D03*
%TO.N,Net-(U95B-+)*%
X395298000Y-304382000D03*
X397198000Y-308582000D03*
%TO.N,Net-(C71-Pad2)*%
X403398000Y-306882000D03*
X399687000Y-308682000D03*
%TO.N,Net-(C3002-Pad2)*%
X249087000Y-100350000D03*
X246987000Y-100750000D03*
%TO.N,Net-(U13001B-+)*%
X451906000Y-45900200D03*
X450906000Y-51000200D03*
%TO.N,Net-(U13001C--)*%
X452306000Y-53800200D03*
X454706000Y-52000200D03*
%TO.N,Net-(U17001B-+)*%
X449171000Y-101055000D03*
X450171000Y-95955200D03*
%TO.N,Net-(U17001C--)*%
X450571000Y-103855000D03*
X452971000Y-102055000D03*
%TO.N,Net-(C23002-Pad2)*%
X248026000Y-46600000D03*
X250126000Y-46200000D03*
%TO.N,Net-(C33002-Pad2)*%
X246526000Y-154300000D03*
X248626000Y-153900000D03*
%TO.N,Net-(C131002-Pad2)*%
X248469000Y-206375000D03*
X250569000Y-205975000D03*
%TO.N,Net-(C139002-Pad2)*%
X248940000Y-260500000D03*
X251040000Y-260100000D03*
%TO.N,Net-(C148002-Pad2)*%
X249881000Y-314205000D03*
X247781000Y-314605000D03*
%TO.N,Net-(Q2001A-S1)*%
X211990000Y-103150000D03*
X211990000Y-107350000D03*
D14*
%TO.N,/InNeuron_2/OUT*%
X248100000Y-96200000D03*
X284600000Y-202800000D03*
X281800000Y-306200000D03*
X280000000Y-254200000D03*
X281800000Y-48900000D03*
X281900000Y-100200000D03*
X284100000Y-254222300D03*
X281600000Y-152000000D03*
D13*
%TO.N,/InNeuron_1/OUT*%
X278103700Y-248747400D03*
X277792400Y-196203100D03*
X278832500Y-299409900D03*
X276983900Y-40798000D03*
X277835500Y-145602200D03*
X277835500Y-94580500D03*
%TO.N,/InNeuron_3/OUT*%
X278203300Y-232069900D03*
X279058500Y-281744100D03*
X278181200Y-128454700D03*
X246956900Y-130447300D03*
X246956900Y-147775000D03*
X278936100Y-333620000D03*
X277870600Y-76647100D03*
X277885500Y-180262300D03*
%TO.N,/Neuron6_1/OUT*%
X331279500Y-90789700D03*
X329641800Y-243737500D03*
X330768200Y-194608700D03*
X329026200Y-295833100D03*
X329608800Y-40780300D03*
D14*
%TO.N,/Neuron6_10/IN2*%
X333700000Y-250800000D03*
X333500000Y-301600000D03*
X333551072Y-97951072D03*
X336200000Y-46600000D03*
X298358240Y-102002762D03*
X333500000Y-199900000D03*
X333500000Y-149200000D03*
D13*
%TO.N,/Neuron6_10/IN3*%
X329900500Y-177100600D03*
X330636100Y-76064700D03*
X297635200Y-154478300D03*
X329888600Y-126462100D03*
X297635200Y-174284500D03*
X330405300Y-224457300D03*
X330636100Y-328986000D03*
X329898100Y-278988300D03*
%TO.N,/Neuron6_10/IN4*%
X336347500Y-233822500D03*
X334058300Y-184238700D03*
X298053400Y-188232700D03*
X336347500Y-335562500D03*
X334625600Y-82483600D03*
X298053400Y-205198400D03*
X335361500Y-133348200D03*
X334058300Y-285978700D03*
%TO.N,/Neuron6_10/IN5*%
X329825800Y-210622400D03*
X329673100Y-57288300D03*
X329591800Y-158772700D03*
X329558800Y-107907500D03*
X329558800Y-260765200D03*
X329689100Y-311643600D03*
%TO.N,/Neuron6_10/IN6*%
X334036100Y-217292600D03*
X334036100Y-319052000D03*
X334036100Y-166416000D03*
X297062800Y-309242400D03*
X334073000Y-64694600D03*
X334036100Y-268181400D03*
X334036100Y-115579200D03*
%TO.N,/Neuron6_13/IN1*%
X381805600Y-141241400D03*
X377993400Y-38962200D03*
X380843900Y-244025500D03*
X381061900Y-194210500D03*
X381403200Y-90595300D03*
X381281400Y-295833100D03*
D14*
%TO.N,/Neuron6_13/IN2*%
X350060914Y-99904126D03*
X385600000Y-148100000D03*
X385005200Y-302300000D03*
X385100000Y-250900000D03*
X385600000Y-45100000D03*
X385300000Y-199500000D03*
X385500000Y-96475500D03*
D13*
%TO.N,/Neuron6_13/IN3*%
X381621500Y-279042300D03*
X351894000Y-174284500D03*
X381627800Y-176277100D03*
X348448600Y-151955400D03*
X381314000Y-124469500D03*
X381550300Y-72806300D03*
X381811000Y-329814900D03*
X381663700Y-227416500D03*
%TO.N,/Neuron6_10/OUT*%
X350074000Y-201023400D03*
X386219500Y-234613900D03*
X386155600Y-286113100D03*
X386283400Y-131762700D03*
X386192700Y-80323200D03*
X350074000Y-183822400D03*
X388141900Y-336231700D03*
X386431200Y-183184900D03*
%TO.N,/Neuron6_11/OUT*%
X381403600Y-260819200D03*
X382178300Y-105763200D03*
X381987700Y-158656000D03*
X348448600Y-253712700D03*
X381572900Y-311773900D03*
X381425100Y-55312300D03*
X381061900Y-209399800D03*
D14*
%TO.N,/Neuron6_12/OUT*%
X383788000Y-113295800D03*
D13*
X383789100Y-216140900D03*
X383580200Y-319981400D03*
X383763500Y-164778400D03*
X385778300Y-62525100D03*
X385550100Y-268373000D03*
%TO.N,/Neuron6_13/OUT*%
X436022900Y-123031900D03*
X435186100Y-37962600D03*
%TO.N,/Neuron6_14/OUT*%
X439368400Y-43934600D03*
X401448700Y-98462800D03*
X438419800Y-129667900D03*
X401448700Y-129667900D03*
%TO.N,/Neuron6_15/OUT*%
X401816000Y-149119900D03*
X403740700Y-108528700D03*
X435094900Y-73170500D03*
X434850800Y-106536100D03*
%TO.N,/Neuron6_16/OUT*%
X437700700Y-112535000D03*
D14*
X438700000Y-79100000D03*
D13*
X434400000Y-112100000D03*
%TO.N,/Neuron6_17/OUT*%
X435144900Y-55910200D03*
X435227400Y-89635800D03*
X401816000Y-252018700D03*
%TO.N,/Neuron6_18/OUT*%
X438944400Y-62084000D03*
X407728900Y-301810900D03*
X438634100Y-95580100D03*
%TO.N,/InNeuron_4/OUT*%
X282250500Y-135939200D03*
X284574200Y-287595700D03*
X282656500Y-238475400D03*
X282733500Y-84018900D03*
X282889500Y-187003100D03*
X247943600Y-199889000D03*
X284574200Y-340247100D03*
%TO.N,/InNeuron_5/OUT*%
X277974600Y-58713700D03*
D14*
X278549500Y-209947500D03*
D13*
X277997800Y-110521300D03*
X278644600Y-158435100D03*
X274831300Y-259036200D03*
X278000400Y-315974000D03*
%TO.N,/InNeuron_6/OUT*%
X282336100Y-66193900D03*
X247817400Y-311266300D03*
X282053500Y-220667800D03*
X282249400Y-272177000D03*
X282100600Y-170176200D03*
X282336100Y-323679800D03*
X280352600Y-116971000D03*
D14*
%TO.N,-5V*%
X387306000Y-41229800D03*
X335564000Y-43417800D03*
X387306000Y-195562000D03*
D13*
X233353000Y-88475700D03*
D14*
X440949000Y-58112800D03*
D13*
X235134000Y-228401000D03*
D14*
X284762000Y-284905000D03*
X335564000Y-94287800D03*
X335564000Y-145158000D03*
X283864000Y-147918000D03*
X284762000Y-78904600D03*
D13*
X218091000Y-35125700D03*
X233253000Y-105876000D03*
X218329000Y-319531000D03*
D14*
X387398000Y-212094000D03*
D13*
X235559000Y-337656000D03*
X218634000Y-211401000D03*
X234591000Y-35225700D03*
X218494000Y-302231000D03*
D14*
X441114000Y-91867800D03*
X283956000Y-164450000D03*
D13*
X235729000Y-282726000D03*
D14*
X388204000Y-280993000D03*
X336462000Y-179145000D03*
X388204000Y-332437000D03*
X387306000Y-298450000D03*
X336462000Y-77404600D03*
X388204000Y-178105000D03*
X441264000Y-126068000D03*
D13*
X234834000Y-193901000D03*
X233726000Y-175851000D03*
D14*
X335656000Y-263430000D03*
X283956000Y-267450000D03*
D13*
X234994000Y-302031000D03*
D14*
X387398000Y-314982000D03*
X283956000Y-112950000D03*
D13*
X234791000Y-52125700D03*
D14*
X441164000Y-108668000D03*
X283864000Y-250918000D03*
X387306000Y-144118000D03*
X336462000Y-331755000D03*
D13*
X129100000Y-26800000D03*
X218394000Y-337831000D03*
D14*
X283956000Y-215950000D03*
X284762000Y-181905000D03*
D13*
X218091000Y-158426000D03*
X218053000Y-88575700D03*
D14*
X335656000Y-314300000D03*
X387398000Y-57762200D03*
X387398000Y-263538000D03*
D13*
X218699000Y-193926000D03*
D14*
X388204000Y-126661000D03*
D13*
X233191000Y-141626000D03*
D14*
X336462000Y-280885000D03*
D13*
X218291000Y-52025700D03*
X218329000Y-265626000D03*
D14*
X284762000Y-130405000D03*
X283864000Y-302418000D03*
X284762000Y-233405000D03*
X283956000Y-318950000D03*
D13*
X218291000Y-69325700D03*
X217853000Y-123376000D03*
X234926000Y-69350700D03*
X233661000Y-158701000D03*
D14*
X335656000Y-59950200D03*
X335656000Y-161690000D03*
D13*
X217853000Y-105976000D03*
D14*
X336462000Y-230015000D03*
D13*
X218529000Y-247726000D03*
D14*
X284762000Y-336405000D03*
X440849000Y-75112800D03*
X335564000Y-297768000D03*
X283864000Y-44917800D03*
X335564000Y-196028000D03*
X387398000Y-160650000D03*
X387306000Y-247006000D03*
X440949000Y-40112800D03*
X387398000Y-109206000D03*
D13*
X235264000Y-319206000D03*
X218196000Y-141601000D03*
X218091000Y-175826000D03*
D14*
X283864000Y-199418000D03*
D13*
X218329000Y-228876000D03*
X235629000Y-265226000D03*
X235729000Y-247626000D03*
D14*
X283864000Y-96417800D03*
X388204000Y-229549000D03*
X283956000Y-61450200D03*
X335656000Y-110820000D03*
X335656000Y-212560000D03*
X388204000Y-75216600D03*
X387306000Y-92673800D03*
D13*
X218529000Y-283026000D03*
D14*
X336462000Y-128275000D03*
D13*
X233053000Y-123276000D03*
X234634000Y-211001000D03*
D14*
X335564000Y-246898000D03*
D13*
%TO.N,+5V*%
X90700000Y-247550000D03*
X117900000Y-93000000D03*
D14*
X211000000Y-302100000D03*
X331296000Y-314221000D03*
D13*
X67300000Y-328250000D03*
X147100000Y-247600000D03*
X146600000Y-221900000D03*
X149100000Y-137000000D03*
X396490000Y-50553400D03*
X118125000Y-206195000D03*
X150000000Y-96400000D03*
X46950000Y-148400000D03*
D14*
X279596000Y-61370600D03*
X147800000Y-332756800D03*
X147700000Y-251500000D03*
D13*
X46500000Y-304000000D03*
D14*
X33100000Y-70806000D03*
X224100000Y-159800000D03*
X208500000Y-106656700D03*
X69221300Y-157016600D03*
D13*
X118200000Y-99500000D03*
D14*
X48000000Y-212668400D03*
D13*
X47300000Y-106900000D03*
X46350000Y-135500000D03*
D14*
X178882778Y-172882778D03*
D13*
X124800000Y-105500000D03*
X117325000Y-173995000D03*
X90500000Y-187900000D03*
D14*
X383039000Y-109127000D03*
D13*
X344747000Y-154481000D03*
X116300000Y-315700000D03*
X147500000Y-133100000D03*
X47000000Y-100500000D03*
X48500000Y-123600000D03*
D14*
X436708000Y-57931100D03*
D13*
X177625000Y-141665000D03*
X177925000Y-160965000D03*
D14*
X383039000Y-314903000D03*
D13*
X226300000Y-265400000D03*
X177925000Y-148065000D03*
X117125000Y-234185000D03*
D14*
X241827000Y-152495000D03*
D13*
X146300000Y-302750000D03*
X147800000Y-139600000D03*
X146900000Y-241200000D03*
X90800000Y-153000000D03*
D14*
X331703000Y-77879100D03*
D13*
X116300000Y-262650000D03*
D14*
X209788500Y-194700000D03*
X208100000Y-123300000D03*
D13*
X48600000Y-130000000D03*
X89400000Y-322600000D03*
D14*
X209000000Y-158646400D03*
D13*
X178125000Y-167365000D03*
D14*
X211658800Y-247500000D03*
X93316468Y-225744928D03*
D13*
X148100000Y-152400000D03*
X89600000Y-329000000D03*
D14*
X331296000Y-110741000D03*
D13*
X67200000Y-215400000D03*
D14*
X383445000Y-75691100D03*
X209700000Y-229400000D03*
D13*
X90500000Y-194300000D03*
D14*
X91600000Y-96923700D03*
D13*
X90500000Y-241150000D03*
D14*
X437023000Y-125886000D03*
D13*
X67850000Y-134300000D03*
X46650000Y-142000000D03*
D14*
X68500000Y-292722700D03*
D13*
X118700000Y-125200000D03*
D14*
X228400000Y-337500000D03*
X331296000Y-212481000D03*
D13*
X117325000Y-247085000D03*
D14*
X47800000Y-226700000D03*
D13*
X147400000Y-207000000D03*
X293047000Y-260241000D03*
X47300000Y-119800000D03*
X90500000Y-228250000D03*
D14*
X383065000Y-41048100D03*
D13*
X396490000Y-256329000D03*
D14*
X94047546Y-219417261D03*
D13*
X68600000Y-14743400D03*
X89800000Y-269600000D03*
X90200000Y-133700000D03*
X117800000Y-133400000D03*
X68450000Y-153600000D03*
X118500000Y-105900000D03*
X47000000Y-195700000D03*
D14*
X279623000Y-250736000D03*
X148100000Y-155510900D03*
D13*
X89500000Y-263200000D03*
X68000000Y-247600000D03*
D14*
X383065000Y-298268000D03*
D13*
X124400000Y-137000000D03*
X344747000Y-256221000D03*
D14*
X279596000Y-112871000D03*
D13*
X146400000Y-263200000D03*
X123700000Y-156700000D03*
X66800000Y-302550000D03*
D14*
X89300000Y-301539300D03*
D13*
X116800000Y-288350000D03*
X242600000Y-99341000D03*
D14*
X90900000Y-292700000D03*
D13*
X146900000Y-181300000D03*
X147200000Y-200600000D03*
D14*
X436873000Y-91686100D03*
X177462256Y-156456460D03*
X91531700Y-251352900D03*
X48508278Y-146208278D03*
D13*
X148950000Y-105300000D03*
X67600000Y-174800000D03*
D14*
X64200000Y-25600000D03*
X47800000Y-180300000D03*
D13*
X209928000Y-69100000D03*
D14*
X33500000Y-27400000D03*
X227300000Y-52400000D03*
D13*
X124700000Y-111900000D03*
D14*
X47800000Y-333500000D03*
D13*
X89900000Y-175000000D03*
D14*
X279623000Y-44736100D03*
D13*
X66700000Y-256300000D03*
D14*
X68300000Y-331707800D03*
X279623000Y-96236100D03*
X147641872Y-238641872D03*
D13*
X149800000Y-167300000D03*
D14*
X47800000Y-307900000D03*
X331703000Y-281359000D03*
X226500000Y-248600000D03*
D13*
X89100000Y-303300000D03*
X89400000Y-309700000D03*
X91025000Y-105735000D03*
D14*
X226800000Y-301900000D03*
X331296000Y-59870600D03*
X93433600Y-211000000D03*
D13*
X48700000Y-117200000D03*
D14*
X209374688Y-265839364D03*
D13*
X68650000Y-106250000D03*
X68150000Y-140800000D03*
D14*
X210865822Y-319265822D03*
D13*
X148650000Y-98900000D03*
X48500000Y-97900000D03*
X344747000Y-103611000D03*
D14*
X148857664Y-219377564D03*
D13*
X118400000Y-146300000D03*
X446976000Y-100510000D03*
D14*
X210246800Y-52346800D03*
D13*
X178875000Y-126465000D03*
X293047000Y-54241400D03*
X146300000Y-215400000D03*
X149600000Y-182606400D03*
D14*
X331703000Y-179619000D03*
D13*
X46400000Y-216300000D03*
X46800000Y-310400000D03*
X118400000Y-159200000D03*
D14*
X279596000Y-164371000D03*
D13*
X178675000Y-113565000D03*
X46900000Y-262800000D03*
X47150000Y-167700000D03*
X68200000Y-194100000D03*
X150200000Y-115300000D03*
X90425000Y-92835000D03*
D14*
X68100000Y-38700000D03*
X117300000Y-332756800D03*
X331323000Y-94106100D03*
D13*
X67800000Y-234700000D03*
D14*
X227624600Y-210900000D03*
X47700000Y-193100000D03*
D13*
X396490000Y-204885000D03*
D14*
X33000000Y-59500000D03*
X383065000Y-195380000D03*
D13*
X90500000Y-200800000D03*
X68650000Y-166500000D03*
D14*
X69612178Y-110992478D03*
D13*
X149400000Y-149200000D03*
X117125000Y-240685000D03*
X146600000Y-322050000D03*
X118600000Y-165600000D03*
X47200000Y-275600000D03*
X47000000Y-229200000D03*
X396490000Y-307773000D03*
D14*
X209021590Y-141237090D03*
X280003000Y-285379000D03*
D13*
X147200000Y-194100000D03*
X47000000Y-329700000D03*
X90000000Y-288900000D03*
D14*
X69221300Y-129200000D03*
X383039000Y-212015000D03*
D13*
X89400000Y-316100000D03*
X146600000Y-174800000D03*
D14*
X93248402Y-238435257D03*
D13*
X47000000Y-242100000D03*
D14*
X331323000Y-43236100D03*
D13*
X89900000Y-215350000D03*
X146700000Y-269600000D03*
D14*
X66400000Y-57800000D03*
X68800000Y-219359500D03*
X383065000Y-143936000D03*
X211000000Y-337600000D03*
D13*
X88800000Y-296800000D03*
X46950000Y-154800000D03*
X47200000Y-248500000D03*
X47200000Y-208600000D03*
D14*
X68200000Y-319300000D03*
D13*
X147200000Y-187700000D03*
X116000000Y-302900000D03*
X146900000Y-234700000D03*
D14*
X47649372Y-220149372D03*
X210900000Y-212000000D03*
D13*
X148950000Y-111700000D03*
D14*
X68900000Y-226600000D03*
D13*
X116600000Y-281950000D03*
X117925000Y-199795000D03*
X67800000Y-228300000D03*
X67100000Y-321850000D03*
X68850000Y-125550000D03*
X118500000Y-95900000D03*
X148200000Y-141900000D03*
X116500000Y-328600000D03*
X148100000Y-158900000D03*
D14*
X383065000Y-92492100D03*
D13*
X151700000Y-107000000D03*
X48700000Y-110700000D03*
X67100000Y-315350000D03*
D14*
X48100000Y-252300000D03*
D13*
X66500000Y-296050000D03*
X116300000Y-309300000D03*
D14*
X244243000Y-258647000D03*
D13*
X90500000Y-234650000D03*
D14*
X47600000Y-320600000D03*
X34570700Y-81700000D03*
X331296000Y-263351000D03*
X226853500Y-318964500D03*
D13*
X146900000Y-288900000D03*
D14*
X383039000Y-57682600D03*
D13*
X146700000Y-276000000D03*
D14*
X280003000Y-79379100D03*
D13*
X124000000Y-143100000D03*
X293047000Y-105741000D03*
X117925000Y-193295000D03*
X116600000Y-275450000D03*
D14*
X436608000Y-74931100D03*
D13*
X67800000Y-241200000D03*
D14*
X48400000Y-292722700D03*
D13*
X148950000Y-118200000D03*
X146800000Y-328450000D03*
X67500000Y-221900000D03*
X67100000Y-308950000D03*
X91000000Y-165900000D03*
D14*
X227500000Y-69700000D03*
D13*
X178075000Y-94265000D03*
D14*
X180382218Y-128532818D03*
X280003000Y-233879000D03*
X225545300Y-229200000D03*
D13*
X396490000Y-153441000D03*
X146000000Y-296250000D03*
X67500000Y-288500000D03*
X123500000Y-149400000D03*
X68650000Y-112650000D03*
X46800000Y-323300000D03*
D14*
X227300000Y-35000497D03*
D13*
X117925000Y-186895000D03*
X115700000Y-296400000D03*
X46400000Y-176400000D03*
X153000000Y-127300000D03*
D14*
X280003000Y-182379000D03*
X117100000Y-318700000D03*
D13*
X47300000Y-113300000D03*
D14*
X90700000Y-279900000D03*
D13*
X146100000Y-256700000D03*
X90700000Y-207200000D03*
D14*
X243862000Y-204557000D03*
D13*
X149300000Y-162700000D03*
D14*
X224600000Y-141759400D03*
D13*
X68050000Y-93350000D03*
X151800000Y-105600000D03*
X46700000Y-222800000D03*
X46950000Y-161300000D03*
D14*
X118801500Y-210000000D03*
X331703000Y-128749000D03*
X47800000Y-171563200D03*
D13*
X116825000Y-221385000D03*
D14*
X47800000Y-199600000D03*
X93447820Y-232493872D03*
D13*
X47000000Y-235600000D03*
D14*
X331323000Y-297586000D03*
D13*
X89200000Y-256700000D03*
D14*
X50700000Y-33356600D03*
X68200000Y-299510500D03*
D13*
X178675000Y-107165000D03*
D14*
X68900000Y-251400000D03*
X383065000Y-246824000D03*
X93286176Y-172527284D03*
D13*
X90200000Y-181500000D03*
D14*
X69100000Y-184321800D03*
X225404600Y-88600000D03*
X90900000Y-260700000D03*
D13*
X243526000Y-45199500D03*
D14*
X69800000Y-163372900D03*
X280003000Y-336879000D03*
D13*
X46700000Y-94000000D03*
X91025000Y-112135000D03*
X67300000Y-282100000D03*
X47200000Y-282100000D03*
D14*
X279623000Y-199236000D03*
X280003000Y-130879000D03*
D13*
X116525000Y-214885000D03*
D14*
X383039000Y-160571000D03*
D13*
X146900000Y-228300000D03*
X396490000Y-101997000D03*
D14*
X279596000Y-318871000D03*
D13*
X68450000Y-160100000D03*
X178375000Y-100765000D03*
X91225000Y-125035000D03*
D14*
X90653222Y-273353222D03*
D13*
X67000000Y-262800000D03*
X68200000Y-187700000D03*
X117625000Y-180495000D03*
D14*
X383445000Y-281467000D03*
D13*
X89800000Y-276000000D03*
X90800000Y-146600000D03*
D14*
X436923000Y-108486000D03*
X118600000Y-250303900D03*
D13*
X177925000Y-154465000D03*
D14*
X90700000Y-267600000D03*
X383445000Y-230023000D03*
D13*
X124600000Y-117700000D03*
X47400000Y-288500000D03*
D14*
X68900000Y-198000000D03*
D13*
X68650000Y-119150000D03*
X149150000Y-124600000D03*
D14*
X207700000Y-89000000D03*
D13*
X117125000Y-227785000D03*
X67900000Y-181300000D03*
X47000000Y-189300000D03*
D14*
X331323000Y-144976000D03*
X209737172Y-176237172D03*
D13*
X344747000Y-307091000D03*
D14*
X47700000Y-186400000D03*
D13*
X149900000Y-122800000D03*
X46200000Y-297500000D03*
D14*
X383445000Y-332911000D03*
X69500000Y-210800000D03*
D13*
X89800000Y-282500000D03*
X148100000Y-146000000D03*
D14*
X226546905Y-282776616D03*
D13*
X47200000Y-269200000D03*
X148350000Y-92400000D03*
X67300000Y-269200000D03*
X146600000Y-309150000D03*
X118400000Y-152700000D03*
D14*
X243093000Y-312776000D03*
X29800000Y-16800000D03*
X224676500Y-123100000D03*
X224464477Y-176064477D03*
X29301700Y-49400000D03*
D13*
X46800000Y-316800000D03*
X68200000Y-200600000D03*
X91025000Y-118635000D03*
D14*
X383039000Y-263459000D03*
D13*
X148300000Y-211300000D03*
X90800000Y-159500000D03*
D14*
X33400000Y-38500000D03*
D13*
X149700000Y-205100000D03*
D14*
X227624600Y-193900000D03*
D13*
X47000000Y-202200000D03*
X177325000Y-135165000D03*
X118100000Y-139900000D03*
D14*
X279596000Y-267371000D03*
D13*
X293047000Y-311741000D03*
D14*
X90900000Y-130082200D03*
X91531700Y-245100000D03*
D13*
X46700000Y-182900000D03*
D14*
X383445000Y-178579000D03*
X436708000Y-39931100D03*
D13*
X116600000Y-269050000D03*
X90500000Y-140200000D03*
X47500000Y-126200000D03*
X124433549Y-160266451D03*
D14*
X331296000Y-161611000D03*
X331703000Y-230489000D03*
X225900000Y-106100000D03*
X117600000Y-293121400D03*
D13*
X118500000Y-118800000D03*
X178675000Y-120065000D03*
X68400000Y-207000000D03*
D14*
X90200000Y-332800000D03*
D13*
X67300000Y-275600000D03*
D14*
X68400000Y-48800000D03*
D13*
X124700000Y-123000000D03*
X344747000Y-205351000D03*
D14*
X210300000Y-35200000D03*
D13*
X118500000Y-112300000D03*
X449406000Y-50800200D03*
X148300000Y-165300000D03*
X116300000Y-322200000D03*
X123300000Y-167400000D03*
D14*
X331323000Y-195846000D03*
X331703000Y-332229000D03*
X210835375Y-282924128D03*
D13*
X68450000Y-147200000D03*
X293047000Y-157241000D03*
X46600000Y-256300000D03*
X149500000Y-179500000D03*
X90200000Y-221850000D03*
X293047000Y-208741000D03*
X116000000Y-256150000D03*
X344747000Y-52741400D03*
D14*
X383445000Y-127135000D03*
X279596000Y-215871000D03*
D13*
X146600000Y-315550000D03*
X146700000Y-282500000D03*
X90725000Y-99335000D03*
D14*
X279623000Y-147736000D03*
X331323000Y-246716000D03*
X47700000Y-158955100D03*
D13*
X48600000Y-104300000D03*
D14*
X279623000Y-302236000D03*
D13*
X124900000Y-129200000D03*
X68350000Y-99850000D03*
X129000000Y-31900000D03*
X149500000Y-191700000D03*
%TO.N,/L1_IN1*%
X211453200Y-300180700D03*
X211626400Y-138168400D03*
X211763000Y-245564500D03*
X210869300Y-33366200D03*
X211030100Y-86610100D03*
X211458400Y-192217900D03*
%TO.N,/L1_IN2*%
X216662300Y-249115000D03*
D14*
X217900000Y-143000000D03*
D13*
X216602600Y-303613800D03*
D14*
X218300000Y-90400000D03*
D13*
X216832300Y-195315000D03*
X216215400Y-36513700D03*
%TO.N,/L1_IN3*%
X210855000Y-156262900D03*
X211390000Y-210089900D03*
X211734100Y-263491700D03*
X210103500Y-50600000D03*
X211453200Y-315759100D03*
X210642300Y-104373500D03*
%TO.N,/L1_IN4*%
X215901000Y-108117200D03*
D14*
X218000000Y-268000000D03*
D13*
X216433600Y-321134700D03*
X216764500Y-212903900D03*
D14*
X217717200Y-160517200D03*
D13*
X216337800Y-53281100D03*
%TO.N,/L1_IN5*%
X210313000Y-174169000D03*
X208113300Y-209945000D03*
X211841000Y-67184800D03*
X211307900Y-281569200D03*
X210020000Y-122240200D03*
X211020400Y-227479100D03*
X211771500Y-335698400D03*
D14*
%TO.N,/L1_IN6*%
X216700000Y-339700000D03*
X218700000Y-71000000D03*
D13*
X213379300Y-209374400D03*
D14*
X214600000Y-214300000D03*
X217974800Y-283874800D03*
D13*
X215965000Y-124864700D03*
D14*
X219378400Y-229548400D03*
D13*
X216171500Y-177054900D03*
D14*
%TO.N,/L1_IN7*%
X228102600Y-246459500D03*
D13*
X228657400Y-298338700D03*
X225391000Y-211269900D03*
X228294500Y-191769700D03*
D14*
X225516900Y-140581200D03*
D13*
X225929100Y-87180500D03*
X225679700Y-32809900D03*
D14*
%TO.N,/L1_IN8*%
X235500000Y-303300000D03*
D13*
X231290600Y-142914600D03*
X233003000Y-195622000D03*
X232703300Y-36563500D03*
X231665800Y-90358500D03*
X235842800Y-248900000D03*
%TO.N,/L1_IN9*%
X228048600Y-317977500D03*
X227100100Y-209889900D03*
X228064200Y-263702500D03*
X228000700Y-49904700D03*
D14*
X225879100Y-104627200D03*
D13*
X225800600Y-157186100D03*
%TO.N,/L1_IN10*%
X231505300Y-107698400D03*
D14*
X235520000Y-266500000D03*
D13*
X236236300Y-107698400D03*
D14*
X236300000Y-160000000D03*
D13*
X231342800Y-215158700D03*
X232891400Y-53619700D03*
X233337600Y-320414500D03*
X232758400Y-212855000D03*
%TO.N,/L1_IN11*%
X225832800Y-122027200D03*
X227624000Y-67659000D03*
X227849700Y-226757500D03*
X228254400Y-335140500D03*
X229078300Y-277899700D03*
X225840800Y-174709200D03*
%TO.N,/L1_IN12*%
X228959300Y-230923300D03*
D14*
X231900000Y-177332300D03*
X233300000Y-230500000D03*
D13*
X232839100Y-70664800D03*
X233841100Y-284267100D03*
D14*
X234000000Y-124483100D03*
D13*
X233605100Y-339536700D03*
%TO.N,Net-(Q4001A-S1)*%
X211990000Y-124750000D03*
X211990000Y-120550000D03*
%TO.N,/W124*%
X207343000Y-153050000D03*
X45765400Y-156898100D03*
X211462100Y-97077900D03*
%TO.N,/W123*%
X52906400Y-97521600D03*
X46094400Y-150709800D03*
X211480300Y-96075000D03*
%TO.N,Net-(Q5001A-S1)*%
X212190000Y-89950000D03*
X212190000Y-85750000D03*
%TO.N,/W126*%
X45839300Y-170399800D03*
X215460000Y-114754600D03*
X214937700Y-168784200D03*
%TO.N,/W125*%
X45825800Y-164087300D03*
X211676000Y-115523400D03*
X210313000Y-164087300D03*
%TO.N,Net-(Q6001A-S1)*%
X227190000Y-124650000D03*
X227190000Y-120450000D03*
%TO.N,/W1212*%
X230660000Y-114637700D03*
X69745800Y-116148800D03*
X67292800Y-168734300D03*
%TO.N,/W121*%
X206103000Y-79502000D03*
X46099600Y-138275600D03*
X204020100Y-131383300D03*
D14*
%TO.N,Net-(Q14001A-S1)*%
X437141000Y-72245200D03*
X437041000Y-75445200D03*
D13*
%TO.N,/W122*%
X45448400Y-80161100D03*
X215054200Y-80161100D03*
X45843200Y-144175600D03*
%TO.N,/W1211*%
X221847400Y-113375000D03*
X67292800Y-162520400D03*
X221847300Y-151966000D03*
D14*
%TO.N,Net-(Q14001B-G2)*%
X444141000Y-72545200D03*
X438641000Y-77745200D03*
%TO.N,Net-(Q15001A-S1)*%
X437141000Y-58445200D03*
X437241000Y-55245200D03*
D13*
%TO.N,/W114*%
X207053300Y-43733100D03*
X207053300Y-110955100D03*
X47200100Y-116226100D03*
%TO.N,/W513*%
X437064400Y-64691500D03*
X188964000Y-110329800D03*
X197718000Y-72669700D03*
D14*
%TO.N,Net-(Q15001B-G2)*%
X438741000Y-60745200D03*
X444241000Y-55545200D03*
%TO.N,Net-(Q16001A-S1)*%
X437141000Y-40445200D03*
X437241000Y-37245200D03*
D13*
%TO.N,/W514*%
X442455400Y-64691500D03*
X188338700Y-71736800D03*
X188377900Y-115523400D03*
%TO.N,/W515*%
X437114400Y-48750700D03*
X190995400Y-122843200D03*
X198362300Y-56807400D03*
D14*
%TO.N,Net-(Q16001B-G2)*%
X444241000Y-37545200D03*
X438741000Y-42745200D03*
%TO.N,Net-(Q18001A-S1)*%
X437356000Y-109000000D03*
X437456000Y-105800000D03*
D13*
%TO.N,/W516*%
X442595100Y-48750700D03*
X177917600Y-128486500D03*
X177399300Y-56006800D03*
%TO.N,/W113*%
X46098500Y-108995000D03*
X207732800Y-42549600D03*
X200303200Y-104585800D03*
D14*
%TO.N,Net-(Q18001B-G2)*%
X444456000Y-106100000D03*
X438956000Y-111300000D03*
%TO.N,Net-(Q19001A-S1)*%
X437406000Y-89000200D03*
X437306000Y-92200200D03*
D13*
%TO.N,/W512*%
X436463500Y-31442700D03*
X179540200Y-31403000D03*
X179540200Y-103401100D03*
%TO.N,/W511*%
X182020500Y-96800000D03*
X182020500Y-30467000D03*
X437114400Y-30817300D03*
D14*
%TO.N,Net-(Q19001B-G2)*%
X438906000Y-94500200D03*
X444406000Y-89300200D03*
%TO.N,Net-(Q20001A-S1)*%
X437456000Y-126400000D03*
X437556000Y-123200000D03*
D13*
%TO.N,/W524*%
X442812200Y-98565700D03*
X174047500Y-108706100D03*
X173848200Y-158518100D03*
%TO.N,/W523*%
X177139600Y-150692100D03*
X433552800Y-136740800D03*
X433552800Y-98525200D03*
D14*
%TO.N,Net-(Q20001B-G2)*%
X444556000Y-123500000D03*
X439056000Y-128700000D03*
D13*
%TO.N,Net-(Q22001A-S1)*%
X212428000Y-49200000D03*
X212428000Y-53400000D03*
%TO.N,/W526*%
X176868000Y-169912100D03*
X432268600Y-82962600D03*
X176693800Y-81953000D03*
%TO.N,/W525*%
X435397200Y-80732600D03*
X190446600Y-84495200D03*
X178407400Y-163618700D03*
%TO.N,Net-(Q24001A-S1)*%
X212428000Y-70700000D03*
X212428000Y-66500000D03*
%TO.N,/W522*%
X442923200Y-116718700D03*
X178551800Y-142833700D03*
%TO.N,/W521*%
X437428700Y-116518400D03*
X178238000Y-136443500D03*
%TO.N,Net-(Q25001A-S1)*%
X212228000Y-32300000D03*
X212228000Y-36500000D03*
%TO.N,/W1112*%
X67674700Y-128297800D03*
X71800000Y-60737600D03*
X232533000Y-60737600D03*
%TO.N,/W115*%
X52779100Y-68676700D03*
X46572200Y-122415000D03*
X211887300Y-59425000D03*
%TO.N,Net-(Q26001A-S1)*%
X229063000Y-70725000D03*
X229063000Y-66525000D03*
%TO.N,/W116*%
X53612200Y-71065200D03*
X214301200Y-61307600D03*
X53428800Y-128454700D03*
%TO.N,/W111*%
X210698500Y-25225000D03*
X208318900Y-90595300D03*
X46151000Y-96597000D03*
%TO.N,Net-(Q27001A-S1)*%
X228928000Y-53500000D03*
X228928000Y-49300000D03*
%TO.N,/W112*%
X202629000Y-102842900D03*
X217160300Y-24839500D03*
X48074500Y-102985000D03*
%TO.N,/W1111*%
X222277600Y-58713700D03*
X206110700Y-122038200D03*
X67537900Y-121763100D03*
%TO.N,Net-(Q28001A-S1)*%
X228728000Y-36600000D03*
X228728000Y-32400000D03*
%TO.N,/W128*%
X67275300Y-142882400D03*
X72075000Y-79220200D03*
X225679700Y-79193000D03*
%TO.N,/W119*%
X222277600Y-43721000D03*
X67736900Y-108712500D03*
X80015000Y-44135000D03*
%TO.N,Net-(Q29001A-S1)*%
X227390000Y-103050000D03*
X227390000Y-107250000D03*
%TO.N,/W1110*%
X232398000Y-43497800D03*
X67345300Y-115883000D03*
X67794400Y-43497800D03*
%TO.N,/W117*%
X228210400Y-25082200D03*
X67514300Y-96278300D03*
X226265800Y-82624900D03*
%TO.N,Net-(Q30001A-S1)*%
X227490000Y-89850000D03*
X227490000Y-85650000D03*
%TO.N,/W118*%
X67526900Y-102478400D03*
X231231700Y-26863000D03*
X231355000Y-94266700D03*
%TO.N,/W133*%
X212047400Y-150641900D03*
X51422600Y-151011000D03*
X46123600Y-192035500D03*
%TO.N,Net-(Q32001A-S1)*%
X212228000Y-159800000D03*
X212228000Y-155600000D03*
%TO.N,/W1210*%
X220891000Y-97180600D03*
X67292800Y-156302100D03*
X220234000Y-150959000D03*
%TO.N,/W129*%
X226863900Y-95975000D03*
X220516900Y-144662300D03*
X67334800Y-150063200D03*
D14*
%TO.N,Net-(Q19A-S1)*%
X280556000Y-79650200D03*
X280656000Y-75850200D03*
%TO.N,Net-(Q19B-G2)*%
X287856000Y-76850200D03*
X282556000Y-82150200D03*
D13*
%TO.N,/W134*%
X45855500Y-198321000D03*
X216696300Y-186240100D03*
X216943900Y-149830400D03*
%TO.N,/W127*%
X70410200Y-78575000D03*
X68717600Y-136835000D03*
X226966800Y-78575000D03*
D14*
%TO.N,Net-(Q20A-S1)*%
X279956000Y-61850200D03*
X280156000Y-57950200D03*
%TO.N,Net-(Q20B-G2)*%
X286556000Y-57650200D03*
X281756000Y-64450200D03*
D13*
%TO.N,/W136*%
X50411800Y-211185000D03*
X214322200Y-167615500D03*
X50411900Y-174654500D03*
%TO.N,/W135*%
X45880600Y-204735000D03*
X206324800Y-196928500D03*
X210503900Y-165894000D03*
D14*
%TO.N,Net-(Q21A-S1)*%
X280156000Y-42050200D03*
X280056000Y-45250200D03*
%TO.N,Net-(Q21B-G2)*%
X281656000Y-47550200D03*
X287156000Y-42350200D03*
D13*
%TO.N,/W1312*%
X71746700Y-169424500D03*
X67347600Y-209852200D03*
X227454300Y-167151200D03*
%TO.N,/W131*%
X45854400Y-178708000D03*
X212803400Y-133189400D03*
X208008100Y-178708000D03*
D14*
%TO.N,Net-(Q22A-S1)*%
X280656000Y-127350000D03*
X280556000Y-131150000D03*
%TO.N,Net-(Q22B-G2)*%
X282556000Y-133650000D03*
X287856000Y-128350000D03*
D13*
%TO.N,/W132*%
X216295300Y-133176800D03*
X207862700Y-184846300D03*
X46139800Y-184846300D03*
%TO.N,/W1311*%
X69133600Y-202581900D03*
X225499500Y-165891800D03*
X222277600Y-197971500D03*
D14*
%TO.N,Net-(Q23A-S1)*%
X279956000Y-113350000D03*
X280156000Y-109450000D03*
%TO.N,Net-(Q23B-G2)*%
X286556000Y-109150000D03*
X281756000Y-115950000D03*
D13*
%TO.N,/W1310*%
X220011600Y-196482500D03*
X67080900Y-196482500D03*
X230808400Y-150314500D03*
%TO.N,/W139*%
X72372000Y-150352300D03*
X67167800Y-190268600D03*
X225842000Y-148800000D03*
D14*
%TO.N,Net-(Q24A-S1)*%
X280056000Y-96750200D03*
X280156000Y-93550200D03*
%TO.N,Net-(Q24B-G2)*%
X287156000Y-93850200D03*
X281656000Y-99050200D03*
D13*
%TO.N,/W138*%
X67167800Y-184050300D03*
X74382900Y-130606700D03*
X226983700Y-130447300D03*
%TO.N,/W137*%
X228259900Y-132995100D03*
X66966000Y-177851600D03*
X226507600Y-169424500D03*
D14*
%TO.N,Net-(Q25A-S1)*%
X280556000Y-182650000D03*
X280656000Y-178850000D03*
%TO.N,Net-(Q25B-G2)*%
X287856000Y-179850000D03*
X282556000Y-185150000D03*
D13*
%TO.N,/W214*%
X284094700Y-70576000D03*
X90101700Y-114541400D03*
X274797800Y-112037500D03*
%TO.N,/W213*%
X274522600Y-104352400D03*
X90068300Y-108408400D03*
X274522700Y-69075200D03*
D14*
%TO.N,Net-(Q26A-S1)*%
X280156000Y-160950000D03*
X279956000Y-164850000D03*
%TO.N,Net-(Q26B-G2)*%
X281756000Y-167450000D03*
X286556000Y-160650000D03*
D13*
%TO.N,/W216*%
X90023700Y-128021400D03*
X91507200Y-57372800D03*
X284094700Y-52535800D03*
%TO.N,/W215*%
X273836300Y-112900000D03*
X90065700Y-120882800D03*
X276342900Y-51121200D03*
D14*
%TO.N,Net-(Q27A-S1)*%
X280156000Y-145050000D03*
X280056000Y-148250000D03*
%TO.N,Net-(Q27B-G2)*%
X287156000Y-145350000D03*
X281656000Y-150550000D03*
D13*
%TO.N,/W212*%
X285476100Y-34802500D03*
X93247200Y-101928900D03*
X101076800Y-40341000D03*
%TO.N,/W211*%
X280047600Y-34802500D03*
X93247200Y-96424900D03*
X101699300Y-37725900D03*
D14*
%TO.N,Net-(Q28A-S1)*%
X280556000Y-234150000D03*
X280656000Y-230350000D03*
%TO.N,Net-(Q28B-G2)*%
X282556000Y-236650000D03*
X287856000Y-231350000D03*
D13*
%TO.N,/W224*%
X93578000Y-129975000D03*
X93577900Y-155632900D03*
X285789700Y-120567900D03*
%TO.N,/W223*%
X102795900Y-149588300D03*
X104972300Y-129681200D03*
X280311500Y-120484300D03*
D14*
%TO.N,Net-(Q29A-S1)*%
X279956000Y-216350000D03*
X280156000Y-212450000D03*
%TO.N,Net-(Q29B-G2)*%
X286556000Y-212150000D03*
X281756000Y-218950000D03*
D13*
%TO.N,/W226*%
X92056200Y-111107000D03*
X280752000Y-104299000D03*
X90652300Y-168485000D03*
%TO.N,/W225*%
X89639500Y-161838900D03*
X268097400Y-103390400D03*
X265912700Y-150557000D03*
D14*
%TO.N,Net-(Q30A-S1)*%
X280056000Y-199750000D03*
X280156000Y-196550000D03*
%TO.N,Net-(Q30B-G2)*%
X287156000Y-196850000D03*
X281656000Y-202050000D03*
D13*
%TO.N,/W222*%
X89639500Y-142557100D03*
X277740800Y-85856900D03*
X275969400Y-131819100D03*
%TO.N,/W221*%
X269225000Y-131080700D03*
X90082800Y-136390000D03*
X274179500Y-86610100D03*
D14*
%TO.N,Net-(Q31A-S1)*%
X280556000Y-285650000D03*
X280656000Y-281850000D03*
%TO.N,Net-(Q31B-G2)*%
X287856000Y-282850000D03*
X282556000Y-288150000D03*
D13*
%TO.N,/W234*%
X284326100Y-173353200D03*
X89403000Y-196705500D03*
%TO.N,/W233*%
X280534800Y-173805200D03*
X93312100Y-190794600D03*
D14*
%TO.N,Net-(Q32A-S1)*%
X280156000Y-263950000D03*
X279956000Y-267850000D03*
%TO.N,Net-(Q32B-G2)*%
X286556000Y-263650000D03*
X281756000Y-270450000D03*
D13*
%TO.N,/W236*%
X96282900Y-209785000D03*
X98643400Y-163618700D03*
X285475300Y-154328600D03*
%TO.N,/W235*%
X99229500Y-204173500D03*
X100637500Y-161838900D03*
X280020600Y-154358500D03*
D14*
%TO.N,Net-(Q33A-S1)*%
X280056000Y-251250000D03*
X280156000Y-248050000D03*
%TO.N,Net-(Q33B-G2)*%
X287156000Y-248350000D03*
X281656000Y-253550000D03*
D13*
%TO.N,/W232*%
X272507100Y-177741100D03*
X89403000Y-183709700D03*
X277874400Y-138544200D03*
%TO.N,/W231*%
X280006800Y-138417700D03*
X93254100Y-177474900D03*
X96649300Y-144040000D03*
D14*
%TO.N,Net-(Q34A-S1)*%
X280556000Y-337150000D03*
X280656000Y-333350000D03*
%TO.N,Net-(Q34B-G2)*%
X282556000Y-339650000D03*
X287856000Y-334350000D03*
D13*
%TO.N,/W244*%
X280341200Y-222875900D03*
X89403000Y-237387000D03*
%TO.N,/W243*%
X89403000Y-230444300D03*
X280347500Y-224378800D03*
D14*
%TO.N,Net-(Q35A-S1)*%
X279956000Y-319350000D03*
X280156000Y-315450000D03*
%TO.N,Net-(Q35B-G2)*%
X286556000Y-315150000D03*
X281756000Y-321950000D03*
D13*
%TO.N,/W246*%
X272670100Y-250828400D03*
X272670100Y-206706100D03*
X89403000Y-250679800D03*
%TO.N,/W245*%
X266488300Y-236625400D03*
X274615100Y-205675200D03*
X89609000Y-243864300D03*
D14*
%TO.N,Net-(Q36A-S1)*%
X280056000Y-302750000D03*
X280156000Y-299550000D03*
%TO.N,Net-(Q36B-G2)*%
X287156000Y-299850000D03*
X281656000Y-305050000D03*
D13*
%TO.N,/W242*%
X90191500Y-224335000D03*
X91970400Y-190161700D03*
X277817700Y-190161700D03*
%TO.N,/W241*%
X280031900Y-189570800D03*
X89403000Y-218052600D03*
D14*
%TO.N,Net-(Q37A-S1)*%
X332256000Y-78150200D03*
X332356000Y-74350200D03*
%TO.N,Net-(Q37B-G2)*%
X334256000Y-80650200D03*
X339556000Y-75350200D03*
D13*
%TO.N,/W254*%
X88651700Y-278379100D03*
X285793000Y-275907100D03*
%TO.N,/W253*%
X89390200Y-272296400D03*
X280019600Y-269379400D03*
D14*
%TO.N,Net-(Q38A-S1)*%
X331856000Y-56450200D03*
X331656000Y-60350200D03*
%TO.N,Net-(Q38B-G2)*%
X338256000Y-56150200D03*
X333456000Y-62950200D03*
D13*
%TO.N,/W256*%
X88935300Y-265728100D03*
X88935300Y-291404300D03*
X285498900Y-257973700D03*
%TO.N,/W255*%
X90704600Y-283923000D03*
X280009600Y-258607900D03*
D14*
%TO.N,Net-(Q39A-S1)*%
X331756000Y-43750200D03*
X331856000Y-40550200D03*
%TO.N,Net-(Q39B-G2)*%
X338856000Y-40850200D03*
X333356000Y-46050200D03*
D13*
%TO.N,/W252*%
X90832300Y-266596900D03*
X93241600Y-242335700D03*
X283176100Y-242415000D03*
%TO.N,/W251*%
X279867000Y-244635800D03*
X91208100Y-258514100D03*
D14*
%TO.N,Net-(Q40A-S1)*%
X332356000Y-125220000D03*
X332256000Y-129020000D03*
%TO.N,Net-(Q40B-G2)*%
X339556000Y-126220000D03*
X334256000Y-131520000D03*
D13*
%TO.N,/W264*%
X88017000Y-319364100D03*
X283765700Y-325137600D03*
%TO.N,/W263*%
X89308300Y-312486800D03*
X279575900Y-323432100D03*
D14*
%TO.N,Net-(Q41A-S1)*%
X331656000Y-111220000D03*
X331856000Y-107320000D03*
%TO.N,Net-(Q41B-G2)*%
X338256000Y-107020000D03*
X333456000Y-113820000D03*
D13*
%TO.N,/W266*%
X285464500Y-307871800D03*
X88496500Y-312028300D03*
X88445100Y-331585000D03*
%TO.N,/W265*%
X89133000Y-325399800D03*
X279613600Y-308903400D03*
D14*
%TO.N,Net-(Q42A-S1)*%
X331856000Y-91420200D03*
X331756000Y-94620200D03*
%TO.N,Net-(Q42B-G2)*%
X333356000Y-96920200D03*
X338856000Y-91720200D03*
D13*
%TO.N,/W262*%
X88282000Y-305241300D03*
X284485700Y-294979400D03*
%TO.N,/W261*%
X280086800Y-292596900D03*
X88277500Y-299335000D03*
D14*
%TO.N,Net-(Q43A-S1)*%
X332256000Y-179890000D03*
X332356000Y-176090000D03*
%TO.N,Net-(Q43B-G2)*%
X334256000Y-182390000D03*
X339556000Y-177090000D03*
D13*
%TO.N,/W314*%
X119545200Y-115109600D03*
X338087600Y-72378300D03*
X121884200Y-74654500D03*
%TO.N,/W313*%
X117244000Y-107882800D03*
X331053500Y-70617300D03*
X325248300Y-108623900D03*
D14*
%TO.N,Net-(Q44A-S1)*%
X331856000Y-158190000D03*
X331656000Y-162090000D03*
%TO.N,Net-(Q44B-G2)*%
X338256000Y-157890000D03*
X333456000Y-164690000D03*
D13*
%TO.N,/W316*%
X337162200Y-50476300D03*
X123870100Y-127962700D03*
X129842700Y-56854300D03*
%TO.N,/W315*%
X327611400Y-48750700D03*
X117375400Y-120965300D03*
X323976700Y-114506500D03*
D14*
%TO.N,Net-(Q45A-S1)*%
X331756000Y-145490000D03*
X331856000Y-142290000D03*
%TO.N,Net-(Q45B-G2)*%
X338856000Y-142590000D03*
X333356000Y-147790000D03*
D13*
%TO.N,/W312*%
X325651300Y-90595300D03*
X118373100Y-101928900D03*
X325651400Y-34484600D03*
%TO.N,/W311*%
X328430100Y-89201100D03*
X328430200Y-33275200D03*
X117389600Y-95163400D03*
D14*
%TO.N,Net-(Q46A-S1)*%
X332356000Y-226960000D03*
X332256000Y-230760000D03*
%TO.N,Net-(Q46B-G2)*%
X334256000Y-233260000D03*
X339556000Y-227960000D03*
D13*
%TO.N,/W324*%
X328422700Y-146388100D03*
X117114000Y-155866000D03*
X329980200Y-118792000D03*
%TO.N,/W323*%
X123213900Y-147853500D03*
X332047800Y-118491700D03*
D14*
%TO.N,Net-(Q47A-S1)*%
X331656000Y-212960000D03*
X331856000Y-209060000D03*
%TO.N,Net-(Q47B-G2)*%
X333456000Y-215560000D03*
X338256000Y-208760000D03*
D13*
%TO.N,/W326*%
X327879400Y-165608200D03*
X117267300Y-168229900D03*
X329982100Y-99966000D03*
%TO.N,/W325*%
X121486000Y-161498200D03*
X331795000Y-100966800D03*
X122345000Y-108706100D03*
D14*
%TO.N,Net-(Q48A-S1)*%
X331756000Y-196360000D03*
X331856000Y-193160000D03*
%TO.N,Net-(Q48B-G2)*%
X333356000Y-198660000D03*
X338856000Y-193460000D03*
D13*
%TO.N,/W322*%
X337935400Y-84074500D03*
X119545200Y-142402900D03*
X119860600Y-83210600D03*
%TO.N,/W321*%
X119545200Y-136460900D03*
X331013400Y-85415700D03*
X119860600Y-88602700D03*
D14*
%TO.N,Net-(Q49A-S1)*%
X332256000Y-281630000D03*
X332356000Y-277830000D03*
%TO.N,Net-(Q49B-G2)*%
X339556000Y-278830000D03*
X334256000Y-284130000D03*
D13*
%TO.N,/W334*%
X328296900Y-170555700D03*
X121922900Y-173216700D03*
X116892600Y-195819100D03*
%TO.N,/W333*%
X119545200Y-184088600D03*
X331791300Y-169816700D03*
D14*
%TO.N,Net-(Q50A-S1)*%
X331856000Y-259930000D03*
X331656000Y-263830000D03*
%TO.N,Net-(Q50B-G2)*%
X333456000Y-266430000D03*
X338256000Y-259630000D03*
D13*
%TO.N,/W336*%
X335192900Y-149918700D03*
X116956500Y-208482500D03*
X119791100Y-151277800D03*
%TO.N,/W335*%
X331418100Y-185650900D03*
X332634000Y-152901500D03*
X116779400Y-202330000D03*
D14*
%TO.N,Net-(Q51A-S1)*%
X331756000Y-247230000D03*
X331856000Y-244030000D03*
%TO.N,Net-(Q51B-G2)*%
X333356000Y-249530000D03*
X338856000Y-244330000D03*
D13*
%TO.N,/W332*%
X329873700Y-171772800D03*
X333895900Y-136598400D03*
X116750300Y-182608200D03*
%TO.N,/W331*%
X332726500Y-136494300D03*
X116807200Y-176530000D03*
X331124100Y-168996200D03*
D14*
%TO.N,Net-(Q52A-S1)*%
X332356000Y-328700000D03*
X332256000Y-332500000D03*
%TO.N,Net-(Q52B-G2)*%
X334256000Y-335000000D03*
X339556000Y-329700000D03*
D13*
%TO.N,/W344*%
X337468300Y-220114300D03*
X119791100Y-236055100D03*
%TO.N,/W343*%
X113756800Y-232393600D03*
X332040500Y-220114300D03*
D14*
%TO.N,Net-(Q53A-S1)*%
X331656000Y-314700000D03*
X331856000Y-310800000D03*
%TO.N,Net-(Q53B-G2)*%
X333456000Y-317300000D03*
X338256000Y-310500000D03*
D13*
%TO.N,/W346*%
X327964900Y-244074700D03*
X327964900Y-202818700D03*
X116007800Y-249670000D03*
%TO.N,/W345*%
X116590300Y-243700200D03*
X326075100Y-202285200D03*
X320618400Y-237422300D03*
D14*
%TO.N,Net-(Q54A-S1)*%
X331756000Y-298100000D03*
X331856000Y-294900000D03*
%TO.N,Net-(Q54B-G2)*%
X333356000Y-300400000D03*
X338856000Y-295200000D03*
D13*
%TO.N,/W342*%
X116956500Y-189607800D03*
X115981200Y-223625500D03*
X337173300Y-186240100D03*
%TO.N,/W341*%
X330948100Y-187098200D03*
X119983500Y-186840500D03*
X116987400Y-217827500D03*
D14*
%TO.N,Net-(Q55A-S1)*%
X384098000Y-72162200D03*
X383998000Y-75962200D03*
%TO.N,Net-(Q55B-G2)*%
X385998000Y-78462200D03*
X391298000Y-73162200D03*
D13*
%TO.N,/W354*%
X331136300Y-272010300D03*
X115455500Y-278013600D03*
%TO.N,/W353*%
X115462400Y-271585000D03*
X332038600Y-271867700D03*
D14*
%TO.N,Net-(Q56A-S1)*%
X383398000Y-58162200D03*
X383598000Y-54262200D03*
%TO.N,Net-(Q56B-G2)*%
X385198000Y-60762200D03*
X389998000Y-53962200D03*
D13*
%TO.N,/W356*%
X115373300Y-290437700D03*
X325970800Y-254574200D03*
X325970800Y-286570800D03*
%TO.N,/W355*%
X327600200Y-277535800D03*
X331578200Y-253670600D03*
X118584400Y-283314500D03*
D14*
%TO.N,Net-(Q57A-S1)*%
X383598000Y-38362200D03*
X383498000Y-41562200D03*
%TO.N,Net-(Q57B-G2)*%
X385098000Y-43862200D03*
X390598000Y-38662200D03*
D13*
%TO.N,/W352*%
X116850100Y-265075200D03*
X335286300Y-238412400D03*
X119791100Y-244635700D03*
%TO.N,/W351*%
X115453900Y-258460200D03*
X331661900Y-240405900D03*
D14*
%TO.N,Net-(Q58A-S1)*%
X384098000Y-123606000D03*
X383998000Y-127406000D03*
%TO.N,Net-(Q58B-G2)*%
X391298000Y-124606000D03*
X385998000Y-129906000D03*
D13*
%TO.N,/W364*%
X115147000Y-318056800D03*
X332028000Y-322672700D03*
%TO.N,/W363*%
X331774200Y-320832800D03*
X115147000Y-311954900D03*
D14*
%TO.N,Net-(Q59A-S1)*%
X383398000Y-109606000D03*
X383598000Y-105706000D03*
%TO.N,Net-(Q59B-G2)*%
X389998000Y-105406000D03*
X385198000Y-112206000D03*
D13*
%TO.N,/W366*%
X334949400Y-305921600D03*
X115147000Y-331380400D03*
X333870000Y-325364800D03*
%TO.N,/W365*%
X331719100Y-303803500D03*
X127897500Y-319865500D03*
D14*
%TO.N,Net-(Q60A-S1)*%
X383598000Y-89806200D03*
X383498000Y-93006200D03*
%TO.N,Net-(Q60B-G2)*%
X390598000Y-90106200D03*
X385098000Y-95306200D03*
D13*
%TO.N,/W362*%
X115176300Y-305624600D03*
X329982100Y-287894000D03*
%TO.N,/W361*%
X115159400Y-298935000D03*
X331716100Y-287862700D03*
D14*
%TO.N,Net-(Q61A-S1)*%
X383998000Y-178850000D03*
X384098000Y-175050000D03*
%TO.N,Net-(Q61B-G2)*%
X391298000Y-176050000D03*
X385998000Y-181350000D03*
%TO.N,/W414*%
X384261400Y-97036900D03*
D13*
X148495900Y-113938200D03*
X387244300Y-66881000D03*
%TO.N,/W413*%
X377817400Y-99356000D03*
X381885400Y-64995900D03*
X148495900Y-107882800D03*
D14*
%TO.N,Net-(Q62A-S1)*%
X383598000Y-157150000D03*
X383398000Y-161050000D03*
%TO.N,Net-(Q62B-G2)*%
X389998000Y-156850000D03*
X385198000Y-163650000D03*
D13*
%TO.N,/W416*%
X151312000Y-127450300D03*
X152899100Y-49956600D03*
X388951100Y-46758100D03*
%TO.N,/W415*%
X155064300Y-120484300D03*
X157859700Y-57960700D03*
X383468300Y-46758100D03*
D14*
%TO.N,Net-(Q63A-S1)*%
X383598000Y-141250000D03*
X383498000Y-144450000D03*
%TO.N,Net-(Q63B-G2)*%
X385098000Y-146750000D03*
X390598000Y-141550000D03*
D13*
%TO.N,/W412*%
X388913700Y-31442700D03*
X158447500Y-41982400D03*
X158485300Y-101654200D03*
%TO.N,/W411*%
X153277700Y-94167200D03*
X383372600Y-31442700D03*
X156810800Y-37912400D03*
D14*
%TO.N,Net-(Q64A-S1)*%
X383998000Y-230294000D03*
X384098000Y-226494000D03*
%TO.N,Net-(Q64B-G2)*%
X385998000Y-232794000D03*
X391298000Y-227494000D03*
D13*
%TO.N,/W424*%
X147336900Y-155258100D03*
X146360900Y-129396400D03*
X389258700Y-116499100D03*
%TO.N,/W423*%
X383119500Y-116499100D03*
X149014600Y-143435400D03*
D14*
%TO.N,Net-(Q65A-S1)*%
X383398000Y-212494000D03*
X383598000Y-208594000D03*
%TO.N,Net-(Q65B-G2)*%
X389998000Y-208294000D03*
X385198000Y-215094000D03*
D13*
%TO.N,/W426*%
X146987000Y-168079900D03*
X386720300Y-100755700D03*
X386862000Y-158765300D03*
%TO.N,/W425*%
X154478200Y-103080000D03*
X381511500Y-98974900D03*
X146999800Y-160898800D03*
D14*
%TO.N,Net-(Q66A-S1)*%
X383498000Y-195894000D03*
X383598000Y-192694000D03*
%TO.N,Net-(Q66B-G2)*%
X385098000Y-198194000D03*
X390598000Y-192994000D03*
D13*
%TO.N,/W422*%
X146999800Y-142278000D03*
X387827300Y-84029700D03*
X150961800Y-83760800D03*
%TO.N,/W421*%
X159192700Y-92197800D03*
X383372600Y-83456900D03*
X155064300Y-136425100D03*
D14*
%TO.N,Net-(Q67A-S1)*%
X384098000Y-277938000D03*
X383998000Y-281738000D03*
%TO.N,Net-(Q67B-G2)*%
X391298000Y-278938000D03*
X385998000Y-284238000D03*
D13*
%TO.N,/W434*%
X158466400Y-181645300D03*
X389234700Y-168306700D03*
X155396200Y-197151500D03*
%TO.N,/W433*%
X383782400Y-168306700D03*
X155396200Y-182207200D03*
D14*
%TO.N,Net-(Q68A-S1)*%
X383598000Y-260038000D03*
X383398000Y-263938000D03*
%TO.N,Net-(Q68B-G2)*%
X385198000Y-266538000D03*
X389998000Y-259738000D03*
D13*
%TO.N,/W436*%
X148896700Y-168752200D03*
X148482000Y-210137400D03*
X388943600Y-150373300D03*
%TO.N,/W435*%
X151445600Y-203135000D03*
X155142000Y-164907500D03*
X383487500Y-150373300D03*
D14*
%TO.N,Net-(Q69A-S1)*%
X383498000Y-247338000D03*
X383598000Y-244138000D03*
%TO.N,Net-(Q69B-G2)*%
X390598000Y-244438000D03*
X385098000Y-249638000D03*
D13*
%TO.N,/W432*%
X380032500Y-134816300D03*
X146079800Y-184184200D03*
X371017600Y-183075400D03*
%TO.N,/W431*%
X155396200Y-177474900D03*
X383471100Y-133251600D03*
X158466400Y-148380700D03*
D14*
%TO.N,Net-(Q70A-S1)*%
X384098000Y-329382000D03*
X383998000Y-333182000D03*
%TO.N,Net-(Q70B-G2)*%
X391298000Y-330382000D03*
X385998000Y-335682000D03*
D13*
%TO.N,/W444*%
X389228700Y-220114300D03*
X145770500Y-237285000D03*
%TO.N,/W443*%
X145777300Y-230480000D03*
X383522600Y-219528600D03*
D14*
%TO.N,Net-(Q71A-S1)*%
X383398000Y-315382000D03*
X383598000Y-311482000D03*
%TO.N,Net-(Q71B-G2)*%
X385198000Y-317982000D03*
X389998000Y-311182000D03*
D13*
%TO.N,/W446*%
X388917700Y-202180900D03*
X387095800Y-248431000D03*
X145785200Y-249830100D03*
%TO.N,/W445*%
X383442500Y-202180900D03*
X146344400Y-239767500D03*
D14*
%TO.N,Net-(Q72A-S1)*%
X383498000Y-298782000D03*
X383598000Y-295582000D03*
%TO.N,Net-(Q72B-G2)*%
X385098000Y-301082000D03*
X390598000Y-295882000D03*
D13*
%TO.N,/W442*%
X388924200Y-186240100D03*
X147206600Y-220223900D03*
%TO.N,/W441*%
X146292600Y-214484500D03*
X383472400Y-186240100D03*
%TO.N,Net-(Q34001A-S1)*%
X212228000Y-173000000D03*
X212228000Y-177200000D03*
%TO.N,/W454*%
X383095100Y-272575400D03*
X145554700Y-278323000D03*
%TO.N,/W453*%
X383756600Y-271921900D03*
X148899200Y-271228300D03*
%TO.N,Net-(Q35001A-S1)*%
X212333000Y-142975000D03*
X212333000Y-138775000D03*
%TO.N,/W456*%
X144507700Y-293971200D03*
X156461700Y-252350600D03*
X388947800Y-253988500D03*
%TO.N,/W455*%
X383794200Y-273968100D03*
X383799700Y-254669100D03*
X145579100Y-285461600D03*
%TO.N,Net-(Q36001A-S1)*%
X227863000Y-177225000D03*
X227863000Y-173025000D03*
%TO.N,/W452*%
X154206800Y-265314500D03*
X388911400Y-236055100D03*
%TO.N,/W451*%
X383473600Y-236156100D03*
X145576000Y-259649900D03*
%TO.N,Net-(Q37001A-S1)*%
X227798000Y-160075000D03*
X227798000Y-155875000D03*
%TO.N,/W464*%
X389219200Y-321791300D03*
X145484900Y-318135000D03*
%TO.N,/W463*%
X384413500Y-320448500D03*
X146501800Y-311574100D03*
%TO.N,Net-(Q38001A-S1)*%
X227328000Y-138800000D03*
X227328000Y-143000000D03*
%TO.N,/W466*%
X145461100Y-331351500D03*
X386560800Y-306262600D03*
X386803000Y-324513700D03*
%TO.N,/W465*%
X383466500Y-305113700D03*
D14*
X146501800Y-325149700D03*
D13*
%TO.N,Net-(Q130001A-S1)*%
X212771000Y-212775000D03*
X212771000Y-208575000D03*
%TO.N,/W462*%
X147332800Y-304966600D03*
X388933500Y-287862700D03*
%TO.N,/W461*%
X383491700Y-287862700D03*
X145458600Y-298785000D03*
%TO.N,Net-(Q132001A-S1)*%
X212466000Y-230250000D03*
X212466000Y-226050000D03*
%TO.N,/W144*%
X210542100Y-232306000D03*
X212262200Y-202480200D03*
X45825500Y-238129500D03*
%TO.N,/W143*%
X206977600Y-230294200D03*
X210950500Y-202347700D03*
X45825500Y-231343500D03*
%TO.N,Net-(Q133001A-S1)*%
X212836000Y-191100000D03*
X212836000Y-195300000D03*
%TO.N,/W146*%
X49705500Y-218835000D03*
X217556500Y-219158800D03*
X46076100Y-251524500D03*
%TO.N,/W145*%
X211411400Y-219523900D03*
X46796800Y-244611200D03*
X46026300Y-221224500D03*
%TO.N,Net-(Q134001A-S1)*%
X229271000Y-225575000D03*
X229271000Y-229775000D03*
%TO.N,/W1412*%
X229129700Y-243574700D03*
X66682700Y-250145800D03*
X231457000Y-219849200D03*
%TO.N,/W141*%
X49096000Y-186544400D03*
X213305200Y-185654400D03*
X46873300Y-218835000D03*
%TO.N,Net-(Q135001A-S1)*%
X228771000Y-208175000D03*
X228771000Y-212375000D03*
%TO.N,/W142*%
X53962100Y-185132600D03*
X212330000Y-182933700D03*
X46762200Y-225285000D03*
%TO.N,/W1411*%
X78702400Y-222251400D03*
X78702400Y-243439800D03*
X228725200Y-218248200D03*
%TO.N,Net-(Q136001A-S1)*%
X228971000Y-195275000D03*
X228971000Y-191075000D03*
%TO.N,/W1410*%
X67441000Y-237073600D03*
X226808800Y-202380400D03*
X226770100Y-232679800D03*
%TO.N,/W149*%
X227995300Y-200188300D03*
X66655600Y-230835000D03*
X225351500Y-231105200D03*
%TO.N,Net-(Q138001A-S1)*%
X212466000Y-267000000D03*
X212466000Y-262800000D03*
%TO.N,/W148*%
X68469700Y-225085400D03*
X72372000Y-186825800D03*
X231065400Y-185359800D03*
%TO.N,/W147*%
X227067400Y-189246100D03*
X66660800Y-218090000D03*
%TO.N,Net-(Q140001A-S1)*%
X212666000Y-280200000D03*
X212666000Y-284400000D03*
%TO.N,/W154*%
X215862900Y-257060800D03*
X46054400Y-278123000D03*
%TO.N,/W153*%
X211860200Y-255688200D03*
X50785000Y-271336200D03*
%TO.N,Net-(Q141001A-S1)*%
X212666000Y-244900000D03*
X212666000Y-249100000D03*
%TO.N,/W156*%
X46060600Y-291085000D03*
X214753500Y-290964700D03*
X217913700Y-273760700D03*
%TO.N,/W155*%
X211434500Y-273914500D03*
X46088100Y-284635000D03*
%TO.N,Net-(Q142001A-S1)*%
X229866000Y-279900000D03*
X229866000Y-284100000D03*
%TO.N,/W1512*%
X232560400Y-274333800D03*
X66174700Y-291085000D03*
%TO.N,/W151*%
X209751800Y-238047700D03*
X46075400Y-258510000D03*
%TO.N,Net-(Q143001A-S1)*%
X229766000Y-262400000D03*
X229766000Y-266600000D03*
%TO.N,/W152*%
X46100000Y-265648600D03*
X207531600Y-266351000D03*
X211411400Y-237350600D03*
%TO.N,/W1511*%
X228901500Y-272191800D03*
X72447800Y-279013700D03*
%TO.N,Net-(Q145001A-S1)*%
X229866000Y-249000000D03*
X229866000Y-244800000D03*
%TO.N,/W1510*%
X66151300Y-278185000D03*
X234418300Y-271406600D03*
X234488300Y-256620000D03*
%TO.N,/W159*%
X228099000Y-255981100D03*
X68731900Y-265628400D03*
%TO.N,Net-(Q147001A-S1)*%
X212466000Y-320905000D03*
X212466000Y-316705000D03*
%TO.N,/W158*%
X66164400Y-265285000D03*
X234780500Y-238047700D03*
%TO.N,/W157*%
X229255200Y-237735000D03*
X66737800Y-258827500D03*
X230254000Y-253645700D03*
%TO.N,Net-(Q149001A-S1)*%
X212531000Y-335005000D03*
X212531000Y-339205000D03*
%TO.N,/W164*%
X45668000Y-319598700D03*
X215199600Y-311832800D03*
%TO.N,/W163*%
X211453200Y-310367000D03*
X45662900Y-312935000D03*
%TO.N,Net-(Q179001A-S1)*%
X212631000Y-303605000D03*
X212631000Y-299405000D03*
%TO.N,/W166*%
X45682200Y-332123100D03*
X208864700Y-327168900D03*
%TO.N,/W165*%
X211102900Y-327930100D03*
X45456100Y-326408000D03*
%TO.N,Net-(Q180001A-S1)*%
X229696000Y-339030000D03*
X229696000Y-334830000D03*
%TO.N,/W1612*%
X65953500Y-331108300D03*
X234642100Y-327714700D03*
%TO.N,/W161*%
X45689200Y-300035000D03*
X214209800Y-294533200D03*
%TO.N,Net-(Q181001A-S1)*%
X229401000Y-316380000D03*
X229401000Y-320580000D03*
%TO.N,/W162*%
X215952200Y-295456400D03*
X45456100Y-307164100D03*
%TO.N,/W1611*%
X65968000Y-324385000D03*
X229177900Y-327714700D03*
%TO.N,Net-(Q182001A-S1)*%
X229131000Y-299205000D03*
X229131000Y-303405000D03*
%TO.N,/W1610*%
X228889800Y-308546900D03*
X66370100Y-317935000D03*
X66737800Y-313691800D03*
%TO.N,/W169*%
X219536700Y-309035300D03*
X65982800Y-311418700D03*
%TO.N,/W168*%
X232645200Y-293396100D03*
X65987700Y-305035000D03*
%TO.N,/W167*%
X65957400Y-298585000D03*
X228394400Y-292385700D03*
D14*
%TO.N,Net-(U26D--)*%
X284756000Y-77950200D03*
X286856000Y-77350200D03*
D13*
%TO.N,/InNeuron_2/Adder3/SUM_IN*%
X213872000Y-126579400D03*
X244767000Y-97438600D03*
X234090000Y-85650000D03*
D14*
X217500000Y-100500000D03*
X217500000Y-90700000D03*
D13*
X218590000Y-120550000D03*
X228742300Y-109367700D03*
X233990000Y-103050000D03*
X214301200Y-92250000D03*
X228259900Y-126804400D03*
X233790000Y-120450000D03*
X218790000Y-85750000D03*
X218590000Y-103150000D03*
D14*
%TO.N,Net-(U28D--)*%
X285656000Y-59550200D03*
X284156000Y-60150200D03*
%TO.N,Net-(U29D--)*%
X283856000Y-43650200D03*
X285256000Y-43350200D03*
%TO.N,Net-(U30D--)*%
X284756000Y-129450000D03*
X286856000Y-128850000D03*
%TO.N,Net-(U32D--)*%
X285656000Y-111050000D03*
X284156000Y-111650000D03*
%TO.N,Net-(U33D--)*%
X283856000Y-95150200D03*
X285256000Y-94850200D03*
%TO.N,Net-(U34D--)*%
X284756000Y-180950000D03*
X286856000Y-180350000D03*
%TO.N,Net-(U35D--)*%
X285656000Y-162550000D03*
X284156000Y-163150000D03*
%TO.N,Net-(U37D--)*%
X283856000Y-146650000D03*
X285256000Y-146350000D03*
%TO.N,Net-(U38D--)*%
X286856000Y-231850000D03*
X284756000Y-232450000D03*
%TO.N,Net-(U39D--)*%
X285656000Y-214050000D03*
X284156000Y-214650000D03*
%TO.N,Net-(U41D--)*%
X285256000Y-197850000D03*
X283856000Y-198150000D03*
%TO.N,Net-(U42D--)*%
X286856000Y-283350000D03*
X284756000Y-283950000D03*
%TO.N,Net-(U47D--)*%
X285656000Y-317050000D03*
X284156000Y-317650000D03*
%TO.N,Net-(U43D--)*%
X285656000Y-265550000D03*
X284156000Y-266150000D03*
%TO.N,Net-(U45D--)*%
X283856000Y-249650000D03*
X285256000Y-249350000D03*
%TO.N,Net-(U49D--)*%
X283856000Y-301150000D03*
X285256000Y-300850000D03*
%TO.N,Net-(U52D--)*%
X337356000Y-58050200D03*
X335856000Y-58650200D03*
D13*
%TO.N,/InNeuron_1/Adder3/SUM_IN*%
X235663000Y-66525000D03*
X218357800Y-36863700D03*
X235328000Y-32400000D03*
X245806000Y-43219100D03*
X219028000Y-66500000D03*
X230254000Y-72941800D03*
X235528000Y-49300000D03*
X218828000Y-32300000D03*
X230714800Y-55055300D03*
X219028000Y-49200000D03*
X213428000Y-73100000D03*
X213584400Y-55312600D03*
D14*
%TO.N,Net-(U46D--)*%
X286856000Y-334850000D03*
X284756000Y-335450000D03*
%TO.N,Net-(U53D--)*%
X336956000Y-41850200D03*
X335556000Y-42150200D03*
%TO.N,Net-(U56D--)*%
X335856000Y-109520000D03*
X337356000Y-108920000D03*
%TO.N,Net-(U57D--)*%
X336956000Y-92720200D03*
X335556000Y-93020200D03*
%TO.N,Net-(U58D--)*%
X338556000Y-177590000D03*
X336456000Y-178190000D03*
%TO.N,Net-(U69D--)*%
X336956000Y-245330000D03*
X335556000Y-245630000D03*
%TO.N,Net-(U60D--)*%
X337356000Y-159790000D03*
X335856000Y-160390000D03*
%TO.N,Net-(U61D--)*%
X336956000Y-143590000D03*
X335556000Y-143890000D03*
D13*
%TO.N,/InNeuron_3/Adder3/SUM_IN*%
X234398000Y-155875000D03*
X233928000Y-138800000D03*
X234463000Y-173025000D03*
X214301200Y-162200000D03*
X218933000Y-138775000D03*
X218828000Y-173000000D03*
X228711300Y-144946100D03*
X218359900Y-178340300D03*
X244306000Y-150910000D03*
X218828000Y-155600000D03*
D14*
%TO.N,Net-(U62D--)*%
X338556000Y-228460000D03*
X336456000Y-229060000D03*
%TO.N,Net-(U50D--)*%
X338556000Y-75850200D03*
X336456000Y-76450200D03*
%TO.N,Net-(U54D--)*%
X338556000Y-126720000D03*
X336456000Y-127320000D03*
%TO.N,Net-(U65D--)*%
X336956000Y-194460000D03*
X335556000Y-194760000D03*
%TO.N,Net-(U66D--)*%
X336456000Y-279930000D03*
X338556000Y-279330000D03*
%TO.N,Net-(U73D--)*%
X335556000Y-296500000D03*
X336956000Y-296200000D03*
%TO.N,/Neuron6_1/Adder2/SUM_IN*%
X281056000Y-65550200D03*
X281956000Y-83350200D03*
X286356000Y-61450200D03*
X287756000Y-81350200D03*
%TO.N,Net-(U68D--)*%
X335856000Y-262130000D03*
X337356000Y-261530000D03*
%TO.N,Net-(U70D--)*%
X336456000Y-330800000D03*
X338556000Y-330200000D03*
%TO.N,Net-(U77D--)*%
X388698000Y-39662200D03*
X387298000Y-39962200D03*
%TO.N,/Neuron6_2/Adder2/SUM_IN*%
X281956000Y-134850000D03*
X281056000Y-117050000D03*
X287756000Y-132850000D03*
X286356000Y-112950000D03*
%TO.N,Net-(U72D--)*%
X337356000Y-312400000D03*
X335856000Y-313000000D03*
%TO.N,Net-(U74D--)*%
X390298000Y-73662200D03*
X388198000Y-74262200D03*
%TO.N,Net-(U81D--)*%
X387298000Y-91406200D03*
X388698000Y-91106200D03*
%TO.N,/Neuron6_3/Adder2/SUM_IN*%
X281956000Y-186350000D03*
X281056000Y-168550000D03*
X286356000Y-164450000D03*
X287756000Y-184350000D03*
%TO.N,Net-(U76D--)*%
X387598000Y-56462200D03*
X389098000Y-55862200D03*
%TO.N,Net-(U78D--)*%
X390298000Y-125106000D03*
X388198000Y-125706000D03*
%TO.N,Net-(U85D--)*%
X388698000Y-142550000D03*
X387298000Y-142850000D03*
%TO.N,/Neuron6_4/Adder2/SUM_IN*%
X281956000Y-237850000D03*
X286356000Y-215950000D03*
X287756000Y-235850000D03*
X281056000Y-220050000D03*
%TO.N,Net-(U80D--)*%
X387598000Y-107906000D03*
X389098000Y-107306000D03*
%TO.N,Net-(U82D--)*%
X390298000Y-176550000D03*
X388198000Y-177150000D03*
%TO.N,Net-(U89D--)*%
X388698000Y-193994000D03*
X387298000Y-194294000D03*
%TO.N,/Neuron6_5/Adder2/SUM_IN*%
X281056000Y-271550000D03*
X281956000Y-289350000D03*
X287756000Y-287350000D03*
X286356000Y-267450000D03*
%TO.N,Net-(U84D--)*%
X387598000Y-159350000D03*
X389098000Y-158750000D03*
%TO.N,Net-(U86D--)*%
X388198000Y-228594000D03*
X390298000Y-227994000D03*
%TO.N,Net-(U93D--)*%
X388698000Y-245438000D03*
X387298000Y-245738000D03*
%TO.N,/Neuron6_6/Adder2/SUM_IN*%
X281056000Y-323050000D03*
X286356000Y-318950000D03*
X287756000Y-338850000D03*
X281956000Y-340850000D03*
%TO.N,Net-(U88D--)*%
X387598000Y-210794000D03*
X389098000Y-210194000D03*
%TO.N,Net-(U90D--)*%
X390298000Y-279438000D03*
X388198000Y-280038000D03*
%TO.N,Net-(U97D--)*%
X388698000Y-296882000D03*
X387298000Y-297182000D03*
%TO.N,/Neuron6_7/Adder2/SUM_IN*%
X333656000Y-81850200D03*
X338056000Y-59950200D03*
X332756000Y-64050200D03*
X339456000Y-79850200D03*
%TO.N,Net-(U92D--)*%
X389098000Y-261638000D03*
X387598000Y-262238000D03*
%TO.N,Net-(U94D--)*%
X388198000Y-331482000D03*
X390298000Y-330882000D03*
%TO.N,/Neuron6_8/Adder2/SUM_IN*%
X338056000Y-110820000D03*
X339456000Y-130720000D03*
X333656000Y-132720000D03*
X332756000Y-114920000D03*
%TO.N,Net-(U96D--)*%
X389098000Y-313082000D03*
X387598000Y-313682000D03*
%TO.N,/Neuron6_9/Adder2/SUM_IN*%
X338056000Y-161690000D03*
X332756000Y-165790000D03*
X339456000Y-181590000D03*
X333656000Y-183590000D03*
%TO.N,/Neuron6_10/Adder2/SUM_IN*%
X338056000Y-212560000D03*
X339456000Y-232460000D03*
X333656000Y-234460000D03*
X332756000Y-216660000D03*
%TO.N,/Neuron6_11/Adder2/SUM_IN*%
X338056000Y-263430000D03*
X333656000Y-285330000D03*
X339456000Y-283330000D03*
X332756000Y-267530000D03*
%TO.N,/Neuron6_12/Adder2/SUM_IN*%
X338056000Y-314300000D03*
X339456000Y-334200000D03*
X332756000Y-318400000D03*
X333656000Y-336200000D03*
D13*
%TO.N,Net-(U2001D--)*%
X217490000Y-103050000D03*
X215190000Y-103450000D03*
%TO.N,Net-(U4001D--)*%
X217490000Y-120450000D03*
X215190000Y-120850000D03*
%TO.N,Net-(U5001D--)*%
X215390000Y-86050000D03*
X217690000Y-85650000D03*
D14*
%TO.N,/Neuron6_13/Adder2/SUM_IN*%
X385398000Y-79662200D03*
X384498000Y-61862200D03*
X389798000Y-57762200D03*
X391198000Y-77662200D03*
D13*
%TO.N,Net-(U6001D--)*%
X232690000Y-120350000D03*
X230390000Y-120750000D03*
D14*
%TO.N,Net-(U14001D--)*%
X442241000Y-73545200D03*
X440841000Y-73845200D03*
%TO.N,Net-(U15001D--)*%
X440941000Y-56845200D03*
X442341000Y-56545200D03*
%TO.N,/Neuron6_14/Adder2/SUM_IN*%
X385398000Y-131106000D03*
X389798000Y-109206000D03*
X384498000Y-113306000D03*
X391198000Y-129106000D03*
%TO.N,Net-(U16001D--)*%
X442341000Y-38545200D03*
X440941000Y-38845200D03*
%TO.N,Net-(U18001D--)*%
X442556000Y-107100000D03*
X441156000Y-107400000D03*
%TO.N,Net-(U19001D--)*%
X441106000Y-90600200D03*
X442506000Y-90300200D03*
%TO.N,/Neuron6_15/Adder2/SUM_IN*%
X384498000Y-164750000D03*
X391198000Y-180550000D03*
X385398000Y-182550000D03*
X389798000Y-160650000D03*
%TO.N,Net-(U20001D--)*%
X441256000Y-124800000D03*
X442656000Y-124500000D03*
D13*
%TO.N,Net-(U22001D--)*%
X215628000Y-49500000D03*
X217928000Y-49100000D03*
%TO.N,Net-(U24001D--)*%
X215628000Y-66800000D03*
X217928000Y-66400000D03*
D14*
%TO.N,/Neuron6_16/Adder2/SUM_IN*%
X389798000Y-212094000D03*
X391198000Y-231994000D03*
X384498000Y-216194000D03*
X385398000Y-233994000D03*
D13*
%TO.N,Net-(U25001D--)*%
X217728000Y-32200000D03*
X215428000Y-32600000D03*
%TO.N,Net-(U26001D--)*%
X232263000Y-66825000D03*
X234563000Y-66425000D03*
%TO.N,Net-(U27001D--)*%
X232128000Y-49600000D03*
X234428000Y-49200000D03*
D14*
%TO.N,/Neuron6_17/Adder2/SUM_IN*%
X385398000Y-285438000D03*
X391198000Y-283438000D03*
X384498000Y-267638000D03*
X389798000Y-263538000D03*
D13*
%TO.N,Net-(U28001D--)*%
X231928000Y-32700000D03*
X234228000Y-32300000D03*
%TO.N,Net-(U29001D--)*%
X230590000Y-103350000D03*
X232890000Y-102950000D03*
%TO.N,Net-(U30001D--)*%
X232990000Y-85550000D03*
X230690000Y-85950000D03*
%TO.N,Net-(U32001D--)*%
X215428000Y-155900000D03*
X217728000Y-155500000D03*
D14*
%TO.N,/Neuron6_18/Adder2/SUM_IN*%
X391198000Y-334882000D03*
X384498000Y-319082000D03*
X389798000Y-314982000D03*
X385398000Y-336882000D03*
D13*
%TO.N,Net-(U34001D--)*%
X215428000Y-173300000D03*
X217728000Y-172900000D03*
%TO.N,Net-(U35001D--)*%
X215533000Y-139075000D03*
X217833000Y-138675000D03*
%TO.N,Net-(U36001D--)*%
X233363000Y-172925000D03*
X231063000Y-173325000D03*
%TO.N,/InNeuron_4/Adder3/SUM_IN*%
X235571000Y-191075000D03*
X218292800Y-231417900D03*
X220380300Y-197483400D03*
X219066000Y-226050000D03*
X235371000Y-208175000D03*
D14*
X245700000Y-202971100D03*
D13*
X219371000Y-208575000D03*
X218391300Y-214238500D03*
X219436000Y-191100000D03*
X235871000Y-225575000D03*
%TO.N,Net-(U37001D--)*%
X230998000Y-156175000D03*
X233298000Y-155775000D03*
D14*
%TO.N,Net-(U64D--)*%
X335856000Y-211260000D03*
X337356000Y-210660000D03*
D13*
%TO.N,Net-(U38001D--)*%
X232828000Y-138700000D03*
X230528000Y-139100000D03*
%TO.N,Net-(U130001D--)*%
X218271000Y-208475000D03*
X215971000Y-208875000D03*
%TO.N,Net-(U132001D--)*%
X217966000Y-225950000D03*
X215666000Y-226350000D03*
%TO.N,Net-(U133001D--)*%
X216036000Y-191400000D03*
X218336000Y-191000000D03*
%TO.N,/InNeuron_5/Adder3/SUM_IN*%
X214066000Y-269400000D03*
X246487700Y-257079800D03*
X218364600Y-285945400D03*
X236366000Y-262400000D03*
X236466000Y-279900000D03*
X219066000Y-262800000D03*
X219266000Y-244900000D03*
X219266000Y-280200000D03*
X218505400Y-250163100D03*
X236466000Y-244800000D03*
%TO.N,Net-(U134001D--)*%
X232471000Y-225875000D03*
X234771000Y-225475000D03*
%TO.N,Net-(U135001D--)*%
X231971000Y-208475000D03*
X234271000Y-208075000D03*
%TO.N,Net-(U136001D--)*%
X234471000Y-190975000D03*
X232171000Y-191375000D03*
%TO.N,Net-(U138001D--)*%
X217966000Y-262700000D03*
X215666000Y-263100000D03*
%TO.N,Net-(U140001D--)*%
X215866000Y-280500000D03*
X218166000Y-280100000D03*
%TO.N,Net-(U141001D--)*%
X215866000Y-245200000D03*
X218166000Y-244800000D03*
%TO.N,/InNeuron_6/Adder3/SUM_IN*%
X235731000Y-299205000D03*
X219131000Y-335005000D03*
X219066000Y-316705000D03*
X236296000Y-334830000D03*
X218473400Y-339854300D03*
X218519200Y-304033300D03*
X214430700Y-322456400D03*
X219231000Y-299405000D03*
X236001000Y-316380000D03*
X245617800Y-311182100D03*
%TO.N,Net-(U142001D--)*%
X233066000Y-280200000D03*
X235366000Y-279800000D03*
%TO.N,Net-(U143001D--)*%
X235266000Y-262300000D03*
X232966000Y-262700000D03*
%TO.N,Net-(U145001D--)*%
X235366000Y-244700000D03*
X233066000Y-245100000D03*
%TO.N,Net-(U147001D--)*%
X215666000Y-317005000D03*
X217966000Y-316605000D03*
%TO.N,Net-(U149001D--)*%
X218031000Y-334905000D03*
X215731000Y-335305000D03*
%TO.N,Net-(U179001D--)*%
X215831000Y-299705000D03*
X218131000Y-299305000D03*
%TO.N,Net-(U180001D--)*%
X232896000Y-335130000D03*
X235196000Y-334730000D03*
%TO.N,Net-(U181001D--)*%
X234901000Y-316280000D03*
X232601000Y-316680000D03*
%TO.N,Net-(U182001D--)*%
X232331000Y-299505000D03*
X234631000Y-299105000D03*
D14*
%TO.N,/CS*%
X42808600Y-34342900D03*
D13*
X102442100Y-35044500D03*
%TO.N,/SCK*%
X84941100Y-108223200D03*
D14*
X105300000Y-282600000D03*
D13*
X80229800Y-331601900D03*
X138257800Y-246435300D03*
X84934100Y-113363500D03*
D14*
X137300000Y-176000000D03*
D13*
X41105500Y-282150600D03*
X79234300Y-323198300D03*
X137517200Y-312706800D03*
X81990500Y-142005900D03*
X109268400Y-94274900D03*
X137558400Y-303960000D03*
D14*
X142900000Y-166600000D03*
D13*
X81739100Y-123427600D03*
D14*
X105457000Y-278463000D03*
D13*
X112896000Y-105431000D03*
X41231100Y-263944700D03*
X137849300Y-257348400D03*
X106450000Y-38434900D03*
X109446300Y-113938200D03*
X41231100Y-276689300D03*
X111304000Y-246018100D03*
%TO.N,/MOSI*%
X172773900Y-128736000D03*
X61559500Y-270578200D03*
X37480800Y-258224700D03*
X111839400Y-189607800D03*
X140833300Y-237576700D03*
X169799400Y-103921100D03*
X108114600Y-218383400D03*
X109787200Y-185132600D03*
X80988500Y-270185900D03*
X84001300Y-124122800D03*
X61426700Y-262524800D03*
X109449100Y-95415700D03*
X107450000Y-38425600D03*
X109474100Y-123018400D03*
X84443100Y-217885000D03*
X84419000Y-203318500D03*
X172083900Y-156358300D03*
X109507600Y-204437800D03*
X37412400Y-293840500D03*
X83571900Y-278002100D03*
X169804400Y-98982900D03*
X140833600Y-269924400D03*
X109122700Y-143647600D03*
X141044300Y-205951400D03*
X149672100Y-109351900D03*
X41031100Y-312590100D03*
X140933600Y-230837700D03*
X84126000Y-206513300D03*
X40889900Y-319385000D03*
X83718600Y-259235000D03*
X140743200Y-266039500D03*
X149800700Y-98428700D03*
%TO.N,/S0*%
X21991900Y-42137900D03*
X54204900Y-64343200D03*
X60602700Y-33049700D03*
X22548400Y-65789800D03*
X61010700Y-54481000D03*
X60560700Y-36857900D03*
X113120400Y-37310100D03*
D14*
X60394700Y-43837600D03*
D13*
X21843200Y-75110500D03*
X56916400Y-22666200D03*
X22910200Y-54663200D03*
D14*
%TO.N,/S1*%
X61000000Y-43600000D03*
D13*
X26082800Y-23113900D03*
X22299200Y-88622600D03*
X22771000Y-45085600D03*
X55479200Y-54212200D03*
X113489700Y-36148800D03*
X25689900Y-33999100D03*
D14*
X60000000Y-35575900D03*
D13*
X21867700Y-78264900D03*
X58139300Y-24808000D03*
%TO.N,/S2*%
X70357500Y-32619900D03*
X28353500Y-78387800D03*
X66410100Y-66965300D03*
X31493000Y-35785700D03*
X65929700Y-47204700D03*
X32870000Y-66586400D03*
X114521100Y-34023900D03*
X30916900Y-89939800D03*
X32889500Y-44849900D03*
X30762400Y-58099500D03*
%TO.N,/S3*%
X32916000Y-23926400D03*
X32919100Y-34649100D03*
X31649000Y-46560200D03*
X31663400Y-57445400D03*
X64256400Y-24100700D03*
X66410100Y-56294200D03*
X113603200Y-34045500D03*
X64747200Y-34542100D03*
X66093400Y-45907500D03*
%TO.N,/S4*%
X111839400Y-38711400D03*
X40116100Y-40056700D03*
%TO.N,/S5*%
X114157100Y-32750000D03*
X110192900Y-33455600D03*
X39722800Y-40896400D03*
D14*
%TO.N,/S6*%
X52522266Y-45310977D03*
X110639750Y-32293766D03*
D13*
%TO.N,/S7*%
X115097400Y-32421200D03*
X46787300Y-41955800D03*
%TO.N,/VariableWeights/CS117*%
X62179600Y-92337000D03*
X63611200Y-35104400D03*
%TO.N,/VariableWeights/CS118*%
X62941400Y-100097600D03*
X68731900Y-30024800D03*
%TO.N,/VariableWeights/CS119*%
X62934300Y-105432600D03*
X68731900Y-31992800D03*
%TO.N,/VariableWeights/CS1110*%
X63654300Y-33094300D03*
X60743900Y-111081100D03*
%TO.N,/VariableWeights/CS1111*%
X59009700Y-118491700D03*
X58232800Y-45589200D03*
%TO.N,/VariableWeights/CS1112*%
X60947600Y-42411600D03*
X60493900Y-124794100D03*
%TO.N,/VariableWeights/CS127*%
X59387900Y-133685700D03*
X56735100Y-45348600D03*
%TO.N,/VariableWeights/CS128*%
X62318300Y-43330700D03*
X59178800Y-140509500D03*
%TO.N,/VariableWeights/CS129*%
X59581700Y-146388100D03*
X60770300Y-40619500D03*
%TO.N,/VariableWeights/CS1210*%
X62602000Y-152811100D03*
X62411200Y-39914300D03*
%TO.N,/VariableWeights/CS1211*%
X56918400Y-39368800D03*
X58028400Y-160336300D03*
%TO.N,/VariableWeights/CS1212*%
X59895200Y-165756000D03*
X55977700Y-39057100D03*
%TO.N,/VariableWeights/CS137*%
X64720400Y-37402800D03*
X65930600Y-173398500D03*
%TO.N,/VariableWeights/CS138*%
X62952300Y-180262300D03*
X64396700Y-39368800D03*
%TO.N,/VariableWeights/CS139*%
X60535000Y-186875600D03*
X61128400Y-39368800D03*
%TO.N,/VariableWeights/CS1310*%
X69578500Y-43140500D03*
X63380600Y-193894500D03*
%TO.N,/VariableWeights/CS1311*%
X64118300Y-40879900D03*
X60863000Y-199718100D03*
%TO.N,/VariableWeights/CS1312*%
X63380600Y-206801900D03*
X69578500Y-41203100D03*
%TO.N,/VariableWeights/CS147*%
X68523700Y-45348600D03*
X59552700Y-214444300D03*
X59551700Y-45907500D03*
%TO.N,/VariableWeights/CS148*%
X61452600Y-220714800D03*
D14*
X64755200Y-43363700D03*
D13*
%TO.N,/VariableWeights/CS149*%
X56184300Y-57615200D03*
X59895200Y-227516300D03*
X57808800Y-142402900D03*
D14*
%TO.N,/VariableWeights/CS1410*%
X61200000Y-53400000D03*
X57900000Y-234400000D03*
D13*
%TO.N,/VariableWeights/CS1411*%
X58751200Y-241667600D03*
X54941900Y-52705200D03*
%TO.N,/VariableWeights/CS1412*%
X59168100Y-246685100D03*
X55062100Y-56887900D03*
%TO.N,/VariableWeights/CS157*%
X61365500Y-50600000D03*
D14*
X59200000Y-255100000D03*
D13*
%TO.N,/VariableWeights/CS158*%
X55441500Y-50075000D03*
X57885200Y-262544600D03*
%TO.N,/VariableWeights/CS159*%
X54784000Y-50948200D03*
X58231800Y-269523600D03*
%TO.N,/VariableWeights/CS1510*%
X58231800Y-275737500D03*
X57169500Y-48775000D03*
%TO.N,/VariableWeights/CS1511*%
X61440100Y-281871400D03*
X68398900Y-49823400D03*
X64456800Y-50132100D03*
%TO.N,/VariableWeights/CS1512*%
X61426700Y-288116400D03*
X64774300Y-48611700D03*
%TO.N,/VariableWeights/CS167*%
X61551100Y-295833100D03*
X69751300Y-50671900D03*
%TO.N,/VariableWeights/CS168*%
X59052600Y-301674600D03*
X63852900Y-51644200D03*
%TO.N,/VariableWeights/CS169*%
X61426700Y-307788700D03*
X67755200Y-51419400D03*
%TO.N,/VariableWeights/CS1610*%
X61006300Y-315538500D03*
X61911100Y-52025000D03*
D14*
%TO.N,/VariableWeights/CS1611*%
X61911100Y-53385100D03*
D13*
X61009200Y-321736900D03*
%TO.N,/VariableWeights/CS1612*%
X61911100Y-54517500D03*
X61007700Y-328386400D03*
%TO.N,/VariableWeights/CS111*%
X42630200Y-59071700D03*
X39717200Y-93181600D03*
%TO.N,/VariableWeights/CS112*%
X53089500Y-59825000D03*
X41546400Y-100558300D03*
%TO.N,/VariableWeights/CS113*%
X42215500Y-106954700D03*
X56169100Y-60475000D03*
%TO.N,/VariableWeights/CS114*%
X47215500Y-61125000D03*
X38299000Y-112513900D03*
%TO.N,/VariableWeights/CS115*%
X44539400Y-118475000D03*
X53215100Y-61886800D03*
%TO.N,/VariableWeights/CS116*%
X56124100Y-62425000D03*
X51679400Y-125546100D03*
%TO.N,/VariableWeights/CS121*%
X38720100Y-134383800D03*
X53252700Y-63137500D03*
%TO.N,/VariableWeights/CS122*%
X39375000Y-141092700D03*
X45746600Y-63642800D03*
%TO.N,/VariableWeights/CS123*%
X61546000Y-58846300D03*
X42193200Y-148298700D03*
%TO.N,/VariableWeights/CS124*%
X61546100Y-59785900D03*
X41106100Y-154358500D03*
%TO.N,/VariableWeights/CS125*%
X61546100Y-60777800D03*
X40882800Y-161197200D03*
%TO.N,/VariableWeights/CS126*%
X64201600Y-61125000D03*
X39540000Y-62803700D03*
X38430800Y-166383000D03*
%TO.N,/VariableWeights/CS131*%
X40908600Y-176277100D03*
X61188000Y-62736200D03*
%TO.N,/VariableWeights/CS132*%
X64198000Y-62425000D03*
X54605400Y-182254900D03*
%TO.N,/VariableWeights/CS133*%
X41131100Y-189145400D03*
X61449200Y-64711800D03*
%TO.N,/VariableWeights/CS134*%
X48817900Y-66711100D03*
X40206600Y-194939100D03*
%TO.N,/VariableWeights/CS135*%
X31625000Y-200188300D03*
X39169700Y-201117300D03*
X27654200Y-85527300D03*
%TO.N,/VariableWeights/CS136*%
X38285700Y-207728300D03*
X34815500Y-146675200D03*
X26422800Y-82624900D03*
%TO.N,/VariableWeights/CS141*%
X22299200Y-82624900D03*
X38282600Y-215538500D03*
X24640900Y-214136500D03*
%TO.N,/VariableWeights/CS142*%
X26872600Y-220114300D03*
X26341000Y-84618700D03*
X38274100Y-221997200D03*
%TO.N,/VariableWeights/CS143*%
X27841100Y-86666400D03*
X31996300Y-228084700D03*
X40353200Y-227966300D03*
%TO.N,/VariableWeights/CS144*%
X27100900Y-235645000D03*
X22406300Y-86239800D03*
%TO.N,/VariableWeights/CS145*%
X34208900Y-90595300D03*
D14*
X25689199Y-86509414D03*
D13*
X37689000Y-242232900D03*
%TO.N,/VariableWeights/CS146*%
X34415700Y-248010700D03*
X25755500Y-89076500D03*
%TO.N,/VariableWeights/CS151*%
X34671500Y-82737600D03*
X37889000Y-255981100D03*
%TO.N,/VariableWeights/CS152*%
X36272500Y-82822500D03*
X37889000Y-262544600D03*
%TO.N,/VariableWeights/CS153*%
X36168400Y-84533100D03*
X37889000Y-268671600D03*
%TO.N,/VariableWeights/CS154*%
X39021600Y-274817100D03*
X37144100Y-85326200D03*
%TO.N,/VariableWeights/CS155*%
X38255400Y-281360500D03*
X35727300Y-86610100D03*
%TO.N,/VariableWeights/CS156*%
X32970000Y-85481900D03*
X37412400Y-287862700D03*
%TO.N,/VariableWeights/CS161*%
X36791600Y-88410200D03*
X38820400Y-296658200D03*
%TO.N,/VariableWeights/CS162*%
X37412400Y-303803500D03*
D14*
X33571000Y-88602700D03*
D13*
%TO.N,/VariableWeights/CS163*%
X27501900Y-71697900D03*
X37412400Y-309781300D03*
%TO.N,/VariableWeights/CS164*%
X36240200Y-315759100D03*
X21195600Y-72339800D03*
%TO.N,/VariableWeights/CS165*%
X37412400Y-323729500D03*
X27501900Y-72989800D03*
%TO.N,/VariableWeights/CS166*%
X36826300Y-329707300D03*
X27265300Y-76392000D03*
%TO.N,/VariableWeights/CS211*%
X81754500Y-92587900D03*
X78175400Y-77302600D03*
X25941200Y-74289800D03*
%TO.N,/VariableWeights/CS212*%
X82187100Y-98629300D03*
X26570900Y-74939800D03*
X31254300Y-98669700D03*
%TO.N,/VariableWeights/CS213*%
X76399700Y-77949600D03*
X80269600Y-106489400D03*
X25918900Y-75689900D03*
%TO.N,/VariableWeights/CS214*%
X22961600Y-111706400D03*
X80262800Y-112855400D03*
X22299200Y-76370100D03*
%TO.N,/VariableWeights/CS215*%
X82503200Y-117723100D03*
X79769700Y-72266700D03*
X34504600Y-72266700D03*
%TO.N,/VariableWeights/CS216*%
X80921500Y-73043000D03*
X32912800Y-72339800D03*
X82833000Y-124243600D03*
%TO.N,/VariableWeights/CS221*%
X83158200Y-132861500D03*
X33043000Y-73264700D03*
X76399700Y-76647100D03*
%TO.N,/VariableWeights/CS222*%
X77528600Y-74080600D03*
X34573900Y-74080600D03*
X80058500Y-140464200D03*
%TO.N,/VariableWeights/CS223*%
X82176600Y-145359100D03*
X34535000Y-75416700D03*
X34878000Y-145359100D03*
%TO.N,/VariableWeights/CS224*%
X32914300Y-74939800D03*
X73397500Y-74939800D03*
X82690600Y-152230500D03*
D14*
%TO.N,/VariableWeights/CS225*%
X28353500Y-77032200D03*
D13*
X82912800Y-157985800D03*
X78718600Y-81127500D03*
%TO.N,/VariableWeights/CS226*%
X77852800Y-78878800D03*
X32938400Y-76505800D03*
X82943400Y-164822900D03*
%TO.N,/VariableWeights/CS231*%
X26085700Y-61427500D03*
X81690300Y-174284500D03*
X26899800Y-174023800D03*
%TO.N,/VariableWeights/CS232*%
X22894400Y-61174000D03*
X22336300Y-179347500D03*
X81535700Y-182001800D03*
%TO.N,/VariableWeights/CS233*%
X82491800Y-187118600D03*
X27452300Y-65333200D03*
X76088800Y-67184800D03*
%TO.N,/VariableWeights/CS234*%
X80712000Y-194195100D03*
X27220300Y-64391200D03*
X73397500Y-65613900D03*
%TO.N,/VariableWeights/CS235*%
X26085700Y-63824200D03*
X72831400Y-63708900D03*
X80696500Y-200188300D03*
%TO.N,/VariableWeights/CS236*%
X26234000Y-67630700D03*
X82925000Y-206442200D03*
X27550800Y-206266400D03*
%TO.N,/VariableWeights/CS261*%
X28278800Y-51219400D03*
X80331700Y-296488400D03*
X28674700Y-292198200D03*
%TO.N,/VariableWeights/CS262*%
X26218400Y-56346900D03*
X74723500Y-56555500D03*
X80249400Y-303485700D03*
%TO.N,/VariableWeights/CS263*%
X22906700Y-52251100D03*
X80347600Y-309699600D03*
X28083900Y-306193000D03*
%TO.N,/VariableWeights/CS264*%
X27250600Y-312235000D03*
X22895100Y-53169400D03*
X81102800Y-315322600D03*
D14*
%TO.N,/VariableWeights/CS265*%
X80600000Y-321500000D03*
X21400000Y-54300000D03*
D13*
%TO.N,/VariableWeights/CS266*%
X25951000Y-53285000D03*
X75343600Y-57262600D03*
X81545600Y-328219500D03*
%TO.N,/VariableWeights/CS251*%
X38709900Y-253988500D03*
X80980300Y-255981100D03*
X35430600Y-63622300D03*
%TO.N,/VariableWeights/CS252*%
X32563000Y-259966300D03*
X33074900Y-64486200D03*
X82690600Y-261353400D03*
%TO.N,/VariableWeights/CS253*%
X72495100Y-70281500D03*
X81440000Y-268671600D03*
X27501900Y-66965300D03*
%TO.N,/VariableWeights/CS254*%
X38129800Y-271921900D03*
X80748500Y-275907100D03*
X35593500Y-65449900D03*
%TO.N,/VariableWeights/CS255*%
X28176200Y-279892300D03*
X27071800Y-49919400D03*
X80932000Y-281884900D03*
%TO.N,/VariableWeights/CS256*%
X29194400Y-51223800D03*
X80744500Y-288785400D03*
X29436000Y-285870100D03*
%TO.N,/VariableWeights/CS241*%
X24600800Y-212143900D03*
X26251200Y-66714000D03*
X82094200Y-214514200D03*
%TO.N,/VariableWeights/CS242*%
X75774400Y-66239200D03*
X80696500Y-220114300D03*
X25900900Y-65580500D03*
%TO.N,/VariableWeights/CS243*%
X81407400Y-228084700D03*
X33869300Y-226040200D03*
X32899900Y-60804600D03*
%TO.N,/VariableWeights/CS244*%
X33559000Y-61454600D03*
X75378000Y-64988600D03*
X82866400Y-233881000D03*
%TO.N,/VariableWeights/CS245*%
X34496500Y-240339400D03*
X32941300Y-62542800D03*
X82925000Y-240339400D03*
%TO.N,/VariableWeights/CS246*%
X35163700Y-62368100D03*
X82925000Y-246769600D03*
X37451700Y-244025500D03*
%TO.N,/VariableWeights/CS311*%
X95911000Y-48180300D03*
X33130100Y-49358200D03*
X100271100Y-92587900D03*
%TO.N,/VariableWeights/CS312*%
X32917900Y-50395600D03*
X110076100Y-54728500D03*
X110158100Y-98533900D03*
%TO.N,/VariableWeights/CS313*%
X39050700Y-105072700D03*
X109633900Y-106536100D03*
X38820400Y-51457700D03*
%TO.N,/VariableWeights/CS314*%
X32909000Y-51869400D03*
X106702500Y-55332400D03*
X109446300Y-112513900D03*
%TO.N,/VariableWeights/CS315*%
X39872100Y-52302600D03*
X108836200Y-55048600D03*
X110932500Y-117969800D03*
%TO.N,/VariableWeights/CS316*%
X109766600Y-124469500D03*
X41281100Y-121156200D03*
X39248200Y-52978300D03*
%TO.N,/VariableWeights/CS321*%
X109128300Y-132439900D03*
X104967600Y-56721100D03*
X32877600Y-54424900D03*
%TO.N,/VariableWeights/CS322*%
X30111300Y-54733100D03*
X110021900Y-138932300D03*
X31534600Y-139282600D03*
%TO.N,/VariableWeights/CS323*%
X109128300Y-146388100D03*
X104787700Y-42821900D03*
X27077700Y-39510400D03*
%TO.N,/VariableWeights/CS324*%
X30000700Y-145151300D03*
X26155300Y-39488200D03*
X109317800Y-152564400D03*
%TO.N,/VariableWeights/CS325*%
X25690100Y-40334300D03*
X109652700Y-158430600D03*
X26105800Y-158430600D03*
%TO.N,/VariableWeights/CS326*%
X110021900Y-164778300D03*
X25736500Y-42900000D03*
X26761000Y-164778300D03*
%TO.N,/VariableWeights/CS331*%
X109968200Y-173131800D03*
X22911200Y-41898100D03*
X26369400Y-171038700D03*
%TO.N,/VariableWeights/CS332*%
X107109300Y-43561700D03*
X25676800Y-41999600D03*
X110608000Y-179677600D03*
%TO.N,/VariableWeights/CS333*%
X111700500Y-185361500D03*
X22820900Y-43373000D03*
X110754500Y-46228300D03*
%TO.N,/VariableWeights/CS334*%
X110959300Y-192535300D03*
X108869500Y-52735900D03*
X26077300Y-44765500D03*
%TO.N,/VariableWeights/CS335*%
X109275700Y-198969100D03*
X35118400Y-39034300D03*
X106630800Y-39334500D03*
%TO.N,/VariableWeights/CS336*%
X90483600Y-38042800D03*
X108470600Y-206164500D03*
X33542400Y-39684300D03*
%TO.N,/VariableWeights/CS341*%
X32879700Y-40334300D03*
X104040100Y-42138600D03*
X108114600Y-214573400D03*
%TO.N,/VariableWeights/CS342*%
X108070600Y-221103700D03*
X91813800Y-41626800D03*
X34426800Y-40984300D03*
%TO.N,/VariableWeights/CS343*%
X90355200Y-40779400D03*
X108070600Y-227893800D03*
X35985400Y-41599400D03*
%TO.N,/VariableWeights/CS344*%
X41055600Y-231788500D03*
X108823700Y-233401700D03*
X33130100Y-41959300D03*
%TO.N,/VariableWeights/CS345*%
X108470600Y-46872600D03*
X34432600Y-42958900D03*
X110138500Y-239838400D03*
%TO.N,/VariableWeights/CS346*%
X109023400Y-246310000D03*
X32914300Y-43584300D03*
X105507100Y-44760400D03*
%TO.N,/VariableWeights/CS351*%
X110827900Y-255981100D03*
X25710200Y-28149100D03*
X104314900Y-28509200D03*
%TO.N,/VariableWeights/CS352*%
X22915300Y-28799100D03*
X107784400Y-261958900D03*
X29694900Y-261919300D03*
%TO.N,/VariableWeights/CS353*%
X23682100Y-268235200D03*
X22292400Y-31032500D03*
X109025000Y-268235200D03*
%TO.N,/VariableWeights/CS354*%
X25306400Y-274146100D03*
X22917800Y-30334700D03*
X107087700Y-275907100D03*
%TO.N,/VariableWeights/CS355*%
X108899600Y-281142600D03*
X26855800Y-30817300D03*
X31312300Y-279306600D03*
%TO.N,/VariableWeights/CS356*%
X30572700Y-287198800D03*
X107784400Y-287198800D03*
X26547600Y-31842600D03*
%TO.N,/VariableWeights/CS361*%
X27937400Y-33014000D03*
X79137600Y-32957700D03*
X92056200Y-295833100D03*
%TO.N,/VariableWeights/CS362*%
X92661100Y-32369900D03*
X108725000Y-301992700D03*
X25687200Y-32699100D03*
%TO.N,/VariableWeights/CS363*%
X42392200Y-305347900D03*
X107951100Y-307975000D03*
X34832200Y-28455900D03*
%TO.N,/VariableWeights/CS364*%
X32889500Y-28773700D03*
X106619800Y-315759100D03*
X77754700Y-28822900D03*
%TO.N,/VariableWeights/CS365*%
X106619800Y-321736900D03*
X33488500Y-29423500D03*
X83052100Y-29830200D03*
%TO.N,/VariableWeights/CS366*%
X89083600Y-30375100D03*
X107555600Y-327714700D03*
X34120300Y-30099100D03*
%TO.N,/VariableWeights/CS411*%
X140236300Y-90009600D03*
X37508900Y-84015700D03*
X33464800Y-30736700D03*
%TO.N,/VariableWeights/CS412*%
X139294400Y-32809900D03*
X142870400Y-98629300D03*
X32883300Y-31399100D03*
%TO.N,/VariableWeights/CS413*%
X138340500Y-33514300D03*
X36826300Y-31858000D03*
X140876000Y-104145500D03*
%TO.N,/VariableWeights/CS414*%
X34706000Y-32699100D03*
X37729000Y-109779400D03*
X139294400Y-111107000D03*
%TO.N,/VariableWeights/CS415*%
X136436800Y-15512900D03*
X25690300Y-17146600D03*
X137859900Y-117777800D03*
%TO.N,/VariableWeights/CS416*%
X140721100Y-123883700D03*
X140519500Y-16869100D03*
X22921300Y-17766700D03*
%TO.N,/VariableWeights/CS421*%
X138966000Y-132439900D03*
X26604100Y-20484200D03*
X138966000Y-20359100D03*
%TO.N,/VariableWeights/CS422*%
X26072600Y-19622900D03*
X31388000Y-137861400D03*
X139650200Y-138089800D03*
%TO.N,/VariableWeights/CS423*%
X139650200Y-145114600D03*
X134413700Y-16241100D03*
X22917800Y-19332400D03*
%TO.N,/VariableWeights/CS424*%
X138096800Y-152458500D03*
X22897600Y-21108200D03*
X123620800Y-28751700D03*
%TO.N,/VariableWeights/CS425*%
X25301400Y-156890600D03*
X25690900Y-21014900D03*
X140597600Y-158082100D03*
%TO.N,/VariableWeights/CS426*%
X25956900Y-21942700D03*
X141232400Y-25058200D03*
X139728300Y-163853000D03*
%TO.N,/VariableWeights/CS431*%
X138063800Y-174921300D03*
X122939800Y-16869100D03*
X32883400Y-17115800D03*
%TO.N,/VariableWeights/CS432*%
X32943500Y-18025900D03*
X139380400Y-179695700D03*
X135385900Y-24259800D03*
%TO.N,/VariableWeights/CS433*%
X138302000Y-187126000D03*
X39532800Y-18406800D03*
X132543100Y-15969400D03*
%TO.N,/VariableWeights/CS434*%
X139063300Y-192946900D03*
X132000800Y-23474400D03*
X37039200Y-20813100D03*
%TO.N,/VariableWeights/CS435*%
X34999600Y-21006800D03*
X135062400Y-22930500D03*
X138555800Y-199718100D03*
%TO.N,/VariableWeights/CS436*%
X133262800Y-28106900D03*
X138439800Y-206325400D03*
X32940700Y-21003000D03*
%TO.N,/VariableWeights/CS441*%
X138665400Y-214567800D03*
X30088400Y-21163900D03*
X136373600Y-24623700D03*
%TO.N,/VariableWeights/CS442*%
X122742000Y-25053400D03*
X35388300Y-22909000D03*
X138393400Y-220871400D03*
%TO.N,/VariableWeights/CS443*%
X133042100Y-19402500D03*
X63957300Y-17494900D03*
X138701200Y-227538900D03*
%TO.N,/VariableWeights/CS444*%
X134215800Y-17618500D03*
X60552100Y-17793300D03*
X140450600Y-233969600D03*
%TO.N,/VariableWeights/CS445*%
X66778300Y-237700400D03*
X138602200Y-240370300D03*
X64316300Y-18875000D03*
%TO.N,/VariableWeights/CS446*%
X60838800Y-19454000D03*
X139325000Y-246799300D03*
X132416800Y-18629100D03*
%TO.N,/VariableWeights/CS451*%
X136531300Y-255981100D03*
X62666400Y-20762500D03*
X122169500Y-19357900D03*
%TO.N,/VariableWeights/CS452*%
X123342300Y-20586900D03*
X60419300Y-20825000D03*
X138975100Y-262328100D03*
%TO.N,/VariableWeights/CS453*%
X137724500Y-22301800D03*
X139953000Y-268767000D03*
X61187000Y-21608500D03*
%TO.N,/VariableWeights/CS454*%
X121136400Y-28851100D03*
X60125000Y-24790400D03*
X136531300Y-275907100D03*
%TO.N,/VariableWeights/CS455*%
X136531300Y-281884900D03*
X67594300Y-17575000D03*
X116590300Y-17494500D03*
%TO.N,/VariableWeights/CS456*%
X107404600Y-18249600D03*
X68227200Y-18264000D03*
X138099600Y-287437100D03*
%TO.N,/VariableWeights/CS461*%
X68885900Y-18875000D03*
X138759400Y-295414600D03*
X105981500Y-295414600D03*
%TO.N,/VariableWeights/CS462*%
X137516000Y-302695000D03*
X65280400Y-301479400D03*
X64488000Y-20161100D03*
%TO.N,/VariableWeights/CS463*%
X68731900Y-20111500D03*
X140519500Y-307820300D03*
X118171700Y-19356600D03*
%TO.N,/VariableWeights/CS464*%
X140652500Y-315775300D03*
X123345400Y-21446900D03*
X73324000Y-21416000D03*
%TO.N,/VariableWeights/CS465*%
X72437500Y-21475000D03*
X75358600Y-320346100D03*
X137525900Y-321736900D03*
%TO.N,/VariableWeights/CS466*%
X138775200Y-327681100D03*
X120175900Y-23569100D03*
X68491100Y-23735000D03*
%TO.N,/VariableWeights/CS511*%
X169088400Y-94260000D03*
X169088400Y-31333500D03*
X62759400Y-28364500D03*
%TO.N,/VariableWeights/CS512*%
X63894200Y-27511400D03*
X169610900Y-100558300D03*
X67383000Y-97798500D03*
%TO.N,/VariableWeights/CS513*%
X63545900Y-98044400D03*
X61047800Y-29755500D03*
X169814100Y-106536100D03*
%TO.N,/VariableWeights/CS514*%
X165593100Y-35651400D03*
X62406300Y-32967800D03*
X169896700Y-112317600D03*
%TO.N,/VariableWeights/CS515*%
X57427900Y-27895700D03*
X160460500Y-30172900D03*
X171100000Y-119242900D03*
%TO.N,/VariableWeights/CS516*%
X160007100Y-39659300D03*
X169335200Y-126143100D03*
X66672300Y-36729300D03*
D14*
%TO.N,/VariableWeights/CS521*%
X169700000Y-132600000D03*
X56600000Y-33200000D03*
D13*
%TO.N,/VariableWeights/CS522*%
X159092700Y-38787700D03*
X168995600Y-140340600D03*
D14*
X57966000Y-35219400D03*
D13*
%TO.N,/VariableWeights/CS523*%
X168382100Y-146388100D03*
X66440800Y-25880600D03*
X168382100Y-25690600D03*
%TO.N,/VariableWeights/CS524*%
X68731900Y-28423800D03*
X168836200Y-154358500D03*
X71161100Y-154986400D03*
%TO.N,/VariableWeights/CS525*%
X170350000Y-160112100D03*
X70726500Y-29225300D03*
X171050400Y-30700000D03*
%TO.N,/VariableWeights/CS526*%
X169528100Y-166588100D03*
X66900900Y-165135600D03*
X64057200Y-29930000D03*
%TO.N,/VariableWeights/WeightCtrlChipSel/MUX7*%
X36826300Y-16438400D03*
X39549700Y-35475000D03*
%TO.N,/VariableWeights/WeightCtrlChipSel/MUX3*%
X26085700Y-60176800D03*
X30844000Y-37337700D03*
%TO.N,/VariableWeights/WeightCtrlChipSel/MUX2*%
X27501900Y-70797500D03*
X43115400Y-38429500D03*
%TO.N,/VariableWeights/WeightCtrlChipSel/MUX1*%
X26258100Y-37900500D03*
X22299200Y-80632300D03*
%TO.N,/VariableWeights/WeightCtrlChipSel/MUX0*%
X46796800Y-58404500D03*
X43430500Y-40378500D03*
%TO.N,/VariableWeights/WeightCtrlChipSel/MUX8*%
X56767300Y-16659500D03*
X54070400Y-35475000D03*
%TD*%
D15*
%TO.N,/InNeuron_1/OUT*%
X277241200Y-195927500D02*
X277516800Y-196203100D01*
D16*
X277578000Y-232328800D02*
X277585700Y-232336500D01*
X277585700Y-231803300D02*
X277578000Y-231811000D01*
D15*
X277835500Y-145602200D02*
X277241200Y-146196500D01*
D16*
X277516800Y-196203100D02*
X277585700Y-196203100D01*
X277585700Y-232336500D02*
X277585700Y-248229400D01*
X277585700Y-248229400D02*
X278103700Y-248747400D01*
D15*
X277241200Y-146196500D02*
X277241200Y-195927500D01*
D16*
X277578000Y-231811000D02*
X277578000Y-232328800D01*
X277585700Y-196203100D02*
X277792400Y-196203100D01*
X277585700Y-196203100D02*
X277585700Y-231803300D01*
D15*
%TO.N,/InNeuron_3/OUT*%
X278503100Y-128776600D02*
X278503100Y-157209000D01*
X278181200Y-128454700D02*
X278503100Y-128776600D01*
X277885500Y-157826600D02*
X277885500Y-180262300D01*
X278503100Y-157209000D02*
X277885500Y-157826600D01*
%TO.N,/Neuron6_1/OUT*%
X331628700Y-70855600D02*
X331628700Y-70379000D01*
X331251700Y-84840500D02*
X331251600Y-84840500D01*
X328971700Y-58919900D02*
X328971700Y-41417400D01*
X331245900Y-84834800D02*
X331245900Y-76339500D01*
X331279500Y-90789700D02*
X331245900Y-90756100D01*
X331245900Y-90756100D02*
X331245900Y-85996600D01*
X331326000Y-70076300D02*
X331326000Y-61274200D01*
X328971700Y-41417400D02*
X329608800Y-40780300D01*
X331251600Y-84840500D02*
X331245900Y-84834800D01*
X331588600Y-85654000D02*
X331588600Y-85177400D01*
X331245900Y-85996600D02*
X331251600Y-85990900D01*
X331251600Y-85990900D02*
X331251700Y-85990900D01*
X331326000Y-76259400D02*
X331326000Y-71158300D01*
X331251700Y-85990900D02*
X331588600Y-85654000D01*
X331326000Y-71158300D02*
X331628700Y-70855600D01*
X331326000Y-61274200D02*
X328971700Y-58919900D01*
X331245900Y-76339500D02*
X331326000Y-76259400D01*
X331588600Y-85177400D02*
X331251700Y-84840500D01*
X331628700Y-70379000D02*
X331326000Y-70076300D01*
%TO.N,/Neuron6_10/IN3*%
X328966000Y-146117900D02*
X328966000Y-127384700D01*
X330636100Y-84979600D02*
X330438200Y-85177500D01*
X330405300Y-195059200D02*
X330405300Y-224457300D01*
X328966000Y-146658300D02*
X328997900Y-146626400D01*
X330405300Y-194158200D02*
X330193000Y-194370500D01*
X328997900Y-146626400D02*
X328997900Y-146149800D01*
X330636100Y-76064700D02*
X330636100Y-84979600D01*
D16*
X329898100Y-278988300D02*
X330405300Y-278988300D01*
D15*
X330405300Y-177605400D02*
X330405300Y-186827600D01*
X328966000Y-127384700D02*
X329888600Y-126462100D01*
X330636100Y-85851800D02*
X330636100Y-125714600D01*
D16*
X330405300Y-278988300D02*
X330405300Y-224457300D01*
D15*
X330193000Y-194370500D02*
X330193000Y-194846900D01*
X330372900Y-186860000D02*
X330372900Y-187336400D01*
X328966000Y-176166100D02*
X328966000Y-146658300D01*
X330193000Y-194846900D02*
X330405300Y-195059200D01*
X330438200Y-85653900D02*
X330636100Y-85851800D01*
X330636100Y-279147300D02*
X330477100Y-278988300D01*
X328997900Y-146149800D02*
X328966000Y-146117900D01*
X330636100Y-328986000D02*
X330636100Y-279147300D01*
X329900500Y-177100600D02*
X328966000Y-176166100D01*
X330405300Y-186827600D02*
X330372900Y-186860000D01*
X330405300Y-187368800D02*
X330405300Y-194158200D01*
X330372900Y-187336400D02*
X330405300Y-187368800D01*
X330636100Y-125714600D02*
X329888600Y-126462100D01*
X297635200Y-154478300D02*
X297635200Y-174284500D01*
X330438200Y-85177500D02*
X330438200Y-85653900D01*
D16*
X330405300Y-278988300D02*
X330477100Y-278988300D01*
D15*
X329900500Y-177100600D02*
X330405300Y-177605400D01*
%TO.N,/Neuron6_10/IN4*%
X298053400Y-188232700D02*
X298053400Y-205198400D01*
X335069800Y-82927800D02*
X334625600Y-82483600D01*
X335069800Y-133056500D02*
X335069800Y-82927800D01*
X335361500Y-133348200D02*
X335069800Y-133056500D01*
%TO.N,/Neuron6_10/IN6*%
X334036100Y-217292600D02*
X334726700Y-217983200D01*
X334726700Y-267490800D02*
X334036100Y-268181400D01*
X334711100Y-238174200D02*
X334711100Y-238650600D01*
X334681300Y-149308000D02*
X334036100Y-149953200D01*
X334681300Y-116224400D02*
X334681300Y-149308000D01*
X334726700Y-238666200D02*
X334726700Y-267490800D01*
D16*
X332928100Y-114471100D02*
X332928100Y-65839500D01*
X332928100Y-65839500D02*
X334073000Y-64694600D01*
D15*
X334726700Y-217983200D02*
X334726700Y-238158600D01*
X334726700Y-238158600D02*
X334711100Y-238174200D01*
X334036100Y-115579200D02*
X334681300Y-116224400D01*
X334036100Y-149953200D02*
X334036100Y-166416000D01*
D16*
X333831600Y-115374600D02*
X332928100Y-114471100D01*
D15*
X334036100Y-115579200D02*
X333831600Y-115374700D01*
X333831600Y-115374700D02*
X333831600Y-115374600D01*
X334711100Y-238650600D02*
X334726700Y-238666200D01*
%TO.N,/Neuron6_13/IN1*%
X380638100Y-244231300D02*
X380638100Y-295189800D01*
X380843900Y-244025500D02*
X380638100Y-244231300D01*
X380638100Y-295189800D02*
X381281400Y-295833100D01*
%TO.N,/Neuron6_13/IN3*%
X382279600Y-321297100D02*
X382279600Y-329346300D01*
X382053500Y-321071000D02*
X382279600Y-321297100D01*
X381621500Y-279042300D02*
X382279600Y-279700400D01*
X382053500Y-320594600D02*
X382053500Y-321071000D01*
X380658000Y-175307300D02*
X381627800Y-176277100D01*
X380658000Y-125125500D02*
X380658000Y-175307300D01*
X382279600Y-279700400D02*
X382279600Y-320368500D01*
X351894000Y-155400800D02*
X348448600Y-151955400D01*
X382279600Y-320368500D02*
X382053500Y-320594600D01*
X381314000Y-124469500D02*
X380658000Y-125125500D01*
X382279600Y-329346300D02*
X381811000Y-329814900D01*
X351894000Y-174284500D02*
X351894000Y-155400800D01*
%TO.N,/Neuron6_10/OUT*%
X386474700Y-80605200D02*
X386474700Y-100187900D01*
X386474700Y-101323500D02*
X386474700Y-131571400D01*
X386192700Y-80323200D02*
X386474700Y-80605200D01*
X386145100Y-100517500D02*
X386145100Y-100993900D01*
X386145100Y-100993900D02*
X386474700Y-101323500D01*
X386474700Y-131571400D02*
X386283400Y-131762700D01*
X350074000Y-201023400D02*
X350074000Y-183822400D01*
X386474700Y-100187900D02*
X386145100Y-100517500D01*
D16*
%TO.N,/Neuron6_11/OUT*%
X382178300Y-105763200D02*
X382178300Y-135130600D01*
D15*
X381525100Y-158193300D02*
X381987700Y-158655900D01*
X380989400Y-291404600D02*
X381929300Y-292344500D01*
X381403600Y-260819200D02*
X380989400Y-261233400D01*
X380989400Y-261233400D02*
X380989400Y-291404600D01*
X381987700Y-158655900D02*
X381987700Y-158656000D01*
X381929300Y-292344500D02*
X381929300Y-311417500D01*
X382289700Y-158958000D02*
X382289700Y-208172000D01*
D16*
X381062400Y-157730600D02*
X381525100Y-158193300D01*
X381062400Y-136246500D02*
X381062400Y-157730600D01*
D15*
X381929300Y-311417500D02*
X381572900Y-311773900D01*
D16*
X382178300Y-135130600D02*
X381062400Y-136246500D01*
D15*
X381987700Y-158656000D02*
X382289700Y-158958000D01*
X382289700Y-208172000D02*
X381061900Y-209399800D01*
%TO.N,/Neuron6_14/OUT*%
X401448700Y-98462800D02*
X401448700Y-129667900D01*
%TO.N,/Neuron6_15/OUT*%
X403740700Y-108528700D02*
X403740700Y-147195200D01*
X434850800Y-106536100D02*
X434570900Y-106256200D01*
X434570900Y-106256200D02*
X434570900Y-73694500D01*
X403740700Y-147195200D02*
X401816000Y-149119900D01*
X434570900Y-73694500D02*
X435094900Y-73170500D01*
%TO.N,/Neuron6_17/OUT*%
X435227400Y-106099200D02*
X435426000Y-106297800D01*
X435426000Y-106297800D02*
X435426000Y-106774400D01*
X435426000Y-106774400D02*
X435227400Y-106973000D01*
X435227400Y-106973000D02*
X435227400Y-218607300D01*
X435227400Y-89635800D02*
X435227400Y-106099200D01*
X435227400Y-218607300D02*
X401816000Y-252018700D01*
%TO.N,/InNeuron_4/OUT*%
X283429600Y-239248500D02*
X282656500Y-238475400D01*
D16*
X283381800Y-288788100D02*
X283381800Y-324637300D01*
X283006700Y-186885900D02*
X282889500Y-187003100D01*
D15*
X282981400Y-135208300D02*
X282981400Y-84266800D01*
X283429600Y-286451100D02*
X283429600Y-242975000D01*
D16*
X283006700Y-136695400D02*
X283006700Y-186885900D01*
D15*
X283429600Y-242975000D02*
X283751300Y-242653300D01*
X282250500Y-135939200D02*
X282981400Y-135208300D01*
D16*
X283140400Y-325396500D02*
X283381800Y-325637900D01*
D15*
X284574200Y-287595700D02*
X283429600Y-286451100D01*
X283751300Y-242653300D02*
X283751300Y-242176700D01*
X283429600Y-241855000D02*
X283429600Y-239248500D01*
X283070300Y-238061600D02*
X282656500Y-238475400D01*
D16*
X283140400Y-324878700D02*
X283140400Y-325396500D01*
X283381800Y-324637300D02*
X283140400Y-324878700D01*
X283381800Y-325637900D02*
X283381800Y-339054700D01*
D15*
X282981400Y-84266800D02*
X282733500Y-84018900D01*
D16*
X282250500Y-135939200D02*
X283006700Y-136695400D01*
D15*
X283751300Y-242176700D02*
X283429600Y-241855000D01*
D16*
X284574200Y-287595700D02*
X283381800Y-288788100D01*
D15*
X282889500Y-187003100D02*
X283070300Y-187183900D01*
X283070300Y-187183900D02*
X283070300Y-238061600D01*
D16*
X283381800Y-339054700D02*
X284574200Y-340247100D01*
D15*
%TO.N,/InNeuron_5/OUT*%
X278770700Y-210168700D02*
X278770700Y-231823800D01*
X278549500Y-209947500D02*
X278770700Y-210168700D01*
X278770700Y-231823800D02*
X278778500Y-231831600D01*
X278853500Y-158226200D02*
X278644600Y-158435100D01*
X278778500Y-232308200D02*
X278770700Y-232316000D01*
X278853500Y-111377000D02*
X278853500Y-158226200D01*
X278644600Y-158435100D02*
X278644600Y-209852400D01*
X277997800Y-110521300D02*
X278853500Y-111377000D01*
X278770700Y-232316000D02*
X278770700Y-255096800D01*
X278644600Y-209852400D02*
X278549500Y-209947500D01*
X278770700Y-255096800D02*
X274831300Y-259036200D01*
X278778500Y-231831600D02*
X278778500Y-232308200D01*
D16*
%TO.N,/InNeuron_6/OUT*%
X281505900Y-245299900D02*
X281505900Y-221215400D01*
X281505900Y-221215400D02*
X282047000Y-220674300D01*
D15*
X282982600Y-323033300D02*
X282982600Y-272543600D01*
X282336100Y-323679800D02*
X282982600Y-323033300D01*
X282249400Y-272177000D02*
X282616000Y-272177000D01*
X281176700Y-171100100D02*
X282100600Y-170176200D01*
D16*
X282249400Y-246043400D02*
X281505900Y-245299900D01*
D15*
X282047000Y-220674300D02*
X282053500Y-220667800D01*
X279547600Y-117776000D02*
X279547600Y-134241600D01*
X280352600Y-116971000D02*
X279547600Y-117776000D01*
D16*
X282249400Y-272177000D02*
X282249400Y-246043400D01*
D15*
X282053500Y-220195100D02*
X281176700Y-219318300D01*
X282053500Y-220667800D02*
X282053500Y-220195100D01*
X282181400Y-136875400D02*
X282181400Y-170095400D01*
X282616000Y-272177000D02*
X282979600Y-272540600D01*
X282181400Y-170095400D02*
X282100600Y-170176200D01*
X279547600Y-134241600D02*
X282181400Y-136875400D01*
X281176700Y-219318300D02*
X281176700Y-171100100D01*
X282979600Y-272540600D02*
X282979600Y-272543600D01*
%TO.N,/L1_IN1*%
X211458400Y-192217900D02*
X211396900Y-192156400D01*
X211396900Y-192156400D02*
X211396900Y-156534500D01*
X211396900Y-155991300D02*
X211396900Y-138397900D01*
X211396900Y-138397900D02*
X211626400Y-138168400D01*
X211430200Y-156501200D02*
X211430200Y-156024600D01*
X211430200Y-156024600D02*
X211396900Y-155991300D01*
X211396900Y-156534500D02*
X211430200Y-156501200D01*
%TO.N,/L1_IN3*%
X211687800Y-220061000D02*
X211986600Y-219762200D01*
X211734100Y-263491700D02*
X211107900Y-262865500D01*
X211107900Y-262865500D02*
X211107900Y-245202000D01*
X211687800Y-218986800D02*
X211687800Y-210387700D01*
X211687800Y-244622100D02*
X211687800Y-237887700D01*
X210855000Y-156262900D02*
X210855000Y-104586200D01*
X211986600Y-219762200D02*
X211986600Y-219285600D01*
X211687800Y-237887700D02*
X211986600Y-237588900D01*
X210855000Y-104586200D02*
X210642300Y-104373500D01*
X211986600Y-237112300D02*
X211687800Y-236813500D01*
X211986600Y-219285600D02*
X211687800Y-218986800D01*
X211107900Y-245202000D02*
X211687800Y-244622100D01*
X211986600Y-237588900D02*
X211986600Y-237112300D01*
X211687800Y-236813500D02*
X211687800Y-220061000D01*
X211687800Y-210387700D02*
X211390000Y-210089900D01*
%TO.N,/L1_IN4*%
X213954500Y-209136100D02*
X213629600Y-208811200D01*
X213629600Y-185165300D02*
X213629600Y-161971400D01*
X214548900Y-109469300D02*
X215901000Y-108117200D01*
X213629600Y-186143500D02*
X213880400Y-185892700D01*
X213954500Y-209612700D02*
X213954500Y-209136100D01*
X214548900Y-161052100D02*
X214548900Y-109469300D01*
X213629600Y-161971400D02*
X214548900Y-161052100D01*
D17*
X214548900Y-161052100D02*
X217182300Y-161052100D01*
D15*
X213880400Y-185892700D02*
X213880400Y-185416100D01*
X216764500Y-212903900D02*
X213786300Y-209925700D01*
X213786300Y-209925700D02*
X213786300Y-209780900D01*
X213786300Y-209780900D02*
X213954500Y-209612700D01*
X213629600Y-208811200D02*
X213629600Y-186143500D01*
X213880400Y-185416100D02*
X213629600Y-185165300D01*
D17*
X217182300Y-161052100D02*
X217717200Y-160517200D01*
D15*
%TO.N,/L1_IN5*%
X210020000Y-122240200D02*
X210020000Y-72223600D01*
X211307900Y-281569200D02*
X210721400Y-280982700D01*
X212028400Y-299942400D02*
X211771500Y-299685500D01*
X211841000Y-70402600D02*
X211841000Y-67184800D01*
X211771500Y-310862200D02*
X212028400Y-310605300D01*
X211771500Y-300675900D02*
X212028400Y-300419000D01*
X212028400Y-315520800D02*
X211771500Y-315263900D01*
X211117300Y-232544300D02*
X211117300Y-232067700D01*
X212028400Y-315997400D02*
X212028400Y-315520800D01*
X211771500Y-316254300D02*
X212028400Y-315997400D01*
X209637100Y-173493100D02*
X210313000Y-174169000D01*
X211771500Y-309871800D02*
X211771500Y-300675900D01*
X210721400Y-232940100D02*
X210780300Y-232881200D01*
X212028400Y-310128700D02*
X211771500Y-309871800D01*
X210721400Y-280982700D02*
X210721400Y-232940100D01*
X212028400Y-300419000D02*
X212028400Y-299942400D01*
X211771500Y-282032800D02*
X211307900Y-281569200D01*
X211771500Y-299685500D02*
X211771500Y-282032800D01*
X210721400Y-227778100D02*
X211020400Y-227479100D01*
X209637100Y-122623100D02*
X209637100Y-173493100D01*
X211771500Y-315263900D02*
X211771500Y-310862200D01*
X210780300Y-232881200D02*
X210780400Y-232881200D01*
X211117300Y-232067700D02*
X210780400Y-231730800D01*
X210020000Y-122240200D02*
X209637100Y-122623100D01*
X210780400Y-232881200D02*
X211117300Y-232544300D01*
X210721400Y-231671900D02*
X210721400Y-227778100D01*
X212028400Y-310605300D02*
X212028400Y-310128700D01*
X211771500Y-335698400D02*
X211771500Y-316254300D01*
X210780400Y-231730800D02*
X210780300Y-231730800D01*
X210020000Y-72223600D02*
X211841000Y-70402600D01*
X210780300Y-231730800D02*
X210721400Y-231671900D01*
D16*
%TO.N,/L1_IN7*%
X226485600Y-147815000D02*
X226485600Y-157461100D01*
D15*
X226440000Y-232196500D02*
X226194900Y-232441600D01*
X228294500Y-191769700D02*
X226440000Y-193624200D01*
X226440000Y-233163100D02*
X226440000Y-244796900D01*
D16*
X225148300Y-166424800D02*
X225148300Y-188623500D01*
D15*
X226440000Y-201935800D02*
X226233600Y-202142200D01*
X226233600Y-202142200D02*
X226233600Y-202618600D01*
X226194900Y-232441600D02*
X226194900Y-232918000D01*
X226440000Y-193624200D02*
X226440000Y-201935800D01*
X226194900Y-232918000D02*
X226440000Y-233163100D01*
D16*
X225516900Y-140581200D02*
X225516900Y-146846300D01*
D15*
X226440000Y-211269900D02*
X226440000Y-232196500D01*
D16*
X225516900Y-146846300D02*
X226485600Y-147815000D01*
X224874200Y-165632900D02*
X224874200Y-166150700D01*
X224874200Y-166150700D02*
X225148300Y-166424800D01*
D15*
X226440000Y-244796900D02*
X228102600Y-246459500D01*
D16*
X226440000Y-211269900D02*
X225391000Y-211269900D01*
X226485600Y-157461100D02*
X225148300Y-158798400D01*
X225148300Y-158798400D02*
X225148300Y-165358800D01*
X225148300Y-188623500D02*
X228294500Y-191769700D01*
D15*
X226440000Y-202825000D02*
X226440000Y-211269900D01*
D16*
X225148300Y-165358800D02*
X224874200Y-165632900D01*
D15*
X226233600Y-202618600D02*
X226440000Y-202825000D01*
D16*
%TO.N,/L1_IN8*%
X231665800Y-67139400D02*
X230082300Y-65555900D01*
D15*
X231998700Y-107378300D02*
X231998700Y-90358500D01*
X233003000Y-173464900D02*
X231998700Y-172460600D01*
D16*
X230082300Y-39184500D02*
X232703300Y-36563500D01*
D15*
X231998700Y-108018500D02*
X232080500Y-107936700D01*
X231998700Y-142914600D02*
X231998700Y-108018500D01*
D16*
X231665800Y-90358500D02*
X231665800Y-67139400D01*
D15*
X232080500Y-107936700D02*
X232080500Y-107460100D01*
D16*
X231998700Y-90358500D02*
X231665800Y-90358500D01*
D15*
X232080500Y-107460100D02*
X231998700Y-107378300D01*
D16*
X231998700Y-142914600D02*
X231290600Y-142914600D01*
D15*
X231998700Y-172460600D02*
X231998700Y-142914600D01*
X233003000Y-195622000D02*
X233003000Y-173464900D01*
D16*
X230082300Y-65555900D02*
X230082300Y-39184500D01*
D15*
%TO.N,/L1_IN11*%
X226835900Y-146731000D02*
X226183100Y-146078200D01*
X226092100Y-140342900D02*
X225832800Y-140083600D01*
X226183100Y-140946600D02*
X226074100Y-140837600D01*
X228116900Y-68151900D02*
X228116900Y-113710800D01*
X226092100Y-140819500D02*
X226092100Y-140342900D01*
X225840800Y-165419600D02*
X225840800Y-158776600D01*
X226183100Y-146078200D02*
X226183100Y-140946600D01*
X225832800Y-140083600D02*
X225832800Y-122027200D01*
X227624000Y-67659000D02*
X228116900Y-68151900D01*
X226835900Y-157781500D02*
X226835900Y-146731000D01*
X225840800Y-158776600D02*
X226835900Y-157781500D01*
X226074100Y-140837500D02*
X226092100Y-140819500D01*
X225832800Y-115994900D02*
X225832800Y-122027200D01*
X226074100Y-140837600D02*
X226074100Y-140837500D01*
X226074700Y-165653500D02*
X225840800Y-165419600D01*
X226074700Y-166130100D02*
X226074700Y-165653500D01*
X225840800Y-174709200D02*
X225840800Y-166364000D01*
X225840800Y-166364000D02*
X226074700Y-166130100D01*
X228116900Y-113710800D02*
X225832800Y-115994900D01*
%TO.N,/W123*%
X52906400Y-128163700D02*
X52853600Y-128216500D01*
X52853600Y-128216500D02*
X52853600Y-128692900D01*
X52906400Y-141068400D02*
X46094500Y-147880300D01*
X46094500Y-147880300D02*
X46094500Y-150709800D01*
X52906400Y-97521600D02*
X52906400Y-128163700D01*
X52906400Y-128745700D02*
X52906400Y-141068400D01*
X46094500Y-150709800D02*
X46094400Y-150709800D01*
X52853600Y-128692900D02*
X52906400Y-128745700D01*
%TO.N,/W1211*%
X221847400Y-113375000D02*
X221847300Y-113375000D01*
X221847300Y-113375000D02*
X221847300Y-151966000D01*
%TO.N,/W515*%
X198362300Y-115476300D02*
X198362300Y-56807400D01*
X190995400Y-122843200D02*
X198362300Y-115476300D01*
%TO.N,/W511*%
X182020500Y-96800000D02*
X182020500Y-30467000D01*
%TO.N,/W523*%
X433552800Y-98525200D02*
X433552800Y-136740800D01*
%TO.N,/W525*%
X190420200Y-122605000D02*
X190446600Y-122578600D01*
X190446600Y-123107800D02*
X190420200Y-123081400D01*
X178407400Y-163618700D02*
X190446600Y-151579500D01*
X190446600Y-151579500D02*
X190446600Y-123107800D01*
X190446600Y-122578600D02*
X190446600Y-84495200D01*
X190420200Y-123081400D02*
X190420200Y-122605000D01*
%TO.N,/W115*%
X52331300Y-97759900D02*
X52331200Y-97759800D01*
X52676700Y-96946400D02*
X52779100Y-96844000D01*
X46673700Y-109233300D02*
X46673700Y-108756700D01*
X46572300Y-109334700D02*
X46673700Y-109233300D01*
X52668200Y-96946400D02*
X52676700Y-96946400D01*
X46572300Y-103576300D02*
X52331300Y-97817300D01*
X52779100Y-96844000D02*
X52779100Y-68676700D01*
X46572300Y-108655300D02*
X46572300Y-103576300D01*
X46673700Y-108756700D02*
X46572300Y-108655300D01*
X52331300Y-97817300D02*
X52331300Y-97759900D01*
X52331200Y-97283400D02*
X52668200Y-96946400D01*
X52331200Y-97759800D02*
X52331200Y-97283400D01*
X46572300Y-122415000D02*
X46572300Y-109334700D01*
X46572200Y-122415000D02*
X46572300Y-122415000D01*
%TO.N,/W116*%
X53428800Y-128454700D02*
X53612200Y-128271300D01*
X53612200Y-128271300D02*
X53612200Y-71065200D01*
%TO.N,/W127*%
X68717600Y-136835000D02*
X70410200Y-135142400D01*
X70410200Y-135142400D02*
X70410200Y-78575000D01*
%TO.N,/W136*%
X50411800Y-211185000D02*
X50411900Y-211185000D01*
X50411900Y-211185000D02*
X50411900Y-174654500D01*
%TO.N,/W138*%
X74658000Y-130606700D02*
X74658000Y-172287000D01*
X67167800Y-179777200D02*
X67167800Y-184050300D01*
X74382900Y-130606700D02*
X74658000Y-130606700D01*
X74658000Y-172287000D02*
X67167800Y-179777200D01*
%TO.N,/W214*%
X281150500Y-105684800D02*
X281150500Y-104714000D01*
X274797800Y-112037500D02*
X281150500Y-105684800D01*
X281150500Y-104714000D02*
X281327200Y-104537300D01*
X281150500Y-73520200D02*
X284094700Y-70576000D01*
X281327200Y-104060700D02*
X281150500Y-103884000D01*
X281150500Y-103884000D02*
X281150500Y-73520200D01*
X281327200Y-104537300D02*
X281327200Y-104060700D01*
%TO.N,/W216*%
X90023700Y-121747600D02*
X89433900Y-121157800D01*
X90023700Y-128021400D02*
X90023700Y-121747600D01*
X89433900Y-59446100D02*
X91507200Y-57372800D01*
X89433900Y-121157800D02*
X89433900Y-59446100D01*
%TO.N,/W212*%
X101076800Y-94099300D02*
X101076800Y-40341000D01*
X93247200Y-101928900D02*
X101076800Y-94099300D01*
%TO.N,/W211*%
X93247200Y-46178000D02*
X101699300Y-37725900D01*
X93247200Y-96424900D02*
X93247200Y-46178000D01*
%TO.N,/W226*%
X92056200Y-111107000D02*
X92056200Y-167144000D01*
X92056200Y-167144000D02*
X90715200Y-168485000D01*
X90715200Y-168485000D02*
X90652300Y-168485000D01*
%TO.N,/W232*%
X277874400Y-138544200D02*
X272507100Y-143911500D01*
X272507100Y-143911500D02*
X272507100Y-177741100D01*
%TO.N,/W231*%
X96649300Y-174079700D02*
X96649300Y-144040000D01*
X93254100Y-177474900D02*
X96649300Y-174079700D01*
%TO.N,/W246*%
X272670100Y-206706100D02*
X272670100Y-250828400D01*
%TO.N,/W313*%
X330010700Y-85721800D02*
X330219200Y-85930300D01*
X331053500Y-70617300D02*
X330010700Y-71660100D01*
X325248300Y-103482400D02*
X325248300Y-108623900D01*
X330010700Y-71660100D02*
X330010700Y-85721800D01*
X330219200Y-98511500D02*
X325248300Y-103482400D01*
X330219200Y-85930300D02*
X330219200Y-98511500D01*
%TO.N,/W312*%
X325651400Y-34484600D02*
X325651300Y-34484600D01*
X325651300Y-34484600D02*
X325651300Y-90595300D01*
%TO.N,/W311*%
X328430200Y-33275200D02*
X328430100Y-33275200D01*
X328430100Y-33275200D02*
X328430100Y-89201100D01*
%TO.N,/W324*%
X328422700Y-120349500D02*
X329980200Y-118792000D01*
X328422700Y-146388100D02*
X328422700Y-120349500D01*
%TO.N,/W326*%
X327879400Y-102068700D02*
X327879400Y-146118000D01*
X327847500Y-146149900D02*
X327847500Y-146626300D01*
X327847500Y-146626300D02*
X327879400Y-146658200D01*
X329982100Y-99966000D02*
X327879400Y-102068700D01*
X327879400Y-146118000D02*
X327847500Y-146149900D01*
X327879400Y-146658200D02*
X327879400Y-165608200D01*
%TO.N,/W336*%
X119745300Y-187415700D02*
X119408300Y-187078700D01*
X120120400Y-183850300D02*
X119791100Y-183521000D01*
X116956500Y-203498500D02*
X119791100Y-200663900D01*
X119745400Y-187415700D02*
X119745300Y-187415700D01*
X119791100Y-186219600D02*
X119791100Y-184656200D01*
X119745300Y-186265300D02*
X119745400Y-186265300D01*
X116956500Y-208482500D02*
X116956500Y-203498500D01*
X119745400Y-186265300D02*
X119791100Y-186219600D01*
X119408300Y-187078700D02*
X119408300Y-186602300D01*
X119791100Y-184656200D02*
X120120400Y-184326900D01*
X120120400Y-184326900D02*
X120120400Y-183850300D01*
X119791100Y-183521000D02*
X119791100Y-151277800D01*
X119791100Y-187461400D02*
X119745400Y-187415700D01*
X119791100Y-200663900D02*
X119791100Y-187461400D01*
X119408300Y-186602300D02*
X119745300Y-186265300D01*
%TO.N,/W332*%
X331114900Y-160471800D02*
X329873700Y-161713000D01*
X333895900Y-136598400D02*
X333895900Y-146425700D01*
X333895900Y-146425700D02*
X331114900Y-149206700D01*
X329873700Y-161713000D02*
X329873700Y-171772800D01*
X331114900Y-149206700D02*
X331114900Y-160471800D01*
%TO.N,/W345*%
X326075100Y-202285200D02*
X320618400Y-207741900D01*
X320618400Y-207741900D02*
X320618400Y-237422300D01*
%TO.N,/W341*%
X119983500Y-186840500D02*
X120175900Y-187032900D01*
X119706400Y-215108500D02*
X116987400Y-217827500D01*
X120175900Y-187032900D02*
X120175900Y-201189600D01*
X119706400Y-201659100D02*
X119706400Y-215108500D01*
X120175900Y-201189600D02*
X119706400Y-201659100D01*
%TO.N,/W352*%
X119791100Y-262134200D02*
X116850100Y-265075200D01*
X119791100Y-244635700D02*
X119791100Y-262134200D01*
%TO.N,/W416*%
X152899100Y-94602000D02*
X152899100Y-125863200D01*
X152899100Y-93732400D02*
X152702500Y-93929000D01*
X152899100Y-125863200D02*
X151312000Y-127450300D01*
X152702500Y-94405400D02*
X152899100Y-94602000D01*
X152899100Y-49956600D02*
X152899100Y-93732400D01*
X152702500Y-93929000D02*
X152702500Y-94405400D01*
%TO.N,/W415*%
X157859700Y-117688900D02*
X157859700Y-57960700D01*
X155064300Y-120484300D02*
X157859700Y-117688900D01*
%TO.N,/W412*%
X158485300Y-101654200D02*
X158485300Y-42020200D01*
X158485300Y-42020200D02*
X158447500Y-41982400D01*
%TO.N,/W411*%
X153277700Y-94167200D02*
X156810800Y-90634100D01*
X156810800Y-90634100D02*
X156810800Y-37912400D01*
%TO.N,/W425*%
X146999800Y-155734400D02*
X146999800Y-160898800D01*
X154478200Y-103080000D02*
X154478200Y-137087500D01*
X154478200Y-137087500D02*
X146999800Y-144565900D01*
X146999800Y-144565900D02*
X146999800Y-154781800D01*
X146999800Y-154781800D02*
X146761700Y-155019900D01*
X146761700Y-155019900D02*
X146761700Y-155496300D01*
X146761700Y-155496300D02*
X146999800Y-155734400D01*
%TO.N,/W422*%
X150961800Y-134046800D02*
X146999800Y-138008800D01*
X150961800Y-126987100D02*
X150736800Y-127212100D01*
X150736800Y-127212100D02*
X150736800Y-127688500D01*
X150961800Y-127913500D02*
X150961800Y-134046800D01*
X150961800Y-83760800D02*
X150961800Y-126987100D01*
X146999800Y-138008800D02*
X146999800Y-142278000D01*
X150736800Y-127688500D02*
X150961800Y-127913500D01*
%TO.N,/W421*%
X159192700Y-132296700D02*
X159192700Y-92197800D01*
X155064300Y-136425100D02*
X159192700Y-132296700D01*
%TO.N,/W435*%
X154821000Y-197389700D02*
X155142000Y-197710700D01*
X154821000Y-182445400D02*
X155142000Y-182766400D01*
X155142000Y-197710700D02*
X155142000Y-199438600D01*
X154821000Y-177236700D02*
X154821000Y-177713100D01*
X155142000Y-181648000D02*
X154821000Y-181969000D01*
X155142000Y-196592300D02*
X154821000Y-196913300D01*
X154821000Y-181969000D02*
X154821000Y-182445400D01*
X155142000Y-182766400D02*
X155142000Y-196592300D01*
X155142000Y-199438600D02*
X151445600Y-203135000D01*
X155142000Y-178034100D02*
X155142000Y-181648000D01*
X154821000Y-196913300D02*
X154821000Y-197389700D01*
X154821000Y-177713100D02*
X155142000Y-178034100D01*
X155142000Y-164907500D02*
X155142000Y-176915700D01*
X155142000Y-176915700D02*
X154821000Y-177236700D01*
%TO.N,/W432*%
X371017600Y-143831200D02*
X371017600Y-183075400D01*
X380032500Y-134816300D02*
X371017600Y-143831200D01*
%TO.N,/W431*%
X158466400Y-174404700D02*
X158466400Y-148380700D01*
X155396200Y-177474900D02*
X158466400Y-174404700D01*
%TO.N,/W144*%
X210371000Y-232134900D02*
X210371000Y-204371400D01*
X210542100Y-232306000D02*
X210371000Y-232134900D01*
X210371000Y-204371400D02*
X212262200Y-202480200D01*
%TO.N,/W146*%
X46076100Y-251524500D02*
X46074600Y-251523000D01*
X46074600Y-222465900D02*
X49705500Y-218835000D01*
X46074600Y-231907900D02*
X46400700Y-231581800D01*
X46400700Y-238367800D02*
X46400700Y-237891200D01*
X46074600Y-238693900D02*
X46400700Y-238367800D01*
X46074600Y-251523000D02*
X46074600Y-238693900D01*
X46400700Y-231581800D02*
X46400700Y-231105200D01*
X46400700Y-231105200D02*
X46074600Y-230779100D01*
X46074600Y-237565100D02*
X46074600Y-231907900D01*
X46074600Y-230779100D02*
X46074600Y-222465900D01*
X46400700Y-237891200D02*
X46074600Y-237565100D01*
%TO.N,/W1412*%
X231457000Y-241247400D02*
X229129700Y-243574700D01*
X231457000Y-219849200D02*
X231457000Y-241247400D01*
%TO.N,/W141*%
X49096000Y-216612300D02*
X46873300Y-218835000D01*
X49096000Y-186544400D02*
X49096000Y-216612300D01*
%TO.N,/InNeuron_1/Adder3/SUM_IN*%
X219458500Y-48769500D02*
X219028000Y-49200000D01*
X218828000Y-32300000D02*
X219458500Y-32930500D01*
X219458500Y-32930500D02*
X219458500Y-48769500D01*
%TO.N,/InNeuron_4/Adder3/SUM_IN*%
X236247900Y-207298100D02*
X235371000Y-208175000D01*
D17*
X245700000Y-203426107D02*
X245700000Y-202971100D01*
D15*
X235571000Y-191075000D02*
X236247900Y-191751900D01*
D17*
X236247900Y-207298100D02*
X241828007Y-207298100D01*
X241828007Y-207298100D02*
X245700000Y-203426107D01*
D15*
X236247900Y-191751900D02*
X236247900Y-207298100D01*
%TO.N,/SCK*%
X83589700Y-114707900D02*
X84934100Y-113363500D01*
X108820200Y-94723100D02*
X108820200Y-101991400D01*
D16*
X81990500Y-119192500D02*
X81990500Y-123427600D01*
D15*
X109268400Y-94274900D02*
X108820200Y-94723100D01*
X84934100Y-113363500D02*
X84934100Y-108230200D01*
X83589700Y-117593300D02*
X83589700Y-114707900D01*
X112259800Y-105431000D02*
X112259800Y-111124700D01*
D16*
X81990500Y-123427600D02*
X81739100Y-123427600D01*
D15*
X41231100Y-276689300D02*
X41231100Y-282025000D01*
D16*
X83589700Y-117593300D02*
X81990500Y-119192500D01*
X81990500Y-123427600D02*
X81990500Y-142005900D01*
X112259800Y-105431000D02*
X112896000Y-105431000D01*
D15*
X112259800Y-111124700D02*
X109446300Y-113938200D01*
X41231100Y-282025000D02*
X41105500Y-282150600D01*
X137517200Y-312706800D02*
X137517200Y-304001200D01*
X84934100Y-108230200D02*
X84941100Y-108223200D01*
X138257800Y-256939900D02*
X138257800Y-246435300D01*
X137517200Y-304001200D02*
X137558400Y-303960000D01*
X137849300Y-257348400D02*
X138257800Y-256939900D01*
X108820200Y-101991400D02*
X112259800Y-105431000D01*
%TO.N,/MOSI*%
X84126000Y-217567900D02*
X84443100Y-217885000D01*
X109506600Y-94850100D02*
X109506700Y-94850100D01*
X140833300Y-237576700D02*
X140833300Y-234400400D01*
X141025800Y-234207900D02*
X141025800Y-233731300D01*
X140933600Y-206062100D02*
X140933600Y-230837700D01*
X109843600Y-94036600D02*
X109506700Y-93699700D01*
X109449100Y-94907600D02*
X109506600Y-94850100D01*
X109506700Y-93699700D02*
X109506600Y-93699700D01*
X84126000Y-206513300D02*
X84126000Y-217567900D01*
X140743200Y-266039500D02*
X140743200Y-237666800D01*
X141044300Y-205951400D02*
X140933600Y-206062100D01*
X169804400Y-98982900D02*
X170262400Y-99440900D01*
X41031100Y-297459200D02*
X37412400Y-293840500D01*
X140833300Y-234400400D02*
X141025800Y-234207900D01*
X107734600Y-91927700D02*
X107734600Y-38710200D01*
X170262400Y-103458100D02*
X169799400Y-103921100D01*
X107734600Y-38710200D02*
X107450000Y-38425600D01*
X41031100Y-312590100D02*
X41031100Y-319243800D01*
X41031100Y-319243800D02*
X40889900Y-319385000D01*
X41031100Y-312590100D02*
X41031100Y-297459200D01*
X109843600Y-94513200D02*
X109843600Y-94036600D01*
X140743200Y-237666800D02*
X140833300Y-237576700D01*
X149672100Y-109351900D02*
X149672100Y-98557300D01*
X109506600Y-93699700D02*
X107734600Y-91927700D01*
X140833300Y-230938000D02*
X140933600Y-230837700D01*
X140833300Y-233538800D02*
X140833300Y-230938000D01*
X149672100Y-98557300D02*
X149800700Y-98428700D01*
X109506700Y-94850100D02*
X109843600Y-94513200D01*
X109449100Y-95415700D02*
X109449100Y-94907600D01*
X141025800Y-233731300D02*
X140833300Y-233538800D01*
X170262400Y-99440900D02*
X170262400Y-103458100D01*
%TO.N,/S2*%
X30503600Y-89526500D02*
X30916900Y-89939800D01*
X65929700Y-47204700D02*
X65736900Y-47397500D01*
X65736900Y-66292100D02*
X66410100Y-66965300D01*
X30503600Y-80537900D02*
X30503600Y-89526500D01*
X65736900Y-47397500D02*
X65736900Y-66292100D01*
X28353500Y-78387800D02*
X30503600Y-80537900D01*
D16*
%TO.N,/S3*%
X32210300Y-33940300D02*
X32919100Y-34649100D01*
X32916000Y-23926400D02*
X32210300Y-24632100D01*
X32210300Y-24632100D02*
X32210300Y-33940300D01*
D15*
%TO.N,/VariableWeights/CS117*%
X62982200Y-53515200D02*
X62982200Y-91534400D01*
X61227000Y-52312300D02*
X61612700Y-52698000D01*
X62165000Y-52698000D02*
X62982200Y-53515200D01*
X63450400Y-35265200D02*
X63450400Y-49577100D01*
X63450400Y-49577100D02*
X61227000Y-51800500D01*
X62982200Y-91534400D02*
X62179600Y-92337000D01*
X61612700Y-52698000D02*
X62165000Y-52698000D01*
X61227000Y-51800500D02*
X61227000Y-52312300D01*
X63611200Y-35104400D02*
X63450400Y-35265200D01*
%TO.N,/VariableWeights/CS118*%
X68464900Y-50966100D02*
X67156200Y-49657400D01*
X68377200Y-91707100D02*
X68377200Y-52044800D01*
X67156200Y-49657400D02*
X67156200Y-37058900D01*
X64209400Y-98829600D02*
X64209400Y-95874900D01*
X67156200Y-36399700D02*
X67156200Y-31600500D01*
X67156200Y-37058900D02*
X67247500Y-36967600D01*
X62941400Y-100097600D02*
X64209400Y-98829600D01*
X68377200Y-52044800D02*
X68464900Y-51957100D01*
X67247500Y-36491000D02*
X67156200Y-36399700D01*
X67247500Y-36967600D02*
X67247500Y-36491000D01*
X64209400Y-95874900D02*
X68377200Y-91707100D01*
X67156200Y-31600500D02*
X68731900Y-30024800D01*
X68464900Y-51957100D02*
X68464900Y-50966100D01*
%TO.N,/VariableWeights/CS119*%
X69003300Y-41441300D02*
X69003300Y-40964900D01*
X69253000Y-32513900D02*
X68731900Y-31992800D01*
X69253000Y-42652600D02*
X69253000Y-41691000D01*
X69077800Y-50430600D02*
X69253000Y-50255400D01*
X69253000Y-43628400D02*
X69003300Y-43378700D01*
X68727600Y-52365100D02*
X69077800Y-52014900D01*
X69253000Y-41691000D02*
X69003300Y-41441300D01*
X69003300Y-40964900D02*
X69253000Y-40715200D01*
X69003300Y-43378700D02*
X69003300Y-42902300D01*
X68727600Y-98503800D02*
X68727600Y-52365100D01*
X62934300Y-105432600D02*
X62934300Y-104297100D01*
X62934300Y-104297100D02*
X68727600Y-98503800D01*
X69253000Y-40715200D02*
X69253000Y-32513900D01*
X69003300Y-42902300D02*
X69253000Y-42652600D01*
X69077800Y-52014900D02*
X69077800Y-50430600D01*
X69253000Y-50255400D02*
X69253000Y-43628400D01*
%TO.N,/VariableWeights/CS1110*%
X60385400Y-54222000D02*
X60385400Y-54740000D01*
X63654300Y-33094300D02*
X61762300Y-34986300D01*
X61762300Y-43588100D02*
X61762300Y-43634900D01*
X60641000Y-53966400D02*
X60385400Y-54222000D01*
X60385400Y-54740000D02*
X60562700Y-54917300D01*
X60562700Y-54917300D02*
X60562700Y-110899900D01*
X60641000Y-44756200D02*
X60641000Y-53966400D01*
X61743100Y-43568900D02*
X61762300Y-43588100D01*
X61762300Y-43634900D02*
X60641000Y-44756200D01*
X61762300Y-34986300D02*
X61762300Y-43073300D01*
X61762300Y-43073300D02*
X61743100Y-43092500D01*
X60562700Y-110899900D02*
X60743900Y-111081100D01*
X61743100Y-43092500D02*
X61743100Y-43568900D01*
%TO.N,/VariableWeights/CS1111*%
X59009700Y-46366100D02*
X59009700Y-118491700D01*
X58232800Y-45589200D02*
X59009700Y-46366100D01*
%TO.N,/VariableWeights/CS1211*%
X56236800Y-57040000D02*
X56422600Y-57040000D01*
X58047100Y-141827700D02*
X58384000Y-142164600D01*
X54682900Y-52079900D02*
X54316600Y-52446200D01*
X57809000Y-48127600D02*
X57809000Y-49302900D01*
X56759500Y-57562700D02*
X58028400Y-58831600D01*
X55032000Y-52079900D02*
X54682900Y-52079900D01*
X58047000Y-142978100D02*
X58028400Y-142996700D01*
X54316600Y-55119800D02*
X56236800Y-57040000D01*
X56229400Y-50882500D02*
X55032000Y-52079900D01*
X56088600Y-40198600D02*
X56088600Y-46407200D01*
X56759500Y-57376900D02*
X56759500Y-57562700D01*
X58384000Y-142641200D02*
X58047100Y-142978100D01*
X58028400Y-141809100D02*
X58047000Y-141827700D01*
X57809000Y-49302900D02*
X56648500Y-50463400D01*
X58028400Y-142996700D02*
X58028400Y-160336300D01*
X56422600Y-57040000D02*
X56759500Y-57376900D01*
X58047000Y-141827700D02*
X58047100Y-141827700D01*
X56088600Y-46407200D02*
X57809000Y-48127600D01*
X54316600Y-52446200D02*
X54316600Y-55119800D01*
X58028400Y-58831600D02*
X58028400Y-141809100D01*
X56229400Y-50800400D02*
X56229400Y-50882500D01*
X56918400Y-39368800D02*
X56088600Y-40198600D01*
X56648500Y-50463400D02*
X56566400Y-50463400D01*
X56566400Y-50463400D02*
X56229400Y-50800400D01*
X58047100Y-142978100D02*
X58047000Y-142978100D01*
X58384000Y-142164600D02*
X58384000Y-142641200D01*
%TO.N,/VariableWeights/CS139*%
X59768200Y-45310600D02*
X59768200Y-42506000D01*
X60607600Y-133596500D02*
X60118500Y-133107400D01*
X60035100Y-54885100D02*
X60035100Y-54076900D01*
X60118500Y-53993500D02*
X60118500Y-46154200D01*
X60035100Y-54076900D02*
X60118500Y-53993500D01*
X59789900Y-45332300D02*
X59768200Y-45310600D01*
X59768200Y-42506000D02*
X61412000Y-40862200D01*
X60126900Y-46145800D02*
X60126900Y-45669200D01*
X61412000Y-40862200D02*
X61412000Y-39652400D01*
X60118500Y-54968500D02*
X60035100Y-54885100D01*
X60607600Y-147261200D02*
X60607600Y-133596500D01*
X61412000Y-39652400D02*
X61128400Y-39368800D01*
X60118500Y-46154200D02*
X60126900Y-46145800D01*
X60118500Y-133107400D02*
X60118500Y-125232100D01*
X60535000Y-147333800D02*
X60607600Y-147261200D01*
X60535000Y-186875600D02*
X60535000Y-147333800D01*
X59918700Y-124555900D02*
X60118500Y-124356100D01*
X60126900Y-45669200D02*
X59790000Y-45332300D01*
X59918700Y-125032300D02*
X59918700Y-124555900D01*
X60118500Y-124356100D02*
X60118500Y-54968500D01*
X60118500Y-125232100D02*
X59918700Y-125032300D01*
X59790000Y-45332300D02*
X59789900Y-45332300D01*
%TO.N,/VariableWeights/CS1310*%
X63380600Y-193894500D02*
X64015900Y-193259200D01*
X64015900Y-109574500D02*
X69434500Y-104155900D01*
X70376600Y-76197600D02*
X70376600Y-43938600D01*
X70376600Y-43938600D02*
X69578500Y-43140500D01*
X69434500Y-104155900D02*
X69434500Y-77139700D01*
X64015900Y-193259200D02*
X64015900Y-109574500D01*
X69434500Y-77139700D02*
X70376600Y-76197600D01*
%TO.N,/VariableWeights/CS1312*%
X64716600Y-114766000D02*
X69784800Y-109697800D01*
X70726900Y-76342700D02*
X70726900Y-42351500D01*
X63380600Y-206801900D02*
X64716600Y-205465900D01*
X64716600Y-205465900D02*
X64716600Y-114766000D01*
X70726900Y-42351500D02*
X69578500Y-41203100D01*
X69784800Y-109697800D02*
X69784800Y-77284800D01*
X69784800Y-77284800D02*
X70726900Y-76342700D01*
%TO.N,/VariableWeights/CS147*%
X59963100Y-133924000D02*
X59922200Y-133964900D01*
X59552700Y-147645400D02*
X59552700Y-165285100D01*
X59552700Y-166226900D02*
X59552700Y-214444300D01*
X59551700Y-118763200D02*
X59551700Y-133036100D01*
X59320000Y-165994200D02*
X59552700Y-166226900D01*
X59551700Y-133036100D02*
X59626100Y-133110500D01*
X59963100Y-133447400D02*
X59963100Y-133924000D01*
X60208400Y-146989700D02*
X59552700Y-147645400D01*
X59552700Y-165285100D02*
X59320000Y-165517800D01*
X59584900Y-118253400D02*
X59584900Y-118730000D01*
X59626200Y-133110500D02*
X59963100Y-133447400D01*
X59626100Y-133110500D02*
X59626200Y-133110500D01*
X60208400Y-134251200D02*
X60208400Y-146989700D01*
X59584900Y-118730000D02*
X59551700Y-118763200D01*
X59922200Y-133964900D02*
X59922200Y-133965000D01*
X59320000Y-165517800D02*
X59320000Y-165994200D01*
X59551700Y-118220200D02*
X59584900Y-118253400D01*
X59551700Y-45907500D02*
X59551700Y-118220200D01*
X59922200Y-133965000D02*
X60208400Y-134251200D01*
%TO.N,/VariableWeights/CS149*%
X56184300Y-57615200D02*
X56794500Y-58225400D01*
X56794500Y-58225400D02*
X56794500Y-141388600D01*
X56794500Y-141388600D02*
X57808800Y-142402900D01*
%TO.N,/VariableWeights/CS1411*%
X55116100Y-54823000D02*
X55116100Y-55238200D01*
X58467600Y-118763000D02*
X58467600Y-141752800D01*
X58467600Y-241384000D02*
X58751200Y-241667600D01*
X58467600Y-159962000D02*
X58603600Y-160098000D01*
X58734300Y-142786300D02*
X58467600Y-143053000D01*
X58467600Y-118220400D02*
X58434500Y-118253500D01*
X54904000Y-54610900D02*
X55116100Y-54823000D01*
X55116100Y-53691000D02*
X54853900Y-53953200D01*
X58467600Y-143053000D02*
X58467600Y-159962000D01*
X54904000Y-54521300D02*
X54904000Y-54610900D01*
X55116100Y-52879400D02*
X55116100Y-53691000D01*
X54941900Y-52705200D02*
X55116100Y-52879400D01*
X58603600Y-160098000D02*
X58603600Y-160574600D01*
X58467600Y-58589700D02*
X58467600Y-118220400D01*
X58603600Y-160574600D02*
X58467600Y-160710600D01*
X58467600Y-160710600D02*
X58467600Y-241384000D01*
X58434500Y-118729900D02*
X58467600Y-118763000D01*
X58734300Y-142019500D02*
X58734300Y-142786300D01*
X54853900Y-54471200D02*
X54904000Y-54521300D01*
X58434500Y-118253500D02*
X58434500Y-118729900D01*
X54853900Y-53953200D02*
X54853900Y-54471200D01*
X58467600Y-141752800D02*
X58734300Y-142019500D01*
X55116100Y-55238200D02*
X58467600Y-58589700D01*
%TO.N,/VariableWeights/CS1412*%
X55116100Y-63292200D02*
X56200000Y-64376100D01*
X56200000Y-243717000D02*
X59168100Y-246685100D01*
X56200000Y-64376100D02*
X56200000Y-243717000D01*
X55062100Y-56887900D02*
X55116100Y-56941900D01*
X55116100Y-56941900D02*
X55116100Y-63292200D01*
%TO.N,/VariableWeights/CS158*%
X54323200Y-182786100D02*
X54323200Y-184680200D01*
X54323200Y-184680200D02*
X54537300Y-184894300D01*
X53579600Y-64602100D02*
X54323200Y-65345700D01*
X54323200Y-65345700D02*
X54323200Y-181723700D01*
X53890300Y-63773500D02*
X53579600Y-64084200D01*
X53714900Y-61502200D02*
X53890300Y-61677600D01*
X54323200Y-185585000D02*
X54323200Y-258982600D01*
X54323200Y-181723700D02*
X54030200Y-182016700D01*
X54537300Y-184894300D02*
X54537300Y-185370900D01*
X53265700Y-58465200D02*
X53714900Y-58914400D01*
X54772800Y-50075000D02*
X53265700Y-51582100D01*
X55441500Y-50075000D02*
X54772800Y-50075000D01*
X53265700Y-51582100D02*
X53265700Y-58465200D01*
X53890300Y-61677600D02*
X53890300Y-63773500D01*
X54030200Y-182493100D02*
X54323200Y-182786100D01*
X53579600Y-64084200D02*
X53579600Y-64602100D01*
X54323200Y-258982600D02*
X57885200Y-262544600D01*
X54030200Y-182016700D02*
X54030200Y-182493100D01*
X53714900Y-58914400D02*
X53714900Y-61502200D01*
X54537300Y-185370900D02*
X54323200Y-185585000D01*
%TO.N,/VariableWeights/CS159*%
X54784000Y-50948200D02*
X53616000Y-52116200D01*
X55180600Y-182016600D02*
X55180600Y-182493200D01*
X54065200Y-55859400D02*
X54065200Y-61357100D01*
X54887600Y-181723600D02*
X55180600Y-182016600D01*
X54887600Y-64054400D02*
X54887600Y-181723600D01*
X54887600Y-182786200D02*
X54887600Y-258063900D01*
X58540500Y-269214900D02*
X58231800Y-269523600D01*
X54415500Y-63582300D02*
X54887600Y-64054400D01*
X53616000Y-52116200D02*
X53616000Y-55410200D01*
X58540500Y-261716800D02*
X58540500Y-269214900D01*
X53616000Y-55410200D02*
X54065200Y-55859400D01*
X54415500Y-61707400D02*
X54415500Y-63582300D01*
X55180600Y-182493200D02*
X54887600Y-182786200D01*
X54065200Y-61357100D02*
X54415500Y-61707400D01*
X54887600Y-258063900D02*
X58540500Y-261716800D01*
%TO.N,/VariableWeights/CS1510*%
X55530900Y-64202400D02*
X55530900Y-258211800D01*
X55530900Y-258211800D02*
X58918300Y-261599200D01*
X55879100Y-50655300D02*
X55879100Y-50737400D01*
X57169500Y-48775000D02*
X57169400Y-48775000D01*
X57169400Y-49447100D02*
X56503400Y-50113100D01*
X54653900Y-56482700D02*
X54620700Y-56482700D01*
X54886900Y-51729600D02*
X54537800Y-51729600D01*
X54765800Y-56064600D02*
X54765800Y-56370800D01*
X54415500Y-61212000D02*
X54765800Y-61562300D01*
X54765800Y-61562300D02*
X54765800Y-63437300D01*
X56503400Y-50113100D02*
X56421300Y-50113100D01*
X58918300Y-275051000D02*
X58231800Y-275737500D01*
X54537800Y-51729600D02*
X53966300Y-52301100D01*
X57169400Y-48775000D02*
X57169400Y-49447100D01*
X54765800Y-56370800D02*
X54653900Y-56482700D01*
X55879100Y-50737400D02*
X54886900Y-51729600D01*
X54765800Y-63437300D02*
X55530900Y-64202400D01*
X58918300Y-261599200D02*
X58918300Y-275051000D01*
X53966300Y-52301100D02*
X53966300Y-55265100D01*
X54415500Y-56687900D02*
X54415500Y-61212000D01*
X53966300Y-55265100D02*
X54765800Y-56064600D01*
X54620700Y-56482700D02*
X54415500Y-56687900D01*
X56421300Y-50113100D02*
X55879100Y-50655300D01*
%TO.N,/VariableWeights/CS167*%
X62805400Y-206563700D02*
X62839400Y-206529700D01*
X62839400Y-194166700D02*
X62805400Y-194132700D01*
X69077900Y-103942400D02*
X69077900Y-52510200D01*
X63227300Y-153070200D02*
X63227300Y-109793000D01*
X63078700Y-220041200D02*
X62839400Y-219801900D01*
X62839400Y-219801900D02*
X62839400Y-207074100D01*
X62839400Y-206529700D02*
X62839400Y-194166700D01*
X62805400Y-207040100D02*
X62805400Y-206563700D01*
X63078700Y-294305500D02*
X63078700Y-220041200D01*
X62839400Y-193622300D02*
X62839400Y-186149600D01*
X62805400Y-193656300D02*
X62839400Y-193622300D01*
X62326900Y-153970600D02*
X63227300Y-153070200D01*
X62326900Y-185637100D02*
X62326900Y-153970600D01*
X69077900Y-52510200D02*
X69751300Y-51836800D01*
X62839400Y-186149600D02*
X62326900Y-185637100D01*
X69751300Y-51836800D02*
X69751300Y-50671900D01*
X62839400Y-207074100D02*
X62805400Y-207040100D01*
X62805400Y-194132700D02*
X62805400Y-193656300D01*
X61551100Y-295833100D02*
X63078700Y-294305500D01*
X63227300Y-109793000D02*
X69077900Y-103942400D01*
%TO.N,/VariableWeights/CS169*%
X62489100Y-194311800D02*
X62489100Y-206384600D01*
X67755200Y-91833600D02*
X62292200Y-97296600D01*
X62420100Y-110386700D02*
X62420100Y-147430300D01*
X60925700Y-228794500D02*
X60925700Y-262212400D01*
X61976600Y-185782200D02*
X62455100Y-186260700D01*
X62455100Y-194277800D02*
X62489100Y-194311800D01*
X61976600Y-147873800D02*
X61976600Y-185782200D01*
X62420100Y-147430300D02*
X61976600Y-147873800D01*
X60925700Y-287804000D02*
X60851500Y-287878200D01*
X62728400Y-226991800D02*
X60925700Y-228794500D01*
X60851500Y-288354600D02*
X60925700Y-288428800D01*
X60925700Y-282170400D02*
X60925700Y-287804000D01*
X60864900Y-282109600D02*
X60925700Y-282170400D01*
X60925700Y-281572400D02*
X60864900Y-281633200D01*
X62292200Y-97296600D02*
X62292200Y-110258800D01*
X60925700Y-288428800D02*
X60925700Y-302175000D01*
X60864900Y-281633200D02*
X60864900Y-282109600D01*
X61426700Y-302676000D02*
X61426700Y-307788700D01*
X60851500Y-262763000D02*
X60925700Y-262837200D01*
X62455100Y-219913000D02*
X62728400Y-220186300D01*
X62728400Y-220186300D02*
X62728400Y-226991800D01*
X67755200Y-51419400D02*
X67755200Y-91833600D01*
X60851500Y-287878200D02*
X60851500Y-288354600D01*
X62455100Y-186260700D02*
X62455100Y-194277800D01*
X62455100Y-206418600D02*
X62455100Y-219913000D01*
X62292200Y-110258800D02*
X62420100Y-110386700D01*
X60925700Y-302175000D02*
X61426700Y-302676000D01*
X60851500Y-262286600D02*
X60851500Y-262763000D01*
X60925700Y-262212400D02*
X60851500Y-262286600D01*
X60925700Y-262837200D02*
X60925700Y-281572400D01*
X62489100Y-206384600D02*
X62455100Y-206418600D01*
%TO.N,/VariableWeights/CS1610*%
X62069800Y-147285200D02*
X62069800Y-110531800D01*
X60925700Y-308101100D02*
X60851500Y-308026900D01*
X62034900Y-52025000D02*
X61911100Y-52025000D01*
X61626300Y-185927300D02*
X61626300Y-147728700D01*
X60851500Y-308026900D02*
X60851500Y-307550500D01*
X60925700Y-315457900D02*
X60925700Y-308101100D01*
X62104800Y-186405800D02*
X61626300Y-185927300D01*
X60501200Y-302801000D02*
X60501200Y-228723600D01*
X62069800Y-110531800D02*
X61941900Y-110403900D01*
X60925700Y-307476300D02*
X60925700Y-303225500D01*
X61941900Y-110403900D02*
X61941900Y-94092300D01*
X63332500Y-92701700D02*
X63332500Y-53322600D01*
X60851500Y-307550500D02*
X60925700Y-307476300D01*
X61941900Y-94092300D02*
X63332500Y-92701700D01*
X62378100Y-220331400D02*
X62104800Y-220058100D01*
X61626300Y-147728700D02*
X62069800Y-147285200D01*
X62104800Y-206273500D02*
X62138800Y-206239500D01*
X62138800Y-194456900D02*
X62104800Y-194422900D01*
X62104800Y-194422900D02*
X62104800Y-186405800D01*
X61006300Y-315538500D02*
X60925700Y-315457900D01*
X60925700Y-303225500D02*
X60501200Y-302801000D01*
X62378100Y-226846700D02*
X62378100Y-220331400D01*
X62138800Y-206239500D02*
X62138800Y-194456900D01*
X62104800Y-220058100D02*
X62104800Y-206273500D01*
X60501200Y-228723600D02*
X62378100Y-226846700D01*
X63332500Y-53322600D02*
X62034900Y-52025000D01*
%TO.N,/VariableWeights/CS1611*%
X61754500Y-220203200D02*
X61754500Y-206128400D01*
X62027800Y-220476500D02*
X61754500Y-220203200D01*
X61719500Y-147140100D02*
X61719500Y-110676900D01*
X61276000Y-186072400D02*
X61276000Y-147583600D01*
X62631800Y-54105800D02*
X61911100Y-53385100D01*
X62027800Y-220953100D02*
X62027800Y-220476500D01*
X61719500Y-110676900D02*
X61591600Y-110549000D01*
X61788500Y-194602000D02*
X61754500Y-194568000D01*
X61276000Y-147583600D02*
X61719500Y-147140100D01*
X60150900Y-228578500D02*
X61754500Y-226974900D01*
X61009200Y-321736900D02*
X60150900Y-320878600D01*
X61754500Y-194568000D02*
X61754500Y-186550900D01*
X61591600Y-65949200D02*
X62631800Y-64909000D01*
X61754500Y-206128400D02*
X61788500Y-206094400D01*
X61754500Y-226974900D02*
X61754500Y-221226400D01*
X61591600Y-110549000D02*
X61591600Y-65949200D01*
X60150900Y-320878600D02*
X60150900Y-228578500D01*
X61788500Y-206094400D02*
X61788500Y-194602000D01*
X62631800Y-64909000D02*
X62631800Y-54105800D01*
X61754500Y-186550900D02*
X61276000Y-186072400D01*
X61754500Y-221226400D02*
X62027800Y-220953100D01*
%TO.N,/VariableWeights/CS1612*%
X62242600Y-64802800D02*
X62242600Y-54849000D01*
X61438200Y-199479800D02*
X61150600Y-199192200D01*
X61150600Y-220203400D02*
X61150600Y-200244000D01*
X60925700Y-186217500D02*
X60925700Y-147438500D01*
X60925700Y-147438500D02*
X61369200Y-146995000D01*
X61150600Y-200244000D02*
X61438200Y-199956400D01*
X61007700Y-328386400D02*
X59800600Y-327179300D01*
X59800600Y-327179300D02*
X59800600Y-228433400D01*
X61230600Y-65814800D02*
X62242600Y-64802800D01*
X61438200Y-199956400D02*
X61438200Y-199479800D01*
X61150600Y-199192200D02*
X61150600Y-186442400D01*
X61150600Y-221226200D02*
X60877400Y-220953000D01*
X60877400Y-220476600D02*
X61150600Y-220203400D01*
X59800600Y-228433400D02*
X61150600Y-227083400D01*
X60877400Y-220953000D02*
X60877400Y-220476600D01*
X61150600Y-186442400D02*
X60925700Y-186217500D01*
X61230600Y-110683500D02*
X61230600Y-65814800D01*
X61150600Y-227083400D02*
X61150600Y-221226200D01*
X61369200Y-146995000D02*
X61369200Y-110822100D01*
X61369200Y-110822100D02*
X61230600Y-110683500D01*
X62242600Y-54849000D02*
X61911100Y-54517500D01*
%TO.N,/VariableWeights/CS111*%
X39778300Y-63378900D02*
X40115200Y-63042000D01*
X39717200Y-63439900D02*
X39778200Y-63378900D01*
X39717200Y-62167500D02*
X39717200Y-61984700D01*
X39717200Y-93181600D02*
X39717200Y-63439900D01*
X39778200Y-62228500D02*
X39717200Y-62167500D01*
X40115200Y-63042000D02*
X40115200Y-62565400D01*
X39778300Y-62228500D02*
X39778200Y-62228500D01*
X39778200Y-63378900D02*
X39778300Y-63378900D01*
X40115200Y-62565400D02*
X39778300Y-62228500D01*
X39717200Y-61984700D02*
X42630200Y-59071700D01*
%TO.N,/VariableWeights/CS112*%
X41546400Y-71368100D02*
X41546400Y-100558300D01*
X53089500Y-59825000D02*
X41546400Y-71368100D01*
%TO.N,/VariableWeights/CS115*%
X49927100Y-99657400D02*
X49927100Y-65174800D01*
X44539400Y-105045100D02*
X49927100Y-99657400D01*
X44539400Y-118475000D02*
X44539400Y-105045100D01*
X49927100Y-65174800D02*
X53215100Y-61886800D01*
%TO.N,/VariableWeights/CS134*%
X42914000Y-72615000D02*
X42914000Y-192231700D01*
X48817900Y-66711100D02*
X42914000Y-72615000D01*
X42914000Y-192231700D02*
X40206600Y-194939100D01*
%TO.N,/VariableWeights/CS151*%
X35453200Y-145120800D02*
X35134400Y-144802000D01*
X34801800Y-88029200D02*
X34801800Y-82867900D01*
X35134400Y-144802000D02*
X35134400Y-90211900D01*
X35390700Y-146436900D02*
X35134400Y-146180600D01*
X35134400Y-253226500D02*
X35134400Y-147169800D01*
X34846800Y-89924300D02*
X34846800Y-88074200D01*
X35134400Y-145916200D02*
X35453200Y-145597400D01*
X34846800Y-88074200D02*
X34801800Y-88029200D01*
X37889000Y-255981100D02*
X35134400Y-253226500D01*
X35134400Y-146180600D02*
X35134400Y-145916200D01*
X35134400Y-90211900D02*
X34846800Y-89924300D01*
X35134400Y-147169800D02*
X35390700Y-146913500D01*
X35453200Y-145597400D02*
X35453200Y-145120800D01*
X34801800Y-82867900D02*
X34671500Y-82737600D01*
X35390700Y-146913500D02*
X35390700Y-146436900D01*
%TO.N,/VariableWeights/CS162*%
X33202400Y-227486500D02*
X33202400Y-90293000D01*
X37412400Y-303803500D02*
X33488500Y-299879600D01*
X33202400Y-90293000D02*
X33571000Y-89924400D01*
X33488500Y-227772600D02*
X33202400Y-227486500D01*
X33488500Y-299879600D02*
X33488500Y-227772600D01*
X33571000Y-89924400D02*
X33571000Y-88602700D01*
%TO.N,/VariableWeights/CS163*%
X32995800Y-88840900D02*
X32995800Y-88364500D01*
X32995800Y-88364500D02*
X33246400Y-88113900D01*
X32801300Y-260541500D02*
X33138200Y-260204600D01*
X32921800Y-228468100D02*
X32921800Y-227701300D01*
X33246400Y-88113900D02*
X33246400Y-86019000D01*
X33246400Y-84944800D02*
X33246400Y-77358100D01*
X33545200Y-85243600D02*
X33246400Y-84944800D01*
X27586200Y-71697900D02*
X27501900Y-71697900D01*
X33246400Y-77358100D02*
X32969300Y-77081000D01*
X32363200Y-76474900D02*
X27586200Y-71697900D01*
X32799300Y-90200700D02*
X33220700Y-89779300D01*
X33220700Y-89779300D02*
X33220700Y-89065800D01*
X33138200Y-260204600D02*
X33138200Y-259728000D01*
X32700200Y-77081000D02*
X32363200Y-76744000D01*
X32799300Y-228590600D02*
X32921800Y-228468100D01*
X32921800Y-227701300D02*
X32799300Y-227578800D01*
X33246400Y-86019000D02*
X33545200Y-85720200D01*
X33545200Y-85720200D02*
X33545200Y-85243600D01*
X32799300Y-259389200D02*
X32799300Y-228590600D01*
X32801300Y-259391100D02*
X32801200Y-259391100D01*
X32363200Y-76744000D02*
X32363200Y-76474900D01*
X32799300Y-305168200D02*
X32799300Y-260543400D01*
X32799300Y-227578800D02*
X32799300Y-90200700D01*
X32801200Y-259391100D02*
X32799300Y-259389200D01*
X37412400Y-309781300D02*
X32799300Y-305168200D01*
X33138200Y-259728000D02*
X32801300Y-259391100D01*
X32799300Y-260543400D02*
X32801200Y-260541500D01*
X32801200Y-260541500D02*
X32801300Y-260541500D01*
X32969300Y-77081000D02*
X32700200Y-77081000D01*
X33220700Y-89065800D02*
X32995800Y-88840900D01*
%TO.N,/VariableWeights/CS165*%
X37412400Y-323729500D02*
X32326600Y-318643700D01*
X32326600Y-259389400D02*
X32326600Y-228567900D01*
X32324900Y-260541500D02*
X32324800Y-260541500D01*
X32571500Y-227846400D02*
X32326600Y-227601500D01*
X32326600Y-318643700D02*
X32326600Y-260543200D01*
X32394800Y-85243700D02*
X32693500Y-84945000D01*
X31987800Y-260204500D02*
X31987800Y-259728100D01*
X32326600Y-88538300D02*
X32693500Y-88171400D01*
X32324800Y-259391100D02*
X32324900Y-259391100D01*
X32571500Y-228323000D02*
X32571500Y-227846400D01*
X32326600Y-227601500D02*
X32326600Y-88538300D01*
X32324900Y-259391100D02*
X32326600Y-259389400D01*
X32693500Y-88171400D02*
X32693500Y-86018800D01*
X31987800Y-259728100D02*
X32324800Y-259391100D01*
X32693500Y-86018800D02*
X32394800Y-85720100D01*
X32326600Y-260543200D02*
X32324900Y-260541500D01*
X32324800Y-260541500D02*
X31987800Y-260204500D01*
X32326600Y-228567900D02*
X32571500Y-228323000D01*
X32693500Y-84945000D02*
X32693500Y-78181400D01*
X32693500Y-78181400D02*
X27501900Y-72989800D01*
X32394800Y-85720100D02*
X32394800Y-85243700D01*
%TO.N,/VariableWeights/CS211*%
X78175400Y-78387900D02*
X78175400Y-77302600D01*
X78355000Y-79190200D02*
X78355000Y-79190100D01*
X78355000Y-79190100D02*
X78428000Y-79117100D01*
X81754500Y-82589700D02*
X78355000Y-79190200D01*
X78428000Y-78640500D02*
X78175400Y-78387900D01*
X81754500Y-92587900D02*
X81754500Y-82589700D01*
X78428000Y-79117100D02*
X78428000Y-78640500D01*
%TO.N,/VariableWeights/CS212*%
X31254300Y-90415900D02*
X31254300Y-98669700D01*
X26709100Y-74939800D02*
X28226300Y-76457000D01*
X28226300Y-76457000D02*
X28591800Y-76457000D01*
X31492100Y-90178100D02*
X31254300Y-90415900D01*
X26570900Y-74939800D02*
X26709100Y-74939800D01*
X31492100Y-89701500D02*
X31492100Y-90178100D01*
X28928700Y-76793900D02*
X28928700Y-77159400D01*
X31254300Y-89463700D02*
X31492100Y-89701500D01*
X28591800Y-76457000D02*
X28928700Y-76793900D01*
X31254300Y-79485000D02*
X31254300Y-89463700D01*
X28928700Y-77159400D02*
X31254300Y-79485000D01*
%TO.N,/VariableWeights/CS214*%
X23090900Y-77161800D02*
X23090900Y-111577100D01*
X23090900Y-111577100D02*
X22961600Y-111706400D01*
X22299200Y-76370100D02*
X23090900Y-77161800D01*
%TO.N,/VariableWeights/CS222*%
X77277600Y-79117000D02*
X77502500Y-79341900D01*
X77502500Y-79341900D02*
X77502500Y-137908200D01*
X77528600Y-78389600D02*
X77277600Y-78640600D01*
X77277600Y-78640600D02*
X77277600Y-79117000D01*
X77528600Y-74080600D02*
X77528600Y-78389600D01*
X77502500Y-137908200D02*
X80058500Y-140464200D01*
%TO.N,/VariableWeights/CS225*%
X78718600Y-113787200D02*
X81209300Y-116277900D01*
X81209300Y-123711200D02*
X81209300Y-156282300D01*
X81209300Y-123144000D02*
X81163900Y-123189400D01*
X81209300Y-156282300D02*
X82912800Y-157985800D01*
X81209300Y-116277900D02*
X81209300Y-123144000D01*
X78718600Y-81127500D02*
X78718600Y-113787200D01*
X81163900Y-123665800D02*
X81209300Y-123711200D01*
X81163900Y-123189400D02*
X81163900Y-123665800D01*
%TO.N,/VariableWeights/CS226*%
X80829000Y-162708500D02*
X80829000Y-140125200D01*
X80829000Y-140125200D02*
X77852800Y-137149000D01*
X82943400Y-164822900D02*
X80829000Y-162708500D01*
X77852800Y-137149000D02*
X77852800Y-78878800D01*
%TO.N,/VariableWeights/CS233*%
X77053900Y-79504100D02*
X77053900Y-181680700D01*
X76088800Y-67184800D02*
X75774400Y-67499200D01*
X75774400Y-78224600D02*
X77053900Y-79504100D01*
X77053900Y-181680700D02*
X82491800Y-187118600D01*
X75774400Y-67499200D02*
X75774400Y-78224600D01*
%TO.N,/VariableWeights/CS262*%
X75358600Y-244035200D02*
X75708900Y-244385500D01*
X74723500Y-56555500D02*
X74723500Y-59189800D01*
X74373200Y-59395000D02*
X74373200Y-78980300D01*
X74578400Y-59189800D02*
X74373200Y-59395000D01*
X74723500Y-59189800D02*
X74578400Y-59189800D01*
X75358600Y-79965700D02*
X75358600Y-244035200D01*
X75708900Y-244385500D02*
X75708900Y-298945200D01*
X74373200Y-78980300D02*
X75358600Y-79965700D01*
X75708900Y-298945200D02*
X80249400Y-303485700D01*
%TO.N,/VariableWeights/CS266*%
X75708900Y-79820600D02*
X75708900Y-243714800D01*
X81730400Y-304066400D02*
X81730400Y-328034700D01*
X75708900Y-243714800D02*
X78696300Y-246702200D01*
X81730400Y-328034700D02*
X81545600Y-328219500D01*
X78696300Y-301032300D02*
X81730400Y-304066400D01*
X74723500Y-78835200D02*
X75708900Y-79820600D01*
X75343600Y-59095000D02*
X74723500Y-59715100D01*
X75343600Y-57262600D02*
X75343600Y-59095000D01*
X74723500Y-59715100D02*
X74723500Y-78835200D01*
X78696300Y-246702200D02*
X78696300Y-301032300D01*
%TO.N,/VariableWeights/CS251*%
X37366800Y-88171900D02*
X37366800Y-88648500D01*
X37060500Y-84525500D02*
X36518800Y-85067200D01*
X36933700Y-83777500D02*
X36933700Y-84253900D01*
X37158600Y-82941400D02*
X37158600Y-83552600D01*
X37103700Y-240267600D02*
X38709900Y-241873800D01*
X38709900Y-241873800D02*
X38709900Y-253988500D01*
X37158600Y-83552600D02*
X36933700Y-83777500D01*
X37103700Y-86170100D02*
X37103700Y-87908800D01*
X37103700Y-87908800D02*
X37366800Y-88171900D01*
X35430600Y-63622300D02*
X36897900Y-65089600D01*
X36933700Y-84253900D02*
X37060500Y-84380700D01*
X37060500Y-84380700D02*
X37060500Y-84525500D01*
X36897900Y-65089600D02*
X36897900Y-82680700D01*
X37103700Y-88911600D02*
X37103700Y-240267600D01*
X36897900Y-82680700D02*
X37158600Y-82941400D01*
X37366800Y-88648500D02*
X37103700Y-88911600D01*
X36518800Y-85067200D02*
X36518800Y-85585200D01*
X36518800Y-85585200D02*
X37103700Y-86170100D01*
%TO.N,/VariableWeights/CS254*%
X38084600Y-254247500D02*
X38084600Y-253729500D01*
X35932900Y-87217900D02*
X35965500Y-87185300D01*
X38129800Y-263117300D02*
X38464200Y-262782900D01*
X35543100Y-84274100D02*
X35647200Y-84170000D01*
X38464200Y-255742800D02*
X38129800Y-255408400D01*
X38464200Y-262306300D02*
X38129800Y-261971900D01*
X38129800Y-261971900D02*
X38129800Y-256553800D01*
X38129800Y-269244300D02*
X38464200Y-268909900D01*
X38464200Y-256219400D02*
X38464200Y-255742800D01*
X36302500Y-86848400D02*
X36302500Y-86371800D01*
X35965600Y-87185300D02*
X36302500Y-86848400D01*
X36302500Y-86371800D02*
X35965600Y-86034900D01*
X38129800Y-256553800D02*
X38464200Y-256219400D01*
X35647200Y-84170000D02*
X35647200Y-65503600D01*
X35965500Y-86034900D02*
X35932900Y-86002300D01*
X38317900Y-241977300D02*
X36153800Y-239813200D01*
X35965500Y-87185300D02*
X35965600Y-87185300D01*
X36153800Y-144830600D02*
X35932900Y-144609700D01*
X35932900Y-144609700D02*
X35932900Y-87217900D01*
X38464200Y-268909900D02*
X38464200Y-268433300D01*
X38464200Y-262782900D02*
X38464200Y-262306300D01*
X36153800Y-239813200D02*
X36153800Y-144830600D01*
X38129800Y-254292700D02*
X38084600Y-254247500D01*
X38317900Y-253496200D02*
X38317900Y-241977300D01*
X35647200Y-65503600D02*
X35593500Y-65449900D01*
X35543100Y-84792000D02*
X35543100Y-84274100D01*
X38464200Y-268433300D02*
X38129800Y-268098900D01*
X35932900Y-85181800D02*
X35543100Y-84792000D01*
X38084600Y-253729500D02*
X38317900Y-253496200D01*
X38129800Y-255408400D02*
X38129800Y-254292700D01*
X38129800Y-268098900D02*
X38129800Y-263117300D01*
X38129800Y-271921900D02*
X38129800Y-269244300D01*
X35932900Y-86002300D02*
X35932900Y-85181800D01*
X35965600Y-86034900D02*
X35965500Y-86034900D01*
%TO.N,/VariableWeights/CS242*%
X75513600Y-66950200D02*
X75513600Y-66946600D01*
X75774400Y-66685800D02*
X75774400Y-66239200D01*
X75424100Y-67039700D02*
X75513600Y-66950200D01*
X80696500Y-220114300D02*
X76409500Y-215827300D01*
X75513600Y-66946600D02*
X75774400Y-66685800D01*
X75424100Y-78545000D02*
X75424100Y-67039700D01*
X76409500Y-215827300D02*
X76409500Y-79530400D01*
X76409500Y-79530400D02*
X75424100Y-78545000D01*
%TO.N,/VariableWeights/CS243*%
X32285900Y-75406800D02*
X32809700Y-75930600D01*
X33695900Y-83141700D02*
X33895500Y-83341300D01*
X33921300Y-91121100D02*
X33921300Y-146260600D01*
X33869300Y-146312600D02*
X33869300Y-226040200D01*
X33895500Y-88113700D02*
X34146200Y-88364400D01*
X33633700Y-90833500D02*
X33921300Y-91121100D01*
X33513600Y-76634500D02*
X33695900Y-76816800D01*
X32899900Y-60804600D02*
X32285900Y-61418600D01*
X33513600Y-76267500D02*
X33513600Y-76634500D01*
X32285900Y-61418600D02*
X32285900Y-75406800D01*
X32809700Y-75930600D02*
X33176700Y-75930600D01*
X33176700Y-75930600D02*
X33513600Y-76267500D01*
X33895500Y-83341300D02*
X33895500Y-88113700D01*
X33921300Y-90069500D02*
X33633700Y-90357100D01*
X33921300Y-89065900D02*
X33921300Y-90069500D01*
X34146200Y-88841000D02*
X33921300Y-89065900D01*
X33695900Y-76816800D02*
X33695900Y-83141700D01*
X34146200Y-88364400D02*
X34146200Y-88841000D01*
X33921300Y-146260600D02*
X33869300Y-146312600D01*
X33633700Y-90357100D02*
X33633700Y-90833500D01*
%TO.N,/VariableWeights/CS244*%
X76059200Y-227073800D02*
X76059200Y-79675500D01*
X82866400Y-233881000D02*
X76059200Y-227073800D01*
X76059200Y-79675500D02*
X75073800Y-78690100D01*
X75073800Y-65292800D02*
X75378000Y-64988600D01*
X75073800Y-78690100D02*
X75073800Y-65292800D01*
%TO.N,/VariableWeights/CS245*%
X33863800Y-74808200D02*
X34046200Y-74990600D01*
X34496500Y-88219300D02*
X34496500Y-90069400D01*
X34496500Y-90069400D02*
X34784100Y-90357000D01*
X33959800Y-75178500D02*
X33959800Y-75654900D01*
X34302800Y-145597300D02*
X34496500Y-145791000D01*
X34784100Y-90357000D02*
X34784100Y-90833600D01*
X34302800Y-145120900D02*
X34302800Y-145597300D01*
X34451500Y-88174300D02*
X34496500Y-88219300D01*
X34496500Y-146180800D02*
X34240300Y-146437000D01*
X34046200Y-74990600D02*
X34046200Y-75092100D01*
X34496500Y-144927200D02*
X34302800Y-145120900D01*
X34240300Y-146913400D02*
X34496500Y-147169600D01*
X34784100Y-90833600D02*
X34496500Y-91121200D01*
X34496500Y-145791000D02*
X34496500Y-146180800D01*
X33959800Y-75654900D02*
X34046200Y-75741300D01*
X34046200Y-75741300D02*
X34046200Y-82996600D01*
X34046200Y-82996600D02*
X34451500Y-83401900D01*
X33863800Y-63465300D02*
X33863800Y-74808200D01*
X34496500Y-91121200D02*
X34496500Y-144927200D01*
X32941300Y-62542800D02*
X33863800Y-63465300D01*
X34496500Y-147169600D02*
X34496500Y-240339400D01*
X34240300Y-146437000D02*
X34240300Y-146913400D01*
X34046200Y-75092100D02*
X33959800Y-75178500D01*
X34451500Y-83401900D02*
X34451500Y-88174300D01*
%TO.N,/VariableWeights/CS246*%
X34968200Y-65708900D02*
X34968200Y-65190900D01*
X35484700Y-90066800D02*
X35327300Y-89909400D01*
X35803500Y-242377300D02*
X35803500Y-144975700D01*
X34968200Y-65190900D02*
X35182600Y-64976500D01*
X35152100Y-86848300D02*
X35152100Y-86371900D01*
X37451700Y-244025500D02*
X35803500Y-242377300D01*
X35182600Y-63056900D02*
X35182600Y-62387000D01*
X35182600Y-64187700D02*
X34855400Y-63860500D01*
X35192800Y-84937200D02*
X35192800Y-84129000D01*
X35484700Y-144656900D02*
X35484700Y-90066800D01*
X35296900Y-66037600D02*
X34968200Y-65708900D01*
X35192800Y-84129000D02*
X35296900Y-84024900D01*
X35327300Y-89909400D02*
X35327300Y-87023500D01*
X35327300Y-85071700D02*
X35192800Y-84937200D01*
X35327300Y-87023500D02*
X35152100Y-86848300D01*
X35296900Y-84024900D02*
X35296900Y-66037600D01*
X35182600Y-64976500D02*
X35182600Y-64187700D01*
X34855400Y-63384100D02*
X35182600Y-63056900D01*
X35182600Y-62387000D02*
X35163700Y-62368100D01*
X35152100Y-86371900D02*
X35327300Y-86196700D01*
X35803500Y-144975700D02*
X35484700Y-144656900D01*
X35327300Y-86196700D02*
X35327300Y-85071700D01*
X34855400Y-63860500D02*
X34855400Y-63384100D01*
%TO.N,/VariableWeights/CS313*%
X38732800Y-84596100D02*
X38732800Y-104754800D01*
X38614500Y-83317000D02*
X38784700Y-83487200D01*
X38784700Y-83487200D02*
X38784700Y-84544200D01*
X38784700Y-84544200D02*
X38732800Y-84596100D01*
X38614500Y-51663600D02*
X38614500Y-83317000D01*
X38732800Y-104754800D02*
X39050700Y-105072700D01*
X38820400Y-51457700D02*
X38614500Y-51663600D01*
%TO.N,/VariableWeights/CS316*%
X38964800Y-63041900D02*
X38964800Y-62565500D01*
X38964800Y-62565500D02*
X39301800Y-62228500D01*
X39301800Y-63378900D02*
X38964800Y-63041900D01*
X39301900Y-63378900D02*
X39301800Y-63378900D01*
X39083100Y-84741200D02*
X39362800Y-84461500D01*
X39301800Y-62228500D02*
X39301900Y-62228500D01*
X39362800Y-63439800D02*
X39301900Y-63378900D01*
X39362800Y-62167600D02*
X39362800Y-53092900D01*
X39866100Y-119741200D02*
X39866100Y-94748000D01*
X39083100Y-93965000D02*
X39083100Y-84741200D01*
X39866100Y-94748000D02*
X39083100Y-93965000D01*
X39362800Y-84461500D02*
X39362800Y-63439800D01*
X39362800Y-53092900D02*
X39248200Y-52978300D01*
X41281100Y-121156200D02*
X39866100Y-119741200D01*
X39301900Y-62228500D02*
X39362800Y-62167600D01*
%TO.N,/VariableWeights/CS321*%
X104967600Y-56721100D02*
X104967600Y-128279200D01*
X104967600Y-128279200D02*
X109128300Y-132439900D01*
%TO.N,/VariableWeights/CS323*%
X104437400Y-57004300D02*
X104437400Y-129402700D01*
X104392400Y-56959300D02*
X104437400Y-57004300D01*
X104437400Y-129959700D02*
X104437400Y-141697200D01*
X104787700Y-56087700D02*
X104729500Y-56145900D01*
X104729500Y-56145900D02*
X104729400Y-56145900D01*
X104787700Y-42821900D02*
X104787700Y-56087700D01*
X104397100Y-129443000D02*
X104397100Y-129919400D01*
X104729400Y-56145900D02*
X104392400Y-56482900D01*
X104437400Y-141697200D02*
X109128300Y-146388100D01*
X104397100Y-129919400D02*
X104437400Y-129959700D01*
X104392400Y-56482900D02*
X104392400Y-56959300D01*
X104437400Y-129402700D02*
X104397100Y-129443000D01*
%TO.N,/VariableWeights/CS324*%
X30000700Y-145151300D02*
X30000700Y-80927200D01*
X26418100Y-45238200D02*
X26652500Y-45003800D01*
X26652500Y-44527200D02*
X26418100Y-44292800D01*
X25275600Y-76202100D02*
X25275600Y-65321500D01*
X26418100Y-44292800D02*
X26418100Y-39751000D01*
X26526200Y-53523300D02*
X26526200Y-53046700D01*
X25460300Y-65136800D02*
X25460300Y-58859500D01*
X26418100Y-52938600D02*
X26418100Y-45238200D01*
X26652500Y-45003800D02*
X26652500Y-44527200D01*
X26418100Y-55662200D02*
X26418100Y-53631400D01*
X30000700Y-80927200D02*
X25275600Y-76202100D01*
X25275600Y-65321500D02*
X25460300Y-65136800D01*
X26843800Y-56087900D02*
X26418100Y-55662200D01*
X26526200Y-53046700D02*
X26418100Y-52938600D01*
X26418100Y-53631400D02*
X26526200Y-53523300D01*
X26843800Y-57476000D02*
X26843800Y-56087900D01*
X25460300Y-58859500D02*
X26843800Y-57476000D01*
X26418100Y-39751000D02*
X26155300Y-39488200D01*
%TO.N,/VariableWeights/CS325*%
X24759700Y-41264700D02*
X24759700Y-64846600D01*
X25765800Y-84380500D02*
X25765800Y-84856900D01*
X26084600Y-85175700D02*
X26084600Y-86164800D01*
X25690100Y-40334300D02*
X24759700Y-41264700D01*
X26380900Y-158155500D02*
X26105800Y-158430600D01*
X26084600Y-86164800D02*
X26380900Y-86461100D01*
X25847600Y-82386700D02*
X25847600Y-82863100D01*
X26084600Y-84061700D02*
X25765800Y-84380500D01*
X26084600Y-83100100D02*
X26084600Y-84061700D01*
X25765800Y-84856900D02*
X26084600Y-85175700D01*
X24575000Y-65031300D02*
X24575000Y-76492200D01*
X24575000Y-76492200D02*
X26084600Y-78001800D01*
X26084600Y-78001800D02*
X26084600Y-82149700D01*
X26380900Y-86461100D02*
X26380900Y-158155500D01*
X25847600Y-82863100D02*
X26084600Y-83100100D01*
X24759700Y-64846600D02*
X24575000Y-65031300D01*
X26084600Y-82149700D02*
X25847600Y-82386700D01*
%TO.N,/VariableWeights/CS326*%
X26916200Y-84857000D02*
X26916200Y-84380400D01*
X25110000Y-64991700D02*
X25110000Y-53204900D01*
X24925300Y-76347100D02*
X24925300Y-65176400D01*
X24925300Y-65176400D02*
X25110000Y-64991700D01*
X26761000Y-82149600D02*
X26761000Y-78182800D01*
X26916200Y-84380400D02*
X26761000Y-84225200D01*
X26761000Y-85012200D02*
X26916200Y-84857000D01*
X26998000Y-82863200D02*
X26998000Y-82386600D01*
X25110000Y-53204900D02*
X25736500Y-52578400D01*
X25502100Y-44527300D02*
X25736500Y-44292900D01*
X25736500Y-44292900D02*
X25736500Y-42900000D01*
X26998000Y-82386600D02*
X26761000Y-82149600D01*
X26761000Y-84225200D02*
X26761000Y-83100200D01*
X25736500Y-45238100D02*
X25502100Y-45003700D01*
X25502100Y-45003700D02*
X25502100Y-44527300D01*
X26761000Y-78182800D02*
X24925300Y-76347100D01*
X25736500Y-52578400D02*
X25736500Y-45238100D01*
X26761000Y-83100200D02*
X26998000Y-82863200D01*
X26761000Y-164778300D02*
X26761000Y-85012200D01*
%TO.N,/VariableWeights/CS341*%
X104040100Y-210498900D02*
X104040100Y-42138600D01*
X108114600Y-214573400D02*
X104040100Y-210498900D01*
%TO.N,/VariableWeights/CS352*%
X25717300Y-158926400D02*
X25717300Y-257941700D01*
X25926700Y-157725400D02*
X25480500Y-158171600D01*
X24317000Y-30200800D02*
X24317000Y-64793900D01*
X25130200Y-77542800D02*
X25130200Y-155835100D01*
X22915300Y-28799100D02*
X24317000Y-30200800D01*
X25480500Y-158171600D02*
X25480500Y-158689600D01*
X24224700Y-76637300D02*
X25130200Y-77542800D01*
X25130200Y-155835100D02*
X25926700Y-156631600D01*
X25926700Y-156631600D02*
X25926700Y-157725400D01*
X25717300Y-257941700D02*
X29694900Y-261919300D01*
X24317000Y-64793900D02*
X24224700Y-64886200D01*
X24224700Y-64886200D02*
X24224700Y-76637300D01*
X25480500Y-158689600D02*
X25717300Y-158926400D01*
%TO.N,/VariableWeights/CS353*%
X22292400Y-31032500D02*
X23616400Y-32356500D01*
X23682100Y-96488400D02*
X23682100Y-268235200D01*
X23616400Y-64503700D02*
X23524100Y-64596000D01*
X23524100Y-64596000D02*
X23524100Y-96330400D01*
X23616400Y-32356500D02*
X23616400Y-64503700D01*
X23524100Y-96330400D02*
X23682100Y-96488400D01*
%TO.N,/VariableWeights/CS354*%
X25306400Y-207212000D02*
X25306400Y-274146100D01*
X23966700Y-31383600D02*
X23966700Y-64648800D01*
X22917800Y-30334700D02*
X23966700Y-31383600D01*
X23966700Y-64648800D02*
X23874400Y-64741100D01*
X23874400Y-76782500D02*
X24441400Y-77349500D01*
X24441400Y-77349500D02*
X24441400Y-206347000D01*
X24441400Y-206347000D02*
X25306400Y-207212000D01*
X23874400Y-64741100D02*
X23874400Y-76782500D01*
%TO.N,/VariableWeights/CS362*%
X108013200Y-241568600D02*
X92661100Y-226216500D01*
X108013200Y-286614200D02*
X108013200Y-262543500D01*
X108022700Y-286623600D02*
X108022600Y-286623600D01*
X108359600Y-261720600D02*
X108022700Y-261383700D01*
X108013200Y-287783400D02*
X108022600Y-287774000D01*
X108359600Y-286960500D02*
X108022700Y-286623600D01*
X108359600Y-262197200D02*
X108359600Y-261720600D01*
X108359600Y-287437100D02*
X108359600Y-286960500D01*
X108725000Y-301992700D02*
X108013200Y-301280900D01*
X92661100Y-226216500D02*
X92661100Y-32369900D01*
X108013200Y-301280900D02*
X108013200Y-287783400D01*
X108022700Y-262534100D02*
X108359600Y-262197200D01*
X108022600Y-286623600D02*
X108013200Y-286614200D01*
X108022600Y-262534100D02*
X108022700Y-262534100D01*
X108022600Y-261383700D02*
X108013200Y-261374300D01*
X108013200Y-261374300D02*
X108013200Y-241568600D01*
X108013200Y-262543500D02*
X108022600Y-262534100D01*
X108022700Y-287774000D02*
X108359600Y-287437100D01*
X108022600Y-287774000D02*
X108022700Y-287774000D01*
X108022700Y-261383700D02*
X108022600Y-261383700D01*
%TO.N,/VariableWeights/CS363*%
X38729600Y-208097900D02*
X38860900Y-207966600D01*
X38849300Y-221758900D02*
X38729600Y-221639200D01*
X42392200Y-305347900D02*
X42392200Y-244885800D01*
X38195100Y-82316700D02*
X38195100Y-31818800D01*
X42392200Y-244885800D02*
X38729600Y-241223200D01*
X38729600Y-165868300D02*
X38729600Y-136824500D01*
X38729600Y-222355200D02*
X38849300Y-222235500D01*
X38729600Y-166897700D02*
X39006000Y-166621300D01*
X38729600Y-201490600D02*
X38594500Y-201355500D01*
X39367900Y-136186200D02*
X39367900Y-110533900D01*
X39367900Y-110533900D02*
X38374600Y-109540600D01*
X38594500Y-201355500D02*
X38594500Y-200879100D01*
X39006000Y-166621300D02*
X39006000Y-166144700D01*
X38729600Y-241223200D02*
X38729600Y-222355200D01*
X38209500Y-82331100D02*
X38195100Y-82316700D01*
X38195100Y-31818800D02*
X34832200Y-28455900D01*
X38209500Y-83407400D02*
X38209500Y-82331100D01*
X38729600Y-215172000D02*
X38729600Y-208097900D01*
X38729600Y-215905000D02*
X38857800Y-215776800D01*
X39006000Y-166144700D02*
X38729600Y-165868300D01*
X38729600Y-207358700D02*
X38729600Y-201490600D01*
X38857800Y-215300200D02*
X38729600Y-215172000D01*
X38374600Y-109540600D02*
X38374600Y-84458900D01*
X38374600Y-84458900D02*
X38434400Y-84399100D01*
X38857800Y-215776800D02*
X38857800Y-215300200D01*
X38594500Y-200879100D02*
X38729600Y-200744000D01*
X38434400Y-83632300D02*
X38209500Y-83407400D01*
X38860900Y-207490000D02*
X38729600Y-207358700D01*
X38860900Y-207966600D02*
X38860900Y-207490000D01*
X38434400Y-84399100D02*
X38434400Y-83632300D01*
X38729600Y-221639200D02*
X38729600Y-215905000D01*
X38849300Y-222235500D02*
X38849300Y-221758900D01*
X38729600Y-136824500D02*
X39367900Y-136186200D01*
X38729600Y-200744000D02*
X38729600Y-166897700D01*
%TO.N,/VariableWeights/CS364*%
X106512500Y-276145300D02*
X106512500Y-275668900D01*
X88961000Y-251051200D02*
X88827800Y-250918000D01*
X88961000Y-250308400D02*
X88961000Y-237758400D01*
X88961000Y-237758400D02*
X88827800Y-237625200D01*
X88961000Y-230072900D02*
X88961000Y-218424000D01*
X88827800Y-230206100D02*
X88961000Y-230072900D01*
X88827800Y-218290800D02*
X88827800Y-217814400D01*
X88961000Y-162469200D02*
X88714000Y-162222200D01*
X88827800Y-250918000D02*
X88827800Y-250441600D01*
X88827800Y-217814400D02*
X88961000Y-217681200D01*
X88827800Y-237148800D02*
X88961000Y-237015600D01*
X88961000Y-254336300D02*
X88961000Y-251051200D01*
X88961000Y-196334100D02*
X88961000Y-184081100D01*
X88961000Y-184081100D02*
X88827800Y-183947900D01*
X88961000Y-183338300D02*
X88961000Y-162469200D01*
X88714000Y-39782200D02*
X77754700Y-28822900D01*
X106512500Y-275668900D02*
X106619800Y-275561600D01*
X88961000Y-197076900D02*
X88827800Y-196943700D01*
X88961000Y-237015600D02*
X88961000Y-230815700D01*
X88961000Y-217681200D02*
X88961000Y-197076900D01*
X88827800Y-196943700D02*
X88827800Y-196467300D01*
X106619800Y-315759100D02*
X106619800Y-276252600D01*
X88961000Y-230815700D02*
X88827800Y-230682500D01*
X88827800Y-196467300D02*
X88961000Y-196334100D01*
X106619800Y-275561600D02*
X106619800Y-271995100D01*
X88714000Y-162222200D02*
X88714000Y-39782200D01*
X88827800Y-183947900D02*
X88827800Y-183471500D01*
X106619800Y-271995100D02*
X88961000Y-254336300D01*
X88827800Y-183471500D02*
X88961000Y-183338300D01*
X88961000Y-218424000D02*
X88827800Y-218290800D01*
X88827800Y-250441600D02*
X88961000Y-250308400D01*
X88827800Y-230682500D02*
X88827800Y-230206100D01*
X88827800Y-237625200D02*
X88827800Y-237148800D01*
X106619800Y-276252600D02*
X106512500Y-276145300D01*
%TO.N,/VariableWeights/CS366*%
X89401300Y-162414100D02*
X89064300Y-162077100D01*
X107209200Y-262197100D02*
X107209200Y-261720700D01*
X107662900Y-276145400D02*
X107662900Y-275668800D01*
X107546200Y-287774000D02*
X107209200Y-287437000D01*
X107555500Y-287783200D02*
X107546300Y-287774000D01*
X89401300Y-143132300D02*
X89064300Y-142795300D01*
X107555500Y-276252800D02*
X107662900Y-276145400D01*
X89064300Y-142318900D02*
X89401300Y-141981900D01*
X89433900Y-169726700D02*
X89433900Y-162446600D01*
X107555500Y-308392800D02*
X107375900Y-308213200D01*
X107662900Y-275668800D02*
X107555500Y-275561400D01*
X107555500Y-286614400D02*
X107555500Y-276252800D01*
X89433900Y-143164800D02*
X89401400Y-143132300D01*
X91325400Y-239535200D02*
X91325400Y-171618200D01*
X107546300Y-262534100D02*
X107546200Y-262534100D01*
X107555500Y-262543300D02*
X107546300Y-262534100D01*
X89064300Y-161600700D02*
X89401300Y-161263700D01*
X89433900Y-161231200D02*
X89433900Y-143164800D01*
X107555500Y-327714600D02*
X107555500Y-308392800D01*
X89401400Y-162414100D02*
X89401300Y-162414100D01*
X107546200Y-261383700D02*
X107546300Y-261383700D01*
X89401400Y-141981900D02*
X89433900Y-141949400D01*
X107209200Y-286960600D02*
X107546200Y-286623600D01*
X107546300Y-287774000D02*
X107546200Y-287774000D01*
X89433900Y-162446600D02*
X89401400Y-162414100D01*
X89401300Y-161263700D02*
X89401400Y-161263700D01*
X107209200Y-261720700D02*
X107546200Y-261383700D01*
X89401300Y-141981900D02*
X89401400Y-141981900D01*
X107555500Y-255765300D02*
X91325400Y-239535200D01*
X89083600Y-121478200D02*
X89083600Y-30375100D01*
X89433900Y-141949400D02*
X89433900Y-121828500D01*
X89064300Y-142795300D02*
X89064300Y-142318900D01*
X89401400Y-143132300D02*
X89401300Y-143132300D01*
X89433900Y-121828500D02*
X89083600Y-121478200D01*
X107555500Y-275561400D02*
X107555500Y-262543300D01*
X89401400Y-161263700D02*
X89433900Y-161231200D01*
X107375900Y-307736800D02*
X107555500Y-307557200D01*
X107546300Y-286623600D02*
X107555500Y-286614400D01*
X107546200Y-262534100D02*
X107209200Y-262197100D01*
X107555600Y-327714700D02*
X107555500Y-327714600D01*
X107555500Y-261374500D02*
X107555500Y-255765300D01*
X107375900Y-308213200D02*
X107375900Y-307736800D01*
X91325400Y-171618200D02*
X89433900Y-169726700D01*
X107209200Y-287437000D02*
X107209200Y-286960600D01*
X107546200Y-286623600D02*
X107546300Y-286623600D01*
X89064300Y-162077100D02*
X89064300Y-161600700D01*
X107555500Y-307557200D02*
X107555500Y-287783200D01*
X107546300Y-261383700D02*
X107555500Y-261374500D01*
%TO.N,/VariableWeights/CS411*%
X37508900Y-84015700D02*
X37508900Y-82709000D01*
X37419200Y-82619300D02*
X37419200Y-36323600D01*
X37508900Y-82709000D02*
X37419200Y-82619300D01*
X33808200Y-32712600D02*
X33808200Y-31080100D01*
X33808200Y-31080100D02*
X33464800Y-30736700D01*
X37419200Y-36323600D02*
X33808200Y-32712600D01*
%TO.N,/VariableWeights/CS414*%
X37729000Y-109779400D02*
X37769600Y-109738800D01*
X37769600Y-35762700D02*
X34706000Y-32699100D01*
X38084100Y-84254000D02*
X38084100Y-83777400D01*
X37769600Y-84568500D02*
X38084100Y-84254000D01*
X37769600Y-82386600D02*
X37769600Y-35762700D01*
X38084100Y-83777400D02*
X37859200Y-83552500D01*
X37859200Y-83552500D02*
X37859200Y-82476200D01*
X37769600Y-109738800D02*
X37769600Y-84568500D01*
X37859200Y-82476200D02*
X37769600Y-82386600D01*
%TO.N,/VariableWeights/CS416*%
X140519500Y-103688600D02*
X140300800Y-103907300D01*
X140300800Y-103907300D02*
X140300800Y-104383700D01*
X140811500Y-90247900D02*
X140519500Y-90539900D01*
X140519500Y-89479300D02*
X140811500Y-89771300D01*
X140519500Y-90539900D02*
X140519500Y-103688600D01*
X140811500Y-89771300D02*
X140811500Y-90247900D01*
X140300800Y-104383700D02*
X140519500Y-104602400D01*
X140519500Y-104602400D02*
X140519500Y-123682100D01*
X140519500Y-16869100D02*
X140519500Y-89479300D01*
X140519500Y-123682100D02*
X140721100Y-123883700D01*
%TO.N,/VariableWeights/CS424*%
X123244700Y-137606400D02*
X123244700Y-109610700D01*
X123244700Y-109610700D02*
X123620800Y-109234600D01*
X123620800Y-109234600D02*
X123620800Y-28751700D01*
X138096800Y-152458500D02*
X123244700Y-137606400D01*
%TO.N,/VariableWeights/CS434*%
X139063300Y-152524700D02*
X139063300Y-179199400D01*
X132000800Y-145462200D02*
X139063300Y-152524700D01*
X139063300Y-180192000D02*
X139063300Y-192946900D01*
X138805200Y-179457500D02*
X138805200Y-179933900D01*
X138805200Y-179933900D02*
X139063300Y-180192000D01*
X139063300Y-179199400D02*
X138805200Y-179457500D01*
X132000800Y-23474400D02*
X132000800Y-145462200D01*
%TO.N,/VariableWeights/CS442*%
X122742000Y-25053400D02*
X122894500Y-25205900D01*
X122894400Y-138257300D02*
X136755000Y-152117900D01*
X136755000Y-152117900D02*
X136755000Y-219233000D01*
X122894400Y-109465600D02*
X122894400Y-138257300D01*
X123270500Y-30385400D02*
X123270500Y-109089500D01*
X122894500Y-30009400D02*
X123270500Y-30385400D01*
X136755000Y-219233000D02*
X138393400Y-220871400D01*
X123270500Y-109089500D02*
X122894400Y-109465600D01*
X122894500Y-25205900D02*
X122894500Y-30009400D01*
%TO.N,/VariableWeights/CS452*%
X122166800Y-25291600D02*
X122193800Y-25318600D01*
X122544100Y-24438000D02*
X122503900Y-24478200D01*
X122544100Y-108091800D02*
X122583200Y-108130900D01*
X122503800Y-24478200D02*
X122166800Y-24815200D01*
X122544100Y-21385100D02*
X122544100Y-24438000D01*
X122503900Y-24478200D02*
X122503800Y-24478200D01*
X123342300Y-20586900D02*
X122544100Y-21385100D01*
X122544100Y-109320400D02*
X122544100Y-138577700D01*
X122583200Y-108130900D02*
X122583300Y-108130900D01*
X122583200Y-109281300D02*
X122544100Y-109320400D01*
X122583300Y-108130900D02*
X122920200Y-108467800D01*
X122166800Y-24815200D02*
X122166800Y-25291600D01*
X122920200Y-108467800D02*
X122920200Y-108944400D01*
X122583300Y-109281300D02*
X122583200Y-109281300D01*
X122193800Y-29347100D02*
X122544100Y-29697400D01*
X122544100Y-138577700D02*
X122558800Y-138592400D01*
X122558800Y-245911800D02*
X138975100Y-262328100D01*
X122193800Y-25318600D02*
X122193800Y-29347100D01*
X122920200Y-108944400D02*
X122583300Y-109281300D01*
X122544100Y-29697400D02*
X122544100Y-108091800D01*
X122558800Y-138592400D02*
X122558800Y-245911800D01*
%TO.N,/VariableWeights/CS453*%
X139953000Y-90539700D02*
X139953000Y-103759700D01*
X139953000Y-233653800D02*
X139875400Y-233731400D01*
X140303500Y-163614700D02*
X140303500Y-164091300D01*
X139950500Y-103762200D02*
X139950500Y-104528800D01*
X140225400Y-137851500D02*
X140225400Y-138328100D01*
X139661100Y-90247800D02*
X139953000Y-90539700D01*
X139966500Y-163277800D02*
X139966600Y-163277800D01*
X139966600Y-164428200D02*
X139966500Y-164428200D01*
X139953000Y-164441700D02*
X139953000Y-179454800D01*
X139955600Y-179457400D02*
X139955600Y-179934000D01*
X139661100Y-89771400D02*
X139661100Y-90247800D01*
X139953000Y-103759700D02*
X139950500Y-103762200D01*
X139966600Y-163277800D02*
X140303500Y-163614700D01*
X140225400Y-145352900D02*
X139953000Y-145625300D01*
X137724500Y-22301800D02*
X139953000Y-24530300D01*
X139953000Y-89479500D02*
X139661100Y-89771400D01*
X139953000Y-179454800D02*
X139955600Y-179457400D01*
X139953000Y-24530300D02*
X139953000Y-89479500D01*
X139953000Y-145625300D02*
X139953000Y-163264300D01*
X139953000Y-163264300D02*
X139966500Y-163277800D01*
X140225400Y-144876300D02*
X140225400Y-145352900D01*
X139950500Y-104528800D02*
X139953000Y-104531300D01*
X140303500Y-164091300D02*
X139966600Y-164428200D01*
X139875400Y-234207800D02*
X139953000Y-234285400D01*
X139953000Y-234285400D02*
X139953000Y-268767000D01*
X139955600Y-179934000D02*
X139953000Y-179936600D01*
X139875400Y-233731400D02*
X139875400Y-234207800D01*
X139953000Y-144603900D02*
X140225400Y-144876300D01*
X139953000Y-138600500D02*
X139953000Y-144603900D01*
X140225400Y-138328100D02*
X139953000Y-138600500D01*
X139966500Y-164428200D02*
X139953000Y-164441700D01*
X139953000Y-104531300D02*
X139953000Y-137579100D01*
X139953000Y-137579100D02*
X140225400Y-137851500D01*
X139953000Y-179936600D02*
X139953000Y-233653800D01*
%TO.N,/VariableWeights/CS465*%
X75358600Y-244530600D02*
X75358600Y-320346100D01*
X74373200Y-116636900D02*
X75008300Y-117272000D01*
X74083900Y-59188900D02*
X74022900Y-59249900D01*
X74022900Y-59249900D02*
X74022900Y-79125400D01*
X74022900Y-79125400D02*
X74373200Y-79475700D01*
X74083900Y-23121400D02*
X74083900Y-59188900D01*
X75008300Y-117272000D02*
X75008300Y-244180300D01*
X74373200Y-79475700D02*
X74373200Y-116636900D01*
X72437500Y-21475000D02*
X74083900Y-23121400D01*
X75008300Y-244180300D02*
X75358600Y-244530600D01*
%TO.N,/VariableWeights/CS466*%
X120221800Y-186265300D02*
X120221700Y-186265300D01*
X120366300Y-151039500D02*
X120175900Y-150849100D01*
X120526200Y-187111300D02*
X120558700Y-187078800D01*
X120175900Y-244207000D02*
X120175900Y-236483800D01*
X120366300Y-235816800D02*
X120175900Y-235626400D01*
X120526200Y-201510000D02*
X120526200Y-187111300D01*
X120175900Y-150849100D02*
X120175900Y-89100900D01*
X120175900Y-235626400D02*
X120175900Y-201860300D01*
X120435800Y-88841000D02*
X120435800Y-88364400D01*
X120558700Y-186602200D02*
X120221800Y-186265300D01*
X120470700Y-183705200D02*
X120175900Y-183410400D01*
X120175900Y-83708800D02*
X120435800Y-83448900D01*
X120435800Y-83448900D02*
X120435800Y-82972300D01*
X120435800Y-82972300D02*
X120175900Y-82712400D01*
X120366300Y-244397400D02*
X120175900Y-244207000D01*
X120175900Y-183410400D02*
X120175900Y-151706500D01*
X120175900Y-309081800D02*
X120175900Y-245064400D01*
X120221700Y-186265300D02*
X120175900Y-186219500D01*
X120435800Y-88364400D02*
X120175900Y-88104500D01*
X120175900Y-184766800D02*
X120470700Y-184472000D01*
X120175900Y-88104500D02*
X120175900Y-83708800D01*
X120470700Y-184472000D02*
X120470700Y-183705200D01*
X120175900Y-236483800D02*
X120366300Y-236293400D01*
X120366300Y-151516100D02*
X120366300Y-151039500D01*
X120175900Y-151706500D02*
X120366300Y-151516100D01*
X120175900Y-82712400D02*
X120175900Y-23569100D01*
X120175900Y-186219500D02*
X120175900Y-184766800D01*
X120175900Y-89100900D02*
X120435800Y-88841000D01*
X138775200Y-327681100D02*
X120175900Y-309081800D01*
X120175900Y-201860300D02*
X120526200Y-201510000D01*
X120558700Y-187078800D02*
X120558700Y-186602200D01*
X120175900Y-245064400D02*
X120366300Y-244874000D01*
X120366300Y-236293400D02*
X120366300Y-235816800D01*
X120366300Y-244874000D02*
X120366300Y-244397400D01*
%TO.N,/VariableWeights/CS511*%
X169088400Y-94260000D02*
X169088400Y-31333500D01*
%TO.N,/VariableWeights/CS514*%
X169896700Y-107712200D02*
X169896700Y-112317600D01*
X168315000Y-38373300D02*
X168315000Y-106130500D01*
X168315000Y-106130500D02*
X169896700Y-107712200D01*
X165593100Y-35651400D02*
X168315000Y-38373300D01*
%TO.N,/VariableWeights/CS522*%
X168760000Y-125904900D02*
X168760000Y-126381300D01*
X159092700Y-91162100D02*
X167841000Y-99910400D01*
X168995600Y-125669300D02*
X168760000Y-125904900D01*
X168995600Y-126616900D02*
X168995600Y-140340600D01*
X159092700Y-38787700D02*
X159092700Y-91162100D01*
X167841000Y-106327200D02*
X168995600Y-107481800D01*
X168995600Y-107481800D02*
X168995600Y-125669300D01*
X168760000Y-126381300D02*
X168995600Y-126616900D01*
X167841000Y-99910400D02*
X167841000Y-106327200D01*
%TO.N,/VariableWeights/CS524*%
X71161100Y-30853000D02*
X68731900Y-28423800D01*
X71161100Y-154986400D02*
X71161100Y-30853000D01*
%TO.N,/VariableWeights/CS525*%
X170471900Y-112308400D02*
X171050400Y-111729900D01*
X171050400Y-111729900D02*
X171050400Y-30700000D01*
X170350000Y-160112100D02*
X170350000Y-112677800D01*
X170471900Y-112555900D02*
X170471900Y-112308400D01*
X170350000Y-112677800D02*
X170471900Y-112555900D01*
%TO.N,/VariableWeights/WeightCtrlChipSel/MUX7*%
X38957600Y-18569700D02*
X38957600Y-18645000D01*
X38957600Y-18645000D02*
X39294600Y-18982000D01*
X39369900Y-18982000D02*
X39549700Y-19161800D01*
X36826300Y-16438400D02*
X38957600Y-18569700D01*
X39549700Y-19161800D02*
X39549700Y-35475000D01*
X39294600Y-18982000D02*
X39369900Y-18982000D01*
%TO.N,/VariableWeights/WeightCtrlChipSel/MUX0*%
X43430500Y-55038200D02*
X43430500Y-40378500D01*
X46796800Y-58404500D02*
X43430500Y-55038200D01*
%TD*%
M02*
