%TF.GenerationSoftware,KiCad,Pcbnew,(6.99.0-3937-g3e53426b6c)*%
%TF.CreationDate,2024-12-16T03:44:04-05:00*%
%TF.ProjectId,AnalogFNN,416e616c-6f67-4464-9e4e-2e6b69636164,rev?*%
%TF.SameCoordinates,Original*%
%TF.FileFunction,Copper,L7,Inr*%
%TF.FilePolarity,Positive*%
%FSLAX46Y46*%
G04 Gerber Fmt 4.6, Leading zero omitted, Abs format (unit mm)*
G04 Created by KiCad (PCBNEW (6.99.0-3937-g3e53426b6c)) date 2024-12-16 03:44:04*
%MOMM*%
%LPD*%
G01*
G04 APERTURE LIST*
%TA.AperFunction,ComponentPad*%
%ADD10R,0.850000X0.850000*%
%TD*%
%TA.AperFunction,ComponentPad*%
%ADD11O,0.850000X0.850000*%
%TD*%
%TA.AperFunction,ViaPad*%
%ADD12C,0.400000*%
%TD*%
%TA.AperFunction,ViaPad*%
%ADD13C,0.800000*%
%TD*%
%TA.AperFunction,ViaPad*%
%ADD14C,0.600000*%
%TD*%
%TA.AperFunction,Conductor*%
%ADD15C,0.250000*%
%TD*%
%TA.AperFunction,Conductor*%
%ADD16C,0.150000*%
%TD*%
%TA.AperFunction,Conductor*%
%ADD17C,0.200000*%
%TD*%
G04 APERTURE END LIST*
D10*
%TO.N,GND*%
%TO.C,SW1*%
X126899999Y-27699999D03*
D11*
%TO.N,Net-(SW1-B)*%
X126899999Y-28699999D03*
%TO.N,+3V3*%
X126899999Y-29699999D03*
%TD*%
D10*
%TO.N,-5V*%
%TO.C,J2*%
X132999999Y-42499999D03*
D11*
%TO.N,GND*%
X132999999Y-41499999D03*
%TO.N,+5V*%
X132999999Y-40499999D03*
%TO.N,GND*%
X132999999Y-39499999D03*
%TO.N,+3V3*%
X132999999Y-38499999D03*
%TD*%
D10*
%TO.N,GND*%
%TO.C,J1*%
X133031399Y-31767999D03*
D11*
%TO.N,/SWCLK*%
X133031399Y-32767999D03*
%TO.N,/SWDIO*%
X133031399Y-33767999D03*
%TO.N,+3V3*%
X133031399Y-34767999D03*
%TD*%
D10*
%TO.N,/L5_OUT1*%
%TO.C,J4*%
X532199999Y-180899999D03*
D11*
%TO.N,/L5_OUT2*%
X532199999Y-181899999D03*
%TO.N,/L5_OUT3*%
X532199999Y-182899999D03*
%TO.N,/L5_OUT4*%
X532199999Y-183899999D03*
%TO.N,/L5_OUT5*%
X532199999Y-184899999D03*
%TO.N,/L5_OUT6*%
X532199999Y-185899999D03*
%TD*%
D10*
%TO.N,/L1_IN1*%
%TO.C,J3*%
X239699999Y-188699999D03*
D11*
%TO.N,/L1_IN2*%
X239699999Y-189699999D03*
%TO.N,/L1_IN3*%
X239699999Y-190699999D03*
%TO.N,/L1_IN4*%
X239699999Y-191699999D03*
%TO.N,/L1_IN5*%
X239699999Y-192699999D03*
%TO.N,/L1_IN6*%
X239699999Y-193699999D03*
%TO.N,/L1_IN7*%
X239699999Y-194699999D03*
%TO.N,/L1_IN8*%
X239699999Y-195699999D03*
%TO.N,/L1_IN9*%
X239699999Y-196699999D03*
%TO.N,/L1_IN10*%
X239699999Y-197699999D03*
%TO.N,/L1_IN11*%
X239699999Y-198699999D03*
%TO.N,/L1_IN12*%
X239699999Y-199699999D03*
%TO.N,/L1_IN13*%
X239699999Y-200699999D03*
%TO.N,/L1_IN14*%
X239699999Y-201699999D03*
%TO.N,/L1_IN15*%
X239699999Y-202699999D03*
%TO.N,/L1_IN16*%
X239699999Y-203699999D03*
%TO.N,/L1_IN17*%
X239699999Y-204699999D03*
%TO.N,/L1_IN18*%
X239699999Y-205699999D03*
%TO.N,/L1_IN19*%
X239699999Y-206699999D03*
%TO.N,/L1_IN20*%
X239699999Y-207699999D03*
%TO.N,/L1_IN21*%
X239699999Y-208699999D03*
%TO.N,/L1_IN22*%
X239699999Y-209699999D03*
%TO.N,/L1_IN23*%
X239699999Y-210699999D03*
%TO.N,/L1_IN24*%
X239699999Y-211699999D03*
%TO.N,/L1_IN25*%
X239699999Y-212699999D03*
%TO.N,/L1_IN26*%
X239699999Y-213699999D03*
%TO.N,/L1_IN27*%
X239699999Y-214699999D03*
%TO.N,/L1_IN28*%
X239699999Y-215699999D03*
%TO.N,/L1_IN29*%
X239699999Y-216699999D03*
%TO.N,/L1_IN30*%
X239699999Y-217699999D03*
%TO.N,/L1_IN31*%
X239699999Y-218699999D03*
%TO.N,/L1_IN32*%
X239699999Y-219699999D03*
%TO.N,/L1_IN33*%
X239699999Y-220699999D03*
%TO.N,/L1_IN34*%
X239699999Y-221699999D03*
%TO.N,/L1_IN35*%
X239699999Y-222699999D03*
%TO.N,/L1_IN36*%
X239699999Y-223699999D03*
%TD*%
D12*
%TO.N,Net-(U3B-+)*%
X280578000Y-67636000D03*
X281094000Y-69686300D03*
%TO.N,Net-(C2-Pad2)*%
X283955000Y-72131800D03*
X287359000Y-69058400D03*
%TO.N,Net-(U7B-+)*%
X280678000Y-126336000D03*
X281194000Y-128386000D03*
%TO.N,Net-(C5-Pad2)*%
X287459000Y-127758000D03*
X284055000Y-130832000D03*
%TO.N,Net-(U11B-+)*%
X282237000Y-187723000D03*
X281722000Y-185672000D03*
%TO.N,Net-(C8-Pad2)*%
X285099000Y-190168000D03*
X288502000Y-187095000D03*
%TO.N,Net-(U15B-+)*%
X283429000Y-248111000D03*
X282913000Y-246061000D03*
%TO.N,Net-(C11-Pad2)*%
X286290000Y-250557000D03*
X289694000Y-247483000D03*
%TO.N,Net-(U19B-+)*%
X283794000Y-307086000D03*
X283278000Y-305036000D03*
%TO.N,Net-(C14-Pad2)*%
X286655000Y-309532000D03*
X290059000Y-306458000D03*
%TO.N,Net-(U23B-+)*%
X284164000Y-365225000D03*
X284679000Y-367275000D03*
%TO.N,Net-(C17-Pad2)*%
X290944000Y-366647000D03*
X287541000Y-369721000D03*
%TO.N,Net-(U27B-+)*%
X324178000Y-67236000D03*
X324694000Y-69286300D03*
%TO.N,Net-(C20-Pad2)*%
X327555000Y-71731800D03*
X330959000Y-68658400D03*
%TO.N,Net-(U31B-+)*%
X324944000Y-127350000D03*
X324429000Y-125300000D03*
%TO.N,Net-(C23-Pad2)*%
X331209000Y-126722000D03*
X327806000Y-129796000D03*
%TO.N,Net-(U36B-+)*%
X324429000Y-184900000D03*
X324944000Y-186950000D03*
%TO.N,Net-(C26-Pad2)*%
X331209000Y-186322000D03*
X327806000Y-189396000D03*
%TO.N,Net-(U40B-+)*%
X324909000Y-247575000D03*
X324394000Y-245525000D03*
%TO.N,Net-(C29-Pad2)*%
X331174000Y-246947000D03*
X327771000Y-250021000D03*
%TO.N,Net-(U44B-+)*%
X325394000Y-306986000D03*
X324878000Y-304936000D03*
%TO.N,Net-(C32-Pad2)*%
X331659000Y-306358000D03*
X328255000Y-309432000D03*
%TO.N,Net-(U48B-+)*%
X325480000Y-364664000D03*
X325995000Y-366714000D03*
%TO.N,Net-(C35-Pad2)*%
X332260000Y-366086000D03*
X328856000Y-369159000D03*
%TO.N,Net-(U51B-+)*%
X371844000Y-68850100D03*
X371329000Y-66799800D03*
%TO.N,Net-(C38-Pad2)*%
X378109000Y-68222200D03*
X374706000Y-71295600D03*
%TO.N,Net-(U55B-+)*%
X372743000Y-124763000D03*
X373259000Y-126813000D03*
%TO.N,Net-(C41-Pad2)*%
X379524000Y-126185000D03*
X376120000Y-129258000D03*
%TO.N,Net-(U59B-+)*%
X374181000Y-186152000D03*
X373666000Y-184102000D03*
%TO.N,Net-(C44-Pad2)*%
X380446000Y-185524000D03*
X377043000Y-188598000D03*
%TO.N,Net-(U63B-+)*%
X374629000Y-244900000D03*
X375144000Y-246950000D03*
%TO.N,Net-(C47-Pad2)*%
X381409000Y-246322000D03*
X378006000Y-249396000D03*
%TO.N,Net-(U67B-+)*%
X376594000Y-306286000D03*
X376078000Y-304236000D03*
%TO.N,Net-(C50-Pad2)*%
X379455000Y-308732000D03*
X382859000Y-305658000D03*
%TO.N,Net-(U71B-+)*%
X376579000Y-366619000D03*
X376064000Y-364569000D03*
%TO.N,Net-(C53-Pad2)*%
X382844000Y-365991000D03*
X379441000Y-369064000D03*
%TO.N,Net-(U75B-+)*%
X422299000Y-68504500D03*
X421783000Y-66454200D03*
%TO.N,Net-(C56-Pad2)*%
X425160000Y-70950000D03*
X428564000Y-67876600D03*
%TO.N,Net-(U79B-+)*%
X421929000Y-124600000D03*
X422444000Y-126650000D03*
%TO.N,Net-(C59-Pad2)*%
X425306000Y-129096000D03*
X428709000Y-126022000D03*
%TO.N,Net-(U83B-+)*%
X422583000Y-184254000D03*
X423099000Y-186305000D03*
%TO.N,Net-(C62-Pad2)*%
X429364000Y-185677000D03*
X425960000Y-188750000D03*
%TO.N,Net-(U87B-+)*%
X423189000Y-244400000D03*
X423704000Y-246450000D03*
%TO.N,Net-(C65-Pad2)*%
X426566000Y-248896000D03*
X429969000Y-245822000D03*
%TO.N,Net-(U91B-+)*%
X423164000Y-304125000D03*
X423679000Y-306175000D03*
%TO.N,Net-(C68-Pad2)*%
X426541000Y-308621000D03*
X429944000Y-305547000D03*
%TO.N,Net-(U95B-+)*%
X424144000Y-366450000D03*
X423629000Y-364400000D03*
%TO.N,Net-(C71-Pad2)*%
X430409000Y-365822000D03*
X427006000Y-368896000D03*
%TO.N,Net-(U99B-+)*%
X477894000Y-68286300D03*
X477378000Y-66236000D03*
%TO.N,Net-(C74-Pad2)*%
X484159000Y-67658400D03*
X480755000Y-70731800D03*
%TO.N,Net-(U103B-+)*%
X478078000Y-124436000D03*
X478594000Y-126486000D03*
%TO.N,Net-(C77-Pad2)*%
X481455000Y-128932000D03*
X484859000Y-125858000D03*
%TO.N,Net-(U107B-+)*%
X479499000Y-185604000D03*
X478983000Y-183553000D03*
%TO.N,Net-(C80-Pad2)*%
X482360000Y-188049000D03*
X485764000Y-184976000D03*
%TO.N,Net-(U111B-+)*%
X480886000Y-245638000D03*
X479881000Y-245752000D03*
X479366000Y-243702000D03*
%TO.N,Net-(C83-Pad2)*%
X486146000Y-245124000D03*
X482743000Y-248198000D03*
%TO.N,Net-(U115B-+)*%
X480495000Y-306314000D03*
X479980000Y-304264000D03*
%TO.N,Net-(U115C--)*%
X483700000Y-307200000D03*
%TO.N,Net-(C86-Pad2)*%
X486760000Y-305686000D03*
X483356000Y-308759000D03*
%TO.N,Net-(U119B-+)*%
X480513000Y-364149000D03*
X481029000Y-366199000D03*
%TO.N,Net-(C89-Pad2)*%
X487294000Y-365571000D03*
X483890000Y-368645000D03*
%TO.N,GND*%
X310573000Y-332476000D03*
X468693000Y-212209000D03*
X315189000Y-393319000D03*
X172150000Y-108250000D03*
X131200000Y-184150000D03*
X356514000Y-109163000D03*
X463073000Y-93776400D03*
X331700000Y-247800000D03*
X361628000Y-293515000D03*
X130730000Y-294350000D03*
X308309000Y-268186000D03*
X266128000Y-56915200D03*
X272479000Y-236455000D03*
X461299000Y-69572400D03*
X308165000Y-229925000D03*
X171230000Y-322750000D03*
X407333000Y-55733400D03*
X92200000Y-225880000D03*
X215750000Y-101050000D03*
X464678000Y-211094000D03*
X487000000Y-304800000D03*
X378300000Y-67400000D03*
X266373000Y-153876000D03*
X363381000Y-193433000D03*
X215650000Y-210450000D03*
X408739000Y-233679000D03*
X405699000Y-89115600D03*
X272993000Y-314367000D03*
X362458000Y-134093000D03*
X92600000Y-245980000D03*
X407549000Y-367736000D03*
X215950000Y-155750000D03*
X464434000Y-367485000D03*
X413194000Y-354794000D03*
X268084000Y-368561000D03*
X309251000Y-349064000D03*
X131025000Y-330145000D03*
X59025000Y-218845000D03*
X130630000Y-260150000D03*
X131130000Y-252550000D03*
X407400000Y-348800000D03*
D13*
X46600000Y-31200000D03*
D12*
X91940000Y-301940000D03*
D13*
X35700000Y-43500000D03*
D12*
X484400000Y-66800000D03*
X264449000Y-110736000D03*
X407109000Y-247736000D03*
X59525000Y-198027000D03*
X412904000Y-253730000D03*
X308349000Y-128636000D03*
X487500000Y-364700000D03*
X361778000Y-312451000D03*
X470223000Y-392804000D03*
X215325000Y-294245000D03*
X309395000Y-387325000D03*
X463895000Y-326925000D03*
X412879000Y-313455000D03*
X59225000Y-233745000D03*
X130000000Y-34100000D03*
X467788000Y-153092000D03*
X288000000Y-128600000D03*
D13*
X65600000Y-38200000D03*
D12*
X290300000Y-305600000D03*
D13*
X73800000Y-22300000D03*
D12*
X59325000Y-191827000D03*
X355244000Y-89461200D03*
X134700000Y-31700000D03*
X59323200Y-323510000D03*
X59525000Y-108545000D03*
X215290000Y-329850000D03*
X131610000Y-114850000D03*
X412874000Y-332780000D03*
X92925000Y-156345000D03*
X172350000Y-121050000D03*
X92340000Y-329640000D03*
X266829000Y-268722000D03*
X314139000Y-153955000D03*
X407079000Y-326786000D03*
X126600000Y-42100000D03*
X408883000Y-271940000D03*
X331900000Y-305500000D03*
X92300000Y-252480000D03*
X92200000Y-218280000D03*
X383400000Y-306500000D03*
X215525000Y-252145000D03*
X430200000Y-245000000D03*
X266228000Y-115615000D03*
X428900000Y-125200000D03*
X355249000Y-70136200D03*
X216150000Y-114550000D03*
D13*
X35600000Y-54100000D03*
D12*
X59125000Y-253045000D03*
X429600000Y-184800000D03*
X266273000Y-95176400D03*
X59225000Y-211127000D03*
X463773000Y-151976000D03*
X92400000Y-233180000D03*
X408888000Y-252615000D03*
X357586000Y-187438000D03*
X406504000Y-187591000D03*
X359999000Y-307572000D03*
X171150000Y-267450000D03*
X363231000Y-174496000D03*
X381000000Y-186400000D03*
D13*
X73800000Y-32400000D03*
D12*
X268463000Y-235340000D03*
X309400000Y-368000000D03*
X215225000Y-260045000D03*
X331500000Y-69500000D03*
X171550000Y-280950000D03*
X131210000Y-93750000D03*
X411644000Y-133930000D03*
D13*
X84700000Y-31000000D03*
D12*
X270244000Y-116730000D03*
X411639000Y-153255000D03*
X462904000Y-186890000D03*
X309878000Y-75451400D03*
X59323200Y-330110000D03*
X361763000Y-372784000D03*
D13*
X73700000Y-63500000D03*
D12*
X265493000Y-170072000D03*
X411498000Y-75784700D03*
X267194000Y-327697000D03*
X92226800Y-274780000D03*
X314588000Y-333592000D03*
X171150000Y-259850000D03*
X310123000Y-152840000D03*
X314139000Y-213555000D03*
X405849000Y-127936000D03*
X363376000Y-212758000D03*
X269858000Y-392765000D03*
X172125000Y-149945000D03*
X59000000Y-260640000D03*
X430200000Y-304700000D03*
X463281000Y-266363000D03*
X486400000Y-244300000D03*
X92725000Y-150145000D03*
X467644000Y-114830000D03*
X408858000Y-331665000D03*
X214990000Y-336350000D03*
X92340000Y-323040000D03*
X171030000Y-316550000D03*
X59525000Y-204627000D03*
X412899000Y-273055000D03*
X92820000Y-204250000D03*
X171730000Y-210850000D03*
X310128000Y-133515000D03*
X461294000Y-88897400D03*
X131030000Y-225950000D03*
X360894000Y-57194100D03*
X463286000Y-247038000D03*
X465529000Y-293543000D03*
X131625000Y-156245000D03*
X215625000Y-287745000D03*
X310428000Y-294215000D03*
X170930000Y-335850000D03*
X92525000Y-142845000D03*
X469076000Y-272358000D03*
X59725000Y-114745000D03*
X308314000Y-248861000D03*
X408278000Y-211795000D03*
X487800000Y-366400000D03*
X267049000Y-289436000D03*
X131410000Y-108650000D03*
X134600000Y-39500000D03*
X272628000Y-255392000D03*
X467093000Y-75566500D03*
X59325000Y-93645000D03*
X215625000Y-232845000D03*
X59425000Y-127845000D03*
X172350000Y-114450000D03*
X464429000Y-386810000D03*
X365793000Y-313567000D03*
X171630000Y-239450000D03*
X313744000Y-57630300D03*
X215550000Y-142250000D03*
X289100000Y-187900000D03*
X171925000Y-142645000D03*
X313994000Y-175294000D03*
X359365000Y-192317000D03*
X408283000Y-192470000D03*
X215750000Y-191150000D03*
X380700000Y-184700000D03*
X92140000Y-316840000D03*
X413339000Y-393055000D03*
X214890000Y-309750000D03*
X215950000Y-162350000D03*
X362453000Y-153418000D03*
X365629000Y-354963000D03*
X172030000Y-197750000D03*
X405844000Y-147261000D03*
X314109000Y-254855000D03*
X272988000Y-333692000D03*
X428800000Y-67000000D03*
X215825000Y-245645000D03*
X361614000Y-353848000D03*
X92925000Y-162945000D03*
D13*
X35300000Y-85900000D03*
D12*
X308200000Y-109700000D03*
D13*
X74100000Y-53400000D03*
D12*
X91940000Y-309540000D03*
D13*
X85000000Y-52000000D03*
D12*
X92126800Y-294080000D03*
X264349000Y-52036200D03*
X130830000Y-275050000D03*
X331400000Y-246100000D03*
X170830000Y-301650000D03*
X215550000Y-183850000D03*
X59650000Y-163050000D03*
X288800000Y-186200000D03*
X430900000Y-366700000D03*
X128600000Y-27700000D03*
X309979000Y-114579000D03*
X92825000Y-108645000D03*
X383100000Y-304800000D03*
X461994000Y-147097000D03*
X380100000Y-127000000D03*
X131430000Y-246050000D03*
X381600000Y-245500000D03*
X131030000Y-218350000D03*
X268973000Y-332576000D03*
X215950000Y-197350000D03*
X172325000Y-156145000D03*
X131030000Y-287850000D03*
X407478000Y-93994600D03*
X412729000Y-294519000D03*
X486300000Y-185800000D03*
X361773000Y-331776000D03*
X93025000Y-114845000D03*
X215750000Y-93450000D03*
X92625000Y-93745000D03*
X59400000Y-288340000D03*
X378600000Y-69100000D03*
X131210000Y-101350000D03*
X407479000Y-113879000D03*
X215290000Y-323250000D03*
X379800000Y-125300000D03*
X412149000Y-174649000D03*
X408133000Y-173533000D03*
X92426800Y-287580000D03*
X268613000Y-254276000D03*
D13*
X46200000Y-84500000D03*
D12*
X406499000Y-206916000D03*
X270393000Y-135667000D03*
X462754000Y-167953000D03*
X171230000Y-225950000D03*
X265638000Y-208334000D03*
X407084000Y-307461000D03*
X468931000Y-234096000D03*
X361758000Y-392109000D03*
X59400000Y-281740000D03*
X130725000Y-336645000D03*
X215950000Y-108350000D03*
X287892000Y-69922000D03*
X430600000Y-365000000D03*
X130630000Y-267750000D03*
X465060000Y-271242000D03*
X171330000Y-252550000D03*
D13*
X35400000Y-74600000D03*
D12*
X268978000Y-313251000D03*
X267199000Y-308372000D03*
X310123000Y-212440000D03*
X215625000Y-281145000D03*
X463778000Y-132651000D03*
X131325000Y-169345000D03*
X266684000Y-230461000D03*
D13*
X46300000Y-73200000D03*
D12*
X465679000Y-312479000D03*
X92620000Y-191450000D03*
X131310000Y-127950000D03*
X311029000Y-353943000D03*
X359984000Y-367905000D03*
X357028000Y-75015200D03*
X130825000Y-317345000D03*
D13*
X309700000Y-307300000D03*
D12*
X171630000Y-176650000D03*
X359216000Y-173381000D03*
X171830000Y-191550000D03*
X215650000Y-168850000D03*
X365779000Y-373899000D03*
X365644000Y-294630000D03*
X360328000Y-253115000D03*
X131225000Y-142745000D03*
X215950000Y-203950000D03*
X215750000Y-149550000D03*
D13*
X54700000Y-39600000D03*
D12*
X411349000Y-56848500D03*
X215550000Y-134650000D03*
X59023200Y-336610000D03*
X362309000Y-115157000D03*
X92600000Y-239380000D03*
X268608000Y-273601000D03*
X331400000Y-125900000D03*
X131200000Y-176550000D03*
X272623000Y-274717000D03*
X171950000Y-93350000D03*
X469545000Y-294658000D03*
X59123200Y-317310000D03*
X356879000Y-56079000D03*
X484700000Y-68500000D03*
X464533000Y-172832000D03*
X358443000Y-132978000D03*
X215425000Y-225545000D03*
X468549000Y-173948000D03*
X130625000Y-302445000D03*
X465674000Y-331804000D03*
X287587000Y-68194800D03*
X470228000Y-373479000D03*
X407623000Y-152140000D03*
X364194000Y-235294000D03*
X309944000Y-234804000D03*
X215550000Y-176250000D03*
X92820000Y-197650000D03*
X131230000Y-233250000D03*
X466213000Y-372364000D03*
X131430000Y-239450000D03*
X360179000Y-234179000D03*
X358400000Y-229300000D03*
X360323000Y-272440000D03*
X331700000Y-127600000D03*
X313959000Y-235919000D03*
X463137000Y-228102000D03*
X308649000Y-289336000D03*
X463078000Y-74451400D03*
X412298000Y-193585000D03*
X58923200Y-310010000D03*
X271437000Y-195003000D03*
X273729000Y-355619000D03*
X309979000Y-174179000D03*
X464916000Y-232981000D03*
X291500000Y-367500000D03*
D13*
X35400000Y-64100000D03*
D12*
X59125000Y-176927000D03*
X407628000Y-132815000D03*
X290200000Y-248300000D03*
X381900000Y-247200000D03*
X265643000Y-189009000D03*
X466944000Y-56630300D03*
X469081000Y-253033000D03*
D13*
X84800000Y-41000000D03*
D12*
X269863000Y-373440000D03*
X315045000Y-355058000D03*
X264599000Y-129672000D03*
X310128000Y-193115000D03*
X267421000Y-193888000D03*
X92420000Y-184150000D03*
X358293000Y-114042000D03*
X464284000Y-348549000D03*
X92026800Y-259880000D03*
X462928000Y-55515200D03*
X271432000Y-214328000D03*
X93025000Y-121445000D03*
X170830000Y-309250000D03*
X267416000Y-213213000D03*
X461149000Y-50636200D03*
X332200000Y-307200000D03*
X59325000Y-101245000D03*
X470079000Y-354543000D03*
X308344000Y-147961000D03*
D13*
X307855700Y-327600000D03*
D12*
X171350000Y-274750000D03*
X313888000Y-95891500D03*
X267935000Y-349625000D03*
X361044000Y-76130300D03*
X172025000Y-169245000D03*
X171230000Y-329350000D03*
X408863000Y-312340000D03*
X331200000Y-67800000D03*
X364344000Y-254230000D03*
X273879000Y-374555000D03*
X59725000Y-121345000D03*
X408714000Y-293404000D03*
X59100000Y-294840000D03*
X92026800Y-267480000D03*
X413344000Y-373730000D03*
X311174000Y-392204000D03*
X466208000Y-391689000D03*
X405554000Y-50854400D03*
X409179000Y-353679000D03*
X359994000Y-326897000D03*
X314144000Y-134630000D03*
X270388000Y-154992000D03*
X59350000Y-169550000D03*
X379384000Y-147589000D03*
X59250000Y-142950000D03*
X59425000Y-246545000D03*
X429900000Y-186500000D03*
X331800000Y-187200000D03*
X314593000Y-314267000D03*
X429100000Y-68700000D03*
X92625000Y-101345000D03*
X308200000Y-169300000D03*
X215090000Y-317050000D03*
X314104000Y-274180000D03*
X289900000Y-246600000D03*
X171630000Y-184250000D03*
X308094000Y-89897400D03*
X462899000Y-206215000D03*
X59025000Y-226445000D03*
X268079000Y-387886000D03*
X131025000Y-323545000D03*
X59125000Y-184527000D03*
X59450000Y-150250000D03*
X268828000Y-294315000D03*
X131600000Y-204250000D03*
X271288000Y-176067000D03*
X364339000Y-273555000D03*
X171250000Y-294050000D03*
X406935000Y-288525000D03*
X291200000Y-365800000D03*
D13*
X46500000Y-52700000D03*
D12*
X215225000Y-267645000D03*
X92420000Y-176550000D03*
X131425000Y-150045000D03*
X359360000Y-211642000D03*
X379389000Y-128264000D03*
X270293000Y-76966500D03*
X264494000Y-90297400D03*
X467793000Y-133767000D03*
X131400000Y-191450000D03*
X485400000Y-126700000D03*
X215425000Y-274945000D03*
X466063000Y-353428000D03*
X409328000Y-372615000D03*
X358438000Y-152303000D03*
X356664000Y-128099000D03*
X355100000Y-51200000D03*
X269714000Y-354504000D03*
X411494000Y-114994000D03*
X266834000Y-249397000D03*
X266278000Y-75851400D03*
X92525000Y-135245000D03*
X365774000Y-393224000D03*
X487300000Y-306500000D03*
X461849000Y-108836000D03*
X131225000Y-135145000D03*
X407104000Y-267061000D03*
X215825000Y-239045000D03*
X310578000Y-313151000D03*
X412293000Y-212910000D03*
X383100000Y-365100000D03*
X59650000Y-156450000D03*
X313994000Y-115694000D03*
X309728000Y-56515200D03*
X290600000Y-307300000D03*
X216150000Y-121150000D03*
X307949000Y-51636200D03*
X405700000Y-109000000D03*
X430500000Y-306400000D03*
X273874000Y-393880000D03*
X469689000Y-332919000D03*
X131625000Y-162845000D03*
X172325000Y-162745000D03*
X131600000Y-197650000D03*
X313893000Y-76566500D03*
X331500000Y-185500000D03*
X429200000Y-126900000D03*
D13*
X35400000Y-21400000D03*
D12*
X356659000Y-147424000D03*
D13*
X84700000Y-20900000D03*
D12*
X358549000Y-248236000D03*
X272844000Y-295430000D03*
X311179000Y-372879000D03*
X468698000Y-192884000D03*
X310088000Y-273065000D03*
X407544000Y-387061000D03*
X463900000Y-307600000D03*
X310093000Y-253740000D03*
X409323000Y-391940000D03*
X287700000Y-126900000D03*
X464683000Y-191769000D03*
D13*
X46600000Y-42100000D03*
D12*
X467088000Y-94891500D03*
X171925000Y-135045000D03*
X58923200Y-302410000D03*
X130625000Y-310045000D03*
X172030000Y-204350000D03*
X215425000Y-217945000D03*
X171950000Y-100950000D03*
X131610000Y-121450000D03*
X463751000Y-288664000D03*
X59425000Y-239945000D03*
X264594000Y-148997000D03*
X267272000Y-174951000D03*
X214890000Y-302150000D03*
X411493000Y-95109700D03*
X314444000Y-295330000D03*
X469694000Y-313594000D03*
X314144000Y-194230000D03*
X359979000Y-387230000D03*
X407483000Y-74669600D03*
X332800000Y-366900000D03*
X357437000Y-168502000D03*
X270144000Y-58030300D03*
D13*
X46300000Y-62700000D03*
D12*
X357023000Y-94340200D03*
X134600000Y-41500000D03*
X359849000Y-288636000D03*
X309873000Y-94776400D03*
X92625000Y-169445000D03*
X59250000Y-135350000D03*
X406354000Y-168654000D03*
X171550000Y-287550000D03*
X266378000Y-134551000D03*
X84600000Y-62100000D03*
X486000000Y-184100000D03*
X463628000Y-113715000D03*
X122100000Y-30700000D03*
X92426800Y-280980000D03*
X405704000Y-69790600D03*
X75200000Y-42900000D03*
X357581000Y-206763000D03*
X486700000Y-246000000D03*
X308349000Y-188236000D03*
X358544000Y-267561000D03*
X361039000Y-95455300D03*
X308344000Y-207561000D03*
X131300000Y-210750000D03*
X430500000Y-246700000D03*
X270288000Y-96291500D03*
X171630000Y-246050000D03*
X485100000Y-125000000D03*
X365788000Y-332892000D03*
X308099000Y-70572400D03*
X131030000Y-281250000D03*
X461999000Y-127772000D03*
X359835000Y-348969000D03*
X465065000Y-251917000D03*
X59000000Y-268240000D03*
X264499000Y-70972400D03*
X59200000Y-275540000D03*
X92725000Y-127945000D03*
X332500000Y-365200000D03*
X92520000Y-210750000D03*
X172050000Y-127550000D03*
X171430000Y-233250000D03*
X412754000Y-234794000D03*
D13*
X46300000Y-20000000D03*
D12*
X383400000Y-366800000D03*
X215850000Y-127650000D03*
X117500000Y-37400000D03*
D13*
X35700000Y-32600000D03*
D12*
X406960000Y-228800000D03*
X315194000Y-373994000D03*
X92040000Y-336140000D03*
X171230000Y-218350000D03*
D13*
%TO.N,/Neuron6_1/IN1*%
X306441100Y-116352700D03*
X307831500Y-232188300D03*
X308885400Y-351356200D03*
X307549500Y-172915900D03*
X307752100Y-292436000D03*
%TO.N,/Neuron6_1/IN2*%
X309073900Y-242511000D03*
X312042600Y-178940500D03*
X309998400Y-299092000D03*
X312173400Y-119246500D03*
X309766500Y-61392000D03*
X313985000Y-358642500D03*
%TO.N,/Neuron6_1/IN3*%
X307828400Y-311372000D03*
X308400000Y-371100000D03*
X308005100Y-74491400D03*
X308440200Y-252799300D03*
X308429400Y-130894500D03*
X308429000Y-190529700D03*
%TO.N,/Neuron6_1/IN4*%
X311900000Y-82000000D03*
X311749000Y-197779600D03*
X311600300Y-317887900D03*
X310906000Y-258617000D03*
X313828400Y-377539900D03*
X311991700Y-138407600D03*
X305300000Y-121500000D03*
%TO.N,/Neuron6_1/IN5*%
X306011800Y-210594000D03*
X307400000Y-338800000D03*
X307794000Y-330697000D03*
X306011800Y-271286000D03*
X307621700Y-150640400D03*
X307497000Y-93546300D03*
%TO.N,/Neuron6_1/IN6*%
X312695800Y-217237400D03*
X311991700Y-278458000D03*
X315100000Y-337100000D03*
X312100000Y-99421900D03*
X310936000Y-157717000D03*
%TO.N,/Neuron6_1/OUT*%
X357839200Y-292430000D03*
X351249000Y-54300000D03*
X357837600Y-233007300D03*
X355605800Y-112263000D03*
X359906900Y-348138900D03*
%TO.N,/Neuron6_10/IN2*%
X361587900Y-238866300D03*
X359717900Y-61008500D03*
X364000200Y-358864300D03*
X361705900Y-298392000D03*
X361809900Y-118932000D03*
X361824200Y-178658000D03*
%TO.N,/Neuron6_10/IN3*%
X359681800Y-370196800D03*
X359349000Y-310137300D03*
X354249000Y-73236200D03*
X358629400Y-252153800D03*
X353270500Y-187222500D03*
X355903000Y-130976500D03*
%TO.N,/Neuron6_10/IN4*%
X363817500Y-377779100D03*
X359200000Y-80000000D03*
X364153500Y-258000000D03*
X364738200Y-318329500D03*
X355750100Y-252602600D03*
X361536200Y-196991500D03*
X359457600Y-137707000D03*
%TO.N,/Neuron6_10/IN5*%
X356930400Y-304292000D03*
X359760800Y-389522500D03*
X358398400Y-330354000D03*
X329187100Y-304292000D03*
X356324500Y-210959000D03*
X357276800Y-270474000D03*
X356560300Y-146601200D03*
X353516200Y-92830000D03*
%TO.N,/Neuron6_10/IN6*%
X355159300Y-214586000D03*
X359722900Y-98993100D03*
X348475200Y-396826100D03*
X358035000Y-336653000D03*
X359435400Y-157060400D03*
X361136000Y-277317000D03*
X343485300Y-349914700D03*
%TO.N,/Neuron6_13/IN1*%
X405240000Y-112821100D03*
X406624200Y-351584200D03*
X405936200Y-291626200D03*
X405277400Y-171589300D03*
X406205200Y-231605200D03*
X405634400Y-54793400D03*
%TO.N,/Neuron6_13/IN2*%
X409935200Y-298157900D03*
X409663400Y-238668000D03*
X409547400Y-178195500D03*
X409184400Y-60391900D03*
X411611100Y-358556000D03*
X409673400Y-118531000D03*
%TO.N,/Neuron6_13/IN3*%
X405245100Y-310394000D03*
X404244300Y-130754000D03*
X404546600Y-190634000D03*
X405498600Y-73736800D03*
X407385600Y-370028800D03*
X405245100Y-250514000D03*
%TO.N,/Neuron6_10/OUT*%
X411073100Y-316991000D03*
X407670100Y-198618000D03*
X409663400Y-257492000D03*
X410141000Y-377492000D03*
X409000000Y-79315100D03*
X408808100Y-137538400D03*
%TO.N,/Neuron6_11/OUT*%
X405047900Y-92756500D03*
X405694100Y-329151100D03*
X380426000Y-304172000D03*
X405451500Y-270395700D03*
X403683500Y-150714000D03*
X404916300Y-209836000D03*
X406779900Y-390046900D03*
X405658800Y-304172000D03*
%TO.N,/Neuron6_12/OUT*%
X410533000Y-156924200D03*
X409757800Y-216459200D03*
X407900000Y-335000000D03*
X409708000Y-276805000D03*
X402125300Y-396657100D03*
X411020500Y-106889900D03*
X394948200Y-349551800D03*
%TO.N,/Neuron6_13/OUT*%
X463084633Y-172193672D03*
X463060800Y-291259200D03*
X461800000Y-113000000D03*
X462140200Y-231202000D03*
X462947900Y-350772900D03*
X462955500Y-169100000D03*
%TO.N,/Neuron6_14/OUT*%
X465754100Y-177570800D03*
X465046500Y-118376700D03*
X465475800Y-358305000D03*
X465165700Y-298420000D03*
X466137200Y-237716500D03*
X465475800Y-60168900D03*
%TO.N,/Neuron6_15/OUT*%
X463119300Y-310571800D03*
X459201000Y-186936900D03*
X463859700Y-370010200D03*
X461186000Y-130872000D03*
X462373900Y-250138000D03*
X460537000Y-72780300D03*
%TO.N,/Neuron6_16/OUT*%
X462007400Y-316382000D03*
X459495900Y-250514000D03*
X464449500Y-377229000D03*
X465716700Y-196514100D03*
X464860400Y-79122000D03*
X463798200Y-135292400D03*
%TO.N,/Neuron6_17/OUT*%
X461168000Y-150197000D03*
X460007100Y-91997400D03*
X462990400Y-205378500D03*
X444900400Y-285799600D03*
X453845000Y-330025000D03*
X463361400Y-270277400D03*
X461493600Y-331400000D03*
X464400000Y-388600000D03*
%TO.N,/Neuron6_18/OUT*%
X466279100Y-98907200D03*
X467843400Y-216582000D03*
X467800000Y-336600000D03*
X465876300Y-156628100D03*
X469300000Y-273400000D03*
D12*
%TO.N,-5V*%
X470076000Y-353834000D03*
X412752000Y-234085000D03*
X271435000Y-194294000D03*
X272841000Y-294722000D03*
X315043000Y-354349000D03*
X412727000Y-293810000D03*
X271430000Y-213619000D03*
X360892000Y-56485400D03*
X314141000Y-193522000D03*
X364341000Y-253522000D03*
X314106000Y-254147000D03*
X313886000Y-95182800D03*
X413336000Y-392347000D03*
X413341000Y-373022000D03*
X411491000Y-94401000D03*
X468546000Y-173239000D03*
X272476000Y-235747000D03*
X466941000Y-55921600D03*
X315192000Y-373285000D03*
X363229000Y-173788000D03*
X270386000Y-154283000D03*
X469687000Y-332210000D03*
X467786000Y-152383000D03*
X273727000Y-354910000D03*
X470226000Y-372771000D03*
X134600000Y-42500000D03*
X412871000Y-332072000D03*
X362451000Y-152709000D03*
X273871000Y-393172000D03*
X363378000Y-192724000D03*
X365791000Y-312858000D03*
X365641000Y-293922000D03*
X314591000Y-313558000D03*
X411641000Y-133222000D03*
X314141000Y-133922000D03*
X412296000Y-192876000D03*
X412901000Y-253022000D03*
X469543000Y-293949000D03*
X361036000Y-94746600D03*
X468929000Y-233388000D03*
X314136000Y-153247000D03*
X412876000Y-312747000D03*
X313741000Y-56921600D03*
X413192000Y-354085000D03*
X314101000Y-273472000D03*
X313957000Y-235210000D03*
X467791000Y-133058000D03*
X270291000Y-76257800D03*
X362306000Y-114448000D03*
X271285000Y-175358000D03*
X365627000Y-354254000D03*
X314441000Y-294622000D03*
X469073000Y-271649000D03*
X313992000Y-174585000D03*
X270241000Y-116022000D03*
X470221000Y-392096000D03*
X469078000Y-252324000D03*
X314586000Y-332883000D03*
X270286000Y-95582800D03*
X313992000Y-114985000D03*
X272626000Y-254683000D03*
X469692000Y-312885000D03*
X467641000Y-114122000D03*
X364336000Y-272847000D03*
X272986000Y-332983000D03*
X412146000Y-173940000D03*
X361041000Y-75421600D03*
X365786000Y-332183000D03*
X362456000Y-133384000D03*
X364192000Y-234585000D03*
X273876000Y-373847000D03*
X467091000Y-74857800D03*
X411346000Y-56139800D03*
X467086000Y-94182800D03*
X412896000Y-272347000D03*
X411636000Y-152547000D03*
X468691000Y-211500000D03*
X314136000Y-212847000D03*
X315187000Y-392610000D03*
X412291000Y-212201000D03*
X272991000Y-313658000D03*
X272621000Y-274008000D03*
X270141000Y-57321600D03*
X411496000Y-75076000D03*
X270391000Y-134958000D03*
X313891000Y-75857800D03*
X365771000Y-392516000D03*
X363373000Y-212049000D03*
X411492000Y-114285000D03*
X468696000Y-192175000D03*
X365776000Y-373190000D03*
%TO.N,+5V*%
X60400000Y-270940000D03*
X374604000Y-185728000D03*
X92200000Y-224680000D03*
X171950000Y-99750000D03*
X132900000Y-242100000D03*
X93800000Y-290100000D03*
X61100000Y-159100000D03*
X61125000Y-117445000D03*
X93440000Y-338740000D03*
X93800000Y-332200000D03*
X59100000Y-293540000D03*
X359358000Y-272923000D03*
X132500000Y-283900000D03*
X94500000Y-117500000D03*
X407312000Y-212277000D03*
X93340000Y-304640000D03*
X216900000Y-277400000D03*
X60525000Y-187227000D03*
X171330000Y-251250000D03*
X406663000Y-133298000D03*
X481452000Y-365774000D03*
X359214000Y-234662000D03*
X60800000Y-194300000D03*
X217050000Y-171450000D03*
X92625000Y-92545000D03*
X131030000Y-286650000D03*
X310209000Y-392687000D03*
D13*
X46400000Y-46400000D03*
D12*
X215525000Y-250845000D03*
X216700000Y-325900000D03*
X422867000Y-126225000D03*
X462663000Y-114198000D03*
X131625000Y-155045000D03*
X132800000Y-248600000D03*
X132500000Y-326200000D03*
X60700000Y-278000000D03*
X173325000Y-145345000D03*
X132710000Y-130550000D03*
X173800000Y-123700000D03*
X217400000Y-110900000D03*
X215625000Y-286545000D03*
X131030000Y-224750000D03*
X59650000Y-155250000D03*
X59200000Y-274240000D03*
X356058000Y-94822800D03*
X94398100Y-158993000D03*
X284217000Y-306662000D03*
X171730000Y-209550000D03*
X215425000Y-216745000D03*
X60800000Y-326200000D03*
X360807000Y-332259000D03*
X173000000Y-290100000D03*
X92820000Y-196450000D03*
X215550000Y-141050000D03*
X216925000Y-254745000D03*
X215625000Y-231545000D03*
X480304000Y-245328000D03*
X171230000Y-328150000D03*
X215750000Y-189850000D03*
X424567000Y-366025000D03*
X464709000Y-332287000D03*
X171230000Y-224750000D03*
X172900000Y-235700000D03*
X171230000Y-321550000D03*
X58923200Y-308810000D03*
X172550000Y-270150000D03*
X268893000Y-393248000D03*
X173300000Y-194000000D03*
X60825000Y-130445000D03*
X92426800Y-279780000D03*
X59350000Y-168250000D03*
X216950000Y-178950000D03*
X61000000Y-200700000D03*
X360812000Y-312934000D03*
X171150000Y-258650000D03*
X173000000Y-283600000D03*
X479017000Y-126062000D03*
X130625000Y-301245000D03*
X59123200Y-316010000D03*
X170930000Y-334550000D03*
X58923200Y-301210000D03*
X377017000Y-305862000D03*
X59323200Y-328910000D03*
X407898000Y-312823000D03*
X132725000Y-171945000D03*
X92420000Y-175350000D03*
X217000000Y-283800000D03*
X217300000Y-164900000D03*
X215290000Y-328650000D03*
X60400000Y-263340000D03*
X131225000Y-141545000D03*
X215825000Y-237845000D03*
X173130000Y-213450000D03*
X92426800Y-286380000D03*
X355914000Y-56561600D03*
X217300000Y-248200000D03*
X309163000Y-193598000D03*
X267647000Y-254759000D03*
X92525000Y-134045000D03*
X131600000Y-196450000D03*
X217050000Y-213050000D03*
X132300000Y-319800000D03*
X359363000Y-253598000D03*
X131610000Y-113650000D03*
X94000000Y-248500000D03*
X61125000Y-123945000D03*
X131025000Y-328945000D03*
X406658000Y-152623000D03*
X132430000Y-228650000D03*
X59325000Y-92445000D03*
X172325000Y-154945000D03*
X465247000Y-372847000D03*
X465242000Y-392172000D03*
X92625000Y-168145000D03*
X133000000Y-206800000D03*
X173325000Y-137745000D03*
X94300000Y-111100000D03*
X173700000Y-152400000D03*
X171150000Y-266250000D03*
X60650000Y-138050000D03*
X171630000Y-244850000D03*
D13*
X46500000Y-24900000D03*
D12*
X92925000Y-155145000D03*
D13*
X46100000Y-78200000D03*
D12*
X60323200Y-312710000D03*
X92525000Y-141645000D03*
X172630000Y-228650000D03*
X94100000Y-242000000D03*
X217400000Y-206500000D03*
X171350000Y-273450000D03*
X132025000Y-305145000D03*
X357328000Y-114524000D03*
X130625000Y-308845000D03*
X215225000Y-266445000D03*
X172325000Y-161545000D03*
X266456000Y-194370000D03*
X93925000Y-137945000D03*
X94100000Y-193900000D03*
X217150000Y-96150000D03*
X59225000Y-209827000D03*
X60423200Y-339210000D03*
X172030000Y-196550000D03*
X59023200Y-335310000D03*
X132030000Y-262850000D03*
X93820000Y-186850000D03*
X309163000Y-133998000D03*
X406514000Y-114362000D03*
X93800000Y-325700000D03*
X172650000Y-296650000D03*
X131610000Y-120250000D03*
X59725000Y-120145000D03*
X94300000Y-200300000D03*
X92925000Y-161745000D03*
X309158000Y-212923000D03*
X308912000Y-75934000D03*
X132125000Y-339245000D03*
X424127000Y-246025000D03*
X462107000Y-94259000D03*
X132800000Y-193900000D03*
X133000000Y-165400000D03*
X94500000Y-124000000D03*
X91940000Y-300740000D03*
X60925000Y-111045000D03*
X92820000Y-203050000D03*
X131300000Y-209450000D03*
X93340000Y-312240000D03*
X171630000Y-175450000D03*
X215750000Y-92250000D03*
X132300000Y-277500000D03*
X217150000Y-103750000D03*
X308763000Y-56997800D03*
X132500000Y-332700000D03*
X309128000Y-254223000D03*
X60500000Y-297440000D03*
D13*
X84500000Y-55800000D03*
D12*
X424102000Y-305750000D03*
X131230000Y-231950000D03*
X132900000Y-152500000D03*
X59000000Y-259440000D03*
X358251000Y-173864000D03*
X93600000Y-220980000D03*
X463951000Y-233464000D03*
X173800000Y-165300000D03*
X60725000Y-103945000D03*
X215850000Y-126350000D03*
X130825000Y-316045000D03*
X215225000Y-258845000D03*
X478317000Y-67861600D03*
X358400000Y-192800000D03*
X92140000Y-315540000D03*
X356063000Y-75497800D03*
X132600000Y-179250000D03*
X92725000Y-148845000D03*
X214890000Y-308550000D03*
X93700000Y-255080000D03*
X172150000Y-106950000D03*
X94025000Y-96445000D03*
X215825000Y-244445000D03*
X60900000Y-152700000D03*
X131210000Y-92550000D03*
X92026800Y-266280000D03*
X215950000Y-107050000D03*
X358395000Y-212125000D03*
X325332000Y-247150000D03*
X60425000Y-229145000D03*
X171950000Y-92150000D03*
X130730000Y-293050000D03*
D13*
X84900000Y-45700000D03*
D12*
X216950000Y-137350000D03*
X360663000Y-293998000D03*
X215325000Y-292945000D03*
X132700000Y-213350000D03*
X461963000Y-55997800D03*
X479922000Y-185179000D03*
X60525000Y-255645000D03*
X92300000Y-251180000D03*
X407923000Y-253098000D03*
X131200000Y-175350000D03*
X216825000Y-220645000D03*
X173030000Y-186950000D03*
X130830000Y-273750000D03*
X406368000Y-56216000D03*
X92200000Y-217080000D03*
X131030000Y-280050000D03*
X215425000Y-224345000D03*
X132130000Y-296950000D03*
X59323200Y-322310000D03*
X93800000Y-277200000D03*
X407168000Y-174016000D03*
D13*
X84600000Y-14600000D03*
D12*
X60625000Y-213727000D03*
X377002000Y-366194000D03*
X170830000Y-308050000D03*
X131410000Y-107350000D03*
X281517000Y-69261600D03*
X59325000Y-190527000D03*
X267863000Y-294798000D03*
X173700000Y-110700000D03*
X93920000Y-213350000D03*
X326418000Y-366289000D03*
X265407000Y-154359000D03*
X132610000Y-96450000D03*
X133000000Y-117500000D03*
X92600000Y-244780000D03*
X173030000Y-179350000D03*
X59250000Y-141750000D03*
X92520000Y-209450000D03*
X59325000Y-100045000D03*
D13*
X65500000Y-31900000D03*
D12*
X325367000Y-186525000D03*
X59525000Y-203427000D03*
X94400000Y-165500000D03*
X215290000Y-322050000D03*
X215550000Y-182650000D03*
X131030000Y-217150000D03*
X360793000Y-392592000D03*
X215950000Y-196150000D03*
X173000000Y-242200000D03*
X93025000Y-113645000D03*
X91940000Y-308340000D03*
D13*
X84700000Y-35200000D03*
D12*
X172600000Y-325400000D03*
X215950000Y-154550000D03*
X325117000Y-68861600D03*
X92620000Y-190150000D03*
X172330000Y-338450000D03*
X92126800Y-292780000D03*
X132500000Y-290400000D03*
D13*
X84600000Y-24700000D03*
D12*
X172125000Y-148645000D03*
X266307000Y-175434000D03*
X59400000Y-280540000D03*
X375567000Y-246525000D03*
X93700000Y-319300000D03*
X357477000Y-133461000D03*
X216950000Y-186550000D03*
X131025000Y-322345000D03*
X92600000Y-238180000D03*
X133100000Y-124000000D03*
X462812000Y-133134000D03*
X309014000Y-174662000D03*
X92040000Y-334840000D03*
D13*
X173000000Y-319046700D03*
D12*
X172025000Y-167945000D03*
X214990000Y-335050000D03*
X464100000Y-252400000D03*
X408363000Y-373098000D03*
D13*
X46200000Y-66900000D03*
D12*
X172230000Y-311950000D03*
X282660000Y-187298000D03*
X172630000Y-221050000D03*
X408214000Y-354162000D03*
X173350000Y-103650000D03*
X309607000Y-332959000D03*
X408358000Y-392423000D03*
X131430000Y-244850000D03*
D13*
X46500000Y-35800000D03*
D12*
X265163000Y-57397800D03*
X215425000Y-273645000D03*
X60800000Y-249100000D03*
X92226800Y-273480000D03*
X94200000Y-206800000D03*
X171830000Y-190250000D03*
X407918000Y-272423000D03*
X59025000Y-225245000D03*
X93426800Y-270180000D03*
X310214000Y-373362000D03*
X172050000Y-126250000D03*
X171630000Y-238250000D03*
X132025000Y-312745000D03*
X325367000Y-126925000D03*
X216625000Y-270345000D03*
X61200000Y-165600000D03*
X216700000Y-332400000D03*
X360798000Y-373267000D03*
X92400000Y-231880000D03*
X60425000Y-221545000D03*
X309014000Y-115062000D03*
X60900000Y-207200000D03*
X171430000Y-231950000D03*
X133000000Y-158900000D03*
X265312000Y-76334000D03*
X132530000Y-255150000D03*
X60725000Y-96345000D03*
X93426800Y-262580000D03*
X93820000Y-179250000D03*
X216290000Y-304850000D03*
X60700000Y-332700000D03*
X60525000Y-179627000D03*
X217500000Y-123700000D03*
X172350000Y-113250000D03*
X171550000Y-286350000D03*
X217200000Y-193600000D03*
X216600000Y-319500000D03*
X171630000Y-183050000D03*
X464714000Y-312962000D03*
X173500000Y-206900000D03*
X268749000Y-354987000D03*
X59025000Y-217645000D03*
X281617000Y-127962000D03*
X131325000Y-168045000D03*
X216150000Y-119950000D03*
X217400000Y-200000000D03*
X59450000Y-148950000D03*
X171250000Y-292750000D03*
X215550000Y-175050000D03*
X215950000Y-161150000D03*
X215950000Y-202750000D03*
X214890000Y-300950000D03*
X92340000Y-321840000D03*
X407317000Y-192952000D03*
X172800000Y-277200000D03*
X92026800Y-258680000D03*
X216150000Y-113350000D03*
X132700000Y-235800000D03*
X92625000Y-100145000D03*
X173450000Y-130150000D03*
X171925000Y-141445000D03*
X59000000Y-267040000D03*
X132600000Y-186850000D03*
X93900000Y-283600000D03*
X268898000Y-373923000D03*
X60650000Y-145650000D03*
X131130000Y-251250000D03*
X171925000Y-133845000D03*
X422722000Y-68079800D03*
X283852000Y-247687000D03*
X216825000Y-228245000D03*
D13*
X46200000Y-13700000D03*
D12*
X132430000Y-221050000D03*
X215650000Y-167550000D03*
X59425000Y-238745000D03*
X93925000Y-145545000D03*
X132610000Y-104050000D03*
X285102000Y-366850000D03*
X406517000Y-75152200D03*
X130630000Y-266550000D03*
X59425000Y-245345000D03*
X59250000Y-134150000D03*
X172700000Y-331900000D03*
X372267000Y-68425400D03*
X265412000Y-135034000D03*
X131310000Y-126650000D03*
X407893000Y-332148000D03*
X463568000Y-173315000D03*
X309612000Y-313634000D03*
X173000000Y-248700000D03*
X59400000Y-287140000D03*
X172030000Y-203150000D03*
X309123000Y-273548000D03*
X131430000Y-238250000D03*
X423522000Y-185880000D03*
X216390000Y-338950000D03*
X265263000Y-116098000D03*
X131400000Y-190150000D03*
X308979000Y-235287000D03*
X267498000Y-235823000D03*
X310064000Y-354425000D03*
X325817000Y-306562000D03*
X217300000Y-241700000D03*
X268012000Y-313734000D03*
X357472000Y-152786000D03*
X373682000Y-126388000D03*
X463712000Y-211576000D03*
X407749000Y-293887000D03*
X216950000Y-144950000D03*
X216625000Y-262745000D03*
X59125000Y-175727000D03*
X94025000Y-104045000D03*
X92825000Y-107345000D03*
X60800000Y-242600000D03*
X464095000Y-271725000D03*
X215090000Y-315750000D03*
X60323200Y-305110000D03*
X173350000Y-96050000D03*
X60800000Y-290900000D03*
X60800000Y-284400000D03*
X134596000Y-40496100D03*
X131425000Y-148745000D03*
X59525000Y-196827000D03*
X172730000Y-255150000D03*
X465098000Y-353911000D03*
X132625000Y-137845000D03*
X406512000Y-94477200D03*
X172230000Y-304350000D03*
X132625000Y-145445000D03*
X463717000Y-192251000D03*
X131600000Y-203050000D03*
X131225000Y-133945000D03*
X464564000Y-294025000D03*
X215550000Y-133450000D03*
X215650000Y-209150000D03*
X130725000Y-335345000D03*
X217600000Y-117200000D03*
X171230000Y-217150000D03*
X462112000Y-74934000D03*
X130630000Y-258950000D03*
X462807000Y-152459000D03*
X173425000Y-171845000D03*
X265307000Y-95659000D03*
X407774000Y-234162000D03*
X59425000Y-126545000D03*
X171030000Y-315250000D03*
X216290000Y-312450000D03*
X268007000Y-333059000D03*
X173800000Y-158800000D03*
X60700000Y-236200000D03*
X173800000Y-117200000D03*
X266451000Y-213695000D03*
X131200000Y-182950000D03*
X309463000Y-294698000D03*
X217000000Y-235400000D03*
X59725000Y-113545000D03*
X132030000Y-270450000D03*
X59125000Y-183327000D03*
X93900000Y-235600000D03*
X217300000Y-158400000D03*
X173600000Y-200400000D03*
X59525000Y-107245000D03*
D13*
X46200000Y-56400000D03*
D12*
X172350000Y-119850000D03*
X170830000Y-300450000D03*
X60600000Y-319800000D03*
X92340000Y-328440000D03*
X215625000Y-279945000D03*
X59125000Y-251745000D03*
X132800000Y-111200000D03*
X217250000Y-130250000D03*
X94200000Y-152600000D03*
X59225000Y-232445000D03*
X59650000Y-161850000D03*
X60750000Y-172150000D03*
X217200000Y-152000000D03*
X267642000Y-274084000D03*
X172550000Y-262550000D03*
X309158000Y-153323000D03*
X215750000Y-99850000D03*
X480918000Y-305889000D03*
X92420000Y-182950000D03*
X94025000Y-172045000D03*
X308907000Y-95259000D03*
X217100000Y-290300000D03*
X92725000Y-126645000D03*
X215750000Y-148250000D03*
X93526800Y-296680000D03*
X93025000Y-120245000D03*
X133000000Y-200300000D03*
X216725000Y-296845000D03*
X94125000Y-130545000D03*
X171550000Y-279750000D03*
X93600000Y-228580000D03*
X131625000Y-161645000D03*
X360649000Y-354330000D03*
X131210000Y-100150000D03*
%TO.N,Net-(Q1A-S1)*%
X266199000Y-76783500D03*
X266099000Y-73272400D03*
%TO.N,Net-(Q1B-G2)*%
X267899000Y-78872400D03*
X273499000Y-73372400D03*
%TO.N,Net-(Q2A-S1)*%
X266194000Y-96108500D03*
X266094000Y-92597400D03*
%TO.N,Net-(Q2B-G2)*%
X273494000Y-92697400D03*
X267894000Y-98197400D03*
%TO.N,Net-(Q3A-S1)*%
X265949000Y-54336200D03*
X266049000Y-57847300D03*
%TO.N,Net-(Q3B-G2)*%
X273349000Y-54436200D03*
X267749000Y-59936200D03*
%TO.N,Net-(Q4A-S1)*%
X266299000Y-135484000D03*
X266199000Y-131972000D03*
%TO.N,Net-(Q4B-G2)*%
X267999000Y-137572000D03*
X273599000Y-132072000D03*
%TO.N,Net-(Q5A-S1)*%
X266294000Y-154808000D03*
X266194000Y-151297000D03*
%TO.N,Net-(Q5B-G2)*%
X273594000Y-151397000D03*
X267994000Y-156897000D03*
%TO.N,Net-(Q6A-S1)*%
X266049000Y-113036000D03*
X266149000Y-116547000D03*
%TO.N,Net-(Q6B-G2)*%
X267849000Y-118636000D03*
X273449000Y-113136000D03*
%TO.N,Net-(Q7A-S1)*%
X267243000Y-191309000D03*
X267343000Y-194820000D03*
%TO.N,Net-(Q7B-G2)*%
X269043000Y-196909000D03*
X274643000Y-191409000D03*
%TO.N,Net-(Q8A-S1)*%
X267338000Y-214145000D03*
X267238000Y-210634000D03*
%TO.N,Net-(Q8B-G2)*%
X274638000Y-210734000D03*
X269038000Y-216234000D03*
%TO.N,Net-(Q9A-S1)*%
X267093000Y-172372000D03*
X267193000Y-175884000D03*
%TO.N,Net-(Q9B-G2)*%
X274493000Y-172472000D03*
X268893000Y-177972000D03*
%TO.N,Net-(Q10A-S1)*%
X268534000Y-255208000D03*
X268434000Y-251697000D03*
%TO.N,Net-(Q10B-G2)*%
X275834000Y-251797000D03*
X270234000Y-257297000D03*
%TO.N,Net-(Q11A-S1)*%
X268529000Y-274534000D03*
X268429000Y-271022000D03*
%TO.N,Net-(Q11B-G2)*%
X270229000Y-276622000D03*
X275829000Y-271122000D03*
%TO.N,Net-(Q12A-S1)*%
X268284000Y-232761000D03*
X268384000Y-236272000D03*
%TO.N,Net-(Q12B-G2)*%
X270084000Y-238361000D03*
X275684000Y-232861000D03*
%TO.N,Net-(Q13A-S1)*%
X268899000Y-314184000D03*
X268799000Y-310672000D03*
%TO.N,Net-(Q13B-G2)*%
X276199000Y-310772000D03*
X270599000Y-316272000D03*
%TO.N,Net-(Q14A-S1)*%
X268794000Y-329997000D03*
X268894000Y-333508000D03*
%TO.N,Net-(Q14B-G2)*%
X276194000Y-330097000D03*
X270594000Y-335597000D03*
%TO.N,Net-(Q15A-S1)*%
X268749000Y-295247000D03*
X268649000Y-291736000D03*
%TO.N,Net-(Q15B-G2)*%
X276049000Y-291836000D03*
X270449000Y-297336000D03*
%TO.N,Net-(Q16A-S1)*%
X269784000Y-374372000D03*
X269684000Y-370861000D03*
%TO.N,Net-(Q16B-G2)*%
X277084000Y-370961000D03*
X271484000Y-376461000D03*
%TO.N,Net-(Q17A-S1)*%
X269779000Y-393697000D03*
X269679000Y-390186000D03*
%TO.N,Net-(Q17B-G2)*%
X271479000Y-395786000D03*
X277079000Y-390286000D03*
%TO.N,Net-(Q18A-S1)*%
X269535000Y-351925000D03*
X269635000Y-355436000D03*
%TO.N,Net-(Q18B-G2)*%
X271335000Y-357525000D03*
X276935000Y-352025000D03*
%TO.N,Net-(Q19A-S1)*%
X309699000Y-72872400D03*
X309799000Y-76383500D03*
%TO.N,Net-(Q19B-G2)*%
X311499000Y-78472400D03*
X317099000Y-72972400D03*
%TO.N,Net-(Q20A-S1)*%
X309694000Y-92197400D03*
X309794000Y-95708500D03*
%TO.N,Net-(Q20B-G2)*%
X311494000Y-97797400D03*
X317094000Y-92297400D03*
%TO.N,Net-(Q21A-S1)*%
X309549000Y-53936200D03*
X309649000Y-57447300D03*
%TO.N,Net-(Q21B-G2)*%
X316949000Y-54036200D03*
X311349000Y-59536200D03*
%TO.N,Net-(Q22A-S1)*%
X310049000Y-134447000D03*
X309949000Y-130936000D03*
%TO.N,Net-(Q22B-G2)*%
X311749000Y-136536000D03*
X317349000Y-131036000D03*
%TO.N,Net-(Q23A-S1)*%
X309944000Y-150261000D03*
X310044000Y-153772000D03*
%TO.N,Net-(Q23B-G2)*%
X311744000Y-155861000D03*
X317344000Y-150361000D03*
%TO.N,Net-(Q24A-S1)*%
X309900000Y-115511000D03*
X309800000Y-112000000D03*
%TO.N,Net-(Q24B-G2)*%
X317200000Y-112100000D03*
X311600000Y-117600000D03*
%TO.N,Net-(Q25A-S1)*%
X310049000Y-194047000D03*
X309949000Y-190536000D03*
%TO.N,Net-(Q25B-G2)*%
X311749000Y-196136000D03*
X317349000Y-190636000D03*
%TO.N,Net-(Q26A-S1)*%
X310044000Y-213372000D03*
X309944000Y-209861000D03*
%TO.N,Net-(Q26B-G2)*%
X311744000Y-215461000D03*
X317344000Y-209961000D03*
%TO.N,Net-(Q27A-S1)*%
X309800000Y-171600000D03*
X309900000Y-175111000D03*
%TO.N,Net-(Q27B-G2)*%
X317200000Y-171700000D03*
X311600000Y-177200000D03*
%TO.N,Net-(Q28A-S1)*%
X309914000Y-251161000D03*
X310014000Y-254672000D03*
%TO.N,Net-(Q28B-G2)*%
X317314000Y-251261000D03*
X311714000Y-256761000D03*
%TO.N,Net-(Q29A-S1)*%
X309909000Y-270486000D03*
X310009000Y-273997000D03*
%TO.N,Net-(Q29B-G2)*%
X317309000Y-270586000D03*
X311709000Y-276086000D03*
%TO.N,Net-(Q30A-S1)*%
X309865000Y-235736000D03*
X309765000Y-232225000D03*
%TO.N,Net-(Q30B-G2)*%
X317165000Y-232325000D03*
X311565000Y-237825000D03*
%TO.N,Net-(Q31A-S1)*%
X310499000Y-314084000D03*
X310399000Y-310572000D03*
%TO.N,Net-(Q31B-G2)*%
X312199000Y-316172000D03*
X317799000Y-310672000D03*
%TO.N,Net-(Q32A-S1)*%
X310394000Y-329897000D03*
X310494000Y-333408000D03*
%TO.N,Net-(Q32B-G2)*%
X312194000Y-335497000D03*
X317794000Y-329997000D03*
%TO.N,Net-(Q33A-S1)*%
X310249000Y-291636000D03*
X310349000Y-295147000D03*
%TO.N,Net-(Q33B-G2)*%
X312049000Y-297236000D03*
X317649000Y-291736000D03*
%TO.N,Net-(Q34A-S1)*%
X311100000Y-373811000D03*
X311000000Y-370300000D03*
%TO.N,Net-(Q34B-G2)*%
X312800000Y-375900000D03*
X318400000Y-370400000D03*
%TO.N,Net-(Q35A-S1)*%
X311095000Y-393136000D03*
X310995000Y-389625000D03*
%TO.N,Net-(Q35B-G2)*%
X318395000Y-389725000D03*
X312795000Y-395225000D03*
%TO.N,Net-(Q36A-S1)*%
X310951000Y-354875000D03*
X310851000Y-351364000D03*
%TO.N,Net-(Q36B-G2)*%
X318251000Y-351464000D03*
X312651000Y-356964000D03*
%TO.N,Net-(Q37A-S1)*%
X356949000Y-75947300D03*
X356849000Y-72436200D03*
%TO.N,Net-(Q37B-G2)*%
X358649000Y-78036200D03*
X364249000Y-72536200D03*
%TO.N,Net-(Q38A-S1)*%
X356944000Y-95272300D03*
X356844000Y-91761200D03*
%TO.N,Net-(Q38B-G2)*%
X358644000Y-97361200D03*
X364244000Y-91861200D03*
%TO.N,Net-(Q39A-S1)*%
X356800000Y-57011100D03*
X356700000Y-53500000D03*
%TO.N,Net-(Q39B-G2)*%
X364100000Y-53600000D03*
X358500000Y-59100000D03*
%TO.N,Net-(Q40A-S1)*%
X358364000Y-133910000D03*
X358264000Y-130399000D03*
%TO.N,Net-(Q40B-G2)*%
X365664000Y-130499000D03*
X360064000Y-135999000D03*
%TO.N,Net-(Q41A-S1)*%
X358259000Y-149724000D03*
X358359000Y-153235000D03*
%TO.N,Net-(Q41B-G2)*%
X365659000Y-149824000D03*
X360059000Y-155324000D03*
%TO.N,Net-(Q42A-S1)*%
X358214000Y-114974000D03*
X358114000Y-111463000D03*
%TO.N,Net-(Q42B-G2)*%
X359914000Y-117063000D03*
X365514000Y-111563000D03*
%TO.N,Net-(Q43A-S1)*%
X359186000Y-189738000D03*
X359286000Y-193250000D03*
%TO.N,Net-(Q43B-G2)*%
X366586000Y-189838000D03*
X360986000Y-195338000D03*
%TO.N,Net-(Q44A-S1)*%
X359281000Y-212574000D03*
X359181000Y-209063000D03*
%TO.N,Net-(Q44B-G2)*%
X360981000Y-214663000D03*
X366581000Y-209163000D03*
%TO.N,Net-(Q45A-S1)*%
X359037000Y-170802000D03*
X359137000Y-174313000D03*
%TO.N,Net-(Q45B-G2)*%
X360837000Y-176402000D03*
X366437000Y-170902000D03*
%TO.N,Net-(Q46A-S1)*%
X360249000Y-254047000D03*
X360149000Y-250536000D03*
%TO.N,Net-(Q46B-G2)*%
X367549000Y-250636000D03*
X361949000Y-256136000D03*
%TO.N,Net-(Q47A-S1)*%
X360144000Y-269861000D03*
X360244000Y-273372000D03*
%TO.N,Net-(Q47B-G2)*%
X361944000Y-275461000D03*
X367544000Y-269961000D03*
%TO.N,Net-(Q48A-S1)*%
X360000000Y-231600000D03*
X360100000Y-235111000D03*
%TO.N,Net-(Q48B-G2)*%
X367400000Y-231700000D03*
X361800000Y-237200000D03*
%TO.N,Net-(Q49A-S1)*%
X361699000Y-313384000D03*
X361599000Y-309872000D03*
%TO.N,Net-(Q49B-G2)*%
X368999000Y-309972000D03*
X363399000Y-315472000D03*
%TO.N,Net-(Q50A-S1)*%
X361594000Y-329197000D03*
X361694000Y-332708000D03*
%TO.N,Net-(Q50B-G2)*%
X368994000Y-329297000D03*
X363394000Y-334797000D03*
%TO.N,Net-(Q51A-S1)*%
X361549000Y-294447000D03*
X361449000Y-290936000D03*
%TO.N,Net-(Q51B-G2)*%
X363249000Y-296536000D03*
X368849000Y-291036000D03*
%TO.N,Net-(Q52A-S1)*%
X361684000Y-373716000D03*
X361584000Y-370205000D03*
%TO.N,Net-(Q52B-G2)*%
X363384000Y-375805000D03*
X368984000Y-370305000D03*
%TO.N,Net-(Q53A-S1)*%
X361679000Y-393041000D03*
X361579000Y-389530000D03*
%TO.N,Net-(Q53B-G2)*%
X368979000Y-389630000D03*
X363379000Y-395130000D03*
%TO.N,Net-(Q54A-S1)*%
X361435000Y-351269000D03*
X361535000Y-354780000D03*
%TO.N,Net-(Q54B-G2)*%
X363235000Y-356869000D03*
X368835000Y-351369000D03*
%TO.N,Net-(Q55A-S1)*%
X407304000Y-72090600D03*
X407404000Y-75601700D03*
%TO.N,Net-(Q55B-G2)*%
X414704000Y-72190600D03*
X409104000Y-77690600D03*
%TO.N,Net-(Q56A-S1)*%
X407299000Y-91415600D03*
X407399000Y-94926700D03*
%TO.N,Net-(Q56B-G2)*%
X409099000Y-97015600D03*
X414699000Y-91515600D03*
%TO.N,Net-(Q57A-S1)*%
X407154000Y-53154400D03*
X407254000Y-56665500D03*
%TO.N,Net-(Q57B-G2)*%
X414554000Y-53254400D03*
X408954000Y-58754400D03*
%TO.N,Net-(Q58A-S1)*%
X407449000Y-130236000D03*
X407549000Y-133747000D03*
%TO.N,Net-(Q58B-G2)*%
X409249000Y-135836000D03*
X414849000Y-130336000D03*
%TO.N,Net-(Q59A-S1)*%
X407444000Y-149561000D03*
X407544000Y-153072000D03*
%TO.N,Net-(Q59B-G2)*%
X414844000Y-149661000D03*
X409244000Y-155161000D03*
%TO.N,Net-(Q60A-S1)*%
X407400000Y-114811000D03*
X407300000Y-111300000D03*
%TO.N,Net-(Q60B-G2)*%
X414700000Y-111400000D03*
X409100000Y-116900000D03*
%TO.N,Net-(Q61A-S1)*%
X408104000Y-189891000D03*
X408204000Y-193402000D03*
%TO.N,Net-(Q61B-G2)*%
X415504000Y-189991000D03*
X409904000Y-195491000D03*
%TO.N,Net-(Q62A-S1)*%
X408099000Y-209216000D03*
X408199000Y-212727000D03*
%TO.N,Net-(Q62B-G2)*%
X409899000Y-214816000D03*
X415499000Y-209316000D03*
%TO.N,Net-(Q63A-S1)*%
X407954000Y-170954000D03*
X408054000Y-174466000D03*
%TO.N,Net-(Q63B-G2)*%
X409754000Y-176554000D03*
X415354000Y-171054000D03*
%TO.N,Net-(Q64A-S1)*%
X408709000Y-250036000D03*
X408809000Y-253547000D03*
%TO.N,Net-(Q64B-G2)*%
X410509000Y-255636000D03*
X416109000Y-250136000D03*
%TO.N,Net-(Q65A-S1)*%
X408804000Y-272872000D03*
X408704000Y-269361000D03*
%TO.N,Net-(Q65B-G2)*%
X416104000Y-269461000D03*
X410504000Y-274961000D03*
%TO.N,Net-(Q66A-S1)*%
X408660000Y-234611000D03*
X408560000Y-231100000D03*
%TO.N,Net-(Q66B-G2)*%
X410360000Y-236700000D03*
X415960000Y-231200000D03*
%TO.N,Net-(Q67A-S1)*%
X408684000Y-309761000D03*
X408784000Y-313272000D03*
%TO.N,Net-(Q67B-G2)*%
X410484000Y-315361000D03*
X416084000Y-309861000D03*
%TO.N,Net-(Q68A-S1)*%
X408679000Y-329086000D03*
X408779000Y-332597000D03*
%TO.N,Net-(Q68B-G2)*%
X416079000Y-329186000D03*
X410479000Y-334686000D03*
%TO.N,Net-(Q69A-S1)*%
X408535000Y-290825000D03*
X408635000Y-294336000D03*
%TO.N,Net-(Q69B-G2)*%
X415935000Y-290925000D03*
X410335000Y-296425000D03*
%TO.N,Net-(Q70A-S1)*%
X409249000Y-373547000D03*
X409149000Y-370036000D03*
%TO.N,Net-(Q70B-G2)*%
X416549000Y-370136000D03*
X410949000Y-375636000D03*
%TO.N,Net-(Q71A-S1)*%
X409144000Y-389361000D03*
X409244000Y-392872000D03*
%TO.N,Net-(Q71B-G2)*%
X416544000Y-389461000D03*
X410944000Y-394961000D03*
%TO.N,Net-(Q72A-S1)*%
X409000000Y-351100000D03*
X409100000Y-354611000D03*
%TO.N,Net-(Q72B-G2)*%
X416400000Y-351200000D03*
X410800000Y-356700000D03*
%TO.N,Net-(Q73A-S1)*%
X462899000Y-71872400D03*
X462999000Y-75383500D03*
%TO.N,Net-(Q73B-G2)*%
X464699000Y-77472400D03*
X470299000Y-71972400D03*
%TO.N,Net-(Q74A-S1)*%
X462894000Y-91197400D03*
X462994000Y-94708500D03*
%TO.N,Net-(Q74B-G2)*%
X464694000Y-96797400D03*
X470294000Y-91297400D03*
%TO.N,Net-(Q75A-S1)*%
X462749000Y-52936200D03*
X462849000Y-56447300D03*
%TO.N,Net-(Q75B-G2)*%
X464549000Y-58536200D03*
X470149000Y-53036200D03*
%TO.N,Net-(Q76A-S1)*%
X463599000Y-130072000D03*
X463699000Y-133584000D03*
%TO.N,Net-(Q76B-G2)*%
X465399000Y-135672000D03*
X470999000Y-130172000D03*
%TO.N,Net-(Q77A-S1)*%
X463594000Y-149397000D03*
X463694000Y-152908000D03*
%TO.N,Net-(Q77B-G2)*%
X465394000Y-154997000D03*
X470994000Y-149497000D03*
%TO.N,Net-(Q78A-S1)*%
X463549000Y-114647000D03*
X463449000Y-111136000D03*
%TO.N,Net-(Q78B-G2)*%
X465249000Y-116736000D03*
X470849000Y-111236000D03*
%TO.N,Net-(Q79A-S1)*%
X464604000Y-192701000D03*
X464504000Y-189190000D03*
%TO.N,Net-(Q79B-G2)*%
X466304000Y-194790000D03*
X471904000Y-189290000D03*
%TO.N,Net-(Q80A-S1)*%
X464599000Y-212026000D03*
X464499000Y-208515000D03*
%TO.N,Net-(Q80B-G2)*%
X471899000Y-208615000D03*
X466299000Y-214115000D03*
%TO.N,Net-(Q81A-S1)*%
X464454000Y-173764000D03*
X464354000Y-170253000D03*
%TO.N,Net-(Q81B-G2)*%
X471754000Y-170353000D03*
X466154000Y-175853000D03*
%TO.N,Net-(Q82A-S1)*%
X464886000Y-249338000D03*
X464986000Y-252850000D03*
%TO.N,Net-(Q82B-G2)*%
X472286000Y-249438000D03*
X466686000Y-254938000D03*
%TO.N,Net-(Q83A-S1)*%
X464881000Y-268663000D03*
X464981000Y-272174000D03*
%TO.N,Net-(Q83B-G2)*%
X472281000Y-268763000D03*
X466681000Y-274263000D03*
%TO.N,Net-(Q84A-S1)*%
X464737000Y-230402000D03*
X464837000Y-233913000D03*
%TO.N,Net-(Q84B-G2)*%
X466537000Y-236002000D03*
X472137000Y-230502000D03*
%TO.N,Net-(Q85A-S1)*%
X465600000Y-313411000D03*
X465500000Y-309900000D03*
%TO.N,Net-(Q85B-G2)*%
X472900000Y-310000000D03*
X467300000Y-315500000D03*
%TO.N,Net-(Q86A-S1)*%
X465495000Y-329225000D03*
X465595000Y-332736000D03*
%TO.N,Net-(Q86B-G2)*%
X467295000Y-334825000D03*
X472895000Y-329325000D03*
%TO.N,Net-(Q87A-S1)*%
X465451000Y-294475000D03*
X465351000Y-290964000D03*
%TO.N,Net-(Q87B-G2)*%
X472751000Y-291064000D03*
X467151000Y-296564000D03*
%TO.N,Net-(Q88A-S1)*%
X466034000Y-369785000D03*
X466134000Y-373296000D03*
%TO.N,Net-(Q88B-G2)*%
X473434000Y-369885000D03*
X467834000Y-375385000D03*
%TO.N,Net-(Q89A-S1)*%
X466029000Y-389110000D03*
X466129000Y-392621000D03*
%TO.N,Net-(Q89B-G2)*%
X473429000Y-389210000D03*
X467829000Y-394710000D03*
%TO.N,Net-(Q90A-S1)*%
X465884000Y-350849000D03*
X465984000Y-354360000D03*
%TO.N,Net-(Q90B-G2)*%
X467684000Y-356449000D03*
X473284000Y-350949000D03*
%TO.N,/Neuron6_in1/Adder2/SUM_IN*%
X272694000Y-96497400D03*
X267194000Y-99097400D03*
X272699000Y-77172400D03*
X267199000Y-79772400D03*
X272549000Y-58236200D03*
X267049000Y-60836200D03*
%TO.N,Net-(U2D--)*%
X270164000Y-75358300D03*
X271485000Y-75368800D03*
%TO.N,Net-(U4D--)*%
X270159000Y-94683300D03*
X271480000Y-94693800D03*
%TO.N,Net-(U5D--)*%
X271335000Y-56432600D03*
X270014000Y-56422100D03*
%TO.N,/Neuron6_in2/Adder2/SUM_IN*%
X267299000Y-138472000D03*
X267294000Y-157797000D03*
X272799000Y-135872000D03*
X267149000Y-119536000D03*
X272794000Y-155197000D03*
X272649000Y-116936000D03*
%TO.N,Net-(U6D--)*%
X270264000Y-134058000D03*
X271585000Y-134069000D03*
%TO.N,Net-(U8D--)*%
X271580000Y-153394000D03*
X270259000Y-153383000D03*
%TO.N,Net-(U9D--)*%
X271435000Y-115133000D03*
X270114000Y-115122000D03*
%TO.N,/Neuron6_in3/Adder2/SUM_IN*%
X268343000Y-197809000D03*
X268338000Y-217134000D03*
X273843000Y-195209000D03*
X268193000Y-178872000D03*
X273693000Y-176272000D03*
X273838000Y-214534000D03*
%TO.N,Net-(U10D--)*%
X272628000Y-193405000D03*
X271308000Y-193394000D03*
%TO.N,Net-(U12D--)*%
X272623000Y-212730000D03*
X271303000Y-212720000D03*
%TO.N,Net-(U13D--)*%
X271158000Y-174458000D03*
X272479000Y-174469000D03*
%TO.N,/Neuron6_in4/Adder2/SUM_IN*%
X269384000Y-239261000D03*
X274884000Y-236661000D03*
X275029000Y-274922000D03*
X269534000Y-258197000D03*
X269529000Y-277522000D03*
X275034000Y-255597000D03*
%TO.N,Net-(U14D--)*%
X273820000Y-253794000D03*
X272499000Y-253783000D03*
%TO.N,Net-(U16D--)*%
X273815000Y-273119000D03*
X272494000Y-273108000D03*
%TO.N,Net-(U17D--)*%
X273670000Y-234858000D03*
X272349000Y-234847000D03*
%TO.N,/Neuron6_in5/Adder2/SUM_IN*%
X269894000Y-336497000D03*
X269749000Y-298236000D03*
X269899000Y-317172000D03*
X275399000Y-314572000D03*
X275249000Y-295636000D03*
X275394000Y-333897000D03*
%TO.N,Net-(U18D--)*%
X274185000Y-312769000D03*
X272864000Y-312758000D03*
%TO.N,Net-(U20D--)*%
X272859000Y-332083000D03*
X274180000Y-332094000D03*
%TO.N,Net-(U21D--)*%
X272714000Y-293822000D03*
X274035000Y-293833000D03*
%TO.N,/Neuron6_in6/Adder2/SUM_IN*%
X270784000Y-377361000D03*
X276135000Y-355825000D03*
X270779000Y-396686000D03*
X276284000Y-374761000D03*
X270635000Y-358425000D03*
X276279000Y-394086000D03*
%TO.N,Net-(U22D--)*%
X273749000Y-372947000D03*
X275070000Y-372958000D03*
%TO.N,Net-(U24D--)*%
X273744000Y-392272000D03*
X275065000Y-392283000D03*
%TO.N,Net-(U25D--)*%
X273600000Y-354011000D03*
X274921000Y-354021000D03*
%TO.N,/Neuron6_1/Adder2/SUM_IN*%
X310649000Y-60436200D03*
X316299000Y-76772400D03*
X310794000Y-98697400D03*
X316149000Y-57836200D03*
X316294000Y-96097400D03*
X310799000Y-79372400D03*
%TO.N,Net-(U26D--)*%
X313764000Y-74958300D03*
X315085000Y-74968800D03*
%TO.N,Net-(U28D--)*%
X313759000Y-94283300D03*
X315080000Y-94293800D03*
%TO.N,Net-(U29D--)*%
X313614000Y-56022100D03*
X314935000Y-56032600D03*
%TO.N,/Neuron6_2/Adder2/SUM_IN*%
X316544000Y-154161000D03*
X311044000Y-156761000D03*
X311049000Y-137436000D03*
X310900000Y-118500000D03*
X316400000Y-115900000D03*
X316549000Y-134836000D03*
%TO.N,Net-(U30D--)*%
X315335000Y-133033000D03*
X314014000Y-133022000D03*
%TO.N,Net-(U32D--)*%
X314009000Y-152347000D03*
X315330000Y-152358000D03*
%TO.N,Net-(U33D--)*%
X313865000Y-114086000D03*
X315186000Y-114096000D03*
%TO.N,/Neuron6_3/Adder2/SUM_IN*%
X316549000Y-194436000D03*
X310900000Y-178100000D03*
X316544000Y-213761000D03*
X311044000Y-216361000D03*
X311049000Y-197036000D03*
X316400000Y-175500000D03*
%TO.N,Net-(U34D--)*%
X314014000Y-192622000D03*
X315335000Y-192633000D03*
%TO.N,Net-(U35D--)*%
X315330000Y-211958000D03*
X314009000Y-211947000D03*
%TO.N,Net-(U37D--)*%
X315186000Y-173696000D03*
X313865000Y-173686000D03*
%TO.N,/Neuron6_4/Adder2/SUM_IN*%
X310865000Y-238725000D03*
X316509000Y-274386000D03*
X311014000Y-257661000D03*
X316365000Y-236125000D03*
X311009000Y-276986000D03*
X316514000Y-255061000D03*
%TO.N,Net-(U38D--)*%
X313979000Y-253247000D03*
X315300000Y-253258000D03*
%TO.N,Net-(U39D--)*%
X315295000Y-272583000D03*
X313974000Y-272572000D03*
%TO.N,Net-(U41D--)*%
X313830000Y-234311000D03*
X315151000Y-234321000D03*
%TO.N,/Neuron6_5/Adder2/SUM_IN*%
X316849000Y-295536000D03*
X311499000Y-317072000D03*
X311349000Y-298136000D03*
X316999000Y-314472000D03*
X316994000Y-333797000D03*
X311494000Y-336397000D03*
%TO.N,Net-(U42D--)*%
X315785000Y-312669000D03*
X314464000Y-312658000D03*
%TO.N,Net-(U43D--)*%
X315780000Y-331994000D03*
X314459000Y-331983000D03*
%TO.N,Net-(U45D--)*%
X315635000Y-293733000D03*
X314314000Y-293722000D03*
%TO.N,/Neuron6_6/Adder2/SUM_IN*%
X317451000Y-355264000D03*
X311951000Y-357864000D03*
X317600000Y-374200000D03*
X317595000Y-393525000D03*
X312095000Y-396125000D03*
X312100000Y-376800000D03*
%TO.N,Net-(U46D--)*%
X315065000Y-372386000D03*
X316386000Y-372396000D03*
%TO.N,Net-(U47D--)*%
X315060000Y-391711000D03*
X316381000Y-391721000D03*
%TO.N,Net-(U49D--)*%
X316236000Y-353460000D03*
X314916000Y-353450000D03*
%TO.N,/Neuron6_7/Adder2/SUM_IN*%
X363449000Y-76336200D03*
X357949000Y-78936200D03*
X363444000Y-95661200D03*
X357944000Y-98261200D03*
X363300000Y-57400000D03*
X357800000Y-60000000D03*
%TO.N,Net-(U50D--)*%
X362235000Y-74532600D03*
X360914000Y-74522100D03*
%TO.N,Net-(U52D--)*%
X362230000Y-93857600D03*
X360909000Y-93847100D03*
%TO.N,Net-(U53D--)*%
X362086000Y-55596400D03*
X360765000Y-55585900D03*
%TO.N,/Neuron6_8/Adder2/SUM_IN*%
X359364000Y-136899000D03*
X359214000Y-117963000D03*
X364864000Y-134299000D03*
X359359000Y-156224000D03*
X364859000Y-153624000D03*
X364714000Y-115363000D03*
%TO.N,Net-(U54D--)*%
X362329000Y-132485000D03*
X363650000Y-132495000D03*
%TO.N,Net-(U56D--)*%
X362324000Y-151810000D03*
X363645000Y-151820000D03*
%TO.N,Net-(U57D--)*%
X363500000Y-113559000D03*
X362179000Y-113549000D03*
%TO.N,/Neuron6_9/Adder2/SUM_IN*%
X360137000Y-177302000D03*
X360286000Y-196238000D03*
X365786000Y-193638000D03*
X360281000Y-215563000D03*
X365637000Y-174702000D03*
X365781000Y-212963000D03*
%TO.N,Net-(U58D--)*%
X364572000Y-191835000D03*
X363251000Y-191824000D03*
%TO.N,Net-(U60D--)*%
X363246000Y-211149000D03*
X364567000Y-211160000D03*
%TO.N,Net-(U61D--)*%
X364423000Y-172899000D03*
X363102000Y-172888000D03*
%TO.N,/Neuron6_10/Adder2/SUM_IN*%
X366749000Y-254436000D03*
X361249000Y-257036000D03*
X361100000Y-238100000D03*
X366744000Y-273761000D03*
X366600000Y-235500000D03*
X361244000Y-276361000D03*
%TO.N,Net-(U62D--)*%
X365535000Y-252633000D03*
X364214000Y-252622000D03*
%TO.N,Net-(U64D--)*%
X364209000Y-271947000D03*
X365530000Y-271958000D03*
%TO.N,Net-(U65D--)*%
X365386000Y-233696000D03*
X364065000Y-233686000D03*
%TO.N,/Neuron6_11/Adder2/SUM_IN*%
X368194000Y-333097000D03*
X368199000Y-313772000D03*
X362549000Y-297436000D03*
X368049000Y-294836000D03*
X362694000Y-335697000D03*
X362699000Y-316372000D03*
%TO.N,Net-(U66D--)*%
X365664000Y-311958000D03*
X366985000Y-311969000D03*
%TO.N,Net-(U68D--)*%
X366980000Y-331294000D03*
X365659000Y-331283000D03*
%TO.N,Net-(U69D--)*%
X366835000Y-293033000D03*
X365514000Y-293022000D03*
%TO.N,/Neuron6_12/Adder2/SUM_IN*%
X362679000Y-396030000D03*
X368184000Y-374105000D03*
X368179000Y-393430000D03*
X362535000Y-357769000D03*
X362684000Y-376705000D03*
X368035000Y-355169000D03*
%TO.N,Net-(U70D--)*%
X365649000Y-372291000D03*
X366970000Y-372302000D03*
%TO.N,Net-(U72D--)*%
X366965000Y-391626000D03*
X365644000Y-391616000D03*
%TO.N,Net-(U73D--)*%
X365500000Y-353355000D03*
X366821000Y-353365000D03*
%TO.N,/Neuron6_13/Adder2/SUM_IN*%
X413899000Y-95315600D03*
X413754000Y-57054400D03*
X413904000Y-75990600D03*
X408404000Y-78590600D03*
X408254000Y-59654400D03*
X408399000Y-97915600D03*
%TO.N,Net-(U74D--)*%
X411369000Y-74176500D03*
X412690000Y-74187000D03*
%TO.N,Net-(U76D--)*%
X411364000Y-93501500D03*
X412685000Y-93512000D03*
%TO.N,Net-(U77D--)*%
X411219000Y-55240300D03*
X412540000Y-55250800D03*
%TO.N,/Neuron6_14/Adder2/SUM_IN*%
X408544000Y-156061000D03*
X408549000Y-136736000D03*
X414044000Y-153461000D03*
X413900000Y-115200000D03*
X408400000Y-117800000D03*
X414049000Y-134136000D03*
%TO.N,Net-(U78D--)*%
X411514000Y-132322000D03*
X412835000Y-132333000D03*
%TO.N,Net-(U80D--)*%
X411509000Y-151647000D03*
X412830000Y-151658000D03*
%TO.N,Net-(U81D--)*%
X411365000Y-113386000D03*
X412686000Y-113396000D03*
%TO.N,/Neuron6_15/Adder2/SUM_IN*%
X409054000Y-177454000D03*
X414704000Y-193791000D03*
X409204000Y-196391000D03*
X414699000Y-213116000D03*
X409199000Y-215716000D03*
X414554000Y-174854000D03*
%TO.N,Net-(U82D--)*%
X413490000Y-191987000D03*
X412169000Y-191976000D03*
%TO.N,Net-(U84D--)*%
X412164000Y-211302000D03*
X413485000Y-211312000D03*
%TO.N,Net-(U85D--)*%
X412019000Y-173040000D03*
X413340000Y-173051000D03*
%TO.N,/Neuron6_16/Adder2/SUM_IN*%
X415160000Y-235000000D03*
X409809000Y-256536000D03*
X415304000Y-273261000D03*
X409804000Y-275861000D03*
X409660000Y-237600000D03*
X415309000Y-253936000D03*
%TO.N,Net-(U86D--)*%
X412774000Y-252122000D03*
X414095000Y-252133000D03*
%TO.N,Net-(U88D--)*%
X412769000Y-271447000D03*
X414090000Y-271458000D03*
%TO.N,Net-(U89D--)*%
X413946000Y-233196000D03*
X412625000Y-233186000D03*
%TO.N,/Neuron6_17/Adder2/SUM_IN*%
X409635000Y-297325000D03*
X415284000Y-313661000D03*
X409784000Y-316261000D03*
X415279000Y-332986000D03*
X409779000Y-335586000D03*
X415135000Y-294725000D03*
%TO.N,Net-(U90D--)*%
X414070000Y-311858000D03*
X412749000Y-311847000D03*
%TO.N,Net-(U92D--)*%
X414065000Y-331183000D03*
X412744000Y-331172000D03*
%TO.N,Net-(U93D--)*%
X413921000Y-292921000D03*
X412600000Y-292911000D03*
%TO.N,/Neuron6_18/Adder2/SUM_IN*%
X410244000Y-395861000D03*
X415749000Y-373936000D03*
X410100000Y-357600000D03*
X415600000Y-355000000D03*
X415744000Y-393261000D03*
X410249000Y-376536000D03*
%TO.N,Net-(U94D--)*%
X413214000Y-372122000D03*
X414535000Y-372133000D03*
%TO.N,Net-(U96D--)*%
X414530000Y-391458000D03*
X413209000Y-391447000D03*
%TO.N,Net-(U97D--)*%
X414386000Y-353196000D03*
X413065000Y-353186000D03*
%TO.N,/Neuron6_19/Adder2/SUM_IN*%
X469494000Y-95097400D03*
X463849000Y-59436200D03*
X469349000Y-56836200D03*
X463999000Y-78372400D03*
X463994000Y-97697400D03*
X469499000Y-75772400D03*
%TO.N,Net-(U98D--)*%
X468285000Y-73968800D03*
X466964000Y-73958300D03*
%TO.N,Net-(U100D--)*%
X468280000Y-93293800D03*
X466959000Y-93283300D03*
%TO.N,Net-(U101D--)*%
X468135000Y-55032600D03*
X466814000Y-55022100D03*
%TO.N,/Neuron6_20/Adder2/SUM_IN*%
X464549000Y-117636000D03*
X470194000Y-153297000D03*
X470049000Y-115036000D03*
X464699000Y-136572000D03*
X470199000Y-133972000D03*
X464694000Y-155897000D03*
%TO.N,Net-(U102D--)*%
X468985000Y-132169000D03*
X467664000Y-132158000D03*
%TO.N,Net-(U104D--)*%
X468980000Y-151494000D03*
X467659000Y-151483000D03*
%TO.N,Net-(U105D--)*%
X467514000Y-113222000D03*
X468835000Y-113233000D03*
%TO.N,/Neuron6_21/Adder2/SUM_IN*%
X471099000Y-212415000D03*
X465454000Y-176753000D03*
X465604000Y-195690000D03*
X470954000Y-174153000D03*
X471104000Y-193090000D03*
X465599000Y-215015000D03*
%TO.N,Net-(U106D--)*%
X469890000Y-191286000D03*
X468569000Y-191276000D03*
%TO.N,Net-(U108D--)*%
X468564000Y-210600000D03*
X469885000Y-210611000D03*
%TO.N,Net-(U109D--)*%
X469740000Y-172350000D03*
X468419000Y-172339000D03*
%TO.N,/Neuron6_22/Adder2/SUM_IN*%
X471481000Y-272563000D03*
X471337000Y-234302000D03*
X465837000Y-236902000D03*
X471486000Y-253238000D03*
X465981000Y-275163000D03*
X465986000Y-255838000D03*
%TO.N,Net-(U110D--)*%
X470272000Y-251435000D03*
X468951000Y-251424000D03*
%TO.N,Net-(U112D--)*%
X470267000Y-270760000D03*
X468946000Y-270749000D03*
%TO.N,Net-(U113D--)*%
X470123000Y-232499000D03*
X468802000Y-232488000D03*
%TO.N,/Neuron6_23/Adder2/SUM_IN*%
X466595000Y-335725000D03*
X466600000Y-316400000D03*
X472095000Y-333125000D03*
X466451000Y-297464000D03*
X472100000Y-313800000D03*
X471951000Y-294864000D03*
%TO.N,Net-(U114D--)*%
X469565000Y-311986000D03*
X470886000Y-311996000D03*
%TO.N,Net-(U116D--)*%
X470881000Y-331321000D03*
X469560000Y-331311000D03*
%TO.N,Net-(U117D--)*%
X469416000Y-293050000D03*
X470736000Y-293060000D03*
%TO.N,/Neuron6_24/Adder2/SUM_IN*%
X472629000Y-393010000D03*
X467129000Y-395610000D03*
X472634000Y-373685000D03*
X472484000Y-354749000D03*
X467134000Y-376285000D03*
X466984000Y-357349000D03*
%TO.N,Net-(U118D--)*%
X470099000Y-371871000D03*
X471420000Y-371882000D03*
%TO.N,Net-(U120D--)*%
X470094000Y-391196000D03*
X471415000Y-391207000D03*
%TO.N,Net-(U121D--)*%
X471270000Y-352945000D03*
X469949000Y-352935000D03*
D13*
%TO.N,/SCK*%
X162018500Y-272935400D03*
X119725000Y-273704400D03*
X83455100Y-274310300D03*
X203990000Y-274929600D03*
X49534100Y-274466000D03*
%TO.N,/MOSI*%
X210600000Y-94700000D03*
X87300000Y-259300000D03*
X155943800Y-95000000D03*
X121600000Y-261600000D03*
X166700000Y-94700000D03*
%TO.N,/S0*%
X73850000Y-42524500D03*
X35589623Y-44493389D03*
D12*
X130000000Y-39100000D03*
D13*
X89400000Y-40600000D03*
X78580400Y-42400000D03*
%TO.N,/S1*%
X35871300Y-55125000D03*
X77600000Y-31600000D03*
X35871300Y-65054500D03*
X41564300Y-54243200D03*
X35334800Y-76862000D03*
X40373100Y-42818800D03*
X77500000Y-62900000D03*
X77600000Y-21800000D03*
X38910200Y-32401900D03*
X38777300Y-20712200D03*
X35308500Y-87070000D03*
X98000000Y-30000000D03*
D12*
X130000000Y-38600000D03*
D13*
X77600000Y-52200000D03*
X77600000Y-41800000D03*
%TO.N,/S2*%
X47275300Y-80959100D03*
D12*
X130000000Y-38100000D03*
D13*
X47877600Y-63257600D03*
X46241900Y-21826900D03*
X49066000Y-42350600D03*
X127188600Y-37643700D03*
X46841600Y-74926200D03*
X47200000Y-54783800D03*
X85006200Y-63116100D03*
X87000000Y-37053600D03*
X42522600Y-42552800D03*
%TO.N,/S3*%
X45478400Y-54826800D03*
X67932000Y-64007600D03*
X45882900Y-63827600D03*
X46078600Y-32475000D03*
D12*
X45343300Y-43993889D03*
D13*
X46921600Y-85892200D03*
X84900000Y-42524500D03*
X46801055Y-20998437D03*
X45701900Y-76062500D03*
D12*
X130000000Y-37600000D03*
%TO.N,/S4*%
X54800000Y-38300000D03*
X130000000Y-37100000D03*
%TO.N,/S5*%
X130000000Y-36600000D03*
X54800000Y-38900000D03*
%TO.N,/S6*%
X130000000Y-36100000D03*
X65600000Y-38900000D03*
%TO.N,/S7*%
X65600000Y-39600000D03*
X130000000Y-35600000D03*
D13*
%TO.N,/CS*%
X56400000Y-30600000D03*
X112100000Y-32900500D03*
%TO.N,/VariableWeights/CS111*%
X73281100Y-56975000D03*
D12*
X50025000Y-92445000D03*
D13*
%TO.N,/W111*%
X266021800Y-51199900D03*
X61049800Y-68423300D03*
X60807500Y-94625400D03*
D12*
%TO.N,/VariableWeights/CS112*%
X51025000Y-98645000D03*
D13*
X71100000Y-57626500D03*
%TO.N,/W112*%
X60807500Y-102562500D03*
X268227900Y-45448300D03*
X257925500Y-98111000D03*
D12*
%TO.N,/VariableWeights/CS113*%
X51025000Y-105845000D03*
D13*
X72236000Y-58210500D03*
%TO.N,/W113*%
X63584600Y-74109100D03*
X60834300Y-108900300D03*
X266096500Y-66234800D03*
D12*
%TO.N,/VariableWeights/CS114*%
X50825000Y-112445000D03*
D13*
X73700000Y-58935000D03*
%TO.N,/W114*%
X269246100Y-67502800D03*
X68272100Y-116245000D03*
X71024800Y-74866000D03*
D12*
%TO.N,/VariableWeights/CS115*%
X74400000Y-59500000D03*
X50725000Y-118845000D03*
D13*
%TO.N,/W115*%
X266384100Y-85467000D03*
X73025000Y-87262200D03*
X73025000Y-122770000D03*
D12*
%TO.N,/VariableWeights/CS116*%
X50825000Y-125270000D03*
D13*
X51870800Y-59788200D03*
D12*
X74312178Y-60109740D03*
D13*
%TO.N,/W116*%
X272072700Y-85103600D03*
X72369600Y-129145000D03*
X72371800Y-86469500D03*
%TO.N,/VariableWeights/CS121*%
X50636100Y-134145000D03*
X74080700Y-60875000D03*
%TO.N,/W121*%
X266309500Y-106805500D03*
X60715000Y-136685000D03*
D12*
%TO.N,/VariableWeights/CS122*%
X50950000Y-140350000D03*
D13*
X72205000Y-62376400D03*
%TO.N,/W122*%
X64381500Y-144285000D03*
X272028200Y-106040800D03*
X64381600Y-114250000D03*
%TO.N,/VariableWeights/CS123*%
X84496000Y-57001800D03*
X71627800Y-147550000D03*
D12*
X50950000Y-147550000D03*
D13*
%TO.N,/W123*%
X60815000Y-151485000D03*
X265735500Y-124216500D03*
X63205800Y-138481200D03*
%TO.N,/VariableWeights/CS124*%
X51000300Y-154400200D03*
X81519200Y-57293900D03*
X49456200Y-56902000D03*
%TO.N,/W124*%
X60450100Y-157950000D03*
X272179900Y-125210300D03*
%TO.N,/VariableWeights/CS125*%
X85522000Y-57028100D03*
X87462400Y-160187000D03*
X51601300Y-160928200D03*
%TO.N,/W125*%
X263700000Y-145600000D03*
X187500000Y-151900000D03*
X59600000Y-164300000D03*
D12*
%TO.N,/VariableWeights/CS126*%
X84600000Y-59100000D03*
D13*
X49700000Y-165886000D03*
%TO.N,/W126*%
X62826000Y-165883600D03*
X272168600Y-144726000D03*
%TO.N,/VariableWeights/CS131*%
X46076100Y-89500000D03*
D12*
X84712174Y-59688915D03*
D13*
X50100000Y-173829000D03*
%TO.N,/W131*%
X60835900Y-173822300D03*
X264915700Y-160766600D03*
D12*
%TO.N,/VariableWeights/CS132*%
X50825000Y-181927000D03*
D13*
X74489300Y-182651600D03*
D12*
X84698276Y-60288256D03*
D13*
X81510600Y-61000800D03*
%TO.N,/W132*%
X59007400Y-185862000D03*
X272125700Y-166748400D03*
D12*
%TO.N,/VariableWeights/CS133*%
X84700245Y-60887756D03*
X50825000Y-189127000D03*
D13*
%TO.N,/W133*%
X60600000Y-192710600D03*
X266000000Y-185300000D03*
D12*
%TO.N,/VariableWeights/CS134*%
X84153361Y-61436888D03*
X50100000Y-194570600D03*
D13*
%TO.N,/W134*%
X273900000Y-185500000D03*
X60500000Y-199100000D03*
D12*
%TO.N,/VariableWeights/CS135*%
X50300000Y-201900000D03*
D13*
X35296900Y-79400000D03*
%TO.N,/W135*%
X263776400Y-220574100D03*
X59657900Y-206339200D03*
X266145800Y-204984300D03*
%TO.N,/VariableWeights/CS136*%
X40266500Y-78393100D03*
X50812500Y-208738600D03*
%TO.N,/W136*%
X271000000Y-201600000D03*
X60100000Y-212400000D03*
%TO.N,/VariableWeights/CS141*%
X40180500Y-79445700D03*
X49797500Y-217640000D03*
%TO.N,/W141*%
X268100000Y-228200000D03*
X60100000Y-220000000D03*
%TO.N,/VariableWeights/CS142*%
X39262500Y-222313900D03*
D12*
X50725000Y-223845000D03*
D13*
X35419400Y-81118500D03*
%TO.N,/W142*%
X60490000Y-227780000D03*
X271327700Y-227346900D03*
%TO.N,/VariableWeights/CS143*%
X39001200Y-231045000D03*
D12*
X50725000Y-231045000D03*
D13*
X35419400Y-82398500D03*
%TO.N,/W143*%
X272325300Y-237672300D03*
X58907400Y-234980000D03*
%TO.N,/VariableWeights/CS144*%
X40266500Y-82288900D03*
X50525000Y-237645000D03*
%TO.N,/W144*%
X58658900Y-240908500D03*
X268943500Y-245791700D03*
%TO.N,/VariableWeights/CS145*%
X50425000Y-244045000D03*
X40310300Y-83290900D03*
%TO.N,/W145*%
X268812200Y-262142700D03*
X60470900Y-247845000D03*
%TO.N,/VariableWeights/CS146*%
X50700100Y-250645100D03*
X40620300Y-84468200D03*
%TO.N,/W146*%
X58907400Y-254507000D03*
X266414400Y-262689500D03*
%TO.N,/VariableWeights/CS151*%
X48200000Y-79300000D03*
D12*
X50700000Y-258200000D03*
D13*
%TO.N,/W151*%
X60400000Y-261300000D03*
X267800000Y-283000000D03*
D12*
%TO.N,/VariableWeights/CS152*%
X45900000Y-80000000D03*
X50700000Y-265640000D03*
D13*
%TO.N,/W152*%
X60500000Y-269400000D03*
X271000000Y-281800000D03*
D12*
%TO.N,/VariableWeights/CS153*%
X40822700Y-77700000D03*
X50700000Y-272840000D03*
D13*
%TO.N,/W153*%
X269136200Y-302937400D03*
X60932300Y-278828000D03*
%TO.N,/VariableWeights/CS154*%
X49200000Y-278285100D03*
X48277300Y-80817800D03*
%TO.N,/W154*%
X60835900Y-285228700D03*
X274558300Y-304858700D03*
%TO.N,/VariableWeights/CS155*%
X50449900Y-285889900D03*
X47328600Y-81961100D03*
%TO.N,/W155*%
X268139100Y-323014200D03*
X68015100Y-289640000D03*
X68015100Y-313270400D03*
%TO.N,/VariableWeights/CS156*%
X40266500Y-81027300D03*
X49333900Y-290997100D03*
%TO.N,/W156*%
X59865400Y-296140000D03*
X258126800Y-322629200D03*
%TO.N,/VariableWeights/CS161*%
X46141300Y-83044800D03*
X49628200Y-301205000D03*
%TO.N,/W161*%
X66154800Y-303745000D03*
X271758300Y-342841600D03*
X67267700Y-322821900D03*
%TO.N,/VariableWeights/CS162*%
X45775800Y-86802500D03*
D12*
X50623200Y-307410000D03*
D13*
%TO.N,/W162*%
X60388200Y-311345000D03*
X273321000Y-342811000D03*
%TO.N,/VariableWeights/CS163*%
X41622200Y-68101700D03*
D12*
X50623200Y-314610000D03*
D13*
%TO.N,/W163*%
X270013500Y-362851500D03*
X77532500Y-363034800D03*
X70802400Y-318378000D03*
%TO.N,/VariableWeights/CS164*%
X34781200Y-68496100D03*
X48936000Y-320021400D03*
%TO.N,/W164*%
X275652100Y-364286000D03*
X74797100Y-364286000D03*
X66733300Y-325010000D03*
%TO.N,/VariableWeights/CS165*%
X50674200Y-328083800D03*
X35419400Y-69275000D03*
%TO.N,/W165*%
X84383800Y-381506700D03*
X269880100Y-382051900D03*
X75726300Y-331410000D03*
%TO.N,/VariableWeights/CS166*%
X31900000Y-70500000D03*
D12*
X39700000Y-69900000D03*
D13*
X50300000Y-334200000D03*
%TO.N,/W166*%
X60823200Y-337910000D03*
X275644400Y-383884400D03*
X64716400Y-384134500D03*
%TO.N,/VariableWeights/CS211*%
X35419400Y-70575000D03*
X82840000Y-86280500D03*
%TO.N,/W211*%
X109211600Y-94194300D03*
X309748100Y-47691500D03*
X109211600Y-48356600D03*
%TO.N,/VariableWeights/CS212*%
X39826300Y-99957200D03*
X40168400Y-71225000D03*
D12*
X84325000Y-98745000D03*
D13*
%TO.N,/W212*%
X115618000Y-48475200D03*
X313824400Y-48278600D03*
X109353300Y-102982900D03*
%TO.N,/VariableWeights/CS213*%
X40593200Y-72716100D03*
D12*
X84325000Y-105945000D03*
D13*
X81529300Y-72473300D03*
%TO.N,/W213*%
X100995200Y-110746500D03*
X309659700Y-64318700D03*
X106781000Y-64320200D03*
%TO.N,/VariableWeights/CS214*%
X35419400Y-108798000D03*
X35419400Y-72525000D03*
X84125000Y-112545000D03*
%TO.N,/W214*%
X100264900Y-116345000D03*
X102287000Y-72870000D03*
X313985000Y-67343500D03*
%TO.N,/VariableWeights/CS215*%
X84405700Y-119439600D03*
X46057800Y-68075000D03*
X83628400Y-68924400D03*
%TO.N,/W215*%
X310694500Y-82194000D03*
X97565600Y-81884300D03*
X94425000Y-122745000D03*
%TO.N,/VariableWeights/CS216*%
X84200000Y-125600000D03*
X47800500Y-67200000D03*
%TO.N,/W216*%
X313823500Y-86893100D03*
X94235000Y-129245000D03*
X95285100Y-102032900D03*
%TO.N,/VariableWeights/CS221*%
X47490700Y-69602200D03*
X83230000Y-134040000D03*
X82834300Y-69652900D03*
%TO.N,/W221*%
X310133200Y-105696800D03*
X93990000Y-136580000D03*
D12*
%TO.N,/VariableWeights/CS222*%
X84225000Y-140245000D03*
D13*
X82380200Y-75716700D03*
X47636100Y-74122000D03*
%TO.N,/W222*%
X98708600Y-104806000D03*
X94690700Y-144505200D03*
X313885300Y-103000200D03*
%TO.N,/VariableWeights/CS223*%
X82092200Y-70982400D03*
X45977300Y-70577000D03*
D12*
X84225000Y-147445000D03*
D13*
%TO.N,/W223*%
X310273400Y-122830400D03*
X94921800Y-146068600D03*
%TO.N,/VariableWeights/CS224*%
X77363900Y-70299800D03*
X41500000Y-69426900D03*
X84368300Y-154422100D03*
%TO.N,/W224*%
X93949800Y-157845000D03*
X310183800Y-124983300D03*
%TO.N,/VariableWeights/CS225*%
X85385900Y-71709400D03*
X46109300Y-71682900D03*
X84288800Y-160937000D03*
%TO.N,/W225*%
X308357500Y-139765500D03*
X94522300Y-163342300D03*
%TO.N,/VariableWeights/CS226*%
X74646700Y-73214600D03*
X47876600Y-73104400D03*
X84487300Y-167275400D03*
%TO.N,/W226*%
X92728700Y-170589700D03*
X313843900Y-144633000D03*
%TO.N,/VariableWeights/CS231*%
X82762200Y-173345500D03*
X39449000Y-170674000D03*
X38706700Y-57094400D03*
%TO.N,/W231*%
X310521400Y-161213300D03*
X93302600Y-173812100D03*
D12*
%TO.N,/VariableWeights/CS232*%
X84120000Y-181550000D03*
D13*
X40278200Y-180912000D03*
X41143900Y-58128800D03*
%TO.N,/W232*%
X313985000Y-165996400D03*
X95339500Y-186942300D03*
%TO.N,/VariableWeights/CS233*%
X39348700Y-189687500D03*
D12*
X84120000Y-188750000D03*
D13*
X38691500Y-58775000D03*
%TO.N,/W233*%
X311456300Y-180559700D03*
X93216400Y-192685000D03*
%TO.N,/VariableWeights/CS234*%
X37146700Y-195222500D03*
X83920000Y-195350000D03*
X35063300Y-61897000D03*
%TO.N,/W234*%
X315922200Y-184451500D03*
X93620100Y-199150000D03*
%TO.N,/VariableWeights/CS235*%
X45434200Y-195822000D03*
X83820000Y-201750000D03*
X42238700Y-58898000D03*
%TO.N,/W235*%
X311190000Y-200800100D03*
X94220000Y-205550000D03*
%TO.N,/VariableWeights/CS236*%
X35204700Y-60725000D03*
X37506000Y-205607300D03*
X84625600Y-208566800D03*
%TO.N,/W236*%
X313730000Y-204239600D03*
X94320000Y-212050000D03*
%TO.N,/VariableWeights/CS261*%
X39525900Y-48918000D03*
X75098600Y-54413400D03*
X83083200Y-300735000D03*
%TO.N,/W261*%
X309998400Y-344970200D03*
X92932700Y-303275000D03*
X103644200Y-345222400D03*
%TO.N,/VariableWeights/CS262*%
X35891100Y-49425000D03*
X37852600Y-306848800D03*
D12*
X83640000Y-306940000D03*
D13*
%TO.N,/W262*%
X96349500Y-314023900D03*
X314856200Y-342442700D03*
%TO.N,/VariableWeights/CS263*%
X73000000Y-60900000D03*
D12*
X83640000Y-314140000D03*
D13*
X41034100Y-51100000D03*
%TO.N,/W263*%
X118168300Y-360319400D03*
X311555500Y-360594500D03*
X106378800Y-318075000D03*
%TO.N,/VariableWeights/CS264*%
X83440000Y-320740000D03*
X35270600Y-50725000D03*
X38601600Y-320748300D03*
%TO.N,/W264*%
X314786000Y-361186000D03*
X106681800Y-324366000D03*
X106681800Y-361773300D03*
%TO.N,/VariableWeights/CS265*%
X44905100Y-324200600D03*
X39545700Y-51115700D03*
X83340000Y-327140000D03*
%TO.N,/W265*%
X88612500Y-383380500D03*
X88612500Y-332999900D03*
X311316500Y-382895800D03*
%TO.N,/VariableWeights/CS266*%
X40858900Y-52380700D03*
X82503800Y-332511100D03*
%TO.N,/W266*%
X308263400Y-380376900D03*
X93840000Y-337440000D03*
X299190900Y-347485100D03*
%TO.N,/VariableWeights/CS251*%
X46250500Y-60149500D03*
X83900000Y-257100000D03*
%TO.N,/W251*%
X93491800Y-261215000D03*
X310799000Y-281786000D03*
D12*
%TO.N,/VariableWeights/CS252*%
X42000000Y-61800000D03*
X83726800Y-264880000D03*
D13*
%TO.N,/W252*%
X314035000Y-282522000D03*
X93491800Y-268815000D03*
%TO.N,/VariableWeights/CS253*%
X46072700Y-61375000D03*
D12*
X83726800Y-272080000D03*
D13*
%TO.N,/W253*%
X309998400Y-300672600D03*
X92666000Y-276015000D03*
%TO.N,/VariableWeights/CS254*%
X41974200Y-62796400D03*
X77476700Y-64973100D03*
X83526800Y-278680000D03*
%TO.N,/W254*%
X301976300Y-304822600D03*
X94874800Y-282928800D03*
%TO.N,/VariableWeights/CS255*%
X83400000Y-285000000D03*
X39585100Y-47400000D03*
X34500000Y-253900000D03*
%TO.N,/W255*%
X310800500Y-321442300D03*
X94934800Y-292873100D03*
%TO.N,/VariableWeights/CS256*%
X84426700Y-291724900D03*
X35917000Y-47919000D03*
X39799300Y-291724900D03*
%TO.N,/W256*%
X93926800Y-295380000D03*
X316364000Y-322322100D03*
%TO.N,/VariableWeights/CS241*%
X40583700Y-60685500D03*
X83256800Y-217075000D03*
X44162000Y-216663100D03*
%TO.N,/W241*%
X311011000Y-223071000D03*
X93665000Y-219615000D03*
%TO.N,/VariableWeights/CS242*%
X38684900Y-223280000D03*
D12*
X83900000Y-223280000D03*
D13*
X38812600Y-62843900D03*
%TO.N,/W242*%
X93060900Y-227215000D03*
X312672400Y-226600200D03*
D12*
%TO.N,/VariableWeights/CS243*%
X83900000Y-230480000D03*
D13*
X46179300Y-57475000D03*
X79155600Y-63175800D03*
%TO.N,/W243*%
X94477400Y-234983400D03*
X311601800Y-241998800D03*
%TO.N,/VariableWeights/CS244*%
X76300000Y-162100000D03*
X47700000Y-57900000D03*
X71400000Y-66700000D03*
X82900000Y-236300000D03*
%TO.N,/W244*%
X93900000Y-240880000D03*
X315894200Y-244645600D03*
%TO.N,/VariableWeights/CS245*%
X84624200Y-243650700D03*
X48576400Y-58775000D03*
%TO.N,/W245*%
X92728700Y-247280000D03*
X309928100Y-262118300D03*
%TO.N,/VariableWeights/CS246*%
X83964100Y-250168200D03*
X48431700Y-60261900D03*
%TO.N,/W246*%
X313700000Y-261500000D03*
X95200000Y-255400000D03*
%TO.N,/VariableWeights/CS311*%
X57872200Y-89858200D03*
X122305000Y-92545000D03*
X50234800Y-47342700D03*
%TO.N,/W311*%
X140567900Y-48354900D03*
X355844300Y-46155800D03*
X136322300Y-95085000D03*
D12*
%TO.N,/VariableWeights/CS312*%
X122910000Y-98750000D03*
D13*
X48041800Y-48083700D03*
X50699700Y-95092000D03*
%TO.N,/W312*%
X138888300Y-102778700D03*
X138621100Y-49272100D03*
X360485600Y-48085800D03*
%TO.N,/VariableWeights/CS313*%
X50648800Y-105050100D03*
X46783800Y-48521500D03*
D12*
X122910000Y-105950000D03*
D13*
%TO.N,/W313*%
X358273400Y-66879600D03*
X146200300Y-109885000D03*
X157479800Y-69464700D03*
%TO.N,/VariableWeights/CS314*%
X122600000Y-112500000D03*
X50975500Y-46200000D03*
%TO.N,/W314*%
X138142700Y-66961700D03*
X138142100Y-116350000D03*
X361878200Y-67040300D03*
%TO.N,/VariableWeights/CS315*%
X122200000Y-118500000D03*
X47100000Y-50300000D03*
%TO.N,/W315*%
X353945900Y-85033700D03*
X132549200Y-122750000D03*
X134312000Y-88838000D03*
%TO.N,/VariableWeights/CS316*%
X41960800Y-51726900D03*
X121062400Y-55449400D03*
X122710000Y-125374000D03*
%TO.N,/W316*%
X136347400Y-129250000D03*
X360530100Y-86142800D03*
X136727000Y-96824800D03*
%TO.N,/VariableWeights/CS321*%
X122770100Y-133906600D03*
X120110800Y-54240300D03*
X46094600Y-51375000D03*
%TO.N,/W321*%
X358452700Y-103761700D03*
X132107600Y-136480000D03*
X135231700Y-107619500D03*
%TO.N,/VariableWeights/CS322*%
X41926700Y-53032800D03*
D12*
X122925000Y-140145000D03*
D13*
X124681600Y-56395900D03*
%TO.N,/W322*%
X358400000Y-102400000D03*
X160803900Y-142000000D03*
X132900000Y-144600000D03*
%TO.N,/VariableWeights/CS323*%
X39113300Y-36940400D03*
D12*
X122925000Y-147345000D03*
D13*
X39826300Y-146804900D03*
%TO.N,/W323*%
X358583800Y-122770000D03*
X132447300Y-151280000D03*
%TO.N,/VariableWeights/CS324*%
X35900000Y-37500000D03*
X121100000Y-52000000D03*
X121700000Y-153600000D03*
%TO.N,/W324*%
X362261800Y-124779700D03*
X132460500Y-154953700D03*
%TO.N,/VariableWeights/CS325*%
X122000000Y-159500000D03*
X40732200Y-37700000D03*
X72100000Y-47400000D03*
%TO.N,/W325*%
X132594700Y-163504500D03*
X358835800Y-140873300D03*
%TO.N,/VariableWeights/CS326*%
X36017100Y-38825000D03*
X38299800Y-166208300D03*
X122799400Y-166844300D03*
%TO.N,/W326*%
X132594700Y-169858300D03*
X360158000Y-144796900D03*
%TO.N,/VariableWeights/CS331*%
X40632900Y-38939600D03*
X45632100Y-174553500D03*
X122721100Y-174951100D03*
%TO.N,/W331*%
X132082600Y-177885000D03*
X357837600Y-161806400D03*
D12*
%TO.N,/VariableWeights/CS332*%
X122900000Y-181550000D03*
D13*
X41400000Y-40200000D03*
%TO.N,/W332*%
X363817500Y-165232800D03*
X132665000Y-185485000D03*
D12*
%TO.N,/VariableWeights/CS333*%
X122900000Y-188750000D03*
D13*
X37572800Y-186647800D03*
X35996700Y-40775000D03*
%TO.N,/W333*%
X127400000Y-194200000D03*
X358900000Y-184158100D03*
%TO.N,/VariableWeights/CS334*%
X122300000Y-195100000D03*
X41460999Y-41596401D03*
%TO.N,/W334*%
X132695700Y-197957600D03*
X358654800Y-180553800D03*
%TO.N,/VariableWeights/CS335*%
X56600000Y-43800000D03*
X112900000Y-155300000D03*
X43100000Y-36900000D03*
X122200000Y-201200000D03*
%TO.N,/W335*%
X132450100Y-205550000D03*
X359480300Y-201767700D03*
%TO.N,/VariableWeights/CS336*%
X46180700Y-37701600D03*
X118451700Y-38825300D03*
X122521100Y-208118100D03*
%TO.N,/W336*%
X132594700Y-208079100D03*
X365165100Y-202048500D03*
%TO.N,/VariableWeights/CS341*%
X121900000Y-215219000D03*
X43200000Y-38000000D03*
X50500000Y-44400000D03*
%TO.N,/W341*%
X130839300Y-219845600D03*
X360336700Y-224703400D03*
%TO.N,/VariableWeights/CS342*%
X115134800Y-38653800D03*
X47405500Y-37388700D03*
D12*
X122730000Y-223350000D03*
D13*
%TO.N,/W342*%
X131600000Y-227300000D03*
X364700000Y-226600000D03*
%TO.N,/VariableWeights/CS343*%
X43216800Y-39171100D03*
D12*
X122730000Y-230550000D03*
D13*
X115918500Y-39470700D03*
%TO.N,/W343*%
X134400000Y-235707900D03*
X359100000Y-244400000D03*
%TO.N,/VariableWeights/CS344*%
X122530000Y-237150000D03*
X46224400Y-40125000D03*
X112985800Y-39832700D03*
%TO.N,/W344*%
X132730000Y-240950000D03*
X366110200Y-242560300D03*
%TO.N,/VariableWeights/CS345*%
X43218300Y-40775000D03*
X46084000Y-239413800D03*
X122216400Y-243151500D03*
%TO.N,/W345*%
X130605300Y-247350000D03*
X360411600Y-259728600D03*
%TO.N,/VariableWeights/CS346*%
X46697700Y-41089000D03*
X122709700Y-250248400D03*
X116760200Y-41615600D03*
%TO.N,/W346*%
X366154000Y-264053000D03*
X133094000Y-255740700D03*
%TO.N,/VariableWeights/CS351*%
X122214200Y-254257300D03*
X35904400Y-25947400D03*
X42420200Y-253768500D03*
%TO.N,/W351*%
X131603700Y-261485000D03*
X362695000Y-281782000D03*
D12*
%TO.N,/VariableWeights/CS352*%
X122330000Y-265150000D03*
D13*
X38875201Y-26724799D03*
%TO.N,/W352*%
X132594700Y-267916400D03*
X361066900Y-281215600D03*
D12*
%TO.N,/VariableWeights/CS353*%
X122330000Y-272350000D03*
D13*
X34147200Y-30295300D03*
X34586100Y-271536700D03*
%TO.N,/W353*%
X360397600Y-297845500D03*
X130601400Y-276285000D03*
%TO.N,/VariableWeights/CS354*%
X108484700Y-32370000D03*
X122355600Y-279175600D03*
X35455500Y-27737400D03*
%TO.N,/W354*%
X132330000Y-282750000D03*
X367566500Y-303054200D03*
%TO.N,/VariableWeights/CS355*%
X34671200Y-28476900D03*
X122030000Y-285350000D03*
X33216000Y-282284600D03*
%TO.N,/W355*%
X132430000Y-289150000D03*
X361935600Y-320917700D03*
%TO.N,/VariableWeights/CS356*%
X35896000Y-29225000D03*
X37363100Y-292451800D03*
X122648500Y-292142800D03*
%TO.N,/W356*%
X131157400Y-295650000D03*
X135294800Y-321080800D03*
X362117000Y-323345600D03*
%TO.N,/VariableWeights/CS361*%
X121400000Y-300000000D03*
X39000000Y-29500000D03*
X118900000Y-260300000D03*
%TO.N,/W361*%
X144554500Y-304406000D03*
X361738400Y-343171900D03*
X144554500Y-342890900D03*
%TO.N,/VariableWeights/CS362*%
X40544100Y-309359100D03*
X39014200Y-30525000D03*
D12*
X122325000Y-307445000D03*
D13*
%TO.N,/W362*%
X132090000Y-311380000D03*
X358368100Y-341658900D03*
X355844300Y-323289000D03*
%TO.N,/VariableWeights/CS363*%
X43110900Y-25475300D03*
X119382900Y-27604500D03*
D12*
X122325000Y-314645000D03*
D13*
%TO.N,/W363*%
X130601400Y-318580000D03*
X359906900Y-359134900D03*
X133442500Y-358157800D03*
%TO.N,/VariableWeights/CS364*%
X121200000Y-319800000D03*
D12*
X43000000Y-26600000D03*
D13*
%TO.N,/W364*%
X363008100Y-359680500D03*
X137373800Y-359585100D03*
X134235500Y-324744800D03*
%TO.N,/VariableWeights/CS365*%
X121282500Y-326902500D03*
X43094100Y-27864400D03*
X55624600Y-321601400D03*
%TO.N,/W365*%
X134204200Y-330737800D03*
X134826500Y-382472100D03*
X361891400Y-381647100D03*
%TO.N,/VariableWeights/CS366*%
X46087600Y-27818100D03*
X122645100Y-28819900D03*
X122564500Y-334358300D03*
%TO.N,/W366*%
X130598200Y-337945000D03*
X131281500Y-382931700D03*
X367577100Y-382250000D03*
%TO.N,/VariableWeights/CS411*%
X46399000Y-28837000D03*
X56008600Y-87993900D03*
X155941400Y-92830000D03*
%TO.N,/W411*%
X407670100Y-47691500D03*
X188409400Y-50507900D03*
X188409400Y-94685000D03*
D14*
%TO.N,/VariableWeights/CS412*%
X48100000Y-28800000D03*
X101800000Y-30600000D03*
D12*
X163650000Y-98350000D03*
D13*
%TO.N,/W412*%
X186713800Y-44721400D03*
X413131800Y-45021400D03*
X182988000Y-102808400D03*
%TO.N,/VariableWeights/CS413*%
X46073700Y-106503600D03*
X43121800Y-29598700D03*
D12*
X163650000Y-105550000D03*
D13*
%TO.N,/W413*%
X182261100Y-62890000D03*
X408723600Y-63274000D03*
X182195200Y-108798300D03*
D14*
%TO.N,/VariableWeights/CS414*%
X163400000Y-112100000D03*
X158000000Y-32100000D03*
X53200000Y-24700000D03*
X106800000Y-15500000D03*
X49412600Y-30400000D03*
D13*
%TO.N,/W414*%
X187575100Y-115950000D03*
X410847700Y-63292300D03*
X187575200Y-65133400D03*
%TO.N,/VariableWeights/CS415*%
X45659400Y-115400400D03*
X40224000Y-16175200D03*
X163350000Y-118550000D03*
%TO.N,/W415*%
X407628700Y-84791200D03*
X179903200Y-84791200D03*
X176027300Y-122350000D03*
%TO.N,/VariableWeights/CS416*%
X163822000Y-125346300D03*
X161378800Y-13628300D03*
X36518600Y-13261500D03*
%TO.N,/W416*%
X410561100Y-82661100D03*
X180890600Y-82920900D03*
X173850000Y-128850000D03*
%TO.N,/VariableWeights/CS421*%
X38804900Y-15539600D03*
X160806300Y-134384000D03*
X154521000Y-17796600D03*
%TO.N,/W421*%
X409107600Y-105612900D03*
X183047700Y-135367900D03*
%TO.N,/VariableWeights/CS422*%
X157500000Y-33000000D03*
X96400000Y-20606300D03*
D12*
X163625000Y-140045000D03*
D13*
X58800000Y-17100000D03*
X39258251Y-16671805D03*
%TO.N,/W422*%
X174545000Y-144002500D03*
X410886900Y-102462600D03*
X181093200Y-108436100D03*
%TO.N,/VariableWeights/CS423*%
X38841900Y-17626400D03*
D12*
X163625000Y-147245000D03*
D13*
X162859400Y-25604500D03*
%TO.N,/W423*%
X172200000Y-151200000D03*
X407100000Y-123000000D03*
X223900000Y-134100000D03*
%TO.N,/VariableWeights/CS424*%
X160829200Y-24998200D03*
X41094600Y-20591300D03*
X163425000Y-153845000D03*
%TO.N,/W424*%
X404417400Y-142400100D03*
X407781700Y-125113700D03*
X174660200Y-156908300D03*
%TO.N,/VariableWeights/CS425*%
X164243000Y-160634500D03*
X162105700Y-16183900D03*
X35804300Y-18154600D03*
%TO.N,/W425*%
X173673900Y-163504500D03*
X407770800Y-143178500D03*
%TO.N,/VariableWeights/CS426*%
X38756200Y-21772300D03*
X38919600Y-164603500D03*
X164219000Y-167080800D03*
%TO.N,/W426*%
X409818800Y-144800200D03*
X174492800Y-171557500D03*
%TO.N,/VariableWeights/CS431*%
X47178600Y-14429600D03*
X162880000Y-175445000D03*
X159643300Y-14089100D03*
%TO.N,/W431*%
X407670100Y-162045800D03*
X172592300Y-177985000D03*
D14*
%TO.N,/VariableWeights/CS432*%
X42900000Y-16100000D03*
D12*
X163330000Y-181650000D03*
D13*
%TO.N,/W432*%
X173095000Y-185131400D03*
X413923300Y-164656500D03*
%TO.N,/VariableWeights/CS433*%
X46004100Y-16175200D03*
D12*
X163330000Y-188850000D03*
D13*
X160826400Y-18246500D03*
%TO.N,/W433*%
X172743700Y-192785000D03*
X408394700Y-182691000D03*
%TO.N,/VariableWeights/CS434*%
X45626600Y-193237300D03*
X43000800Y-17140000D03*
X161678900Y-194317800D03*
%TO.N,/W434*%
X414065500Y-182691000D03*
X172843700Y-197693300D03*
%TO.N,/VariableWeights/CS435*%
X47720700Y-17869700D03*
X165453800Y-18695700D03*
X163316500Y-202136400D03*
%TO.N,/W435*%
X408402200Y-202610000D03*
X173410000Y-205650000D03*
%TO.N,/VariableWeights/CS436*%
X158332300Y-22310800D03*
X162851000Y-208118000D03*
X46686200Y-17926900D03*
%TO.N,/W436*%
X174362400Y-212789900D03*
X411656700Y-203600600D03*
%TO.N,/VariableWeights/CS441*%
X162755200Y-216898700D03*
X159488800Y-22824600D03*
X45979400Y-18675000D03*
%TO.N,/W441*%
X173519600Y-219526900D03*
X408880900Y-223900000D03*
D12*
%TO.N,/VariableWeights/CS442*%
X162930000Y-223350000D03*
D13*
X62202400Y-222363500D03*
X43005200Y-19118200D03*
%TO.N,/W442*%
X172460700Y-231395400D03*
X412910600Y-222372900D03*
D12*
%TO.N,/VariableWeights/CS443*%
X162930000Y-230550000D03*
D13*
X78338300Y-45522500D03*
X156113100Y-44824000D03*
%TO.N,/W443*%
X409027000Y-241853500D03*
X170822300Y-234547500D03*
%TO.N,/VariableWeights/CS444*%
X157487100Y-157800000D03*
X161200000Y-232900000D03*
D12*
X73200000Y-47200000D03*
D13*
%TO.N,/W444*%
X172460700Y-241303500D03*
X411343700Y-244408000D03*
%TO.N,/VariableWeights/CS445*%
X74321700Y-47861200D03*
X156668300Y-54939800D03*
X162294500Y-243162700D03*
%TO.N,/W445*%
X409919800Y-260176800D03*
X173030000Y-247350000D03*
%TO.N,/VariableWeights/CS446*%
X78329600Y-46709300D03*
X142980000Y-47177700D03*
X162617500Y-250267500D03*
%TO.N,/W446*%
X170822300Y-254255800D03*
X409197800Y-263452500D03*
%TO.N,/VariableWeights/CS451*%
X74283900Y-48975000D03*
X162494200Y-253302800D03*
X77084300Y-251930700D03*
%TO.N,/W451*%
X409781000Y-281671000D03*
X172528300Y-261185000D03*
D12*
%TO.N,/VariableWeights/CS452*%
X78300000Y-49100000D03*
X162850000Y-264850000D03*
D13*
X154400000Y-157800000D03*
%TO.N,/W452*%
X173600000Y-269441700D03*
X413100000Y-281500000D03*
%TO.N,/VariableWeights/CS453*%
X78355600Y-50318400D03*
D12*
X162850000Y-272050000D03*
D13*
X91884200Y-271793700D03*
%TO.N,/W453*%
X405232600Y-297970000D03*
X173231400Y-276462000D03*
%TO.N,/VariableWeights/CS454*%
X162506700Y-278615400D03*
X74304000Y-50925000D03*
X143004100Y-53001800D03*
%TO.N,/W454*%
X173540300Y-284248900D03*
X414651400Y-302410000D03*
%TO.N,/VariableWeights/CS455*%
X155354000Y-46284100D03*
X162961600Y-285465700D03*
X84535800Y-46732200D03*
%TO.N,/W455*%
X409658800Y-319234600D03*
X170760100Y-288698000D03*
%TO.N,/VariableWeights/CS456*%
X142253100Y-45273900D03*
X162650000Y-291474000D03*
X81488600Y-45708400D03*
%TO.N,/W456*%
X173050000Y-295350000D03*
X412465000Y-319972000D03*
%TO.N,/VariableWeights/CS461*%
X160807300Y-300445000D03*
X152527700Y-50499600D03*
X84786000Y-48195400D03*
%TO.N,/W461*%
X409305900Y-343764500D03*
X181852200Y-302985000D03*
X189847000Y-343764500D03*
D12*
%TO.N,/VariableWeights/CS462*%
X162530000Y-306650000D03*
D13*
X114837000Y-305287300D03*
X81511300Y-48692100D03*
%TO.N,/W462*%
X414996100Y-344324400D03*
X180560600Y-344491400D03*
X172501800Y-312758200D03*
D12*
%TO.N,/VariableWeights/CS463*%
X84400000Y-48900000D03*
D13*
X153100000Y-157800000D03*
D12*
X162530000Y-313850000D03*
D13*
%TO.N,/W463*%
X173718800Y-356432000D03*
X170622300Y-317785000D03*
X411656700Y-359806700D03*
%TO.N,/VariableWeights/CS464*%
X135008200Y-49657200D03*
D14*
X84500000Y-49600000D03*
D13*
X162250500Y-320498100D03*
%TO.N,/W464*%
X186297800Y-324250000D03*
X195061800Y-361046400D03*
X412935000Y-360922000D03*
%TO.N,/VariableWeights/CS465*%
X162230000Y-326850000D03*
X145089100Y-51631700D03*
D12*
X84500000Y-50600000D03*
D13*
%TO.N,/W465*%
X174454000Y-378423300D03*
X174454000Y-330354000D03*
X409663400Y-378814800D03*
%TO.N,/VariableWeights/CS466*%
X162000000Y-333000000D03*
D12*
X85600000Y-51167500D03*
D13*
X151700000Y-157800000D03*
%TO.N,/W466*%
X187360300Y-379191000D03*
X411656700Y-379568700D03*
X175639300Y-337150000D03*
%TO.N,/W511*%
X462471300Y-47248700D03*
X218826400Y-94785000D03*
X221127700Y-47338000D03*
%TO.N,/VariableWeights/CS512*%
X77177000Y-16849000D03*
D12*
X207450000Y-98450000D03*
D13*
X76748000Y-94616600D03*
%TO.N,/W512*%
X221960600Y-46605200D03*
X468711000Y-46631000D03*
X221838500Y-102807200D03*
%TO.N,/VariableWeights/CS513*%
X74183900Y-17228900D03*
D12*
X207450000Y-105650000D03*
D13*
X76807000Y-108087700D03*
%TO.N,/W513*%
X216686000Y-109585000D03*
X453021800Y-63386900D03*
X446282100Y-104064000D03*
%TO.N,/VariableWeights/CS514*%
X206464000Y-23232800D03*
X79240400Y-20084200D03*
X207150900Y-112206800D03*
%TO.N,/W514*%
X228273100Y-65527300D03*
X217819600Y-116050000D03*
X463365700Y-65963700D03*
%TO.N,/VariableWeights/CS515*%
X206600000Y-117100000D03*
X73724500Y-19207300D03*
%TO.N,/W515*%
X231284200Y-83836300D03*
X463204500Y-84284500D03*
X223966500Y-122450000D03*
%TO.N,/VariableWeights/CS516*%
X203400000Y-124000000D03*
X73808732Y-20203246D03*
X207700000Y-125200000D03*
X94400000Y-20606300D03*
%TO.N,/W516*%
X468890900Y-84846000D03*
X230074400Y-128950000D03*
X238792700Y-100269000D03*
%TO.N,/VariableWeights/CS521*%
X205948700Y-21132000D03*
X77324400Y-19337100D03*
X206821500Y-133445000D03*
%TO.N,/W521*%
X463777100Y-103936000D03*
X218306600Y-135968000D03*
%TO.N,/VariableWeights/CS522*%
X78000000Y-20200000D03*
D12*
X207250000Y-139650000D03*
D13*
%TO.N,/W522*%
X217000000Y-142000000D03*
X467200000Y-101800000D03*
D12*
%TO.N,/VariableWeights/CS523*%
X207250000Y-146850000D03*
D13*
X91700000Y-20700000D03*
%TO.N,/W523*%
X463521900Y-122872000D03*
X216721500Y-151038600D03*
X462034600Y-144052600D03*
%TO.N,/VariableWeights/CS524*%
X206500000Y-152800000D03*
X88600000Y-20886300D03*
%TO.N,/W524*%
X469586800Y-122770000D03*
X216750100Y-157250000D03*
X218534700Y-140942200D03*
%TO.N,/VariableWeights/CS525*%
X82127000Y-13070100D03*
X206950000Y-159850000D03*
X205221800Y-12894000D03*
%TO.N,/W525*%
X465475800Y-143628500D03*
X228138400Y-163809800D03*
%TO.N,/VariableWeights/CS526*%
X80802300Y-164828900D03*
X81074600Y-17675000D03*
X207969200Y-166675300D03*
%TO.N,/W526*%
X218200700Y-170148000D03*
X467379000Y-140283000D03*
X221389300Y-141848200D03*
%TO.N,/VariableWeights/CS531*%
X200854300Y-17067600D03*
X84766600Y-17302000D03*
X206725800Y-175045000D03*
%TO.N,/W531*%
X464671900Y-163251500D03*
X223836500Y-177585000D03*
D12*
%TO.N,/VariableWeights/CS532*%
X207250000Y-181250000D03*
D13*
X81405700Y-19209800D03*
X202238700Y-18789400D03*
%TO.N,/W532*%
X470344300Y-162690000D03*
X216432600Y-184392300D03*
%TO.N,/VariableWeights/CS533*%
X99538000Y-188140000D03*
D12*
X99300000Y-31845500D03*
X207250000Y-188450000D03*
D13*
X86606500Y-20621400D03*
%TO.N,/W533*%
X216313300Y-192145900D03*
X464811700Y-181492200D03*
%TO.N,/VariableWeights/CS534*%
X199766600Y-19881800D03*
X206385500Y-194490500D03*
X81390100Y-20275000D03*
%TO.N,/W534*%
X218531800Y-198843300D03*
X227764500Y-179796800D03*
X467662700Y-180523000D03*
%TO.N,/VariableWeights/CS535*%
X78367600Y-24234100D03*
X206950000Y-201450000D03*
X199333300Y-23551600D03*
%TO.N,/W535*%
X226400200Y-227034500D03*
X464809300Y-200614000D03*
X224925100Y-205250000D03*
%TO.N,/VariableWeights/CS536*%
X113333300Y-208845000D03*
X78332300Y-25237200D03*
X207433900Y-208258400D03*
%TO.N,/W536*%
X461136000Y-204251500D03*
X222146500Y-216677500D03*
%TO.N,/VariableWeights/CS541*%
X78328100Y-27637900D03*
X199800300Y-26899600D03*
X206350000Y-216740000D03*
%TO.N,/W541*%
X445355100Y-219997600D03*
X218841500Y-220192700D03*
%TO.N,/VariableWeights/CS542*%
X79898400Y-221791200D03*
X78577000Y-29676400D03*
D12*
X207125000Y-222945000D03*
D13*
%TO.N,/W542*%
X468400000Y-221000000D03*
X275600000Y-227324700D03*
X215600000Y-226500000D03*
D12*
%TO.N,/VariableWeights/CS543*%
X207125000Y-230145000D03*
D13*
X72868300Y-28554600D03*
X197703900Y-31005800D03*
%TO.N,/W543*%
X216990000Y-234080000D03*
X465193100Y-241197200D03*
%TO.N,/VariableWeights/CS544*%
X72601465Y-30601959D03*
X206500000Y-236500000D03*
%TO.N,/W544*%
X216250900Y-240545000D03*
X465229100Y-242893900D03*
%TO.N,/VariableWeights/CS545*%
X205700000Y-241600000D03*
D14*
X91500000Y-27224500D03*
X74500000Y-29700000D03*
D13*
X130600000Y-27900000D03*
%TO.N,/W545*%
X465213700Y-260801600D03*
X217225000Y-247378400D03*
%TO.N,/VariableWeights/CS546*%
X132000000Y-27900000D03*
D12*
X88600000Y-24466100D03*
X205600000Y-248100000D03*
X73632372Y-30767628D03*
D13*
%TO.N,/W546*%
X465200000Y-259300000D03*
X217300000Y-252300000D03*
%TO.N,/VariableWeights/CS551*%
X206346800Y-258840000D03*
X198457900Y-24285800D03*
X83202400Y-24176200D03*
%TO.N,/W551*%
X466596000Y-282143400D03*
X216330200Y-260896800D03*
D12*
%TO.N,/VariableWeights/CS552*%
X206925000Y-265045000D03*
X133400000Y-28500000D03*
D14*
X85509139Y-26445839D03*
D13*
%TO.N,/W552*%
X465516300Y-282132500D03*
X216313300Y-269265400D03*
D12*
%TO.N,/VariableWeights/CS553*%
X206925000Y-272245000D03*
X87600000Y-27200000D03*
X134700000Y-29100000D03*
D14*
X81300000Y-27535400D03*
D13*
%TO.N,/W553*%
X215971400Y-276180000D03*
X464032700Y-298518400D03*
%TO.N,/VariableWeights/CS554*%
X205800000Y-277800000D03*
X98000000Y-20775500D03*
D12*
X84700000Y-27300000D03*
X90000000Y-27300000D03*
D13*
X166400000Y-34600000D03*
%TO.N,/W554*%
X216925000Y-282645000D03*
X469286000Y-300786000D03*
%TO.N,/VariableWeights/CS555*%
X206400000Y-285086000D03*
D12*
X85800000Y-29475900D03*
X132100000Y-29000000D03*
D13*
%TO.N,/W555*%
X225789200Y-288928500D03*
X461119300Y-299881800D03*
X461671900Y-320556700D03*
D12*
%TO.N,/VariableWeights/CS556*%
X85000000Y-29500000D03*
D13*
X170100000Y-33100000D03*
X206000000Y-291200000D03*
%TO.N,/W556*%
X223243400Y-295470400D03*
X460931600Y-317812300D03*
D14*
%TO.N,/VariableWeights/CS561*%
X81300000Y-30599500D03*
D13*
X169989623Y-34093389D03*
X205700000Y-299400000D03*
%TO.N,/W561*%
X451719900Y-344128800D03*
X222293200Y-346333700D03*
X215499100Y-303485000D03*
D12*
%TO.N,/VariableWeights/CS562*%
X206590000Y-307150000D03*
D13*
X189136300Y-63868300D03*
D14*
X86300000Y-30599500D03*
D13*
X88394400Y-61228500D03*
%TO.N,/W562*%
X221983200Y-311085000D03*
X469670000Y-341866000D03*
%TO.N,/VariableWeights/CS563*%
X184200000Y-39000000D03*
X206590000Y-314350000D03*
X186400000Y-153495700D03*
X78400000Y-37000000D03*
%TO.N,/W563*%
X226287900Y-362290000D03*
X466321100Y-362290000D03*
X218213600Y-318285000D03*
%TO.N,/VariableWeights/CS564*%
X206017500Y-320728900D03*
X190794700Y-45548400D03*
X73898200Y-43941300D03*
%TO.N,/W564*%
X214695100Y-324750000D03*
X469652600Y-360980300D03*
%TO.N,/VariableWeights/CS565*%
X72622200Y-43694100D03*
X206569500Y-327629400D03*
X196843800Y-46933000D03*
%TO.N,/W565*%
X217994800Y-381103800D03*
X466374900Y-380733300D03*
X216690000Y-331150000D03*
%TO.N,/VariableWeights/CS566*%
X205500000Y-333000000D03*
D12*
X167000000Y-25500000D03*
D13*
X73700000Y-38400000D03*
%TO.N,/W566*%
X214442900Y-379922800D03*
X469814000Y-380089700D03*
X214442900Y-337909100D03*
%TD*%
D15*
%TO.N,Net-(C41-Pad2)*%
X379524000Y-126185000D02*
X376451000Y-129258000D01*
X376451000Y-129258000D02*
X376120000Y-129258000D01*
%TO.N,/Neuron6_1/IN1*%
X306441100Y-116352700D02*
X306441100Y-171807500D01*
X308885400Y-351356200D02*
X306668300Y-349139100D01*
X306668300Y-293519800D02*
X307752100Y-292436000D01*
X306441100Y-171807500D02*
X307549500Y-172915900D01*
X306668300Y-349139100D02*
X306668300Y-293519800D01*
%TO.N,/Neuron6_1/IN2*%
X312517700Y-317235700D02*
X312517600Y-317235700D01*
X313030700Y-118389200D02*
X313030700Y-82011800D01*
X310442600Y-78983700D02*
X310442600Y-62068100D01*
X311423800Y-316141900D02*
X311423800Y-300517400D01*
X313985000Y-335023000D02*
X312517700Y-333555700D01*
X311293600Y-80654800D02*
X310265000Y-79626200D01*
X312173400Y-119246500D02*
X313030700Y-118389200D01*
X310265000Y-79626200D02*
X310265000Y-79161300D01*
X312517700Y-333555700D02*
X312517700Y-317235700D01*
X310442600Y-62068100D02*
X309766500Y-61392000D01*
X310265000Y-79161300D02*
X310442600Y-78983700D01*
X311423800Y-300517400D02*
X309998400Y-299092000D01*
X313985000Y-358642500D02*
X313985000Y-335023000D01*
X313030700Y-82011800D02*
X311673700Y-80654800D01*
X311673700Y-80654800D02*
X311293600Y-80654800D01*
X312517600Y-317235700D02*
X311423800Y-316141900D01*
%TO.N,/Neuron6_1/IN3*%
X308440200Y-254675900D02*
X308440200Y-252799300D01*
X308530100Y-310670300D02*
X308530100Y-290137700D01*
X307623300Y-95797600D02*
X308636400Y-94784500D01*
X308084800Y-273841100D02*
X308853600Y-273072300D01*
X308636400Y-83878400D02*
X308005100Y-83247100D01*
X308853600Y-273072300D02*
X308853600Y-255089300D01*
X308853600Y-255089300D02*
X308440200Y-254675900D01*
X308530100Y-290137700D02*
X308084800Y-289692400D01*
X308005100Y-83247100D02*
X308005100Y-74491400D01*
X308429400Y-130894500D02*
X307623300Y-130088400D01*
X307623300Y-130088400D02*
X307623300Y-95797600D01*
X307828400Y-311372000D02*
X308530100Y-310670300D01*
X308636400Y-94784500D02*
X308636400Y-83878400D01*
X308084800Y-289692400D02*
X308084800Y-273841100D01*
%TO.N,/Neuron6_1/IN4*%
X311201300Y-181843600D02*
X312787800Y-180257100D01*
X312787800Y-180257100D02*
X312787800Y-139203700D01*
X311600300Y-334158100D02*
X313190300Y-335748100D01*
X311201300Y-196388300D02*
X311201300Y-181843600D01*
X313828400Y-361027100D02*
X313828400Y-377539900D01*
X311600300Y-317887900D02*
X311600300Y-334158100D01*
X313190300Y-360389000D02*
X313828400Y-361027100D01*
X311749000Y-197779600D02*
X311749000Y-196936000D01*
X313190300Y-335748100D02*
X313190300Y-360389000D01*
X311749000Y-196936000D02*
X311201300Y-196388300D01*
X312787800Y-139203700D02*
X311991700Y-138407600D01*
%TO.N,/Neuron6_1/IN5*%
X307621700Y-150640400D02*
X307621700Y-171244800D01*
X308487100Y-172110200D02*
X308487100Y-187415600D01*
X307497000Y-93546300D02*
X307171400Y-93871900D01*
X307171400Y-93871900D02*
X307171400Y-150190100D01*
X306011800Y-195723500D02*
X306011800Y-210594000D01*
X307171400Y-150190100D02*
X307621700Y-150640400D01*
X309168300Y-192567000D02*
X306011800Y-195723500D01*
X308487100Y-187415600D02*
X309168300Y-188096800D01*
X309168300Y-188096800D02*
X309168300Y-192567000D01*
X307621700Y-171244800D02*
X308487100Y-172110200D01*
%TO.N,/Neuron6_1/IN6*%
X312695800Y-217237400D02*
X312695800Y-205673700D01*
D16*
X318600000Y-333600000D02*
X315100000Y-337100000D01*
D15*
X312841500Y-227909200D02*
X313399400Y-227351300D01*
X310702100Y-196461900D02*
X310702100Y-179211300D01*
X312841500Y-277608200D02*
X312841500Y-227909200D01*
X312147200Y-177766200D02*
X312147200Y-158928200D01*
X310702100Y-179211300D02*
X312147200Y-177766200D01*
X310449000Y-203426900D02*
X310449000Y-196715000D01*
X311991700Y-278458000D02*
X312841500Y-277608200D01*
X312147200Y-158928200D02*
X310936000Y-157717000D01*
X313399400Y-227351300D02*
X313399400Y-217941000D01*
X310449000Y-196715000D02*
X310702100Y-196461900D01*
D16*
X311991700Y-278458000D02*
X318600000Y-285066300D01*
D15*
X312695800Y-205673700D02*
X310449000Y-203426900D01*
D16*
X318600000Y-285066300D02*
X318600000Y-333600000D01*
D15*
X313399400Y-217941000D02*
X312695800Y-217237400D01*
%TO.N,/Neuron6_1/OUT*%
X356903900Y-129501600D02*
X357225200Y-129180300D01*
X357294700Y-147937900D02*
X357294700Y-134099700D01*
X355605800Y-113768400D02*
X355605800Y-112263000D01*
X357837600Y-233007300D02*
X357837600Y-211444100D01*
X351249000Y-68567700D02*
X351249000Y-54300000D01*
X355156900Y-87774300D02*
X355156900Y-72475600D01*
X354695100Y-88236100D02*
X355156900Y-87774300D01*
X355156900Y-72475600D02*
X351249000Y-68567700D01*
X357225200Y-115387800D02*
X355605800Y-113768400D01*
X357294700Y-134099700D02*
X356903900Y-133708900D01*
X356894100Y-148338500D02*
X357294700Y-147937900D01*
X355605800Y-112263000D02*
X354695100Y-111352300D01*
X354695100Y-111352300D02*
X354695100Y-88236100D01*
X357837600Y-211444100D02*
X356894100Y-210500600D01*
X356903900Y-133708900D02*
X356903900Y-129501600D01*
X357225200Y-129180300D02*
X357225200Y-115387800D01*
X356894100Y-210500600D02*
X356894100Y-148338500D01*
%TO.N,/Neuron6_10/IN2*%
X363429000Y-240707400D02*
X363429000Y-293567000D01*
X361705900Y-298392000D02*
X364000200Y-300686300D01*
X359773600Y-81322000D02*
X359940500Y-81155100D01*
X361587900Y-238866300D02*
X363429000Y-240707400D01*
X361824200Y-178658000D02*
X362369900Y-179203700D01*
X362369900Y-238084300D02*
X361587900Y-238866300D01*
X361705900Y-295290100D02*
X361705900Y-298392000D01*
X361534800Y-118932000D02*
X361534800Y-98678400D01*
X361824200Y-178658000D02*
X361534800Y-178368600D01*
X361534800Y-98678400D02*
X359773600Y-96917200D01*
X359940500Y-61231100D02*
X359717900Y-61008500D01*
X361534800Y-178368600D02*
X361534800Y-118932000D01*
X362369900Y-179203700D02*
X362369900Y-238084300D01*
X361534800Y-118932000D02*
X361809900Y-118932000D01*
X364000200Y-300686300D02*
X364000200Y-358864300D01*
X363429000Y-293567000D02*
X361705900Y-295290100D01*
X359940500Y-81155100D02*
X359940500Y-61231100D01*
X359773600Y-96917200D02*
X359773600Y-81322000D01*
%TO.N,/Neuron6_10/IN3*%
X359631400Y-340801900D02*
X359349000Y-340519500D01*
X359631400Y-342396800D02*
X359631400Y-340801900D01*
X354249000Y-73236200D02*
X354695100Y-73682300D01*
X353270500Y-246794900D02*
X353270500Y-187222500D01*
X359349000Y-340519500D02*
X359349000Y-310137300D01*
X354695100Y-73682300D02*
X354695100Y-87372000D01*
X354695100Y-87372000D02*
X354243200Y-87823900D01*
X358629400Y-252153800D02*
X353270500Y-246794900D01*
X359179900Y-342848300D02*
X359631400Y-342396800D01*
X354243200Y-87823900D02*
X354243200Y-129316700D01*
X359179900Y-369694900D02*
X359179900Y-342848300D01*
X354243200Y-129316700D02*
X355903000Y-130976500D01*
X359681800Y-370196800D02*
X359179900Y-369694900D01*
%TO.N,/Neuron6_10/IN4*%
X363817500Y-377779100D02*
X364738200Y-376858400D01*
X359563800Y-144107900D02*
X359563800Y-137813200D01*
X359774700Y-166530800D02*
X358655700Y-165411800D01*
X359563800Y-137813200D02*
X359457600Y-137707000D01*
X358655700Y-156081600D02*
X359115600Y-155621700D01*
X359115600Y-155621700D02*
X359115600Y-144556100D01*
X364738200Y-376858400D02*
X364738200Y-318329500D01*
X358655700Y-165411800D02*
X358655700Y-156081600D01*
X359774700Y-176139600D02*
X359774700Y-166530800D01*
X360908600Y-177273500D02*
X359774700Y-176139600D01*
X361536200Y-195143000D02*
X360908600Y-194515400D01*
X361536200Y-196991500D02*
X361536200Y-195143000D01*
X359115600Y-144556100D02*
X359563800Y-144107900D01*
X360908600Y-194515400D02*
X360908600Y-177273500D01*
%TO.N,/Neuron6_10/IN5*%
X359760800Y-389522500D02*
X358685500Y-388447200D01*
X356560300Y-146601200D02*
X356077800Y-147083700D01*
X358761900Y-330717500D02*
X358398400Y-330354000D01*
X357100000Y-304292000D02*
X356930400Y-304292000D01*
X356077800Y-210712300D02*
X356324500Y-210959000D01*
X357100000Y-304292000D02*
X357100000Y-270650800D01*
X358685500Y-388447200D02*
X358685500Y-342664400D01*
X356077800Y-147083700D02*
X356077800Y-210712300D01*
X353516200Y-143557100D02*
X356560300Y-146601200D01*
X357100000Y-270650800D02*
X357276800Y-270474000D01*
X353516200Y-92830000D02*
X353516200Y-143557100D01*
X358761900Y-340796800D02*
X358761900Y-330717500D01*
X359123900Y-342226000D02*
X359123900Y-341158800D01*
X358685500Y-342664400D02*
X359123900Y-342226000D01*
X359123900Y-341158800D02*
X358761900Y-340796800D01*
X358398400Y-330354000D02*
X357100000Y-329055600D01*
X357100000Y-329055600D02*
X357100000Y-304292000D01*
%TO.N,/Neuron6_10/IN6*%
X355159300Y-214586000D02*
X355159300Y-243999700D01*
X361082900Y-100353100D02*
X359722900Y-98993100D01*
X361388800Y-256430600D02*
X362470900Y-257512700D01*
X355159300Y-243999700D02*
X361388800Y-250229200D01*
X361082900Y-155412900D02*
X361082900Y-100353100D01*
X343485300Y-349914700D02*
X348475200Y-354904600D01*
X348475200Y-354904600D02*
X348475200Y-396826100D01*
X362470900Y-257512700D02*
X362470900Y-275982100D01*
X359435400Y-157060400D02*
X361082900Y-155412900D01*
X361388800Y-250229200D02*
X361388800Y-256430600D01*
X362470900Y-275982100D02*
X361136000Y-277317000D01*
%TO.N,/Neuron6_13/IN1*%
X405240000Y-112821100D02*
X405134700Y-112715800D01*
X406256000Y-77308800D02*
X404749800Y-75802600D01*
X405936200Y-291626200D02*
X406191300Y-291371100D01*
X405134700Y-112715800D02*
X405134700Y-95111500D01*
X406191300Y-231605200D02*
X406205200Y-231605200D01*
X406191300Y-210083000D02*
X405277400Y-209169100D01*
X406191300Y-291371100D02*
X406191300Y-231605200D01*
X404749800Y-55678000D02*
X405634400Y-54793400D01*
X406256000Y-89583300D02*
X406256000Y-77308800D01*
X406191300Y-231605200D02*
X406191300Y-210083000D01*
X405774900Y-90064400D02*
X406256000Y-89583300D01*
X406624200Y-351584200D02*
X406423900Y-351383900D01*
X406423900Y-351383900D02*
X406423900Y-292113900D01*
X406423900Y-292113900D02*
X405936200Y-291626200D01*
X405134700Y-95111500D02*
X405774900Y-94471300D01*
X404749800Y-75802600D02*
X404749800Y-55678000D01*
X405277400Y-209169100D02*
X405277400Y-171589300D01*
X405774900Y-94471300D02*
X405774900Y-90064400D01*
%TO.N,/Neuron6_13/IN2*%
X409753800Y-95408800D02*
X409753800Y-81235700D01*
X409673400Y-118531000D02*
X410286400Y-117918000D01*
X411611100Y-318868000D02*
X411800000Y-318679100D01*
X409076000Y-138419400D02*
X409076000Y-150372700D01*
X411800000Y-300022700D02*
X409935200Y-298157900D01*
X410271100Y-119128700D02*
X410271100Y-137224300D01*
X409076000Y-150372700D02*
X409806100Y-151102800D01*
X410280900Y-157699900D02*
X410280900Y-177462000D01*
X409663400Y-238668000D02*
X412074600Y-241079200D01*
X411800000Y-318679100D02*
X411800000Y-300022700D01*
X409753800Y-81235700D02*
X409834400Y-81155100D01*
X410125200Y-102747400D02*
X410125200Y-95780200D01*
X411819400Y-296273700D02*
X409935200Y-298157900D01*
X412074600Y-241079200D02*
X412074600Y-292179200D01*
X409806100Y-151102800D02*
X409806100Y-157225200D01*
X410280800Y-157699900D02*
X410280900Y-157699900D01*
X410280900Y-177462000D02*
X409547400Y-178195500D01*
X409673400Y-118531000D02*
X410271100Y-119128700D01*
X409806100Y-157225200D02*
X410280800Y-157699900D01*
X410286400Y-102908600D02*
X410125200Y-102747400D01*
X411611100Y-358556000D02*
X411611100Y-318868000D01*
X410286400Y-117918000D02*
X410286400Y-102908600D01*
X410125200Y-95780200D02*
X409753800Y-95408800D01*
X411819400Y-292434400D02*
X411819400Y-296273700D01*
X412074600Y-292179200D02*
X411819400Y-292434400D01*
X409834400Y-81155100D02*
X409834400Y-61041900D01*
X409834400Y-61041900D02*
X409184400Y-60391900D01*
X410271100Y-137224300D02*
X409076000Y-138419400D01*
%TO.N,/Neuron6_13/IN3*%
X404460400Y-309609300D02*
X405245100Y-310394000D01*
X405245100Y-250514000D02*
X404460400Y-251298700D01*
X404189400Y-249458300D02*
X405245100Y-250514000D01*
X404546600Y-190634000D02*
X404189400Y-190991200D01*
X404881700Y-367524900D02*
X407385600Y-370028800D01*
X404460400Y-251298700D02*
X404460400Y-309609300D01*
X404881700Y-310757400D02*
X404881700Y-367524900D01*
X405245100Y-310394000D02*
X404881700Y-310757400D01*
X404189400Y-190991200D02*
X404189400Y-249458300D01*
%TO.N,/Neuron6_10/OUT*%
X408808100Y-137538400D02*
X408560200Y-137786300D01*
X409074000Y-137272500D02*
X409074000Y-136518537D01*
X405989000Y-116189000D02*
X405989000Y-109611000D01*
X411475900Y-376157100D02*
X411475900Y-375417700D01*
X407616463Y-95451700D02*
X409000000Y-94068163D01*
X408001200Y-153541100D02*
X408001200Y-156417400D01*
X409000000Y-94068163D02*
X409000000Y-79315100D01*
X410667600Y-357367600D02*
X410272400Y-356972400D01*
X406100000Y-128427463D02*
X408506700Y-126020763D01*
X411475900Y-375417700D02*
X410667600Y-374609400D01*
X409086300Y-300089900D02*
X409086300Y-296052700D01*
X408398400Y-156814600D02*
X408398400Y-169496600D01*
X411073100Y-302076700D02*
X409086300Y-300089900D01*
X409074000Y-136518537D02*
X406100000Y-133544537D01*
X408001200Y-156417400D02*
X408398400Y-156814600D01*
X407339200Y-267668800D02*
X407713500Y-267294500D01*
X408560200Y-137786300D02*
X408560200Y-152982100D01*
X408506700Y-126020763D02*
X408506700Y-118706700D01*
X409240900Y-295898100D02*
X409240900Y-284178500D01*
X411073100Y-316991000D02*
X411073100Y-302076700D01*
X410272400Y-355135400D02*
X411073100Y-354334700D01*
X408808100Y-137538400D02*
X409074000Y-137272500D01*
X409086300Y-296052700D02*
X409240900Y-295898100D01*
X405950600Y-171944400D02*
X405950600Y-196898500D01*
X407713500Y-267294500D02*
X407713500Y-259441900D01*
X406100000Y-133544537D02*
X406100000Y-128427463D01*
X407713500Y-259441900D02*
X409663400Y-257492000D01*
X410141000Y-377492000D02*
X411475900Y-376157100D01*
X405989000Y-109611000D02*
X407616463Y-107983537D01*
X410272400Y-356972400D02*
X410272400Y-355135400D01*
X410667600Y-374609400D02*
X410667600Y-357367600D01*
X408506700Y-118706700D02*
X405989000Y-116189000D01*
X408560200Y-152982100D02*
X408001200Y-153541100D01*
X407339200Y-282276800D02*
X407339200Y-267668800D01*
X411073100Y-354334700D02*
X411073100Y-316991000D01*
X407616463Y-107983537D02*
X407616463Y-95451700D01*
X408398400Y-169496600D02*
X405950600Y-171944400D01*
X405950600Y-196898500D02*
X407670100Y-198618000D01*
X409240900Y-284178500D02*
X407339200Y-282276800D01*
%TO.N,/Neuron6_11/OUT*%
X403517400Y-94287000D02*
X405047900Y-92756500D01*
X403517400Y-150547900D02*
X403517400Y-94287000D01*
X405972000Y-304172000D02*
X405658800Y-304172000D01*
X403683500Y-150714000D02*
X403517400Y-150547900D01*
X405451500Y-270395700D02*
X405159100Y-270688100D01*
X405972000Y-304172000D02*
X405972000Y-328873200D01*
X405159100Y-296810700D02*
X405972000Y-297623600D01*
X405972000Y-297623600D02*
X405972000Y-304172000D01*
X405159100Y-270688100D02*
X405159100Y-296810700D01*
X405972000Y-328873200D02*
X405694100Y-329151100D01*
%TO.N,/Neuron6_12/OUT*%
X409757800Y-236589200D02*
X409757800Y-216459200D01*
X410434200Y-241087400D02*
X408911000Y-239564200D01*
X410736800Y-215480200D02*
X410736800Y-157128000D01*
X410736800Y-157128000D02*
X410533000Y-156924200D01*
X411060900Y-254971800D02*
X410434200Y-254345100D01*
X410838100Y-107072300D02*
X411020500Y-106889900D01*
X410838100Y-156619100D02*
X410838100Y-107072300D01*
X408911000Y-239564200D02*
X408911000Y-237436000D01*
X410533000Y-156924200D02*
X410838100Y-156619100D01*
X409708000Y-276805000D02*
X411060900Y-275452100D01*
X409757800Y-216459200D02*
X410736800Y-215480200D01*
X408911000Y-237436000D02*
X409757800Y-236589200D01*
X411060900Y-275452100D02*
X411060900Y-254971800D01*
X410434200Y-254345100D02*
X410434200Y-241087400D01*
%TO.N,/Neuron6_13/OUT*%
X462947900Y-316294500D02*
X462342900Y-315689500D01*
X461647000Y-290306500D02*
X461647000Y-231695200D01*
X462342900Y-291516000D02*
X462599700Y-291259200D01*
X461647000Y-231695200D02*
X462140200Y-231202000D01*
X462342900Y-315689500D02*
X462342900Y-291516000D01*
X462599700Y-291259200D02*
X461647000Y-290306500D01*
X462947900Y-350772900D02*
X462947900Y-316294500D01*
X462599700Y-291259200D02*
X463060800Y-291259200D01*
%TO.N,/Neuron6_14/OUT*%
X465784800Y-117638400D02*
X465046500Y-118376700D01*
X465525000Y-99181000D02*
X465784800Y-99440800D01*
X467362400Y-237982800D02*
X467362400Y-294997400D01*
X467096100Y-237716500D02*
X467096100Y-192027200D01*
X465475800Y-60168900D02*
X465707500Y-60400600D01*
X465525000Y-98457400D02*
X465525000Y-99181000D01*
X465165700Y-297194100D02*
X465165700Y-298420000D01*
X465707500Y-60400600D02*
X465707500Y-98274900D01*
X467096100Y-237716500D02*
X467362400Y-237982800D01*
X467096100Y-237716500D02*
X466137200Y-237716500D01*
X465784800Y-99440800D02*
X465784800Y-117638400D01*
X465707500Y-98274900D02*
X465525000Y-98457400D01*
X467362400Y-294997400D02*
X465165700Y-297194100D01*
X467096100Y-192027200D02*
X465754100Y-190685200D01*
X465754100Y-190685200D02*
X465754100Y-177570800D01*
%TO.N,/Neuron6_15/OUT*%
X460734100Y-130420100D02*
X461186000Y-130872000D01*
X460537000Y-72780300D02*
X460311800Y-73005500D01*
X460311800Y-89912300D02*
X460734100Y-90334600D01*
X463119300Y-292564400D02*
X463800100Y-291883600D01*
X463800100Y-290824600D02*
X462373900Y-289398400D01*
X463119300Y-310571800D02*
X463119300Y-292564400D01*
X463800100Y-291883600D02*
X463800100Y-290824600D01*
X460734100Y-90334600D02*
X460734100Y-130420100D01*
X462373900Y-289398400D02*
X462373900Y-250138000D01*
X460311800Y-73005500D02*
X460311800Y-89912300D01*
%TO.N,/Neuron6_16/OUT*%
X464305200Y-119667400D02*
X464305200Y-134785400D01*
X463963800Y-117278200D02*
X463963800Y-119326000D01*
X464519400Y-116722600D02*
X463963800Y-117278200D01*
X462218100Y-327700000D02*
X462218100Y-374997600D01*
X462224800Y-148502900D02*
X462224800Y-193142800D01*
X465250700Y-98092600D02*
X464519400Y-98823900D01*
X462218100Y-374997600D02*
X464449500Y-377229000D01*
X462007400Y-316382000D02*
X462452900Y-316827500D01*
X463798200Y-135292400D02*
X463798200Y-146929500D01*
X462224800Y-193142800D02*
X465596100Y-196514100D01*
X464860400Y-79122000D02*
X465250700Y-79512300D01*
X463963800Y-119326000D02*
X464305200Y-119667400D01*
X465596100Y-196514100D02*
X459495900Y-202614300D01*
X464305200Y-134785400D02*
X463798200Y-135292400D01*
X464519400Y-98823900D02*
X464519400Y-116722600D01*
X462452900Y-316827500D02*
X462452900Y-327465200D01*
X465596100Y-196514100D02*
X465716700Y-196514100D01*
X463798200Y-146929500D02*
X462224800Y-148502900D01*
X465250700Y-79512300D02*
X465250700Y-98092600D01*
X459495900Y-202614300D02*
X459495900Y-250514000D01*
X462452900Y-327465200D02*
X462218100Y-327700000D01*
%TO.N,/Neuron6_17/OUT*%
X460007100Y-149036100D02*
X461168000Y-150197000D01*
X453844900Y-294744100D02*
X453844900Y-330025000D01*
X453844900Y-330025000D02*
X453845000Y-330025000D01*
X460007100Y-91997400D02*
X460007100Y-149036100D01*
X444900400Y-285799600D02*
X453844900Y-294744100D01*
%TO.N,/Neuron6_18/OUT*%
X466279100Y-98907200D02*
X466279100Y-156225300D01*
X468561000Y-274139000D02*
X468561000Y-335839000D01*
X467843400Y-188218300D02*
X466906600Y-187281500D01*
X469300000Y-273400000D02*
X468561000Y-274139000D01*
X467675000Y-216750400D02*
X467675000Y-237175000D01*
X467843400Y-216582000D02*
X467843400Y-188218300D01*
X468561000Y-335839000D02*
X467800000Y-336600000D01*
X467675000Y-237175000D02*
X468421000Y-237921000D01*
X468421000Y-237921000D02*
X468421000Y-272521000D01*
X466279100Y-156225300D02*
X465876300Y-156628100D01*
X466906600Y-157658400D02*
X465876300Y-156628100D01*
X468421000Y-272521000D02*
X469300000Y-273400000D01*
X467843400Y-216582000D02*
X467675000Y-216750400D01*
X466906600Y-187281500D02*
X466906600Y-157658400D01*
%TO.N,/S1*%
X39782800Y-21717700D02*
X38777300Y-20712200D01*
X39782800Y-32401900D02*
X39907500Y-32526600D01*
X39824900Y-38661800D02*
X39824900Y-42270600D01*
X39824900Y-42270600D02*
X40373100Y-42818800D01*
X34571700Y-86333200D02*
X34571700Y-77625100D01*
X40373100Y-42818800D02*
X42727300Y-45173000D01*
D17*
X111066950Y-30000000D02*
X98000000Y-30000000D01*
D15*
X35871300Y-55125000D02*
X36146400Y-55400100D01*
X36146400Y-55400100D02*
X36146400Y-64779400D01*
X39782800Y-32401900D02*
X39782800Y-21717700D01*
X39907500Y-38579200D02*
X39824900Y-38661800D01*
X39907500Y-32526600D02*
X39907500Y-38579200D01*
X41773500Y-54243200D02*
X41564300Y-54243200D01*
X35308500Y-87070000D02*
X34571700Y-86333200D01*
X34571700Y-77625100D02*
X35334800Y-76862000D01*
D17*
X119666950Y-38600000D02*
X111066950Y-30000000D01*
D15*
X42727300Y-45173000D02*
X42727300Y-53289400D01*
X36146400Y-64779400D02*
X35871300Y-65054500D01*
X42727300Y-53289400D02*
X41773500Y-54243200D01*
D17*
X130000000Y-38600000D02*
X119666950Y-38600000D01*
D15*
X39782800Y-32401900D02*
X38910200Y-32401900D01*
%TO.N,/S2*%
X47275300Y-75091400D02*
X47275300Y-80959100D01*
X47275300Y-75091400D02*
X47006800Y-75091400D01*
X47006800Y-75091400D02*
X46841600Y-74926200D01*
X48607800Y-74178300D02*
X47694700Y-75091400D01*
X48607800Y-63987800D02*
X48607800Y-74178300D01*
X47877600Y-63257600D02*
X48607800Y-63987800D01*
X47694700Y-75091400D02*
X47275300Y-75091400D01*
%TO.N,/S3*%
X45478400Y-54826800D02*
X45343300Y-54691700D01*
X45343300Y-54691700D02*
X45343300Y-33210300D01*
X45343300Y-33210300D02*
X46078600Y-32475000D01*
%TO.N,/W111*%
X61049800Y-94383100D02*
X60807500Y-94625400D01*
X61049800Y-68423300D02*
X61049800Y-94383100D01*
%TO.N,/VariableWeights/CS113*%
X51025000Y-105845000D02*
X52985700Y-103884300D01*
X68007000Y-88531500D02*
X68007000Y-64972100D01*
X60799800Y-95738700D02*
X68007000Y-88531500D01*
X52985700Y-103884300D02*
X52985700Y-103308800D01*
X52985700Y-103308800D02*
X60555800Y-95738700D01*
X68007000Y-64972100D02*
X72236000Y-60743100D01*
X60555800Y-95738700D02*
X60799800Y-95738700D01*
X72236000Y-60743100D02*
X72236000Y-58210500D01*
%TO.N,/W115*%
X73025000Y-122770000D02*
X73025000Y-87262200D01*
%TO.N,/W116*%
X72371800Y-86469500D02*
X72298100Y-86543200D01*
X72298100Y-86543200D02*
X72298100Y-129073500D01*
X72298100Y-129073500D02*
X72369600Y-129145000D01*
%TO.N,/VariableWeights/CS121*%
X58724600Y-108557200D02*
X59386800Y-107895000D01*
X59386800Y-107895000D02*
X59686400Y-107895000D01*
X68677400Y-66932000D02*
X74080700Y-61528700D01*
X58724600Y-126056500D02*
X58724600Y-108557200D01*
X68677400Y-98904000D02*
X68677400Y-66932000D01*
X59686400Y-107895000D02*
X68677400Y-98904000D01*
X74080700Y-61528700D02*
X74080700Y-60875000D01*
X50636100Y-134145000D02*
X58724600Y-126056500D01*
%TO.N,/W122*%
X64381600Y-144285000D02*
X64381600Y-114250000D01*
X64381500Y-144285000D02*
X64381600Y-144285000D01*
%TO.N,/VariableWeights/CS123*%
X71751700Y-69627200D02*
X71751700Y-75167100D01*
X84301700Y-57001800D02*
X78428700Y-62874800D01*
X78428700Y-63069100D02*
X77251600Y-64246200D01*
X71751700Y-75167100D02*
X71627800Y-75291000D01*
X77251600Y-64246200D02*
X77132700Y-64246200D01*
X77132700Y-64246200D02*
X71751700Y-69627200D01*
X71627800Y-75291000D02*
X71627800Y-147550000D01*
X84496000Y-57001800D02*
X84301700Y-57001800D01*
X78428700Y-62874800D02*
X78428700Y-63069100D01*
%TO.N,/W123*%
X60815000Y-151485000D02*
X63205800Y-149094200D01*
X63205800Y-149094200D02*
X63205800Y-138481200D01*
%TO.N,/VariableWeights/CS125*%
X87462400Y-58968500D02*
X87462400Y-160187000D01*
X85522000Y-57028100D02*
X87462400Y-58968500D01*
%TO.N,/VariableWeights/CS132*%
X74203900Y-73799700D02*
X73919800Y-73515600D01*
X73919800Y-73515600D02*
X73919800Y-72523600D01*
X81510600Y-64932800D02*
X81510600Y-61000800D01*
X73919800Y-72523600D02*
X81510600Y-64932800D01*
X74203900Y-182366200D02*
X74203900Y-73799700D01*
X74489300Y-182651600D02*
X74203900Y-182366200D01*
%TO.N,/VariableWeights/CS136*%
X43264700Y-92118700D02*
X43264700Y-201190800D01*
X43154800Y-92008800D02*
X43264700Y-92118700D01*
X40266500Y-78393100D02*
X42702900Y-80829500D01*
X43264700Y-201190800D02*
X50812500Y-208738600D01*
X42702900Y-82966400D02*
X43154800Y-83418300D01*
X42702900Y-80829500D02*
X42702900Y-82966400D01*
X43154800Y-83418300D02*
X43154800Y-92008800D01*
%TO.N,/VariableWeights/CS141*%
X40180500Y-79445700D02*
X42251000Y-81516200D01*
X42812800Y-92305900D02*
X42812800Y-210655300D01*
X42812800Y-210655300D02*
X49797500Y-217640000D01*
X42251000Y-81516200D02*
X42251000Y-83153600D01*
X42702900Y-83605500D02*
X42702900Y-92196000D01*
X42702900Y-92196000D02*
X42812800Y-92305900D01*
X42251000Y-83153600D02*
X42702900Y-83605500D01*
%TO.N,/VariableWeights/CS144*%
X41909000Y-229029000D02*
X50525000Y-237645000D01*
X41799100Y-83979900D02*
X41799100Y-92570400D01*
X40336300Y-82288900D02*
X41037200Y-82989800D01*
X41909000Y-92680300D02*
X41909000Y-229029000D01*
X41037200Y-82989800D02*
X41037200Y-83218000D01*
X40266500Y-82288900D02*
X40336300Y-82288900D01*
X41037200Y-83218000D02*
X41799100Y-83979900D01*
X41799100Y-92570400D02*
X41909000Y-92680300D01*
%TO.N,/VariableWeights/CS145*%
X41457100Y-92867500D02*
X41457100Y-235814800D01*
X41347200Y-84167100D02*
X41347200Y-92757600D01*
X41347200Y-92757600D02*
X41457100Y-92867500D01*
X40310300Y-83290900D02*
X40471000Y-83290900D01*
X40471000Y-83290900D02*
X41347200Y-84167100D01*
X49687300Y-244045000D02*
X50425000Y-244045000D01*
X41457100Y-235814800D02*
X49687300Y-244045000D01*
%TO.N,/VariableWeights/CS146*%
X40620300Y-92669800D02*
X41005200Y-93054700D01*
X41005200Y-93054700D02*
X41005200Y-240950200D01*
X40620300Y-84468200D02*
X40620300Y-92669800D01*
X41005200Y-240950200D02*
X50700100Y-250645100D01*
%TO.N,/W155*%
X68015100Y-289640000D02*
X68015100Y-313270400D01*
%TO.N,/VariableWeights/CS156*%
X42360900Y-92493100D02*
X42360900Y-212005900D01*
X42251000Y-83792700D02*
X42251000Y-92383200D01*
X51444900Y-221089900D02*
X51444900Y-288886100D01*
X41799100Y-83340800D02*
X42251000Y-83792700D01*
X42251000Y-92383200D02*
X42360900Y-92493100D01*
X42360900Y-212005900D02*
X51444900Y-221089900D01*
X40266500Y-81027300D02*
X41799100Y-82559900D01*
X51444900Y-288886100D02*
X49333900Y-290997100D01*
X41799100Y-82559900D02*
X41799100Y-83340800D01*
%TO.N,/VariableWeights/CS164*%
X36146400Y-109878000D02*
X35482600Y-110541800D01*
X34781200Y-68496100D02*
X35684500Y-68496100D01*
X35765000Y-306850400D02*
X48936000Y-320021400D01*
X36146400Y-68958000D02*
X36146400Y-109878000D01*
X35482600Y-110541800D02*
X35482600Y-196119500D01*
X35482600Y-196119500D02*
X35765000Y-196401900D01*
X35684500Y-68496100D02*
X36146400Y-68958000D01*
X35765000Y-196401900D02*
X35765000Y-306850400D01*
%TO.N,/W164*%
X66733300Y-325010000D02*
X74797100Y-333073800D01*
X74797100Y-333073800D02*
X74797100Y-364286000D01*
%TO.N,/VariableWeights/CS165*%
X34119800Y-70574600D02*
X35419400Y-69275000D01*
X35313100Y-312722700D02*
X35313100Y-196589100D01*
X50674200Y-328083800D02*
X35313100Y-312722700D01*
X34119800Y-195395800D02*
X34119800Y-70574600D01*
X35313100Y-196589100D02*
X34119800Y-195395800D01*
%TO.N,/W165*%
X75726300Y-331410000D02*
X84383800Y-340067500D01*
X84383800Y-340067500D02*
X84383800Y-381506700D01*
%TO.N,/VariableWeights/CS166*%
X31500000Y-283700000D02*
X31500000Y-70900000D01*
X33700000Y-285900000D02*
X31500000Y-283700000D01*
X33700000Y-317600000D02*
X33700000Y-285900000D01*
X50300000Y-334200000D02*
X33700000Y-317600000D01*
X31500000Y-70900000D02*
X31900000Y-70500000D01*
%TO.N,/W166*%
X64716400Y-341803200D02*
X64716400Y-384134500D01*
X60823200Y-337910000D02*
X64716400Y-341803200D01*
%TO.N,/W211*%
X109211600Y-94194300D02*
X109211600Y-48356600D01*
%TO.N,/W212*%
X109353300Y-102982900D02*
X115618000Y-96718200D01*
X115618000Y-96718200D02*
X115618000Y-48475200D01*
%TO.N,/W213*%
X100995200Y-110746500D02*
X106781000Y-104960700D01*
X106781000Y-104960700D02*
X106781000Y-64320200D01*
%TO.N,/W214*%
X100264900Y-74892100D02*
X100264900Y-116345000D01*
X102287000Y-72870000D02*
X100264900Y-74892100D01*
%TO.N,/VariableWeights/CS215*%
X84877900Y-98388400D02*
X83628400Y-97138900D01*
X83628400Y-97138900D02*
X83628400Y-68924400D01*
X84877900Y-118967400D02*
X84877900Y-98388400D01*
X84405700Y-119439600D02*
X84877900Y-118967400D01*
%TO.N,/W216*%
X95285100Y-128194900D02*
X95285100Y-102032900D01*
X94235000Y-129245000D02*
X95285100Y-128194900D01*
%TO.N,/VariableWeights/CS221*%
X82834300Y-72954100D02*
X82834300Y-69652900D01*
X81640300Y-132450300D02*
X81640300Y-74148100D01*
X81640300Y-74148100D02*
X82834300Y-72954100D01*
X83230000Y-134040000D02*
X81640300Y-132450300D01*
%TO.N,/VariableWeights/CS222*%
X82092200Y-131178500D02*
X82092200Y-76004700D01*
X84225000Y-133311300D02*
X82092200Y-131178500D01*
X82092200Y-76004700D02*
X82380200Y-75716700D01*
X84225000Y-140245000D02*
X84225000Y-133311300D01*
%TO.N,/W222*%
X98708600Y-104806000D02*
X98708600Y-140487300D01*
X98708600Y-140487300D02*
X94690700Y-144505200D01*
%TO.N,/VariableWeights/CS223*%
X81188400Y-73842200D02*
X81188400Y-144408400D01*
X82256200Y-71146400D02*
X82256200Y-72774400D01*
X81188400Y-144408400D02*
X84225000Y-147445000D01*
X82092200Y-70982400D02*
X82256200Y-71146400D01*
X82256200Y-72774400D02*
X81188400Y-73842200D01*
%TO.N,/VariableWeights/CS224*%
X77534200Y-147588000D02*
X77534200Y-70470100D01*
X77534200Y-70470100D02*
X77363900Y-70299800D01*
X84368300Y-154422100D02*
X77534200Y-147588000D01*
%TO.N,/VariableWeights/CS225*%
X85385900Y-159839900D02*
X84288800Y-160937000D01*
X85385900Y-71709400D02*
X85385900Y-159839900D01*
%TO.N,/VariableWeights/CS226*%
X74940400Y-157728500D02*
X84487300Y-167275400D01*
X74646700Y-73214600D02*
X74940400Y-73508300D01*
X74940400Y-73508300D02*
X74940400Y-157728500D01*
%TO.N,/VariableWeights/CS232*%
X41143900Y-58831100D02*
X41764500Y-59451700D01*
X41347200Y-70479300D02*
X41347200Y-73044300D01*
X39441400Y-98092300D02*
X40553300Y-99204200D01*
X41347200Y-73044300D02*
X39441400Y-74950100D01*
X40553300Y-99204200D02*
X40553300Y-180636900D01*
X40755700Y-62180600D02*
X40755700Y-69887800D01*
X40553300Y-180636900D02*
X40278200Y-180912000D01*
X41143900Y-58128800D02*
X41143900Y-58831100D01*
X39441400Y-74950100D02*
X39441400Y-98092300D01*
X40755700Y-69887800D02*
X41347200Y-70479300D01*
X41764500Y-61171800D02*
X40755700Y-62180600D01*
X41764500Y-59451700D02*
X41764500Y-61171800D01*
%TO.N,/VariableWeights/CS262*%
X36598300Y-50132200D02*
X36598300Y-110864700D01*
X35934500Y-195932300D02*
X36216900Y-196214700D01*
X36216900Y-305213100D02*
X37852600Y-306848800D01*
X36598300Y-110864700D02*
X35934500Y-111528500D01*
X35934500Y-111528500D02*
X35934500Y-195932300D01*
X35891100Y-49425000D02*
X36598300Y-50132200D01*
X36216900Y-196214700D02*
X36216900Y-305213100D01*
%TO.N,/VariableWeights/CS266*%
X43606700Y-83231100D02*
X43606700Y-91821600D01*
X43606700Y-91821600D02*
X43716600Y-91931500D01*
X43154800Y-56861600D02*
X43154800Y-82779200D01*
X61475500Y-210211600D02*
X61475500Y-222664500D01*
X40837400Y-52402200D02*
X40837400Y-54544200D01*
X40837400Y-54544200D02*
X43154800Y-56861600D01*
X61944600Y-311951900D02*
X82503800Y-332511100D01*
X61944600Y-223133500D02*
X61944600Y-311951900D01*
X43716600Y-91931500D02*
X43716600Y-192452700D01*
X40858900Y-52380700D02*
X40837400Y-52402200D01*
X43716600Y-192452700D02*
X61475500Y-210211600D01*
X43154800Y-82779200D02*
X43606700Y-83231100D01*
X61475500Y-222664500D02*
X61944500Y-223133500D01*
X61944500Y-223133500D02*
X61944600Y-223133500D01*
%TO.N,/W266*%
X308263400Y-380376900D02*
X299190900Y-371304400D01*
X299190900Y-371304400D02*
X299190900Y-347485100D01*
%TO.N,/VariableWeights/CS253*%
X45414300Y-85412800D02*
X47252500Y-87251000D01*
X44962400Y-75767800D02*
X44962400Y-82030400D01*
X47076000Y-68987400D02*
X46762200Y-69301200D01*
X46762200Y-69301200D02*
X46762200Y-69903200D01*
X47252500Y-161654600D02*
X62929300Y-177331400D01*
X47076000Y-70217000D02*
X47076000Y-73654200D01*
X47076000Y-73654200D02*
X44962400Y-75767800D01*
X46072700Y-61375000D02*
X47076000Y-62378300D01*
X46762200Y-69903200D02*
X47076000Y-70217000D01*
X45414300Y-82482300D02*
X45414300Y-85412800D01*
X47252500Y-87251000D02*
X47252500Y-161654600D01*
X44962400Y-82030400D02*
X45414300Y-82482300D01*
X62929300Y-251282500D02*
X83726800Y-272080000D01*
X62929300Y-177331400D02*
X62929300Y-251282500D01*
X47076000Y-62378300D02*
X47076000Y-68987400D01*
%TO.N,/VariableWeights/CS242*%
X38537600Y-63118900D02*
X38812600Y-62843900D01*
X38537600Y-146772100D02*
X38537600Y-63118900D01*
X38684900Y-221863600D02*
X38684900Y-203308800D01*
X38535600Y-223130700D02*
X38535600Y-222012900D01*
X38684900Y-223280000D02*
X38535600Y-223130700D01*
X38693900Y-185826700D02*
X38693900Y-167481300D01*
X38693900Y-167481300D02*
X39646500Y-166528700D01*
X39646500Y-147881000D02*
X38537600Y-146772100D01*
X38777100Y-185909900D02*
X38693900Y-185826700D01*
X38777100Y-187385700D02*
X38777100Y-185909900D01*
X38684900Y-203308800D02*
X38585400Y-203209300D01*
X39646500Y-166528700D02*
X39646500Y-147881000D01*
X38585400Y-203209300D02*
X38585400Y-187577400D01*
X38535600Y-222012900D02*
X38684900Y-221863600D01*
X38585400Y-187577400D02*
X38777100Y-187385700D01*
D17*
%TO.N,/VariableWeights/CS244*%
X82900000Y-236300000D02*
X75189300Y-228589300D01*
X75189300Y-163210700D02*
X76300000Y-162100000D01*
X75189300Y-228589300D02*
X75189300Y-163210700D01*
D15*
%TO.N,/VariableWeights/CS245*%
X49585900Y-82009700D02*
X49585900Y-59784500D01*
X48990200Y-141937400D02*
X48990200Y-82605400D01*
X84624200Y-243650700D02*
X73752000Y-232778500D01*
X48990200Y-82605400D02*
X49585900Y-82009700D01*
X73752000Y-232778500D02*
X73752000Y-166699200D01*
X73752000Y-166699200D02*
X48990200Y-141937400D01*
X49585900Y-59784500D02*
X48576400Y-58775000D01*
%TO.N,/VariableWeights/CS246*%
X48431700Y-60261900D02*
X49134000Y-60964200D01*
X48538300Y-82192900D02*
X48538300Y-154737900D01*
X72004900Y-238209000D02*
X83964100Y-250168200D01*
X49134000Y-60964200D02*
X49134000Y-81597200D01*
X72004900Y-178204500D02*
X72004900Y-238209000D01*
X49134000Y-81597200D02*
X48538300Y-82192900D01*
X48538300Y-154737900D02*
X72004900Y-178204500D01*
%TO.N,/VariableWeights/CS311*%
X57872200Y-54980100D02*
X50234800Y-47342700D01*
X57872200Y-89858200D02*
X57872200Y-54980100D01*
%TO.N,/W311*%
X136322300Y-52600500D02*
X140567900Y-48354900D01*
X136322300Y-95085000D02*
X136322300Y-52600500D01*
%TO.N,/VariableWeights/CS312*%
X50699700Y-50741600D02*
X50699700Y-95092000D01*
X48041800Y-48083700D02*
X50699700Y-50741600D01*
%TO.N,/VariableWeights/CS313*%
X49470200Y-83403600D02*
X49470200Y-103871500D01*
X49470200Y-103871500D02*
X50648800Y-105050100D01*
X50186600Y-82687200D02*
X49470200Y-83403600D01*
X50186600Y-51924300D02*
X50186600Y-82687200D01*
X46783800Y-48521500D02*
X50186600Y-51924300D01*
%TO.N,/W315*%
X134312000Y-120987200D02*
X134312000Y-88838000D01*
X132549200Y-122750000D02*
X134312000Y-120987200D01*
%TO.N,/W321*%
X135231700Y-133355900D02*
X135231700Y-107619500D01*
X132107600Y-136480000D02*
X135231700Y-133355900D01*
%TO.N,/VariableWeights/CS322*%
X124681600Y-138388400D02*
X122925000Y-140145000D01*
X124681600Y-56395900D02*
X124681600Y-138388400D01*
%TO.N,/VariableWeights/CS323*%
X41312200Y-59638500D02*
X41312200Y-60985000D01*
X40249800Y-62047400D02*
X40249800Y-70261100D01*
X40895300Y-70906600D02*
X40895300Y-71526100D01*
X38989500Y-73262400D02*
X38989500Y-145968100D01*
X40469500Y-71951900D02*
X40300000Y-71951900D01*
X40132000Y-52079700D02*
X40132000Y-58458300D01*
X41312200Y-60985000D02*
X40249800Y-62047400D01*
X40309600Y-51902100D02*
X40132000Y-52079700D01*
X40309600Y-44422200D02*
X40309600Y-51902100D01*
X38989500Y-145968100D02*
X39826300Y-146804900D01*
X40895300Y-71526100D02*
X40469500Y-71951900D01*
X39113300Y-43225900D02*
X40309600Y-44422200D01*
X40300000Y-71951900D02*
X38989500Y-73262400D01*
X39113300Y-36940400D02*
X39113300Y-43225900D01*
X40132000Y-58458300D02*
X41312200Y-59638500D01*
X40249800Y-70261100D02*
X40895300Y-70906600D01*
%TO.N,/VariableWeights/CS342*%
X118726500Y-41198600D02*
X116181700Y-38653800D01*
X116181700Y-38653800D02*
X115134800Y-38653800D01*
X122730000Y-223350000D02*
X118726500Y-219346500D01*
X118726500Y-219346500D02*
X118726500Y-41198600D01*
%TO.N,/VariableWeights/CS343*%
X117798600Y-225618600D02*
X117798600Y-41350800D01*
X122730000Y-230550000D02*
X117798600Y-225618600D01*
X117798600Y-41350800D02*
X115918500Y-39470700D01*
%TO.N,/VariableWeights/CS344*%
X116555900Y-231175900D02*
X116555900Y-43402700D01*
X116555800Y-43402700D02*
X112985800Y-39832700D01*
X122530000Y-237150000D02*
X116555900Y-231175900D01*
X116555900Y-43402700D02*
X116555800Y-43402700D01*
%TO.N,/VariableWeights/CS351*%
X38323000Y-186094900D02*
X38323000Y-187200700D01*
X35904400Y-25947400D02*
X37502100Y-27545100D01*
X38239100Y-167297000D02*
X38239100Y-186011000D01*
X37502100Y-164382700D02*
X37502200Y-164382700D01*
X37956400Y-221953000D02*
X37956400Y-249304700D01*
X38323000Y-187200700D02*
X38133500Y-187390200D01*
X37502200Y-164382700D02*
X39026700Y-165907200D01*
X39026700Y-165907200D02*
X39026700Y-166509400D01*
X38133500Y-187390200D02*
X38133500Y-203396500D01*
X38239100Y-186011000D02*
X38323000Y-186094900D01*
X38232900Y-203495900D02*
X38232900Y-221676500D01*
X37956400Y-249304700D02*
X42420200Y-253768500D01*
X37502100Y-27545100D02*
X37502100Y-164382700D01*
X38133500Y-203396500D02*
X38232900Y-203495900D01*
X38232900Y-221676500D02*
X37956400Y-221953000D01*
X39026700Y-166509400D02*
X38239100Y-167297000D01*
%TO.N,/VariableWeights/CS353*%
X33667900Y-30774600D02*
X34147200Y-30295300D01*
X33667900Y-270618500D02*
X33667900Y-30774600D01*
X34586100Y-271536700D02*
X33667900Y-270618500D01*
%TO.N,/VariableWeights/CS354*%
X108484700Y-265304700D02*
X108484700Y-32370000D01*
X122355600Y-279175600D02*
X108484700Y-265304700D01*
%TO.N,/VariableWeights/CS355*%
X33216000Y-29932100D02*
X33216000Y-282284600D01*
X34671200Y-28476900D02*
X33216000Y-29932100D01*
%TO.N,/VariableWeights/CS356*%
X36386500Y-195745200D02*
X36669000Y-196027700D01*
X36386500Y-111940900D02*
X36386500Y-195745200D01*
X37050200Y-111277200D02*
X36386500Y-111940900D01*
X36669000Y-196027700D02*
X36669000Y-291757700D01*
X37050200Y-30379200D02*
X37050200Y-111277200D01*
X36669000Y-291757700D02*
X37363100Y-292451800D01*
X35896000Y-29225000D02*
X37050200Y-30379200D01*
%TO.N,/W356*%
X131157400Y-300272400D02*
X135294800Y-304409800D01*
X135294800Y-304409800D02*
X135294800Y-321080800D01*
X131157400Y-295650000D02*
X131157400Y-300272400D01*
%TO.N,/W361*%
X144554500Y-304406000D02*
X144554500Y-342890900D01*
%TO.N,/W362*%
X358368100Y-341658900D02*
X355844300Y-339135100D01*
X355844300Y-339135100D02*
X355844300Y-323289000D01*
%TO.N,/W363*%
X130601400Y-318580000D02*
X130601400Y-320474000D01*
X130601400Y-320474000D02*
X133442500Y-323315100D01*
X133442500Y-323315100D02*
X133442500Y-358157800D01*
%TO.N,/W364*%
X137373800Y-327883100D02*
X137373800Y-359585100D01*
X134235500Y-324744800D02*
X137373800Y-327883100D01*
%TO.N,/W365*%
X134826500Y-331360100D02*
X134826500Y-382472100D01*
X134204200Y-330737800D02*
X134826500Y-331360100D01*
%TO.N,/VariableWeights/CS411*%
X48328700Y-30766700D02*
X48328700Y-46849400D01*
X56008600Y-54529300D02*
X56008600Y-87993900D01*
X46399000Y-28837000D02*
X48328700Y-30766700D01*
X48328700Y-46849400D02*
X56008600Y-54529300D01*
%TO.N,/VariableWeights/CS413*%
X44058600Y-82404800D02*
X44058600Y-30535500D01*
X46073700Y-106503600D02*
X46073700Y-92148600D01*
X44510500Y-90585400D02*
X44510500Y-82856700D01*
X44510500Y-82856700D02*
X44058600Y-82404800D01*
X44058600Y-30535500D02*
X43121800Y-29598700D01*
X46073700Y-92148600D02*
X44510500Y-90585400D01*
%TO.N,/VariableWeights/CS421*%
X160806300Y-48489200D02*
X160806300Y-134384000D01*
X154521000Y-17796600D02*
X154521000Y-42203900D01*
X154521000Y-42203900D02*
X160806300Y-48489200D01*
%TO.N,/W422*%
X181093200Y-108436100D02*
X181093200Y-137454300D01*
X181093200Y-137454300D02*
X174545000Y-144002500D01*
%TO.N,/VariableWeights/CS423*%
X162889200Y-146509200D02*
X162889200Y-119231800D01*
X163625000Y-147245000D02*
X162889200Y-146509200D01*
X162616500Y-25847400D02*
X162859400Y-25604500D01*
X162889200Y-119231800D02*
X162616500Y-118959100D01*
X162616500Y-118959100D02*
X162616500Y-25847400D01*
%TO.N,/W424*%
X405574800Y-128516800D02*
X405303500Y-128245500D01*
X405574800Y-141242700D02*
X405574800Y-128516800D01*
X405303500Y-127591900D02*
X407781700Y-125113700D01*
X405303500Y-128245500D02*
X405303500Y-127591900D01*
X404417400Y-142400100D02*
X405574800Y-141242700D01*
%TO.N,/VariableWeights/CS425*%
X162105700Y-26851100D02*
X162164600Y-26910000D01*
X162437100Y-158828600D02*
X164243000Y-160634500D01*
X162164600Y-119146300D02*
X162437100Y-119418800D01*
X162437100Y-119418800D02*
X162437100Y-158828600D01*
X162105700Y-16183900D02*
X162105700Y-26851100D01*
X162164600Y-26910000D02*
X162164600Y-119146300D01*
%TO.N,/VariableWeights/CS426*%
X38919600Y-164603500D02*
X37954000Y-163637900D01*
X37954000Y-22574500D02*
X38756200Y-21772300D01*
X37954000Y-163637900D02*
X37954000Y-22574500D01*
%TO.N,/VariableWeights/CS431*%
X159643300Y-14749400D02*
X161556200Y-16662300D01*
X161556200Y-16662300D02*
X161556200Y-26940700D01*
X161985200Y-119606000D02*
X161985200Y-174550200D01*
X159643300Y-14089100D02*
X159643300Y-14749400D01*
X161712700Y-119333500D02*
X161985200Y-119606000D01*
X161556200Y-26940700D02*
X161712700Y-27097200D01*
X161985200Y-174550200D02*
X162880000Y-175445000D01*
X161712700Y-27097200D02*
X161712700Y-119333500D01*
%TO.N,/VariableWeights/CS434*%
X43606700Y-82592000D02*
X44058600Y-83043900D01*
X42251600Y-41253800D02*
X43606700Y-42608900D01*
X43000800Y-17140000D02*
X42251600Y-17889200D01*
X43606700Y-42608900D02*
X43606700Y-82592000D01*
X44618900Y-192229600D02*
X45626600Y-193237300D01*
X44058600Y-83043900D02*
X44058600Y-91634400D01*
X42251600Y-17889200D02*
X42251600Y-41253800D01*
X44618900Y-92194700D02*
X44618900Y-192229600D01*
X44058600Y-91634400D02*
X44618900Y-92194700D01*
%TO.N,/VariableWeights/CS436*%
X158332300Y-22310800D02*
X158332300Y-24355900D01*
X162405800Y-207672800D02*
X162851000Y-208118000D01*
X162405800Y-194016700D02*
X162405800Y-207672800D01*
X161533300Y-119793200D02*
X161533300Y-193144200D01*
X161533300Y-193144200D02*
X162405800Y-194016700D01*
X158332300Y-24355900D02*
X161260800Y-27284400D01*
X161260800Y-119520700D02*
X161533300Y-119793200D01*
X161260800Y-27284400D02*
X161260800Y-119520700D01*
%TO.N,/VariableWeights/CS442*%
X44962400Y-87170700D02*
X44962400Y-82669500D01*
X46800600Y-89008900D02*
X44962400Y-87170700D01*
X62202400Y-190391600D02*
X46800600Y-174989800D01*
X44510500Y-82217600D02*
X44510500Y-20623500D01*
X46800600Y-174989800D02*
X46800600Y-89008900D01*
X44510500Y-20623500D02*
X43005200Y-19118200D01*
X62202400Y-222363500D02*
X62202400Y-190391600D01*
X44962400Y-82669500D02*
X44510500Y-82217600D01*
%TO.N,/VariableWeights/CS443*%
X158211600Y-46922500D02*
X156113100Y-44824000D01*
X158211600Y-225831600D02*
X158211600Y-46922500D01*
X162930000Y-230550000D02*
X158211600Y-225831600D01*
%TO.N,/VariableWeights/CS445*%
X162294500Y-243162700D02*
X156668300Y-237536500D01*
X156668300Y-237536500D02*
X156668300Y-54939800D01*
%TO.N,/VariableWeights/CS446*%
X155214500Y-59412200D02*
X142980000Y-47177700D01*
X155214500Y-242864500D02*
X155214500Y-59412200D01*
X162617500Y-250267500D02*
X155214500Y-242864500D01*
%TO.N,/VariableWeights/CS454*%
X143004100Y-259112800D02*
X143004100Y-53001800D01*
X162506700Y-278615400D02*
X143004100Y-259112800D01*
%TO.N,/VariableWeights/CS456*%
X162650000Y-291474000D02*
X142253100Y-271077100D01*
X142253100Y-271077100D02*
X142253100Y-45273900D01*
%TO.N,/W464*%
X186297800Y-324250000D02*
X195061800Y-333014000D01*
X195061800Y-333014000D02*
X195061800Y-361046400D01*
%TO.N,/W466*%
X187360300Y-348871000D02*
X175639300Y-337150000D01*
X187360300Y-379191000D02*
X187360300Y-348871000D01*
%TO.N,/W513*%
X446282100Y-70126600D02*
X446282100Y-104064000D01*
X453021800Y-63386900D02*
X446282100Y-70126600D01*
%TO.N,/VariableWeights/CS514*%
X206464000Y-111519900D02*
X207150900Y-112206800D01*
X206464000Y-23232800D02*
X206464000Y-111519900D01*
%TO.N,/W514*%
X228273100Y-65527300D02*
X228273100Y-105596500D01*
X228273100Y-105596500D02*
X217819600Y-116050000D01*
%TO.N,/VariableWeights/CS521*%
X205737100Y-132360600D02*
X205737100Y-21343600D01*
X205737100Y-21343600D02*
X205948700Y-21132000D01*
X206821500Y-133445000D02*
X205737100Y-132360600D01*
%TO.N,/VariableWeights/CS532*%
X207250000Y-181250000D02*
X202238700Y-176238700D01*
X202238700Y-176238700D02*
X202238700Y-18789400D01*
%TO.N,/VariableWeights/CS533*%
X99300000Y-33314900D02*
X99538000Y-33552900D01*
X99538000Y-33552900D02*
X99538000Y-188140000D01*
X99300000Y-31845500D02*
X99300000Y-33314900D01*
%TO.N,/VariableWeights/CS534*%
X201599500Y-21714700D02*
X199766600Y-19881800D01*
X201599500Y-189704500D02*
X201599500Y-21714700D01*
X206385500Y-194490500D02*
X201599500Y-189704500D01*
%TO.N,/W534*%
X218531800Y-198843300D02*
X227764500Y-189610600D01*
X227764500Y-189610600D02*
X227764500Y-179796800D01*
%TO.N,/W535*%
X224925100Y-225559400D02*
X226400200Y-227034500D01*
X224925100Y-205250000D02*
X224925100Y-225559400D01*
%TO.N,/VariableWeights/CS541*%
X199800300Y-26899600D02*
X199800300Y-210190300D01*
X199800300Y-210190300D02*
X206350000Y-216740000D01*
%TO.N,/VariableWeights/CS545*%
X74344839Y-29855161D02*
X75248600Y-28951400D01*
X89773100Y-28951400D02*
X91500000Y-27224500D01*
X75248600Y-28951400D02*
X89773100Y-28951400D01*
%TO.N,/VariableWeights/CS546*%
X73632372Y-29683744D02*
X77353916Y-25962200D01*
X73632372Y-30767628D02*
X73632372Y-29683744D01*
X77353916Y-25962200D02*
X85037800Y-25962200D01*
X85037800Y-25962200D02*
X86533900Y-24466100D01*
X86533900Y-24466100D02*
X88600000Y-24466100D01*
%TO.N,/VariableWeights/CS551*%
X206346800Y-258840000D02*
X198457900Y-250951100D01*
X198457900Y-250951100D02*
X198457900Y-24285800D01*
%TO.N,/VariableWeights/CS552*%
X86554978Y-25400000D02*
X85509139Y-26445839D01*
X133400000Y-28500000D02*
X133400000Y-28274695D01*
X133400000Y-28274695D02*
X130525305Y-25400000D01*
X130525305Y-25400000D02*
X86554978Y-25400000D01*
%TO.N,/VariableWeights/CS553*%
X81589600Y-27825000D02*
X86975000Y-27825000D01*
X81300000Y-27535400D02*
X81589600Y-27825000D01*
X86975000Y-27825000D02*
X87600000Y-27200000D01*
%TO.N,/VariableWeights/CS554*%
X84700000Y-27300000D02*
X86757537Y-27300000D01*
X86757537Y-27300000D02*
X87457537Y-26600000D01*
X87457537Y-26600000D02*
X89300000Y-26600000D01*
X89300000Y-26600000D02*
X90000000Y-27300000D01*
D17*
%TO.N,/VariableWeights/CS555*%
X130607107Y-29000000D02*
X128511607Y-26904500D01*
X90424100Y-29475900D02*
X85800000Y-29475900D01*
X128511607Y-26904500D02*
X92995500Y-26904500D01*
X92995500Y-26904500D02*
X90424100Y-29475900D01*
X132100000Y-29000000D02*
X130607107Y-29000000D01*
D15*
%TO.N,/W555*%
X461119300Y-299881800D02*
X461119300Y-316524000D01*
X461119300Y-316524000D02*
X461671900Y-317076600D01*
X461671900Y-317076600D02*
X461671900Y-320556700D01*
%TO.N,/VariableWeights/CS563*%
X185988800Y-40311200D02*
X186000000Y-40300000D01*
X186000000Y-40300000D02*
X184700000Y-39000000D01*
X185988800Y-153084500D02*
X185988800Y-40311200D01*
X184700000Y-39000000D02*
X184200000Y-39000000D01*
X186400000Y-153495700D02*
X185988800Y-153084500D01*
%TO.N,/W563*%
X226287900Y-326359300D02*
X226287900Y-362290000D01*
X218213600Y-318285000D02*
X226287900Y-326359300D01*
%TO.N,/VariableWeights/CS564*%
X190794700Y-45548400D02*
X190794700Y-305506100D01*
X190794700Y-305506100D02*
X206017500Y-320728900D01*
%TO.N,/VariableWeights/CS565*%
X196843800Y-46933000D02*
X196843800Y-310372800D01*
X196843800Y-310372800D02*
X206754300Y-320283300D01*
X206754300Y-327444600D02*
X206569500Y-327629400D01*
X206754300Y-320283300D02*
X206754300Y-327444600D01*
%TO.N,/W565*%
X217994800Y-332454800D02*
X217994800Y-381103800D01*
X216690000Y-331150000D02*
X217994800Y-332454800D01*
%TD*%
M02*
