M48
; DRILL file {KiCad (6.99.0-3937-g3e53426b6c)} date Mon Dec 16 03:44:17 2024
; FORMAT={-:-/ absolute / inch / decimal}
; #@! TF.CreationDate,2024-12-16T03:44:17-05:00
; #@! TF.GenerationSoftware,Kicad,Pcbnew,(6.99.0-3937-g3e53426b6c)
; #@! TF.FileFunction,Plated,1,10,PTH
FMAT,2
INCH
; #@! TA.AperFunction,Plated,PTH,ViaDrill
T1C0.0079
; #@! TA.AperFunction,Plated,PTH,ViaDrill
T2C0.0118
; #@! TA.AperFunction,Plated,PTH,ViaDrill
T3C0.0157
; #@! TA.AperFunction,Plated,PTH,ComponentDrill
T4C0.0197
%
G90
G05
T1
X1.563Y-2.752
X1.6072Y-3.0591
X1.6535Y-2.4331
X1.6929Y-1.0472
X1.7852Y-1.732
X1.8071Y-3.1496
X1.9695Y-3.6396
X1.9724Y-7.6603
X1.9803Y-7.9488
X1.993Y-12.1028
X1.993Y-12.3862
X1.9961Y-10.1654
X1.9961Y-10.4583
X1.9961Y-10.7417
X1.997Y-4.6789
X1.997Y-8.8128
X1.997Y-9.0963
X2.001Y-4.427
X2.001Y-4.9319
X2.001Y-7.1625
X2.001Y-7.4459
X2.0059Y-5.5256
X2.0059Y-5.8091
X2.0089Y-3.8837
X2.0089Y-4.1671
X2.1575Y-1.5079
X2.1575Y-1.5315
X2.3198Y-11.8587
X2.3198Y-11.9059
X2.3198Y-12.1579
X2.3198Y-12.2051
X2.3228Y-10.2142
X2.3228Y-10.2614
X2.3228Y-10.5134
X2.3228Y-10.5606
X2.3237Y-13.2012
X2.3237Y-13.2524
X2.3238Y-8.5687
X2.3238Y-8.6159
X2.3238Y-8.8679
X2.3238Y-8.9152
X2.3268Y-11.5567
X2.3268Y-11.6079
X2.3277Y-12.4413
X2.3277Y-12.4925
X2.3278Y-6.9184
X2.3278Y-6.9656
X2.3278Y-7.2176
X2.3278Y-7.2648
X2.3278Y-9.9112
X2.3278Y-9.9624
X2.3307Y-10.7969
X2.3307Y-10.848
X2.3317Y-8.2609
X2.3317Y-8.3121
X2.3317Y-9.1514
X2.3317Y-9.2026
X2.3327Y-5.2815
X2.3327Y-5.3287
X2.3327Y-5.5807
X2.3327Y-5.628
X2.3356Y-12.6894
X2.3356Y-12.7366
X2.3356Y-12.9492
X2.3356Y-12.9965
X2.3356Y-3.6396
X2.3356Y-3.6868
X2.3356Y-3.9388
X2.3356Y-3.986
X2.3356Y-7.5011
X2.3356Y-7.5522
X2.3366Y-6.624
X2.3366Y-6.6752
X2.3386Y-11.0449
X2.3386Y-11.0921
X2.3386Y-11.3047
X2.3386Y-11.352
X2.3396Y-4.9821
X2.3396Y-5.0333
X2.3396Y-9.3994
X2.3396Y-9.4467
X2.3396Y-9.6593
X2.3396Y-9.7065
X2.3406Y-5.8642
X2.3406Y-5.9154
X2.3435Y-4.2222
X2.3435Y-4.2734
X2.3435Y-7.7491
X2.3435Y-7.7963
X2.3435Y-8.0089
X2.3435Y-8.0562
X2.3484Y-6.1122
X2.3484Y-6.1594
X2.3484Y-6.372
X2.3484Y-6.4193
X2.3514Y-4.4703
X2.3514Y-4.5175
X2.3514Y-4.7301
X2.3514Y-4.7774
X2.3749Y-12.0122
X2.3749Y-12.3114
X2.378Y-10.3677
X2.378Y-10.6669
X2.3789Y-13.3547
X2.3789Y-8.7222
X2.3789Y-9.0215
X2.3819Y-11.7102
X2.3829Y-7.0719
X2.3829Y-7.3711
X2.3829Y-10.0648
X2.3858Y-12.5906
X2.3868Y-8.4144
X2.3878Y-5.435
X2.3878Y-5.7343
X2.3898Y-9.2992
X2.3898Y-10.9449
X2.3898Y-13.0984
X2.3907Y-3.7931
X2.3907Y-4.0923
X2.3917Y-6.7776
X2.3937Y-7.6496
X2.3937Y-9.5512
X2.3937Y-9.8071
X2.3937Y-11.1969
X2.3937Y-11.4528
X2.3937Y-12.8425
X2.3947Y-5.1356
X2.3976Y-6.0118
X2.3976Y-8.1575
X2.3986Y-4.3719
X2.4016Y-7.9016
X2.4055Y-6.2638
X2.4065Y-4.6238
X2.4065Y-4.8797
X2.4094Y-6.5197
X2.5827Y-1.5315
X2.5827Y-1.5591
X2.8819Y-1.8583
X2.8989Y-1.2113
X2.9257Y-2.3665
X2.9291Y-2.3425
X2.9606Y-1.689
X3.0827Y-1.9331
X3.2929Y-12.0843
X3.2929Y-12.3677
X3.2963Y-10.4283
X3.2963Y-10.7118
X3.3031Y-8.7906
X3.3031Y-9.074
X3.3118Y-7.1476
X3.3118Y-7.4311
X3.3131Y-2.4188
X3.3159Y-5.5215
X3.3159Y-5.8049
X3.3199Y-3.8876
X3.3199Y-4.1711
X3.3228Y-1.9252
X3.3268Y-1.9921
X3.3307Y-2.3268
X3.3307Y-2.4449
X3.3346Y-2.3736
X3.3346Y-1.0748
X3.3347Y-2.3972
X3.3351Y-2.35
X3.3465Y-1.1614
X3.3701Y-2.0145
X3.378Y-1.1605
X3.4488Y-1.0709
X3.4882Y-0.9632
X3.5433Y-1.0748
X3.6197Y-11.8402
X3.6197Y-11.8874
X3.6197Y-12.1394
X3.6197Y-12.1866
X3.6231Y-10.1843
X3.6231Y-10.2315
X3.6231Y-10.4835
X3.6231Y-10.5307
X3.6236Y-13.1827
X3.6236Y-13.2339
X3.627Y-11.5268
X3.627Y-11.578
X3.6276Y-12.4228
X3.6276Y-12.474
X3.6299Y-8.5465
X3.6299Y-8.5937
X3.6299Y-8.8457
X3.6299Y-8.8929
X3.631Y-10.7669
X3.631Y-10.8181
X3.6339Y-9.889
X3.6339Y-9.9402
X3.6354Y-12.6709
X3.6354Y-12.7181
X3.6354Y-12.9307
X3.6354Y-12.978
X3.6378Y-9.1291
X3.6378Y-9.1803
X3.6386Y-6.9035
X3.6386Y-6.9508
X3.6386Y-7.2028
X3.6386Y-7.25
X3.6389Y-11.015
X3.6389Y-11.0622
X3.6389Y-11.2748
X3.6389Y-11.322
X3.6425Y-8.2461
X3.6425Y-8.2972
X3.6427Y-5.2774
X3.6427Y-5.3246
X3.6427Y-5.5766
X3.6427Y-5.6238
X3.6457Y-9.3772
X3.6457Y-9.4244
X3.6457Y-9.637
X3.6457Y-9.6843
X3.6465Y-7.4862
X3.6465Y-7.5374
X3.6467Y-3.6435
X3.6467Y-3.6907
X3.6467Y-3.9427
X3.6467Y-3.99
X3.6467Y-6.6199
X3.6467Y-6.6711
X3.6506Y-4.986
X3.6506Y-5.0372
X3.6506Y-5.86
X3.6506Y-5.9112
X3.6543Y-7.7343
X3.6543Y-7.7815
X3.6543Y-7.9941
X3.6543Y-8.0413
X3.6545Y-4.2262
X3.6545Y-4.2774
X3.6585Y-6.1081
X3.6585Y-6.1553
X3.6585Y-6.3679
X3.6585Y-6.4152
X3.6624Y-4.4742
X3.6624Y-4.5215
X3.6624Y-4.7341
X3.6624Y-4.7813
X3.6748Y-11.9937
X3.6748Y-12.2929
X3.6782Y-10.3378
X3.6782Y-10.637
X3.6787Y-13.3362
X3.6822Y-11.6803
X3.685Y-8.7
X3.685Y-8.9992
X3.689Y-10.0425
X3.689Y-12.5709
X3.6929Y-10.9134
X3.6929Y-11.4213
X3.6929Y-12.8228
X3.6929Y-13.0787
X3.6937Y-7.0571
X3.6937Y-7.3563
X3.6969Y-9.2756
X3.6969Y-11.1654
X3.6976Y-8.3996
X3.6978Y-5.4309
X3.6978Y-5.7301
X3.7008Y-9.7835
X3.7018Y-3.797
X3.7018Y-4.0963
X3.7018Y-6.7734
X3.7047Y-7.6339
X3.7047Y-9.5276
X3.7057Y-5.1396
X3.7087Y-6.0079
X3.7087Y-8.1417
X3.7126Y-4.374
X3.7126Y-7.8858
X3.7165Y-6.2596
X3.7165Y-6.5157
X3.7205Y-4.626
X3.7205Y-4.8819
X3.9094Y-1.2538
X4.626Y-1.4724
X4.8071Y-1.2087
X4.8159Y-12.1041
X4.8159Y-12.3876
X4.8161Y-10.439
X4.8161Y-10.7224
X4.8319Y-8.7933
X4.8319Y-9.0768
X4.8386Y-7.1476
X4.8386Y-7.4311
X4.839Y-3.8878
X4.839Y-4.1713
X4.8396Y-5.5175
X4.8396Y-5.801
X4.9843Y-1.6575
X5.063Y-1.0906
X5.1181Y-1.3425
X5.1181Y-1.4016
X5.1181Y-1.4213
X5.1181Y-1.4409
X5.1181Y-1.4606
X5.1181Y-1.4803
X5.1181Y-1.5
X5.1181Y-1.5197
X5.1181Y-1.5394
X5.1427Y-11.86
X5.1427Y-11.9073
X5.1427Y-12.1593
X5.1427Y-12.2065
X5.1429Y-10.1949
X5.1429Y-10.2421
X5.1429Y-10.4941
X5.1429Y-10.5413
X5.1467Y-13.2026
X5.1467Y-13.2537
X5.1469Y-11.5374
X5.1469Y-11.5886
X5.1506Y-12.4427
X5.1506Y-12.4939
X5.1508Y-10.7776
X5.1508Y-10.8287
X5.1585Y-12.6907
X5.1585Y-12.738
X5.1585Y-12.9506
X5.1585Y-12.9978
X5.1587Y-8.5492
X5.1587Y-8.5965
X5.1587Y-8.8484
X5.1587Y-8.8957
X5.1587Y-11.0256
X5.1587Y-11.0728
X5.1587Y-11.2854
X5.1587Y-11.3327
X5.1626Y-9.8917
X5.1626Y-9.9429
X5.1654Y-6.9035
X5.1654Y-6.9508
X5.1654Y-7.2028
X5.1654Y-7.25
X5.1657Y-3.6437
X5.1657Y-3.6909
X5.1657Y-3.9429
X5.1657Y-3.9902
X5.1663Y-5.2734
X5.1663Y-5.3207
X5.1663Y-5.5726
X5.1663Y-5.6199
X5.1665Y-9.1319
X5.1665Y-9.1831
X5.1693Y-8.2461
X5.1693Y-8.2972
X5.1697Y-4.9862
X5.1697Y-5.0374
X5.1703Y-6.6159
X5.1703Y-6.6671
X5.1732Y-7.4862
X5.1732Y-7.5374
X5.1736Y-4.2264
X5.1736Y-4.2776
X5.1742Y-5.8561
X5.1742Y-5.9073
X5.1744Y-9.3799
X5.1744Y-9.4272
X5.1744Y-9.6398
X5.1744Y-9.687
X5.1811Y-7.7343
X5.1811Y-7.7815
X5.1811Y-7.9941
X5.1811Y-8.0413
X5.1815Y-4.4744
X5.1815Y-4.5217
X5.1815Y-4.7343
X5.1815Y-4.7815
X5.1821Y-6.1041
X5.1821Y-6.1514
X5.1821Y-6.364
X5.1821Y-6.4112
X5.1978Y-12.0136
X5.1978Y-12.3128
X5.198Y-10.3484
X5.198Y-10.6476
X5.2008Y-1.1417
X5.2018Y-13.3561
X5.202Y-11.6909
X5.2087Y-10.9252
X5.2087Y-12.5906
X5.2138Y-8.7028
X5.2138Y-9.002
X5.2165Y-11.1772
X5.2165Y-11.4331
X5.2165Y-12.8425
X5.2165Y-13.0984
X5.2177Y-10.0453
X5.2205Y-7.0571
X5.2205Y-7.3563
X5.2209Y-3.7972
X5.2209Y-4.0965
X5.2215Y-5.427
X5.2215Y-5.7262
X5.2244Y-8.3996
X5.2244Y-9.2835
X5.2248Y-5.1398
X5.2254Y-6.7695
X5.2283Y-4.378
X5.2283Y-7.6339
X5.2283Y-9.7874
X5.2323Y-6.0039
X5.2323Y-9.5315
X5.2362Y-4.626
X5.2362Y-6.2559
X5.2362Y-6.5118
X5.2362Y-7.8858
X5.2362Y-8.1417
X5.2402Y-4.8819
X5.252Y-1.122
X5.2991Y-1.5943
X5.2992Y-1.5551
X5.2992Y-1.6339
X5.2992Y-1.6732
X5.3031Y-1.1457
X5.3031Y-1.248
X6.3988Y-12.0728
X6.3988Y-12.3563
X6.4114Y-10.4272
X6.4114Y-10.7106
X6.4146Y-8.7933
X6.4146Y-9.0768
X6.4303Y-7.1516
X6.4303Y-7.435
X6.4419Y-5.5136
X6.4419Y-5.797
X6.4429Y-3.872
X6.4429Y-4.1555
X6.5748Y-1.0039
X6.7256Y-11.8287
X6.7256Y-11.876
X6.7256Y-12.128
X6.7256Y-12.1752
X6.7295Y-13.1713
X6.7295Y-13.2224
X6.7335Y-12.4114
X6.7335Y-12.4626
X6.7382Y-10.1831
X6.7382Y-10.2303
X6.7382Y-10.4823
X6.7382Y-10.5295
X6.7413Y-8.5492
X6.7413Y-8.5965
X6.7413Y-8.8484
X6.7413Y-8.8957
X6.7413Y-12.6594
X6.7413Y-12.7067
X6.7413Y-12.9193
X6.7413Y-12.9665
X6.7421Y-11.5256
X6.7421Y-11.5768
X6.7453Y-9.8917
X6.7453Y-9.9429
X6.7461Y-10.7657
X6.7461Y-10.8169
X6.7492Y-9.1319
X6.7492Y-9.1831
X6.7539Y-11.0138
X6.7539Y-11.061
X6.7539Y-11.2736
X6.7539Y-11.3209
X6.7571Y-6.9075
X6.7571Y-6.9547
X6.7571Y-7.2067
X6.7571Y-7.2539
X6.7571Y-9.3799
X6.7571Y-9.4272
X6.7571Y-9.6398
X6.7571Y-9.687
X6.761Y-8.25
X6.761Y-8.3012
X6.765Y-7.4902
X6.765Y-7.5413
X6.7687Y-5.2695
X6.7687Y-5.3167
X6.7687Y-5.5687
X6.7687Y-5.6159
X6.7697Y-3.628
X6.7697Y-3.6752
X6.7697Y-3.9272
X6.7697Y-3.9744
X6.7726Y-6.612
X6.7726Y-6.6632
X6.7728Y-7.7382
X6.7728Y-7.7854
X6.7728Y-7.998
X6.7728Y-8.0453
X6.7736Y-4.9705
X6.7736Y-5.0217
X6.7766Y-5.8522
X6.7766Y-5.9033
X6.7776Y-4.2106
X6.7776Y-4.2618
X6.7807Y-11.9823
X6.7807Y-12.2815
X6.7844Y-6.1002
X6.7844Y-6.1474
X6.7844Y-6.36
X6.7844Y-6.4073
X6.7846Y-13.3248
X6.7854Y-4.4587
X6.7854Y-4.5059
X6.7854Y-4.7185
X6.7854Y-4.7657
X6.7933Y-10.3366
X6.7933Y-10.6358
X6.7953Y-12.811
X6.7965Y-8.7028
X6.7965Y-9.002
X6.7972Y-11.6791
X6.7992Y-13.0669
X6.8004Y-10.0453
X6.8031Y-10.9134
X6.8071Y-9.2795
X6.811Y-9.5354
X6.811Y-9.7913
X6.811Y-11.1654
X6.811Y-11.4213
X6.8122Y-7.061
X6.8122Y-7.3602
X6.8161Y-8.4035
X6.8228Y-7.6378
X6.8238Y-5.423
X6.8238Y-5.7222
X6.8248Y-3.7815
X6.8248Y-4.0807
X6.8278Y-6.7656
X6.8287Y-5.124
X6.8307Y-8.1457
X6.8346Y-7.8898
X6.8386Y-4.3583
X6.8386Y-6.0
X6.8425Y-4.6142
X6.8425Y-4.8701
X6.8425Y-6.252
X6.8425Y-6.5079
X8.0945Y-9.7677
X8.1335Y-12.0925
X8.1467Y-10.4348
X8.1467Y-10.7183
X8.1545Y-8.7774
X8.1545Y-9.0608
X8.1594Y-5.498
X8.1594Y-5.7815
X8.1594Y-7.1358
X8.1594Y-7.4193
X8.1673Y-3.876
X8.1673Y-4.1594
X8.4602Y-11.8484
X8.4602Y-11.8957
X8.4602Y-12.1476
X8.4602Y-12.1949
X8.4642Y-13.1909
X8.4642Y-13.2421
X8.4681Y-12.4311
X8.4681Y-12.4823
X8.4734Y-10.1907
X8.4734Y-10.238
X8.4734Y-10.49
X8.4734Y-10.5372
X8.476Y-12.6791
X8.476Y-12.7264
X8.476Y-12.939
X8.476Y-12.9862
X8.4774Y-11.5333
X8.4774Y-11.5844
X8.4813Y-8.5333
X8.4813Y-8.5805
X8.4813Y-8.8325
X8.4813Y-8.8797
X8.4813Y-10.7734
X8.4813Y-10.8246
X8.4852Y-9.8758
X8.4852Y-9.927
X8.4862Y-5.2539
X8.4862Y-5.3012
X8.4862Y-5.5531
X8.4862Y-5.6004
X8.4862Y-6.8917
X8.4862Y-6.939
X8.4862Y-7.1909
X8.4862Y-7.2382
X8.4892Y-9.1159
X8.4892Y-9.1671
X8.4892Y-11.0215
X8.4892Y-11.0687
X8.4892Y-11.2813
X8.4892Y-11.3285
X8.4902Y-6.5965
X8.4902Y-6.6476
X8.4902Y-8.2343
X8.4902Y-8.2854
X8.4941Y-3.6319
X8.4941Y-3.6791
X8.4941Y-3.9311
X8.4941Y-3.9783
X8.4941Y-5.8366
X8.4941Y-5.8878
X8.4941Y-7.4744
X8.4941Y-7.5256
X8.497Y-9.364
X8.497Y-9.4112
X8.497Y-9.6238
X8.497Y-9.6711
X8.498Y-4.9744
X8.498Y-5.0256
X8.502Y-4.2146
X8.502Y-4.2657
X8.502Y-6.0846
X8.502Y-6.1319
X8.502Y-6.3445
X8.502Y-6.3917
X8.502Y-7.7224
X8.502Y-7.7697
X8.502Y-7.9823
X8.502Y-8.0295
X8.5098Y-4.4626
X8.5098Y-4.5098
X8.5098Y-4.7224
X8.5098Y-4.7697
X8.5154Y-12.002
X8.5154Y-12.3012
X8.5193Y-13.3445
X8.5276Y-12.5787
X8.5285Y-10.3443
X8.5285Y-10.6435
X8.5315Y-12.8307
X8.5315Y-13.0866
X8.5325Y-11.6868
X8.5364Y-8.6868
X8.5364Y-8.986
X8.5394Y-10.9213
X8.5404Y-10.0293
X8.5413Y-5.4075
X8.5413Y-5.7067
X8.5413Y-7.0453
X8.5413Y-7.3445
X8.5433Y-9.2677
X8.5433Y-11.1732
X8.5453Y-6.75
X8.5453Y-8.3878
X8.5472Y-11.4291
X8.5492Y-3.7854
X8.5492Y-4.0846
X8.5512Y-5.9843
X8.5512Y-7.622
X8.5531Y-5.128
X8.5551Y-6.2362
X8.5551Y-6.4921
X8.5551Y-9.5157
X8.5551Y-9.7717
X8.5591Y-4.3661
X8.5591Y-7.874
X8.5591Y-8.1299
X8.563Y-4.8701
X8.5669Y-4.6142
X10.4074Y-2.0487
X10.4114Y-4.3597
X10.4131Y-3.555
X10.4133Y-2.7942
X10.4171Y-5.866
X10.4173Y-5.1052
X10.4395Y-2.2598
X10.4434Y-4.5708
X10.4452Y-3.7661
X10.4454Y-3.0053
X10.4491Y-6.0771
X10.4493Y-5.3163
X10.4525Y-6.6957
X10.4582Y-8.2021
X10.4584Y-7.4413
X10.4704Y-2.1392
X10.4744Y-2.2775
X10.4744Y-4.4502
X10.4761Y-3.6456
X10.4763Y-2.8847
X10.4775Y-2.2408
X10.4783Y-4.5885
X10.4801Y-3.7838
X10.4801Y-5.9566
X10.4803Y-3.023
X10.4803Y-5.1957
X10.4814Y-4.5518
X10.4832Y-3.7471
X10.4834Y-2.9863
X10.484Y-6.0948
X10.4842Y-5.334
X10.4845Y-6.9069
X10.4871Y-6.0581
X10.4873Y-5.2973
X10.4902Y-8.4132
X10.4904Y-7.6524
X10.4994Y-9.0733
X10.5051Y-10.5796
X10.5053Y-9.8188
X10.5137Y-2.3951
X10.5137Y-11.3951
X10.5155Y-6.7863
X10.5177Y-4.7061
X10.5194Y-6.9246
X10.5194Y-3.9015
X10.5194Y-12.9015
X10.5196Y-3.1406
X10.5196Y-12.1406
X10.5212Y-8.2927
X10.5214Y-7.5319
X10.5225Y-6.8878
X10.5234Y-6.2125
X10.5236Y-5.4517
X10.5251Y-8.4309
X10.5253Y-7.6701
X10.5282Y-8.3942
X10.5284Y-7.6334
X10.5314Y-9.2844
X10.5371Y-10.7907
X10.5373Y-10.0299
X10.5413Y-2.3597
X10.5452Y-4.6707
X10.5458Y-11.6062
X10.547Y-3.866
X10.5472Y-3.1052
X10.5486Y-13.7648
X10.5509Y-6.177
X10.5511Y-5.4162
X10.5515Y-13.1126
X10.5517Y-12.3517
X10.5543Y-15.2711
X10.5545Y-14.5103
X10.5588Y-7.0422
X10.5624Y-9.1638
X10.5645Y-8.5486
X10.5647Y-7.7878
X10.5663Y-9.302
X10.5681Y-10.6702
X10.5683Y-9.9093
X10.5694Y-9.2654
X10.572Y-10.8084
X10.5722Y-10.0476
X10.5751Y-10.7717
X10.5753Y-10.0109
X10.5767Y-11.4857
X10.5807Y-11.6239
X10.5807Y-13.9759
X10.5824Y-12.992
X10.5826Y-12.2312
X10.5838Y-11.5872
X10.5863Y-7.0068
X10.5863Y-15.4822
X10.5864Y-13.1302
X10.5865Y-14.7214
X10.5866Y-12.3694
X10.5895Y-13.0935
X10.5897Y-12.3327
X10.592Y-8.5131
X10.5922Y-7.7523
X10.6057Y-9.4197
X10.6114Y-10.9261
X10.6116Y-10.1652
X10.6116Y-13.8553
X10.6156Y-13.9935
X10.6173Y-15.3617
X10.6175Y-14.6008
X10.6187Y-13.9569
X10.62Y-11.7416
X10.6212Y-15.4999
X10.6214Y-14.7391
X10.6243Y-15.4632
X10.6245Y-14.7024
X10.6257Y-13.2479
X10.6259Y-12.4871
X10.6305Y-2.2213
X10.6332Y-9.3843
X10.6344Y-4.5324
X10.6355Y-2.2568
X10.6356Y-2.2847
X10.6362Y-3.7277
X10.6364Y-2.9669
X10.6389Y-10.8906
X10.6391Y-10.1298
X10.6394Y-4.5678
X10.6395Y-4.5957
X10.6401Y-6.0387
X10.6403Y-5.2779
X10.6412Y-3.7631
X10.6413Y-3.791
X10.6414Y-3.0023
X10.6415Y-3.0302
X10.6451Y-6.0741
X10.6452Y-6.102
X10.6453Y-5.3133
X10.6454Y-5.3412
X10.6476Y-11.7061
X10.6533Y-13.2125
X10.6535Y-12.4517
X10.6549Y-14.1112
X10.6606Y-15.6176
X10.6608Y-14.8567
X10.6755Y-6.8684
X10.6805Y-6.9039
X10.6806Y-6.9318
X10.6812Y-8.3748
X10.6814Y-7.6139
X10.6825Y-2.2218
X10.6825Y-14.0758
X10.6862Y-8.4102
X10.6863Y-8.4381
X10.6864Y-4.5328
X10.6864Y-7.6494
X10.6865Y-7.6773
X10.6881Y-15.5821
X10.6882Y-3.7281
X10.6883Y-14.8213
X10.6884Y-2.9673
X10.6921Y-6.0391
X10.6923Y-5.2783
X10.7224Y-9.2459
X10.7274Y-9.2814
X10.7275Y-6.8689
X10.7275Y-9.3093
X10.7281Y-10.7523
X10.7283Y-9.9915
X10.7303Y-2.2928
X10.7331Y-10.7877
X10.7332Y-8.3752
X10.7332Y-10.8156
X10.7333Y-10.0269
X10.7334Y-7.6144
X10.7334Y-10.0548
X10.7342Y-4.6038
X10.736Y-3.7991
X10.7362Y-3.0383
X10.7368Y-11.5678
X10.7399Y-6.1101
X10.7401Y-5.3493
X10.7418Y-11.6032
X10.7419Y-11.6311
X10.7425Y-13.0741
X10.7427Y-12.3133
X10.7475Y-13.1096
X10.7476Y-13.1375
X10.7477Y-12.3487
X10.7478Y-12.3767
X10.7618Y-2.1432
X10.7657Y-4.4542
X10.7675Y-3.6495
X10.7677Y-2.8887
X10.7714Y-5.9605
X10.7716Y-5.1997
X10.7717Y-13.9374
X10.7744Y-9.2464
X10.7753Y-6.9398
X10.7767Y-13.9728
X10.7767Y-14.0007
X10.7773Y-15.4438
X10.7775Y-14.683
X10.7801Y-10.7527
X10.7803Y-9.9919
X10.781Y-8.4462
X10.7812Y-7.6854
X10.7823Y-15.4792
X10.7824Y-15.5071
X10.7825Y-14.7184
X10.7826Y-14.7463
X10.7888Y-11.5682
X10.7945Y-13.0746
X10.7947Y-12.3137
X10.8068Y-6.7902
X10.8125Y-8.2966
X10.8127Y-7.5358
X10.8222Y-9.3174
X10.8237Y-13.9378
X10.8279Y-10.8237
X10.8281Y-10.0629
X10.8293Y-15.4442
X10.8295Y-14.6834
X10.8366Y-11.6392
X10.8423Y-13.1456
X10.8425Y-12.3847
X10.8537Y-9.1678
X10.8594Y-10.6741
X10.8596Y-9.9133
X10.8681Y-11.4896
X10.8715Y-14.0089
X10.8738Y-12.9959
X10.874Y-12.2351
X10.8771Y-15.5152
X10.8773Y-14.7544
X10.903Y-13.8593
X10.9086Y-15.3656
X10.9088Y-14.6048
X11.0464Y-2.6628
X11.0503Y-4.9739
X11.0667Y-2.7436
X11.0706Y-5.0546
X11.0833Y-2.7268
X11.0873Y-5.0379
X11.0914Y-7.3099
X11.1117Y-7.3907
X11.1283Y-7.3739
X11.1383Y-9.6874
X11.1527Y-12.0093
X11.1586Y-9.7681
X11.173Y-12.09
X11.1753Y-9.7515
X11.1793Y-2.8398
X11.1833Y-5.1509
X11.1876Y-14.3789
X11.1896Y-12.0733
X11.2078Y-14.4596
X11.2244Y-7.4869
X11.2245Y-14.4429
X11.2713Y-9.8644
X11.2856Y-12.1863
X11.3133Y-2.7188
X11.3173Y-5.0298
X11.3205Y-14.5559
X11.3223Y-2.6848
X11.3268Y-4.9961
X11.3343Y-2.7528
X11.3386Y-5.063
X11.3583Y-7.3659
X11.3701Y-7.3307
X11.3819Y-7.3976
X11.4053Y-9.7434
X11.4134Y-9.7087
X11.4196Y-12.0653
X11.4252Y-9.7756
X11.4291Y-12.0315
X11.4409Y-12.0984
X11.4545Y-14.4349
X11.4646Y-14.4016
X11.4764Y-14.4685
X12.124Y-2.0329
X12.1297Y-3.5393
X12.1299Y-2.7784
X12.1325Y-9.0522
X12.1339Y-4.3189
X12.1339Y-6.6654
X12.1381Y-10.5585
X12.1383Y-9.7977
X12.1395Y-5.8252
X12.1395Y-8.1717
X12.1397Y-5.0644
X12.1397Y-7.4109
X12.1515Y-11.3912
X12.156Y-2.244
X12.1617Y-3.7504
X12.1619Y-2.9895
X12.1645Y-9.2633
X12.1659Y-4.53
X12.1659Y-6.8765
X12.1702Y-10.7696
X12.1704Y-10.0088
X12.1716Y-6.0363
X12.1716Y-8.3828
X12.1718Y-5.2755
X12.1718Y-7.622
X12.1752Y-13.7427
X12.1809Y-15.249
X12.1811Y-14.4882
X12.1836Y-11.6023
X12.187Y-2.1235
X12.1893Y-13.1086
X12.1894Y-12.3478
X12.1909Y-2.2617
X12.1927Y-3.6298
X12.1929Y-2.869
X12.194Y-2.225
X12.1955Y-9.1427
X12.1966Y-3.7681
X12.1968Y-3.0072
X12.1969Y-4.4094
X12.1969Y-6.7559
X12.1994Y-9.2809
X12.1997Y-3.7314
X12.1999Y-2.9705
X12.2008Y-4.5477
X12.2008Y-6.8941
X12.2011Y-10.6491
X12.2013Y-9.8882
X12.2025Y-5.9158
X12.2025Y-8.2622
X12.2025Y-9.2443
X12.2027Y-5.155
X12.2027Y-7.5014
X12.2039Y-4.511
X12.2039Y-6.8574
X12.2051Y-10.7873
X12.2053Y-10.0265
X12.2065Y-6.054
X12.2065Y-8.4005
X12.2067Y-5.2932
X12.2067Y-7.6396
X12.2072Y-13.9537
X12.2082Y-10.7506
X12.2084Y-9.9898
X12.2096Y-6.0173
X12.2096Y-8.3638
X12.2098Y-5.2565
X12.2098Y-7.603
X12.213Y-15.4601
X12.2131Y-14.6993
X12.2145Y-11.4817
X12.2185Y-11.62
X12.2202Y-12.9881
X12.2204Y-12.2272
X12.2216Y-11.5833
X12.2242Y-13.1263
X12.2244Y-12.3655
X12.2273Y-13.0896
X12.2275Y-12.3288
X12.2303Y-2.3794
X12.236Y-3.8857
X12.2362Y-3.1249
X12.2382Y-13.8332
X12.2388Y-9.3986
X12.2402Y-4.6654
X12.2402Y-7.0118
X12.2422Y-13.9715
X12.2439Y-15.3396
X12.2441Y-14.5787
X12.2444Y-10.905
X12.2446Y-10.1441
X12.2452Y-13.9348
X12.2458Y-6.1717
X12.2458Y-8.5181
X12.246Y-5.4109
X12.246Y-7.7573
X12.2478Y-15.4778
X12.248Y-14.717
X12.2509Y-15.4411
X12.2511Y-14.6803
X12.2578Y-2.3439
X12.2578Y-11.7376
X12.2635Y-3.8503
X12.2635Y-13.244
X12.2637Y-3.0895
X12.2637Y-12.4831
X12.2663Y-9.3632
X12.2677Y-4.6299
X12.2677Y-6.9764
X12.272Y-10.8695
X12.2722Y-10.1087
X12.2734Y-6.1363
X12.2734Y-8.4827
X12.2736Y-5.3754
X12.2736Y-7.7219
X12.2815Y-14.0891
X12.2854Y-11.7022
X12.2872Y-15.5955
X12.2874Y-14.8346
X12.2911Y-13.2085
X12.2913Y-12.4477
X12.3091Y-14.0537
X12.3148Y-15.56
X12.315Y-14.7992
X12.347Y-2.2056
X12.352Y-2.241
X12.3521Y-2.2689
X12.3527Y-3.7119
X12.3529Y-2.9511
X12.3555Y-9.2248
X12.3569Y-4.4916
X12.3569Y-6.838
X12.3577Y-3.7474
X12.3578Y-3.7753
X12.3579Y-2.9865
X12.358Y-3.0144
X12.3605Y-9.2602
X12.3606Y-9.2881
X12.3612Y-10.7312
X12.3614Y-9.9704
X12.3619Y-4.527
X12.3619Y-6.8734
X12.362Y-4.5549
X12.362Y-6.9013
X12.3626Y-5.9979
X12.3626Y-8.3444
X12.3628Y-5.2371
X12.3628Y-7.5835
X12.3662Y-10.7666
X12.3663Y-10.7945
X12.3664Y-10.0058
X12.3665Y-10.0337
X12.3676Y-6.0333
X12.3676Y-8.3798
X12.3677Y-6.0612
X12.3677Y-8.4077
X12.3678Y-5.2725
X12.3678Y-7.619
X12.3679Y-5.3004
X12.3679Y-7.6469
X12.3746Y-11.5639
X12.3796Y-11.5993
X12.3797Y-11.6272
X12.3803Y-13.0702
X12.3805Y-12.3094
X12.3853Y-13.1056
X12.3854Y-13.1335
X12.3855Y-12.3448
X12.3856Y-12.3727
X12.3983Y-13.9154
X12.399Y-2.206
X12.4033Y-13.9507
X12.4033Y-13.9787
X12.4039Y-15.4217
X12.4041Y-14.6609
X12.4047Y-3.7124
X12.4049Y-2.9515
X12.4075Y-9.2252
X12.4089Y-4.492
X12.4089Y-6.8384
X12.4089Y-15.4571
X12.409Y-15.485
X12.4091Y-14.6963
X12.4092Y-14.7242
X12.4132Y-10.7316
X12.4134Y-9.9708
X12.4146Y-5.9983
X12.4146Y-8.3448
X12.4148Y-5.2375
X12.4148Y-7.584
X12.4266Y-11.5643
X12.4323Y-13.0706
X12.4325Y-12.3098
X12.4468Y-2.277
X12.4502Y-13.9157
X12.4525Y-3.7834
X12.4527Y-3.0225
X12.4553Y-9.2963
X12.4559Y-15.4221
X12.4561Y-14.6613
X12.4567Y-4.563
X12.4567Y-6.9094
X12.461Y-10.8026
X12.4612Y-10.0418
X12.4624Y-6.0693
X12.4624Y-8.4158
X12.4626Y-5.3085
X12.4626Y-7.655
X12.4744Y-11.6353
X12.4783Y-2.1274
X12.4801Y-13.1416
X12.4803Y-12.3808
X12.484Y-3.6338
X12.4842Y-2.8729
X12.4868Y-9.1467
X12.4882Y-4.4134
X12.4882Y-6.7598
X12.4925Y-10.653
X12.4927Y-9.8922
X12.4939Y-5.9197
X12.4939Y-8.2662
X12.4941Y-5.1589
X12.4941Y-7.5054
X12.4981Y-13.9868
X12.5037Y-15.4931
X12.5039Y-14.7323
X12.5059Y-11.4857
X12.5116Y-12.992
X12.5118Y-12.2312
X12.5296Y-13.8372
X12.5352Y-15.3435
X12.5354Y-14.5827
X12.7629Y-2.6471
X12.7714Y-9.6663
X12.7728Y-4.9331
X12.7728Y-7.2795
X12.7832Y-2.7278
X12.7905Y-12.0054
X12.7917Y-9.747
X12.7931Y-5.0138
X12.7931Y-7.3602
X12.7999Y-2.7111
X12.8083Y-9.7303
X12.8097Y-4.997
X12.8097Y-7.3435
X12.8108Y-12.0861
X12.8142Y-14.3569
X12.8274Y-12.0694
X12.8344Y-14.4376
X12.8511Y-14.4208
X12.8959Y-2.8241
X12.9044Y-9.8433
X12.9057Y-5.1101
X12.9057Y-7.4565
X12.9234Y-12.1824
X12.9471Y-14.5338
X13.0299Y-2.7031
X13.0383Y-9.7223
X13.0394Y-2.6693
X13.0397Y-4.9891
X13.0397Y-7.3355
X13.0472Y-4.9567
X13.0472Y-9.689
X13.0512Y-2.7362
X13.0512Y-7.3031
X13.0574Y-12.0613
X13.0591Y-5.0236
X13.0591Y-9.7559
X13.063Y-7.3701
X13.0669Y-12.0276
X13.0787Y-12.0945
X13.0811Y-14.4128
X13.0906Y-14.378
X13.1024Y-14.4449
X13.9803Y-2.0157
X13.986Y-3.5221
X13.9862Y-2.7613
X14.0124Y-2.2268
X14.018Y-3.7332
X14.0182Y-2.9724
X14.036Y-4.2978
X14.0417Y-5.8041
X14.0419Y-5.0433
X14.0433Y-2.1063
X14.0472Y-2.2445
X14.049Y-3.6126
X14.0492Y-2.8518
X14.0504Y-2.2078
X14.0529Y-3.7509
X14.0531Y-2.9901
X14.056Y-3.7142
X14.0562Y-2.9534
X14.068Y-4.5088
X14.0723Y-6.6339
X14.0737Y-6.0152
X14.0739Y-5.2544
X14.078Y-8.1403
X14.0782Y-7.3794
X14.0866Y-2.3622
X14.0923Y-3.8686
X14.0925Y-3.1077
X14.099Y-4.3883
X14.1029Y-4.5265
X14.1044Y-6.845
X14.1047Y-5.8946
X14.1049Y-5.1338
X14.106Y-4.4898
X14.1086Y-6.0329
X14.1088Y-5.272
X14.11Y-8.3514
X14.1102Y-7.5906
X14.1102Y-9.0276
X14.1117Y-5.9962
X14.1119Y-5.2354
X14.1142Y-2.3268
X14.1159Y-10.5339
X14.1161Y-9.7731
X14.1198Y-3.8331
X14.12Y-3.0723
X14.1353Y-6.7245
X14.1393Y-6.8627
X14.141Y-8.2308
X14.1412Y-7.47
X14.1423Y-4.6442
X14.1423Y-9.2387
X14.1424Y-6.826
X14.1449Y-8.3691
X14.1451Y-7.6083
X14.148Y-10.745
X14.148Y-6.1506
X14.148Y-8.3324
X14.1481Y-9.9842
X14.1482Y-5.3897
X14.1482Y-7.5715
X14.1667Y-13.7389
X14.1673Y-11.3636
X14.1698Y-4.6088
X14.1724Y-15.2453
X14.1726Y-14.4844
X14.173Y-12.87
X14.1732Y-12.1091
X14.1732Y-9.1181
X14.1756Y-6.1151
X14.1757Y-5.3543
X14.1772Y-9.2563
X14.1786Y-6.9804
X14.1789Y-10.6244
X14.1791Y-9.8636
X14.1803Y-9.2196
X14.1828Y-10.7627
X14.183Y-10.0019
X14.1843Y-8.4867
X14.1845Y-7.7259
X14.1859Y-10.726
X14.1861Y-9.9652
X14.1988Y-13.95
X14.1993Y-11.5747
X14.2033Y-2.1884
X14.2044Y-15.4564
X14.2046Y-14.6956
X14.205Y-13.0811
X14.2052Y-12.3202
X14.2062Y-6.945
X14.2083Y-2.2238
X14.2084Y-2.2517
X14.209Y-3.6948
X14.2092Y-2.9339
X14.2119Y-8.4513
X14.212Y-7.6905
X14.214Y-3.7302
X14.2141Y-3.7581
X14.2142Y-2.9694
X14.2143Y-2.9973
X14.2165Y-9.374
X14.2222Y-10.8804
X14.2224Y-10.1195
X14.2297Y-13.8295
X14.2303Y-11.4542
X14.2337Y-13.9677
X14.2342Y-11.5924
X14.2354Y-15.3358
X14.2356Y-14.575
X14.236Y-12.9605
X14.2362Y-12.1997
X14.2368Y-13.931
X14.2373Y-11.5557
X14.2393Y-15.4741
X14.2395Y-14.7132
X14.2399Y-13.0987
X14.2401Y-12.338
X14.2424Y-15.4374
X14.2426Y-14.6765
X14.243Y-13.062
X14.2432Y-12.3012
X14.2441Y-9.3386
X14.2498Y-10.8449
X14.25Y-10.0841
X14.2554Y-2.1888
X14.259Y-4.4704
X14.261Y-3.6952
X14.2612Y-2.9344
X14.264Y-4.5058
X14.2641Y-4.5337
X14.2647Y-5.9768
X14.2649Y-5.2159
X14.2697Y-6.0122
X14.2698Y-6.0401
X14.2699Y-5.2513
X14.27Y-5.2793
X14.273Y-14.0854
X14.2736Y-11.7101
X14.2787Y-15.5917
X14.2789Y-14.8309
X14.2793Y-13.2164
X14.2795Y-12.4556
X14.2954Y-6.8066
X14.3004Y-6.842
X14.3004Y-6.8699
X14.3006Y-14.05
X14.301Y-8.313
X14.3011Y-11.6746
X14.3012Y-7.5521
X14.3031Y-2.2598
X14.306Y-8.3484
X14.3061Y-8.3763
X14.3062Y-7.5876
X14.3063Y-15.5563
X14.3063Y-7.6155
X14.3065Y-14.7955
X14.3069Y-13.181
X14.307Y-12.4202
X14.3088Y-3.7662
X14.309Y-3.0054
X14.311Y-4.4708
X14.3167Y-5.9772
X14.3169Y-5.2163
X14.3333Y-9.2002
X14.3346Y-2.1102
X14.3383Y-9.2356
X14.3383Y-9.2635
X14.3389Y-10.7066
X14.3391Y-9.9457
X14.3403Y-3.6166
X14.3405Y-2.8558
X14.3439Y-10.742
X14.3441Y-10.7699
X14.3441Y-9.9812
X14.3443Y-10.0091
X14.3474Y-6.807
X14.353Y-8.3134
X14.3532Y-7.5526
X14.3588Y-4.5419
X14.3645Y-6.0482
X14.3647Y-5.2874
X14.3853Y-9.2006
X14.3898Y-13.9116
X14.3903Y-4.3922
X14.3903Y-11.5363
X14.3909Y-10.707
X14.3911Y-9.9462
X14.3948Y-13.947
X14.3948Y-13.9749
X14.3952Y-6.878
X14.3953Y-11.5717
X14.3954Y-11.5996
X14.3954Y-15.418
X14.3956Y-14.6571
X14.396Y-5.8986
X14.396Y-13.0426
X14.3962Y-5.1378
X14.3962Y-12.2818
X14.4004Y-15.4534
X14.4006Y-15.4813
X14.4006Y-14.6925
X14.4007Y-14.7204
X14.4008Y-8.3844
X14.401Y-7.6235
X14.401Y-13.0781
X14.4011Y-13.106
X14.4012Y-12.3172
X14.4013Y-12.3452
X14.4267Y-6.7284
X14.4323Y-8.2348
X14.4325Y-7.4739
X14.4331Y-9.2717
X14.4387Y-10.778
X14.4389Y-10.0172
X14.4418Y-13.912
X14.4423Y-11.5367
X14.4474Y-15.4183
X14.4476Y-14.6576
X14.448Y-13.0431
X14.4482Y-12.2822
X14.4646Y-9.122
X14.4702Y-10.6284
X14.4704Y-9.8676
X14.4896Y-13.983
X14.4901Y-11.6077
X14.4952Y-15.4894
X14.4954Y-14.7285
X14.4958Y-13.1141
X14.496Y-12.3532
X14.5211Y-13.8334
X14.5216Y-11.4581
X14.5267Y-15.3398
X14.5269Y-14.5789
X14.5273Y-12.9644
X14.5275Y-12.2036
X14.6193Y-2.6299
X14.6395Y-2.7106
X14.6562Y-2.6939
X14.6749Y-4.9119
X14.6952Y-4.9926
X14.7113Y-7.2481
X14.7119Y-4.9759
X14.7315Y-7.3288
X14.7482Y-7.3121
X14.7492Y-9.6417
X14.7522Y-2.8069
X14.7694Y-9.7224
X14.7861Y-9.7057
X14.8057Y-14.3531
X14.8062Y-11.9778
X14.8079Y-5.0889
X14.8259Y-14.4338
X14.8265Y-12.0585
X14.8426Y-14.4171
X14.8432Y-12.0418
X14.8442Y-7.4251
X14.8821Y-9.8187
X14.8862Y-2.6859
X14.8937Y-2.6535
X14.9055Y-2.7205
X14.9364Y-5.8106
X14.9366Y-5.0498
X14.9386Y-14.5301
X14.9392Y-12.1548
X14.9419Y-4.9679
X14.9528Y-4.9331
X14.9646Y-5.0
X14.9782Y-7.3041
X14.9882Y-7.2717
X15.0Y-7.3386
X15.0161Y-9.6977
X15.0236Y-9.6654
X15.0354Y-9.7323
X15.0726Y-14.4091
X15.0732Y-12.0338
X15.0827Y-12.0
X15.0827Y-14.374
X15.0945Y-12.0669
X15.0945Y-14.4409
X15.9667Y-2.0021
X15.9724Y-3.5085
X15.9724Y-4.2913
X15.9726Y-2.7477
X15.9781Y-5.7977
X15.9783Y-5.0369
X15.9982Y-6.6399
X15.9987Y-2.2132
X16.0039Y-8.1463
X16.0041Y-7.3855
X16.0044Y-3.7196
X16.0045Y-4.5024
X16.0046Y-2.9587
X16.0102Y-6.0088
X16.0104Y-5.248
X16.0211Y-11.3593
X16.022Y-9.0079
X16.0267Y-12.8656
X16.0269Y-12.1048
X16.0277Y-10.5142
X16.0279Y-9.7534
X16.0297Y-2.0927
X16.0302Y-6.851
X16.0336Y-2.2309
X16.0354Y-3.599
X16.0354Y-4.3819
X16.0356Y-2.8382
X16.0359Y-8.3574
X16.0361Y-7.5965
X16.0367Y-2.1942
X16.0393Y-3.7373
X16.0394Y-4.5201
X16.0394Y-13.7323
X16.0395Y-2.9764
X16.0411Y-5.8882
X16.0413Y-5.1274
X16.0424Y-3.7006
X16.0425Y-4.4834
X16.0426Y-2.9397
X16.045Y-6.0265
X16.045Y-15.2386
X16.0452Y-5.2656
X16.0452Y-14.4778
X16.0481Y-5.9898
X16.0483Y-5.2289
X16.0531Y-11.5704
X16.0541Y-9.219
X16.0588Y-13.0767
X16.059Y-12.3159
X16.0598Y-10.7253
X16.06Y-9.9645
X16.0612Y-6.7305
X16.0651Y-6.8687
X16.0669Y-8.2369
X16.0671Y-7.476
X16.0682Y-6.832
X16.0708Y-8.3751
X16.071Y-7.6143
X16.0714Y-13.9434
X16.073Y-2.3486
X16.0739Y-8.3384
X16.0741Y-7.5776
X16.0771Y-15.4497
X16.0773Y-14.6889
X16.0787Y-3.8549
X16.0787Y-4.6378
X16.0789Y-3.0941
X16.0841Y-11.4498
X16.0844Y-6.1441
X16.0846Y-5.3833
X16.085Y-9.0984
X16.088Y-11.588
X16.089Y-9.2367
X16.0897Y-12.9561
X16.0899Y-12.1953
X16.0907Y-10.6048
X16.0909Y-9.8439
X16.0911Y-11.5513
X16.0921Y-9.2
X16.0937Y-13.0944
X16.0939Y-12.3335
X16.0946Y-10.743
X16.0948Y-9.9822
X16.0968Y-13.0577
X16.097Y-12.2969
X16.0978Y-10.7063
X16.098Y-9.9455
X16.1006Y-2.3132
X16.1024Y-13.8228
X16.1045Y-6.9864
X16.1063Y-3.8195
X16.1063Y-4.6024
X16.1063Y-13.9611
X16.1065Y-3.0587
X16.108Y-15.3292
X16.1082Y-14.5683
X16.1094Y-13.9244
X16.1102Y-8.4928
X16.1104Y-7.7319
X16.112Y-6.1087
X16.112Y-15.4674
X16.1122Y-5.3479
X16.1122Y-14.7066
X16.1151Y-15.4307
X16.1153Y-14.6699
X16.1274Y-11.7057
X16.1283Y-9.3543
X16.132Y-6.9509
X16.133Y-13.212
X16.1332Y-12.4512
X16.134Y-10.8607
X16.1342Y-10.0998
X16.1378Y-8.4573
X16.138Y-7.6965
X16.1457Y-14.0787
X16.1513Y-15.5851
X16.1515Y-14.8243
X16.1549Y-11.6703
X16.1559Y-9.3189
X16.1606Y-13.1766
X16.1608Y-12.4158
X16.1616Y-10.8252
X16.1618Y-10.0644
X16.1732Y-14.0433
X16.1789Y-15.5496
X16.1791Y-14.7888
X16.1897Y-2.1748
X16.1947Y-2.2102
X16.1948Y-2.2381
X16.1954Y-3.6812
X16.1955Y-4.464
X16.1956Y-2.9203
X16.2004Y-3.7166
X16.2005Y-4.4994
X16.2005Y-3.7445
X16.2006Y-4.5273
X16.2006Y-2.9557
X16.2007Y-2.9836
X16.2011Y-5.9704
X16.2013Y-5.2095
X16.2061Y-6.0058
X16.2063Y-6.0337
X16.2063Y-5.245
X16.2065Y-5.2728
X16.2212Y-6.8126
X16.2262Y-6.848
X16.2263Y-6.8759
X16.2269Y-8.319
X16.2271Y-7.5581
X16.2319Y-8.3544
X16.232Y-8.3823
X16.2321Y-7.5935
X16.2322Y-7.6215
X16.2417Y-2.1752
X16.2441Y-11.5319
X16.2451Y-9.1806
X16.2474Y-3.6816
X16.2475Y-4.4644
X16.2476Y-2.9207
X16.2491Y-11.5673
X16.2492Y-11.5952
X16.2498Y-13.0383
X16.25Y-12.2774
X16.2501Y-9.2159
X16.2502Y-9.2439
X16.2507Y-10.6869
X16.2509Y-9.9261
X16.2531Y-5.9708
X16.2533Y-5.21
X16.2548Y-13.0737
X16.2549Y-13.1016
X16.255Y-12.3129
X16.2551Y-12.3407
X16.2557Y-10.7223
X16.2559Y-10.7502
X16.2559Y-9.9615
X16.2561Y-9.9894
X16.2624Y-13.905
X16.2674Y-13.9404
X16.2675Y-13.9683
X16.2681Y-15.4113
X16.2683Y-14.6505
X16.2731Y-15.4467
X16.2732Y-15.4746
X16.2732Y-6.813
X16.2733Y-14.6859
X16.2734Y-14.7138
X16.2789Y-8.3194
X16.2791Y-7.5585
X16.2895Y-2.2462
X16.2952Y-3.7526
X16.2953Y-4.5354
X16.2954Y-2.9918
X16.2961Y-11.5323
X16.2971Y-9.1809
X16.3009Y-6.0418
X16.3011Y-5.2809
X16.3018Y-13.0387
X16.302Y-12.2779
X16.3028Y-10.6873
X16.303Y-9.9265
X16.3144Y-13.9054
X16.3201Y-15.4117
X16.3203Y-14.6509
X16.321Y-2.0966
X16.321Y-6.884
X16.3267Y-3.603
X16.3267Y-8.3904
X16.3268Y-4.3858
X16.3269Y-2.8421
X16.3269Y-7.6296
X16.3324Y-5.8922
X16.3326Y-5.1313
X16.3439Y-11.6033
X16.3449Y-9.252
X16.3496Y-13.1097
X16.3498Y-12.3489
X16.3506Y-10.7583
X16.3507Y-9.9975
X16.3525Y-6.7344
X16.3582Y-8.2408
X16.3584Y-7.48
X16.3622Y-13.9764
X16.3679Y-15.4827
X16.3681Y-14.7219
X16.3754Y-11.4537
X16.3764Y-9.1024
X16.3811Y-12.9601
X16.3813Y-12.1993
X16.382Y-10.6087
X16.3822Y-9.8479
X16.3937Y-13.8268
X16.3994Y-15.3331
X16.3996Y-14.5723
X16.6056Y-2.6163
X16.6114Y-4.9055
X16.6259Y-2.697
X16.6317Y-4.9862
X16.6371Y-7.2541
X16.6426Y-2.6803
X16.6483Y-4.9695
X16.6574Y-7.3348
X16.66Y-11.9734
X16.661Y-9.622
X16.6741Y-7.3181
X16.6783Y-14.3465
X16.6803Y-12.0541
X16.6813Y-9.7028
X16.6969Y-12.0374
X16.6979Y-9.686
X16.6986Y-14.4272
X16.7152Y-14.4104
X16.7386Y-2.7933
X16.7443Y-5.0825
X16.7701Y-7.4311
X16.793Y-12.1504
X16.7939Y-9.7991
X16.8113Y-14.5235
X16.8726Y-2.6723
X16.8783Y-4.9615
X16.8819Y-2.6378
X16.8858Y-4.9291
X16.8937Y-2.7047
X16.8976Y-4.9961
X16.9041Y-7.3101
X16.9134Y-7.2756
X16.9252Y-7.3425
X16.9269Y-12.0294
X16.9279Y-9.678
X16.937Y-9.6457
X16.937Y-11.9961
X16.9452Y-14.4024
X16.9488Y-9.7126
X16.9488Y-12.063
X16.9528Y-14.3701
X16.9646Y-14.437
X18.1555Y-1.9936
X18.1612Y-3.4999
X18.1614Y-2.7391
X18.183Y-4.2849
X18.1875Y-2.2046
X18.1887Y-5.7912
X18.1889Y-5.0304
X18.1932Y-3.711
X18.1934Y-2.9502
X18.2151Y-4.496
X18.2185Y-2.0841
X18.2187Y-6.6123
X18.2207Y-6.0023
X18.2209Y-5.2415
X18.2224Y-2.2223
X18.2242Y-3.5904
X18.2244Y-2.8296
X18.2244Y-8.1187
X18.2246Y-7.3579
X18.2255Y-2.1856
X18.2281Y-3.7287
X18.2283Y-2.9679
X18.2312Y-3.692
X18.2314Y-2.9312
X18.2337Y-8.9804
X18.2394Y-10.4867
X18.2396Y-9.7259
X18.246Y-4.3754
X18.25Y-4.5137
X18.2507Y-6.8234
X18.2517Y-5.8818
X18.2519Y-5.1209
X18.2531Y-4.477
X18.2557Y-6.02
X18.2559Y-5.2592
X18.2564Y-8.3298
X18.2566Y-7.5689
X18.2579Y-11.3647
X18.2588Y-5.9833
X18.259Y-5.2225
X18.2618Y-2.34
X18.2636Y-12.8711
X18.2638Y-12.1102
X18.2658Y-9.1915
X18.2675Y-3.8464
X18.2677Y-3.0855
X18.2715Y-10.6978
X18.2717Y-9.937
X18.2789Y-13.7224
X18.2817Y-6.7029
X18.2846Y-15.2287
X18.2848Y-14.4679
X18.2856Y-6.8411
X18.2874Y-8.2093
X18.2876Y-7.4484
X18.2887Y-6.8044
X18.2893Y-2.3046
X18.2893Y-4.6313
X18.2899Y-11.5758
X18.2913Y-8.3475
X18.2915Y-7.5867
X18.2944Y-8.3108
X18.2946Y-7.55
X18.295Y-3.8109
X18.295Y-6.1377
X18.2952Y-3.0501
X18.2952Y-5.3769
X18.2956Y-13.0822
X18.2958Y-12.3213
X18.2967Y-9.0709
X18.3007Y-9.2092
X18.3024Y-10.5773
X18.3026Y-9.8165
X18.3038Y-9.1725
X18.3063Y-10.7155
X18.3065Y-9.9547
X18.3094Y-10.6788
X18.3096Y-9.918
X18.3109Y-13.9335
X18.3166Y-15.4398
X18.3168Y-14.679
X18.3169Y-4.5959
X18.3209Y-11.4553
X18.3226Y-6.1022
X18.3228Y-5.3414
X18.3248Y-11.5935
X18.325Y-6.9588
X18.3266Y-12.9616
X18.3268Y-12.2008
X18.3279Y-11.5568
X18.3305Y-13.0998
X18.3307Y-8.4652
X18.3307Y-12.339
X18.3309Y-7.7043
X18.3336Y-13.0631
X18.3338Y-12.3023
X18.34Y-9.3269
X18.3419Y-13.813
X18.3457Y-10.8332
X18.3458Y-13.9512
X18.3459Y-10.0724
X18.3476Y-15.3193
X18.3478Y-14.5585
X18.3489Y-13.9145
X18.3515Y-15.4575
X18.3517Y-14.6967
X18.3525Y-6.9233
X18.3546Y-15.4208
X18.3548Y-14.66
X18.3582Y-8.4297
X18.3584Y-7.6689
X18.3642Y-11.7112
X18.3676Y-9.2914
X18.3699Y-13.2175
X18.3701Y-12.4567
X18.3733Y-10.7978
X18.3735Y-10.0369
X18.3785Y-2.1662
X18.3835Y-2.2016
X18.3836Y-2.2295
X18.3842Y-3.6726
X18.3844Y-2.9117
X18.3852Y-14.0689
X18.3892Y-3.708
X18.3893Y-3.7359
X18.3894Y-2.9472
X18.3895Y-2.9751
X18.3909Y-15.5752
X18.3911Y-14.8144
X18.3918Y-11.6757
X18.3974Y-13.1821
X18.3976Y-12.4213
X18.4061Y-4.4576
X18.4111Y-4.493
X18.4112Y-4.5209
X18.4118Y-5.9639
X18.412Y-5.2031
X18.4128Y-14.0334
X18.4168Y-5.9993
X18.4169Y-6.0272
X18.417Y-5.2385
X18.417Y-5.2664
X18.4185Y-15.5398
X18.4187Y-14.7789
X18.4305Y-2.1666
X18.4362Y-3.673
X18.4364Y-2.9122
X18.4417Y-6.785
X18.4467Y-6.8204
X18.4468Y-6.8483
X18.4474Y-8.2913
X18.4476Y-7.5306
X18.4524Y-8.3268
X18.4525Y-8.3547
X18.4526Y-7.5659
X18.4527Y-7.5939
X18.4568Y-9.1531
X18.4581Y-4.458
X18.4618Y-9.1885
X18.4619Y-9.2164
X18.4624Y-10.6594
X18.4626Y-9.8986
X18.4638Y-5.9643
X18.464Y-5.2035
X18.4674Y-10.6948
X18.4676Y-10.7228
X18.4676Y-9.934
X18.4678Y-9.9619
X18.4783Y-2.2376
X18.4809Y-11.5374
X18.484Y-3.744
X18.4842Y-2.9832
X18.4859Y-11.5728
X18.486Y-11.6007
X18.4866Y-13.0437
X18.4868Y-12.2829
X18.4916Y-13.0791
X18.4917Y-13.107
X18.4918Y-12.3183
X18.4919Y-12.3462
X18.4937Y-6.7854
X18.4994Y-8.2918
X18.4996Y-7.5309
X18.5019Y-13.8951
X18.5059Y-4.529
X18.5069Y-13.9305
X18.507Y-13.9584
X18.5076Y-15.4014
X18.5078Y-14.6406
X18.5088Y-9.1535
X18.5098Y-2.088
X18.5116Y-6.0353
X18.5118Y-5.2745
X18.5126Y-15.4369
X18.5127Y-15.4647
X18.5128Y-14.676
X18.5129Y-14.7039
X18.5144Y-10.6598
X18.5146Y-9.899
X18.5155Y-3.5944
X18.5157Y-2.8336
X18.5329Y-11.5378
X18.5374Y-4.3794
X18.5386Y-13.0441
X18.5388Y-12.2833
X18.5415Y-6.8564
X18.5431Y-5.8857
X18.5433Y-5.1249
X18.5472Y-8.3628
X18.5474Y-7.602
X18.5539Y-13.8955
X18.5566Y-9.2245
X18.5596Y-15.4019
X18.5598Y-14.641
X18.5622Y-10.7308
X18.5624Y-9.97
X18.573Y-6.7068
X18.5787Y-8.2132
X18.5789Y-7.4524
X18.5807Y-11.6088
X18.5864Y-13.1152
X18.5866Y-12.3543
X18.5881Y-9.0749
X18.5937Y-10.5812
X18.5939Y-9.8204
X18.6017Y-13.9665
X18.6074Y-15.4728
X18.6076Y-14.712
X18.6122Y-11.4592
X18.6179Y-12.9656
X18.6181Y-12.2047
X18.6332Y-13.8169
X18.6389Y-15.3232
X18.6391Y-14.5624
X18.7944Y-2.6077
X18.8147Y-2.6884
X18.822Y-4.8991
X18.8314Y-2.6717
X18.8423Y-4.9798
X18.8576Y-7.2265
X18.8589Y-4.9631
X18.8727Y-9.5946
X18.8779Y-7.3072
X18.893Y-9.6753
X18.8946Y-7.2905
X18.8969Y-11.9789
X18.9096Y-9.6586
X18.9171Y-12.0596
X18.9178Y-14.3366
X18.9274Y-2.7847
X18.9325Y-9.6708
X18.9338Y-12.0429
X18.9381Y-14.4173
X18.9548Y-14.4006
X18.9549Y-5.0761
X18.9906Y-7.4035
X19.0056Y-9.7716
X19.0298Y-12.1559
X19.0433Y-12.0945
X19.0508Y-14.5136
X19.0614Y-2.6637
X19.0709Y-2.6299
X19.0827Y-2.6969
X19.0889Y-4.955
X19.0984Y-4.9213
X19.1102Y-4.9882
X19.1246Y-7.2825
X19.1339Y-7.248
X19.1396Y-9.6506
X19.1457Y-7.315
X19.1496Y-9.6181
X19.1614Y-9.685
X19.1638Y-12.0349
X19.1732Y-12.0
X19.1848Y-14.3926
X19.185Y-12.0669
X19.1929Y-14.3583
X19.2047Y-14.4252
T2
X2.9331Y-1.1693
X3.2008Y-1.0841
X3.2008Y-1.2047
X3.3268Y-1.9528
X3.3665Y-1.0412
X3.3976Y-1.2047
X3.6024Y-1.0718
T3
X1.2559Y-2.7756
X1.3077Y-11.1136
X1.3444Y-1.1927
X1.3583Y-9.9961
X1.3617Y-10.6904
X1.365Y-1.1211
X1.3693Y-2.6967
X1.3804Y-2.4369
X1.386Y-2.3907
X1.3886Y-1.997
X1.3896Y-3.126
X1.3898Y-3.3819
X1.3901Y-3.428
X1.3911Y-3.0261
X1.3937Y-0.8425
X1.3937Y-2.5236
X1.3937Y-2.937
X1.3945Y-2.7274
X1.3945Y-2.7785
X1.3945Y-2.8553
X1.3945Y-3.1936
X1.3945Y-3.244
X1.3945Y-4.2834
X1.3959Y-1.092
X1.4012Y-1.7517
X1.4016Y-2.1299
X1.4055Y-1.2835
X1.4055Y-1.7126
X1.4096Y-0.7147
X1.4123Y-2.1703
X1.4123Y-2.5612
X1.413Y-1.9459
X1.4132Y-1.1506
X1.4134Y-1.4764
X1.4136Y-1.0216
X1.4141Y-1.8866
X1.4172Y-1.6053
X1.418Y-1.5285
X1.4377Y-0.5221
X1.4625Y-7.6859
X1.471Y-11.5139
X1.4766Y-8.0948
X1.4792Y-7.3483
X1.4903Y-12.0807
X1.5079Y-6.5436
X1.5197Y-12.6279
X1.523Y-8.7906
X1.5233Y-2.314
X1.5239Y-2.2478
X1.5258Y-0.8572
X1.5267Y-0.8154
X1.5278Y-0.6118
X1.5281Y-2.4742
X1.5292Y-0.694
X1.5305Y-1.0522
X1.5319Y-1.2757
X1.5323Y-6.4805
X1.5354Y-1.1614
X1.5355Y-9.0963
X1.536Y-1.2018
X1.5399Y-1.4543
X1.5456Y-0.6564
X1.5458Y-8.7525
X1.5492Y-7.468
X1.5531Y-6.7194
X1.5561Y-1.9259
X1.5569Y-2.0124
X1.5585Y-1.8661
X1.5669Y-11.4852
X1.568Y-3.9353
X1.568Y-5.7797
X1.5814Y-2.8041
X1.5819Y-3.1278
X1.5836Y-0.6368
X1.5853Y-3.0863
X1.5853Y-3.1901
X1.5853Y-3.2397
X1.5858Y-7.1225
X1.587Y-3.2792
X1.5895Y-1.6858
X1.5962Y-12.1795
X1.5978Y-2.3892
X1.5982Y-2.8628
X1.5992Y-3.3255
X1.5997Y-1.5331
X1.6036Y-1.4843
X1.6086Y-2.0622
X1.6155Y-2.0118
X1.6179Y-0.8107
X1.6198Y-2.2885
X1.6299Y-1.5827
X1.6323Y-1.6377
X1.6339Y-2.7333
X1.6364Y-2.1356
X1.6387Y-2.6812
X1.6507Y-2.0879
X1.652Y-2.0365
X1.6525Y-2.4723
X1.6629Y-2.3188
X1.6701Y-9.9909
X1.6741Y-1.6753
X1.689Y-0.6339
X1.6929Y-0.6748
X1.6931Y-0.7527
X1.6966Y-1.097
X1.6969Y-1.4528
X1.6973Y-1.003
X1.6977Y-1.1653
X1.7008Y-1.4961
X1.7014Y-1.5422
X1.7015Y-1.6053
X1.7387Y-8.53
X1.7679Y-12.7638
X1.7887Y-7.7095
X1.7905Y-2.1585
X1.7963Y-7.6078
X1.7965Y-6.8722
X1.7976Y-4.5433
X1.7993Y-2.9946
X1.8022Y-3.4174
X1.8064Y-2.5129
X1.8101Y-2.7786
X1.8102Y-0.7352
X1.8112Y-0.6368
X1.8133Y-2.6801
X1.8139Y-2.4163
X1.8139Y-4.1931
X1.814Y-3.5236
X1.8141Y-1.2785
X1.8143Y-9.4257
X1.8145Y-1.0952
X1.8147Y-2.0226
X1.815Y-3.0787
X1.8153Y-2.8222
X1.8166Y-3.2695
X1.8181Y-2.2628
X1.8181Y-1.4843
X1.8189Y-0.5394
X1.8189Y-2.2205
X1.8189Y-2.6339
X1.8189Y-3.3268
X1.8199Y-1.5797
X1.8205Y-0.8593
X1.8209Y-2.3681
X1.8228Y-0.7874
X1.8228Y-2.4685
X1.8228Y-2.8819
X1.8267Y-1.1353
X1.8268Y-1.8268
X1.8307Y-0.9803
X1.8307Y-1.4094
X1.8307Y-2.0748
X1.8346Y-1.2283
X1.8346Y-1.6575
X1.838Y-0.7058
X1.8385Y-1.6177
X1.8419Y-1.9103
X1.8426Y-0.8267
X1.8442Y-2.9499
X1.8473Y-3.3816
X1.8543Y-1.9803
X1.8574Y-0.5681
X1.8583Y-2.1568
X1.8612Y-3.1874
X1.8633Y-3.2268
X1.8664Y-1.472
X1.8697Y-2.7402
X1.8754Y-2.9182
X1.878Y-2.2795
X1.8788Y-0.7035
X1.8819Y-2.6457
X1.8849Y-2.8781
X1.8849Y-2.4905
X1.8914Y-1.8931
X1.8937Y-1.1339
X1.8976Y-3.122
X1.9007Y-3.1818
X1.9068Y-2.3725
X1.9125Y-2.314
X1.9266Y-12.5993
X1.9317Y-1.6673
X1.937Y-10.9561
X1.9423Y-11.4566
X1.9454Y-1.1969
X1.9471Y-2.2402
X1.9502Y-10.8057
X1.9539Y-11.8585
X1.9567Y-6.5309
X1.9605Y-8.5685
X1.9724Y-6.8437
X1.9777Y-1.8639
X1.9803Y-13.1575
X1.9852Y-9.6081
X1.9862Y-11.2555
X1.9882Y-1.748
X1.9892Y-9.3561
X1.9935Y-5.2813
X1.994Y-4.1358
X1.995Y-12.9167
X1.9961Y-3.7438
X1.9961Y-9.8679
X2.0005Y-8.2181
X2.0069Y-1.8189
X2.0079Y-6.0787
X2.0315Y-6.3358
X2.0422Y-2.3539
X2.0945Y-0.9724
X2.1535Y-1.5591
X2.1899Y-12.6615
X2.2051Y-3.4643
X2.2205Y-1.2047
X2.2283Y-1.7244
X2.2784Y-3.5377
X2.3094Y-9.4846
X2.315Y-0.6732
X2.3192Y-9.2512
X2.3192Y-10.02
X2.3231Y-7.3174
X2.3465Y-6.4685
X2.3487Y-8.1236
X2.3569Y-11.6591
X2.3661Y-8.3622
X2.3661Y-8.6614
X2.3775Y-12.2577
X2.378Y-10.2874
X2.3799Y-6.2185
X2.3807Y-9.7577
X2.3815Y-8.9677
X2.3819Y-7.8386
X2.3819Y-10.6063
X2.3858Y-7.587
X2.3904Y-5.3813
X2.394Y-3.7254
X2.394Y-4.0379
X2.3943Y-5.964
X2.3946Y-13.3035
X2.3951Y-4.2874
X2.3951Y-6.8434
X2.3951Y-11.2295
X2.3989Y-10.9775
X2.4035Y-2.6938
X2.4489Y-8.7545
X2.4735Y-6.5309
X2.4884Y-5.452
X2.5033Y-2.9177
X2.5347Y-5.6805
X2.5347Y-4.498
X2.5479Y-15.1234
X2.5787Y-1.2559
X2.5827Y-1.5039
X2.6045Y-11.9585
X2.6273Y-12.7957
X2.6483Y-12.7095
X2.6745Y-2.52
X2.6778Y-11.4031
X2.6778Y-12.3335
X2.6879Y-4.5766
X2.7875Y-12.5346
X2.7963Y-2.9475
X2.7992Y-2.2688
X2.811Y-2.626
X2.82Y-5.8091
X2.8386Y-1.8661
X2.8427Y-2.4558
X2.8439Y-2.2918
X2.8492Y-5.0844
X2.8493Y-3.4043
X2.8583Y-1.2048
X2.8591Y-1.7202
X2.8688Y-1.1242
X2.874Y-2.3976
X2.875Y-3.4355
X2.875Y-4.8335
X2.8851Y-2.2431
X2.9016Y-1.5118
X2.9016Y-2.3203
X2.9016Y-2.5
X2.9025Y-0.7562
X2.9055Y-0.878
X2.9055Y-1.2756
X2.9059Y-0.7954
X2.9075Y-1.6742
X2.9094Y-1.73
X2.9166Y-2.3967
X2.9173Y-2.1024
X2.9206Y-0.6783
X2.9246Y-1.9281
X2.9254Y-2.0049
X2.9261Y-1.8843
X2.9326Y-7.191
X2.9388Y-2.8825
X2.9448Y-14.342
X2.9566Y-2.1423
X2.9814Y-13.0476
X3.0039Y-6.3819
X3.0216Y-3.7251
X3.0239Y-4.2554
X3.0348Y-9.9185
X3.0385Y-0.6633
X3.0443Y-0.7613
X3.0458Y-2.7677
X3.0503Y-2.558
X3.0512Y-2.4764
X3.0525Y-14.2927
X3.0551Y-0.8583
X3.0551Y-1.2441
X3.0551Y-1.6457
X3.0551Y-2.0551
X3.0709Y-0.7953
X3.0838Y-1.0881
X3.0838Y-1.8389
X3.0839Y-0.9936
X3.0842Y-1.7922
X3.0849Y-1.981
X3.0853Y-0.9541
X3.0866Y-1.4567
X3.0936Y-1.1684
X3.0937Y-1.6693
X3.1164Y-2.4872
X3.1197Y-0.7907
X3.1456Y-8.7319
X3.1812Y-6.4893
X3.1919Y-0.6959
X3.2043Y-0.7982
X3.2049Y-0.7563
X3.2082Y-1.7995
X3.2091Y-2.4016
X3.2091Y-1.917
X3.2094Y-2.2557
X3.2098Y-2.8533
X3.232Y-2.7946
X3.2333Y-0.5146
X3.2433Y-2.981
X3.2482Y-13.091
X3.2584Y-6.8246
X3.2612Y-2.7422
X3.2614Y-3.3969
X3.2638Y-9.3031
X3.271Y-11.84
X3.2757Y-0.9518
X3.2768Y-5.2772
X3.2778Y-8.5463
X3.2811Y-12.8795
X3.2835Y-11.2205
X3.285Y-12.6276
X3.2856Y-10.7996
X3.2885Y-10.9717
X3.2925Y-2.7136
X3.3Y-7.9429
X3.3031Y-10.122
X3.3039Y-7.6909
X3.3057Y-9.8491
X3.312Y-4.4309
X3.315Y-4.9449
X3.3185Y-6.3361
X3.3216Y-6.0796
X3.3222Y-15.0199
X3.3231Y-4.7023
X3.3239Y-11.4852
X3.3263Y-6.5856
X3.3266Y-2.2442
X3.3268Y-2.1969
X3.3282Y-1.8399
X3.3307Y-0.5748
X3.3307Y-0.9724
X3.3317Y-9.5925
X3.3317Y-8.2113
X3.3346Y-0.8228
X3.3346Y-1.2205
X3.3346Y-1.3858
X3.3373Y-0.6812
X3.338Y-1.8975
X3.3386Y-1.6142
X3.3425Y-1.6742
X3.3425Y-1.7992
X3.3465Y-2.0472
X3.3467Y-2.4849
X3.3616Y-2.8232
X3.367Y-2.2452
X3.4097Y-0.8119
X3.4252Y-1.4588
X3.437Y-10.2087
X3.4434Y-6.3066
X3.4801Y-2.4106
X3.4882Y-0.8223
X3.4887Y-13.1102
X3.4887Y-15.0937
X3.5197Y-1.5984
X3.6102Y-0.815
X3.6175Y-10.7005
X3.6483Y-10.8667
X3.6507Y-6.7161
X3.6507Y-9.7354
X3.6588Y-11.94
X3.6638Y-8.9455
X3.6699Y-7.586
X3.6733Y-6.843
X3.6808Y-10.2841
X3.6808Y-10.5833
X3.6858Y-7.8406
X3.6876Y-8.6463
X3.6945Y-13.285
X3.6969Y-9.4835
X3.6979Y-11.6291
X3.6988Y-6.2144
X3.7004Y-5.3772
X3.7094Y-8.0925
X3.71Y-5.0884
X3.7134Y-8.3484
X3.7165Y-0.8113
X3.7175Y-4.8325
X3.7196Y-9.2513
X3.7214Y-6.4308
X3.728Y-5.6892
X3.7352Y-11.1389
X3.7371Y-5.7507
X3.7376Y-11.5304
X3.748Y-10.0551
X3.7514Y-4.017
X3.7535Y-7.3599
X3.7933Y-12.3631
X3.7953Y-0.8113
X3.8412Y-3.2238
X3.8583Y-0.8179
X3.8583Y-1.1811
X3.8862Y-4.1262
X3.9188Y-7.4071
X3.9474Y-4.5805
X3.9762Y-4.3601
X4.0079Y-1.2047
X4.027Y-2.8689
X4.0805Y-13.5914
X4.1881Y-12.5226
X4.2001Y-12.7703
X4.2001Y-14.243
X4.204Y-2.5323
X4.2047Y-0.6102
X4.2711Y-1.2744
X4.2997Y-1.9038
X4.2997Y-3.7084
X4.3052Y-4.0544
X4.4134Y-1.2953
X4.4449Y-6.1142
X4.4483Y-1.5682
X4.4619Y-8.2222
X4.5211Y-12.0192
X4.5329Y-1.5218
X4.5519Y-1.9085
X4.5637Y-1.554
X4.5969Y-1.6384
X4.6523Y-14.1858
X4.6635Y-1.5286
X4.6811Y-10.248
X4.7001Y-1.0868
X4.7136Y-10.7758
X4.7288Y-2.1354
X4.7662Y-2.183
X4.7677Y-2.0472
X4.7717Y-12.5906
X4.7749Y-12.8702
X4.7795Y-11.811
X4.7874Y-10.2992
X4.7913Y-6.0472
X4.7992Y-8.4732
X4.8031Y-6.2795
X4.8043Y-11.2343
X4.811Y-4.6654
X4.811Y-7.9213
X4.8116Y-10.0101
X4.8117Y-9.5729
X4.815Y-7.6811
X4.8152Y-3.6435
X4.8171Y-10.9912
X4.8237Y-8.1936
X4.824Y-9.3366
X4.8254Y-13.1637
X4.8268Y-4.4291
X4.8285Y-1.1346
X4.8287Y-11.5017
X4.8311Y-9.8523
X4.8311Y-4.936
X4.8315Y-6.8878
X4.8335Y-5.2719
X4.8346Y-6.5687
X4.9087Y-2.2203
X5.0074Y-1.482
X5.0157Y-7.6457
X5.1417Y-13.3049
X5.1417Y-1.0984
X5.1418Y-10.8774
X5.1418Y-12.5425
X5.1419Y-9.7382
X5.1512Y-8.6553
X5.1637Y-11.6398
X5.1686Y-15.0761
X5.1811Y-8.9488
X5.1812Y-10.2947
X5.1969Y-1.0984
X5.2001Y-7.0033
X5.2004Y-12.2591
X5.2011Y-5.3732
X5.2098Y-11.1319
X5.2138Y-11.3839
X5.2145Y-5.9559
X5.2146Y-8.0925
X5.215Y-6.1005
X5.2185Y-4.8327
X5.2203Y-6.4372
X5.2203Y-6.6873
X5.2203Y-8.1921
X5.2203Y-10.5479
X5.223Y-7.3026
X5.2242Y-7.7936
X5.2256Y-9.4862
X5.2323Y-5.6929
X5.2399Y-10.0685
X5.2536Y-14.1007
X5.2836Y-13.0212
X5.2849Y-12.7852
X5.2879Y-3.4976
X5.2913Y-9.2798
X5.3081Y-15.058
X5.3153Y-1.955
X5.3241Y-4.237
X5.3266Y-12.641
X5.367Y-3.7435
X5.368Y-5.0886
X5.383Y-3.812
X5.4084Y-14.1569
X5.4387Y-4.5807
X5.4387Y-2.6363
X5.4575Y-1.9398
X5.468Y-4.0464
X5.5342Y-1.9037
X5.6005Y-1.7824
X5.6291Y-1.8574
X5.6301Y-2.0867
X5.6911Y-11.9845
X5.6911Y-13.4996
X5.7122Y-2.0327
X5.7559Y-4.3262
X5.9724Y-6.2126
X6.005Y-1.9882
X6.0276Y-6.2126
X6.0787Y-6.2126
X6.0835Y-0.7007
X6.1163Y-1.8222
X6.1394Y-3.6547
X6.1395Y-3.7402
X6.1462Y-1.7647
X6.168Y-2.163
X6.2Y-2.7348
X6.2003Y-6.2126
X6.2008Y-1.2992
X6.2205Y-1.2638
X6.2336Y-0.8784
X6.2791Y-0.8986
X6.2852Y-0.5547
X6.3309Y-5.5906
X6.331Y-5.2907
X6.331Y-11.8285
X6.3317Y-0.7184
X6.3319Y-0.9842
X6.3465Y-9.1693
X6.3535Y-0.5365
X6.3653Y-7.6503
X6.378Y-13.1102
X6.3787Y-10.7455
X6.3821Y-0.6372
X6.387Y-12.8681
X6.3878Y-12.618
X6.3895Y-9.5733
X6.3974Y-9.9726
X6.3979Y-10.9691
X6.4023Y-9.8531
X6.4035Y-11.4754
X6.4077Y-8.5393
X6.4115Y-8.1936
X6.4118Y-1.0081
X6.4126Y-6.9073
X6.4158Y-11.2388
X6.4298Y-7.9581
X6.4311Y-4.6673
X6.4331Y-4.4134
X6.4341Y-6.0569
X6.4497Y-4.9349
X6.4653Y-6.578
X6.4663Y-6.3242
X6.5139Y-0.7361
X6.5512Y-1.3622
X6.563Y-3.7283
X6.6925Y-1.3423
X6.6969Y-1.3031
X6.7174Y-12.5112
X6.7228Y-11.3661
X6.7253Y-9.2342
X6.7253Y-10.0101
X6.7795Y-5.9528
X6.7898Y-9.1101
X6.7898Y-9.5001
X6.7914Y-12.3133
X6.7925Y-10.2829
X6.795Y-7.0073
X6.8009Y-7.59
X6.8049Y-7.7832
X6.811Y-12.5609
X6.8122Y-9.7382
X6.813Y-11.628
X6.8148Y-7.2886
X6.8201Y-10.8843
X6.8272Y-8.0965
X6.8315Y-8.6428
X6.8323Y-11.1909
X6.8346Y-10.6079
X6.8376Y-6.4372
X6.8393Y-14.0328
X6.8445Y-5.0728
X6.8647Y-8.3776
X6.8683Y-13.0061
X6.8683Y-14.8986
X6.8698Y-6.7542
X6.8719Y-5.6694
X6.8764Y-6.1775
X6.9149Y-13.2736
X6.9302Y-4.8169
X7.0828Y-3.3382
X7.1087Y-13.5627
X7.1217Y-3.2646
X7.1297Y-4.2691
X7.1595Y-11.9285
X7.173Y-4.2834
X7.1756Y-2.476
X7.2043Y-4.0476
X7.2066Y-5.3294
X7.252Y-1.5354
X7.3346Y-12.7657
X7.3386Y-6.0431
X7.3509Y-1.7607
X7.3764Y-14.9288
X7.3819Y-5.9803
X7.3848Y-4.565
X7.3849Y-2.5643
X7.4177Y-1.9885
X7.4177Y-3.7278
X7.4463Y-2.5145
X7.4743Y-13.534
X7.5116Y-1.7932
X7.6796Y-14.2144
X7.7498Y-1.8478
X7.7836Y-1.2207
X7.8133Y-0.9561
X7.8478Y-0.9272
X7.8648Y-0.7827
X7.8662Y-1.059
X7.9076Y-0.672
X7.9622Y-0.7397
X8.0079Y-4.8819
X8.0311Y-10.824
X8.0796Y-0.5076
X8.0906Y-13.1102
X8.0984Y-9.5118
X8.0984Y-11.7874
X8.1024Y-10.937
X8.1082Y-0.832
X8.1102Y-11.4646
X8.1109Y-12.6271
X8.1239Y-10.1906
X8.124Y-8.5331
X8.1254Y-7.6571
X8.126Y-11.2239
X8.1285Y-0.9147
X8.1299Y-6.0157
X8.1299Y-9.311
X8.1327Y-12.8988
X8.1335Y-12.376
X8.1339Y-4.6102
X8.1388Y-6.8915
X8.1426Y-5.2537
X8.1476Y-6.2933
X8.1476Y-7.9311
X8.1555Y-4.4176
X8.1667Y-8.1991
X8.1772Y-4.9291
X8.1878Y-6.562
X8.2913Y-3.7283
X8.4426Y-13.3035
X8.4426Y-14.9576
X8.4526Y-12.7854
X8.4842Y-11.9482
X8.4882Y-8.9173
X8.5028Y-10.8732
X8.5138Y-9.4703
X8.5163Y-7.5648
X8.5163Y-10.601
X8.5169Y-10.2715
X8.521Y-7.2595
X8.5309Y-4.3144
X8.5311Y-13.0374
X8.5323Y-5.9464
X8.5335Y-6.1909
X8.5404Y-11.1278
X8.5429Y-9.2157
X8.5433Y-5.5906
X8.5522Y-9.7393
X8.5551Y-9.9331
X8.5756Y-4.5689
X8.5825Y-15.0041
X8.5906Y-6.6987
X8.5911Y-12.5309
X8.5947Y-5.3531
X8.6036Y-7.8285
X8.6037Y-5.5489
X8.6152Y-3.7317
X8.6158Y-8.669
X8.7058Y-1.8637
X8.7161Y-5.5846
X8.7338Y-4.0475
X8.7386Y-1.8349
X8.7395Y-12.2474
X8.7459Y-8.5306
X8.7517Y-13.6352
X8.7891Y-11.6327
X8.8125Y-6.9915
X8.815Y-5.2795
X8.8176Y-4.8209
X8.8553Y-8.0807
X8.8893Y-11.3751
X8.909Y-14.2634
X8.9134Y-8.9384
X8.9671Y-7.0786
X8.9818Y-6.4492
X8.9871Y-2.5798
X9.058Y-5.0768
X9.1057Y-3.3006
X9.4013Y-3.9476
X10.1545Y-3.8626
X10.1625Y-12.7019
X10.3819Y-5.7323
X10.3849Y-8.684
X10.4298Y-6.3294
X10.462Y-4.8904
X10.4724Y-7.2953
X10.4733Y-2.0157
X10.4762Y-2.6077
X10.4782Y-8.0702
X10.4846Y-4.2049
X10.4876Y-3.3648
X10.4888Y-10.3421
X10.5433Y-11.1417
X10.5551Y-8.9843
X10.5567Y-12.7171
X10.5602Y-1.7893
X10.5832Y-10.3206
X10.5883Y-9.6768
X10.5959Y-11.9267
X10.6002Y-2.6576
X10.6252Y-15.0414
X10.6305Y-14.2855
X10.6693Y-7.937
X10.6693Y-11.0945
X10.6822Y-8.9507
X10.6991Y-13.4977
X10.7098Y-4.1748
X10.7115Y-3.3505
X10.7136Y-6.5649
X10.7153Y-5.6979
X10.7157Y-4.9295
X10.7215Y-9.3572
X10.7607Y-13.4965
X10.7835Y-7.3031
X10.8094Y-12.0023
X10.8504Y-8.9498
X10.8521Y-15.1136
X10.8524Y-14.342
X11.7792Y-13.6805
X11.8888Y-12.0009
X12.0197Y-4.7835
X12.0477Y-8.2911
X12.0477Y-10.6806
X12.0646Y-4.5808
X12.1024Y-13.3386
X12.1062Y-3.6829
X12.1082Y-6.8077
X12.1111Y-5.9307
X12.1162Y-11.5132
X12.1179Y-13.0196
X12.1192Y-12.2587
X12.1194Y-9.1413
X12.1203Y-12.8976
X12.1262Y-2.9327
X12.1364Y-14.9755
X12.1401Y-5.5026
X12.1417Y-14.6102
X12.1429Y-7.5012
X12.1429Y-5.1533
X12.1433Y-9.9527
X12.1608Y-13.8329
X12.1683Y-9.5477
X12.1913Y-2.5322
X12.1929Y-12.0984
X12.1948Y-1.8776
X12.1955Y-2.417
X12.2019Y-10.3196
X12.2047Y-11.7753
X12.2047Y-11.8375
X12.2047Y-13.5815
X12.21Y-4.1613
X12.212Y-4.9206
X12.2155Y-4.8358
X12.2253Y-6.347
X12.2321Y-3.236
X12.2362Y-11.0939
X12.2362Y-12.6552
X12.2404Y-10.1818
X12.2416Y-6.2093
X12.2445Y-8.7823
X12.2516Y-7.9055
X12.2566Y-15.0746
X12.2621Y-7.1086
X12.266Y-14.1966
X12.2677Y-12.5153
X12.2678Y-9.5275
X12.2736Y-7.7866
X12.2795Y-3.2283
X12.2831Y-5.4491
X12.2831Y-10.9629
X12.2851Y-7.0449
X12.2874Y-3.9142
X12.2903Y-4.6947
X12.3099Y-8.9213
X12.3109Y-8.5527
X12.3504Y-10.2953
X12.3516Y-8.0409
X12.3553Y-3.421
X12.3553Y-1.9007
X12.3554Y-14.8638
X12.3561Y-5.6942
X12.3577Y-4.0551
X12.3616Y-2.6513
X12.3616Y-6.5353
X12.3616Y-14.1198
X12.3636Y-11.1229
X12.3931Y-14.2199
X12.3959Y-13.482
X12.4055Y-13.2717
X12.4368Y-9.6317
X12.4379Y-7.2619
X12.4553Y-12.6898
X12.9601Y-11.98
X13.523Y-13.7762
X13.7195Y-15.6231
X13.8287Y-2.1378
X13.9083Y-7.371
X13.918Y-3.6547
X13.9349Y-3.3478
X13.9468Y-2.8833
X13.9826Y-8.4483
X14.0002Y-4.4198
X14.0059Y-9.945
X14.0096Y-1.8172
X14.0096Y-12.7279
X14.0119Y-5.1566
X14.0285Y-8.3055
X14.0378Y-5.7717
X14.0524Y-11.98
X14.066Y-10.6486
X14.0881Y-6.3703
X14.0881Y-9.1735
X14.0882Y-11.513
X14.0959Y-13.2541
X14.1053Y-2.6331
X14.109Y-13.4511
X14.1102Y-13.0061
X14.1102Y-4.0315
X14.1123Y-4.0851
X14.1175Y-4.8335
X14.1193Y-9.9273
X14.1203Y-7.1084
X14.1274Y-5.5462
X14.1299Y-7.2503
X14.1378Y-9.622
X14.1417Y-3.1496
X14.1476Y-12.2101
X14.151Y-6.1835
X14.1519Y-5.4215
X14.1528Y-7.9436
X14.1607Y-14.5747
X14.1621Y-2.4019
X14.1623Y-3.8974
X14.1638Y-15.3355
X14.1696Y-13.7063
X14.1696Y-14.1392
X14.1794Y-5.7007
X14.1865Y-8.8466
X14.1889Y-11.7262
X14.1894Y-10.2255
X14.1923Y-1.8931
X14.1941Y-3.3914
X14.2152Y-11.0715
X14.218Y-10.918
X14.2337Y-7.7556
X14.2357Y-9.4042
X14.2404Y-11.7477
X14.2417Y-13.5107
X14.2445Y-4.6824
X14.245Y-7.0338
X14.2472Y-2.6394
X14.2477Y-15.0255
X14.2494Y-12.6346
X14.2566Y-12.7301
X14.2623Y-4.9126
X14.2793Y-11.0938
X14.2917Y-14.1606
X14.3235Y-6.5052
X14.3235Y-14.8732
X14.3307Y-14.1285
X14.3368Y-10.1575
X14.3583Y-8.9213
X14.3598Y-12.5327
X14.3766Y-7.9547
X14.4138Y-9.5496
X14.4155Y-10.3958
X14.4711Y-11.9313
X14.4715Y-15.0492
X14.9774Y-11.9753
X15.5491Y-13.7619
X15.8317Y-15.6164
X15.8931Y-5.9336
X15.9151Y-5.1478
X15.9219Y-5.6063
X15.927Y-7.5053
X15.9416Y-8.2613
X15.9468Y-3.6518
X15.954Y-11.7311
X15.9543Y-4.4418
X15.9545Y-9.8628
X15.9545Y-12.2202
X15.9558Y-6.7555
X15.9627Y-10.6455
X15.9645Y-2.903
X15.9699Y-2.1572
X15.9708Y-11.9753
X15.9722Y-12.9587
X15.9817Y-11.4813
X15.9923Y-9.1183
X16.0088Y-13.8419
X16.015Y-15.3562
X16.0276Y-4.8425
X16.0388Y-14.5681
X16.0484Y-3.3382
X16.05Y-1.8776
X16.05Y-6.3798
X16.05Y-7.8196
X16.054Y-5.6369
X16.0544Y-4.9257
X16.0591Y-13.189
X16.0785Y-7.1926
X16.0788Y-7.9768
X16.0915Y-2.4911
X16.0948Y-5.4149
X16.0977Y-8.815
X16.1024Y-3.1226
X16.1034Y-9.5218
X16.1066Y-4.158
X16.1096Y-2.3776
X16.1101Y-10.3721
X16.1144Y-13.534
X16.1239Y-7.0156
X16.1283Y-12.5683
X16.1285Y-9.3964
X16.1285Y-10.1375
X16.1285Y-14.914
X16.1289Y-4.6666
X16.1302Y-10.8978
X16.1322Y-8.522
X16.1331Y-11.0894
X16.1346Y-5.7008
X16.1386Y-10.2432
X16.1392Y-11.7385
X16.1473Y-14.8619
X16.1627Y-6.1781
X16.1638Y-3.2544
X16.1751Y-2.4918
X16.1766Y-4.034
X16.1819Y-4.2083
X16.184Y-12.48
X16.1946Y-9.6224
X16.2052Y-14.1164
X16.207Y-8.0158
X16.207Y-14.1656
X16.207Y-14.9436
X16.2388Y-12.5973
X16.2563Y-8.7548
X16.2573Y-14.2095
X16.2638Y-11.0827
X16.265Y-1.7725
X16.2962Y-6.4825
X16.3018Y-7.1926
X16.3249Y-11.9059
X16.3384Y-13.5561
X17.5158Y-11.252
X17.5337Y-8.6613
X17.5702Y-4.097
X17.7842Y-13.5484
X17.8355Y-2.4955
X17.8679Y-12.9931
X18.0788Y-7.3597
X18.0904Y-9.8628
X18.1105Y-3.6219
X18.1314Y-2.8654
X18.1469Y-12.5123
X18.1543Y-11.8064
X18.155Y-8.0414
X18.1562Y-5.9133
X18.1569Y-5.1524
X18.169Y-13.0472
X18.1761Y-12.6203
X18.1811Y-4.4488
X18.1893Y-12.456
X18.1903Y-5.6714
X18.1945Y-9.1024
X18.2037Y-9.848
X18.2075Y-1.8602
X18.2263Y-13.81
X18.2266Y-6.6575
X18.228Y-8.0858
X18.2307Y-11.4669
X18.2317Y-6.7793
X18.233Y-12.2272
X18.2364Y-3.3183
X18.2426Y-10.6408
X18.2427Y-2.597
X18.2489Y-4.8375
X18.2589Y-4.092
X18.2598Y-5.3265
X18.2622Y-14.5673
X18.269Y-11.7527
X18.2835Y-15.2992
X18.2854Y-14.8515
X18.2942Y-6.4272
X18.2996Y-7.8982
X18.2997Y-7.1454
X18.3016Y-3.115
X18.3089Y-4.6605
X18.3136Y-11.7488
X18.3147Y-9.496
X18.315Y-10.2087
X18.3155Y-10.2678
X18.3161Y-9.5628
X18.3258Y-2.3689
X18.3258Y-5.6547
X18.3258Y-14.1065
X18.3274Y-11.1076
X18.3353Y-7.7368
X18.3368Y-6.991
X18.3416Y-6.1665
X18.3519Y-9.3589
X18.3574Y-3.894
X18.3591Y-14.2634
X18.3612Y-14.9895
X18.3699Y-11.108
X18.3937Y-4.0079
X18.4007Y-5.523
X18.4119Y-7.1072
X18.4173Y-13.252
X18.419Y-8.5269
X18.4409Y-8.7008
X18.4532Y-1.8359
X18.4603Y-3.3404
X18.4758Y-11.842
X18.4764Y-10.7638
X18.4877Y-4.8335
X18.4903Y-14.2118
X18.4909Y-13.4593
X18.4966Y-14.9642
X18.5175Y-6.4051
T4
X4.9961Y-1.0906
X4.9961Y-1.1299
X4.9961Y-1.1693
X5.2362Y-1.5157
X5.2362Y-1.5551
X5.2362Y-1.5945
X5.2362Y-1.6339
X5.2362Y-1.6732
X5.2375Y-1.2507
X5.2375Y-1.2901
X5.2375Y-1.3294
X5.2375Y-1.3688
X9.437Y-7.4291
X9.437Y-7.4685
X9.437Y-7.5079
X9.437Y-7.5472
X9.437Y-7.5866
X9.437Y-7.626
X9.437Y-7.6654
X9.437Y-7.7047
X9.437Y-7.7441
X9.437Y-7.7835
X9.437Y-7.8228
X9.437Y-7.8622
X9.437Y-7.9016
X9.437Y-7.9409
X9.437Y-7.9803
X9.437Y-8.0197
X9.437Y-8.0591
X9.437Y-8.0984
X9.437Y-8.1378
X9.437Y-8.1772
X9.437Y-8.2165
X9.437Y-8.2559
X9.437Y-8.2953
X9.437Y-8.3346
X9.437Y-8.374
X9.437Y-8.4134
X9.437Y-8.4528
X9.437Y-8.4921
X9.437Y-8.5315
X9.437Y-8.5709
X9.437Y-8.6102
X9.437Y-8.6496
X9.437Y-8.689
X9.437Y-8.7283
X9.437Y-8.7677
X9.437Y-8.8071
X20.9528Y-7.122
X20.9528Y-7.1614
X20.9528Y-7.2008
X20.9528Y-7.2402
X20.9528Y-7.2795
X20.9528Y-7.3189
T0
M30
