%TF.GenerationSoftware,KiCad,Pcbnew,(6.99.0-3937-g3e53426b6c)*%
%TF.CreationDate,2024-12-16T03:44:05-05:00*%
%TF.ProjectId,AnalogFNN,416e616c-6f67-4464-9e4e-2e6b69636164,rev?*%
%TF.SameCoordinates,Original*%
%TF.FileFunction,Soldermask,Bot*%
%TF.FilePolarity,Negative*%
%FSLAX46Y46*%
G04 Gerber Fmt 4.6, Leading zero omitted, Abs format (unit mm)*
G04 Created by KiCad (PCBNEW (6.99.0-3937-g3e53426b6c)) date 2024-12-16 03:44:05*
%MOMM*%
%LPD*%
G01*
G04 APERTURE LIST*
%ADD10R,0.850000X0.850000*%
%ADD11O,0.850000X0.850000*%
G04 APERTURE END LIST*
D10*
%TO.C,SW1*%
X126899999Y-27699999D03*
D11*
X126899999Y-28699999D03*
X126899999Y-29699999D03*
%TD*%
D10*
%TO.C,J2*%
X132999999Y-42499999D03*
D11*
X132999999Y-41499999D03*
X132999999Y-40499999D03*
X132999999Y-39499999D03*
X132999999Y-38499999D03*
%TD*%
D10*
%TO.C,J1*%
X133031399Y-31767999D03*
D11*
X133031399Y-32767999D03*
X133031399Y-33767999D03*
X133031399Y-34767999D03*
%TD*%
D10*
%TO.C,J4*%
X532199999Y-180899999D03*
D11*
X532199999Y-181899999D03*
X532199999Y-182899999D03*
X532199999Y-183899999D03*
X532199999Y-184899999D03*
X532199999Y-185899999D03*
%TD*%
D10*
%TO.C,J3*%
X239699999Y-188699999D03*
D11*
X239699999Y-189699999D03*
X239699999Y-190699999D03*
X239699999Y-191699999D03*
X239699999Y-192699999D03*
X239699999Y-193699999D03*
X239699999Y-194699999D03*
X239699999Y-195699999D03*
X239699999Y-196699999D03*
X239699999Y-197699999D03*
X239699999Y-198699999D03*
X239699999Y-199699999D03*
X239699999Y-200699999D03*
X239699999Y-201699999D03*
X239699999Y-202699999D03*
X239699999Y-203699999D03*
X239699999Y-204699999D03*
X239699999Y-205699999D03*
X239699999Y-206699999D03*
X239699999Y-207699999D03*
X239699999Y-208699999D03*
X239699999Y-209699999D03*
X239699999Y-210699999D03*
X239699999Y-211699999D03*
X239699999Y-212699999D03*
X239699999Y-213699999D03*
X239699999Y-214699999D03*
X239699999Y-215699999D03*
X239699999Y-216699999D03*
X239699999Y-217699999D03*
X239699999Y-218699999D03*
X239699999Y-219699999D03*
X239699999Y-220699999D03*
X239699999Y-221699999D03*
X239699999Y-222699999D03*
X239699999Y-223699999D03*
%TD*%
M02*
